%TF.GenerationSoftware,KiCad,Pcbnew,8.0.2*%
%TF.CreationDate,2025-01-31T23:59:10-08:00*%
%TF.ProjectId,design_revb_2chip,64657369-676e-45f7-9265-76625f326368,rev?*%
%TF.SameCoordinates,Original*%
%TF.FileFunction,Profile,NP*%
%FSLAX46Y46*%
G04 Gerber Fmt 4.6, Leading zero omitted, Abs format (unit mm)*
G04 Created by KiCad (PCBNEW 8.0.2) date 2025-01-31 23:59:10*
%MOMM*%
%LPD*%
G01*
G04 APERTURE LIST*
%TA.AperFunction,Profile*%
%ADD10C,0.050000*%
%TD*%
%TA.AperFunction,Profile*%
%ADD11C,0.010000*%
%TD*%
G04 APERTURE END LIST*
D10*
X152500000Y-51000000D02*
X254000000Y-51000000D01*
X254000000Y-101500000D01*
X152500000Y-101500000D01*
X152500000Y-51000000D01*
D11*
%TO.C,J4*%
X159000000Y-69270000D02*
X159500000Y-69270000D01*
X159000000Y-78530000D02*
X159500000Y-78530000D01*
X159200000Y-69870000D02*
X159000000Y-69870000D01*
X159200000Y-70220000D02*
X159200000Y-69870000D01*
X159200000Y-77930000D02*
X159000000Y-77930000D01*
X159200000Y-77930000D02*
X159200000Y-77580000D01*
X159800000Y-69570000D02*
X159800000Y-70220000D01*
X159800000Y-77580000D02*
X159800000Y-78230000D01*
X160075000Y-77350000D02*
X160075000Y-77650000D01*
X160925000Y-77350000D02*
X160925000Y-77650000D01*
X159000000Y-69870000D02*
G75*
G02*
X159000000Y-69270000I0J300000D01*
G01*
X159000000Y-78530000D02*
G75*
G02*
X159000000Y-77930000I0J300000D01*
G01*
X159000000Y-78530000D02*
G75*
G02*
X159000000Y-77930000I0J300000D01*
G01*
X159200000Y-77580000D02*
G75*
G02*
X159800000Y-77580000I300000J0D01*
G01*
X159200000Y-77580000D02*
G75*
G02*
X159800000Y-77580000I300000J0D01*
G01*
X159500000Y-69270000D02*
G75*
G02*
X159800000Y-69570000I0J-300000D01*
G01*
X159800000Y-70220000D02*
G75*
G02*
X159200000Y-70220000I-300000J0D01*
G01*
X159800000Y-78230000D02*
G75*
G02*
X159500000Y-78530000I-300000J0D01*
G01*
X159800000Y-78230000D02*
G75*
G02*
X159500000Y-78530000I-300000J0D01*
G01*
X160075000Y-77350000D02*
G75*
G02*
X160925000Y-77350000I425000J0D01*
G01*
X160925000Y-77650000D02*
G75*
G02*
X160075000Y-77650000I-425000J0D01*
G01*
%TD*%
M02*
