%TF.GenerationSoftware,KiCad,Pcbnew,8.0.2*%
%TF.CreationDate,2025-01-31T23:59:10-08:00*%
%TF.ProjectId,design_revb_2chip,64657369-676e-45f7-9265-76625f326368,rev?*%
%TF.SameCoordinates,Original*%
%TF.FileFunction,Soldermask,Bot*%
%TF.FilePolarity,Negative*%
%FSLAX46Y46*%
G04 Gerber Fmt 4.6, Leading zero omitted, Abs format (unit mm)*
G04 Created by KiCad (PCBNEW 8.0.2) date 2025-01-31 23:59:10*
%MOMM*%
%LPD*%
G01*
G04 APERTURE LIST*
G04 Aperture macros list*
%AMRoundRect*
0 Rectangle with rounded corners*
0 $1 Rounding radius*
0 $2 $3 $4 $5 $6 $7 $8 $9 X,Y pos of 4 corners*
0 Add a 4 corners polygon primitive as box body*
4,1,4,$2,$3,$4,$5,$6,$7,$8,$9,$2,$3,0*
0 Add four circle primitives for the rounded corners*
1,1,$1+$1,$2,$3*
1,1,$1+$1,$4,$5*
1,1,$1+$1,$6,$7*
1,1,$1+$1,$8,$9*
0 Add four rect primitives between the rounded corners*
20,1,$1+$1,$2,$3,$4,$5,0*
20,1,$1+$1,$4,$5,$6,$7,0*
20,1,$1+$1,$6,$7,$8,$9,0*
20,1,$1+$1,$8,$9,$2,$3,0*%
G04 Aperture macros list end*
%ADD10C,0.010000*%
%ADD11RoundRect,0.140000X-0.140000X-0.170000X0.140000X-0.170000X0.140000X0.170000X-0.140000X0.170000X0*%
%ADD12RoundRect,0.140000X0.140000X0.170000X-0.140000X0.170000X-0.140000X-0.170000X0.140000X-0.170000X0*%
%ADD13C,0.499999*%
%ADD14C,0.850000*%
%ADD15C,0.804000*%
%ADD16O,1.604000X1.104000*%
%ADD17R,1.350000X1.350000*%
%ADD18O,1.350000X1.350000*%
%ADD19R,1.498600X1.498600*%
%ADD20C,1.498600*%
%ADD21RoundRect,0.102000X0.500000X0.485000X-0.500000X0.485000X-0.500000X-0.485000X0.500000X-0.485000X0*%
%ADD22RoundRect,0.250000X-0.262500X-0.450000X0.262500X-0.450000X0.262500X0.450000X-0.262500X0.450000X0*%
%ADD23RoundRect,0.250000X-0.450000X0.262500X-0.450000X-0.262500X0.450000X-0.262500X0.450000X0.262500X0*%
%ADD24RoundRect,0.250000X0.450000X-0.262500X0.450000X0.262500X-0.450000X0.262500X-0.450000X-0.262500X0*%
%ADD25RoundRect,0.140000X0.170000X-0.140000X0.170000X0.140000X-0.170000X0.140000X-0.170000X-0.140000X0*%
%ADD26RoundRect,0.102000X0.485000X-0.500000X0.485000X0.500000X-0.485000X0.500000X-0.485000X-0.500000X0*%
%ADD27RoundRect,0.250000X0.262500X0.450000X-0.262500X0.450000X-0.262500X-0.450000X0.262500X-0.450000X0*%
%ADD28R,1.400000X1.400000*%
%ADD29C,1.400000*%
%ADD30C,1.500000*%
G04 APERTURE END LIST*
D10*
%TO.C,J4*%
X159529000Y-69021000D02*
X159557000Y-69023000D01*
X159586000Y-69027000D01*
X159614000Y-69032000D01*
X159642000Y-69039000D01*
X159670000Y-69047000D01*
X159697000Y-69057000D01*
X159724000Y-69068000D01*
X159750000Y-69080000D01*
X159775000Y-69094000D01*
X159800000Y-69109000D01*
X159823000Y-69125000D01*
X159846000Y-69143000D01*
X159868000Y-69161000D01*
X159889000Y-69181000D01*
X159909000Y-69202000D01*
X159927000Y-69224000D01*
X159945000Y-69247000D01*
X159961000Y-69270000D01*
X159976000Y-69295000D01*
X159990000Y-69320000D01*
X160002000Y-69346000D01*
X160013000Y-69373000D01*
X160023000Y-69400000D01*
X160031000Y-69428000D01*
X160038000Y-69456000D01*
X160043000Y-69484000D01*
X160047000Y-69513000D01*
X160049000Y-69541000D01*
X160050000Y-69570000D01*
X160050000Y-70220000D01*
X160047000Y-70277000D01*
X160038000Y-70334000D01*
X160023000Y-70390000D01*
X160002000Y-70444000D01*
X159976000Y-70495000D01*
X159945000Y-70543000D01*
X159909000Y-70588000D01*
X159868000Y-70629000D01*
X159823000Y-70665000D01*
X159775000Y-70696000D01*
X159724000Y-70722000D01*
X159670000Y-70743000D01*
X159614000Y-70758000D01*
X159557000Y-70767000D01*
X159500000Y-70770000D01*
X159443000Y-70767000D01*
X159386000Y-70758000D01*
X159330000Y-70743000D01*
X159276000Y-70722000D01*
X159225000Y-70696000D01*
X159177000Y-70665000D01*
X159132000Y-70629000D01*
X159091000Y-70588000D01*
X159055000Y-70543000D01*
X159024000Y-70495000D01*
X158998000Y-70444000D01*
X158977000Y-70390000D01*
X158962000Y-70334000D01*
X158953000Y-70277000D01*
X158950000Y-70220000D01*
X158950000Y-70120000D01*
X158889000Y-70114000D01*
X158833000Y-70102000D01*
X158778000Y-70084000D01*
X158725000Y-70061000D01*
X158675000Y-70032000D01*
X158629000Y-69998000D01*
X158586000Y-69959000D01*
X158547000Y-69916000D01*
X158513000Y-69870000D01*
X158484000Y-69820000D01*
X158461000Y-69767000D01*
X158443000Y-69712000D01*
X158431000Y-69656000D01*
X158425000Y-69599000D01*
X158425000Y-69541000D01*
X158431000Y-69484000D01*
X158443000Y-69428000D01*
X158461000Y-69373000D01*
X158484000Y-69320000D01*
X158513000Y-69270000D01*
X158547000Y-69224000D01*
X158586000Y-69181000D01*
X158629000Y-69142000D01*
X158675000Y-69108000D01*
X158725000Y-69079000D01*
X158778000Y-69056000D01*
X158833000Y-69038000D01*
X158889000Y-69026000D01*
X158946000Y-69020000D01*
X159000000Y-69020000D01*
X159500000Y-69020000D01*
X159529000Y-69021000D01*
G36*
X159529000Y-69021000D02*
G01*
X159557000Y-69023000D01*
X159586000Y-69027000D01*
X159614000Y-69032000D01*
X159642000Y-69039000D01*
X159670000Y-69047000D01*
X159697000Y-69057000D01*
X159724000Y-69068000D01*
X159750000Y-69080000D01*
X159775000Y-69094000D01*
X159800000Y-69109000D01*
X159823000Y-69125000D01*
X159846000Y-69143000D01*
X159868000Y-69161000D01*
X159889000Y-69181000D01*
X159909000Y-69202000D01*
X159927000Y-69224000D01*
X159945000Y-69247000D01*
X159961000Y-69270000D01*
X159976000Y-69295000D01*
X159990000Y-69320000D01*
X160002000Y-69346000D01*
X160013000Y-69373000D01*
X160023000Y-69400000D01*
X160031000Y-69428000D01*
X160038000Y-69456000D01*
X160043000Y-69484000D01*
X160047000Y-69513000D01*
X160049000Y-69541000D01*
X160050000Y-69570000D01*
X160050000Y-70220000D01*
X160047000Y-70277000D01*
X160038000Y-70334000D01*
X160023000Y-70390000D01*
X160002000Y-70444000D01*
X159976000Y-70495000D01*
X159945000Y-70543000D01*
X159909000Y-70588000D01*
X159868000Y-70629000D01*
X159823000Y-70665000D01*
X159775000Y-70696000D01*
X159724000Y-70722000D01*
X159670000Y-70743000D01*
X159614000Y-70758000D01*
X159557000Y-70767000D01*
X159500000Y-70770000D01*
X159443000Y-70767000D01*
X159386000Y-70758000D01*
X159330000Y-70743000D01*
X159276000Y-70722000D01*
X159225000Y-70696000D01*
X159177000Y-70665000D01*
X159132000Y-70629000D01*
X159091000Y-70588000D01*
X159055000Y-70543000D01*
X159024000Y-70495000D01*
X158998000Y-70444000D01*
X158977000Y-70390000D01*
X158962000Y-70334000D01*
X158953000Y-70277000D01*
X158950000Y-70220000D01*
X158950000Y-70120000D01*
X158889000Y-70114000D01*
X158833000Y-70102000D01*
X158778000Y-70084000D01*
X158725000Y-70061000D01*
X158675000Y-70032000D01*
X158629000Y-69998000D01*
X158586000Y-69959000D01*
X158547000Y-69916000D01*
X158513000Y-69870000D01*
X158484000Y-69820000D01*
X158461000Y-69767000D01*
X158443000Y-69712000D01*
X158431000Y-69656000D01*
X158425000Y-69599000D01*
X158425000Y-69541000D01*
X158431000Y-69484000D01*
X158443000Y-69428000D01*
X158461000Y-69373000D01*
X158484000Y-69320000D01*
X158513000Y-69270000D01*
X158547000Y-69224000D01*
X158586000Y-69181000D01*
X158629000Y-69142000D01*
X158675000Y-69108000D01*
X158725000Y-69079000D01*
X158778000Y-69056000D01*
X158833000Y-69038000D01*
X158889000Y-69026000D01*
X158946000Y-69020000D01*
X159000000Y-69020000D01*
X159500000Y-69020000D01*
X159529000Y-69021000D01*
G37*
X159557000Y-77033000D02*
X159614000Y-77042000D01*
X159670000Y-77057000D01*
X159724000Y-77078000D01*
X159775000Y-77104000D01*
X159823000Y-77135000D01*
X159868000Y-77171000D01*
X159909000Y-77212000D01*
X159945000Y-77257000D01*
X159976000Y-77305000D01*
X160002000Y-77356000D01*
X160023000Y-77410000D01*
X160038000Y-77466000D01*
X160047000Y-77523000D01*
X160050000Y-77580000D01*
X160050000Y-78230000D01*
X160049000Y-78259000D01*
X160047000Y-78287000D01*
X160043000Y-78316000D01*
X160038000Y-78344000D01*
X160031000Y-78372000D01*
X160023000Y-78400000D01*
X160013000Y-78427000D01*
X160002000Y-78454000D01*
X159990000Y-78480000D01*
X159976000Y-78505000D01*
X159961000Y-78530000D01*
X159945000Y-78553000D01*
X159927000Y-78576000D01*
X159909000Y-78598000D01*
X159889000Y-78619000D01*
X159868000Y-78639000D01*
X159846000Y-78657000D01*
X159823000Y-78675000D01*
X159800000Y-78691000D01*
X159775000Y-78706000D01*
X159750000Y-78720000D01*
X159724000Y-78732000D01*
X159697000Y-78743000D01*
X159670000Y-78753000D01*
X159642000Y-78761000D01*
X159614000Y-78768000D01*
X159586000Y-78773000D01*
X159557000Y-78777000D01*
X159529000Y-78779000D01*
X159500000Y-78780000D01*
X159000000Y-78780000D01*
X158946000Y-78780000D01*
X158889000Y-78774000D01*
X158833000Y-78762000D01*
X158778000Y-78744000D01*
X158725000Y-78721000D01*
X158675000Y-78692000D01*
X158629000Y-78658000D01*
X158586000Y-78619000D01*
X158547000Y-78576000D01*
X158513000Y-78530000D01*
X158484000Y-78480000D01*
X158461000Y-78427000D01*
X158443000Y-78372000D01*
X158431000Y-78316000D01*
X158425000Y-78259000D01*
X158425000Y-78201000D01*
X158431000Y-78144000D01*
X158443000Y-78088000D01*
X158461000Y-78033000D01*
X158484000Y-77980000D01*
X158513000Y-77930000D01*
X158547000Y-77884000D01*
X158586000Y-77841000D01*
X158629000Y-77802000D01*
X158675000Y-77768000D01*
X158725000Y-77739000D01*
X158778000Y-77716000D01*
X158833000Y-77698000D01*
X158889000Y-77686000D01*
X158950000Y-77680000D01*
X158950000Y-77580000D01*
X158953000Y-77523000D01*
X158962000Y-77466000D01*
X158977000Y-77410000D01*
X158998000Y-77356000D01*
X159024000Y-77305000D01*
X159055000Y-77257000D01*
X159091000Y-77212000D01*
X159132000Y-77171000D01*
X159177000Y-77135000D01*
X159225000Y-77104000D01*
X159276000Y-77078000D01*
X159330000Y-77057000D01*
X159386000Y-77042000D01*
X159443000Y-77033000D01*
X159500000Y-77030000D01*
X159557000Y-77033000D01*
G36*
X159557000Y-77033000D02*
G01*
X159614000Y-77042000D01*
X159670000Y-77057000D01*
X159724000Y-77078000D01*
X159775000Y-77104000D01*
X159823000Y-77135000D01*
X159868000Y-77171000D01*
X159909000Y-77212000D01*
X159945000Y-77257000D01*
X159976000Y-77305000D01*
X160002000Y-77356000D01*
X160023000Y-77410000D01*
X160038000Y-77466000D01*
X160047000Y-77523000D01*
X160050000Y-77580000D01*
X160050000Y-78230000D01*
X160049000Y-78259000D01*
X160047000Y-78287000D01*
X160043000Y-78316000D01*
X160038000Y-78344000D01*
X160031000Y-78372000D01*
X160023000Y-78400000D01*
X160013000Y-78427000D01*
X160002000Y-78454000D01*
X159990000Y-78480000D01*
X159976000Y-78505000D01*
X159961000Y-78530000D01*
X159945000Y-78553000D01*
X159927000Y-78576000D01*
X159909000Y-78598000D01*
X159889000Y-78619000D01*
X159868000Y-78639000D01*
X159846000Y-78657000D01*
X159823000Y-78675000D01*
X159800000Y-78691000D01*
X159775000Y-78706000D01*
X159750000Y-78720000D01*
X159724000Y-78732000D01*
X159697000Y-78743000D01*
X159670000Y-78753000D01*
X159642000Y-78761000D01*
X159614000Y-78768000D01*
X159586000Y-78773000D01*
X159557000Y-78777000D01*
X159529000Y-78779000D01*
X159500000Y-78780000D01*
X159000000Y-78780000D01*
X158946000Y-78780000D01*
X158889000Y-78774000D01*
X158833000Y-78762000D01*
X158778000Y-78744000D01*
X158725000Y-78721000D01*
X158675000Y-78692000D01*
X158629000Y-78658000D01*
X158586000Y-78619000D01*
X158547000Y-78576000D01*
X158513000Y-78530000D01*
X158484000Y-78480000D01*
X158461000Y-78427000D01*
X158443000Y-78372000D01*
X158431000Y-78316000D01*
X158425000Y-78259000D01*
X158425000Y-78201000D01*
X158431000Y-78144000D01*
X158443000Y-78088000D01*
X158461000Y-78033000D01*
X158484000Y-77980000D01*
X158513000Y-77930000D01*
X158547000Y-77884000D01*
X158586000Y-77841000D01*
X158629000Y-77802000D01*
X158675000Y-77768000D01*
X158725000Y-77739000D01*
X158778000Y-77716000D01*
X158833000Y-77698000D01*
X158889000Y-77686000D01*
X158950000Y-77680000D01*
X158950000Y-77580000D01*
X158953000Y-77523000D01*
X158962000Y-77466000D01*
X158977000Y-77410000D01*
X158998000Y-77356000D01*
X159024000Y-77305000D01*
X159055000Y-77257000D01*
X159091000Y-77212000D01*
X159132000Y-77171000D01*
X159177000Y-77135000D01*
X159225000Y-77104000D01*
X159276000Y-77078000D01*
X159330000Y-77057000D01*
X159386000Y-77042000D01*
X159443000Y-77033000D01*
X159500000Y-77030000D01*
X159557000Y-77033000D01*
G37*
%TD*%
D11*
%TO.C,C45*%
X204040000Y-61500000D03*
X205000000Y-61500000D03*
%TD*%
D12*
%TO.C,C30*%
X205160000Y-53000000D03*
X204200000Y-53000000D03*
%TD*%
D11*
%TO.C,C32*%
X223245000Y-93000000D03*
X224205000Y-93000000D03*
%TD*%
D13*
%TO.C,U2*%
X165087500Y-88000000D03*
X165087500Y-88799998D03*
%TD*%
D14*
%TO.C,J4*%
X160500000Y-70300000D03*
X160500000Y-77500000D03*
D15*
X159850000Y-76700000D03*
X159150000Y-76300000D03*
X159150000Y-75500000D03*
X159850000Y-75100000D03*
X159150000Y-74700000D03*
X159850000Y-74300000D03*
X159850000Y-73500000D03*
X159150000Y-73100000D03*
X159850000Y-72700000D03*
X159150000Y-72300000D03*
X159150000Y-71500000D03*
X159850000Y-71100000D03*
D16*
X154500000Y-69570000D03*
X154500000Y-78230000D03*
%TD*%
D17*
%TO.C,J2*%
X215000000Y-99000000D03*
D18*
X213000000Y-99000000D03*
X211000000Y-99000000D03*
X209000000Y-99000000D03*
X207000000Y-99000000D03*
X205000000Y-99000000D03*
X203000000Y-99000000D03*
X201000000Y-99000000D03*
%TD*%
D19*
%TO.C,U3*%
X177000000Y-61620000D03*
D20*
X177000000Y-59080000D03*
X177000000Y-56540000D03*
X177000000Y-54000000D03*
X169380000Y-54000000D03*
X169380000Y-56540000D03*
X169380000Y-59080000D03*
X169380000Y-61620000D03*
%TD*%
D21*
%TO.C,FB1*%
X181500000Y-77000000D03*
X180030000Y-77000000D03*
%TD*%
%TO.C,FL2*%
X206235000Y-57000000D03*
X204765000Y-57000000D03*
%TD*%
D22*
%TO.C,R22*%
X249087500Y-95500000D03*
X250912500Y-95500000D03*
%TD*%
%TO.C,R1*%
X198000000Y-89000000D03*
X199825000Y-89000000D03*
%TD*%
D23*
%TO.C,R21*%
X245500000Y-96087500D03*
X245500000Y-97912500D03*
%TD*%
D24*
%TO.C,R7*%
X179500000Y-68000000D03*
X179500000Y-66175000D03*
%TD*%
D22*
%TO.C,R10*%
X178175000Y-79000000D03*
X180000000Y-79000000D03*
%TD*%
D11*
%TO.C,C35*%
X204020000Y-59500000D03*
X204980000Y-59500000D03*
%TD*%
D23*
%TO.C,R30*%
X247000000Y-63587500D03*
X247000000Y-65412500D03*
%TD*%
D25*
%TO.C,C50*%
X249000000Y-65135000D03*
X249000000Y-64175000D03*
%TD*%
D11*
%TO.C,C12*%
X199865000Y-76000000D03*
X200825000Y-76000000D03*
%TD*%
D12*
%TO.C,C11*%
X181800000Y-75500000D03*
X180840000Y-75500000D03*
%TD*%
D11*
%TO.C,C4*%
X199365000Y-73500000D03*
X200325000Y-73500000D03*
%TD*%
D26*
%TO.C,FL4*%
X222000000Y-90500000D03*
X222000000Y-89030000D03*
%TD*%
D11*
%TO.C,C40*%
X204020000Y-60500000D03*
X204980000Y-60500000D03*
%TD*%
D12*
%TO.C,C48*%
X222500000Y-85000000D03*
X221540000Y-85000000D03*
%TD*%
%TO.C,C43*%
X222660000Y-86000000D03*
X221700000Y-86000000D03*
%TD*%
D11*
%TO.C,C36*%
X205840000Y-59500000D03*
X206800000Y-59500000D03*
%TD*%
%TO.C,C44*%
X205840000Y-60500000D03*
X206800000Y-60500000D03*
%TD*%
D27*
%TO.C,R24*%
X250912500Y-98500000D03*
X249087500Y-98500000D03*
%TD*%
D12*
%TO.C,C9*%
X181960000Y-74500000D03*
X181000000Y-74500000D03*
%TD*%
D28*
%TO.C,J3*%
X244351048Y-74819040D03*
D29*
X244351048Y-72019040D03*
D30*
X241751048Y-69619040D03*
X241751048Y-77219040D03*
X251501048Y-68969040D03*
X251501048Y-77869040D03*
%TD*%
D27*
%TO.C,R20*%
X212412500Y-89000000D03*
X210587500Y-89000000D03*
%TD*%
D12*
%TO.C,C39*%
X222480000Y-87000000D03*
X221520000Y-87000000D03*
%TD*%
M02*
