%TF.GenerationSoftware,KiCad,Pcbnew,8.0.2*%
%TF.CreationDate,2025-01-31T23:59:10-08:00*%
%TF.ProjectId,design_revb_2chip,64657369-676e-45f7-9265-76625f326368,rev?*%
%TF.SameCoordinates,Original*%
%TF.FileFunction,Legend,Top*%
%TF.FilePolarity,Positive*%
%FSLAX46Y46*%
G04 Gerber Fmt 4.6, Leading zero omitted, Abs format (unit mm)*
G04 Created by KiCad (PCBNEW 8.0.2) date 2025-01-31 23:59:10*
%MOMM*%
%LPD*%
G01*
G04 APERTURE LIST*
%ADD10C,0.150000*%
%ADD11C,0.098425*%
%ADD12C,0.120000*%
%ADD13C,0.170000*%
%ADD14C,0.127000*%
%ADD15C,0.200000*%
%ADD16C,0.152400*%
%ADD17C,0.000000*%
%ADD18C,0.250000*%
G04 APERTURE END LIST*
D10*
X221679580Y-63192857D02*
X221727200Y-63240476D01*
X221727200Y-63240476D02*
X221774819Y-63383333D01*
X221774819Y-63383333D02*
X221774819Y-63478571D01*
X221774819Y-63478571D02*
X221727200Y-63621428D01*
X221727200Y-63621428D02*
X221631961Y-63716666D01*
X221631961Y-63716666D02*
X221536723Y-63764285D01*
X221536723Y-63764285D02*
X221346247Y-63811904D01*
X221346247Y-63811904D02*
X221203390Y-63811904D01*
X221203390Y-63811904D02*
X221012914Y-63764285D01*
X221012914Y-63764285D02*
X220917676Y-63716666D01*
X220917676Y-63716666D02*
X220822438Y-63621428D01*
X220822438Y-63621428D02*
X220774819Y-63478571D01*
X220774819Y-63478571D02*
X220774819Y-63383333D01*
X220774819Y-63383333D02*
X220822438Y-63240476D01*
X220822438Y-63240476D02*
X220870057Y-63192857D01*
X221108152Y-62335714D02*
X221774819Y-62335714D01*
X220727200Y-62573809D02*
X221441485Y-62811904D01*
X221441485Y-62811904D02*
X221441485Y-62192857D01*
X221774819Y-61764285D02*
X221774819Y-61573809D01*
X221774819Y-61573809D02*
X221727200Y-61478571D01*
X221727200Y-61478571D02*
X221679580Y-61430952D01*
X221679580Y-61430952D02*
X221536723Y-61335714D01*
X221536723Y-61335714D02*
X221346247Y-61288095D01*
X221346247Y-61288095D02*
X220965295Y-61288095D01*
X220965295Y-61288095D02*
X220870057Y-61335714D01*
X220870057Y-61335714D02*
X220822438Y-61383333D01*
X220822438Y-61383333D02*
X220774819Y-61478571D01*
X220774819Y-61478571D02*
X220774819Y-61669047D01*
X220774819Y-61669047D02*
X220822438Y-61764285D01*
X220822438Y-61764285D02*
X220870057Y-61811904D01*
X220870057Y-61811904D02*
X220965295Y-61859523D01*
X220965295Y-61859523D02*
X221203390Y-61859523D01*
X221203390Y-61859523D02*
X221298628Y-61811904D01*
X221298628Y-61811904D02*
X221346247Y-61764285D01*
X221346247Y-61764285D02*
X221393866Y-61669047D01*
X221393866Y-61669047D02*
X221393866Y-61478571D01*
X221393866Y-61478571D02*
X221346247Y-61383333D01*
X221346247Y-61383333D02*
X221298628Y-61335714D01*
X221298628Y-61335714D02*
X221203390Y-61288095D01*
X227965943Y-54939490D02*
X228013563Y-54987109D01*
X228013563Y-54987109D02*
X228061182Y-55129966D01*
X228061182Y-55129966D02*
X228061182Y-55225204D01*
X228061182Y-55225204D02*
X228013563Y-55368061D01*
X228013563Y-55368061D02*
X227918324Y-55463299D01*
X227918324Y-55463299D02*
X227823086Y-55510918D01*
X227823086Y-55510918D02*
X227632610Y-55558537D01*
X227632610Y-55558537D02*
X227489753Y-55558537D01*
X227489753Y-55558537D02*
X227299277Y-55510918D01*
X227299277Y-55510918D02*
X227204039Y-55463299D01*
X227204039Y-55463299D02*
X227108801Y-55368061D01*
X227108801Y-55368061D02*
X227061182Y-55225204D01*
X227061182Y-55225204D02*
X227061182Y-55129966D01*
X227061182Y-55129966D02*
X227108801Y-54987109D01*
X227108801Y-54987109D02*
X227156420Y-54939490D01*
X227061182Y-54606156D02*
X227061182Y-53987109D01*
X227061182Y-53987109D02*
X227442134Y-54320442D01*
X227442134Y-54320442D02*
X227442134Y-54177585D01*
X227442134Y-54177585D02*
X227489753Y-54082347D01*
X227489753Y-54082347D02*
X227537372Y-54034728D01*
X227537372Y-54034728D02*
X227632610Y-53987109D01*
X227632610Y-53987109D02*
X227870705Y-53987109D01*
X227870705Y-53987109D02*
X227965943Y-54034728D01*
X227965943Y-54034728D02*
X228013563Y-54082347D01*
X228013563Y-54082347D02*
X228061182Y-54177585D01*
X228061182Y-54177585D02*
X228061182Y-54463299D01*
X228061182Y-54463299D02*
X228013563Y-54558537D01*
X228013563Y-54558537D02*
X227965943Y-54606156D01*
X227061182Y-53653775D02*
X227061182Y-53034728D01*
X227061182Y-53034728D02*
X227442134Y-53368061D01*
X227442134Y-53368061D02*
X227442134Y-53225204D01*
X227442134Y-53225204D02*
X227489753Y-53129966D01*
X227489753Y-53129966D02*
X227537372Y-53082347D01*
X227537372Y-53082347D02*
X227632610Y-53034728D01*
X227632610Y-53034728D02*
X227870705Y-53034728D01*
X227870705Y-53034728D02*
X227965943Y-53082347D01*
X227965943Y-53082347D02*
X228013563Y-53129966D01*
X228013563Y-53129966D02*
X228061182Y-53225204D01*
X228061182Y-53225204D02*
X228061182Y-53510918D01*
X228061182Y-53510918D02*
X228013563Y-53606156D01*
X228013563Y-53606156D02*
X227965943Y-53653775D01*
X157599642Y-87359580D02*
X157552023Y-87407200D01*
X157552023Y-87407200D02*
X157409166Y-87454819D01*
X157409166Y-87454819D02*
X157313928Y-87454819D01*
X157313928Y-87454819D02*
X157171071Y-87407200D01*
X157171071Y-87407200D02*
X157075833Y-87311961D01*
X157075833Y-87311961D02*
X157028214Y-87216723D01*
X157028214Y-87216723D02*
X156980595Y-87026247D01*
X156980595Y-87026247D02*
X156980595Y-86883390D01*
X156980595Y-86883390D02*
X157028214Y-86692914D01*
X157028214Y-86692914D02*
X157075833Y-86597676D01*
X157075833Y-86597676D02*
X157171071Y-86502438D01*
X157171071Y-86502438D02*
X157313928Y-86454819D01*
X157313928Y-86454819D02*
X157409166Y-86454819D01*
X157409166Y-86454819D02*
X157552023Y-86502438D01*
X157552023Y-86502438D02*
X157599642Y-86550057D01*
X158552023Y-87454819D02*
X157980595Y-87454819D01*
X158266309Y-87454819D02*
X158266309Y-86454819D01*
X158266309Y-86454819D02*
X158171071Y-86597676D01*
X158171071Y-86597676D02*
X158075833Y-86692914D01*
X158075833Y-86692914D02*
X157980595Y-86740533D01*
X159409166Y-86454819D02*
X159218690Y-86454819D01*
X159218690Y-86454819D02*
X159123452Y-86502438D01*
X159123452Y-86502438D02*
X159075833Y-86550057D01*
X159075833Y-86550057D02*
X158980595Y-86692914D01*
X158980595Y-86692914D02*
X158932976Y-86883390D01*
X158932976Y-86883390D02*
X158932976Y-87264342D01*
X158932976Y-87264342D02*
X158980595Y-87359580D01*
X158980595Y-87359580D02*
X159028214Y-87407200D01*
X159028214Y-87407200D02*
X159123452Y-87454819D01*
X159123452Y-87454819D02*
X159313928Y-87454819D01*
X159313928Y-87454819D02*
X159409166Y-87407200D01*
X159409166Y-87407200D02*
X159456785Y-87359580D01*
X159456785Y-87359580D02*
X159504404Y-87264342D01*
X159504404Y-87264342D02*
X159504404Y-87026247D01*
X159504404Y-87026247D02*
X159456785Y-86931009D01*
X159456785Y-86931009D02*
X159409166Y-86883390D01*
X159409166Y-86883390D02*
X159313928Y-86835771D01*
X159313928Y-86835771D02*
X159123452Y-86835771D01*
X159123452Y-86835771D02*
X159028214Y-86883390D01*
X159028214Y-86883390D02*
X158980595Y-86931009D01*
X158980595Y-86931009D02*
X158932976Y-87026247D01*
X200519580Y-83186666D02*
X200567200Y-83234285D01*
X200567200Y-83234285D02*
X200614819Y-83377142D01*
X200614819Y-83377142D02*
X200614819Y-83472380D01*
X200614819Y-83472380D02*
X200567200Y-83615237D01*
X200567200Y-83615237D02*
X200471961Y-83710475D01*
X200471961Y-83710475D02*
X200376723Y-83758094D01*
X200376723Y-83758094D02*
X200186247Y-83805713D01*
X200186247Y-83805713D02*
X200043390Y-83805713D01*
X200043390Y-83805713D02*
X199852914Y-83758094D01*
X199852914Y-83758094D02*
X199757676Y-83710475D01*
X199757676Y-83710475D02*
X199662438Y-83615237D01*
X199662438Y-83615237D02*
X199614819Y-83472380D01*
X199614819Y-83472380D02*
X199614819Y-83377142D01*
X199614819Y-83377142D02*
X199662438Y-83234285D01*
X199662438Y-83234285D02*
X199710057Y-83186666D01*
X199614819Y-82853332D02*
X199614819Y-82234285D01*
X199614819Y-82234285D02*
X199995771Y-82567618D01*
X199995771Y-82567618D02*
X199995771Y-82424761D01*
X199995771Y-82424761D02*
X200043390Y-82329523D01*
X200043390Y-82329523D02*
X200091009Y-82281904D01*
X200091009Y-82281904D02*
X200186247Y-82234285D01*
X200186247Y-82234285D02*
X200424342Y-82234285D01*
X200424342Y-82234285D02*
X200519580Y-82281904D01*
X200519580Y-82281904D02*
X200567200Y-82329523D01*
X200567200Y-82329523D02*
X200614819Y-82424761D01*
X200614819Y-82424761D02*
X200614819Y-82710475D01*
X200614819Y-82710475D02*
X200567200Y-82805713D01*
X200567200Y-82805713D02*
X200519580Y-82853332D01*
X233519580Y-57122857D02*
X233567200Y-57170476D01*
X233567200Y-57170476D02*
X233614819Y-57313333D01*
X233614819Y-57313333D02*
X233614819Y-57408571D01*
X233614819Y-57408571D02*
X233567200Y-57551428D01*
X233567200Y-57551428D02*
X233471961Y-57646666D01*
X233471961Y-57646666D02*
X233376723Y-57694285D01*
X233376723Y-57694285D02*
X233186247Y-57741904D01*
X233186247Y-57741904D02*
X233043390Y-57741904D01*
X233043390Y-57741904D02*
X232852914Y-57694285D01*
X232852914Y-57694285D02*
X232757676Y-57646666D01*
X232757676Y-57646666D02*
X232662438Y-57551428D01*
X232662438Y-57551428D02*
X232614819Y-57408571D01*
X232614819Y-57408571D02*
X232614819Y-57313333D01*
X232614819Y-57313333D02*
X232662438Y-57170476D01*
X232662438Y-57170476D02*
X232710057Y-57122857D01*
X232614819Y-56789523D02*
X232614819Y-56170476D01*
X232614819Y-56170476D02*
X232995771Y-56503809D01*
X232995771Y-56503809D02*
X232995771Y-56360952D01*
X232995771Y-56360952D02*
X233043390Y-56265714D01*
X233043390Y-56265714D02*
X233091009Y-56218095D01*
X233091009Y-56218095D02*
X233186247Y-56170476D01*
X233186247Y-56170476D02*
X233424342Y-56170476D01*
X233424342Y-56170476D02*
X233519580Y-56218095D01*
X233519580Y-56218095D02*
X233567200Y-56265714D01*
X233567200Y-56265714D02*
X233614819Y-56360952D01*
X233614819Y-56360952D02*
X233614819Y-56646666D01*
X233614819Y-56646666D02*
X233567200Y-56741904D01*
X233567200Y-56741904D02*
X233519580Y-56789523D01*
X232948152Y-55313333D02*
X233614819Y-55313333D01*
X232567200Y-55551428D02*
X233281485Y-55789523D01*
X233281485Y-55789523D02*
X233281485Y-55170476D01*
X196384819Y-59341666D02*
X196384819Y-59817856D01*
X196384819Y-59817856D02*
X195384819Y-59817856D01*
X196384819Y-58484523D02*
X196384819Y-59055951D01*
X196384819Y-58770237D02*
X195384819Y-58770237D01*
X195384819Y-58770237D02*
X195527676Y-58865475D01*
X195527676Y-58865475D02*
X195622914Y-58960713D01*
X195622914Y-58960713D02*
X195670533Y-59055951D01*
X168583943Y-97558288D02*
X168536324Y-97605908D01*
X168536324Y-97605908D02*
X168393467Y-97653527D01*
X168393467Y-97653527D02*
X168298229Y-97653527D01*
X168298229Y-97653527D02*
X168155372Y-97605908D01*
X168155372Y-97605908D02*
X168060134Y-97510669D01*
X168060134Y-97510669D02*
X168012515Y-97415431D01*
X168012515Y-97415431D02*
X167964896Y-97224955D01*
X167964896Y-97224955D02*
X167964896Y-97082098D01*
X167964896Y-97082098D02*
X168012515Y-96891622D01*
X168012515Y-96891622D02*
X168060134Y-96796384D01*
X168060134Y-96796384D02*
X168155372Y-96701146D01*
X168155372Y-96701146D02*
X168298229Y-96653527D01*
X168298229Y-96653527D02*
X168393467Y-96653527D01*
X168393467Y-96653527D02*
X168536324Y-96701146D01*
X168536324Y-96701146D02*
X168583943Y-96748765D01*
X168964896Y-96748765D02*
X169012515Y-96701146D01*
X169012515Y-96701146D02*
X169107753Y-96653527D01*
X169107753Y-96653527D02*
X169345848Y-96653527D01*
X169345848Y-96653527D02*
X169441086Y-96701146D01*
X169441086Y-96701146D02*
X169488705Y-96748765D01*
X169488705Y-96748765D02*
X169536324Y-96844003D01*
X169536324Y-96844003D02*
X169536324Y-96939241D01*
X169536324Y-96939241D02*
X169488705Y-97082098D01*
X169488705Y-97082098D02*
X168917277Y-97653527D01*
X168917277Y-97653527D02*
X169536324Y-97653527D01*
X170488705Y-97653527D02*
X169917277Y-97653527D01*
X170202991Y-97653527D02*
X170202991Y-96653527D01*
X170202991Y-96653527D02*
X170107753Y-96796384D01*
X170107753Y-96796384D02*
X170012515Y-96891622D01*
X170012515Y-96891622D02*
X169917277Y-96939241D01*
X195407142Y-54179580D02*
X195359523Y-54227200D01*
X195359523Y-54227200D02*
X195216666Y-54274819D01*
X195216666Y-54274819D02*
X195121428Y-54274819D01*
X195121428Y-54274819D02*
X194978571Y-54227200D01*
X194978571Y-54227200D02*
X194883333Y-54131961D01*
X194883333Y-54131961D02*
X194835714Y-54036723D01*
X194835714Y-54036723D02*
X194788095Y-53846247D01*
X194788095Y-53846247D02*
X194788095Y-53703390D01*
X194788095Y-53703390D02*
X194835714Y-53512914D01*
X194835714Y-53512914D02*
X194883333Y-53417676D01*
X194883333Y-53417676D02*
X194978571Y-53322438D01*
X194978571Y-53322438D02*
X195121428Y-53274819D01*
X195121428Y-53274819D02*
X195216666Y-53274819D01*
X195216666Y-53274819D02*
X195359523Y-53322438D01*
X195359523Y-53322438D02*
X195407142Y-53370057D01*
X196359523Y-54274819D02*
X195788095Y-54274819D01*
X196073809Y-54274819D02*
X196073809Y-53274819D01*
X196073809Y-53274819D02*
X195978571Y-53417676D01*
X195978571Y-53417676D02*
X195883333Y-53512914D01*
X195883333Y-53512914D02*
X195788095Y-53560533D01*
X196692857Y-53274819D02*
X197311904Y-53274819D01*
X197311904Y-53274819D02*
X196978571Y-53655771D01*
X196978571Y-53655771D02*
X197121428Y-53655771D01*
X197121428Y-53655771D02*
X197216666Y-53703390D01*
X197216666Y-53703390D02*
X197264285Y-53751009D01*
X197264285Y-53751009D02*
X197311904Y-53846247D01*
X197311904Y-53846247D02*
X197311904Y-54084342D01*
X197311904Y-54084342D02*
X197264285Y-54179580D01*
X197264285Y-54179580D02*
X197216666Y-54227200D01*
X197216666Y-54227200D02*
X197121428Y-54274819D01*
X197121428Y-54274819D02*
X196835714Y-54274819D01*
X196835714Y-54274819D02*
X196740476Y-54227200D01*
X196740476Y-54227200D02*
X196692857Y-54179580D01*
X217359580Y-54642857D02*
X217407200Y-54690476D01*
X217407200Y-54690476D02*
X217454819Y-54833333D01*
X217454819Y-54833333D02*
X217454819Y-54928571D01*
X217454819Y-54928571D02*
X217407200Y-55071428D01*
X217407200Y-55071428D02*
X217311961Y-55166666D01*
X217311961Y-55166666D02*
X217216723Y-55214285D01*
X217216723Y-55214285D02*
X217026247Y-55261904D01*
X217026247Y-55261904D02*
X216883390Y-55261904D01*
X216883390Y-55261904D02*
X216692914Y-55214285D01*
X216692914Y-55214285D02*
X216597676Y-55166666D01*
X216597676Y-55166666D02*
X216502438Y-55071428D01*
X216502438Y-55071428D02*
X216454819Y-54928571D01*
X216454819Y-54928571D02*
X216454819Y-54833333D01*
X216454819Y-54833333D02*
X216502438Y-54690476D01*
X216502438Y-54690476D02*
X216550057Y-54642857D01*
X216788152Y-53785714D02*
X217454819Y-53785714D01*
X216407200Y-54023809D02*
X217121485Y-54261904D01*
X217121485Y-54261904D02*
X217121485Y-53642857D01*
X216454819Y-52833333D02*
X216454819Y-53023809D01*
X216454819Y-53023809D02*
X216502438Y-53119047D01*
X216502438Y-53119047D02*
X216550057Y-53166666D01*
X216550057Y-53166666D02*
X216692914Y-53261904D01*
X216692914Y-53261904D02*
X216883390Y-53309523D01*
X216883390Y-53309523D02*
X217264342Y-53309523D01*
X217264342Y-53309523D02*
X217359580Y-53261904D01*
X217359580Y-53261904D02*
X217407200Y-53214285D01*
X217407200Y-53214285D02*
X217454819Y-53119047D01*
X217454819Y-53119047D02*
X217454819Y-52928571D01*
X217454819Y-52928571D02*
X217407200Y-52833333D01*
X217407200Y-52833333D02*
X217359580Y-52785714D01*
X217359580Y-52785714D02*
X217264342Y-52738095D01*
X217264342Y-52738095D02*
X217026247Y-52738095D01*
X217026247Y-52738095D02*
X216931009Y-52785714D01*
X216931009Y-52785714D02*
X216883390Y-52833333D01*
X216883390Y-52833333D02*
X216835771Y-52928571D01*
X216835771Y-52928571D02*
X216835771Y-53119047D01*
X216835771Y-53119047D02*
X216883390Y-53214285D01*
X216883390Y-53214285D02*
X216931009Y-53261904D01*
X216931009Y-53261904D02*
X217026247Y-53309523D01*
X247357142Y-90454819D02*
X247023809Y-89978628D01*
X246785714Y-90454819D02*
X246785714Y-89454819D01*
X246785714Y-89454819D02*
X247166666Y-89454819D01*
X247166666Y-89454819D02*
X247261904Y-89502438D01*
X247261904Y-89502438D02*
X247309523Y-89550057D01*
X247309523Y-89550057D02*
X247357142Y-89645295D01*
X247357142Y-89645295D02*
X247357142Y-89788152D01*
X247357142Y-89788152D02*
X247309523Y-89883390D01*
X247309523Y-89883390D02*
X247261904Y-89931009D01*
X247261904Y-89931009D02*
X247166666Y-89978628D01*
X247166666Y-89978628D02*
X246785714Y-89978628D01*
X247738095Y-89550057D02*
X247785714Y-89502438D01*
X247785714Y-89502438D02*
X247880952Y-89454819D01*
X247880952Y-89454819D02*
X248119047Y-89454819D01*
X248119047Y-89454819D02*
X248214285Y-89502438D01*
X248214285Y-89502438D02*
X248261904Y-89550057D01*
X248261904Y-89550057D02*
X248309523Y-89645295D01*
X248309523Y-89645295D02*
X248309523Y-89740533D01*
X248309523Y-89740533D02*
X248261904Y-89883390D01*
X248261904Y-89883390D02*
X247690476Y-90454819D01*
X247690476Y-90454819D02*
X248309523Y-90454819D01*
X248880952Y-89883390D02*
X248785714Y-89835771D01*
X248785714Y-89835771D02*
X248738095Y-89788152D01*
X248738095Y-89788152D02*
X248690476Y-89692914D01*
X248690476Y-89692914D02*
X248690476Y-89645295D01*
X248690476Y-89645295D02*
X248738095Y-89550057D01*
X248738095Y-89550057D02*
X248785714Y-89502438D01*
X248785714Y-89502438D02*
X248880952Y-89454819D01*
X248880952Y-89454819D02*
X249071428Y-89454819D01*
X249071428Y-89454819D02*
X249166666Y-89502438D01*
X249166666Y-89502438D02*
X249214285Y-89550057D01*
X249214285Y-89550057D02*
X249261904Y-89645295D01*
X249261904Y-89645295D02*
X249261904Y-89692914D01*
X249261904Y-89692914D02*
X249214285Y-89788152D01*
X249214285Y-89788152D02*
X249166666Y-89835771D01*
X249166666Y-89835771D02*
X249071428Y-89883390D01*
X249071428Y-89883390D02*
X248880952Y-89883390D01*
X248880952Y-89883390D02*
X248785714Y-89931009D01*
X248785714Y-89931009D02*
X248738095Y-89978628D01*
X248738095Y-89978628D02*
X248690476Y-90073866D01*
X248690476Y-90073866D02*
X248690476Y-90264342D01*
X248690476Y-90264342D02*
X248738095Y-90359580D01*
X248738095Y-90359580D02*
X248785714Y-90407200D01*
X248785714Y-90407200D02*
X248880952Y-90454819D01*
X248880952Y-90454819D02*
X249071428Y-90454819D01*
X249071428Y-90454819D02*
X249166666Y-90407200D01*
X249166666Y-90407200D02*
X249214285Y-90359580D01*
X249214285Y-90359580D02*
X249261904Y-90264342D01*
X249261904Y-90264342D02*
X249261904Y-90073866D01*
X249261904Y-90073866D02*
X249214285Y-89978628D01*
X249214285Y-89978628D02*
X249166666Y-89931009D01*
X249166666Y-89931009D02*
X249071428Y-89883390D01*
X218859580Y-54642857D02*
X218907200Y-54690476D01*
X218907200Y-54690476D02*
X218954819Y-54833333D01*
X218954819Y-54833333D02*
X218954819Y-54928571D01*
X218954819Y-54928571D02*
X218907200Y-55071428D01*
X218907200Y-55071428D02*
X218811961Y-55166666D01*
X218811961Y-55166666D02*
X218716723Y-55214285D01*
X218716723Y-55214285D02*
X218526247Y-55261904D01*
X218526247Y-55261904D02*
X218383390Y-55261904D01*
X218383390Y-55261904D02*
X218192914Y-55214285D01*
X218192914Y-55214285D02*
X218097676Y-55166666D01*
X218097676Y-55166666D02*
X218002438Y-55071428D01*
X218002438Y-55071428D02*
X217954819Y-54928571D01*
X217954819Y-54928571D02*
X217954819Y-54833333D01*
X217954819Y-54833333D02*
X218002438Y-54690476D01*
X218002438Y-54690476D02*
X218050057Y-54642857D01*
X218288152Y-53785714D02*
X218954819Y-53785714D01*
X217907200Y-54023809D02*
X218621485Y-54261904D01*
X218621485Y-54261904D02*
X218621485Y-53642857D01*
X218954819Y-52738095D02*
X218954819Y-53309523D01*
X218954819Y-53023809D02*
X217954819Y-53023809D01*
X217954819Y-53023809D02*
X218097676Y-53119047D01*
X218097676Y-53119047D02*
X218192914Y-53214285D01*
X218192914Y-53214285D02*
X218240533Y-53309523D01*
X173474405Y-66884819D02*
X173474405Y-65884819D01*
X173474405Y-65884819D02*
X173712500Y-65884819D01*
X173712500Y-65884819D02*
X173855357Y-65932438D01*
X173855357Y-65932438D02*
X173950595Y-66027676D01*
X173950595Y-66027676D02*
X173998214Y-66122914D01*
X173998214Y-66122914D02*
X174045833Y-66313390D01*
X174045833Y-66313390D02*
X174045833Y-66456247D01*
X174045833Y-66456247D02*
X173998214Y-66646723D01*
X173998214Y-66646723D02*
X173950595Y-66741961D01*
X173950595Y-66741961D02*
X173855357Y-66837200D01*
X173855357Y-66837200D02*
X173712500Y-66884819D01*
X173712500Y-66884819D02*
X173474405Y-66884819D01*
X174998214Y-66884819D02*
X174426786Y-66884819D01*
X174712500Y-66884819D02*
X174712500Y-65884819D01*
X174712500Y-65884819D02*
X174617262Y-66027676D01*
X174617262Y-66027676D02*
X174522024Y-66122914D01*
X174522024Y-66122914D02*
X174426786Y-66170533D01*
X164325595Y-87854818D02*
X164325595Y-88664341D01*
X164325595Y-88664341D02*
X164373214Y-88759579D01*
X164373214Y-88759579D02*
X164420833Y-88807199D01*
X164420833Y-88807199D02*
X164516071Y-88854818D01*
X164516071Y-88854818D02*
X164706547Y-88854818D01*
X164706547Y-88854818D02*
X164801785Y-88807199D01*
X164801785Y-88807199D02*
X164849404Y-88759579D01*
X164849404Y-88759579D02*
X164897023Y-88664341D01*
X164897023Y-88664341D02*
X164897023Y-87854818D01*
X165325595Y-87950056D02*
X165373214Y-87902437D01*
X165373214Y-87902437D02*
X165468452Y-87854818D01*
X165468452Y-87854818D02*
X165706547Y-87854818D01*
X165706547Y-87854818D02*
X165801785Y-87902437D01*
X165801785Y-87902437D02*
X165849404Y-87950056D01*
X165849404Y-87950056D02*
X165897023Y-88045294D01*
X165897023Y-88045294D02*
X165897023Y-88140532D01*
X165897023Y-88140532D02*
X165849404Y-88283389D01*
X165849404Y-88283389D02*
X165277976Y-88854818D01*
X165277976Y-88854818D02*
X165897023Y-88854818D01*
X229134619Y-75293038D02*
X228921285Y-75293038D01*
X228921285Y-75628276D02*
X228921285Y-74988276D01*
X228921285Y-74988276D02*
X229226047Y-74988276D01*
X229774618Y-75628276D02*
X229469856Y-75628276D01*
X229469856Y-75628276D02*
X229469856Y-74988276D01*
X230323190Y-75628276D02*
X229957475Y-75628276D01*
X230140332Y-75628276D02*
X230140332Y-74988276D01*
X230140332Y-74988276D02*
X230079380Y-75079704D01*
X230079380Y-75079704D02*
X230018428Y-75140657D01*
X230018428Y-75140657D02*
X229957475Y-75171133D01*
X218859580Y-62142857D02*
X218907200Y-62190476D01*
X218907200Y-62190476D02*
X218954819Y-62333333D01*
X218954819Y-62333333D02*
X218954819Y-62428571D01*
X218954819Y-62428571D02*
X218907200Y-62571428D01*
X218907200Y-62571428D02*
X218811961Y-62666666D01*
X218811961Y-62666666D02*
X218716723Y-62714285D01*
X218716723Y-62714285D02*
X218526247Y-62761904D01*
X218526247Y-62761904D02*
X218383390Y-62761904D01*
X218383390Y-62761904D02*
X218192914Y-62714285D01*
X218192914Y-62714285D02*
X218097676Y-62666666D01*
X218097676Y-62666666D02*
X218002438Y-62571428D01*
X218002438Y-62571428D02*
X217954819Y-62428571D01*
X217954819Y-62428571D02*
X217954819Y-62333333D01*
X217954819Y-62333333D02*
X218002438Y-62190476D01*
X218002438Y-62190476D02*
X218050057Y-62142857D01*
X218288152Y-61285714D02*
X218954819Y-61285714D01*
X217907200Y-61523809D02*
X218621485Y-61761904D01*
X218621485Y-61761904D02*
X218621485Y-61142857D01*
X218050057Y-60809523D02*
X218002438Y-60761904D01*
X218002438Y-60761904D02*
X217954819Y-60666666D01*
X217954819Y-60666666D02*
X217954819Y-60428571D01*
X217954819Y-60428571D02*
X218002438Y-60333333D01*
X218002438Y-60333333D02*
X218050057Y-60285714D01*
X218050057Y-60285714D02*
X218145295Y-60238095D01*
X218145295Y-60238095D02*
X218240533Y-60238095D01*
X218240533Y-60238095D02*
X218383390Y-60285714D01*
X218383390Y-60285714D02*
X218954819Y-60857142D01*
X218954819Y-60857142D02*
X218954819Y-60238095D01*
X247357142Y-92954819D02*
X247023809Y-92478628D01*
X246785714Y-92954819D02*
X246785714Y-91954819D01*
X246785714Y-91954819D02*
X247166666Y-91954819D01*
X247166666Y-91954819D02*
X247261904Y-92002438D01*
X247261904Y-92002438D02*
X247309523Y-92050057D01*
X247309523Y-92050057D02*
X247357142Y-92145295D01*
X247357142Y-92145295D02*
X247357142Y-92288152D01*
X247357142Y-92288152D02*
X247309523Y-92383390D01*
X247309523Y-92383390D02*
X247261904Y-92431009D01*
X247261904Y-92431009D02*
X247166666Y-92478628D01*
X247166666Y-92478628D02*
X246785714Y-92478628D01*
X247738095Y-92050057D02*
X247785714Y-92002438D01*
X247785714Y-92002438D02*
X247880952Y-91954819D01*
X247880952Y-91954819D02*
X248119047Y-91954819D01*
X248119047Y-91954819D02*
X248214285Y-92002438D01*
X248214285Y-92002438D02*
X248261904Y-92050057D01*
X248261904Y-92050057D02*
X248309523Y-92145295D01*
X248309523Y-92145295D02*
X248309523Y-92240533D01*
X248309523Y-92240533D02*
X248261904Y-92383390D01*
X248261904Y-92383390D02*
X247690476Y-92954819D01*
X247690476Y-92954819D02*
X248309523Y-92954819D01*
X248785714Y-92954819D02*
X248976190Y-92954819D01*
X248976190Y-92954819D02*
X249071428Y-92907200D01*
X249071428Y-92907200D02*
X249119047Y-92859580D01*
X249119047Y-92859580D02*
X249214285Y-92716723D01*
X249214285Y-92716723D02*
X249261904Y-92526247D01*
X249261904Y-92526247D02*
X249261904Y-92145295D01*
X249261904Y-92145295D02*
X249214285Y-92050057D01*
X249214285Y-92050057D02*
X249166666Y-92002438D01*
X249166666Y-92002438D02*
X249071428Y-91954819D01*
X249071428Y-91954819D02*
X248880952Y-91954819D01*
X248880952Y-91954819D02*
X248785714Y-92002438D01*
X248785714Y-92002438D02*
X248738095Y-92050057D01*
X248738095Y-92050057D02*
X248690476Y-92145295D01*
X248690476Y-92145295D02*
X248690476Y-92383390D01*
X248690476Y-92383390D02*
X248738095Y-92478628D01*
X248738095Y-92478628D02*
X248785714Y-92526247D01*
X248785714Y-92526247D02*
X248880952Y-92573866D01*
X248880952Y-92573866D02*
X249071428Y-92573866D01*
X249071428Y-92573866D02*
X249166666Y-92526247D01*
X249166666Y-92526247D02*
X249214285Y-92478628D01*
X249214285Y-92478628D02*
X249261904Y-92383390D01*
X247761905Y-99454819D02*
X247761905Y-98454819D01*
X247761905Y-98454819D02*
X248000000Y-98454819D01*
X248000000Y-98454819D02*
X248142857Y-98502438D01*
X248142857Y-98502438D02*
X248238095Y-98597676D01*
X248238095Y-98597676D02*
X248285714Y-98692914D01*
X248285714Y-98692914D02*
X248333333Y-98883390D01*
X248333333Y-98883390D02*
X248333333Y-99026247D01*
X248333333Y-99026247D02*
X248285714Y-99216723D01*
X248285714Y-99216723D02*
X248238095Y-99311961D01*
X248238095Y-99311961D02*
X248142857Y-99407200D01*
X248142857Y-99407200D02*
X248000000Y-99454819D01*
X248000000Y-99454819D02*
X247761905Y-99454819D01*
X249238095Y-98454819D02*
X248761905Y-98454819D01*
X248761905Y-98454819D02*
X248714286Y-98931009D01*
X248714286Y-98931009D02*
X248761905Y-98883390D01*
X248761905Y-98883390D02*
X248857143Y-98835771D01*
X248857143Y-98835771D02*
X249095238Y-98835771D01*
X249095238Y-98835771D02*
X249190476Y-98883390D01*
X249190476Y-98883390D02*
X249238095Y-98931009D01*
X249238095Y-98931009D02*
X249285714Y-99026247D01*
X249285714Y-99026247D02*
X249285714Y-99264342D01*
X249285714Y-99264342D02*
X249238095Y-99359580D01*
X249238095Y-99359580D02*
X249190476Y-99407200D01*
X249190476Y-99407200D02*
X249095238Y-99454819D01*
X249095238Y-99454819D02*
X248857143Y-99454819D01*
X248857143Y-99454819D02*
X248761905Y-99407200D01*
X248761905Y-99407200D02*
X248714286Y-99359580D01*
X155653639Y-74210007D02*
X156103654Y-74210007D01*
X156103654Y-74210007D02*
X156193657Y-74240008D01*
X156193657Y-74240008D02*
X156253660Y-74300010D01*
X156253660Y-74300010D02*
X156283661Y-74390013D01*
X156283661Y-74390013D02*
X156283661Y-74450015D01*
X155863646Y-73639987D02*
X156283661Y-73639987D01*
X155623638Y-73789992D02*
X156073653Y-73939997D01*
X156073653Y-73939997D02*
X156073653Y-73549984D01*
X232202142Y-77145980D02*
X232154523Y-77193600D01*
X232154523Y-77193600D02*
X232011666Y-77241219D01*
X232011666Y-77241219D02*
X231916428Y-77241219D01*
X231916428Y-77241219D02*
X231773571Y-77193600D01*
X231773571Y-77193600D02*
X231678333Y-77098361D01*
X231678333Y-77098361D02*
X231630714Y-77003123D01*
X231630714Y-77003123D02*
X231583095Y-76812647D01*
X231583095Y-76812647D02*
X231583095Y-76669790D01*
X231583095Y-76669790D02*
X231630714Y-76479314D01*
X231630714Y-76479314D02*
X231678333Y-76384076D01*
X231678333Y-76384076D02*
X231773571Y-76288838D01*
X231773571Y-76288838D02*
X231916428Y-76241219D01*
X231916428Y-76241219D02*
X232011666Y-76241219D01*
X232011666Y-76241219D02*
X232154523Y-76288838D01*
X232154523Y-76288838D02*
X232202142Y-76336457D01*
X232583095Y-76336457D02*
X232630714Y-76288838D01*
X232630714Y-76288838D02*
X232725952Y-76241219D01*
X232725952Y-76241219D02*
X232964047Y-76241219D01*
X232964047Y-76241219D02*
X233059285Y-76288838D01*
X233059285Y-76288838D02*
X233106904Y-76336457D01*
X233106904Y-76336457D02*
X233154523Y-76431695D01*
X233154523Y-76431695D02*
X233154523Y-76526933D01*
X233154523Y-76526933D02*
X233106904Y-76669790D01*
X233106904Y-76669790D02*
X232535476Y-77241219D01*
X232535476Y-77241219D02*
X233154523Y-77241219D01*
X233487857Y-76241219D02*
X234154523Y-76241219D01*
X234154523Y-76241219D02*
X233725952Y-77241219D01*
X231804819Y-75142857D02*
X231328628Y-75476190D01*
X231804819Y-75714285D02*
X230804819Y-75714285D01*
X230804819Y-75714285D02*
X230804819Y-75333333D01*
X230804819Y-75333333D02*
X230852438Y-75238095D01*
X230852438Y-75238095D02*
X230900057Y-75190476D01*
X230900057Y-75190476D02*
X230995295Y-75142857D01*
X230995295Y-75142857D02*
X231138152Y-75142857D01*
X231138152Y-75142857D02*
X231233390Y-75190476D01*
X231233390Y-75190476D02*
X231281009Y-75238095D01*
X231281009Y-75238095D02*
X231328628Y-75333333D01*
X231328628Y-75333333D02*
X231328628Y-75714285D01*
X231804819Y-74190476D02*
X231804819Y-74761904D01*
X231804819Y-74476190D02*
X230804819Y-74476190D01*
X230804819Y-74476190D02*
X230947676Y-74571428D01*
X230947676Y-74571428D02*
X231042914Y-74666666D01*
X231042914Y-74666666D02*
X231090533Y-74761904D01*
X231233390Y-73619047D02*
X231185771Y-73714285D01*
X231185771Y-73714285D02*
X231138152Y-73761904D01*
X231138152Y-73761904D02*
X231042914Y-73809523D01*
X231042914Y-73809523D02*
X230995295Y-73809523D01*
X230995295Y-73809523D02*
X230900057Y-73761904D01*
X230900057Y-73761904D02*
X230852438Y-73714285D01*
X230852438Y-73714285D02*
X230804819Y-73619047D01*
X230804819Y-73619047D02*
X230804819Y-73428571D01*
X230804819Y-73428571D02*
X230852438Y-73333333D01*
X230852438Y-73333333D02*
X230900057Y-73285714D01*
X230900057Y-73285714D02*
X230995295Y-73238095D01*
X230995295Y-73238095D02*
X231042914Y-73238095D01*
X231042914Y-73238095D02*
X231138152Y-73285714D01*
X231138152Y-73285714D02*
X231185771Y-73333333D01*
X231185771Y-73333333D02*
X231233390Y-73428571D01*
X231233390Y-73428571D02*
X231233390Y-73619047D01*
X231233390Y-73619047D02*
X231281009Y-73714285D01*
X231281009Y-73714285D02*
X231328628Y-73761904D01*
X231328628Y-73761904D02*
X231423866Y-73809523D01*
X231423866Y-73809523D02*
X231614342Y-73809523D01*
X231614342Y-73809523D02*
X231709580Y-73761904D01*
X231709580Y-73761904D02*
X231757200Y-73714285D01*
X231757200Y-73714285D02*
X231804819Y-73619047D01*
X231804819Y-73619047D02*
X231804819Y-73428571D01*
X231804819Y-73428571D02*
X231757200Y-73333333D01*
X231757200Y-73333333D02*
X231709580Y-73285714D01*
X231709580Y-73285714D02*
X231614342Y-73238095D01*
X231614342Y-73238095D02*
X231423866Y-73238095D01*
X231423866Y-73238095D02*
X231328628Y-73285714D01*
X231328628Y-73285714D02*
X231281009Y-73333333D01*
X231281009Y-73333333D02*
X231233390Y-73428571D01*
X197343333Y-82124819D02*
X197010000Y-81648628D01*
X196771905Y-82124819D02*
X196771905Y-81124819D01*
X196771905Y-81124819D02*
X197152857Y-81124819D01*
X197152857Y-81124819D02*
X197248095Y-81172438D01*
X197248095Y-81172438D02*
X197295714Y-81220057D01*
X197295714Y-81220057D02*
X197343333Y-81315295D01*
X197343333Y-81315295D02*
X197343333Y-81458152D01*
X197343333Y-81458152D02*
X197295714Y-81553390D01*
X197295714Y-81553390D02*
X197248095Y-81601009D01*
X197248095Y-81601009D02*
X197152857Y-81648628D01*
X197152857Y-81648628D02*
X196771905Y-81648628D01*
X197914762Y-81553390D02*
X197819524Y-81505771D01*
X197819524Y-81505771D02*
X197771905Y-81458152D01*
X197771905Y-81458152D02*
X197724286Y-81362914D01*
X197724286Y-81362914D02*
X197724286Y-81315295D01*
X197724286Y-81315295D02*
X197771905Y-81220057D01*
X197771905Y-81220057D02*
X197819524Y-81172438D01*
X197819524Y-81172438D02*
X197914762Y-81124819D01*
X197914762Y-81124819D02*
X198105238Y-81124819D01*
X198105238Y-81124819D02*
X198200476Y-81172438D01*
X198200476Y-81172438D02*
X198248095Y-81220057D01*
X198248095Y-81220057D02*
X198295714Y-81315295D01*
X198295714Y-81315295D02*
X198295714Y-81362914D01*
X198295714Y-81362914D02*
X198248095Y-81458152D01*
X198248095Y-81458152D02*
X198200476Y-81505771D01*
X198200476Y-81505771D02*
X198105238Y-81553390D01*
X198105238Y-81553390D02*
X197914762Y-81553390D01*
X197914762Y-81553390D02*
X197819524Y-81601009D01*
X197819524Y-81601009D02*
X197771905Y-81648628D01*
X197771905Y-81648628D02*
X197724286Y-81743866D01*
X197724286Y-81743866D02*
X197724286Y-81934342D01*
X197724286Y-81934342D02*
X197771905Y-82029580D01*
X197771905Y-82029580D02*
X197819524Y-82077200D01*
X197819524Y-82077200D02*
X197914762Y-82124819D01*
X197914762Y-82124819D02*
X198105238Y-82124819D01*
X198105238Y-82124819D02*
X198200476Y-82077200D01*
X198200476Y-82077200D02*
X198248095Y-82029580D01*
X198248095Y-82029580D02*
X198295714Y-81934342D01*
X198295714Y-81934342D02*
X198295714Y-81743866D01*
X198295714Y-81743866D02*
X198248095Y-81648628D01*
X198248095Y-81648628D02*
X198200476Y-81601009D01*
X198200476Y-81601009D02*
X198105238Y-81553390D01*
X195745833Y-65604819D02*
X195412500Y-65128628D01*
X195174405Y-65604819D02*
X195174405Y-64604819D01*
X195174405Y-64604819D02*
X195555357Y-64604819D01*
X195555357Y-64604819D02*
X195650595Y-64652438D01*
X195650595Y-64652438D02*
X195698214Y-64700057D01*
X195698214Y-64700057D02*
X195745833Y-64795295D01*
X195745833Y-64795295D02*
X195745833Y-64938152D01*
X195745833Y-64938152D02*
X195698214Y-65033390D01*
X195698214Y-65033390D02*
X195650595Y-65081009D01*
X195650595Y-65081009D02*
X195555357Y-65128628D01*
X195555357Y-65128628D02*
X195174405Y-65128628D01*
X196079167Y-64604819D02*
X196698214Y-64604819D01*
X196698214Y-64604819D02*
X196364881Y-64985771D01*
X196364881Y-64985771D02*
X196507738Y-64985771D01*
X196507738Y-64985771D02*
X196602976Y-65033390D01*
X196602976Y-65033390D02*
X196650595Y-65081009D01*
X196650595Y-65081009D02*
X196698214Y-65176247D01*
X196698214Y-65176247D02*
X196698214Y-65414342D01*
X196698214Y-65414342D02*
X196650595Y-65509580D01*
X196650595Y-65509580D02*
X196602976Y-65557200D01*
X196602976Y-65557200D02*
X196507738Y-65604819D01*
X196507738Y-65604819D02*
X196222024Y-65604819D01*
X196222024Y-65604819D02*
X196126786Y-65557200D01*
X196126786Y-65557200D02*
X196079167Y-65509580D01*
X173504819Y-90241666D02*
X173504819Y-90717856D01*
X173504819Y-90717856D02*
X172504819Y-90717856D01*
X172600057Y-89955951D02*
X172552438Y-89908332D01*
X172552438Y-89908332D02*
X172504819Y-89813094D01*
X172504819Y-89813094D02*
X172504819Y-89574999D01*
X172504819Y-89574999D02*
X172552438Y-89479761D01*
X172552438Y-89479761D02*
X172600057Y-89432142D01*
X172600057Y-89432142D02*
X172695295Y-89384523D01*
X172695295Y-89384523D02*
X172790533Y-89384523D01*
X172790533Y-89384523D02*
X172933390Y-89432142D01*
X172933390Y-89432142D02*
X173504819Y-90003570D01*
X173504819Y-90003570D02*
X173504819Y-89384523D01*
X161357142Y-99454819D02*
X161023809Y-98978628D01*
X160785714Y-99454819D02*
X160785714Y-98454819D01*
X160785714Y-98454819D02*
X161166666Y-98454819D01*
X161166666Y-98454819D02*
X161261904Y-98502438D01*
X161261904Y-98502438D02*
X161309523Y-98550057D01*
X161309523Y-98550057D02*
X161357142Y-98645295D01*
X161357142Y-98645295D02*
X161357142Y-98788152D01*
X161357142Y-98788152D02*
X161309523Y-98883390D01*
X161309523Y-98883390D02*
X161261904Y-98931009D01*
X161261904Y-98931009D02*
X161166666Y-98978628D01*
X161166666Y-98978628D02*
X160785714Y-98978628D01*
X162309523Y-99454819D02*
X161738095Y-99454819D01*
X162023809Y-99454819D02*
X162023809Y-98454819D01*
X162023809Y-98454819D02*
X161928571Y-98597676D01*
X161928571Y-98597676D02*
X161833333Y-98692914D01*
X161833333Y-98692914D02*
X161738095Y-98740533D01*
X163166666Y-98788152D02*
X163166666Y-99454819D01*
X162928571Y-98407200D02*
X162690476Y-99121485D01*
X162690476Y-99121485D02*
X163309523Y-99121485D01*
X229604819Y-83055357D02*
X229128628Y-83388690D01*
X229604819Y-83626785D02*
X228604819Y-83626785D01*
X228604819Y-83626785D02*
X228604819Y-83245833D01*
X228604819Y-83245833D02*
X228652438Y-83150595D01*
X228652438Y-83150595D02*
X228700057Y-83102976D01*
X228700057Y-83102976D02*
X228795295Y-83055357D01*
X228795295Y-83055357D02*
X228938152Y-83055357D01*
X228938152Y-83055357D02*
X229033390Y-83102976D01*
X229033390Y-83102976D02*
X229081009Y-83150595D01*
X229081009Y-83150595D02*
X229128628Y-83245833D01*
X229128628Y-83245833D02*
X229128628Y-83626785D01*
X229604819Y-82102976D02*
X229604819Y-82674404D01*
X229604819Y-82388690D02*
X228604819Y-82388690D01*
X228604819Y-82388690D02*
X228747676Y-82483928D01*
X228747676Y-82483928D02*
X228842914Y-82579166D01*
X228842914Y-82579166D02*
X228890533Y-82674404D01*
X228604819Y-81245833D02*
X228604819Y-81436309D01*
X228604819Y-81436309D02*
X228652438Y-81531547D01*
X228652438Y-81531547D02*
X228700057Y-81579166D01*
X228700057Y-81579166D02*
X228842914Y-81674404D01*
X228842914Y-81674404D02*
X229033390Y-81722023D01*
X229033390Y-81722023D02*
X229414342Y-81722023D01*
X229414342Y-81722023D02*
X229509580Y-81674404D01*
X229509580Y-81674404D02*
X229557200Y-81626785D01*
X229557200Y-81626785D02*
X229604819Y-81531547D01*
X229604819Y-81531547D02*
X229604819Y-81341071D01*
X229604819Y-81341071D02*
X229557200Y-81245833D01*
X229557200Y-81245833D02*
X229509580Y-81198214D01*
X229509580Y-81198214D02*
X229414342Y-81150595D01*
X229414342Y-81150595D02*
X229176247Y-81150595D01*
X229176247Y-81150595D02*
X229081009Y-81198214D01*
X229081009Y-81198214D02*
X229033390Y-81245833D01*
X229033390Y-81245833D02*
X228985771Y-81341071D01*
X228985771Y-81341071D02*
X228985771Y-81531547D01*
X228985771Y-81531547D02*
X229033390Y-81626785D01*
X229033390Y-81626785D02*
X229081009Y-81674404D01*
X229081009Y-81674404D02*
X229176247Y-81722023D01*
X194988333Y-81699580D02*
X194940714Y-81747200D01*
X194940714Y-81747200D02*
X194797857Y-81794819D01*
X194797857Y-81794819D02*
X194702619Y-81794819D01*
X194702619Y-81794819D02*
X194559762Y-81747200D01*
X194559762Y-81747200D02*
X194464524Y-81651961D01*
X194464524Y-81651961D02*
X194416905Y-81556723D01*
X194416905Y-81556723D02*
X194369286Y-81366247D01*
X194369286Y-81366247D02*
X194369286Y-81223390D01*
X194369286Y-81223390D02*
X194416905Y-81032914D01*
X194416905Y-81032914D02*
X194464524Y-80937676D01*
X194464524Y-80937676D02*
X194559762Y-80842438D01*
X194559762Y-80842438D02*
X194702619Y-80794819D01*
X194702619Y-80794819D02*
X194797857Y-80794819D01*
X194797857Y-80794819D02*
X194940714Y-80842438D01*
X194940714Y-80842438D02*
X194988333Y-80890057D01*
X195845476Y-80794819D02*
X195655000Y-80794819D01*
X195655000Y-80794819D02*
X195559762Y-80842438D01*
X195559762Y-80842438D02*
X195512143Y-80890057D01*
X195512143Y-80890057D02*
X195416905Y-81032914D01*
X195416905Y-81032914D02*
X195369286Y-81223390D01*
X195369286Y-81223390D02*
X195369286Y-81604342D01*
X195369286Y-81604342D02*
X195416905Y-81699580D01*
X195416905Y-81699580D02*
X195464524Y-81747200D01*
X195464524Y-81747200D02*
X195559762Y-81794819D01*
X195559762Y-81794819D02*
X195750238Y-81794819D01*
X195750238Y-81794819D02*
X195845476Y-81747200D01*
X195845476Y-81747200D02*
X195893095Y-81699580D01*
X195893095Y-81699580D02*
X195940714Y-81604342D01*
X195940714Y-81604342D02*
X195940714Y-81366247D01*
X195940714Y-81366247D02*
X195893095Y-81271009D01*
X195893095Y-81271009D02*
X195845476Y-81223390D01*
X195845476Y-81223390D02*
X195750238Y-81175771D01*
X195750238Y-81175771D02*
X195559762Y-81175771D01*
X195559762Y-81175771D02*
X195464524Y-81223390D01*
X195464524Y-81223390D02*
X195416905Y-81271009D01*
X195416905Y-81271009D02*
X195369286Y-81366247D01*
X190943987Y-83506031D02*
X190991607Y-83553650D01*
X190991607Y-83553650D02*
X191039226Y-83696507D01*
X191039226Y-83696507D02*
X191039226Y-83791745D01*
X191039226Y-83791745D02*
X190991607Y-83934602D01*
X190991607Y-83934602D02*
X190896368Y-84029840D01*
X190896368Y-84029840D02*
X190801130Y-84077459D01*
X190801130Y-84077459D02*
X190610654Y-84125078D01*
X190610654Y-84125078D02*
X190467797Y-84125078D01*
X190467797Y-84125078D02*
X190277321Y-84077459D01*
X190277321Y-84077459D02*
X190182083Y-84029840D01*
X190182083Y-84029840D02*
X190086845Y-83934602D01*
X190086845Y-83934602D02*
X190039226Y-83791745D01*
X190039226Y-83791745D02*
X190039226Y-83696507D01*
X190039226Y-83696507D02*
X190086845Y-83553650D01*
X190086845Y-83553650D02*
X190134464Y-83506031D01*
X190039226Y-82601269D02*
X190039226Y-83077459D01*
X190039226Y-83077459D02*
X190515416Y-83125078D01*
X190515416Y-83125078D02*
X190467797Y-83077459D01*
X190467797Y-83077459D02*
X190420178Y-82982221D01*
X190420178Y-82982221D02*
X190420178Y-82744126D01*
X190420178Y-82744126D02*
X190467797Y-82648888D01*
X190467797Y-82648888D02*
X190515416Y-82601269D01*
X190515416Y-82601269D02*
X190610654Y-82553650D01*
X190610654Y-82553650D02*
X190848749Y-82553650D01*
X190848749Y-82553650D02*
X190943987Y-82601269D01*
X190943987Y-82601269D02*
X190991607Y-82648888D01*
X190991607Y-82648888D02*
X191039226Y-82744126D01*
X191039226Y-82744126D02*
X191039226Y-82982221D01*
X191039226Y-82982221D02*
X190991607Y-83077459D01*
X190991607Y-83077459D02*
X190943987Y-83125078D01*
D11*
X221209412Y-56970790D02*
X221078178Y-56970790D01*
X221078178Y-57177014D02*
X221078178Y-56783313D01*
X221078178Y-56783313D02*
X221265655Y-56783313D01*
X221603113Y-57177014D02*
X221415636Y-57177014D01*
X221415636Y-57177014D02*
X221415636Y-56783313D01*
X221696851Y-56783313D02*
X221940570Y-56783313D01*
X221940570Y-56783313D02*
X221809337Y-56933295D01*
X221809337Y-56933295D02*
X221865580Y-56933295D01*
X221865580Y-56933295D02*
X221903075Y-56952042D01*
X221903075Y-56952042D02*
X221921823Y-56970790D01*
X221921823Y-56970790D02*
X221940570Y-57008285D01*
X221940570Y-57008285D02*
X221940570Y-57102024D01*
X221940570Y-57102024D02*
X221921823Y-57139519D01*
X221921823Y-57139519D02*
X221903075Y-57158267D01*
X221903075Y-57158267D02*
X221865580Y-57177014D01*
X221865580Y-57177014D02*
X221753094Y-57177014D01*
X221753094Y-57177014D02*
X221715598Y-57158267D01*
X221715598Y-57158267D02*
X221696851Y-57139519D01*
D10*
X249761905Y-99454819D02*
X249761905Y-98454819D01*
X249761905Y-98454819D02*
X250000000Y-98454819D01*
X250000000Y-98454819D02*
X250142857Y-98502438D01*
X250142857Y-98502438D02*
X250238095Y-98597676D01*
X250238095Y-98597676D02*
X250285714Y-98692914D01*
X250285714Y-98692914D02*
X250333333Y-98883390D01*
X250333333Y-98883390D02*
X250333333Y-99026247D01*
X250333333Y-99026247D02*
X250285714Y-99216723D01*
X250285714Y-99216723D02*
X250238095Y-99311961D01*
X250238095Y-99311961D02*
X250142857Y-99407200D01*
X250142857Y-99407200D02*
X250000000Y-99454819D01*
X250000000Y-99454819D02*
X249761905Y-99454819D01*
X250666667Y-98454819D02*
X251285714Y-98454819D01*
X251285714Y-98454819D02*
X250952381Y-98835771D01*
X250952381Y-98835771D02*
X251095238Y-98835771D01*
X251095238Y-98835771D02*
X251190476Y-98883390D01*
X251190476Y-98883390D02*
X251238095Y-98931009D01*
X251238095Y-98931009D02*
X251285714Y-99026247D01*
X251285714Y-99026247D02*
X251285714Y-99264342D01*
X251285714Y-99264342D02*
X251238095Y-99359580D01*
X251238095Y-99359580D02*
X251190476Y-99407200D01*
X251190476Y-99407200D02*
X251095238Y-99454819D01*
X251095238Y-99454819D02*
X250809524Y-99454819D01*
X250809524Y-99454819D02*
X250714286Y-99407200D01*
X250714286Y-99407200D02*
X250666667Y-99359580D01*
X200519580Y-80642857D02*
X200567200Y-80690476D01*
X200567200Y-80690476D02*
X200614819Y-80833333D01*
X200614819Y-80833333D02*
X200614819Y-80928571D01*
X200614819Y-80928571D02*
X200567200Y-81071428D01*
X200567200Y-81071428D02*
X200471961Y-81166666D01*
X200471961Y-81166666D02*
X200376723Y-81214285D01*
X200376723Y-81214285D02*
X200186247Y-81261904D01*
X200186247Y-81261904D02*
X200043390Y-81261904D01*
X200043390Y-81261904D02*
X199852914Y-81214285D01*
X199852914Y-81214285D02*
X199757676Y-81166666D01*
X199757676Y-81166666D02*
X199662438Y-81071428D01*
X199662438Y-81071428D02*
X199614819Y-80928571D01*
X199614819Y-80928571D02*
X199614819Y-80833333D01*
X199614819Y-80833333D02*
X199662438Y-80690476D01*
X199662438Y-80690476D02*
X199710057Y-80642857D01*
X200614819Y-79690476D02*
X200614819Y-80261904D01*
X200614819Y-79976190D02*
X199614819Y-79976190D01*
X199614819Y-79976190D02*
X199757676Y-80071428D01*
X199757676Y-80071428D02*
X199852914Y-80166666D01*
X199852914Y-80166666D02*
X199900533Y-80261904D01*
X199948152Y-78833333D02*
X200614819Y-78833333D01*
X199567200Y-79071428D02*
X200281485Y-79309523D01*
X200281485Y-79309523D02*
X200281485Y-78690476D01*
X216454819Y-102433333D02*
X217169104Y-102433333D01*
X217169104Y-102433333D02*
X217311961Y-102480952D01*
X217311961Y-102480952D02*
X217407200Y-102576190D01*
X217407200Y-102576190D02*
X217454819Y-102719047D01*
X217454819Y-102719047D02*
X217454819Y-102814285D01*
X216550057Y-102004761D02*
X216502438Y-101957142D01*
X216502438Y-101957142D02*
X216454819Y-101861904D01*
X216454819Y-101861904D02*
X216454819Y-101623809D01*
X216454819Y-101623809D02*
X216502438Y-101528571D01*
X216502438Y-101528571D02*
X216550057Y-101480952D01*
X216550057Y-101480952D02*
X216645295Y-101433333D01*
X216645295Y-101433333D02*
X216740533Y-101433333D01*
X216740533Y-101433333D02*
X216883390Y-101480952D01*
X216883390Y-101480952D02*
X217454819Y-102052380D01*
X217454819Y-102052380D02*
X217454819Y-101433333D01*
X192359580Y-55642857D02*
X192407200Y-55690476D01*
X192407200Y-55690476D02*
X192454819Y-55833333D01*
X192454819Y-55833333D02*
X192454819Y-55928571D01*
X192454819Y-55928571D02*
X192407200Y-56071428D01*
X192407200Y-56071428D02*
X192311961Y-56166666D01*
X192311961Y-56166666D02*
X192216723Y-56214285D01*
X192216723Y-56214285D02*
X192026247Y-56261904D01*
X192026247Y-56261904D02*
X191883390Y-56261904D01*
X191883390Y-56261904D02*
X191692914Y-56214285D01*
X191692914Y-56214285D02*
X191597676Y-56166666D01*
X191597676Y-56166666D02*
X191502438Y-56071428D01*
X191502438Y-56071428D02*
X191454819Y-55928571D01*
X191454819Y-55928571D02*
X191454819Y-55833333D01*
X191454819Y-55833333D02*
X191502438Y-55690476D01*
X191502438Y-55690476D02*
X191550057Y-55642857D01*
X192454819Y-54690476D02*
X192454819Y-55261904D01*
X192454819Y-54976190D02*
X191454819Y-54976190D01*
X191454819Y-54976190D02*
X191597676Y-55071428D01*
X191597676Y-55071428D02*
X191692914Y-55166666D01*
X191692914Y-55166666D02*
X191740533Y-55261904D01*
X191883390Y-54119047D02*
X191835771Y-54214285D01*
X191835771Y-54214285D02*
X191788152Y-54261904D01*
X191788152Y-54261904D02*
X191692914Y-54309523D01*
X191692914Y-54309523D02*
X191645295Y-54309523D01*
X191645295Y-54309523D02*
X191550057Y-54261904D01*
X191550057Y-54261904D02*
X191502438Y-54214285D01*
X191502438Y-54214285D02*
X191454819Y-54119047D01*
X191454819Y-54119047D02*
X191454819Y-53928571D01*
X191454819Y-53928571D02*
X191502438Y-53833333D01*
X191502438Y-53833333D02*
X191550057Y-53785714D01*
X191550057Y-53785714D02*
X191645295Y-53738095D01*
X191645295Y-53738095D02*
X191692914Y-53738095D01*
X191692914Y-53738095D02*
X191788152Y-53785714D01*
X191788152Y-53785714D02*
X191835771Y-53833333D01*
X191835771Y-53833333D02*
X191883390Y-53928571D01*
X191883390Y-53928571D02*
X191883390Y-54119047D01*
X191883390Y-54119047D02*
X191931009Y-54214285D01*
X191931009Y-54214285D02*
X191978628Y-54261904D01*
X191978628Y-54261904D02*
X192073866Y-54309523D01*
X192073866Y-54309523D02*
X192264342Y-54309523D01*
X192264342Y-54309523D02*
X192359580Y-54261904D01*
X192359580Y-54261904D02*
X192407200Y-54214285D01*
X192407200Y-54214285D02*
X192454819Y-54119047D01*
X192454819Y-54119047D02*
X192454819Y-53928571D01*
X192454819Y-53928571D02*
X192407200Y-53833333D01*
X192407200Y-53833333D02*
X192359580Y-53785714D01*
X192359580Y-53785714D02*
X192264342Y-53738095D01*
X192264342Y-53738095D02*
X192073866Y-53738095D01*
X192073866Y-53738095D02*
X191978628Y-53785714D01*
X191978628Y-53785714D02*
X191931009Y-53833333D01*
X191931009Y-53833333D02*
X191883390Y-53928571D01*
X190857142Y-92699580D02*
X190809523Y-92747200D01*
X190809523Y-92747200D02*
X190666666Y-92794819D01*
X190666666Y-92794819D02*
X190571428Y-92794819D01*
X190571428Y-92794819D02*
X190428571Y-92747200D01*
X190428571Y-92747200D02*
X190333333Y-92651961D01*
X190333333Y-92651961D02*
X190285714Y-92556723D01*
X190285714Y-92556723D02*
X190238095Y-92366247D01*
X190238095Y-92366247D02*
X190238095Y-92223390D01*
X190238095Y-92223390D02*
X190285714Y-92032914D01*
X190285714Y-92032914D02*
X190333333Y-91937676D01*
X190333333Y-91937676D02*
X190428571Y-91842438D01*
X190428571Y-91842438D02*
X190571428Y-91794819D01*
X190571428Y-91794819D02*
X190666666Y-91794819D01*
X190666666Y-91794819D02*
X190809523Y-91842438D01*
X190809523Y-91842438D02*
X190857142Y-91890057D01*
X191238095Y-91890057D02*
X191285714Y-91842438D01*
X191285714Y-91842438D02*
X191380952Y-91794819D01*
X191380952Y-91794819D02*
X191619047Y-91794819D01*
X191619047Y-91794819D02*
X191714285Y-91842438D01*
X191714285Y-91842438D02*
X191761904Y-91890057D01*
X191761904Y-91890057D02*
X191809523Y-91985295D01*
X191809523Y-91985295D02*
X191809523Y-92080533D01*
X191809523Y-92080533D02*
X191761904Y-92223390D01*
X191761904Y-92223390D02*
X191190476Y-92794819D01*
X191190476Y-92794819D02*
X191809523Y-92794819D01*
X192666666Y-91794819D02*
X192476190Y-91794819D01*
X192476190Y-91794819D02*
X192380952Y-91842438D01*
X192380952Y-91842438D02*
X192333333Y-91890057D01*
X192333333Y-91890057D02*
X192238095Y-92032914D01*
X192238095Y-92032914D02*
X192190476Y-92223390D01*
X192190476Y-92223390D02*
X192190476Y-92604342D01*
X192190476Y-92604342D02*
X192238095Y-92699580D01*
X192238095Y-92699580D02*
X192285714Y-92747200D01*
X192285714Y-92747200D02*
X192380952Y-92794819D01*
X192380952Y-92794819D02*
X192571428Y-92794819D01*
X192571428Y-92794819D02*
X192666666Y-92747200D01*
X192666666Y-92747200D02*
X192714285Y-92699580D01*
X192714285Y-92699580D02*
X192761904Y-92604342D01*
X192761904Y-92604342D02*
X192761904Y-92366247D01*
X192761904Y-92366247D02*
X192714285Y-92271009D01*
X192714285Y-92271009D02*
X192666666Y-92223390D01*
X192666666Y-92223390D02*
X192571428Y-92175771D01*
X192571428Y-92175771D02*
X192380952Y-92175771D01*
X192380952Y-92175771D02*
X192285714Y-92223390D01*
X192285714Y-92223390D02*
X192238095Y-92271009D01*
X192238095Y-92271009D02*
X192190476Y-92366247D01*
X234738095Y-91954819D02*
X234738095Y-92764342D01*
X234738095Y-92764342D02*
X234785714Y-92859580D01*
X234785714Y-92859580D02*
X234833333Y-92907200D01*
X234833333Y-92907200D02*
X234928571Y-92954819D01*
X234928571Y-92954819D02*
X235119047Y-92954819D01*
X235119047Y-92954819D02*
X235214285Y-92907200D01*
X235214285Y-92907200D02*
X235261904Y-92859580D01*
X235261904Y-92859580D02*
X235309523Y-92764342D01*
X235309523Y-92764342D02*
X235309523Y-91954819D01*
X236214285Y-91954819D02*
X236023809Y-91954819D01*
X236023809Y-91954819D02*
X235928571Y-92002438D01*
X235928571Y-92002438D02*
X235880952Y-92050057D01*
X235880952Y-92050057D02*
X235785714Y-92192914D01*
X235785714Y-92192914D02*
X235738095Y-92383390D01*
X235738095Y-92383390D02*
X235738095Y-92764342D01*
X235738095Y-92764342D02*
X235785714Y-92859580D01*
X235785714Y-92859580D02*
X235833333Y-92907200D01*
X235833333Y-92907200D02*
X235928571Y-92954819D01*
X235928571Y-92954819D02*
X236119047Y-92954819D01*
X236119047Y-92954819D02*
X236214285Y-92907200D01*
X236214285Y-92907200D02*
X236261904Y-92859580D01*
X236261904Y-92859580D02*
X236309523Y-92764342D01*
X236309523Y-92764342D02*
X236309523Y-92526247D01*
X236309523Y-92526247D02*
X236261904Y-92431009D01*
X236261904Y-92431009D02*
X236214285Y-92383390D01*
X236214285Y-92383390D02*
X236119047Y-92335771D01*
X236119047Y-92335771D02*
X235928571Y-92335771D01*
X235928571Y-92335771D02*
X235833333Y-92383390D01*
X235833333Y-92383390D02*
X235785714Y-92431009D01*
X235785714Y-92431009D02*
X235738095Y-92526247D01*
X231194819Y-83344219D02*
X231385295Y-83344219D01*
X231385295Y-83344219D02*
X231480533Y-83391838D01*
X231480533Y-83391838D02*
X231575771Y-83487076D01*
X231575771Y-83487076D02*
X231623390Y-83677552D01*
X231623390Y-83677552D02*
X231623390Y-84010885D01*
X231623390Y-84010885D02*
X231575771Y-84201361D01*
X231575771Y-84201361D02*
X231480533Y-84296600D01*
X231480533Y-84296600D02*
X231385295Y-84344219D01*
X231385295Y-84344219D02*
X231194819Y-84344219D01*
X231194819Y-84344219D02*
X231099581Y-84296600D01*
X231099581Y-84296600D02*
X231004343Y-84201361D01*
X231004343Y-84201361D02*
X230956724Y-84010885D01*
X230956724Y-84010885D02*
X230956724Y-83677552D01*
X230956724Y-83677552D02*
X231004343Y-83487076D01*
X231004343Y-83487076D02*
X231099581Y-83391838D01*
X231099581Y-83391838D02*
X231194819Y-83344219D01*
X232385295Y-83820409D02*
X232051962Y-83820409D01*
X232051962Y-84344219D02*
X232051962Y-83344219D01*
X232051962Y-83344219D02*
X232528152Y-83344219D01*
X233242438Y-83820409D02*
X232909105Y-83820409D01*
X232909105Y-84344219D02*
X232909105Y-83344219D01*
X232909105Y-83344219D02*
X233385295Y-83344219D01*
X238233752Y-83344219D02*
X238424228Y-83344219D01*
X238424228Y-83344219D02*
X238519466Y-83391838D01*
X238519466Y-83391838D02*
X238614704Y-83487076D01*
X238614704Y-83487076D02*
X238662323Y-83677552D01*
X238662323Y-83677552D02*
X238662323Y-84010885D01*
X238662323Y-84010885D02*
X238614704Y-84201361D01*
X238614704Y-84201361D02*
X238519466Y-84296600D01*
X238519466Y-84296600D02*
X238424228Y-84344219D01*
X238424228Y-84344219D02*
X238233752Y-84344219D01*
X238233752Y-84344219D02*
X238138514Y-84296600D01*
X238138514Y-84296600D02*
X238043276Y-84201361D01*
X238043276Y-84201361D02*
X237995657Y-84010885D01*
X237995657Y-84010885D02*
X237995657Y-83677552D01*
X237995657Y-83677552D02*
X238043276Y-83487076D01*
X238043276Y-83487076D02*
X238138514Y-83391838D01*
X238138514Y-83391838D02*
X238233752Y-83344219D01*
X239090895Y-84344219D02*
X239090895Y-83344219D01*
X239090895Y-83344219D02*
X239662323Y-84344219D01*
X239662323Y-84344219D02*
X239662323Y-83344219D01*
X168261905Y-100454819D02*
X168261905Y-99454819D01*
X168261905Y-99454819D02*
X168500000Y-99454819D01*
X168500000Y-99454819D02*
X168642857Y-99502438D01*
X168642857Y-99502438D02*
X168738095Y-99597676D01*
X168738095Y-99597676D02*
X168785714Y-99692914D01*
X168785714Y-99692914D02*
X168833333Y-99883390D01*
X168833333Y-99883390D02*
X168833333Y-100026247D01*
X168833333Y-100026247D02*
X168785714Y-100216723D01*
X168785714Y-100216723D02*
X168738095Y-100311961D01*
X168738095Y-100311961D02*
X168642857Y-100407200D01*
X168642857Y-100407200D02*
X168500000Y-100454819D01*
X168500000Y-100454819D02*
X168261905Y-100454819D01*
X169214286Y-99550057D02*
X169261905Y-99502438D01*
X169261905Y-99502438D02*
X169357143Y-99454819D01*
X169357143Y-99454819D02*
X169595238Y-99454819D01*
X169595238Y-99454819D02*
X169690476Y-99502438D01*
X169690476Y-99502438D02*
X169738095Y-99550057D01*
X169738095Y-99550057D02*
X169785714Y-99645295D01*
X169785714Y-99645295D02*
X169785714Y-99740533D01*
X169785714Y-99740533D02*
X169738095Y-99883390D01*
X169738095Y-99883390D02*
X169166667Y-100454819D01*
X169166667Y-100454819D02*
X169785714Y-100454819D01*
X185199580Y-66166666D02*
X185247200Y-66214285D01*
X185247200Y-66214285D02*
X185294819Y-66357142D01*
X185294819Y-66357142D02*
X185294819Y-66452380D01*
X185294819Y-66452380D02*
X185247200Y-66595237D01*
X185247200Y-66595237D02*
X185151961Y-66690475D01*
X185151961Y-66690475D02*
X185056723Y-66738094D01*
X185056723Y-66738094D02*
X184866247Y-66785713D01*
X184866247Y-66785713D02*
X184723390Y-66785713D01*
X184723390Y-66785713D02*
X184532914Y-66738094D01*
X184532914Y-66738094D02*
X184437676Y-66690475D01*
X184437676Y-66690475D02*
X184342438Y-66595237D01*
X184342438Y-66595237D02*
X184294819Y-66452380D01*
X184294819Y-66452380D02*
X184294819Y-66357142D01*
X184294819Y-66357142D02*
X184342438Y-66214285D01*
X184342438Y-66214285D02*
X184390057Y-66166666D01*
X184723390Y-65595237D02*
X184675771Y-65690475D01*
X184675771Y-65690475D02*
X184628152Y-65738094D01*
X184628152Y-65738094D02*
X184532914Y-65785713D01*
X184532914Y-65785713D02*
X184485295Y-65785713D01*
X184485295Y-65785713D02*
X184390057Y-65738094D01*
X184390057Y-65738094D02*
X184342438Y-65690475D01*
X184342438Y-65690475D02*
X184294819Y-65595237D01*
X184294819Y-65595237D02*
X184294819Y-65404761D01*
X184294819Y-65404761D02*
X184342438Y-65309523D01*
X184342438Y-65309523D02*
X184390057Y-65261904D01*
X184390057Y-65261904D02*
X184485295Y-65214285D01*
X184485295Y-65214285D02*
X184532914Y-65214285D01*
X184532914Y-65214285D02*
X184628152Y-65261904D01*
X184628152Y-65261904D02*
X184675771Y-65309523D01*
X184675771Y-65309523D02*
X184723390Y-65404761D01*
X184723390Y-65404761D02*
X184723390Y-65595237D01*
X184723390Y-65595237D02*
X184771009Y-65690475D01*
X184771009Y-65690475D02*
X184818628Y-65738094D01*
X184818628Y-65738094D02*
X184913866Y-65785713D01*
X184913866Y-65785713D02*
X185104342Y-65785713D01*
X185104342Y-65785713D02*
X185199580Y-65738094D01*
X185199580Y-65738094D02*
X185247200Y-65690475D01*
X185247200Y-65690475D02*
X185294819Y-65595237D01*
X185294819Y-65595237D02*
X185294819Y-65404761D01*
X185294819Y-65404761D02*
X185247200Y-65309523D01*
X185247200Y-65309523D02*
X185199580Y-65261904D01*
X185199580Y-65261904D02*
X185104342Y-65214285D01*
X185104342Y-65214285D02*
X184913866Y-65214285D01*
X184913866Y-65214285D02*
X184818628Y-65261904D01*
X184818628Y-65261904D02*
X184771009Y-65309523D01*
X184771009Y-65309523D02*
X184723390Y-65404761D01*
X170420833Y-63804819D02*
X170087500Y-63328628D01*
X169849405Y-63804819D02*
X169849405Y-62804819D01*
X169849405Y-62804819D02*
X170230357Y-62804819D01*
X170230357Y-62804819D02*
X170325595Y-62852438D01*
X170325595Y-62852438D02*
X170373214Y-62900057D01*
X170373214Y-62900057D02*
X170420833Y-62995295D01*
X170420833Y-62995295D02*
X170420833Y-63138152D01*
X170420833Y-63138152D02*
X170373214Y-63233390D01*
X170373214Y-63233390D02*
X170325595Y-63281009D01*
X170325595Y-63281009D02*
X170230357Y-63328628D01*
X170230357Y-63328628D02*
X169849405Y-63328628D01*
X171277976Y-63138152D02*
X171277976Y-63804819D01*
X171039881Y-62757200D02*
X170801786Y-63471485D01*
X170801786Y-63471485D02*
X171420833Y-63471485D01*
X155789642Y-91519580D02*
X155742023Y-91567200D01*
X155742023Y-91567200D02*
X155599166Y-91614819D01*
X155599166Y-91614819D02*
X155503928Y-91614819D01*
X155503928Y-91614819D02*
X155361071Y-91567200D01*
X155361071Y-91567200D02*
X155265833Y-91471961D01*
X155265833Y-91471961D02*
X155218214Y-91376723D01*
X155218214Y-91376723D02*
X155170595Y-91186247D01*
X155170595Y-91186247D02*
X155170595Y-91043390D01*
X155170595Y-91043390D02*
X155218214Y-90852914D01*
X155218214Y-90852914D02*
X155265833Y-90757676D01*
X155265833Y-90757676D02*
X155361071Y-90662438D01*
X155361071Y-90662438D02*
X155503928Y-90614819D01*
X155503928Y-90614819D02*
X155599166Y-90614819D01*
X155599166Y-90614819D02*
X155742023Y-90662438D01*
X155742023Y-90662438D02*
X155789642Y-90710057D01*
X156742023Y-91614819D02*
X156170595Y-91614819D01*
X156456309Y-91614819D02*
X156456309Y-90614819D01*
X156456309Y-90614819D02*
X156361071Y-90757676D01*
X156361071Y-90757676D02*
X156265833Y-90852914D01*
X156265833Y-90852914D02*
X156170595Y-90900533D01*
X157075357Y-90614819D02*
X157742023Y-90614819D01*
X157742023Y-90614819D02*
X157313452Y-91614819D01*
X159954819Y-81642857D02*
X159478628Y-81976190D01*
X159954819Y-82214285D02*
X158954819Y-82214285D01*
X158954819Y-82214285D02*
X158954819Y-81833333D01*
X158954819Y-81833333D02*
X159002438Y-81738095D01*
X159002438Y-81738095D02*
X159050057Y-81690476D01*
X159050057Y-81690476D02*
X159145295Y-81642857D01*
X159145295Y-81642857D02*
X159288152Y-81642857D01*
X159288152Y-81642857D02*
X159383390Y-81690476D01*
X159383390Y-81690476D02*
X159431009Y-81738095D01*
X159431009Y-81738095D02*
X159478628Y-81833333D01*
X159478628Y-81833333D02*
X159478628Y-82214285D01*
X159954819Y-80690476D02*
X159954819Y-81261904D01*
X159954819Y-80976190D02*
X158954819Y-80976190D01*
X158954819Y-80976190D02*
X159097676Y-81071428D01*
X159097676Y-81071428D02*
X159192914Y-81166666D01*
X159192914Y-81166666D02*
X159240533Y-81261904D01*
X158954819Y-79785714D02*
X158954819Y-80261904D01*
X158954819Y-80261904D02*
X159431009Y-80309523D01*
X159431009Y-80309523D02*
X159383390Y-80261904D01*
X159383390Y-80261904D02*
X159335771Y-80166666D01*
X159335771Y-80166666D02*
X159335771Y-79928571D01*
X159335771Y-79928571D02*
X159383390Y-79833333D01*
X159383390Y-79833333D02*
X159431009Y-79785714D01*
X159431009Y-79785714D02*
X159526247Y-79738095D01*
X159526247Y-79738095D02*
X159764342Y-79738095D01*
X159764342Y-79738095D02*
X159859580Y-79785714D01*
X159859580Y-79785714D02*
X159907200Y-79833333D01*
X159907200Y-79833333D02*
X159954819Y-79928571D01*
X159954819Y-79928571D02*
X159954819Y-80166666D01*
X159954819Y-80166666D02*
X159907200Y-80261904D01*
X159907200Y-80261904D02*
X159859580Y-80309523D01*
X194994559Y-82709996D02*
X194946940Y-82757616D01*
X194946940Y-82757616D02*
X194804083Y-82805235D01*
X194804083Y-82805235D02*
X194708845Y-82805235D01*
X194708845Y-82805235D02*
X194565988Y-82757616D01*
X194565988Y-82757616D02*
X194470750Y-82662377D01*
X194470750Y-82662377D02*
X194423131Y-82567139D01*
X194423131Y-82567139D02*
X194375512Y-82376663D01*
X194375512Y-82376663D02*
X194375512Y-82233806D01*
X194375512Y-82233806D02*
X194423131Y-82043330D01*
X194423131Y-82043330D02*
X194470750Y-81948092D01*
X194470750Y-81948092D02*
X194565988Y-81852854D01*
X194565988Y-81852854D02*
X194708845Y-81805235D01*
X194708845Y-81805235D02*
X194804083Y-81805235D01*
X194804083Y-81805235D02*
X194946940Y-81852854D01*
X194946940Y-81852854D02*
X194994559Y-81900473D01*
X195375512Y-81900473D02*
X195423131Y-81852854D01*
X195423131Y-81852854D02*
X195518369Y-81805235D01*
X195518369Y-81805235D02*
X195756464Y-81805235D01*
X195756464Y-81805235D02*
X195851702Y-81852854D01*
X195851702Y-81852854D02*
X195899321Y-81900473D01*
X195899321Y-81900473D02*
X195946940Y-81995711D01*
X195946940Y-81995711D02*
X195946940Y-82090949D01*
X195946940Y-82090949D02*
X195899321Y-82233806D01*
X195899321Y-82233806D02*
X195327893Y-82805235D01*
X195327893Y-82805235D02*
X195946940Y-82805235D01*
X186488333Y-88519580D02*
X186440714Y-88567200D01*
X186440714Y-88567200D02*
X186297857Y-88614819D01*
X186297857Y-88614819D02*
X186202619Y-88614819D01*
X186202619Y-88614819D02*
X186059762Y-88567200D01*
X186059762Y-88567200D02*
X185964524Y-88471961D01*
X185964524Y-88471961D02*
X185916905Y-88376723D01*
X185916905Y-88376723D02*
X185869286Y-88186247D01*
X185869286Y-88186247D02*
X185869286Y-88043390D01*
X185869286Y-88043390D02*
X185916905Y-87852914D01*
X185916905Y-87852914D02*
X185964524Y-87757676D01*
X185964524Y-87757676D02*
X186059762Y-87662438D01*
X186059762Y-87662438D02*
X186202619Y-87614819D01*
X186202619Y-87614819D02*
X186297857Y-87614819D01*
X186297857Y-87614819D02*
X186440714Y-87662438D01*
X186440714Y-87662438D02*
X186488333Y-87710057D01*
X186821667Y-87614819D02*
X187488333Y-87614819D01*
X187488333Y-87614819D02*
X187059762Y-88614819D01*
X186476190Y-88954819D02*
X187142856Y-89954819D01*
X187142856Y-88954819D02*
X186476190Y-89954819D01*
X187380952Y-88954819D02*
X187952380Y-88954819D01*
X187666666Y-89954819D02*
X187666666Y-88954819D01*
X188238095Y-89669104D02*
X188714285Y-89669104D01*
X188142857Y-89954819D02*
X188476190Y-88954819D01*
X188476190Y-88954819D02*
X188809523Y-89954819D01*
X189619047Y-89954819D02*
X189142857Y-89954819D01*
X189142857Y-89954819D02*
X189142857Y-88954819D01*
X190476190Y-89954819D02*
X189904762Y-89954819D01*
X190190476Y-89954819D02*
X190190476Y-88954819D01*
X190190476Y-88954819D02*
X190095238Y-89097676D01*
X190095238Y-89097676D02*
X190000000Y-89192914D01*
X190000000Y-89192914D02*
X189904762Y-89240533D01*
X186574300Y-89591219D02*
X186574300Y-89829314D01*
X186336205Y-89734076D02*
X186574300Y-89829314D01*
X186574300Y-89829314D02*
X186812395Y-89734076D01*
X186431443Y-90019790D02*
X186574300Y-89829314D01*
X186574300Y-89829314D02*
X186717157Y-90019790D01*
X186574300Y-89591219D02*
X186574300Y-89829314D01*
X186336205Y-89734076D02*
X186574300Y-89829314D01*
X186574300Y-89829314D02*
X186812395Y-89734076D01*
X186431443Y-90019790D02*
X186574300Y-89829314D01*
X186574300Y-89829314D02*
X186717157Y-90019790D01*
X184357142Y-92519580D02*
X184309523Y-92567200D01*
X184309523Y-92567200D02*
X184166666Y-92614819D01*
X184166666Y-92614819D02*
X184071428Y-92614819D01*
X184071428Y-92614819D02*
X183928571Y-92567200D01*
X183928571Y-92567200D02*
X183833333Y-92471961D01*
X183833333Y-92471961D02*
X183785714Y-92376723D01*
X183785714Y-92376723D02*
X183738095Y-92186247D01*
X183738095Y-92186247D02*
X183738095Y-92043390D01*
X183738095Y-92043390D02*
X183785714Y-91852914D01*
X183785714Y-91852914D02*
X183833333Y-91757676D01*
X183833333Y-91757676D02*
X183928571Y-91662438D01*
X183928571Y-91662438D02*
X184071428Y-91614819D01*
X184071428Y-91614819D02*
X184166666Y-91614819D01*
X184166666Y-91614819D02*
X184309523Y-91662438D01*
X184309523Y-91662438D02*
X184357142Y-91710057D01*
X184738095Y-91710057D02*
X184785714Y-91662438D01*
X184785714Y-91662438D02*
X184880952Y-91614819D01*
X184880952Y-91614819D02*
X185119047Y-91614819D01*
X185119047Y-91614819D02*
X185214285Y-91662438D01*
X185214285Y-91662438D02*
X185261904Y-91710057D01*
X185261904Y-91710057D02*
X185309523Y-91805295D01*
X185309523Y-91805295D02*
X185309523Y-91900533D01*
X185309523Y-91900533D02*
X185261904Y-92043390D01*
X185261904Y-92043390D02*
X184690476Y-92614819D01*
X184690476Y-92614819D02*
X185309523Y-92614819D01*
X186166666Y-91948152D02*
X186166666Y-92614819D01*
X185928571Y-91567200D02*
X185690476Y-92281485D01*
X185690476Y-92281485D02*
X186309523Y-92281485D01*
D11*
X159988290Y-86333084D02*
X159988290Y-86464317D01*
X160194514Y-86464317D02*
X159800813Y-86464317D01*
X159800813Y-86464317D02*
X159800813Y-86276841D01*
X159988290Y-85995626D02*
X160007038Y-85939383D01*
X160007038Y-85939383D02*
X160025785Y-85920635D01*
X160025785Y-85920635D02*
X160063281Y-85901887D01*
X160063281Y-85901887D02*
X160119524Y-85901887D01*
X160119524Y-85901887D02*
X160157019Y-85920635D01*
X160157019Y-85920635D02*
X160175767Y-85939383D01*
X160175767Y-85939383D02*
X160194514Y-85976878D01*
X160194514Y-85976878D02*
X160194514Y-86126859D01*
X160194514Y-86126859D02*
X159800813Y-86126859D01*
X159800813Y-86126859D02*
X159800813Y-85995626D01*
X159800813Y-85995626D02*
X159819561Y-85958130D01*
X159819561Y-85958130D02*
X159838309Y-85939383D01*
X159838309Y-85939383D02*
X159875804Y-85920635D01*
X159875804Y-85920635D02*
X159913299Y-85920635D01*
X159913299Y-85920635D02*
X159950795Y-85939383D01*
X159950795Y-85939383D02*
X159969542Y-85958130D01*
X159969542Y-85958130D02*
X159988290Y-85995626D01*
X159988290Y-85995626D02*
X159988290Y-86126859D01*
X159838309Y-85751906D02*
X159819561Y-85733158D01*
X159819561Y-85733158D02*
X159800813Y-85695663D01*
X159800813Y-85695663D02*
X159800813Y-85601925D01*
X159800813Y-85601925D02*
X159819561Y-85564429D01*
X159819561Y-85564429D02*
X159838309Y-85545682D01*
X159838309Y-85545682D02*
X159875804Y-85526934D01*
X159875804Y-85526934D02*
X159913299Y-85526934D01*
X159913299Y-85526934D02*
X159969542Y-85545682D01*
X159969542Y-85545682D02*
X160194514Y-85770654D01*
X160194514Y-85770654D02*
X160194514Y-85526934D01*
D10*
X163269642Y-92804819D02*
X162936309Y-92328628D01*
X162698214Y-92804819D02*
X162698214Y-91804819D01*
X162698214Y-91804819D02*
X163079166Y-91804819D01*
X163079166Y-91804819D02*
X163174404Y-91852438D01*
X163174404Y-91852438D02*
X163222023Y-91900057D01*
X163222023Y-91900057D02*
X163269642Y-91995295D01*
X163269642Y-91995295D02*
X163269642Y-92138152D01*
X163269642Y-92138152D02*
X163222023Y-92233390D01*
X163222023Y-92233390D02*
X163174404Y-92281009D01*
X163174404Y-92281009D02*
X163079166Y-92328628D01*
X163079166Y-92328628D02*
X162698214Y-92328628D01*
X164222023Y-92804819D02*
X163650595Y-92804819D01*
X163936309Y-92804819D02*
X163936309Y-91804819D01*
X163936309Y-91804819D02*
X163841071Y-91947676D01*
X163841071Y-91947676D02*
X163745833Y-92042914D01*
X163745833Y-92042914D02*
X163650595Y-92090533D01*
X164602976Y-91900057D02*
X164650595Y-91852438D01*
X164650595Y-91852438D02*
X164745833Y-91804819D01*
X164745833Y-91804819D02*
X164983928Y-91804819D01*
X164983928Y-91804819D02*
X165079166Y-91852438D01*
X165079166Y-91852438D02*
X165126785Y-91900057D01*
X165126785Y-91900057D02*
X165174404Y-91995295D01*
X165174404Y-91995295D02*
X165174404Y-92090533D01*
X165174404Y-92090533D02*
X165126785Y-92233390D01*
X165126785Y-92233390D02*
X164555357Y-92804819D01*
X164555357Y-92804819D02*
X165174404Y-92804819D01*
X196702142Y-78359580D02*
X196654523Y-78407200D01*
X196654523Y-78407200D02*
X196511666Y-78454819D01*
X196511666Y-78454819D02*
X196416428Y-78454819D01*
X196416428Y-78454819D02*
X196273571Y-78407200D01*
X196273571Y-78407200D02*
X196178333Y-78311961D01*
X196178333Y-78311961D02*
X196130714Y-78216723D01*
X196130714Y-78216723D02*
X196083095Y-78026247D01*
X196083095Y-78026247D02*
X196083095Y-77883390D01*
X196083095Y-77883390D02*
X196130714Y-77692914D01*
X196130714Y-77692914D02*
X196178333Y-77597676D01*
X196178333Y-77597676D02*
X196273571Y-77502438D01*
X196273571Y-77502438D02*
X196416428Y-77454819D01*
X196416428Y-77454819D02*
X196511666Y-77454819D01*
X196511666Y-77454819D02*
X196654523Y-77502438D01*
X196654523Y-77502438D02*
X196702142Y-77550057D01*
X197083095Y-77550057D02*
X197130714Y-77502438D01*
X197130714Y-77502438D02*
X197225952Y-77454819D01*
X197225952Y-77454819D02*
X197464047Y-77454819D01*
X197464047Y-77454819D02*
X197559285Y-77502438D01*
X197559285Y-77502438D02*
X197606904Y-77550057D01*
X197606904Y-77550057D02*
X197654523Y-77645295D01*
X197654523Y-77645295D02*
X197654523Y-77740533D01*
X197654523Y-77740533D02*
X197606904Y-77883390D01*
X197606904Y-77883390D02*
X197035476Y-78454819D01*
X197035476Y-78454819D02*
X197654523Y-78454819D01*
X198273571Y-77454819D02*
X198368809Y-77454819D01*
X198368809Y-77454819D02*
X198464047Y-77502438D01*
X198464047Y-77502438D02*
X198511666Y-77550057D01*
X198511666Y-77550057D02*
X198559285Y-77645295D01*
X198559285Y-77645295D02*
X198606904Y-77835771D01*
X198606904Y-77835771D02*
X198606904Y-78073866D01*
X198606904Y-78073866D02*
X198559285Y-78264342D01*
X198559285Y-78264342D02*
X198511666Y-78359580D01*
X198511666Y-78359580D02*
X198464047Y-78407200D01*
X198464047Y-78407200D02*
X198368809Y-78454819D01*
X198368809Y-78454819D02*
X198273571Y-78454819D01*
X198273571Y-78454819D02*
X198178333Y-78407200D01*
X198178333Y-78407200D02*
X198130714Y-78359580D01*
X198130714Y-78359580D02*
X198083095Y-78264342D01*
X198083095Y-78264342D02*
X198035476Y-78073866D01*
X198035476Y-78073866D02*
X198035476Y-77835771D01*
X198035476Y-77835771D02*
X198083095Y-77645295D01*
X198083095Y-77645295D02*
X198130714Y-77550057D01*
X198130714Y-77550057D02*
X198178333Y-77502438D01*
X198178333Y-77502438D02*
X198273571Y-77454819D01*
X165444642Y-55304819D02*
X165111309Y-54828628D01*
X164873214Y-55304819D02*
X164873214Y-54304819D01*
X164873214Y-54304819D02*
X165254166Y-54304819D01*
X165254166Y-54304819D02*
X165349404Y-54352438D01*
X165349404Y-54352438D02*
X165397023Y-54400057D01*
X165397023Y-54400057D02*
X165444642Y-54495295D01*
X165444642Y-54495295D02*
X165444642Y-54638152D01*
X165444642Y-54638152D02*
X165397023Y-54733390D01*
X165397023Y-54733390D02*
X165349404Y-54781009D01*
X165349404Y-54781009D02*
X165254166Y-54828628D01*
X165254166Y-54828628D02*
X164873214Y-54828628D01*
X166397023Y-55304819D02*
X165825595Y-55304819D01*
X166111309Y-55304819D02*
X166111309Y-54304819D01*
X166111309Y-54304819D02*
X166016071Y-54447676D01*
X166016071Y-54447676D02*
X165920833Y-54542914D01*
X165920833Y-54542914D02*
X165825595Y-54590533D01*
X166730357Y-54304819D02*
X167349404Y-54304819D01*
X167349404Y-54304819D02*
X167016071Y-54685771D01*
X167016071Y-54685771D02*
X167158928Y-54685771D01*
X167158928Y-54685771D02*
X167254166Y-54733390D01*
X167254166Y-54733390D02*
X167301785Y-54781009D01*
X167301785Y-54781009D02*
X167349404Y-54876247D01*
X167349404Y-54876247D02*
X167349404Y-55114342D01*
X167349404Y-55114342D02*
X167301785Y-55209580D01*
X167301785Y-55209580D02*
X167254166Y-55257200D01*
X167254166Y-55257200D02*
X167158928Y-55304819D01*
X167158928Y-55304819D02*
X166873214Y-55304819D01*
X166873214Y-55304819D02*
X166777976Y-55257200D01*
X166777976Y-55257200D02*
X166730357Y-55209580D01*
X187702142Y-68864580D02*
X187654523Y-68912200D01*
X187654523Y-68912200D02*
X187511666Y-68959819D01*
X187511666Y-68959819D02*
X187416428Y-68959819D01*
X187416428Y-68959819D02*
X187273571Y-68912200D01*
X187273571Y-68912200D02*
X187178333Y-68816961D01*
X187178333Y-68816961D02*
X187130714Y-68721723D01*
X187130714Y-68721723D02*
X187083095Y-68531247D01*
X187083095Y-68531247D02*
X187083095Y-68388390D01*
X187083095Y-68388390D02*
X187130714Y-68197914D01*
X187130714Y-68197914D02*
X187178333Y-68102676D01*
X187178333Y-68102676D02*
X187273571Y-68007438D01*
X187273571Y-68007438D02*
X187416428Y-67959819D01*
X187416428Y-67959819D02*
X187511666Y-67959819D01*
X187511666Y-67959819D02*
X187654523Y-68007438D01*
X187654523Y-68007438D02*
X187702142Y-68055057D01*
X188654523Y-68959819D02*
X188083095Y-68959819D01*
X188368809Y-68959819D02*
X188368809Y-67959819D01*
X188368809Y-67959819D02*
X188273571Y-68102676D01*
X188273571Y-68102676D02*
X188178333Y-68197914D01*
X188178333Y-68197914D02*
X188083095Y-68245533D01*
X189273571Y-67959819D02*
X189368809Y-67959819D01*
X189368809Y-67959819D02*
X189464047Y-68007438D01*
X189464047Y-68007438D02*
X189511666Y-68055057D01*
X189511666Y-68055057D02*
X189559285Y-68150295D01*
X189559285Y-68150295D02*
X189606904Y-68340771D01*
X189606904Y-68340771D02*
X189606904Y-68578866D01*
X189606904Y-68578866D02*
X189559285Y-68769342D01*
X189559285Y-68769342D02*
X189511666Y-68864580D01*
X189511666Y-68864580D02*
X189464047Y-68912200D01*
X189464047Y-68912200D02*
X189368809Y-68959819D01*
X189368809Y-68959819D02*
X189273571Y-68959819D01*
X189273571Y-68959819D02*
X189178333Y-68912200D01*
X189178333Y-68912200D02*
X189130714Y-68864580D01*
X189130714Y-68864580D02*
X189083095Y-68769342D01*
X189083095Y-68769342D02*
X189035476Y-68578866D01*
X189035476Y-68578866D02*
X189035476Y-68340771D01*
X189035476Y-68340771D02*
X189083095Y-68150295D01*
X189083095Y-68150295D02*
X189130714Y-68055057D01*
X189130714Y-68055057D02*
X189178333Y-68007438D01*
X189178333Y-68007438D02*
X189273571Y-67959819D01*
X218954819Y-76261904D02*
X219764342Y-76261904D01*
X219764342Y-76261904D02*
X219859580Y-76214285D01*
X219859580Y-76214285D02*
X219907200Y-76166666D01*
X219907200Y-76166666D02*
X219954819Y-76071428D01*
X219954819Y-76071428D02*
X219954819Y-75880952D01*
X219954819Y-75880952D02*
X219907200Y-75785714D01*
X219907200Y-75785714D02*
X219859580Y-75738095D01*
X219859580Y-75738095D02*
X219764342Y-75690476D01*
X219764342Y-75690476D02*
X218954819Y-75690476D01*
X219288152Y-74785714D02*
X219954819Y-74785714D01*
X218907200Y-75023809D02*
X219621485Y-75261904D01*
X219621485Y-75261904D02*
X219621485Y-74642857D01*
X216704819Y-79487799D02*
X216942914Y-79487799D01*
X216847676Y-79725894D02*
X216942914Y-79487799D01*
X216942914Y-79487799D02*
X216847676Y-79249704D01*
X217133390Y-79630656D02*
X216942914Y-79487799D01*
X216942914Y-79487799D02*
X217133390Y-79344942D01*
X216704819Y-79487799D02*
X216942914Y-79487799D01*
X216847676Y-79725894D02*
X216942914Y-79487799D01*
X216942914Y-79487799D02*
X216847676Y-79249704D01*
X217133390Y-79630656D02*
X216942914Y-79487799D01*
X216942914Y-79487799D02*
X217133390Y-79344942D01*
X159420833Y-88804819D02*
X159087500Y-88328628D01*
X158849405Y-88804819D02*
X158849405Y-87804819D01*
X158849405Y-87804819D02*
X159230357Y-87804819D01*
X159230357Y-87804819D02*
X159325595Y-87852438D01*
X159325595Y-87852438D02*
X159373214Y-87900057D01*
X159373214Y-87900057D02*
X159420833Y-87995295D01*
X159420833Y-87995295D02*
X159420833Y-88138152D01*
X159420833Y-88138152D02*
X159373214Y-88233390D01*
X159373214Y-88233390D02*
X159325595Y-88281009D01*
X159325595Y-88281009D02*
X159230357Y-88328628D01*
X159230357Y-88328628D02*
X158849405Y-88328628D01*
X159801786Y-87900057D02*
X159849405Y-87852438D01*
X159849405Y-87852438D02*
X159944643Y-87804819D01*
X159944643Y-87804819D02*
X160182738Y-87804819D01*
X160182738Y-87804819D02*
X160277976Y-87852438D01*
X160277976Y-87852438D02*
X160325595Y-87900057D01*
X160325595Y-87900057D02*
X160373214Y-87995295D01*
X160373214Y-87995295D02*
X160373214Y-88090533D01*
X160373214Y-88090533D02*
X160325595Y-88233390D01*
X160325595Y-88233390D02*
X159754167Y-88804819D01*
X159754167Y-88804819D02*
X160373214Y-88804819D01*
X251761905Y-99454819D02*
X251761905Y-98454819D01*
X251761905Y-98454819D02*
X252000000Y-98454819D01*
X252000000Y-98454819D02*
X252142857Y-98502438D01*
X252142857Y-98502438D02*
X252238095Y-98597676D01*
X252238095Y-98597676D02*
X252285714Y-98692914D01*
X252285714Y-98692914D02*
X252333333Y-98883390D01*
X252333333Y-98883390D02*
X252333333Y-99026247D01*
X252333333Y-99026247D02*
X252285714Y-99216723D01*
X252285714Y-99216723D02*
X252238095Y-99311961D01*
X252238095Y-99311961D02*
X252142857Y-99407200D01*
X252142857Y-99407200D02*
X252000000Y-99454819D01*
X252000000Y-99454819D02*
X251761905Y-99454819D01*
X253190476Y-98788152D02*
X253190476Y-99454819D01*
X252952381Y-98407200D02*
X252714286Y-99121485D01*
X252714286Y-99121485D02*
X253333333Y-99121485D01*
X220359580Y-62142857D02*
X220407200Y-62190476D01*
X220407200Y-62190476D02*
X220454819Y-62333333D01*
X220454819Y-62333333D02*
X220454819Y-62428571D01*
X220454819Y-62428571D02*
X220407200Y-62571428D01*
X220407200Y-62571428D02*
X220311961Y-62666666D01*
X220311961Y-62666666D02*
X220216723Y-62714285D01*
X220216723Y-62714285D02*
X220026247Y-62761904D01*
X220026247Y-62761904D02*
X219883390Y-62761904D01*
X219883390Y-62761904D02*
X219692914Y-62714285D01*
X219692914Y-62714285D02*
X219597676Y-62666666D01*
X219597676Y-62666666D02*
X219502438Y-62571428D01*
X219502438Y-62571428D02*
X219454819Y-62428571D01*
X219454819Y-62428571D02*
X219454819Y-62333333D01*
X219454819Y-62333333D02*
X219502438Y-62190476D01*
X219502438Y-62190476D02*
X219550057Y-62142857D01*
X219454819Y-61809523D02*
X219454819Y-61190476D01*
X219454819Y-61190476D02*
X219835771Y-61523809D01*
X219835771Y-61523809D02*
X219835771Y-61380952D01*
X219835771Y-61380952D02*
X219883390Y-61285714D01*
X219883390Y-61285714D02*
X219931009Y-61238095D01*
X219931009Y-61238095D02*
X220026247Y-61190476D01*
X220026247Y-61190476D02*
X220264342Y-61190476D01*
X220264342Y-61190476D02*
X220359580Y-61238095D01*
X220359580Y-61238095D02*
X220407200Y-61285714D01*
X220407200Y-61285714D02*
X220454819Y-61380952D01*
X220454819Y-61380952D02*
X220454819Y-61666666D01*
X220454819Y-61666666D02*
X220407200Y-61761904D01*
X220407200Y-61761904D02*
X220359580Y-61809523D01*
X219883390Y-60619047D02*
X219835771Y-60714285D01*
X219835771Y-60714285D02*
X219788152Y-60761904D01*
X219788152Y-60761904D02*
X219692914Y-60809523D01*
X219692914Y-60809523D02*
X219645295Y-60809523D01*
X219645295Y-60809523D02*
X219550057Y-60761904D01*
X219550057Y-60761904D02*
X219502438Y-60714285D01*
X219502438Y-60714285D02*
X219454819Y-60619047D01*
X219454819Y-60619047D02*
X219454819Y-60428571D01*
X219454819Y-60428571D02*
X219502438Y-60333333D01*
X219502438Y-60333333D02*
X219550057Y-60285714D01*
X219550057Y-60285714D02*
X219645295Y-60238095D01*
X219645295Y-60238095D02*
X219692914Y-60238095D01*
X219692914Y-60238095D02*
X219788152Y-60285714D01*
X219788152Y-60285714D02*
X219835771Y-60333333D01*
X219835771Y-60333333D02*
X219883390Y-60428571D01*
X219883390Y-60428571D02*
X219883390Y-60619047D01*
X219883390Y-60619047D02*
X219931009Y-60714285D01*
X219931009Y-60714285D02*
X219978628Y-60761904D01*
X219978628Y-60761904D02*
X220073866Y-60809523D01*
X220073866Y-60809523D02*
X220264342Y-60809523D01*
X220264342Y-60809523D02*
X220359580Y-60761904D01*
X220359580Y-60761904D02*
X220407200Y-60714285D01*
X220407200Y-60714285D02*
X220454819Y-60619047D01*
X220454819Y-60619047D02*
X220454819Y-60428571D01*
X220454819Y-60428571D02*
X220407200Y-60333333D01*
X220407200Y-60333333D02*
X220359580Y-60285714D01*
X220359580Y-60285714D02*
X220264342Y-60238095D01*
X220264342Y-60238095D02*
X220073866Y-60238095D01*
X220073866Y-60238095D02*
X219978628Y-60285714D01*
X219978628Y-60285714D02*
X219931009Y-60333333D01*
X219931009Y-60333333D02*
X219883390Y-60428571D01*
X184284819Y-83676666D02*
X183808628Y-84009999D01*
X184284819Y-84248094D02*
X183284819Y-84248094D01*
X183284819Y-84248094D02*
X183284819Y-83867142D01*
X183284819Y-83867142D02*
X183332438Y-83771904D01*
X183332438Y-83771904D02*
X183380057Y-83724285D01*
X183380057Y-83724285D02*
X183475295Y-83676666D01*
X183475295Y-83676666D02*
X183618152Y-83676666D01*
X183618152Y-83676666D02*
X183713390Y-83724285D01*
X183713390Y-83724285D02*
X183761009Y-83771904D01*
X183761009Y-83771904D02*
X183808628Y-83867142D01*
X183808628Y-83867142D02*
X183808628Y-84248094D01*
X183284819Y-82819523D02*
X183284819Y-83009999D01*
X183284819Y-83009999D02*
X183332438Y-83105237D01*
X183332438Y-83105237D02*
X183380057Y-83152856D01*
X183380057Y-83152856D02*
X183522914Y-83248094D01*
X183522914Y-83248094D02*
X183713390Y-83295713D01*
X183713390Y-83295713D02*
X184094342Y-83295713D01*
X184094342Y-83295713D02*
X184189580Y-83248094D01*
X184189580Y-83248094D02*
X184237200Y-83200475D01*
X184237200Y-83200475D02*
X184284819Y-83105237D01*
X184284819Y-83105237D02*
X184284819Y-82914761D01*
X184284819Y-82914761D02*
X184237200Y-82819523D01*
X184237200Y-82819523D02*
X184189580Y-82771904D01*
X184189580Y-82771904D02*
X184094342Y-82724285D01*
X184094342Y-82724285D02*
X183856247Y-82724285D01*
X183856247Y-82724285D02*
X183761009Y-82771904D01*
X183761009Y-82771904D02*
X183713390Y-82819523D01*
X183713390Y-82819523D02*
X183665771Y-82914761D01*
X183665771Y-82914761D02*
X183665771Y-83105237D01*
X183665771Y-83105237D02*
X183713390Y-83200475D01*
X183713390Y-83200475D02*
X183761009Y-83248094D01*
X183761009Y-83248094D02*
X183856247Y-83295713D01*
X193199580Y-70297857D02*
X193247200Y-70345476D01*
X193247200Y-70345476D02*
X193294819Y-70488333D01*
X193294819Y-70488333D02*
X193294819Y-70583571D01*
X193294819Y-70583571D02*
X193247200Y-70726428D01*
X193247200Y-70726428D02*
X193151961Y-70821666D01*
X193151961Y-70821666D02*
X193056723Y-70869285D01*
X193056723Y-70869285D02*
X192866247Y-70916904D01*
X192866247Y-70916904D02*
X192723390Y-70916904D01*
X192723390Y-70916904D02*
X192532914Y-70869285D01*
X192532914Y-70869285D02*
X192437676Y-70821666D01*
X192437676Y-70821666D02*
X192342438Y-70726428D01*
X192342438Y-70726428D02*
X192294819Y-70583571D01*
X192294819Y-70583571D02*
X192294819Y-70488333D01*
X192294819Y-70488333D02*
X192342438Y-70345476D01*
X192342438Y-70345476D02*
X192390057Y-70297857D01*
X193294819Y-69345476D02*
X193294819Y-69916904D01*
X193294819Y-69631190D02*
X192294819Y-69631190D01*
X192294819Y-69631190D02*
X192437676Y-69726428D01*
X192437676Y-69726428D02*
X192532914Y-69821666D01*
X192532914Y-69821666D02*
X192580533Y-69916904D01*
X192294819Y-68440714D02*
X192294819Y-68916904D01*
X192294819Y-68916904D02*
X192771009Y-68964523D01*
X192771009Y-68964523D02*
X192723390Y-68916904D01*
X192723390Y-68916904D02*
X192675771Y-68821666D01*
X192675771Y-68821666D02*
X192675771Y-68583571D01*
X192675771Y-68583571D02*
X192723390Y-68488333D01*
X192723390Y-68488333D02*
X192771009Y-68440714D01*
X192771009Y-68440714D02*
X192866247Y-68393095D01*
X192866247Y-68393095D02*
X193104342Y-68393095D01*
X193104342Y-68393095D02*
X193199580Y-68440714D01*
X193199580Y-68440714D02*
X193247200Y-68488333D01*
X193247200Y-68488333D02*
X193294819Y-68583571D01*
X193294819Y-68583571D02*
X193294819Y-68821666D01*
X193294819Y-68821666D02*
X193247200Y-68916904D01*
X193247200Y-68916904D02*
X193199580Y-68964523D01*
X250357142Y-88804819D02*
X250023809Y-88328628D01*
X249785714Y-88804819D02*
X249785714Y-87804819D01*
X249785714Y-87804819D02*
X250166666Y-87804819D01*
X250166666Y-87804819D02*
X250261904Y-87852438D01*
X250261904Y-87852438D02*
X250309523Y-87900057D01*
X250309523Y-87900057D02*
X250357142Y-87995295D01*
X250357142Y-87995295D02*
X250357142Y-88138152D01*
X250357142Y-88138152D02*
X250309523Y-88233390D01*
X250309523Y-88233390D02*
X250261904Y-88281009D01*
X250261904Y-88281009D02*
X250166666Y-88328628D01*
X250166666Y-88328628D02*
X249785714Y-88328628D01*
X250738095Y-87900057D02*
X250785714Y-87852438D01*
X250785714Y-87852438D02*
X250880952Y-87804819D01*
X250880952Y-87804819D02*
X251119047Y-87804819D01*
X251119047Y-87804819D02*
X251214285Y-87852438D01*
X251214285Y-87852438D02*
X251261904Y-87900057D01*
X251261904Y-87900057D02*
X251309523Y-87995295D01*
X251309523Y-87995295D02*
X251309523Y-88090533D01*
X251309523Y-88090533D02*
X251261904Y-88233390D01*
X251261904Y-88233390D02*
X250690476Y-88804819D01*
X250690476Y-88804819D02*
X251309523Y-88804819D01*
X252166666Y-87804819D02*
X251976190Y-87804819D01*
X251976190Y-87804819D02*
X251880952Y-87852438D01*
X251880952Y-87852438D02*
X251833333Y-87900057D01*
X251833333Y-87900057D02*
X251738095Y-88042914D01*
X251738095Y-88042914D02*
X251690476Y-88233390D01*
X251690476Y-88233390D02*
X251690476Y-88614342D01*
X251690476Y-88614342D02*
X251738095Y-88709580D01*
X251738095Y-88709580D02*
X251785714Y-88757200D01*
X251785714Y-88757200D02*
X251880952Y-88804819D01*
X251880952Y-88804819D02*
X252071428Y-88804819D01*
X252071428Y-88804819D02*
X252166666Y-88757200D01*
X252166666Y-88757200D02*
X252214285Y-88709580D01*
X252214285Y-88709580D02*
X252261904Y-88614342D01*
X252261904Y-88614342D02*
X252261904Y-88376247D01*
X252261904Y-88376247D02*
X252214285Y-88281009D01*
X252214285Y-88281009D02*
X252166666Y-88233390D01*
X252166666Y-88233390D02*
X252071428Y-88185771D01*
X252071428Y-88185771D02*
X251880952Y-88185771D01*
X251880952Y-88185771D02*
X251785714Y-88233390D01*
X251785714Y-88233390D02*
X251738095Y-88281009D01*
X251738095Y-88281009D02*
X251690476Y-88376247D01*
X245357142Y-97954819D02*
X245023809Y-97478628D01*
X244785714Y-97954819D02*
X244785714Y-96954819D01*
X244785714Y-96954819D02*
X245166666Y-96954819D01*
X245166666Y-96954819D02*
X245261904Y-97002438D01*
X245261904Y-97002438D02*
X245309523Y-97050057D01*
X245309523Y-97050057D02*
X245357142Y-97145295D01*
X245357142Y-97145295D02*
X245357142Y-97288152D01*
X245357142Y-97288152D02*
X245309523Y-97383390D01*
X245309523Y-97383390D02*
X245261904Y-97431009D01*
X245261904Y-97431009D02*
X245166666Y-97478628D01*
X245166666Y-97478628D02*
X244785714Y-97478628D01*
X245738095Y-97050057D02*
X245785714Y-97002438D01*
X245785714Y-97002438D02*
X245880952Y-96954819D01*
X245880952Y-96954819D02*
X246119047Y-96954819D01*
X246119047Y-96954819D02*
X246214285Y-97002438D01*
X246214285Y-97002438D02*
X246261904Y-97050057D01*
X246261904Y-97050057D02*
X246309523Y-97145295D01*
X246309523Y-97145295D02*
X246309523Y-97240533D01*
X246309523Y-97240533D02*
X246261904Y-97383390D01*
X246261904Y-97383390D02*
X245690476Y-97954819D01*
X245690476Y-97954819D02*
X246309523Y-97954819D01*
X246642857Y-96954819D02*
X247261904Y-96954819D01*
X247261904Y-96954819D02*
X246928571Y-97335771D01*
X246928571Y-97335771D02*
X247071428Y-97335771D01*
X247071428Y-97335771D02*
X247166666Y-97383390D01*
X247166666Y-97383390D02*
X247214285Y-97431009D01*
X247214285Y-97431009D02*
X247261904Y-97526247D01*
X247261904Y-97526247D02*
X247261904Y-97764342D01*
X247261904Y-97764342D02*
X247214285Y-97859580D01*
X247214285Y-97859580D02*
X247166666Y-97907200D01*
X247166666Y-97907200D02*
X247071428Y-97954819D01*
X247071428Y-97954819D02*
X246785714Y-97954819D01*
X246785714Y-97954819D02*
X246690476Y-97907200D01*
X246690476Y-97907200D02*
X246642857Y-97859580D01*
X187519580Y-84987857D02*
X187567200Y-85035476D01*
X187567200Y-85035476D02*
X187614819Y-85178333D01*
X187614819Y-85178333D02*
X187614819Y-85273571D01*
X187614819Y-85273571D02*
X187567200Y-85416428D01*
X187567200Y-85416428D02*
X187471961Y-85511666D01*
X187471961Y-85511666D02*
X187376723Y-85559285D01*
X187376723Y-85559285D02*
X187186247Y-85606904D01*
X187186247Y-85606904D02*
X187043390Y-85606904D01*
X187043390Y-85606904D02*
X186852914Y-85559285D01*
X186852914Y-85559285D02*
X186757676Y-85511666D01*
X186757676Y-85511666D02*
X186662438Y-85416428D01*
X186662438Y-85416428D02*
X186614819Y-85273571D01*
X186614819Y-85273571D02*
X186614819Y-85178333D01*
X186614819Y-85178333D02*
X186662438Y-85035476D01*
X186662438Y-85035476D02*
X186710057Y-84987857D01*
X186710057Y-84606904D02*
X186662438Y-84559285D01*
X186662438Y-84559285D02*
X186614819Y-84464047D01*
X186614819Y-84464047D02*
X186614819Y-84225952D01*
X186614819Y-84225952D02*
X186662438Y-84130714D01*
X186662438Y-84130714D02*
X186710057Y-84083095D01*
X186710057Y-84083095D02*
X186805295Y-84035476D01*
X186805295Y-84035476D02*
X186900533Y-84035476D01*
X186900533Y-84035476D02*
X187043390Y-84083095D01*
X187043390Y-84083095D02*
X187614819Y-84654523D01*
X187614819Y-84654523D02*
X187614819Y-84035476D01*
X186710057Y-83654523D02*
X186662438Y-83606904D01*
X186662438Y-83606904D02*
X186614819Y-83511666D01*
X186614819Y-83511666D02*
X186614819Y-83273571D01*
X186614819Y-83273571D02*
X186662438Y-83178333D01*
X186662438Y-83178333D02*
X186710057Y-83130714D01*
X186710057Y-83130714D02*
X186805295Y-83083095D01*
X186805295Y-83083095D02*
X186900533Y-83083095D01*
X186900533Y-83083095D02*
X187043390Y-83130714D01*
X187043390Y-83130714D02*
X187614819Y-83702142D01*
X187614819Y-83702142D02*
X187614819Y-83083095D01*
X173951904Y-58355180D02*
X173951904Y-57545657D01*
X173951904Y-57545657D02*
X173904285Y-57450419D01*
X173904285Y-57450419D02*
X173856666Y-57402800D01*
X173856666Y-57402800D02*
X173761428Y-57355180D01*
X173761428Y-57355180D02*
X173570952Y-57355180D01*
X173570952Y-57355180D02*
X173475714Y-57402800D01*
X173475714Y-57402800D02*
X173428095Y-57450419D01*
X173428095Y-57450419D02*
X173380476Y-57545657D01*
X173380476Y-57545657D02*
X173380476Y-58355180D01*
X172999523Y-58355180D02*
X172380476Y-58355180D01*
X172380476Y-58355180D02*
X172713809Y-57974228D01*
X172713809Y-57974228D02*
X172570952Y-57974228D01*
X172570952Y-57974228D02*
X172475714Y-57926609D01*
X172475714Y-57926609D02*
X172428095Y-57878990D01*
X172428095Y-57878990D02*
X172380476Y-57783752D01*
X172380476Y-57783752D02*
X172380476Y-57545657D01*
X172380476Y-57545657D02*
X172428095Y-57450419D01*
X172428095Y-57450419D02*
X172475714Y-57402800D01*
X172475714Y-57402800D02*
X172570952Y-57355180D01*
X172570952Y-57355180D02*
X172856666Y-57355180D01*
X172856666Y-57355180D02*
X172951904Y-57402800D01*
X172951904Y-57402800D02*
X172999523Y-57450419D01*
X176999999Y-63676480D02*
X176999999Y-63438385D01*
X177238094Y-63533623D02*
X176999999Y-63438385D01*
X176999999Y-63438385D02*
X176761904Y-63533623D01*
X177142856Y-63247909D02*
X176999999Y-63438385D01*
X176999999Y-63438385D02*
X176857142Y-63247909D01*
X177000000Y-62586119D02*
X177000000Y-62824214D01*
X176761905Y-62728976D02*
X177000000Y-62824214D01*
X177000000Y-62824214D02*
X177238095Y-62728976D01*
X176857143Y-63014690D02*
X177000000Y-62824214D01*
X177000000Y-62824214D02*
X177142857Y-63014690D01*
X167769642Y-92804819D02*
X167436309Y-92328628D01*
X167198214Y-92804819D02*
X167198214Y-91804819D01*
X167198214Y-91804819D02*
X167579166Y-91804819D01*
X167579166Y-91804819D02*
X167674404Y-91852438D01*
X167674404Y-91852438D02*
X167722023Y-91900057D01*
X167722023Y-91900057D02*
X167769642Y-91995295D01*
X167769642Y-91995295D02*
X167769642Y-92138152D01*
X167769642Y-92138152D02*
X167722023Y-92233390D01*
X167722023Y-92233390D02*
X167674404Y-92281009D01*
X167674404Y-92281009D02*
X167579166Y-92328628D01*
X167579166Y-92328628D02*
X167198214Y-92328628D01*
X168722023Y-92804819D02*
X168150595Y-92804819D01*
X168436309Y-92804819D02*
X168436309Y-91804819D01*
X168436309Y-91804819D02*
X168341071Y-91947676D01*
X168341071Y-91947676D02*
X168245833Y-92042914D01*
X168245833Y-92042914D02*
X168150595Y-92090533D01*
X169674404Y-92804819D02*
X169102976Y-92804819D01*
X169388690Y-92804819D02*
X169388690Y-91804819D01*
X169388690Y-91804819D02*
X169293452Y-91947676D01*
X169293452Y-91947676D02*
X169198214Y-92042914D01*
X169198214Y-92042914D02*
X169102976Y-92090533D01*
X185019580Y-84321666D02*
X185067200Y-84369285D01*
X185067200Y-84369285D02*
X185114819Y-84512142D01*
X185114819Y-84512142D02*
X185114819Y-84607380D01*
X185114819Y-84607380D02*
X185067200Y-84750237D01*
X185067200Y-84750237D02*
X184971961Y-84845475D01*
X184971961Y-84845475D02*
X184876723Y-84893094D01*
X184876723Y-84893094D02*
X184686247Y-84940713D01*
X184686247Y-84940713D02*
X184543390Y-84940713D01*
X184543390Y-84940713D02*
X184352914Y-84893094D01*
X184352914Y-84893094D02*
X184257676Y-84845475D01*
X184257676Y-84845475D02*
X184162438Y-84750237D01*
X184162438Y-84750237D02*
X184114819Y-84607380D01*
X184114819Y-84607380D02*
X184114819Y-84512142D01*
X184114819Y-84512142D02*
X184162438Y-84369285D01*
X184162438Y-84369285D02*
X184210057Y-84321666D01*
X185114819Y-83369285D02*
X185114819Y-83940713D01*
X185114819Y-83654999D02*
X184114819Y-83654999D01*
X184114819Y-83654999D02*
X184257676Y-83750237D01*
X184257676Y-83750237D02*
X184352914Y-83845475D01*
X184352914Y-83845475D02*
X184400533Y-83940713D01*
X232202142Y-78465980D02*
X232154523Y-78513600D01*
X232154523Y-78513600D02*
X232011666Y-78561219D01*
X232011666Y-78561219D02*
X231916428Y-78561219D01*
X231916428Y-78561219D02*
X231773571Y-78513600D01*
X231773571Y-78513600D02*
X231678333Y-78418361D01*
X231678333Y-78418361D02*
X231630714Y-78323123D01*
X231630714Y-78323123D02*
X231583095Y-78132647D01*
X231583095Y-78132647D02*
X231583095Y-77989790D01*
X231583095Y-77989790D02*
X231630714Y-77799314D01*
X231630714Y-77799314D02*
X231678333Y-77704076D01*
X231678333Y-77704076D02*
X231773571Y-77608838D01*
X231773571Y-77608838D02*
X231916428Y-77561219D01*
X231916428Y-77561219D02*
X232011666Y-77561219D01*
X232011666Y-77561219D02*
X232154523Y-77608838D01*
X232154523Y-77608838D02*
X232202142Y-77656457D01*
X232583095Y-77656457D02*
X232630714Y-77608838D01*
X232630714Y-77608838D02*
X232725952Y-77561219D01*
X232725952Y-77561219D02*
X232964047Y-77561219D01*
X232964047Y-77561219D02*
X233059285Y-77608838D01*
X233059285Y-77608838D02*
X233106904Y-77656457D01*
X233106904Y-77656457D02*
X233154523Y-77751695D01*
X233154523Y-77751695D02*
X233154523Y-77846933D01*
X233154523Y-77846933D02*
X233106904Y-77989790D01*
X233106904Y-77989790D02*
X232535476Y-78561219D01*
X232535476Y-78561219D02*
X233154523Y-78561219D01*
X233725952Y-77989790D02*
X233630714Y-77942171D01*
X233630714Y-77942171D02*
X233583095Y-77894552D01*
X233583095Y-77894552D02*
X233535476Y-77799314D01*
X233535476Y-77799314D02*
X233535476Y-77751695D01*
X233535476Y-77751695D02*
X233583095Y-77656457D01*
X233583095Y-77656457D02*
X233630714Y-77608838D01*
X233630714Y-77608838D02*
X233725952Y-77561219D01*
X233725952Y-77561219D02*
X233916428Y-77561219D01*
X233916428Y-77561219D02*
X234011666Y-77608838D01*
X234011666Y-77608838D02*
X234059285Y-77656457D01*
X234059285Y-77656457D02*
X234106904Y-77751695D01*
X234106904Y-77751695D02*
X234106904Y-77799314D01*
X234106904Y-77799314D02*
X234059285Y-77894552D01*
X234059285Y-77894552D02*
X234011666Y-77942171D01*
X234011666Y-77942171D02*
X233916428Y-77989790D01*
X233916428Y-77989790D02*
X233725952Y-77989790D01*
X233725952Y-77989790D02*
X233630714Y-78037409D01*
X233630714Y-78037409D02*
X233583095Y-78085028D01*
X233583095Y-78085028D02*
X233535476Y-78180266D01*
X233535476Y-78180266D02*
X233535476Y-78370742D01*
X233535476Y-78370742D02*
X233583095Y-78465980D01*
X233583095Y-78465980D02*
X233630714Y-78513600D01*
X233630714Y-78513600D02*
X233725952Y-78561219D01*
X233725952Y-78561219D02*
X233916428Y-78561219D01*
X233916428Y-78561219D02*
X234011666Y-78513600D01*
X234011666Y-78513600D02*
X234059285Y-78465980D01*
X234059285Y-78465980D02*
X234106904Y-78370742D01*
X234106904Y-78370742D02*
X234106904Y-78180266D01*
X234106904Y-78180266D02*
X234059285Y-78085028D01*
X234059285Y-78085028D02*
X234011666Y-78037409D01*
X234011666Y-78037409D02*
X233916428Y-77989790D01*
X167519580Y-64642857D02*
X167567200Y-64690476D01*
X167567200Y-64690476D02*
X167614819Y-64833333D01*
X167614819Y-64833333D02*
X167614819Y-64928571D01*
X167614819Y-64928571D02*
X167567200Y-65071428D01*
X167567200Y-65071428D02*
X167471961Y-65166666D01*
X167471961Y-65166666D02*
X167376723Y-65214285D01*
X167376723Y-65214285D02*
X167186247Y-65261904D01*
X167186247Y-65261904D02*
X167043390Y-65261904D01*
X167043390Y-65261904D02*
X166852914Y-65214285D01*
X166852914Y-65214285D02*
X166757676Y-65166666D01*
X166757676Y-65166666D02*
X166662438Y-65071428D01*
X166662438Y-65071428D02*
X166614819Y-64928571D01*
X166614819Y-64928571D02*
X166614819Y-64833333D01*
X166614819Y-64833333D02*
X166662438Y-64690476D01*
X166662438Y-64690476D02*
X166710057Y-64642857D01*
X166710057Y-64261904D02*
X166662438Y-64214285D01*
X166662438Y-64214285D02*
X166614819Y-64119047D01*
X166614819Y-64119047D02*
X166614819Y-63880952D01*
X166614819Y-63880952D02*
X166662438Y-63785714D01*
X166662438Y-63785714D02*
X166710057Y-63738095D01*
X166710057Y-63738095D02*
X166805295Y-63690476D01*
X166805295Y-63690476D02*
X166900533Y-63690476D01*
X166900533Y-63690476D02*
X167043390Y-63738095D01*
X167043390Y-63738095D02*
X167614819Y-64309523D01*
X167614819Y-64309523D02*
X167614819Y-63690476D01*
X166614819Y-63357142D02*
X166614819Y-62738095D01*
X166614819Y-62738095D02*
X166995771Y-63071428D01*
X166995771Y-63071428D02*
X166995771Y-62928571D01*
X166995771Y-62928571D02*
X167043390Y-62833333D01*
X167043390Y-62833333D02*
X167091009Y-62785714D01*
X167091009Y-62785714D02*
X167186247Y-62738095D01*
X167186247Y-62738095D02*
X167424342Y-62738095D01*
X167424342Y-62738095D02*
X167519580Y-62785714D01*
X167519580Y-62785714D02*
X167567200Y-62833333D01*
X167567200Y-62833333D02*
X167614819Y-62928571D01*
X167614819Y-62928571D02*
X167614819Y-63214285D01*
X167614819Y-63214285D02*
X167567200Y-63309523D01*
X167567200Y-63309523D02*
X167519580Y-63357142D01*
X170745833Y-85304819D02*
X170412500Y-84828628D01*
X170174405Y-85304819D02*
X170174405Y-84304819D01*
X170174405Y-84304819D02*
X170555357Y-84304819D01*
X170555357Y-84304819D02*
X170650595Y-84352438D01*
X170650595Y-84352438D02*
X170698214Y-84400057D01*
X170698214Y-84400057D02*
X170745833Y-84495295D01*
X170745833Y-84495295D02*
X170745833Y-84638152D01*
X170745833Y-84638152D02*
X170698214Y-84733390D01*
X170698214Y-84733390D02*
X170650595Y-84781009D01*
X170650595Y-84781009D02*
X170555357Y-84828628D01*
X170555357Y-84828628D02*
X170174405Y-84828628D01*
X171222024Y-85304819D02*
X171412500Y-85304819D01*
X171412500Y-85304819D02*
X171507738Y-85257200D01*
X171507738Y-85257200D02*
X171555357Y-85209580D01*
X171555357Y-85209580D02*
X171650595Y-85066723D01*
X171650595Y-85066723D02*
X171698214Y-84876247D01*
X171698214Y-84876247D02*
X171698214Y-84495295D01*
X171698214Y-84495295D02*
X171650595Y-84400057D01*
X171650595Y-84400057D02*
X171602976Y-84352438D01*
X171602976Y-84352438D02*
X171507738Y-84304819D01*
X171507738Y-84304819D02*
X171317262Y-84304819D01*
X171317262Y-84304819D02*
X171222024Y-84352438D01*
X171222024Y-84352438D02*
X171174405Y-84400057D01*
X171174405Y-84400057D02*
X171126786Y-84495295D01*
X171126786Y-84495295D02*
X171126786Y-84733390D01*
X171126786Y-84733390D02*
X171174405Y-84828628D01*
X171174405Y-84828628D02*
X171222024Y-84876247D01*
X171222024Y-84876247D02*
X171317262Y-84923866D01*
X171317262Y-84923866D02*
X171507738Y-84923866D01*
X171507738Y-84923866D02*
X171602976Y-84876247D01*
X171602976Y-84876247D02*
X171650595Y-84828628D01*
X171650595Y-84828628D02*
X171698214Y-84733390D01*
X224359580Y-56142857D02*
X224407200Y-56190476D01*
X224407200Y-56190476D02*
X224454819Y-56333333D01*
X224454819Y-56333333D02*
X224454819Y-56428571D01*
X224454819Y-56428571D02*
X224407200Y-56571428D01*
X224407200Y-56571428D02*
X224311961Y-56666666D01*
X224311961Y-56666666D02*
X224216723Y-56714285D01*
X224216723Y-56714285D02*
X224026247Y-56761904D01*
X224026247Y-56761904D02*
X223883390Y-56761904D01*
X223883390Y-56761904D02*
X223692914Y-56714285D01*
X223692914Y-56714285D02*
X223597676Y-56666666D01*
X223597676Y-56666666D02*
X223502438Y-56571428D01*
X223502438Y-56571428D02*
X223454819Y-56428571D01*
X223454819Y-56428571D02*
X223454819Y-56333333D01*
X223454819Y-56333333D02*
X223502438Y-56190476D01*
X223502438Y-56190476D02*
X223550057Y-56142857D01*
X223454819Y-55809523D02*
X223454819Y-55190476D01*
X223454819Y-55190476D02*
X223835771Y-55523809D01*
X223835771Y-55523809D02*
X223835771Y-55380952D01*
X223835771Y-55380952D02*
X223883390Y-55285714D01*
X223883390Y-55285714D02*
X223931009Y-55238095D01*
X223931009Y-55238095D02*
X224026247Y-55190476D01*
X224026247Y-55190476D02*
X224264342Y-55190476D01*
X224264342Y-55190476D02*
X224359580Y-55238095D01*
X224359580Y-55238095D02*
X224407200Y-55285714D01*
X224407200Y-55285714D02*
X224454819Y-55380952D01*
X224454819Y-55380952D02*
X224454819Y-55666666D01*
X224454819Y-55666666D02*
X224407200Y-55761904D01*
X224407200Y-55761904D02*
X224359580Y-55809523D01*
X224454819Y-54238095D02*
X224454819Y-54809523D01*
X224454819Y-54523809D02*
X223454819Y-54523809D01*
X223454819Y-54523809D02*
X223597676Y-54619047D01*
X223597676Y-54619047D02*
X223692914Y-54714285D01*
X223692914Y-54714285D02*
X223740533Y-54809523D01*
X190859580Y-55642857D02*
X190907200Y-55690476D01*
X190907200Y-55690476D02*
X190954819Y-55833333D01*
X190954819Y-55833333D02*
X190954819Y-55928571D01*
X190954819Y-55928571D02*
X190907200Y-56071428D01*
X190907200Y-56071428D02*
X190811961Y-56166666D01*
X190811961Y-56166666D02*
X190716723Y-56214285D01*
X190716723Y-56214285D02*
X190526247Y-56261904D01*
X190526247Y-56261904D02*
X190383390Y-56261904D01*
X190383390Y-56261904D02*
X190192914Y-56214285D01*
X190192914Y-56214285D02*
X190097676Y-56166666D01*
X190097676Y-56166666D02*
X190002438Y-56071428D01*
X190002438Y-56071428D02*
X189954819Y-55928571D01*
X189954819Y-55928571D02*
X189954819Y-55833333D01*
X189954819Y-55833333D02*
X190002438Y-55690476D01*
X190002438Y-55690476D02*
X190050057Y-55642857D01*
X190954819Y-54690476D02*
X190954819Y-55261904D01*
X190954819Y-54976190D02*
X189954819Y-54976190D01*
X189954819Y-54976190D02*
X190097676Y-55071428D01*
X190097676Y-55071428D02*
X190192914Y-55166666D01*
X190192914Y-55166666D02*
X190240533Y-55261904D01*
X190954819Y-54214285D02*
X190954819Y-54023809D01*
X190954819Y-54023809D02*
X190907200Y-53928571D01*
X190907200Y-53928571D02*
X190859580Y-53880952D01*
X190859580Y-53880952D02*
X190716723Y-53785714D01*
X190716723Y-53785714D02*
X190526247Y-53738095D01*
X190526247Y-53738095D02*
X190145295Y-53738095D01*
X190145295Y-53738095D02*
X190050057Y-53785714D01*
X190050057Y-53785714D02*
X190002438Y-53833333D01*
X190002438Y-53833333D02*
X189954819Y-53928571D01*
X189954819Y-53928571D02*
X189954819Y-54119047D01*
X189954819Y-54119047D02*
X190002438Y-54214285D01*
X190002438Y-54214285D02*
X190050057Y-54261904D01*
X190050057Y-54261904D02*
X190145295Y-54309523D01*
X190145295Y-54309523D02*
X190383390Y-54309523D01*
X190383390Y-54309523D02*
X190478628Y-54261904D01*
X190478628Y-54261904D02*
X190526247Y-54214285D01*
X190526247Y-54214285D02*
X190573866Y-54119047D01*
X190573866Y-54119047D02*
X190573866Y-53928571D01*
X190573866Y-53928571D02*
X190526247Y-53833333D01*
X190526247Y-53833333D02*
X190478628Y-53785714D01*
X190478628Y-53785714D02*
X190383390Y-53738095D01*
X182920833Y-65104819D02*
X182587500Y-64628628D01*
X182349405Y-65104819D02*
X182349405Y-64104819D01*
X182349405Y-64104819D02*
X182730357Y-64104819D01*
X182730357Y-64104819D02*
X182825595Y-64152438D01*
X182825595Y-64152438D02*
X182873214Y-64200057D01*
X182873214Y-64200057D02*
X182920833Y-64295295D01*
X182920833Y-64295295D02*
X182920833Y-64438152D01*
X182920833Y-64438152D02*
X182873214Y-64533390D01*
X182873214Y-64533390D02*
X182825595Y-64581009D01*
X182825595Y-64581009D02*
X182730357Y-64628628D01*
X182730357Y-64628628D02*
X182349405Y-64628628D01*
X183825595Y-64104819D02*
X183349405Y-64104819D01*
X183349405Y-64104819D02*
X183301786Y-64581009D01*
X183301786Y-64581009D02*
X183349405Y-64533390D01*
X183349405Y-64533390D02*
X183444643Y-64485771D01*
X183444643Y-64485771D02*
X183682738Y-64485771D01*
X183682738Y-64485771D02*
X183777976Y-64533390D01*
X183777976Y-64533390D02*
X183825595Y-64581009D01*
X183825595Y-64581009D02*
X183873214Y-64676247D01*
X183873214Y-64676247D02*
X183873214Y-64914342D01*
X183873214Y-64914342D02*
X183825595Y-65009580D01*
X183825595Y-65009580D02*
X183777976Y-65057200D01*
X183777976Y-65057200D02*
X183682738Y-65104819D01*
X183682738Y-65104819D02*
X183444643Y-65104819D01*
X183444643Y-65104819D02*
X183349405Y-65057200D01*
X183349405Y-65057200D02*
X183301786Y-65009580D01*
X157519580Y-84487857D02*
X157567200Y-84535476D01*
X157567200Y-84535476D02*
X157614819Y-84678333D01*
X157614819Y-84678333D02*
X157614819Y-84773571D01*
X157614819Y-84773571D02*
X157567200Y-84916428D01*
X157567200Y-84916428D02*
X157471961Y-85011666D01*
X157471961Y-85011666D02*
X157376723Y-85059285D01*
X157376723Y-85059285D02*
X157186247Y-85106904D01*
X157186247Y-85106904D02*
X157043390Y-85106904D01*
X157043390Y-85106904D02*
X156852914Y-85059285D01*
X156852914Y-85059285D02*
X156757676Y-85011666D01*
X156757676Y-85011666D02*
X156662438Y-84916428D01*
X156662438Y-84916428D02*
X156614819Y-84773571D01*
X156614819Y-84773571D02*
X156614819Y-84678333D01*
X156614819Y-84678333D02*
X156662438Y-84535476D01*
X156662438Y-84535476D02*
X156710057Y-84487857D01*
X156710057Y-84106904D02*
X156662438Y-84059285D01*
X156662438Y-84059285D02*
X156614819Y-83964047D01*
X156614819Y-83964047D02*
X156614819Y-83725952D01*
X156614819Y-83725952D02*
X156662438Y-83630714D01*
X156662438Y-83630714D02*
X156710057Y-83583095D01*
X156710057Y-83583095D02*
X156805295Y-83535476D01*
X156805295Y-83535476D02*
X156900533Y-83535476D01*
X156900533Y-83535476D02*
X157043390Y-83583095D01*
X157043390Y-83583095D02*
X157614819Y-84154523D01*
X157614819Y-84154523D02*
X157614819Y-83535476D01*
X156614819Y-82630714D02*
X156614819Y-83106904D01*
X156614819Y-83106904D02*
X157091009Y-83154523D01*
X157091009Y-83154523D02*
X157043390Y-83106904D01*
X157043390Y-83106904D02*
X156995771Y-83011666D01*
X156995771Y-83011666D02*
X156995771Y-82773571D01*
X156995771Y-82773571D02*
X157043390Y-82678333D01*
X157043390Y-82678333D02*
X157091009Y-82630714D01*
X157091009Y-82630714D02*
X157186247Y-82583095D01*
X157186247Y-82583095D02*
X157424342Y-82583095D01*
X157424342Y-82583095D02*
X157519580Y-82630714D01*
X157519580Y-82630714D02*
X157567200Y-82678333D01*
X157567200Y-82678333D02*
X157614819Y-82773571D01*
X157614819Y-82773571D02*
X157614819Y-83011666D01*
X157614819Y-83011666D02*
X157567200Y-83106904D01*
X157567200Y-83106904D02*
X157519580Y-83154523D01*
X217359580Y-62142857D02*
X217407200Y-62190476D01*
X217407200Y-62190476D02*
X217454819Y-62333333D01*
X217454819Y-62333333D02*
X217454819Y-62428571D01*
X217454819Y-62428571D02*
X217407200Y-62571428D01*
X217407200Y-62571428D02*
X217311961Y-62666666D01*
X217311961Y-62666666D02*
X217216723Y-62714285D01*
X217216723Y-62714285D02*
X217026247Y-62761904D01*
X217026247Y-62761904D02*
X216883390Y-62761904D01*
X216883390Y-62761904D02*
X216692914Y-62714285D01*
X216692914Y-62714285D02*
X216597676Y-62666666D01*
X216597676Y-62666666D02*
X216502438Y-62571428D01*
X216502438Y-62571428D02*
X216454819Y-62428571D01*
X216454819Y-62428571D02*
X216454819Y-62333333D01*
X216454819Y-62333333D02*
X216502438Y-62190476D01*
X216502438Y-62190476D02*
X216550057Y-62142857D01*
X216788152Y-61285714D02*
X217454819Y-61285714D01*
X216407200Y-61523809D02*
X217121485Y-61761904D01*
X217121485Y-61761904D02*
X217121485Y-61142857D01*
X216454819Y-60857142D02*
X216454819Y-60190476D01*
X216454819Y-60190476D02*
X217454819Y-60619047D01*
X220359580Y-54642857D02*
X220407200Y-54690476D01*
X220407200Y-54690476D02*
X220454819Y-54833333D01*
X220454819Y-54833333D02*
X220454819Y-54928571D01*
X220454819Y-54928571D02*
X220407200Y-55071428D01*
X220407200Y-55071428D02*
X220311961Y-55166666D01*
X220311961Y-55166666D02*
X220216723Y-55214285D01*
X220216723Y-55214285D02*
X220026247Y-55261904D01*
X220026247Y-55261904D02*
X219883390Y-55261904D01*
X219883390Y-55261904D02*
X219692914Y-55214285D01*
X219692914Y-55214285D02*
X219597676Y-55166666D01*
X219597676Y-55166666D02*
X219502438Y-55071428D01*
X219502438Y-55071428D02*
X219454819Y-54928571D01*
X219454819Y-54928571D02*
X219454819Y-54833333D01*
X219454819Y-54833333D02*
X219502438Y-54690476D01*
X219502438Y-54690476D02*
X219550057Y-54642857D01*
X219454819Y-54309523D02*
X219454819Y-53690476D01*
X219454819Y-53690476D02*
X219835771Y-54023809D01*
X219835771Y-54023809D02*
X219835771Y-53880952D01*
X219835771Y-53880952D02*
X219883390Y-53785714D01*
X219883390Y-53785714D02*
X219931009Y-53738095D01*
X219931009Y-53738095D02*
X220026247Y-53690476D01*
X220026247Y-53690476D02*
X220264342Y-53690476D01*
X220264342Y-53690476D02*
X220359580Y-53738095D01*
X220359580Y-53738095D02*
X220407200Y-53785714D01*
X220407200Y-53785714D02*
X220454819Y-53880952D01*
X220454819Y-53880952D02*
X220454819Y-54166666D01*
X220454819Y-54166666D02*
X220407200Y-54261904D01*
X220407200Y-54261904D02*
X220359580Y-54309523D01*
X219454819Y-53357142D02*
X219454819Y-52690476D01*
X219454819Y-52690476D02*
X220454819Y-53119047D01*
X226238095Y-60279820D02*
X226238095Y-61089343D01*
X226238095Y-61089343D02*
X226285714Y-61184581D01*
X226285714Y-61184581D02*
X226333333Y-61232201D01*
X226333333Y-61232201D02*
X226428571Y-61279820D01*
X226428571Y-61279820D02*
X226619047Y-61279820D01*
X226619047Y-61279820D02*
X226714285Y-61232201D01*
X226714285Y-61232201D02*
X226761904Y-61184581D01*
X226761904Y-61184581D02*
X226809523Y-61089343D01*
X226809523Y-61089343D02*
X226809523Y-60279820D01*
X227761904Y-60279820D02*
X227285714Y-60279820D01*
X227285714Y-60279820D02*
X227238095Y-60756010D01*
X227238095Y-60756010D02*
X227285714Y-60708391D01*
X227285714Y-60708391D02*
X227380952Y-60660772D01*
X227380952Y-60660772D02*
X227619047Y-60660772D01*
X227619047Y-60660772D02*
X227714285Y-60708391D01*
X227714285Y-60708391D02*
X227761904Y-60756010D01*
X227761904Y-60756010D02*
X227809523Y-60851248D01*
X227809523Y-60851248D02*
X227809523Y-61089343D01*
X227809523Y-61089343D02*
X227761904Y-61184581D01*
X227761904Y-61184581D02*
X227714285Y-61232201D01*
X227714285Y-61232201D02*
X227619047Y-61279820D01*
X227619047Y-61279820D02*
X227380952Y-61279820D01*
X227380952Y-61279820D02*
X227285714Y-61232201D01*
X227285714Y-61232201D02*
X227238095Y-61184581D01*
X236862614Y-70417857D02*
X236910234Y-70465476D01*
X236910234Y-70465476D02*
X236957853Y-70608333D01*
X236957853Y-70608333D02*
X236957853Y-70703571D01*
X236957853Y-70703571D02*
X236910234Y-70846428D01*
X236910234Y-70846428D02*
X236814995Y-70941666D01*
X236814995Y-70941666D02*
X236719757Y-70989285D01*
X236719757Y-70989285D02*
X236529281Y-71036904D01*
X236529281Y-71036904D02*
X236386424Y-71036904D01*
X236386424Y-71036904D02*
X236195948Y-70989285D01*
X236195948Y-70989285D02*
X236100710Y-70941666D01*
X236100710Y-70941666D02*
X236005472Y-70846428D01*
X236005472Y-70846428D02*
X235957853Y-70703571D01*
X235957853Y-70703571D02*
X235957853Y-70608333D01*
X235957853Y-70608333D02*
X236005472Y-70465476D01*
X236005472Y-70465476D02*
X236053091Y-70417857D01*
X236053091Y-70036904D02*
X236005472Y-69989285D01*
X236005472Y-69989285D02*
X235957853Y-69894047D01*
X235957853Y-69894047D02*
X235957853Y-69655952D01*
X235957853Y-69655952D02*
X236005472Y-69560714D01*
X236005472Y-69560714D02*
X236053091Y-69513095D01*
X236053091Y-69513095D02*
X236148329Y-69465476D01*
X236148329Y-69465476D02*
X236243567Y-69465476D01*
X236243567Y-69465476D02*
X236386424Y-69513095D01*
X236386424Y-69513095D02*
X236957853Y-70084523D01*
X236957853Y-70084523D02*
X236957853Y-69465476D01*
X236957853Y-68989285D02*
X236957853Y-68798809D01*
X236957853Y-68798809D02*
X236910234Y-68703571D01*
X236910234Y-68703571D02*
X236862614Y-68655952D01*
X236862614Y-68655952D02*
X236719757Y-68560714D01*
X236719757Y-68560714D02*
X236529281Y-68513095D01*
X236529281Y-68513095D02*
X236148329Y-68513095D01*
X236148329Y-68513095D02*
X236053091Y-68560714D01*
X236053091Y-68560714D02*
X236005472Y-68608333D01*
X236005472Y-68608333D02*
X235957853Y-68703571D01*
X235957853Y-68703571D02*
X235957853Y-68894047D01*
X235957853Y-68894047D02*
X236005472Y-68989285D01*
X236005472Y-68989285D02*
X236053091Y-69036904D01*
X236053091Y-69036904D02*
X236148329Y-69084523D01*
X236148329Y-69084523D02*
X236386424Y-69084523D01*
X236386424Y-69084523D02*
X236481662Y-69036904D01*
X236481662Y-69036904D02*
X236529281Y-68989285D01*
X236529281Y-68989285D02*
X236576900Y-68894047D01*
X236576900Y-68894047D02*
X236576900Y-68703571D01*
X236576900Y-68703571D02*
X236529281Y-68608333D01*
X236529281Y-68608333D02*
X236481662Y-68560714D01*
X236481662Y-68560714D02*
X236386424Y-68513095D01*
X191261904Y-76745180D02*
X191261904Y-75935657D01*
X191261904Y-75935657D02*
X191214285Y-75840419D01*
X191214285Y-75840419D02*
X191166666Y-75792800D01*
X191166666Y-75792800D02*
X191071428Y-75745180D01*
X191071428Y-75745180D02*
X190880952Y-75745180D01*
X190880952Y-75745180D02*
X190785714Y-75792800D01*
X190785714Y-75792800D02*
X190738095Y-75840419D01*
X190738095Y-75840419D02*
X190690476Y-75935657D01*
X190690476Y-75935657D02*
X190690476Y-76745180D01*
X189690476Y-75745180D02*
X190261904Y-75745180D01*
X189976190Y-75745180D02*
X189976190Y-76745180D01*
X189976190Y-76745180D02*
X190071428Y-76602323D01*
X190071428Y-76602323D02*
X190166666Y-76507085D01*
X190166666Y-76507085D02*
X190261904Y-76459466D01*
X195935600Y-79654819D02*
X195935600Y-79892914D01*
X195697505Y-79797676D02*
X195935600Y-79892914D01*
X195935600Y-79892914D02*
X196173695Y-79797676D01*
X195792743Y-80083390D02*
X195935600Y-79892914D01*
X195935600Y-79892914D02*
X196078457Y-80083390D01*
X195935599Y-80745180D02*
X195935599Y-80507085D01*
X196173694Y-80602323D02*
X195935599Y-80507085D01*
X195935599Y-80507085D02*
X195697504Y-80602323D01*
X196078456Y-80316609D02*
X195935599Y-80507085D01*
X195935599Y-80507085D02*
X195792742Y-80316609D01*
X250357142Y-92454819D02*
X250023809Y-91978628D01*
X249785714Y-92454819D02*
X249785714Y-91454819D01*
X249785714Y-91454819D02*
X250166666Y-91454819D01*
X250166666Y-91454819D02*
X250261904Y-91502438D01*
X250261904Y-91502438D02*
X250309523Y-91550057D01*
X250309523Y-91550057D02*
X250357142Y-91645295D01*
X250357142Y-91645295D02*
X250357142Y-91788152D01*
X250357142Y-91788152D02*
X250309523Y-91883390D01*
X250309523Y-91883390D02*
X250261904Y-91931009D01*
X250261904Y-91931009D02*
X250166666Y-91978628D01*
X250166666Y-91978628D02*
X249785714Y-91978628D01*
X250738095Y-91550057D02*
X250785714Y-91502438D01*
X250785714Y-91502438D02*
X250880952Y-91454819D01*
X250880952Y-91454819D02*
X251119047Y-91454819D01*
X251119047Y-91454819D02*
X251214285Y-91502438D01*
X251214285Y-91502438D02*
X251261904Y-91550057D01*
X251261904Y-91550057D02*
X251309523Y-91645295D01*
X251309523Y-91645295D02*
X251309523Y-91740533D01*
X251309523Y-91740533D02*
X251261904Y-91883390D01*
X251261904Y-91883390D02*
X250690476Y-92454819D01*
X250690476Y-92454819D02*
X251309523Y-92454819D01*
X252214285Y-91454819D02*
X251738095Y-91454819D01*
X251738095Y-91454819D02*
X251690476Y-91931009D01*
X251690476Y-91931009D02*
X251738095Y-91883390D01*
X251738095Y-91883390D02*
X251833333Y-91835771D01*
X251833333Y-91835771D02*
X252071428Y-91835771D01*
X252071428Y-91835771D02*
X252166666Y-91883390D01*
X252166666Y-91883390D02*
X252214285Y-91931009D01*
X252214285Y-91931009D02*
X252261904Y-92026247D01*
X252261904Y-92026247D02*
X252261904Y-92264342D01*
X252261904Y-92264342D02*
X252214285Y-92359580D01*
X252214285Y-92359580D02*
X252166666Y-92407200D01*
X252166666Y-92407200D02*
X252071428Y-92454819D01*
X252071428Y-92454819D02*
X251833333Y-92454819D01*
X251833333Y-92454819D02*
X251738095Y-92407200D01*
X251738095Y-92407200D02*
X251690476Y-92359580D01*
X237492014Y-74062045D02*
X237015823Y-74395378D01*
X237492014Y-74633473D02*
X236492014Y-74633473D01*
X236492014Y-74633473D02*
X236492014Y-74252521D01*
X236492014Y-74252521D02*
X236539633Y-74157283D01*
X236539633Y-74157283D02*
X236587252Y-74109664D01*
X236587252Y-74109664D02*
X236682490Y-74062045D01*
X236682490Y-74062045D02*
X236825347Y-74062045D01*
X236825347Y-74062045D02*
X236920585Y-74109664D01*
X236920585Y-74109664D02*
X236968204Y-74157283D01*
X236968204Y-74157283D02*
X237015823Y-74252521D01*
X237015823Y-74252521D02*
X237015823Y-74633473D01*
X237492014Y-73109664D02*
X237492014Y-73681092D01*
X237492014Y-73395378D02*
X236492014Y-73395378D01*
X236492014Y-73395378D02*
X236634871Y-73490616D01*
X236634871Y-73490616D02*
X236730109Y-73585854D01*
X236730109Y-73585854D02*
X236777728Y-73681092D01*
X236492014Y-72776330D02*
X236492014Y-72109664D01*
X236492014Y-72109664D02*
X237492014Y-72538235D01*
X247357142Y-87954819D02*
X247023809Y-87478628D01*
X246785714Y-87954819D02*
X246785714Y-86954819D01*
X246785714Y-86954819D02*
X247166666Y-86954819D01*
X247166666Y-86954819D02*
X247261904Y-87002438D01*
X247261904Y-87002438D02*
X247309523Y-87050057D01*
X247309523Y-87050057D02*
X247357142Y-87145295D01*
X247357142Y-87145295D02*
X247357142Y-87288152D01*
X247357142Y-87288152D02*
X247309523Y-87383390D01*
X247309523Y-87383390D02*
X247261904Y-87431009D01*
X247261904Y-87431009D02*
X247166666Y-87478628D01*
X247166666Y-87478628D02*
X246785714Y-87478628D01*
X247738095Y-87050057D02*
X247785714Y-87002438D01*
X247785714Y-87002438D02*
X247880952Y-86954819D01*
X247880952Y-86954819D02*
X248119047Y-86954819D01*
X248119047Y-86954819D02*
X248214285Y-87002438D01*
X248214285Y-87002438D02*
X248261904Y-87050057D01*
X248261904Y-87050057D02*
X248309523Y-87145295D01*
X248309523Y-87145295D02*
X248309523Y-87240533D01*
X248309523Y-87240533D02*
X248261904Y-87383390D01*
X248261904Y-87383390D02*
X247690476Y-87954819D01*
X247690476Y-87954819D02*
X248309523Y-87954819D01*
X248642857Y-86954819D02*
X249309523Y-86954819D01*
X249309523Y-86954819D02*
X248880952Y-87954819D01*
X231804819Y-71642857D02*
X231328628Y-71976190D01*
X231804819Y-72214285D02*
X230804819Y-72214285D01*
X230804819Y-72214285D02*
X230804819Y-71833333D01*
X230804819Y-71833333D02*
X230852438Y-71738095D01*
X230852438Y-71738095D02*
X230900057Y-71690476D01*
X230900057Y-71690476D02*
X230995295Y-71642857D01*
X230995295Y-71642857D02*
X231138152Y-71642857D01*
X231138152Y-71642857D02*
X231233390Y-71690476D01*
X231233390Y-71690476D02*
X231281009Y-71738095D01*
X231281009Y-71738095D02*
X231328628Y-71833333D01*
X231328628Y-71833333D02*
X231328628Y-72214285D01*
X231804819Y-70690476D02*
X231804819Y-71261904D01*
X231804819Y-70976190D02*
X230804819Y-70976190D01*
X230804819Y-70976190D02*
X230947676Y-71071428D01*
X230947676Y-71071428D02*
X231042914Y-71166666D01*
X231042914Y-71166666D02*
X231090533Y-71261904D01*
X231804819Y-70214285D02*
X231804819Y-70023809D01*
X231804819Y-70023809D02*
X231757200Y-69928571D01*
X231757200Y-69928571D02*
X231709580Y-69880952D01*
X231709580Y-69880952D02*
X231566723Y-69785714D01*
X231566723Y-69785714D02*
X231376247Y-69738095D01*
X231376247Y-69738095D02*
X230995295Y-69738095D01*
X230995295Y-69738095D02*
X230900057Y-69785714D01*
X230900057Y-69785714D02*
X230852438Y-69833333D01*
X230852438Y-69833333D02*
X230804819Y-69928571D01*
X230804819Y-69928571D02*
X230804819Y-70119047D01*
X230804819Y-70119047D02*
X230852438Y-70214285D01*
X230852438Y-70214285D02*
X230900057Y-70261904D01*
X230900057Y-70261904D02*
X230995295Y-70309523D01*
X230995295Y-70309523D02*
X231233390Y-70309523D01*
X231233390Y-70309523D02*
X231328628Y-70261904D01*
X231328628Y-70261904D02*
X231376247Y-70214285D01*
X231376247Y-70214285D02*
X231423866Y-70119047D01*
X231423866Y-70119047D02*
X231423866Y-69928571D01*
X231423866Y-69928571D02*
X231376247Y-69833333D01*
X231376247Y-69833333D02*
X231328628Y-69785714D01*
X231328628Y-69785714D02*
X231233390Y-69738095D01*
D12*
%TO.C,C49*%
X222265000Y-62811252D02*
X222265000Y-62288748D01*
X223735000Y-62811252D02*
X223735000Y-62288748D01*
%TO.C,C33*%
X230235000Y-56288748D02*
X230235000Y-56811252D01*
X228765000Y-56288748D02*
X228765000Y-56811252D01*
%TO.C,C16*%
X158503752Y-88735000D02*
X157981248Y-88735000D01*
X158503752Y-87265000D02*
X157981248Y-87265000D01*
%TO.C,C3*%
X199360000Y-82912164D02*
X199360000Y-83127836D01*
X198640000Y-82912164D02*
X198640000Y-83127836D01*
%TO.C,C34*%
X232360000Y-56372164D02*
X232360000Y-56587836D01*
X231640000Y-56372164D02*
X231640000Y-56587836D01*
%TO.C,L1*%
X195010000Y-59012221D02*
X195010000Y-59337779D01*
X193990000Y-59012221D02*
X193990000Y-59337779D01*
%TO.C,C21*%
X167038053Y-96933708D02*
X166515549Y-96933708D01*
X167038053Y-95463708D02*
X166515549Y-95463708D01*
%TO.C,C13*%
X195788748Y-54765000D02*
X196311252Y-54765000D01*
X195788748Y-56235000D02*
X196311252Y-56235000D01*
%TO.C,C46*%
X217140000Y-56534238D02*
X217140000Y-56749910D01*
X217860000Y-56534238D02*
X217860000Y-56749910D01*
%TO.C,R28*%
X244727064Y-89265000D02*
X244272936Y-89265000D01*
X244727064Y-90735000D02*
X244272936Y-90735000D01*
%TO.C,C41*%
X218140000Y-56547164D02*
X218140000Y-56762836D01*
X218860000Y-56547164D02*
X218860000Y-56762836D01*
%TO.C,D1*%
X173412500Y-65735000D02*
X175697500Y-65735000D01*
X175697500Y-64265000D02*
X173412500Y-64265000D01*
X175697500Y-65735000D02*
X175697500Y-64265000D01*
D13*
%TO.C,U2*%
X164012501Y-87249999D02*
X164662500Y-87249999D01*
X164012501Y-89549999D02*
X164187499Y-89549999D01*
X165987501Y-87249999D02*
X166162499Y-87249999D01*
X165987501Y-89549999D02*
X166162499Y-89549999D01*
D14*
%TO.C,FL1*%
X227875000Y-76196400D02*
X231075000Y-76196400D01*
X231075000Y-78696400D02*
X227875000Y-78696400D01*
D15*
X227025000Y-77896400D02*
G75*
G02*
X226825000Y-77896400I-100000J0D01*
G01*
X226825000Y-77896400D02*
G75*
G02*
X227025000Y-77896400I100000J0D01*
G01*
D12*
%TO.C,C42*%
X218140000Y-58892164D02*
X218140000Y-59107836D01*
X218860000Y-58892164D02*
X218860000Y-59107836D01*
%TO.C,R29*%
X244727064Y-91765000D02*
X244272936Y-91765000D01*
X244727064Y-93235000D02*
X244272936Y-93235000D01*
%TO.C,D5*%
X247765000Y-95015000D02*
X247765000Y-97300000D01*
X249235000Y-95015000D02*
X247765000Y-95015000D01*
X249235000Y-97300000D02*
X249235000Y-95015000D01*
D14*
%TO.C,J4*%
X152400000Y-78380000D02*
X152400000Y-69420000D01*
X152400000Y-78380000D02*
X153410000Y-78380000D01*
X153410000Y-69420000D02*
X152400000Y-69420000D01*
X155750000Y-78380000D02*
X157750000Y-78380000D01*
X157750000Y-69420000D02*
X155750000Y-69420000D01*
X158230000Y-69420000D02*
X155590000Y-69420000D01*
X158230000Y-78380000D02*
X155590000Y-78380000D01*
X161750000Y-69420000D02*
X160250000Y-69420000D01*
X161750000Y-69420000D02*
X161750000Y-70770000D01*
X161750000Y-77030000D02*
X161750000Y-78380000D01*
X161750000Y-78380000D02*
X160250000Y-78380000D01*
D15*
X162660000Y-71150000D02*
G75*
G02*
X162460000Y-71150000I-100000J0D01*
G01*
X162460000Y-71150000D02*
G75*
G02*
X162660000Y-71150000I100000J0D01*
G01*
D12*
%TO.C,C27*%
X232737164Y-77586400D02*
X232952836Y-77586400D01*
X232737164Y-78306400D02*
X232952836Y-78306400D01*
%TO.C,R18*%
X232265000Y-74727064D02*
X232265000Y-74272936D01*
X233735000Y-74727064D02*
X233735000Y-74272936D01*
%TO.C,R8*%
X197663641Y-80120000D02*
X197356359Y-80120000D01*
X197663641Y-80880000D02*
X197356359Y-80880000D01*
%TO.C,R3*%
X196139564Y-62765000D02*
X195685436Y-62765000D01*
X196139564Y-64235000D02*
X195685436Y-64235000D01*
%TO.C,L2*%
X169890000Y-89813748D02*
X169890000Y-90336252D01*
X172110000Y-89813748D02*
X172110000Y-90336252D01*
%TO.C,R14*%
X164860436Y-97765000D02*
X165314564Y-97765000D01*
X164860436Y-99235000D02*
X165314564Y-99235000D01*
%TO.C,R16*%
X226765000Y-82185436D02*
X226765000Y-82639564D01*
X228235000Y-82185436D02*
X228235000Y-82639564D01*
%TO.C,C6*%
X195047164Y-82140000D02*
X195262836Y-82140000D01*
X195047164Y-82860000D02*
X195262836Y-82860000D01*
%TO.C,C5*%
X189064407Y-83231529D02*
X189064407Y-83447201D01*
X189784407Y-83231529D02*
X189784407Y-83447201D01*
%TO.C,D3*%
X249765000Y-95700000D02*
X249765000Y-97985000D01*
X249765000Y-97985000D02*
X251235000Y-97985000D01*
X251235000Y-97985000D02*
X251235000Y-95700000D01*
%TO.C,C14*%
X198640000Y-79892164D02*
X198640000Y-80107836D01*
X199360000Y-79892164D02*
X199360000Y-80107836D01*
%TO.C,J2*%
X199940000Y-100440000D02*
X199940000Y-102060000D01*
X199940000Y-102060000D02*
X216060000Y-102060000D01*
X200690000Y-99882114D02*
X200690000Y-100440000D01*
X200690000Y-106260000D02*
X200690000Y-102060000D01*
X201310000Y-99882114D02*
X201310000Y-100440000D01*
X201310000Y-102060000D02*
X201310000Y-106260000D01*
X201310000Y-106260000D02*
X200690000Y-106260000D01*
X202000000Y-100440000D02*
X202000000Y-102060000D01*
X202690000Y-99882114D02*
X202690000Y-100440000D01*
X202690000Y-106260000D02*
X202690000Y-102060000D01*
X203310000Y-99882114D02*
X203310000Y-100440000D01*
X203310000Y-102060000D02*
X203310000Y-106260000D01*
X203310000Y-106260000D02*
X202690000Y-106260000D01*
X204000000Y-100440000D02*
X204000000Y-102060000D01*
X204690000Y-99882114D02*
X204690000Y-100440000D01*
X204690000Y-106260000D02*
X204690000Y-102060000D01*
X205310000Y-99882114D02*
X205310000Y-100440000D01*
X205310000Y-102060000D02*
X205310000Y-106260000D01*
X205310000Y-106260000D02*
X204690000Y-106260000D01*
X206000000Y-100440000D02*
X206000000Y-102060000D01*
X206690000Y-99882114D02*
X206690000Y-100440000D01*
X206690000Y-106260000D02*
X206690000Y-102060000D01*
X207310000Y-99882114D02*
X207310000Y-100440000D01*
X207310000Y-102060000D02*
X207310000Y-106260000D01*
X207310000Y-106260000D02*
X206690000Y-106260000D01*
X208000000Y-100440000D02*
X208000000Y-102060000D01*
X208690000Y-99882114D02*
X208690000Y-100440000D01*
X208690000Y-106260000D02*
X208690000Y-102060000D01*
X209310000Y-99882114D02*
X209310000Y-100440000D01*
X209310000Y-102060000D02*
X209310000Y-106260000D01*
X209310000Y-106260000D02*
X208690000Y-106260000D01*
X210000000Y-100440000D02*
X210000000Y-102060000D01*
X210690000Y-99882114D02*
X210690000Y-100440000D01*
X210690000Y-106260000D02*
X210690000Y-102060000D01*
X211310000Y-99882114D02*
X211310000Y-100440000D01*
X211310000Y-102060000D02*
X211310000Y-106260000D01*
X211310000Y-106260000D02*
X210690000Y-106260000D01*
X212000000Y-100440000D02*
X212000000Y-102060000D01*
X212690000Y-99882114D02*
X212690000Y-100440000D01*
X212690000Y-106260000D02*
X212690000Y-102060000D01*
X213310000Y-99882114D02*
X213310000Y-100440000D01*
X213310000Y-102060000D02*
X213310000Y-106260000D01*
X213310000Y-106260000D02*
X212690000Y-106260000D01*
X214000000Y-100440000D02*
X214000000Y-102060000D01*
X214690000Y-99935000D02*
X214690000Y-100440000D01*
X214690000Y-106260000D02*
X214690000Y-102060000D01*
X214770000Y-102060000D02*
X214770000Y-106260000D01*
X214890000Y-102060000D02*
X214890000Y-106260000D01*
X215000000Y-98000000D02*
X216000000Y-98000000D01*
X215010000Y-102060000D02*
X215010000Y-106260000D01*
X215130000Y-102060000D02*
X215130000Y-106260000D01*
X215250000Y-102060000D02*
X215250000Y-106260000D01*
X215310000Y-99935000D02*
X215310000Y-100440000D01*
X215310000Y-102060000D02*
X215310000Y-106260000D01*
X215310000Y-106260000D02*
X214690000Y-106260000D01*
X216000000Y-98000000D02*
X216000000Y-99000000D01*
X216060000Y-100440000D02*
X199940000Y-100440000D01*
X216060000Y-102060000D02*
X216060000Y-100440000D01*
%TO.C,C18*%
X191258206Y-59623551D02*
X191258206Y-59342391D01*
X192278206Y-59623551D02*
X192278206Y-59342391D01*
%TO.C,C26*%
X191392164Y-93140000D02*
X191607836Y-93140000D01*
X191392164Y-93860000D02*
X191607836Y-93860000D01*
D16*
%TO.C,U6*%
X232020200Y-85286400D02*
X232020200Y-86528460D01*
X232020200Y-88311540D02*
X232020200Y-89068460D01*
X232020200Y-90851540D02*
X232020200Y-91608460D01*
X232020200Y-93391540D02*
X232020200Y-94148460D01*
X232020200Y-95931540D02*
X232020200Y-96688460D01*
X232020200Y-98471540D02*
X232020200Y-99713600D01*
X232020200Y-99713600D02*
X238979800Y-99713600D01*
X238979800Y-85286400D02*
X232020200Y-85286400D01*
X238979800Y-86528460D02*
X238979800Y-85286400D01*
X238979800Y-89068460D02*
X238979800Y-88311540D01*
X238979800Y-91608460D02*
X238979800Y-90851540D01*
X238979800Y-94148460D02*
X238979800Y-93391540D01*
X238979800Y-96688460D02*
X238979800Y-95931540D01*
X238979800Y-99713600D02*
X238979800Y-98471540D01*
D12*
%TO.C,D2*%
X167302500Y-97765000D02*
X167302500Y-99235000D01*
X167302500Y-99235000D02*
X169587500Y-99235000D01*
X169587500Y-97765000D02*
X167302500Y-97765000D01*
%TO.C,C8*%
X185640000Y-66107836D02*
X185640000Y-65892164D01*
X186360000Y-66107836D02*
X186360000Y-65892164D01*
%TO.C,R4*%
X170360436Y-64265000D02*
X170814564Y-64265000D01*
X170360436Y-65735000D02*
X170814564Y-65735000D01*
%TO.C,C17*%
X156540336Y-89640000D02*
X156324664Y-89640000D01*
X156540336Y-90360000D02*
X156324664Y-90360000D01*
%TO.C,R15*%
X157765000Y-84139564D02*
X157765000Y-83685436D01*
X159235000Y-84139564D02*
X159235000Y-83685436D01*
%TO.C,C2*%
X195053390Y-83150416D02*
X195269062Y-83150416D01*
X195053390Y-83870416D02*
X195269062Y-83870416D01*
%TO.C,C7*%
X186762836Y-86640000D02*
X186547164Y-86640000D01*
X186762836Y-87360000D02*
X186547164Y-87360000D01*
D16*
%TO.C,XTAL1*%
X187872240Y-90720600D02*
X188146560Y-90720600D01*
X187872240Y-93565400D02*
X188146560Y-93565400D01*
D12*
%TO.C,C24*%
X185107836Y-90640000D02*
X184892164Y-90640000D01*
X185107836Y-91360000D02*
X184892164Y-91360000D01*
%TO.C,R12*%
X163685436Y-93265000D02*
X164139564Y-93265000D01*
X163685436Y-94735000D02*
X164139564Y-94735000D01*
%TO.C,C20*%
X197237164Y-79140000D02*
X197452836Y-79140000D01*
X197237164Y-79860000D02*
X197452836Y-79860000D01*
%TO.C,R13*%
X165860436Y-55765000D02*
X166314564Y-55765000D01*
X165860436Y-57235000D02*
X166314564Y-57235000D01*
%TO.C,C10*%
X188452836Y-66985000D02*
X188237164Y-66985000D01*
X188452836Y-67705000D02*
X188237164Y-67705000D01*
D16*
%TO.C,U4*%
X216375800Y-72375800D02*
X216375800Y-73040259D01*
X216375800Y-77959741D02*
X216375800Y-78624200D01*
X216375800Y-78624200D02*
X217040259Y-78624200D01*
X217040259Y-72375800D02*
X216375800Y-72375800D01*
X221959741Y-78624200D02*
X222624200Y-78624200D01*
X222624200Y-72375800D02*
X221959741Y-72375800D01*
X222624200Y-73040259D02*
X222624200Y-72375800D01*
X222624200Y-78624200D02*
X222624200Y-77959741D01*
D17*
G36*
X215893200Y-74690499D02*
G01*
X215639200Y-74690499D01*
X215639200Y-74309499D01*
X215893200Y-74309499D01*
X215893200Y-74690499D01*
G37*
G36*
X221190500Y-71893200D02*
G01*
X220809500Y-71893200D01*
X220809500Y-71639200D01*
X221190500Y-71639200D01*
X221190500Y-71893200D01*
G37*
G36*
X223360800Y-77690501D02*
G01*
X223106800Y-77690501D01*
X223106800Y-77309501D01*
X223360800Y-77309501D01*
X223360800Y-77690501D01*
G37*
D12*
%TO.C,R2*%
X159360436Y-89265000D02*
X159814564Y-89265000D01*
X159360436Y-90735000D02*
X159814564Y-90735000D01*
%TO.C,D4*%
X251765000Y-95015000D02*
X251765000Y-97300000D01*
X253235000Y-95015000D02*
X251765000Y-95015000D01*
X253235000Y-97300000D02*
X253235000Y-95015000D01*
%TO.C,C38*%
X219140000Y-58892164D02*
X219140000Y-59107836D01*
X219860000Y-58892164D02*
X219860000Y-59107836D01*
%TO.C,R6*%
X184620000Y-83663641D02*
X184620000Y-83356359D01*
X185380000Y-83663641D02*
X185380000Y-83356359D01*
%TO.C,C15*%
X193640000Y-69762836D02*
X193640000Y-69547164D01*
X194360000Y-69762836D02*
X194360000Y-69547164D01*
%TO.C,R26*%
X251272936Y-89265000D02*
X251727064Y-89265000D01*
X251272936Y-90735000D02*
X251727064Y-90735000D01*
%TO.C,R23*%
X246227064Y-98265000D02*
X245772936Y-98265000D01*
X246227064Y-99735000D02*
X245772936Y-99735000D01*
%TO.C,C22*%
X185640000Y-84237164D02*
X185640000Y-84452836D01*
X186360000Y-84237164D02*
X186360000Y-84452836D01*
D16*
%TO.C,U3*%
X169507000Y-52603000D02*
X169507000Y-52925439D01*
X169507000Y-55074561D02*
X169507000Y-55465439D01*
X169507000Y-57614561D02*
X169507000Y-58005439D01*
X169507000Y-60154561D02*
X169507000Y-60545439D01*
X169507000Y-62694561D02*
X169507000Y-63017000D01*
X169507000Y-63017000D02*
X176873000Y-63017000D01*
X176873000Y-52603000D02*
X169507000Y-52603000D01*
X176873000Y-52925439D02*
X176873000Y-52603000D01*
X176873000Y-55465439D02*
X176873000Y-55074561D01*
X176873000Y-58005439D02*
X176873000Y-57614561D01*
X176873000Y-60537960D02*
X176873000Y-60154561D01*
X176873000Y-63017000D02*
X176873000Y-62702040D01*
D12*
%TO.C,R11*%
X168185436Y-93265000D02*
X168639564Y-93265000D01*
X168185436Y-94735000D02*
X168639564Y-94735000D01*
%TO.C,C1*%
X183140000Y-84047164D02*
X183140000Y-84262836D01*
X183860000Y-84047164D02*
X183860000Y-84262836D01*
%TO.C,C28*%
X232952836Y-76586400D02*
X232737164Y-76586400D01*
X232952836Y-77306400D02*
X232737164Y-77306400D01*
%TO.C,C23*%
X165640000Y-63892164D02*
X165640000Y-64107836D01*
X166360000Y-63892164D02*
X166360000Y-64107836D01*
%TO.C,R9*%
X170685436Y-85765000D02*
X171139564Y-85765000D01*
X170685436Y-87235000D02*
X171139564Y-87235000D01*
%TO.C,C31*%
X223640000Y-58607836D02*
X223640000Y-58392164D01*
X224360000Y-58607836D02*
X224360000Y-58392164D01*
%TO.C,C19*%
X190140000Y-60262836D02*
X190140000Y-60047164D01*
X190860000Y-60262836D02*
X190860000Y-60047164D01*
%TO.C,R5*%
X183314564Y-62265000D02*
X182860436Y-62265000D01*
X183314564Y-63735000D02*
X182860436Y-63735000D01*
%TO.C,C25*%
X155640000Y-83737164D02*
X155640000Y-83952836D01*
X156360000Y-83737164D02*
X156360000Y-83952836D01*
%TO.C,C47*%
X217140000Y-58892164D02*
X217140000Y-59107836D01*
X217860000Y-58892164D02*
X217860000Y-59107836D01*
%TO.C,C37*%
X219140000Y-56572164D02*
X219140000Y-56787836D01*
X219860000Y-56572164D02*
X219860000Y-56787836D01*
D10*
%TO.C,U5*%
X225500000Y-59200000D02*
X228500000Y-59200000D01*
X225500000Y-62450002D02*
X228500000Y-62450002D01*
D18*
X224368936Y-59850002D02*
G75*
G02*
X224118934Y-59850002I-125001J0D01*
G01*
X224118934Y-59850002D02*
G75*
G02*
X224368936Y-59850002I125001J0D01*
G01*
D12*
%TO.C,C29*%
X234490000Y-69915580D02*
X234490000Y-69634420D01*
X235510000Y-69915580D02*
X235510000Y-69634420D01*
D16*
%TO.C,U1*%
X185877200Y-71577200D02*
X185877200Y-71990260D01*
X185877200Y-80409740D02*
X185877200Y-80822800D01*
X185877200Y-80822800D02*
X186290260Y-80822800D01*
X186290260Y-71577200D02*
X185877200Y-71577200D01*
X194709740Y-80822800D02*
X195122800Y-80822800D01*
X195122800Y-71577200D02*
X194709740Y-71577200D01*
X195122800Y-71990260D02*
X195122800Y-71577200D01*
X195122800Y-80822800D02*
X195122800Y-80409740D01*
D17*
G36*
X185445400Y-76140501D02*
G01*
X185191400Y-76140501D01*
X185191400Y-75759500D01*
X185445400Y-75759500D01*
X185445400Y-76140501D01*
G37*
G36*
X187440499Y-81508600D02*
G01*
X187059499Y-81508600D01*
X187059499Y-81254600D01*
X187440499Y-81254600D01*
X187440499Y-81508600D01*
G37*
G36*
X187940500Y-71145400D02*
G01*
X187559500Y-71145400D01*
X187559500Y-70891400D01*
X187940500Y-70891400D01*
X187940500Y-71145400D01*
G37*
G36*
X192440499Y-81508600D02*
G01*
X192059499Y-81508600D01*
X192059499Y-81254600D01*
X192440499Y-81254600D01*
X192440499Y-81508600D01*
G37*
G36*
X192940501Y-71145400D02*
G01*
X192559501Y-71145400D01*
X192559501Y-70891400D01*
X192940501Y-70891400D01*
X192940501Y-71145400D01*
G37*
G36*
X195808600Y-75640499D02*
G01*
X195554600Y-75640499D01*
X195554600Y-75259499D01*
X195808600Y-75259499D01*
X195808600Y-75640499D01*
G37*
D12*
%TO.C,R25*%
X251727064Y-92765000D02*
X251272936Y-92765000D01*
X251727064Y-94235000D02*
X251272936Y-94235000D01*
%TO.C,R17*%
X234302195Y-73646252D02*
X234302195Y-73192124D01*
X235772195Y-73646252D02*
X235772195Y-73192124D01*
%TO.C,R27*%
X244639564Y-86765000D02*
X244185436Y-86765000D01*
X244639564Y-88235000D02*
X244185436Y-88235000D01*
%TO.C,R19*%
X232265000Y-71227064D02*
X232265000Y-70772936D01*
X233735000Y-71227064D02*
X233735000Y-70772936D01*
%TD*%
M02*
