%TF.GenerationSoftware,KiCad,Pcbnew,8.0.2*%
%TF.CreationDate,2025-01-31T23:59:09-08:00*%
%TF.ProjectId,design_revb_2chip,64657369-676e-45f7-9265-76625f326368,rev?*%
%TF.SameCoordinates,Original*%
%TF.FileFunction,Copper,L2,Inr*%
%TF.FilePolarity,Positive*%
%FSLAX46Y46*%
G04 Gerber Fmt 4.6, Leading zero omitted, Abs format (unit mm)*
G04 Created by KiCad (PCBNEW 8.0.2) date 2025-01-31 23:59:09*
%MOMM*%
%LPD*%
G01*
G04 APERTURE LIST*
%TA.AperFunction,ComponentPad*%
%ADD10C,0.499999*%
%TD*%
%TA.AperFunction,ComponentPad*%
%ADD11C,0.600000*%
%TD*%
%TA.AperFunction,ComponentPad*%
%ADD12C,0.900000*%
%TD*%
%TA.AperFunction,ComponentPad*%
%ADD13O,1.400000X0.900000*%
%TD*%
%TA.AperFunction,ComponentPad*%
%ADD14R,1.350000X1.350000*%
%TD*%
%TA.AperFunction,ComponentPad*%
%ADD15O,1.350000X1.350000*%
%TD*%
%TA.AperFunction,ComponentPad*%
%ADD16R,1.498600X1.498600*%
%TD*%
%TA.AperFunction,ComponentPad*%
%ADD17C,1.498600*%
%TD*%
%TA.AperFunction,ComponentPad*%
%ADD18R,1.400000X1.400000*%
%TD*%
%TA.AperFunction,ComponentPad*%
%ADD19C,1.400000*%
%TD*%
%TA.AperFunction,ComponentPad*%
%ADD20C,1.500000*%
%TD*%
%TA.AperFunction,ViaPad*%
%ADD21C,0.600000*%
%TD*%
%TA.AperFunction,ViaPad*%
%ADD22C,0.406400*%
%TD*%
G04 APERTURE END LIST*
D10*
%TO.N,N/C*%
%TO.C,U2*%
X165087500Y-88000000D03*
X165087500Y-88799998D03*
%TD*%
D11*
%TO.N,GND*%
%TO.C,J4*%
X159850000Y-76700000D03*
%TO.N,/USB_SIDE/USB3_TXP*%
X159150000Y-76300000D03*
%TO.N,/USB_SIDE/USB3_TXN*%
X159150000Y-75500000D03*
%TO.N,VBUS*%
X159850000Y-75100000D03*
%TO.N,unconnected-(J4-CC2-PadB5)*%
X159150000Y-74700000D03*
%TO.N,/USB_SIDE/USB2_P*%
X159850000Y-74300000D03*
%TO.N,/USB_SIDE/USB2_N*%
X159850000Y-73500000D03*
%TO.N,unconnected-(J4-SBU2-PadB8)*%
X159150000Y-73100000D03*
%TO.N,VBUS*%
X159850000Y-72700000D03*
%TO.N,/USB_SIDE/USB3_RXN*%
X159150000Y-72300000D03*
%TO.N,/USB_SIDE/USB3_RXP*%
X159150000Y-71500000D03*
%TO.N,GND*%
X159850000Y-71100000D03*
D12*
%TO.N,USB_SHIELD*%
X159000000Y-78230000D03*
X159000000Y-69570000D03*
D13*
X154500000Y-69570000D03*
X154500000Y-78230000D03*
%TD*%
D14*
%TO.N,GPIO10*%
%TO.C,J2*%
X215000000Y-99000000D03*
D15*
%TO.N,GPIO9*%
X213000000Y-99000000D03*
%TO.N,GPIO8*%
X211000000Y-99000000D03*
%TO.N,GPIO7*%
X209000000Y-99000000D03*
%TO.N,GPIO6*%
X207000000Y-99000000D03*
%TO.N,GPIO5*%
X205000000Y-99000000D03*
%TO.N,GPIO4*%
X203000000Y-99000000D03*
%TO.N,GND*%
X201000000Y-99000000D03*
%TD*%
D16*
%TO.N,Net-(U1-EECS{slash}GPIO0)*%
%TO.C,U3*%
X177000000Y-61620000D03*
D17*
%TO.N,Net-(U1-EECLK{slash}GPIO3)*%
X177000000Y-59080000D03*
%TO.N,Net-(U1-EEDI{slash}GPIO1)*%
X177000000Y-56540000D03*
%TO.N,Net-(U1-EEDO{slash}GPIO2)*%
X177000000Y-54000000D03*
%TO.N,GND*%
X169380000Y-54000000D03*
%TO.N,Net-(U3-ORG)*%
X169380000Y-56540000D03*
%TO.N,unconnected-(U3-NC-Pad7)*%
X169380000Y-59080000D03*
%TO.N,VDD33A*%
X169380000Y-61620000D03*
%TD*%
D18*
%TO.N,/ETH_SIDE/BI_DA+*%
%TO.C,J3*%
X244351048Y-74819040D03*
D19*
%TO.N,/ETH_SIDE/BI_DA-*%
X244351048Y-72019040D03*
D20*
%TO.N,Net-(J3-GND_1)*%
X241751048Y-69619040D03*
X241751048Y-77219040D03*
X251501048Y-68969040D03*
X251501048Y-77869040D03*
%TD*%
D21*
%TO.N,GND*%
X223500000Y-65500000D03*
X192000000Y-76500000D03*
X192000000Y-74500000D03*
X233000000Y-63000000D03*
X189000000Y-76500000D03*
X220500000Y-76500000D03*
X189000000Y-75500000D03*
X188000000Y-74500000D03*
X180500000Y-72500000D03*
X189000000Y-73500000D03*
X214000000Y-89000000D03*
X191000000Y-76500000D03*
X218500000Y-76500000D03*
X193000000Y-73500000D03*
X189000000Y-78500000D03*
X193000000Y-75500000D03*
X163000000Y-78500000D03*
X220500000Y-74500000D03*
X194500000Y-68000000D03*
X189000000Y-77500000D03*
X193000000Y-78500000D03*
X183500000Y-85500000D03*
X200007231Y-80507232D03*
X210500000Y-58500000D03*
X191000000Y-73500000D03*
X185000000Y-85000000D03*
X189000000Y-74500000D03*
X155087500Y-87000000D03*
X167000000Y-54000000D03*
X189424407Y-84619715D03*
X188000000Y-76500000D03*
X190000000Y-78500000D03*
X190500000Y-58000000D03*
X191000000Y-77500000D03*
X192000000Y-73500000D03*
X193000000Y-74500000D03*
X188000000Y-78500000D03*
X191000000Y-74500000D03*
X216287863Y-56208422D03*
X188000000Y-73500000D03*
X233000000Y-68500000D03*
X190000000Y-74500000D03*
X163087500Y-86500000D03*
X186000000Y-85500000D03*
X185500000Y-87000000D03*
X252387335Y-87387335D03*
X163087500Y-90500000D03*
X191500000Y-91000000D03*
X190000000Y-77500000D03*
X198500000Y-57000000D03*
X192000000Y-77500000D03*
X191000000Y-75500000D03*
X184000000Y-93500000D03*
X248000000Y-62000000D03*
X188000000Y-75500000D03*
X201500000Y-73500000D03*
X165500000Y-86500000D03*
X193000000Y-77500000D03*
X192000000Y-78500000D03*
X190000000Y-73500000D03*
X193000000Y-76500000D03*
X186500000Y-64345000D03*
X201500000Y-76000000D03*
X235000000Y-67500000D03*
X190000000Y-75500000D03*
X155000000Y-85000000D03*
X165500000Y-65500000D03*
X192000000Y-75500000D03*
X227500000Y-85000000D03*
X191000000Y-78500000D03*
X163000000Y-70500000D03*
X201000000Y-97000000D03*
X198500000Y-62500000D03*
X188000000Y-77500000D03*
X198000000Y-85000000D03*
X190000000Y-76500000D03*
X220000000Y-60500000D03*
X196500000Y-83510416D03*
X176500000Y-79500000D03*
X218500000Y-74500000D03*
%TO.N,VDD33A*%
X189149999Y-68500000D03*
X183500000Y-81500000D03*
X195000000Y-69000000D03*
X187000000Y-85500000D03*
X243801827Y-98301827D03*
X174500000Y-86500000D03*
X198500000Y-73500000D03*
X199000000Y-76000000D03*
X202000000Y-89000000D03*
X182500000Y-65000000D03*
X207000000Y-53000000D03*
X192500000Y-62000000D03*
X184500000Y-72500000D03*
X186000000Y-83000000D03*
X220000000Y-92000000D03*
X167000000Y-62500000D03*
X245329331Y-86000000D03*
X202500000Y-79050001D03*
X232000000Y-60500000D03*
%TO.N,VDD12A*%
X189500000Y-82000000D03*
X186500000Y-67845000D03*
X184500000Y-74500000D03*
X193500000Y-83500000D03*
X184500000Y-77000000D03*
%TO.N,VDD12*%
X183500000Y-60500000D03*
%TO.N,XI*%
X186000000Y-88500000D03*
X188000000Y-83500000D03*
%TO.N,XO*%
X190500000Y-92000000D03*
X188500000Y-84500000D03*
%TO.N,/ETH_SIDE/VddioA*%
X205000000Y-65000000D03*
X215000000Y-80500000D03*
%TO.N,/ETH_SIDE/Vdd1p0A*%
X226500000Y-80000000D03*
X215000000Y-67000000D03*
%TO.N,/ETH_SIDE/Vdda3p3*%
X221674265Y-84174265D03*
X220500001Y-87500000D03*
%TO.N,Net-(D4-K)*%
X251500000Y-92000000D03*
%TO.N,/ETH_SIDE/LED_1*%
X252000000Y-98500000D03*
X218000000Y-88000000D03*
%TO.N,VBUS*%
X163000000Y-73000000D03*
X163000000Y-75000000D03*
X161500000Y-82000000D03*
%TO.N,/ETH_SIDE/LED_0_STRP_ON*%
X243500000Y-96000000D03*
%TO.N,GPIO4*%
X203000000Y-96500000D03*
X173500000Y-72500000D03*
%TO.N,GPIO5*%
X205000000Y-96000000D03*
X173500000Y-73500000D03*
%TO.N,RESET_N*%
X177500000Y-70000000D03*
X182000000Y-80000000D03*
X174500000Y-70500000D03*
X184000000Y-67000000D03*
%TO.N,TEST*%
X181500000Y-79000000D03*
%TO.N,Net-(U1-EECLK{slash}GPIO3)*%
X187500000Y-64000000D03*
X179500000Y-59000000D03*
%TO.N,RXD2*%
X208000000Y-69000000D03*
X227100000Y-90900000D03*
%TO.N,TXD3*%
X211000000Y-80500000D03*
X211000000Y-76000000D03*
%TO.N,RX_CTL*%
X227500000Y-75000000D03*
X208000000Y-71500000D03*
%TO.N,RXD1*%
X226500000Y-89000000D03*
X212000000Y-70000000D03*
%TO.N,TXD2*%
X212500000Y-79500000D03*
X212500000Y-76000000D03*
%TO.N,Net-(U1-EEDO{slash}GPIO2)*%
X189000000Y-64500000D03*
X181500000Y-54000000D03*
%TO.N,TXD1*%
X214000000Y-78500000D03*
X214000000Y-76000000D03*
%TO.N,Net-(U1-EEDI{slash}GPIO1)*%
X190000000Y-64000000D03*
X186500000Y-56500000D03*
%TO.N,RXD0*%
X226000000Y-87500000D03*
X215000000Y-70500000D03*
%TO.N,PHY_RESET_N*%
X182500000Y-69500000D03*
X206000000Y-82500000D03*
%TO.N,MDC*%
X190000000Y-86500000D03*
X217499999Y-84100000D03*
%TO.N,PHY_INT_N*%
X183500000Y-69500000D03*
X205400000Y-81000000D03*
%TO.N,REF_25CLK*%
X219500000Y-80500000D03*
X193500000Y-86000000D03*
%TO.N,/ETH_SIDE/BI_DA+*%
X235000000Y-76000000D03*
X233340910Y-78925117D03*
%TO.N,MDIO*%
X216500000Y-86000000D03*
X190000000Y-88000000D03*
D22*
%TO.N,/USB_SIDE/USB2_P*%
X160500000Y-73500000D03*
D21*
X171500000Y-73500000D03*
X164000000Y-73500000D03*
%TO.N,/USB_SIDE/USB2_N*%
X164500000Y-74000000D03*
X171234835Y-74265165D03*
%TO.N,/ETH_SIDE/LED_0_DIP*%
X214000000Y-93500000D03*
X215600000Y-82400000D03*
D22*
%TO.N,/USB_SIDE/USB3_TXN*%
X161685001Y-72150000D03*
%TO.N,/USB_SIDE/USB3_RXN*%
X162000000Y-75650000D03*
D21*
X169500000Y-78000000D03*
X166000000Y-76000000D03*
D22*
%TO.N,/USB_SIDE/USB3_RXP*%
X162500000Y-76500000D03*
%TO.N,/USB_SIDE/USB3_TXP*%
X164993200Y-71675000D03*
X164993200Y-71675000D03*
D21*
%TO.N,VDD33A*%
X197500000Y-82000000D03*
%TD*%
%TA.AperFunction,Conductor*%
%TO.N,GND*%
G36*
X253442539Y-51520185D02*
G01*
X253488294Y-51572989D01*
X253499500Y-51624500D01*
X253499500Y-100875500D01*
X253479815Y-100942539D01*
X253427011Y-100988294D01*
X253375500Y-100999500D01*
X153124500Y-100999500D01*
X153057461Y-100979815D01*
X153011706Y-100927011D01*
X153000500Y-100875500D01*
X153000500Y-98749999D01*
X199849494Y-98749999D01*
X199849495Y-98750000D01*
X200684314Y-98750000D01*
X200679920Y-98754394D01*
X200627259Y-98845606D01*
X200600000Y-98947339D01*
X200600000Y-99052661D01*
X200627259Y-99154394D01*
X200679920Y-99245606D01*
X200684314Y-99250000D01*
X199849495Y-99250000D01*
X199899651Y-99426280D01*
X199996715Y-99621208D01*
X200127945Y-99794985D01*
X200288868Y-99941685D01*
X200474012Y-100056322D01*
X200474023Y-100056327D01*
X200677060Y-100134984D01*
X200750000Y-100148619D01*
X200750000Y-99315686D01*
X200754394Y-99320080D01*
X200845606Y-99372741D01*
X200947339Y-99400000D01*
X201052661Y-99400000D01*
X201154394Y-99372741D01*
X201245606Y-99320080D01*
X201250000Y-99315686D01*
X201250000Y-100148619D01*
X201322939Y-100134984D01*
X201525976Y-100056327D01*
X201525987Y-100056322D01*
X201711130Y-99941685D01*
X201711131Y-99941685D01*
X201872055Y-99794984D01*
X201900730Y-99757012D01*
X201956838Y-99715374D01*
X202026550Y-99710681D01*
X202087733Y-99744422D01*
X202098640Y-99757009D01*
X202117512Y-99782000D01*
X202127573Y-99795322D01*
X202288568Y-99942088D01*
X202288575Y-99942092D01*
X202288576Y-99942093D01*
X202473786Y-100056770D01*
X202473792Y-100056773D01*
X202496664Y-100065633D01*
X202676931Y-100135470D01*
X202891074Y-100175500D01*
X202891076Y-100175500D01*
X203108924Y-100175500D01*
X203108926Y-100175500D01*
X203323069Y-100135470D01*
X203526210Y-100056772D01*
X203711432Y-99942088D01*
X203872427Y-99795322D01*
X203901047Y-99757422D01*
X203957153Y-99715787D01*
X204026865Y-99711094D01*
X204088048Y-99744836D01*
X204098946Y-99757414D01*
X204127573Y-99795322D01*
X204288568Y-99942088D01*
X204288575Y-99942092D01*
X204288576Y-99942093D01*
X204473786Y-100056770D01*
X204473792Y-100056773D01*
X204496664Y-100065633D01*
X204676931Y-100135470D01*
X204891074Y-100175500D01*
X204891076Y-100175500D01*
X205108924Y-100175500D01*
X205108926Y-100175500D01*
X205323069Y-100135470D01*
X205526210Y-100056772D01*
X205711432Y-99942088D01*
X205872427Y-99795322D01*
X205901047Y-99757422D01*
X205957153Y-99715787D01*
X206026865Y-99711094D01*
X206088048Y-99744836D01*
X206098946Y-99757414D01*
X206127573Y-99795322D01*
X206288568Y-99942088D01*
X206288575Y-99942092D01*
X206288576Y-99942093D01*
X206473786Y-100056770D01*
X206473792Y-100056773D01*
X206496664Y-100065633D01*
X206676931Y-100135470D01*
X206891074Y-100175500D01*
X206891076Y-100175500D01*
X207108924Y-100175500D01*
X207108926Y-100175500D01*
X207323069Y-100135470D01*
X207526210Y-100056772D01*
X207711432Y-99942088D01*
X207872427Y-99795322D01*
X207901047Y-99757422D01*
X207957153Y-99715787D01*
X208026865Y-99711094D01*
X208088048Y-99744836D01*
X208098946Y-99757414D01*
X208127573Y-99795322D01*
X208288568Y-99942088D01*
X208288575Y-99942092D01*
X208288576Y-99942093D01*
X208473786Y-100056770D01*
X208473792Y-100056773D01*
X208496664Y-100065633D01*
X208676931Y-100135470D01*
X208891074Y-100175500D01*
X208891076Y-100175500D01*
X209108924Y-100175500D01*
X209108926Y-100175500D01*
X209323069Y-100135470D01*
X209526210Y-100056772D01*
X209711432Y-99942088D01*
X209872427Y-99795322D01*
X209901047Y-99757422D01*
X209957153Y-99715787D01*
X210026865Y-99711094D01*
X210088048Y-99744836D01*
X210098946Y-99757414D01*
X210127573Y-99795322D01*
X210288568Y-99942088D01*
X210288575Y-99942092D01*
X210288576Y-99942093D01*
X210473786Y-100056770D01*
X210473792Y-100056773D01*
X210496664Y-100065633D01*
X210676931Y-100135470D01*
X210891074Y-100175500D01*
X210891076Y-100175500D01*
X211108924Y-100175500D01*
X211108926Y-100175500D01*
X211323069Y-100135470D01*
X211526210Y-100056772D01*
X211711432Y-99942088D01*
X211872427Y-99795322D01*
X211901047Y-99757422D01*
X211957153Y-99715787D01*
X212026865Y-99711094D01*
X212088048Y-99744836D01*
X212098946Y-99757414D01*
X212127573Y-99795322D01*
X212288568Y-99942088D01*
X212288575Y-99942092D01*
X212288576Y-99942093D01*
X212473786Y-100056770D01*
X212473792Y-100056773D01*
X212496664Y-100065633D01*
X212676931Y-100135470D01*
X212891074Y-100175500D01*
X212891076Y-100175500D01*
X213108924Y-100175500D01*
X213108926Y-100175500D01*
X213323069Y-100135470D01*
X213526210Y-100056772D01*
X213711432Y-99942088D01*
X213722407Y-99932082D01*
X213785207Y-99901463D01*
X213854594Y-99909657D01*
X213905214Y-99949405D01*
X213967452Y-100032544D01*
X213967455Y-100032547D01*
X214082664Y-100118793D01*
X214082671Y-100118797D01*
X214217517Y-100169091D01*
X214217516Y-100169091D01*
X214224444Y-100169835D01*
X214277127Y-100175500D01*
X215722872Y-100175499D01*
X215782483Y-100169091D01*
X215917331Y-100118796D01*
X216032546Y-100032546D01*
X216118796Y-99917331D01*
X216169091Y-99782483D01*
X216175500Y-99722873D01*
X216175499Y-98301823D01*
X242996262Y-98301823D01*
X242996262Y-98301830D01*
X243016457Y-98481076D01*
X243016458Y-98481081D01*
X243076038Y-98651350D01*
X243158808Y-98783077D01*
X243172011Y-98804089D01*
X243299565Y-98931643D01*
X243452305Y-99027616D01*
X243622572Y-99087195D01*
X243622577Y-99087196D01*
X243801823Y-99107392D01*
X243801827Y-99107392D01*
X243801831Y-99107392D01*
X243981076Y-99087196D01*
X243981079Y-99087195D01*
X243981082Y-99087195D01*
X244151349Y-99027616D01*
X244304089Y-98931643D01*
X244431643Y-98804089D01*
X244527616Y-98651349D01*
X244580577Y-98499996D01*
X251194435Y-98499996D01*
X251194435Y-98500003D01*
X251214630Y-98679249D01*
X251214631Y-98679254D01*
X251274211Y-98849523D01*
X251368763Y-99000000D01*
X251370184Y-99002262D01*
X251497738Y-99129816D01*
X251650478Y-99225789D01*
X251820745Y-99285368D01*
X251820750Y-99285369D01*
X251999996Y-99305565D01*
X252000000Y-99305565D01*
X252000004Y-99305565D01*
X252179249Y-99285369D01*
X252179252Y-99285368D01*
X252179255Y-99285368D01*
X252349522Y-99225789D01*
X252502262Y-99129816D01*
X252629816Y-99002262D01*
X252725789Y-98849522D01*
X252785368Y-98679255D01*
X252788512Y-98651350D01*
X252805565Y-98500003D01*
X252805565Y-98499996D01*
X252785369Y-98320750D01*
X252785368Y-98320745D01*
X252749247Y-98217517D01*
X252725789Y-98150478D01*
X252708254Y-98122572D01*
X252667626Y-98057912D01*
X252629816Y-97997738D01*
X252502262Y-97870184D01*
X252472334Y-97851379D01*
X252349523Y-97774211D01*
X252179254Y-97714631D01*
X252179249Y-97714630D01*
X252000004Y-97694435D01*
X251999996Y-97694435D01*
X251820750Y-97714630D01*
X251820745Y-97714631D01*
X251650476Y-97774211D01*
X251497737Y-97870184D01*
X251370184Y-97997737D01*
X251274211Y-98150476D01*
X251214631Y-98320745D01*
X251214630Y-98320750D01*
X251194435Y-98499996D01*
X244580577Y-98499996D01*
X244587195Y-98481082D01*
X244587196Y-98481076D01*
X244607392Y-98301830D01*
X244607392Y-98301823D01*
X244587196Y-98122577D01*
X244587195Y-98122572D01*
X244562009Y-98050594D01*
X244527616Y-97952305D01*
X244431643Y-97799565D01*
X244304089Y-97672011D01*
X244151350Y-97576038D01*
X243981081Y-97516458D01*
X243981076Y-97516457D01*
X243801831Y-97496262D01*
X243801823Y-97496262D01*
X243622577Y-97516457D01*
X243622572Y-97516458D01*
X243452303Y-97576038D01*
X243299564Y-97672011D01*
X243172011Y-97799564D01*
X243076038Y-97952303D01*
X243016458Y-98122572D01*
X243016457Y-98122577D01*
X242996262Y-98301823D01*
X216175499Y-98301823D01*
X216175499Y-98277128D01*
X216169091Y-98217517D01*
X216164426Y-98205010D01*
X216118797Y-98082671D01*
X216118793Y-98082664D01*
X216032547Y-97967455D01*
X216032544Y-97967452D01*
X215917335Y-97881206D01*
X215917328Y-97881202D01*
X215782482Y-97830908D01*
X215782483Y-97830908D01*
X215722883Y-97824501D01*
X215722881Y-97824500D01*
X215722873Y-97824500D01*
X215722864Y-97824500D01*
X214277129Y-97824500D01*
X214277123Y-97824501D01*
X214217516Y-97830908D01*
X214082671Y-97881202D01*
X214082664Y-97881206D01*
X213967455Y-97967452D01*
X213905214Y-98050594D01*
X213849279Y-98092465D01*
X213779588Y-98097448D01*
X213722411Y-98067920D01*
X213711434Y-98057913D01*
X213711429Y-98057910D01*
X213526213Y-97943229D01*
X213526207Y-97943226D01*
X213441113Y-97910260D01*
X213323069Y-97864530D01*
X213108926Y-97824500D01*
X212891074Y-97824500D01*
X212676931Y-97864530D01*
X212633896Y-97881202D01*
X212473792Y-97943226D01*
X212473786Y-97943229D01*
X212288576Y-98057906D01*
X212288566Y-98057913D01*
X212127573Y-98204676D01*
X212098953Y-98242576D01*
X212042844Y-98284211D01*
X211973132Y-98288902D01*
X211911950Y-98255159D01*
X211901047Y-98242576D01*
X211872426Y-98204676D01*
X211711433Y-98057913D01*
X211711423Y-98057906D01*
X211526213Y-97943229D01*
X211526207Y-97943226D01*
X211441113Y-97910260D01*
X211323069Y-97864530D01*
X211108926Y-97824500D01*
X210891074Y-97824500D01*
X210676931Y-97864530D01*
X210633896Y-97881202D01*
X210473792Y-97943226D01*
X210473786Y-97943229D01*
X210288576Y-98057906D01*
X210288566Y-98057913D01*
X210127573Y-98204676D01*
X210098953Y-98242576D01*
X210042844Y-98284211D01*
X209973132Y-98288902D01*
X209911950Y-98255159D01*
X209901047Y-98242576D01*
X209872426Y-98204676D01*
X209711433Y-98057913D01*
X209711423Y-98057906D01*
X209526213Y-97943229D01*
X209526207Y-97943226D01*
X209441113Y-97910260D01*
X209323069Y-97864530D01*
X209108926Y-97824500D01*
X208891074Y-97824500D01*
X208676931Y-97864530D01*
X208633896Y-97881202D01*
X208473792Y-97943226D01*
X208473786Y-97943229D01*
X208288576Y-98057906D01*
X208288566Y-98057913D01*
X208127573Y-98204676D01*
X208098953Y-98242576D01*
X208042844Y-98284211D01*
X207973132Y-98288902D01*
X207911950Y-98255159D01*
X207901047Y-98242576D01*
X207872426Y-98204676D01*
X207711433Y-98057913D01*
X207711423Y-98057906D01*
X207526213Y-97943229D01*
X207526207Y-97943226D01*
X207441113Y-97910260D01*
X207323069Y-97864530D01*
X207108926Y-97824500D01*
X206891074Y-97824500D01*
X206676931Y-97864530D01*
X206633896Y-97881202D01*
X206473792Y-97943226D01*
X206473786Y-97943229D01*
X206288576Y-98057906D01*
X206288566Y-98057913D01*
X206127573Y-98204676D01*
X206098953Y-98242576D01*
X206042844Y-98284211D01*
X205973132Y-98288902D01*
X205911950Y-98255159D01*
X205901047Y-98242576D01*
X205872426Y-98204676D01*
X205711433Y-98057913D01*
X205711423Y-98057906D01*
X205526213Y-97943229D01*
X205526207Y-97943226D01*
X205441113Y-97910260D01*
X205323069Y-97864530D01*
X205108926Y-97824500D01*
X204891074Y-97824500D01*
X204676931Y-97864530D01*
X204633896Y-97881202D01*
X204473792Y-97943226D01*
X204473786Y-97943229D01*
X204288576Y-98057906D01*
X204288566Y-98057913D01*
X204127573Y-98204676D01*
X204098953Y-98242576D01*
X204042844Y-98284211D01*
X203973132Y-98288902D01*
X203911950Y-98255159D01*
X203901047Y-98242576D01*
X203872426Y-98204676D01*
X203711433Y-98057913D01*
X203711423Y-98057906D01*
X203526213Y-97943229D01*
X203526207Y-97943226D01*
X203441113Y-97910260D01*
X203323069Y-97864530D01*
X203108926Y-97824500D01*
X202891074Y-97824500D01*
X202676931Y-97864530D01*
X202633896Y-97881202D01*
X202473792Y-97943226D01*
X202473786Y-97943229D01*
X202288576Y-98057906D01*
X202288566Y-98057913D01*
X202127574Y-98204676D01*
X202098640Y-98242991D01*
X202042530Y-98284627D01*
X201972818Y-98289318D01*
X201911637Y-98255576D01*
X201900731Y-98242990D01*
X201872051Y-98205011D01*
X201872050Y-98205010D01*
X201711131Y-98058314D01*
X201525987Y-97943677D01*
X201525985Y-97943676D01*
X201322931Y-97865013D01*
X201322921Y-97865010D01*
X201250001Y-97851378D01*
X201250000Y-97851379D01*
X201250000Y-98684314D01*
X201245606Y-98679920D01*
X201154394Y-98627259D01*
X201052661Y-98600000D01*
X200947339Y-98600000D01*
X200845606Y-98627259D01*
X200754394Y-98679920D01*
X200750000Y-98684314D01*
X200750000Y-97851379D01*
X200749998Y-97851378D01*
X200677078Y-97865010D01*
X200677068Y-97865013D01*
X200474014Y-97943676D01*
X200474012Y-97943677D01*
X200288869Y-98058314D01*
X200288868Y-98058314D01*
X200127945Y-98205014D01*
X199996715Y-98378791D01*
X199899651Y-98573719D01*
X199849494Y-98749999D01*
X153000500Y-98749999D01*
X153000500Y-96499996D01*
X202194435Y-96499996D01*
X202194435Y-96500003D01*
X202214630Y-96679249D01*
X202214631Y-96679254D01*
X202274211Y-96849523D01*
X202370184Y-97002262D01*
X202497738Y-97129816D01*
X202650478Y-97225789D01*
X202820745Y-97285368D01*
X202820750Y-97285369D01*
X202999996Y-97305565D01*
X203000000Y-97305565D01*
X203000004Y-97305565D01*
X203179249Y-97285369D01*
X203179252Y-97285368D01*
X203179255Y-97285368D01*
X203349522Y-97225789D01*
X203502262Y-97129816D01*
X203629816Y-97002262D01*
X203725789Y-96849522D01*
X203785368Y-96679255D01*
X203785369Y-96679249D01*
X203805565Y-96500003D01*
X203805565Y-96499996D01*
X203785369Y-96320750D01*
X203785368Y-96320745D01*
X203725789Y-96150478D01*
X203631235Y-95999996D01*
X204194435Y-95999996D01*
X204194435Y-96000003D01*
X204214630Y-96179249D01*
X204214631Y-96179254D01*
X204274211Y-96349523D01*
X204368760Y-96499996D01*
X204370184Y-96502262D01*
X204497738Y-96629816D01*
X204650478Y-96725789D01*
X204820745Y-96785368D01*
X204820750Y-96785369D01*
X204999996Y-96805565D01*
X205000000Y-96805565D01*
X205000004Y-96805565D01*
X205179249Y-96785369D01*
X205179252Y-96785368D01*
X205179255Y-96785368D01*
X205349522Y-96725789D01*
X205502262Y-96629816D01*
X205629816Y-96502262D01*
X205725789Y-96349522D01*
X205785368Y-96179255D01*
X205785369Y-96179249D01*
X205805565Y-96000003D01*
X205805565Y-95999996D01*
X242694435Y-95999996D01*
X242694435Y-96000003D01*
X242714630Y-96179249D01*
X242714631Y-96179254D01*
X242774211Y-96349523D01*
X242868760Y-96499996D01*
X242870184Y-96502262D01*
X242997738Y-96629816D01*
X243150478Y-96725789D01*
X243320745Y-96785368D01*
X243320750Y-96785369D01*
X243499996Y-96805565D01*
X243500000Y-96805565D01*
X243500004Y-96805565D01*
X243679249Y-96785369D01*
X243679252Y-96785368D01*
X243679255Y-96785368D01*
X243849522Y-96725789D01*
X244002262Y-96629816D01*
X244129816Y-96502262D01*
X244225789Y-96349522D01*
X244285368Y-96179255D01*
X244285369Y-96179249D01*
X244305565Y-96000003D01*
X244305565Y-95999996D01*
X244285369Y-95820750D01*
X244285368Y-95820745D01*
X244225788Y-95650476D01*
X244129815Y-95497737D01*
X244002262Y-95370184D01*
X243849523Y-95274211D01*
X243679254Y-95214631D01*
X243679249Y-95214630D01*
X243500004Y-95194435D01*
X243499996Y-95194435D01*
X243320750Y-95214630D01*
X243320745Y-95214631D01*
X243150476Y-95274211D01*
X242997737Y-95370184D01*
X242870184Y-95497737D01*
X242774211Y-95650476D01*
X242714631Y-95820745D01*
X242714630Y-95820750D01*
X242694435Y-95999996D01*
X205805565Y-95999996D01*
X205785369Y-95820750D01*
X205785368Y-95820745D01*
X205725788Y-95650476D01*
X205629815Y-95497737D01*
X205502262Y-95370184D01*
X205349523Y-95274211D01*
X205179254Y-95214631D01*
X205179249Y-95214630D01*
X205000004Y-95194435D01*
X204999996Y-95194435D01*
X204820750Y-95214630D01*
X204820745Y-95214631D01*
X204650476Y-95274211D01*
X204497737Y-95370184D01*
X204370184Y-95497737D01*
X204274211Y-95650476D01*
X204214631Y-95820745D01*
X204214630Y-95820750D01*
X204194435Y-95999996D01*
X203631235Y-95999996D01*
X203629816Y-95997738D01*
X203502262Y-95870184D01*
X203349523Y-95774211D01*
X203179254Y-95714631D01*
X203179249Y-95714630D01*
X203000004Y-95694435D01*
X202999996Y-95694435D01*
X202820750Y-95714630D01*
X202820745Y-95714631D01*
X202650476Y-95774211D01*
X202497737Y-95870184D01*
X202370184Y-95997737D01*
X202274211Y-96150476D01*
X202214631Y-96320745D01*
X202214630Y-96320750D01*
X202194435Y-96499996D01*
X153000500Y-96499996D01*
X153000500Y-93499996D01*
X213194435Y-93499996D01*
X213194435Y-93500003D01*
X213214630Y-93679249D01*
X213214631Y-93679254D01*
X213274211Y-93849523D01*
X213370184Y-94002262D01*
X213497738Y-94129816D01*
X213650478Y-94225789D01*
X213820745Y-94285368D01*
X213820750Y-94285369D01*
X213999996Y-94305565D01*
X214000000Y-94305565D01*
X214000004Y-94305565D01*
X214179249Y-94285369D01*
X214179252Y-94285368D01*
X214179255Y-94285368D01*
X214349522Y-94225789D01*
X214502262Y-94129816D01*
X214629816Y-94002262D01*
X214725789Y-93849522D01*
X214785368Y-93679255D01*
X214805565Y-93500000D01*
X214785368Y-93320745D01*
X214725789Y-93150478D01*
X214629816Y-92997738D01*
X214502262Y-92870184D01*
X214399422Y-92805565D01*
X214349523Y-92774211D01*
X214179254Y-92714631D01*
X214179249Y-92714630D01*
X214000004Y-92694435D01*
X213999996Y-92694435D01*
X213820750Y-92714630D01*
X213820745Y-92714631D01*
X213650476Y-92774211D01*
X213497737Y-92870184D01*
X213370184Y-92997737D01*
X213274211Y-93150476D01*
X213214631Y-93320745D01*
X213214630Y-93320750D01*
X213194435Y-93499996D01*
X153000500Y-93499996D01*
X153000500Y-91999996D01*
X189694435Y-91999996D01*
X189694435Y-92000003D01*
X189714630Y-92179249D01*
X189714631Y-92179254D01*
X189774211Y-92349523D01*
X189870184Y-92502262D01*
X189997738Y-92629816D01*
X190088080Y-92686582D01*
X190132721Y-92714632D01*
X190150478Y-92725789D01*
X190288860Y-92774211D01*
X190320745Y-92785368D01*
X190320750Y-92785369D01*
X190499996Y-92805565D01*
X190500000Y-92805565D01*
X190500004Y-92805565D01*
X190679249Y-92785369D01*
X190679252Y-92785368D01*
X190679255Y-92785368D01*
X190849522Y-92725789D01*
X191002262Y-92629816D01*
X191129816Y-92502262D01*
X191225789Y-92349522D01*
X191285368Y-92179255D01*
X191305565Y-92000000D01*
X191305565Y-91999996D01*
X219194435Y-91999996D01*
X219194435Y-92000003D01*
X219214630Y-92179249D01*
X219214631Y-92179254D01*
X219274211Y-92349523D01*
X219370184Y-92502262D01*
X219497738Y-92629816D01*
X219588080Y-92686582D01*
X219632721Y-92714632D01*
X219650478Y-92725789D01*
X219788860Y-92774211D01*
X219820745Y-92785368D01*
X219820750Y-92785369D01*
X219999996Y-92805565D01*
X220000000Y-92805565D01*
X220000004Y-92805565D01*
X220179249Y-92785369D01*
X220179252Y-92785368D01*
X220179255Y-92785368D01*
X220349522Y-92725789D01*
X220502262Y-92629816D01*
X220629816Y-92502262D01*
X220725789Y-92349522D01*
X220785368Y-92179255D01*
X220805565Y-92000000D01*
X220805565Y-91999996D01*
X250694435Y-91999996D01*
X250694435Y-92000003D01*
X250714630Y-92179249D01*
X250714631Y-92179254D01*
X250774211Y-92349523D01*
X250870184Y-92502262D01*
X250997738Y-92629816D01*
X251088080Y-92686582D01*
X251132721Y-92714632D01*
X251150478Y-92725789D01*
X251288860Y-92774211D01*
X251320745Y-92785368D01*
X251320750Y-92785369D01*
X251499996Y-92805565D01*
X251500000Y-92805565D01*
X251500004Y-92805565D01*
X251679249Y-92785369D01*
X251679252Y-92785368D01*
X251679255Y-92785368D01*
X251849522Y-92725789D01*
X252002262Y-92629816D01*
X252129816Y-92502262D01*
X252225789Y-92349522D01*
X252285368Y-92179255D01*
X252305565Y-92000000D01*
X252285368Y-91820745D01*
X252225789Y-91650478D01*
X252129816Y-91497738D01*
X252002262Y-91370184D01*
X251849523Y-91274211D01*
X251679254Y-91214631D01*
X251679249Y-91214630D01*
X251500004Y-91194435D01*
X251499996Y-91194435D01*
X251320750Y-91214630D01*
X251320745Y-91214631D01*
X251150476Y-91274211D01*
X250997737Y-91370184D01*
X250870184Y-91497737D01*
X250774211Y-91650476D01*
X250714631Y-91820745D01*
X250714630Y-91820750D01*
X250694435Y-91999996D01*
X220805565Y-91999996D01*
X220785368Y-91820745D01*
X220725789Y-91650478D01*
X220629816Y-91497738D01*
X220502262Y-91370184D01*
X220349523Y-91274211D01*
X220179254Y-91214631D01*
X220179249Y-91214630D01*
X220000004Y-91194435D01*
X219999996Y-91194435D01*
X219820750Y-91214630D01*
X219820745Y-91214631D01*
X219650476Y-91274211D01*
X219497737Y-91370184D01*
X219370184Y-91497737D01*
X219274211Y-91650476D01*
X219214631Y-91820745D01*
X219214630Y-91820750D01*
X219194435Y-91999996D01*
X191305565Y-91999996D01*
X191285368Y-91820745D01*
X191225789Y-91650478D01*
X191129816Y-91497738D01*
X191002262Y-91370184D01*
X190849523Y-91274211D01*
X190679254Y-91214631D01*
X190679249Y-91214630D01*
X190500004Y-91194435D01*
X190499996Y-91194435D01*
X190320750Y-91214630D01*
X190320745Y-91214631D01*
X190150476Y-91274211D01*
X189997737Y-91370184D01*
X189870184Y-91497737D01*
X189774211Y-91650476D01*
X189714631Y-91820745D01*
X189714630Y-91820750D01*
X189694435Y-91999996D01*
X153000500Y-91999996D01*
X153000500Y-90899996D01*
X226294435Y-90899996D01*
X226294435Y-90900003D01*
X226314630Y-91079249D01*
X226314631Y-91079254D01*
X226374211Y-91249523D01*
X226389724Y-91274211D01*
X226470184Y-91402262D01*
X226597738Y-91529816D01*
X226750478Y-91625789D01*
X226920745Y-91685368D01*
X226920750Y-91685369D01*
X227099996Y-91705565D01*
X227100000Y-91705565D01*
X227100004Y-91705565D01*
X227279249Y-91685369D01*
X227279252Y-91685368D01*
X227279255Y-91685368D01*
X227449522Y-91625789D01*
X227602262Y-91529816D01*
X227729816Y-91402262D01*
X227825789Y-91249522D01*
X227885368Y-91079255D01*
X227905565Y-90900000D01*
X227885368Y-90720745D01*
X227825789Y-90550478D01*
X227729816Y-90397738D01*
X227602262Y-90270184D01*
X227449523Y-90174211D01*
X227279254Y-90114631D01*
X227279249Y-90114630D01*
X227100004Y-90094435D01*
X227099996Y-90094435D01*
X226920750Y-90114630D01*
X226920745Y-90114631D01*
X226750476Y-90174211D01*
X226597737Y-90270184D01*
X226470184Y-90397737D01*
X226374211Y-90550476D01*
X226314631Y-90720745D01*
X226314630Y-90720750D01*
X226294435Y-90899996D01*
X153000500Y-90899996D01*
X153000500Y-87999997D01*
X164332252Y-87999997D01*
X164332252Y-88000002D01*
X164351186Y-88168053D01*
X164351187Y-88168056D01*
X164407045Y-88327691D01*
X164411027Y-88334028D01*
X164430027Y-88401265D01*
X164411027Y-88465970D01*
X164407045Y-88472306D01*
X164351187Y-88631941D01*
X164351186Y-88631944D01*
X164332252Y-88799995D01*
X164332252Y-88800000D01*
X164351186Y-88968051D01*
X164351187Y-88968054D01*
X164407045Y-89127689D01*
X164468685Y-89225788D01*
X164497023Y-89270887D01*
X164616611Y-89390475D01*
X164759810Y-89480453D01*
X164919442Y-89536310D01*
X164919443Y-89536310D01*
X164919446Y-89536311D01*
X165087497Y-89555246D01*
X165087500Y-89555246D01*
X165087503Y-89555246D01*
X165255553Y-89536311D01*
X165255554Y-89536310D01*
X165255558Y-89536310D01*
X165415190Y-89480453D01*
X165558389Y-89390475D01*
X165677977Y-89270887D01*
X165767955Y-89127688D01*
X165823812Y-88968056D01*
X165840411Y-88820745D01*
X165842748Y-88800000D01*
X165842748Y-88799995D01*
X165823813Y-88631944D01*
X165823812Y-88631941D01*
X165823812Y-88631940D01*
X165777643Y-88499996D01*
X185194435Y-88499996D01*
X185194435Y-88500003D01*
X185214630Y-88679249D01*
X185214631Y-88679254D01*
X185274211Y-88849523D01*
X185348688Y-88968051D01*
X185370184Y-89002262D01*
X185497738Y-89129816D01*
X185650478Y-89225789D01*
X185779361Y-89270887D01*
X185820745Y-89285368D01*
X185820750Y-89285369D01*
X185999996Y-89305565D01*
X186000000Y-89305565D01*
X186000004Y-89305565D01*
X186179249Y-89285369D01*
X186179252Y-89285368D01*
X186179255Y-89285368D01*
X186349522Y-89225789D01*
X186502262Y-89129816D01*
X186629816Y-89002262D01*
X186631240Y-88999996D01*
X201194435Y-88999996D01*
X201194435Y-89000003D01*
X201214630Y-89179249D01*
X201214631Y-89179254D01*
X201274211Y-89349523D01*
X201356480Y-89480452D01*
X201370184Y-89502262D01*
X201497738Y-89629816D01*
X201650478Y-89725789D01*
X201820745Y-89785368D01*
X201820750Y-89785369D01*
X201999996Y-89805565D01*
X202000000Y-89805565D01*
X202000004Y-89805565D01*
X202179249Y-89785369D01*
X202179252Y-89785368D01*
X202179255Y-89785368D01*
X202349522Y-89725789D01*
X202502262Y-89629816D01*
X202629816Y-89502262D01*
X202725789Y-89349522D01*
X202785368Y-89179255D01*
X202785369Y-89179249D01*
X202805565Y-89000003D01*
X202805565Y-88999996D01*
X202785369Y-88820750D01*
X202785368Y-88820745D01*
X202752141Y-88725788D01*
X202725789Y-88650478D01*
X202714141Y-88631941D01*
X202686582Y-88588080D01*
X202629816Y-88497738D01*
X202502262Y-88370184D01*
X202434635Y-88327691D01*
X202349523Y-88274211D01*
X202179254Y-88214631D01*
X202179249Y-88214630D01*
X202000004Y-88194435D01*
X201999996Y-88194435D01*
X201820750Y-88214630D01*
X201820745Y-88214631D01*
X201650476Y-88274211D01*
X201497737Y-88370184D01*
X201370184Y-88497737D01*
X201274211Y-88650476D01*
X201214631Y-88820745D01*
X201214630Y-88820750D01*
X201194435Y-88999996D01*
X186631240Y-88999996D01*
X186725789Y-88849522D01*
X186785368Y-88679255D01*
X186785369Y-88679249D01*
X186805565Y-88500003D01*
X186805565Y-88499996D01*
X186785369Y-88320750D01*
X186785368Y-88320745D01*
X186748237Y-88214630D01*
X186725789Y-88150478D01*
X186629816Y-87997738D01*
X186502262Y-87870184D01*
X186441402Y-87831943D01*
X186349523Y-87774211D01*
X186179254Y-87714631D01*
X186179249Y-87714630D01*
X186000004Y-87694435D01*
X185999996Y-87694435D01*
X185820750Y-87714630D01*
X185820745Y-87714631D01*
X185650476Y-87774211D01*
X185497737Y-87870184D01*
X185370184Y-87997737D01*
X185274211Y-88150476D01*
X185214631Y-88320745D01*
X185214630Y-88320750D01*
X185194435Y-88499996D01*
X165777643Y-88499996D01*
X165767955Y-88472308D01*
X165763974Y-88465973D01*
X165744973Y-88398738D01*
X165763975Y-88334024D01*
X165767955Y-88327690D01*
X165823812Y-88168058D01*
X165829219Y-88120077D01*
X165842748Y-88000002D01*
X165842748Y-87999997D01*
X165823813Y-87831946D01*
X165823812Y-87831943D01*
X165819895Y-87820750D01*
X165767955Y-87672310D01*
X165677977Y-87529111D01*
X165558389Y-87409523D01*
X165495785Y-87370186D01*
X165415191Y-87319545D01*
X165255556Y-87263687D01*
X165255553Y-87263686D01*
X165087503Y-87244752D01*
X165087497Y-87244752D01*
X164919446Y-87263686D01*
X164919443Y-87263687D01*
X164759808Y-87319545D01*
X164616610Y-87409523D01*
X164497023Y-87529110D01*
X164407045Y-87672308D01*
X164351187Y-87831943D01*
X164351186Y-87831946D01*
X164332252Y-87999997D01*
X153000500Y-87999997D01*
X153000500Y-86499996D01*
X173694435Y-86499996D01*
X173694435Y-86500003D01*
X173714630Y-86679249D01*
X173714631Y-86679254D01*
X173774211Y-86849523D01*
X173867341Y-86997737D01*
X173870184Y-87002262D01*
X173997738Y-87129816D01*
X174061305Y-87169758D01*
X174132721Y-87214632D01*
X174150478Y-87225789D01*
X174288860Y-87274211D01*
X174320745Y-87285368D01*
X174320750Y-87285369D01*
X174499996Y-87305565D01*
X174500000Y-87305565D01*
X174500004Y-87305565D01*
X174679249Y-87285369D01*
X174679252Y-87285368D01*
X174679255Y-87285368D01*
X174849522Y-87225789D01*
X175002262Y-87129816D01*
X175129816Y-87002262D01*
X175225789Y-86849522D01*
X175285368Y-86679255D01*
X175285369Y-86679249D01*
X175305565Y-86500003D01*
X175305565Y-86499996D01*
X189194435Y-86499996D01*
X189194435Y-86500003D01*
X189214630Y-86679249D01*
X189214631Y-86679254D01*
X189274211Y-86849523D01*
X189367341Y-86997737D01*
X189370184Y-87002262D01*
X189497738Y-87129816D01*
X189521911Y-87145005D01*
X189521913Y-87145006D01*
X189568204Y-87197341D01*
X189578852Y-87266395D01*
X189550477Y-87330243D01*
X189521913Y-87354994D01*
X189497737Y-87370184D01*
X189370184Y-87497737D01*
X189274211Y-87650476D01*
X189214631Y-87820745D01*
X189214630Y-87820750D01*
X189194435Y-87999996D01*
X189194435Y-88000003D01*
X189214630Y-88179249D01*
X189214631Y-88179254D01*
X189274211Y-88349523D01*
X189347380Y-88465970D01*
X189370184Y-88502262D01*
X189497738Y-88629816D01*
X189650478Y-88725789D01*
X189820745Y-88785368D01*
X189820750Y-88785369D01*
X189999996Y-88805565D01*
X190000000Y-88805565D01*
X190000004Y-88805565D01*
X190179249Y-88785369D01*
X190179252Y-88785368D01*
X190179255Y-88785368D01*
X190349522Y-88725789D01*
X190502262Y-88629816D01*
X190629816Y-88502262D01*
X190725789Y-88349522D01*
X190785368Y-88179255D01*
X190786630Y-88168053D01*
X190805565Y-88000003D01*
X190805565Y-87999996D01*
X217194435Y-87999996D01*
X217194435Y-88000003D01*
X217214630Y-88179249D01*
X217214631Y-88179254D01*
X217274211Y-88349523D01*
X217347380Y-88465970D01*
X217370184Y-88502262D01*
X217497738Y-88629816D01*
X217650478Y-88725789D01*
X217820745Y-88785368D01*
X217820750Y-88785369D01*
X217999996Y-88805565D01*
X218000000Y-88805565D01*
X218000004Y-88805565D01*
X218179249Y-88785369D01*
X218179252Y-88785368D01*
X218179255Y-88785368D01*
X218349522Y-88725789D01*
X218502262Y-88629816D01*
X218629816Y-88502262D01*
X218725789Y-88349522D01*
X218785368Y-88179255D01*
X218786630Y-88168053D01*
X218805565Y-88000003D01*
X218805565Y-87999996D01*
X218785369Y-87820750D01*
X218785368Y-87820745D01*
X218741170Y-87694435D01*
X218725789Y-87650478D01*
X218631235Y-87499996D01*
X219694436Y-87499996D01*
X219694436Y-87500003D01*
X219714631Y-87679249D01*
X219714632Y-87679254D01*
X219774212Y-87849523D01*
X219867342Y-87997737D01*
X219870185Y-88002262D01*
X219997739Y-88129816D01*
X220058593Y-88168053D01*
X220132722Y-88214632D01*
X220150479Y-88225789D01*
X220288861Y-88274211D01*
X220320746Y-88285368D01*
X220320751Y-88285369D01*
X220499997Y-88305565D01*
X220500001Y-88305565D01*
X220500005Y-88305565D01*
X220679250Y-88285369D01*
X220679253Y-88285368D01*
X220679256Y-88285368D01*
X220849523Y-88225789D01*
X221002263Y-88129816D01*
X221129817Y-88002262D01*
X221225790Y-87849522D01*
X221285369Y-87679255D01*
X221286152Y-87672308D01*
X221305566Y-87500003D01*
X221305566Y-87499996D01*
X225194435Y-87499996D01*
X225194435Y-87500003D01*
X225214630Y-87679249D01*
X225214631Y-87679254D01*
X225274211Y-87849523D01*
X225367341Y-87997737D01*
X225370184Y-88002262D01*
X225497738Y-88129816D01*
X225558592Y-88168053D01*
X225632721Y-88214632D01*
X225650478Y-88225789D01*
X225788860Y-88274211D01*
X225827318Y-88287668D01*
X225826373Y-88290367D01*
X225876132Y-88318192D01*
X225908998Y-88379848D01*
X225903313Y-88449486D01*
X225875259Y-88492663D01*
X225870183Y-88497738D01*
X225774211Y-88650476D01*
X225714631Y-88820745D01*
X225714630Y-88820750D01*
X225694435Y-88999996D01*
X225694435Y-89000003D01*
X225714630Y-89179249D01*
X225714631Y-89179254D01*
X225774211Y-89349523D01*
X225856480Y-89480452D01*
X225870184Y-89502262D01*
X225997738Y-89629816D01*
X226150478Y-89725789D01*
X226320745Y-89785368D01*
X226320750Y-89785369D01*
X226499996Y-89805565D01*
X226500000Y-89805565D01*
X226500004Y-89805565D01*
X226679249Y-89785369D01*
X226679252Y-89785368D01*
X226679255Y-89785368D01*
X226849522Y-89725789D01*
X227002262Y-89629816D01*
X227129816Y-89502262D01*
X227225789Y-89349522D01*
X227285368Y-89179255D01*
X227285369Y-89179249D01*
X227305565Y-89000003D01*
X227305565Y-88999996D01*
X227285369Y-88820750D01*
X227285368Y-88820745D01*
X227252141Y-88725788D01*
X227225789Y-88650478D01*
X227214141Y-88631941D01*
X227186582Y-88588080D01*
X227129816Y-88497738D01*
X227002262Y-88370184D01*
X226934635Y-88327691D01*
X226849523Y-88274211D01*
X226672682Y-88212332D01*
X226673622Y-88209644D01*
X226623814Y-88181754D01*
X226590985Y-88120077D01*
X226596713Y-88050442D01*
X226624745Y-88007332D01*
X226629816Y-88002262D01*
X226725789Y-87849522D01*
X226785368Y-87679255D01*
X226786151Y-87672308D01*
X226805565Y-87500003D01*
X226805565Y-87499996D01*
X226785369Y-87320750D01*
X226785368Y-87320745D01*
X226765403Y-87263688D01*
X226725789Y-87150478D01*
X226629816Y-86997738D01*
X226502262Y-86870184D01*
X226399422Y-86805565D01*
X226349523Y-86774211D01*
X226179254Y-86714631D01*
X226179249Y-86714630D01*
X226000004Y-86694435D01*
X225999996Y-86694435D01*
X225820750Y-86714630D01*
X225820745Y-86714631D01*
X225650476Y-86774211D01*
X225497737Y-86870184D01*
X225370184Y-86997737D01*
X225274211Y-87150476D01*
X225214631Y-87320745D01*
X225214630Y-87320750D01*
X225194435Y-87499996D01*
X221305566Y-87499996D01*
X221285370Y-87320750D01*
X221285369Y-87320745D01*
X221265404Y-87263688D01*
X221225790Y-87150478D01*
X221129817Y-86997738D01*
X221002263Y-86870184D01*
X220899423Y-86805565D01*
X220849524Y-86774211D01*
X220679255Y-86714631D01*
X220679250Y-86714630D01*
X220500005Y-86694435D01*
X220499997Y-86694435D01*
X220320751Y-86714630D01*
X220320746Y-86714631D01*
X220150477Y-86774211D01*
X219997738Y-86870184D01*
X219870185Y-86997737D01*
X219774212Y-87150476D01*
X219714632Y-87320745D01*
X219714631Y-87320750D01*
X219694436Y-87499996D01*
X218631235Y-87499996D01*
X218629816Y-87497738D01*
X218502262Y-87370184D01*
X218478087Y-87354994D01*
X218349523Y-87274211D01*
X218179254Y-87214631D01*
X218179249Y-87214630D01*
X218000004Y-87194435D01*
X217999996Y-87194435D01*
X217820750Y-87214630D01*
X217820745Y-87214631D01*
X217650476Y-87274211D01*
X217497737Y-87370184D01*
X217370184Y-87497737D01*
X217274211Y-87650476D01*
X217214631Y-87820745D01*
X217214630Y-87820750D01*
X217194435Y-87999996D01*
X190805565Y-87999996D01*
X190785369Y-87820750D01*
X190785368Y-87820745D01*
X190741170Y-87694435D01*
X190725789Y-87650478D01*
X190629816Y-87497738D01*
X190502262Y-87370184D01*
X190478084Y-87354992D01*
X190431796Y-87302661D01*
X190421146Y-87233607D01*
X190449521Y-87169758D01*
X190478082Y-87145009D01*
X190502262Y-87129816D01*
X190629816Y-87002262D01*
X190725789Y-86849522D01*
X190785368Y-86679255D01*
X190785369Y-86679249D01*
X190805565Y-86500003D01*
X190805565Y-86499996D01*
X190785369Y-86320750D01*
X190785368Y-86320745D01*
X190752141Y-86225788D01*
X190725789Y-86150478D01*
X190631235Y-85999996D01*
X192694435Y-85999996D01*
X192694435Y-86000003D01*
X192714630Y-86179249D01*
X192714631Y-86179254D01*
X192774211Y-86349523D01*
X192868760Y-86499996D01*
X192870184Y-86502262D01*
X192997738Y-86629816D01*
X193076410Y-86679249D01*
X193132721Y-86714632D01*
X193150478Y-86725789D01*
X193288860Y-86774211D01*
X193320745Y-86785368D01*
X193320750Y-86785369D01*
X193499996Y-86805565D01*
X193500000Y-86805565D01*
X193500004Y-86805565D01*
X193679249Y-86785369D01*
X193679252Y-86785368D01*
X193679255Y-86785368D01*
X193849522Y-86725789D01*
X194002262Y-86629816D01*
X194129816Y-86502262D01*
X194225789Y-86349522D01*
X194285368Y-86179255D01*
X194285369Y-86179249D01*
X194305565Y-86000003D01*
X194305565Y-85999996D01*
X215694435Y-85999996D01*
X215694435Y-86000003D01*
X215714630Y-86179249D01*
X215714631Y-86179254D01*
X215774211Y-86349523D01*
X215868760Y-86499996D01*
X215870184Y-86502262D01*
X215997738Y-86629816D01*
X216076410Y-86679249D01*
X216132721Y-86714632D01*
X216150478Y-86725789D01*
X216288860Y-86774211D01*
X216320745Y-86785368D01*
X216320750Y-86785369D01*
X216499996Y-86805565D01*
X216500000Y-86805565D01*
X216500004Y-86805565D01*
X216679249Y-86785369D01*
X216679252Y-86785368D01*
X216679255Y-86785368D01*
X216849522Y-86725789D01*
X217002262Y-86629816D01*
X217129816Y-86502262D01*
X217225789Y-86349522D01*
X217285368Y-86179255D01*
X217285369Y-86179249D01*
X217305565Y-86000003D01*
X217305565Y-85999996D01*
X244523766Y-85999996D01*
X244523766Y-86000003D01*
X244543961Y-86179249D01*
X244543962Y-86179254D01*
X244603542Y-86349523D01*
X244698091Y-86499996D01*
X244699515Y-86502262D01*
X244827069Y-86629816D01*
X244905741Y-86679249D01*
X244962052Y-86714632D01*
X244979809Y-86725789D01*
X245118191Y-86774211D01*
X245150076Y-86785368D01*
X245150081Y-86785369D01*
X245329327Y-86805565D01*
X245329331Y-86805565D01*
X245329335Y-86805565D01*
X245508580Y-86785369D01*
X245508583Y-86785368D01*
X245508586Y-86785368D01*
X245678853Y-86725789D01*
X245831593Y-86629816D01*
X245959147Y-86502262D01*
X246055120Y-86349522D01*
X246114699Y-86179255D01*
X246114700Y-86179249D01*
X246134896Y-86000003D01*
X246134896Y-85999996D01*
X246114700Y-85820750D01*
X246114699Y-85820745D01*
X246070501Y-85694435D01*
X246055120Y-85650478D01*
X245959147Y-85497738D01*
X245831593Y-85370184D01*
X245678854Y-85274211D01*
X245508585Y-85214631D01*
X245508580Y-85214630D01*
X245329335Y-85194435D01*
X245329327Y-85194435D01*
X245150081Y-85214630D01*
X245150076Y-85214631D01*
X244979807Y-85274211D01*
X244827068Y-85370184D01*
X244699515Y-85497737D01*
X244603542Y-85650476D01*
X244543962Y-85820745D01*
X244543961Y-85820750D01*
X244523766Y-85999996D01*
X217305565Y-85999996D01*
X217285369Y-85820750D01*
X217285368Y-85820745D01*
X217241170Y-85694435D01*
X217225789Y-85650478D01*
X217129816Y-85497738D01*
X217002262Y-85370184D01*
X216849523Y-85274211D01*
X216679254Y-85214631D01*
X216679249Y-85214630D01*
X216500004Y-85194435D01*
X216499996Y-85194435D01*
X216320750Y-85214630D01*
X216320745Y-85214631D01*
X216150476Y-85274211D01*
X215997737Y-85370184D01*
X215870184Y-85497737D01*
X215774211Y-85650476D01*
X215714631Y-85820745D01*
X215714630Y-85820750D01*
X215694435Y-85999996D01*
X194305565Y-85999996D01*
X194285369Y-85820750D01*
X194285368Y-85820745D01*
X194241170Y-85694435D01*
X194225789Y-85650478D01*
X194129816Y-85497738D01*
X194002262Y-85370184D01*
X193849523Y-85274211D01*
X193679254Y-85214631D01*
X193679249Y-85214630D01*
X193500004Y-85194435D01*
X193499996Y-85194435D01*
X193320750Y-85214630D01*
X193320745Y-85214631D01*
X193150476Y-85274211D01*
X192997737Y-85370184D01*
X192870184Y-85497737D01*
X192774211Y-85650476D01*
X192714631Y-85820745D01*
X192714630Y-85820750D01*
X192694435Y-85999996D01*
X190631235Y-85999996D01*
X190629816Y-85997738D01*
X190502262Y-85870184D01*
X190469379Y-85849522D01*
X190349523Y-85774211D01*
X190179254Y-85714631D01*
X190179249Y-85714630D01*
X190000004Y-85694435D01*
X189999996Y-85694435D01*
X189820750Y-85714630D01*
X189820745Y-85714631D01*
X189650476Y-85774211D01*
X189497737Y-85870184D01*
X189370184Y-85997737D01*
X189274211Y-86150476D01*
X189214631Y-86320745D01*
X189214630Y-86320750D01*
X189194435Y-86499996D01*
X175305565Y-86499996D01*
X175285369Y-86320750D01*
X175285368Y-86320745D01*
X175252141Y-86225788D01*
X175225789Y-86150478D01*
X175129816Y-85997738D01*
X175002262Y-85870184D01*
X174969379Y-85849522D01*
X174849523Y-85774211D01*
X174679254Y-85714631D01*
X174679249Y-85714630D01*
X174500004Y-85694435D01*
X174499996Y-85694435D01*
X174320750Y-85714630D01*
X174320745Y-85714631D01*
X174150476Y-85774211D01*
X173997737Y-85870184D01*
X173870184Y-85997737D01*
X173774211Y-86150476D01*
X173714631Y-86320745D01*
X173714630Y-86320750D01*
X173694435Y-86499996D01*
X153000500Y-86499996D01*
X153000500Y-85499996D01*
X186194435Y-85499996D01*
X186194435Y-85500003D01*
X186214630Y-85679249D01*
X186214631Y-85679254D01*
X186274211Y-85849523D01*
X186367341Y-85997737D01*
X186370184Y-86002262D01*
X186497738Y-86129816D01*
X186650478Y-86225789D01*
X186820745Y-86285368D01*
X186820750Y-86285369D01*
X186999996Y-86305565D01*
X187000000Y-86305565D01*
X187000004Y-86305565D01*
X187179249Y-86285369D01*
X187179252Y-86285368D01*
X187179255Y-86285368D01*
X187349522Y-86225789D01*
X187502262Y-86129816D01*
X187629816Y-86002262D01*
X187725789Y-85849522D01*
X187785368Y-85679255D01*
X187785369Y-85679249D01*
X187805565Y-85500003D01*
X187805565Y-85499996D01*
X187785369Y-85320750D01*
X187785368Y-85320745D01*
X187747722Y-85213159D01*
X187744161Y-85143380D01*
X187778890Y-85082752D01*
X187840883Y-85050525D01*
X187910458Y-85056930D01*
X187952445Y-85084523D01*
X187997738Y-85129816D01*
X188088080Y-85186582D01*
X188132721Y-85214632D01*
X188150478Y-85225789D01*
X188288860Y-85274211D01*
X188320745Y-85285368D01*
X188320750Y-85285369D01*
X188499996Y-85305565D01*
X188500000Y-85305565D01*
X188500004Y-85305565D01*
X188679249Y-85285369D01*
X188679252Y-85285368D01*
X188679255Y-85285368D01*
X188849522Y-85225789D01*
X189002262Y-85129816D01*
X189129816Y-85002262D01*
X189225789Y-84849522D01*
X189285368Y-84679255D01*
X189285369Y-84679249D01*
X189305565Y-84500003D01*
X189305565Y-84499996D01*
X189285369Y-84320750D01*
X189285368Y-84320745D01*
X189272989Y-84285368D01*
X189225789Y-84150478D01*
X189129816Y-83997738D01*
X189002262Y-83870184D01*
X188867280Y-83785369D01*
X188845590Y-83771740D01*
X188799299Y-83719405D01*
X188788342Y-83652862D01*
X188805565Y-83500002D01*
X188805565Y-83499996D01*
X192694435Y-83499996D01*
X192694435Y-83500003D01*
X192714630Y-83679249D01*
X192714631Y-83679254D01*
X192774211Y-83849523D01*
X192865627Y-83995010D01*
X192870184Y-84002262D01*
X192997738Y-84129816D01*
X193150478Y-84225789D01*
X193303258Y-84279249D01*
X193320745Y-84285368D01*
X193320750Y-84285369D01*
X193499996Y-84305565D01*
X193500000Y-84305565D01*
X193500004Y-84305565D01*
X193679249Y-84285369D01*
X193679252Y-84285368D01*
X193679255Y-84285368D01*
X193849522Y-84225789D01*
X194002262Y-84129816D01*
X194032082Y-84099996D01*
X216694434Y-84099996D01*
X216694434Y-84100003D01*
X216714629Y-84279249D01*
X216714630Y-84279254D01*
X216774210Y-84449523D01*
X216805924Y-84499995D01*
X216870183Y-84602262D01*
X216997737Y-84729816D01*
X217150477Y-84825789D01*
X217218305Y-84849523D01*
X217320744Y-84885368D01*
X217320749Y-84885369D01*
X217499995Y-84905565D01*
X217499999Y-84905565D01*
X217500003Y-84905565D01*
X217679248Y-84885369D01*
X217679251Y-84885368D01*
X217679254Y-84885368D01*
X217849521Y-84825789D01*
X218002261Y-84729816D01*
X218129815Y-84602262D01*
X218225788Y-84449522D01*
X218285367Y-84279255D01*
X218291391Y-84225789D01*
X218297197Y-84174261D01*
X220868700Y-84174261D01*
X220868700Y-84174268D01*
X220888895Y-84353514D01*
X220888896Y-84353519D01*
X220948476Y-84523788D01*
X220997785Y-84602262D01*
X221044449Y-84676527D01*
X221172003Y-84804081D01*
X221324743Y-84900054D01*
X221340493Y-84905565D01*
X221495010Y-84959633D01*
X221495015Y-84959634D01*
X221674261Y-84979830D01*
X221674265Y-84979830D01*
X221674269Y-84979830D01*
X221853514Y-84959634D01*
X221853517Y-84959633D01*
X221853520Y-84959633D01*
X222023787Y-84900054D01*
X222176527Y-84804081D01*
X222304081Y-84676527D01*
X222400054Y-84523787D01*
X222459633Y-84353520D01*
X222459634Y-84353514D01*
X222479830Y-84174268D01*
X222479830Y-84174261D01*
X222459634Y-83995015D01*
X222459633Y-83995010D01*
X222433648Y-83920750D01*
X222400054Y-83824743D01*
X222304081Y-83672003D01*
X222176527Y-83544449D01*
X222105792Y-83500003D01*
X222023788Y-83448476D01*
X221853519Y-83388896D01*
X221853514Y-83388895D01*
X221674269Y-83368700D01*
X221674261Y-83368700D01*
X221495015Y-83388895D01*
X221495010Y-83388896D01*
X221324741Y-83448476D01*
X221172002Y-83544449D01*
X221044449Y-83672002D01*
X220948476Y-83824741D01*
X220888896Y-83995010D01*
X220888895Y-83995015D01*
X220868700Y-84174261D01*
X218297197Y-84174261D01*
X218305564Y-84100003D01*
X218305564Y-84099996D01*
X218285368Y-83920750D01*
X218285367Y-83920745D01*
X218237997Y-83785369D01*
X218225788Y-83750478D01*
X218129815Y-83597738D01*
X218002261Y-83470184D01*
X217872894Y-83388897D01*
X217849522Y-83374211D01*
X217679253Y-83314631D01*
X217679248Y-83314630D01*
X217500003Y-83294435D01*
X217499995Y-83294435D01*
X217320749Y-83314630D01*
X217320744Y-83314631D01*
X217150475Y-83374211D01*
X216997736Y-83470184D01*
X216870183Y-83597737D01*
X216774210Y-83750476D01*
X216714630Y-83920745D01*
X216714629Y-83920750D01*
X216694434Y-84099996D01*
X194032082Y-84099996D01*
X194129816Y-84002262D01*
X194225789Y-83849522D01*
X194285368Y-83679255D01*
X194286185Y-83672003D01*
X194305565Y-83500003D01*
X194305565Y-83499996D01*
X194285369Y-83320750D01*
X194285368Y-83320745D01*
X194237998Y-83185369D01*
X194225789Y-83150478D01*
X194129816Y-82997738D01*
X194002262Y-82870184D01*
X193969379Y-82849522D01*
X193849523Y-82774211D01*
X193679254Y-82714631D01*
X193679249Y-82714630D01*
X193500004Y-82694435D01*
X193499996Y-82694435D01*
X193320750Y-82714630D01*
X193320745Y-82714631D01*
X193150476Y-82774211D01*
X192997737Y-82870184D01*
X192870184Y-82997737D01*
X192774211Y-83150476D01*
X192714631Y-83320745D01*
X192714630Y-83320750D01*
X192694435Y-83499996D01*
X188805565Y-83499996D01*
X188785369Y-83320750D01*
X188785368Y-83320745D01*
X188737998Y-83185369D01*
X188725789Y-83150478D01*
X188629816Y-82997738D01*
X188502262Y-82870184D01*
X188469379Y-82849522D01*
X188349523Y-82774211D01*
X188179254Y-82714631D01*
X188179249Y-82714630D01*
X188000004Y-82694435D01*
X187999996Y-82694435D01*
X187820750Y-82714630D01*
X187820745Y-82714631D01*
X187650476Y-82774211D01*
X187497737Y-82870184D01*
X187370184Y-82997737D01*
X187274211Y-83150476D01*
X187214631Y-83320745D01*
X187214630Y-83320750D01*
X187194435Y-83499996D01*
X187194435Y-83500003D01*
X187214630Y-83679249D01*
X187214631Y-83679254D01*
X187274211Y-83849523D01*
X187365627Y-83995010D01*
X187370184Y-84002262D01*
X187497738Y-84129816D01*
X187568472Y-84174261D01*
X187654409Y-84228259D01*
X187700700Y-84280594D01*
X187711657Y-84347136D01*
X187694435Y-84499995D01*
X187694435Y-84500003D01*
X187714630Y-84679249D01*
X187714632Y-84679257D01*
X187752277Y-84786841D01*
X187755838Y-84856620D01*
X187721109Y-84917247D01*
X187659115Y-84949474D01*
X187589540Y-84943068D01*
X187547554Y-84915476D01*
X187502262Y-84870184D01*
X187349523Y-84774211D01*
X187179254Y-84714631D01*
X187179249Y-84714630D01*
X187000004Y-84694435D01*
X186999996Y-84694435D01*
X186820750Y-84714630D01*
X186820745Y-84714631D01*
X186650476Y-84774211D01*
X186497737Y-84870184D01*
X186370184Y-84997737D01*
X186274211Y-85150476D01*
X186214631Y-85320745D01*
X186214630Y-85320750D01*
X186194435Y-85499996D01*
X153000500Y-85499996D01*
X153000500Y-82999996D01*
X185194435Y-82999996D01*
X185194435Y-83000003D01*
X185214630Y-83179249D01*
X185214631Y-83179254D01*
X185274211Y-83349523D01*
X185298951Y-83388896D01*
X185370184Y-83502262D01*
X185497738Y-83629816D01*
X185650478Y-83725789D01*
X185788860Y-83774211D01*
X185820745Y-83785368D01*
X185820750Y-83785369D01*
X185999996Y-83805565D01*
X186000000Y-83805565D01*
X186000004Y-83805565D01*
X186179249Y-83785369D01*
X186179252Y-83785368D01*
X186179255Y-83785368D01*
X186349522Y-83725789D01*
X186502262Y-83629816D01*
X186629816Y-83502262D01*
X186725789Y-83349522D01*
X186785368Y-83179255D01*
X186785369Y-83179249D01*
X186805565Y-83000003D01*
X186805565Y-82999996D01*
X186785369Y-82820750D01*
X186785368Y-82820745D01*
X186741170Y-82694435D01*
X186725789Y-82650478D01*
X186629816Y-82497738D01*
X186502262Y-82370184D01*
X186469379Y-82349522D01*
X186349523Y-82274211D01*
X186179254Y-82214631D01*
X186179249Y-82214630D01*
X186000004Y-82194435D01*
X185999996Y-82194435D01*
X185820750Y-82214630D01*
X185820745Y-82214631D01*
X185650476Y-82274211D01*
X185497737Y-82370184D01*
X185370184Y-82497737D01*
X185274211Y-82650476D01*
X185214631Y-82820745D01*
X185214630Y-82820750D01*
X185194435Y-82999996D01*
X153000500Y-82999996D01*
X153000500Y-81999996D01*
X160694435Y-81999996D01*
X160694435Y-82000003D01*
X160714630Y-82179249D01*
X160714631Y-82179254D01*
X160774211Y-82349523D01*
X160805926Y-82399996D01*
X160870184Y-82502262D01*
X160997738Y-82629816D01*
X161076410Y-82679249D01*
X161132721Y-82714632D01*
X161150478Y-82725789D01*
X161218306Y-82749523D01*
X161320745Y-82785368D01*
X161320750Y-82785369D01*
X161499996Y-82805565D01*
X161500000Y-82805565D01*
X161500004Y-82805565D01*
X161679249Y-82785369D01*
X161679252Y-82785368D01*
X161679255Y-82785368D01*
X161849522Y-82725789D01*
X162002262Y-82629816D01*
X162129816Y-82502262D01*
X162225789Y-82349522D01*
X162285368Y-82179255D01*
X162285369Y-82179249D01*
X162305565Y-82000003D01*
X162305565Y-81999996D01*
X162285369Y-81820750D01*
X162285368Y-81820745D01*
X162236023Y-81679726D01*
X162225789Y-81650478D01*
X162207977Y-81622131D01*
X162135165Y-81506251D01*
X162131235Y-81499996D01*
X182694435Y-81499996D01*
X182694435Y-81500003D01*
X182714630Y-81679249D01*
X182714631Y-81679254D01*
X182774211Y-81849523D01*
X182804507Y-81897738D01*
X182870184Y-82002262D01*
X182997738Y-82129816D01*
X183076410Y-82179249D01*
X183142450Y-82220745D01*
X183150478Y-82225789D01*
X183288860Y-82274211D01*
X183320745Y-82285368D01*
X183320750Y-82285369D01*
X183499996Y-82305565D01*
X183500000Y-82305565D01*
X183500004Y-82305565D01*
X183679249Y-82285369D01*
X183679252Y-82285368D01*
X183679255Y-82285368D01*
X183849522Y-82225789D01*
X184002262Y-82129816D01*
X184129816Y-82002262D01*
X184131240Y-81999996D01*
X188694435Y-81999996D01*
X188694435Y-82000003D01*
X188714630Y-82179249D01*
X188714631Y-82179254D01*
X188774211Y-82349523D01*
X188805926Y-82399996D01*
X188870184Y-82502262D01*
X188997738Y-82629816D01*
X189076410Y-82679249D01*
X189132721Y-82714632D01*
X189150478Y-82725789D01*
X189218306Y-82749523D01*
X189320745Y-82785368D01*
X189320750Y-82785369D01*
X189499996Y-82805565D01*
X189500000Y-82805565D01*
X189500004Y-82805565D01*
X189679249Y-82785369D01*
X189679252Y-82785368D01*
X189679255Y-82785368D01*
X189849522Y-82725789D01*
X190002262Y-82629816D01*
X190129816Y-82502262D01*
X190225789Y-82349522D01*
X190285368Y-82179255D01*
X190285369Y-82179249D01*
X190305565Y-82000003D01*
X190305565Y-81999996D01*
X196694435Y-81999996D01*
X196694435Y-82000003D01*
X196714630Y-82179249D01*
X196714631Y-82179254D01*
X196774211Y-82349523D01*
X196805926Y-82399996D01*
X196870184Y-82502262D01*
X196997738Y-82629816D01*
X197076410Y-82679249D01*
X197132721Y-82714632D01*
X197150478Y-82725789D01*
X197218306Y-82749523D01*
X197320745Y-82785368D01*
X197320750Y-82785369D01*
X197499996Y-82805565D01*
X197500000Y-82805565D01*
X197500004Y-82805565D01*
X197679249Y-82785369D01*
X197679252Y-82785368D01*
X197679255Y-82785368D01*
X197849522Y-82725789D01*
X198002262Y-82629816D01*
X198129816Y-82502262D01*
X198225789Y-82349522D01*
X198285368Y-82179255D01*
X198285369Y-82179249D01*
X198305565Y-82000003D01*
X198305565Y-81999996D01*
X198285369Y-81820750D01*
X198285368Y-81820745D01*
X198236023Y-81679726D01*
X198225789Y-81650478D01*
X198207977Y-81622131D01*
X198135165Y-81506251D01*
X198129816Y-81497738D01*
X198002262Y-81370184D01*
X197969379Y-81349522D01*
X197849523Y-81274211D01*
X197679254Y-81214631D01*
X197679249Y-81214630D01*
X197500004Y-81194435D01*
X197499996Y-81194435D01*
X197320750Y-81214630D01*
X197320745Y-81214631D01*
X197150476Y-81274211D01*
X196997737Y-81370184D01*
X196870184Y-81497737D01*
X196774211Y-81650476D01*
X196714631Y-81820745D01*
X196714630Y-81820750D01*
X196694435Y-81999996D01*
X190305565Y-81999996D01*
X190285369Y-81820750D01*
X190285368Y-81820745D01*
X190236023Y-81679726D01*
X190225789Y-81650478D01*
X190207977Y-81622131D01*
X190135165Y-81506251D01*
X190129816Y-81497738D01*
X190002262Y-81370184D01*
X189969379Y-81349522D01*
X189849523Y-81274211D01*
X189679254Y-81214631D01*
X189679249Y-81214630D01*
X189500004Y-81194435D01*
X189499996Y-81194435D01*
X189320750Y-81214630D01*
X189320745Y-81214631D01*
X189150476Y-81274211D01*
X188997737Y-81370184D01*
X188870184Y-81497737D01*
X188774211Y-81650476D01*
X188714631Y-81820745D01*
X188714630Y-81820750D01*
X188694435Y-81999996D01*
X184131240Y-81999996D01*
X184225789Y-81849522D01*
X184285368Y-81679255D01*
X184285369Y-81679249D01*
X184305565Y-81500003D01*
X184305565Y-81499996D01*
X184285369Y-81320750D01*
X184285368Y-81320745D01*
X184241170Y-81194435D01*
X184225789Y-81150478D01*
X184131235Y-80999996D01*
X204594435Y-80999996D01*
X204594435Y-81000003D01*
X204614630Y-81179249D01*
X204614631Y-81179254D01*
X204674211Y-81349523D01*
X204767341Y-81497737D01*
X204770184Y-81502262D01*
X204897738Y-81629816D01*
X204968392Y-81674211D01*
X205032721Y-81714632D01*
X205050478Y-81725789D01*
X205177352Y-81770184D01*
X205220745Y-81785368D01*
X205220749Y-81785369D01*
X205290309Y-81793206D01*
X205354723Y-81820272D01*
X205394278Y-81877866D01*
X205396417Y-81947703D01*
X205373375Y-81993737D01*
X205370183Y-81997739D01*
X205274211Y-82150476D01*
X205214631Y-82320745D01*
X205214630Y-82320750D01*
X205194435Y-82499996D01*
X205194435Y-82500003D01*
X205214630Y-82679249D01*
X205214631Y-82679254D01*
X205274211Y-82849523D01*
X205367341Y-82997737D01*
X205370184Y-83002262D01*
X205497738Y-83129816D01*
X205650478Y-83225789D01*
X205820745Y-83285368D01*
X205820750Y-83285369D01*
X205999996Y-83305565D01*
X206000000Y-83305565D01*
X206000004Y-83305565D01*
X206179249Y-83285369D01*
X206179252Y-83285368D01*
X206179255Y-83285368D01*
X206349522Y-83225789D01*
X206502262Y-83129816D01*
X206629816Y-83002262D01*
X206725789Y-82849522D01*
X206785368Y-82679255D01*
X206785369Y-82679249D01*
X206805565Y-82500003D01*
X206805565Y-82499996D01*
X206794298Y-82399996D01*
X214794435Y-82399996D01*
X214794435Y-82400003D01*
X214814630Y-82579249D01*
X214814631Y-82579254D01*
X214874211Y-82749523D01*
X214937045Y-82849522D01*
X214970184Y-82902262D01*
X215097738Y-83029816D01*
X215250478Y-83125789D01*
X215403258Y-83179249D01*
X215420745Y-83185368D01*
X215420750Y-83185369D01*
X215599996Y-83205565D01*
X215600000Y-83205565D01*
X215600004Y-83205565D01*
X215779249Y-83185369D01*
X215779252Y-83185368D01*
X215779255Y-83185368D01*
X215949522Y-83125789D01*
X216102262Y-83029816D01*
X216229816Y-82902262D01*
X216325789Y-82749522D01*
X216385368Y-82579255D01*
X216394043Y-82502262D01*
X216405565Y-82400003D01*
X216405565Y-82399996D01*
X216385369Y-82220750D01*
X216385368Y-82220745D01*
X216370848Y-82179249D01*
X216325789Y-82050478D01*
X216229816Y-81897738D01*
X216102262Y-81770184D01*
X216031608Y-81725789D01*
X215949523Y-81674211D01*
X215779254Y-81614631D01*
X215779249Y-81614630D01*
X215600004Y-81594435D01*
X215599996Y-81594435D01*
X215420750Y-81614630D01*
X215420745Y-81614631D01*
X215250476Y-81674211D01*
X215097737Y-81770184D01*
X214970184Y-81897737D01*
X214874211Y-82050476D01*
X214814631Y-82220745D01*
X214814630Y-82220750D01*
X214794435Y-82399996D01*
X206794298Y-82399996D01*
X206785369Y-82320750D01*
X206785368Y-82320745D01*
X206741170Y-82194435D01*
X206725789Y-82150478D01*
X206629816Y-81997738D01*
X206502262Y-81870184D01*
X206469379Y-81849522D01*
X206349523Y-81774211D01*
X206179254Y-81714631D01*
X206179250Y-81714630D01*
X206109689Y-81706793D01*
X206045275Y-81679726D01*
X206005720Y-81622131D01*
X206003583Y-81552294D01*
X206026633Y-81506251D01*
X206029807Y-81502270D01*
X206029816Y-81502262D01*
X206125789Y-81349522D01*
X206185368Y-81179255D01*
X206185369Y-81179249D01*
X206205565Y-81000003D01*
X206205565Y-80999996D01*
X206185369Y-80820750D01*
X206185368Y-80820745D01*
X206141170Y-80694435D01*
X206125789Y-80650478D01*
X206031235Y-80499996D01*
X210194435Y-80499996D01*
X210194435Y-80500003D01*
X210214630Y-80679249D01*
X210214631Y-80679254D01*
X210274211Y-80849523D01*
X210367341Y-80997737D01*
X210370184Y-81002262D01*
X210497738Y-81129816D01*
X210576410Y-81179249D01*
X210632721Y-81214632D01*
X210650478Y-81225789D01*
X210788860Y-81274211D01*
X210820745Y-81285368D01*
X210820750Y-81285369D01*
X210999996Y-81305565D01*
X211000000Y-81305565D01*
X211000004Y-81305565D01*
X211179249Y-81285369D01*
X211179252Y-81285368D01*
X211179255Y-81285368D01*
X211349522Y-81225789D01*
X211502262Y-81129816D01*
X211629816Y-81002262D01*
X211725789Y-80849522D01*
X211785368Y-80679255D01*
X211785369Y-80679249D01*
X211805565Y-80500003D01*
X211805565Y-80499996D01*
X214194435Y-80499996D01*
X214194435Y-80500003D01*
X214214630Y-80679249D01*
X214214631Y-80679254D01*
X214274211Y-80849523D01*
X214367341Y-80997737D01*
X214370184Y-81002262D01*
X214497738Y-81129816D01*
X214576410Y-81179249D01*
X214632721Y-81214632D01*
X214650478Y-81225789D01*
X214788860Y-81274211D01*
X214820745Y-81285368D01*
X214820750Y-81285369D01*
X214999996Y-81305565D01*
X215000000Y-81305565D01*
X215000004Y-81305565D01*
X215179249Y-81285369D01*
X215179252Y-81285368D01*
X215179255Y-81285368D01*
X215349522Y-81225789D01*
X215502262Y-81129816D01*
X215629816Y-81002262D01*
X215725789Y-80849522D01*
X215785368Y-80679255D01*
X215785369Y-80679249D01*
X215805565Y-80500003D01*
X215805565Y-80499996D01*
X218694435Y-80499996D01*
X218694435Y-80500003D01*
X218714630Y-80679249D01*
X218714631Y-80679254D01*
X218774211Y-80849523D01*
X218867341Y-80997737D01*
X218870184Y-81002262D01*
X218997738Y-81129816D01*
X219076410Y-81179249D01*
X219132721Y-81214632D01*
X219150478Y-81225789D01*
X219288860Y-81274211D01*
X219320745Y-81285368D01*
X219320750Y-81285369D01*
X219499996Y-81305565D01*
X219500000Y-81305565D01*
X219500004Y-81305565D01*
X219679249Y-81285369D01*
X219679252Y-81285368D01*
X219679255Y-81285368D01*
X219849522Y-81225789D01*
X220002262Y-81129816D01*
X220129816Y-81002262D01*
X220225789Y-80849522D01*
X220285368Y-80679255D01*
X220285369Y-80679249D01*
X220305565Y-80500003D01*
X220305565Y-80499996D01*
X220285369Y-80320750D01*
X220285368Y-80320745D01*
X220241170Y-80194435D01*
X220225789Y-80150478D01*
X220131235Y-79999996D01*
X225694435Y-79999996D01*
X225694435Y-80000003D01*
X225714630Y-80179249D01*
X225714631Y-80179254D01*
X225774211Y-80349523D01*
X225867341Y-80497737D01*
X225870184Y-80502262D01*
X225997738Y-80629816D01*
X226076410Y-80679249D01*
X226132721Y-80714632D01*
X226150478Y-80725789D01*
X226288860Y-80774211D01*
X226320745Y-80785368D01*
X226320750Y-80785369D01*
X226499996Y-80805565D01*
X226500000Y-80805565D01*
X226500004Y-80805565D01*
X226679249Y-80785369D01*
X226679252Y-80785368D01*
X226679255Y-80785368D01*
X226849522Y-80725789D01*
X227002262Y-80629816D01*
X227129816Y-80502262D01*
X227225789Y-80349522D01*
X227285368Y-80179255D01*
X227285369Y-80179249D01*
X227305565Y-80000003D01*
X227305565Y-79999996D01*
X227285369Y-79820750D01*
X227285368Y-79820745D01*
X227273504Y-79786841D01*
X227225789Y-79650478D01*
X227129816Y-79497738D01*
X227002262Y-79370184D01*
X226969379Y-79349522D01*
X226849523Y-79274211D01*
X226679254Y-79214631D01*
X226679249Y-79214630D01*
X226500004Y-79194435D01*
X226499996Y-79194435D01*
X226320750Y-79214630D01*
X226320745Y-79214631D01*
X226150476Y-79274211D01*
X225997737Y-79370184D01*
X225870184Y-79497737D01*
X225774211Y-79650476D01*
X225714631Y-79820745D01*
X225714630Y-79820750D01*
X225694435Y-79999996D01*
X220131235Y-79999996D01*
X220129816Y-79997738D01*
X220002262Y-79870184D01*
X219969379Y-79849522D01*
X219849523Y-79774211D01*
X219679254Y-79714631D01*
X219679249Y-79714630D01*
X219500004Y-79694435D01*
X219499996Y-79694435D01*
X219320750Y-79714630D01*
X219320745Y-79714631D01*
X219150476Y-79774211D01*
X218997737Y-79870184D01*
X218870184Y-79997737D01*
X218774211Y-80150476D01*
X218714631Y-80320745D01*
X218714630Y-80320750D01*
X218694435Y-80499996D01*
X215805565Y-80499996D01*
X215785369Y-80320750D01*
X215785368Y-80320745D01*
X215741170Y-80194435D01*
X215725789Y-80150478D01*
X215629816Y-79997738D01*
X215502262Y-79870184D01*
X215469379Y-79849522D01*
X215349523Y-79774211D01*
X215179254Y-79714631D01*
X215179249Y-79714630D01*
X215000004Y-79694435D01*
X214999996Y-79694435D01*
X214820750Y-79714630D01*
X214820745Y-79714631D01*
X214650476Y-79774211D01*
X214497737Y-79870184D01*
X214370184Y-79997737D01*
X214274211Y-80150476D01*
X214214631Y-80320745D01*
X214214630Y-80320750D01*
X214194435Y-80499996D01*
X211805565Y-80499996D01*
X211785369Y-80320750D01*
X211785368Y-80320745D01*
X211747722Y-80213159D01*
X211744161Y-80143380D01*
X211778890Y-80082752D01*
X211840883Y-80050525D01*
X211910458Y-80056930D01*
X211952445Y-80084523D01*
X211997738Y-80129816D01*
X212076410Y-80179249D01*
X212132721Y-80214632D01*
X212150478Y-80225789D01*
X212288860Y-80274211D01*
X212320745Y-80285368D01*
X212320750Y-80285369D01*
X212499996Y-80305565D01*
X212500000Y-80305565D01*
X212500004Y-80305565D01*
X212679249Y-80285369D01*
X212679252Y-80285368D01*
X212679255Y-80285368D01*
X212849522Y-80225789D01*
X213002262Y-80129816D01*
X213129816Y-80002262D01*
X213225789Y-79849522D01*
X213285368Y-79679255D01*
X213288562Y-79650906D01*
X213305565Y-79500003D01*
X213305565Y-79499996D01*
X213285369Y-79320750D01*
X213285368Y-79320745D01*
X213253354Y-79229255D01*
X213247721Y-79213158D01*
X213244161Y-79143380D01*
X213278890Y-79082752D01*
X213340883Y-79050525D01*
X213410458Y-79056930D01*
X213452445Y-79084523D01*
X213497738Y-79129816D01*
X213578401Y-79180500D01*
X213632721Y-79214632D01*
X213650478Y-79225789D01*
X213788860Y-79274211D01*
X213820745Y-79285368D01*
X213820750Y-79285369D01*
X213999996Y-79305565D01*
X214000000Y-79305565D01*
X214000004Y-79305565D01*
X214179249Y-79285369D01*
X214179252Y-79285368D01*
X214179255Y-79285368D01*
X214349522Y-79225789D01*
X214502262Y-79129816D01*
X214629816Y-79002262D01*
X214678292Y-78925113D01*
X232535345Y-78925113D01*
X232535345Y-78925120D01*
X232555540Y-79104366D01*
X232555541Y-79104371D01*
X232615121Y-79274640D01*
X232711094Y-79427379D01*
X232838648Y-79554933D01*
X232928990Y-79611699D01*
X232990706Y-79650478D01*
X232991388Y-79650906D01*
X233072388Y-79679249D01*
X233161655Y-79710485D01*
X233161660Y-79710486D01*
X233340906Y-79730682D01*
X233340910Y-79730682D01*
X233340914Y-79730682D01*
X233520159Y-79710486D01*
X233520162Y-79710485D01*
X233520165Y-79710485D01*
X233690432Y-79650906D01*
X233843172Y-79554933D01*
X233970726Y-79427379D01*
X234066699Y-79274639D01*
X234126278Y-79104372D01*
X234126279Y-79104366D01*
X234146475Y-78925120D01*
X234146475Y-78925113D01*
X234126279Y-78745867D01*
X234126278Y-78745862D01*
X234102969Y-78679249D01*
X234066699Y-78575595D01*
X234066639Y-78575500D01*
X234017778Y-78497738D01*
X233970726Y-78422855D01*
X233843172Y-78295301D01*
X233690433Y-78199328D01*
X233520164Y-78139748D01*
X233520159Y-78139747D01*
X233340914Y-78119552D01*
X233340906Y-78119552D01*
X233161660Y-78139747D01*
X233161655Y-78139748D01*
X232991386Y-78199328D01*
X232838647Y-78295301D01*
X232711094Y-78422854D01*
X232615121Y-78575593D01*
X232555541Y-78745862D01*
X232555540Y-78745867D01*
X232535345Y-78925113D01*
X214678292Y-78925113D01*
X214725789Y-78849522D01*
X214785368Y-78679255D01*
X214785744Y-78675917D01*
X214805565Y-78500003D01*
X214805565Y-78499996D01*
X214785369Y-78320750D01*
X214785368Y-78320745D01*
X214769085Y-78274211D01*
X214725789Y-78150478D01*
X214629816Y-77997738D01*
X214502262Y-77870184D01*
X214464854Y-77846679D01*
X214349523Y-77774211D01*
X214179254Y-77714631D01*
X214179249Y-77714630D01*
X214000004Y-77694435D01*
X213999996Y-77694435D01*
X213820750Y-77714630D01*
X213820745Y-77714631D01*
X213650476Y-77774211D01*
X213497737Y-77870184D01*
X213370184Y-77997737D01*
X213274211Y-78150476D01*
X213214631Y-78320745D01*
X213214630Y-78320750D01*
X213194435Y-78499996D01*
X213194435Y-78500003D01*
X213214630Y-78679249D01*
X213214632Y-78679257D01*
X213252277Y-78786841D01*
X213255838Y-78856620D01*
X213221109Y-78917247D01*
X213159115Y-78949474D01*
X213089540Y-78943068D01*
X213047554Y-78915476D01*
X213002262Y-78870184D01*
X212849523Y-78774211D01*
X212679254Y-78714631D01*
X212679249Y-78714630D01*
X212500004Y-78694435D01*
X212499996Y-78694435D01*
X212320750Y-78714630D01*
X212320745Y-78714631D01*
X212150476Y-78774211D01*
X211997737Y-78870184D01*
X211870184Y-78997737D01*
X211774211Y-79150476D01*
X211714631Y-79320745D01*
X211714630Y-79320750D01*
X211694435Y-79499996D01*
X211694435Y-79500003D01*
X211714630Y-79679249D01*
X211714632Y-79679257D01*
X211752277Y-79786841D01*
X211755838Y-79856620D01*
X211721109Y-79917247D01*
X211659115Y-79949474D01*
X211589540Y-79943068D01*
X211547554Y-79915476D01*
X211502262Y-79870184D01*
X211349523Y-79774211D01*
X211179254Y-79714631D01*
X211179249Y-79714630D01*
X211000004Y-79694435D01*
X210999996Y-79694435D01*
X210820750Y-79714630D01*
X210820745Y-79714631D01*
X210650476Y-79774211D01*
X210497737Y-79870184D01*
X210370184Y-79997737D01*
X210274211Y-80150476D01*
X210214631Y-80320745D01*
X210214630Y-80320750D01*
X210194435Y-80499996D01*
X206031235Y-80499996D01*
X206029816Y-80497738D01*
X205902262Y-80370184D01*
X205869379Y-80349522D01*
X205749523Y-80274211D01*
X205579254Y-80214631D01*
X205579249Y-80214630D01*
X205400004Y-80194435D01*
X205399996Y-80194435D01*
X205220750Y-80214630D01*
X205220745Y-80214631D01*
X205050476Y-80274211D01*
X204897737Y-80370184D01*
X204770184Y-80497737D01*
X204674211Y-80650476D01*
X204614631Y-80820745D01*
X204614630Y-80820750D01*
X204594435Y-80999996D01*
X184131235Y-80999996D01*
X184129816Y-80997738D01*
X184002262Y-80870184D01*
X183969379Y-80849522D01*
X183849523Y-80774211D01*
X183679254Y-80714631D01*
X183679249Y-80714630D01*
X183500004Y-80694435D01*
X183499996Y-80694435D01*
X183320750Y-80714630D01*
X183320745Y-80714631D01*
X183150476Y-80774211D01*
X182997737Y-80870184D01*
X182870184Y-80997737D01*
X182774211Y-81150476D01*
X182714631Y-81320745D01*
X182714630Y-81320750D01*
X182694435Y-81499996D01*
X162131235Y-81499996D01*
X162129816Y-81497738D01*
X162002262Y-81370184D01*
X161969379Y-81349522D01*
X161849523Y-81274211D01*
X161679254Y-81214631D01*
X161679249Y-81214630D01*
X161500004Y-81194435D01*
X161499996Y-81194435D01*
X161320750Y-81214630D01*
X161320745Y-81214631D01*
X161150476Y-81274211D01*
X160997737Y-81370184D01*
X160870184Y-81497737D01*
X160774211Y-81650476D01*
X160714631Y-81820745D01*
X160714630Y-81820750D01*
X160694435Y-81999996D01*
X153000500Y-81999996D01*
X153000500Y-78136379D01*
X153299500Y-78136379D01*
X153299500Y-78323620D01*
X153336025Y-78507243D01*
X153336027Y-78507251D01*
X153407676Y-78680228D01*
X153407681Y-78680237D01*
X153511697Y-78835907D01*
X153511700Y-78835911D01*
X153644088Y-78968299D01*
X153644092Y-78968302D01*
X153799762Y-79072318D01*
X153799768Y-79072321D01*
X153799769Y-79072322D01*
X153972749Y-79143973D01*
X154150095Y-79179249D01*
X154156379Y-79180499D01*
X154156383Y-79180500D01*
X154156384Y-79180500D01*
X154843617Y-79180500D01*
X154843618Y-79180499D01*
X155027251Y-79143973D01*
X155200231Y-79072322D01*
X155355908Y-78968302D01*
X155488302Y-78835908D01*
X155592322Y-78680231D01*
X155663973Y-78507251D01*
X155700500Y-78323616D01*
X155700500Y-78136384D01*
X155663973Y-77952749D01*
X155592322Y-77779769D01*
X155592321Y-77779768D01*
X155592318Y-77779762D01*
X155488302Y-77624092D01*
X155488299Y-77624088D01*
X155355911Y-77491700D01*
X155355907Y-77491697D01*
X155200237Y-77387681D01*
X155200228Y-77387676D01*
X155027251Y-77316027D01*
X155027243Y-77316025D01*
X154843620Y-77279500D01*
X154843616Y-77279500D01*
X154156384Y-77279500D01*
X154156379Y-77279500D01*
X153972756Y-77316025D01*
X153972748Y-77316027D01*
X153799771Y-77387676D01*
X153799762Y-77387681D01*
X153644092Y-77491697D01*
X153644088Y-77491700D01*
X153511700Y-77624088D01*
X153511697Y-77624092D01*
X153407681Y-77779762D01*
X153407676Y-77779771D01*
X153336027Y-77952748D01*
X153336025Y-77952756D01*
X153299500Y-78136379D01*
X153000500Y-78136379D01*
X153000500Y-69476379D01*
X153299500Y-69476379D01*
X153299500Y-69663620D01*
X153336025Y-69847243D01*
X153336027Y-69847251D01*
X153407676Y-70020228D01*
X153407681Y-70020237D01*
X153511697Y-70175907D01*
X153511700Y-70175911D01*
X153644088Y-70308299D01*
X153644092Y-70308302D01*
X153799762Y-70412318D01*
X153799768Y-70412321D01*
X153799769Y-70412322D01*
X153972749Y-70483973D01*
X154156379Y-70520499D01*
X154156383Y-70520500D01*
X154156384Y-70520500D01*
X154843617Y-70520500D01*
X154843618Y-70520499D01*
X155027251Y-70483973D01*
X155200231Y-70412322D01*
X155355908Y-70308302D01*
X155488302Y-70175908D01*
X155592322Y-70020231D01*
X155663973Y-69847251D01*
X155700500Y-69663616D01*
X155700500Y-69570000D01*
X158044901Y-69570000D01*
X158063252Y-69756331D01*
X158063253Y-69756333D01*
X158117604Y-69935502D01*
X158205862Y-70100623D01*
X158205864Y-70100626D01*
X158324642Y-70245357D01*
X158469373Y-70364135D01*
X158469376Y-70364137D01*
X158634492Y-70452393D01*
X158634495Y-70452393D01*
X158634499Y-70452396D01*
X158687458Y-70468461D01*
X158745895Y-70506758D01*
X158764740Y-70536685D01*
X158802927Y-70622454D01*
X158806180Y-70628088D01*
X158803862Y-70629426D01*
X158823371Y-70684039D01*
X158807571Y-70752099D01*
X158765549Y-70796157D01*
X158647739Y-70870182D01*
X158520184Y-70997737D01*
X158424211Y-71150476D01*
X158364631Y-71320745D01*
X158364630Y-71320750D01*
X158344435Y-71499996D01*
X158344435Y-71500003D01*
X158364630Y-71679249D01*
X158364633Y-71679262D01*
X158426510Y-71856094D01*
X158424364Y-71856844D01*
X158433962Y-71915144D01*
X158425609Y-71943590D01*
X158426510Y-71943906D01*
X158364633Y-72120737D01*
X158364630Y-72120750D01*
X158344435Y-72299996D01*
X158344435Y-72300003D01*
X158364630Y-72479249D01*
X158364633Y-72479262D01*
X158426510Y-72656094D01*
X158424364Y-72656844D01*
X158433962Y-72715144D01*
X158425609Y-72743590D01*
X158426510Y-72743906D01*
X158364633Y-72920737D01*
X158364630Y-72920750D01*
X158344435Y-73099996D01*
X158344435Y-73100003D01*
X158364630Y-73279249D01*
X158364631Y-73279254D01*
X158424211Y-73449523D01*
X158516613Y-73596579D01*
X158520184Y-73602262D01*
X158647738Y-73729816D01*
X158700394Y-73762902D01*
X158751487Y-73795006D01*
X158797778Y-73847341D01*
X158808426Y-73916395D01*
X158780051Y-73980243D01*
X158751487Y-74004994D01*
X158647737Y-74070184D01*
X158520184Y-74197737D01*
X158424211Y-74350476D01*
X158364631Y-74520745D01*
X158364630Y-74520750D01*
X158344435Y-74699996D01*
X158344435Y-74700003D01*
X158364630Y-74879249D01*
X158364633Y-74879262D01*
X158426510Y-75056094D01*
X158424364Y-75056844D01*
X158433962Y-75115144D01*
X158425609Y-75143590D01*
X158426510Y-75143906D01*
X158364633Y-75320737D01*
X158364630Y-75320750D01*
X158344435Y-75499996D01*
X158344435Y-75500003D01*
X158364630Y-75679249D01*
X158364633Y-75679262D01*
X158426510Y-75856094D01*
X158424364Y-75856844D01*
X158433962Y-75915144D01*
X158425609Y-75943590D01*
X158426510Y-75943906D01*
X158364633Y-76120737D01*
X158364630Y-76120750D01*
X158344435Y-76299996D01*
X158344435Y-76300003D01*
X158364630Y-76479249D01*
X158364631Y-76479254D01*
X158424211Y-76649523D01*
X158507415Y-76781940D01*
X158520184Y-76802262D01*
X158647738Y-76929816D01*
X158759429Y-76999996D01*
X158765548Y-77003841D01*
X158811839Y-77056176D01*
X158822487Y-77125229D01*
X158804270Y-77170810D01*
X158806180Y-77171913D01*
X158802929Y-77177543D01*
X158764740Y-77263315D01*
X158719489Y-77316552D01*
X158687458Y-77331538D01*
X158634496Y-77347604D01*
X158469376Y-77435862D01*
X158469373Y-77435864D01*
X158324642Y-77554642D01*
X158205864Y-77699373D01*
X158205862Y-77699376D01*
X158117604Y-77864497D01*
X158063253Y-78043666D01*
X158063252Y-78043668D01*
X158044901Y-78230000D01*
X158063252Y-78416331D01*
X158063253Y-78416333D01*
X158117604Y-78595502D01*
X158205862Y-78760623D01*
X158205864Y-78760626D01*
X158324642Y-78905357D01*
X158469373Y-79024135D01*
X158469376Y-79024137D01*
X158582352Y-79084523D01*
X158634499Y-79112396D01*
X158760038Y-79150478D01*
X158813666Y-79166746D01*
X158813668Y-79166747D01*
X158830374Y-79168392D01*
X159000000Y-79185099D01*
X159186331Y-79166747D01*
X159365501Y-79112396D01*
X159481255Y-79050525D01*
X159491326Y-79045142D01*
X159549779Y-79030500D01*
X159578844Y-79030500D01*
X159578845Y-79030499D01*
X159732195Y-78999996D01*
X180694435Y-78999996D01*
X180694435Y-79000003D01*
X180714630Y-79179249D01*
X180714631Y-79179254D01*
X180774211Y-79349523D01*
X180805629Y-79399524D01*
X180870184Y-79502262D01*
X180997738Y-79629816D01*
X181132719Y-79714630D01*
X181154409Y-79728259D01*
X181200700Y-79780594D01*
X181211657Y-79847136D01*
X181194435Y-79999995D01*
X181194435Y-80000003D01*
X181214630Y-80179249D01*
X181214631Y-80179254D01*
X181274211Y-80349523D01*
X181367341Y-80497737D01*
X181370184Y-80502262D01*
X181497738Y-80629816D01*
X181576410Y-80679249D01*
X181632721Y-80714632D01*
X181650478Y-80725789D01*
X181788860Y-80774211D01*
X181820745Y-80785368D01*
X181820750Y-80785369D01*
X181999996Y-80805565D01*
X182000000Y-80805565D01*
X182000004Y-80805565D01*
X182179249Y-80785369D01*
X182179252Y-80785368D01*
X182179255Y-80785368D01*
X182349522Y-80725789D01*
X182502262Y-80629816D01*
X182629816Y-80502262D01*
X182725789Y-80349522D01*
X182785368Y-80179255D01*
X182785369Y-80179249D01*
X182805565Y-80000003D01*
X182805565Y-79999996D01*
X182785369Y-79820750D01*
X182785368Y-79820745D01*
X182773504Y-79786841D01*
X182725789Y-79650478D01*
X182629816Y-79497738D01*
X182502262Y-79370184D01*
X182469379Y-79349522D01*
X182345590Y-79271740D01*
X182299299Y-79219405D01*
X182288342Y-79152862D01*
X182299932Y-79049997D01*
X201694435Y-79049997D01*
X201694435Y-79050004D01*
X201714630Y-79229250D01*
X201714631Y-79229255D01*
X201774211Y-79399524D01*
X201837342Y-79499996D01*
X201870184Y-79552263D01*
X201997738Y-79679817D01*
X202150478Y-79775790D01*
X202320745Y-79835369D01*
X202320750Y-79835370D01*
X202499996Y-79855566D01*
X202500000Y-79855566D01*
X202500004Y-79855566D01*
X202679249Y-79835370D01*
X202679252Y-79835369D01*
X202679255Y-79835369D01*
X202849522Y-79775790D01*
X203002262Y-79679817D01*
X203129816Y-79552263D01*
X203225789Y-79399523D01*
X203285368Y-79229256D01*
X203287182Y-79213159D01*
X203305565Y-79050004D01*
X203305565Y-79049997D01*
X203285369Y-78870751D01*
X203285368Y-78870746D01*
X203230741Y-78714631D01*
X203225789Y-78700479D01*
X203221991Y-78694435D01*
X203168421Y-78609179D01*
X203129816Y-78547739D01*
X203002262Y-78420185D01*
X202967934Y-78398615D01*
X202849523Y-78324212D01*
X202679254Y-78264632D01*
X202679249Y-78264631D01*
X202500004Y-78244436D01*
X202499996Y-78244436D01*
X202320750Y-78264631D01*
X202320745Y-78264632D01*
X202150476Y-78324212D01*
X201997737Y-78420185D01*
X201870184Y-78547738D01*
X201774211Y-78700477D01*
X201714631Y-78870746D01*
X201714630Y-78870751D01*
X201694435Y-79049997D01*
X182299932Y-79049997D01*
X182305565Y-79000002D01*
X182305565Y-78999996D01*
X182285369Y-78820750D01*
X182285368Y-78820745D01*
X182235859Y-78679257D01*
X182225789Y-78650478D01*
X182129816Y-78497738D01*
X182002262Y-78370184D01*
X181969379Y-78349522D01*
X181849523Y-78274211D01*
X181679254Y-78214631D01*
X181679249Y-78214630D01*
X181500004Y-78194435D01*
X181499996Y-78194435D01*
X181320750Y-78214630D01*
X181320745Y-78214631D01*
X181150476Y-78274211D01*
X180997737Y-78370184D01*
X180870184Y-78497737D01*
X180774211Y-78650476D01*
X180714631Y-78820745D01*
X180714630Y-78820750D01*
X180694435Y-78999996D01*
X159732195Y-78999996D01*
X159733497Y-78999737D01*
X159879179Y-78939394D01*
X160010289Y-78851789D01*
X160121789Y-78740289D01*
X160206626Y-78613320D01*
X160260236Y-78568517D01*
X160329561Y-78559810D01*
X160333919Y-78560596D01*
X160408843Y-78575500D01*
X160408846Y-78575500D01*
X160591156Y-78575500D01*
X160730720Y-78547738D01*
X160769958Y-78539933D01*
X160938389Y-78470167D01*
X160938391Y-78470166D01*
X161018961Y-78416331D01*
X161089972Y-78368883D01*
X161218883Y-78239972D01*
X161320167Y-78088389D01*
X161320735Y-78087019D01*
X161356780Y-77999996D01*
X168694435Y-77999996D01*
X168694435Y-78000003D01*
X168714630Y-78179249D01*
X168714631Y-78179254D01*
X168774211Y-78349523D01*
X168820289Y-78422855D01*
X168870184Y-78502262D01*
X168997738Y-78629816D01*
X169088080Y-78686582D01*
X169132721Y-78714632D01*
X169150478Y-78725789D01*
X169288860Y-78774211D01*
X169320745Y-78785368D01*
X169320750Y-78785369D01*
X169499996Y-78805565D01*
X169500000Y-78805565D01*
X169500004Y-78805565D01*
X169679249Y-78785369D01*
X169679252Y-78785368D01*
X169679255Y-78785368D01*
X169849522Y-78725789D01*
X170002262Y-78629816D01*
X170129816Y-78502262D01*
X170225789Y-78349522D01*
X170285368Y-78179255D01*
X170285369Y-78179249D01*
X170305565Y-78000003D01*
X170305565Y-77999996D01*
X170285369Y-77820750D01*
X170285368Y-77820745D01*
X170269085Y-77774211D01*
X170225789Y-77650478D01*
X170224464Y-77648370D01*
X170165571Y-77554642D01*
X170129816Y-77497738D01*
X170002262Y-77370184D01*
X169966326Y-77347604D01*
X169849523Y-77274211D01*
X169679254Y-77214631D01*
X169679249Y-77214630D01*
X169500004Y-77194435D01*
X169499996Y-77194435D01*
X169320750Y-77214630D01*
X169320745Y-77214631D01*
X169150476Y-77274211D01*
X168997737Y-77370184D01*
X168870184Y-77497737D01*
X168774211Y-77650476D01*
X168714631Y-77820745D01*
X168714630Y-77820750D01*
X168694435Y-77999996D01*
X161356780Y-77999996D01*
X161357716Y-77997737D01*
X161389933Y-77919958D01*
X161416705Y-77785368D01*
X161425500Y-77741156D01*
X161425500Y-77258843D01*
X161389934Y-77080047D01*
X161389933Y-77080046D01*
X161389933Y-77080042D01*
X161382527Y-77062163D01*
X161320168Y-76911612D01*
X161320166Y-76911608D01*
X161218886Y-76760032D01*
X161218880Y-76760024D01*
X161089975Y-76631119D01*
X161089967Y-76631113D01*
X160938391Y-76529833D01*
X160938387Y-76529831D01*
X160769962Y-76460068D01*
X160769952Y-76460065D01*
X160671368Y-76440455D01*
X160609457Y-76408070D01*
X160578519Y-76359794D01*
X160575335Y-76350697D01*
X160575333Y-76350692D01*
X160566661Y-76336892D01*
X160566660Y-76336892D01*
X160515373Y-76388181D01*
X160454050Y-76421666D01*
X160427691Y-76424500D01*
X160408844Y-76424500D01*
X160230047Y-76460065D01*
X160230037Y-76460068D01*
X160117418Y-76506716D01*
X160047948Y-76514185D01*
X159985469Y-76482909D01*
X159949818Y-76422820D01*
X159946746Y-76378271D01*
X159955565Y-76300001D01*
X159955565Y-76293036D01*
X159958587Y-76293036D01*
X159968277Y-76237468D01*
X159991803Y-76204640D01*
X160213107Y-75983337D01*
X160210842Y-75963233D01*
X160201748Y-75952951D01*
X160191102Y-75883897D01*
X160219479Y-75820050D01*
X160248038Y-75795304D01*
X160352262Y-75729816D01*
X160479816Y-75602262D01*
X160575789Y-75449522D01*
X160635368Y-75279255D01*
X160635369Y-75279249D01*
X160655565Y-75100003D01*
X160655565Y-75099996D01*
X160635369Y-74920750D01*
X160635366Y-74920737D01*
X160573489Y-74743905D01*
X160575637Y-74743153D01*
X160566035Y-74684872D01*
X160574392Y-74656411D01*
X160573489Y-74656095D01*
X160635366Y-74479262D01*
X160635369Y-74479249D01*
X160655565Y-74300003D01*
X160655565Y-74300000D01*
X160655307Y-74297712D01*
X160655565Y-74296238D01*
X160655565Y-74293036D01*
X160656126Y-74293036D01*
X160667357Y-74228889D01*
X160714703Y-74177506D01*
X160748854Y-74163423D01*
X160751364Y-74162804D01*
X160751364Y-74162803D01*
X160751368Y-74162803D01*
X160902683Y-74083387D01*
X161030595Y-73970066D01*
X161127671Y-73829427D01*
X161188270Y-73669643D01*
X161208868Y-73500000D01*
X161188270Y-73330357D01*
X161127671Y-73170573D01*
X161113800Y-73150478D01*
X161055471Y-73065973D01*
X161030595Y-73029934D01*
X160902683Y-72916613D01*
X160751368Y-72837197D01*
X160751367Y-72837196D01*
X160751364Y-72837195D01*
X160751361Y-72837194D01*
X160748845Y-72836574D01*
X160747199Y-72835615D01*
X160744350Y-72834535D01*
X160744529Y-72834061D01*
X160688466Y-72801415D01*
X160656681Y-72739194D01*
X160655307Y-72702286D01*
X160655565Y-72699997D01*
X160655565Y-72699996D01*
X160635369Y-72520750D01*
X160635368Y-72520745D01*
X160628108Y-72499996D01*
X160575789Y-72350478D01*
X160568895Y-72339507D01*
X160517924Y-72258387D01*
X160479816Y-72197738D01*
X160432078Y-72150000D01*
X160976133Y-72150000D01*
X160996730Y-72319642D01*
X161057330Y-72479428D01*
X161085853Y-72520750D01*
X161154406Y-72620066D01*
X161282318Y-72733387D01*
X161433633Y-72812803D01*
X161599556Y-72853700D01*
X161599557Y-72853700D01*
X161770445Y-72853700D01*
X161770446Y-72853700D01*
X161936369Y-72812803D01*
X162026050Y-72765734D01*
X162094557Y-72752010D01*
X162159610Y-72777503D01*
X162200554Y-72834119D01*
X162206894Y-72889415D01*
X162194435Y-72999996D01*
X162194435Y-73000003D01*
X162214630Y-73179249D01*
X162214631Y-73179254D01*
X162274211Y-73349523D01*
X162337045Y-73449522D01*
X162370184Y-73502262D01*
X162497738Y-73629816D01*
X162539281Y-73655919D01*
X162632721Y-73714632D01*
X162650478Y-73725789D01*
X162756541Y-73762902D01*
X162820745Y-73785368D01*
X162820750Y-73785369D01*
X162999996Y-73805565D01*
X163000000Y-73805565D01*
X163000003Y-73805565D01*
X163152862Y-73788342D01*
X163221684Y-73800396D01*
X163271740Y-73845590D01*
X163370184Y-74002262D01*
X163415476Y-74047554D01*
X163448961Y-74108877D01*
X163443977Y-74178569D01*
X163402105Y-74234502D01*
X163336641Y-74258919D01*
X163286841Y-74252277D01*
X163179257Y-74214632D01*
X163179249Y-74214630D01*
X163000004Y-74194435D01*
X162999996Y-74194435D01*
X162820750Y-74214630D01*
X162820745Y-74214631D01*
X162650476Y-74274211D01*
X162497737Y-74370184D01*
X162370184Y-74497737D01*
X162274210Y-74650478D01*
X162214630Y-74820751D01*
X162212892Y-74836182D01*
X162185826Y-74900596D01*
X162128232Y-74940152D01*
X162089672Y-74946300D01*
X162085445Y-74946300D01*
X161914555Y-74946300D01*
X161873659Y-74956380D01*
X161748633Y-74987196D01*
X161597318Y-75066612D01*
X161469405Y-75179933D01*
X161469403Y-75179936D01*
X161372329Y-75320571D01*
X161311729Y-75480357D01*
X161291132Y-75650000D01*
X161311729Y-75819642D01*
X161372329Y-75979428D01*
X161413768Y-76039462D01*
X161469405Y-76120066D01*
X161597317Y-76233387D01*
X161724238Y-76300000D01*
X161734165Y-76305210D01*
X161784378Y-76353795D01*
X161800353Y-76421814D01*
X161799636Y-76429951D01*
X161791132Y-76499997D01*
X161791132Y-76500000D01*
X161792854Y-76514185D01*
X161811729Y-76669642D01*
X161872329Y-76829428D01*
X161929054Y-76911608D01*
X161969405Y-76970066D01*
X162097317Y-77083387D01*
X162248632Y-77162803D01*
X162414555Y-77203700D01*
X162414556Y-77203700D01*
X162585444Y-77203700D01*
X162585445Y-77203700D01*
X162751368Y-77162803D01*
X162902683Y-77083387D01*
X162996811Y-76999996D01*
X183694435Y-76999996D01*
X183694435Y-77000003D01*
X183714630Y-77179249D01*
X183714631Y-77179254D01*
X183774211Y-77349523D01*
X183830880Y-77439710D01*
X183870184Y-77502262D01*
X183997738Y-77629816D01*
X184031554Y-77651064D01*
X184132721Y-77714632D01*
X184150478Y-77725789D01*
X184288860Y-77774211D01*
X184320745Y-77785368D01*
X184320750Y-77785369D01*
X184499996Y-77805565D01*
X184500000Y-77805565D01*
X184500004Y-77805565D01*
X184679249Y-77785369D01*
X184679252Y-77785368D01*
X184679255Y-77785368D01*
X184849522Y-77725789D01*
X185002262Y-77629816D01*
X185129816Y-77502262D01*
X185225789Y-77349522D01*
X185271448Y-77219037D01*
X240495771Y-77219037D01*
X240495771Y-77219042D01*
X240504174Y-77315087D01*
X240507186Y-77349523D01*
X240514841Y-77437015D01*
X240514841Y-77437019D01*
X240571470Y-77648362D01*
X240571472Y-77648366D01*
X240571473Y-77648370D01*
X240607574Y-77725788D01*
X240663945Y-77846678D01*
X240663946Y-77846679D01*
X240789450Y-78025917D01*
X240944171Y-78180638D01*
X241123409Y-78306142D01*
X241321718Y-78398615D01*
X241533071Y-78455247D01*
X241715974Y-78471248D01*
X241751046Y-78474317D01*
X241751048Y-78474317D01*
X241751050Y-78474317D01*
X241779302Y-78471845D01*
X241969025Y-78455247D01*
X242180378Y-78398615D01*
X242378687Y-78306142D01*
X242557925Y-78180638D01*
X242712646Y-78025917D01*
X242822493Y-77869040D01*
X250245771Y-77869040D01*
X250257228Y-78000003D01*
X250264841Y-78087015D01*
X250264841Y-78087019D01*
X250321470Y-78298362D01*
X250321472Y-78298366D01*
X250321473Y-78298370D01*
X250367709Y-78397524D01*
X250413945Y-78496678D01*
X250439046Y-78532526D01*
X250539450Y-78675917D01*
X250694171Y-78830638D01*
X250873409Y-78956142D01*
X251071718Y-79048615D01*
X251071724Y-79048616D01*
X251071725Y-79048617D01*
X251078846Y-79050525D01*
X251283071Y-79105247D01*
X251465974Y-79121248D01*
X251501046Y-79124317D01*
X251501048Y-79124317D01*
X251501050Y-79124317D01*
X251529302Y-79121845D01*
X251719025Y-79105247D01*
X251930378Y-79048615D01*
X252128687Y-78956142D01*
X252307925Y-78830638D01*
X252462646Y-78675917D01*
X252588150Y-78496679D01*
X252680623Y-78298370D01*
X252737255Y-78087017D01*
X252756325Y-77869040D01*
X252737255Y-77651063D01*
X252680623Y-77439710D01*
X252588150Y-77241402D01*
X252588148Y-77241399D01*
X252588147Y-77241397D01*
X252462647Y-77062164D01*
X252400479Y-76999996D01*
X252307925Y-76907442D01*
X252128687Y-76781938D01*
X252128688Y-76781938D01*
X252128686Y-76781937D01*
X252008273Y-76725788D01*
X251930378Y-76689465D01*
X251930374Y-76689464D01*
X251930370Y-76689462D01*
X251719025Y-76632833D01*
X251501050Y-76613763D01*
X251501046Y-76613763D01*
X251355730Y-76626476D01*
X251283071Y-76632833D01*
X251283068Y-76632833D01*
X251071725Y-76689462D01*
X251071716Y-76689466D01*
X250873409Y-76781938D01*
X250873405Y-76781940D01*
X250694169Y-76907442D01*
X250539450Y-77062161D01*
X250413948Y-77241397D01*
X250413946Y-77241401D01*
X250321474Y-77439708D01*
X250321470Y-77439717D01*
X250264841Y-77651060D01*
X250264841Y-77651064D01*
X250253582Y-77779762D01*
X250245771Y-77869040D01*
X242822493Y-77869040D01*
X242838150Y-77846679D01*
X242930623Y-77648370D01*
X242987255Y-77437017D01*
X243006325Y-77219040D01*
X243005939Y-77214632D01*
X243002202Y-77171913D01*
X242987255Y-77001063D01*
X242930623Y-76789710D01*
X242838150Y-76591402D01*
X242838148Y-76591399D01*
X242838147Y-76591397D01*
X242712647Y-76412164D01*
X242637375Y-76336892D01*
X242557925Y-76257442D01*
X242378687Y-76131938D01*
X242378688Y-76131938D01*
X242378686Y-76131937D01*
X242279532Y-76085701D01*
X242180378Y-76039465D01*
X242180374Y-76039464D01*
X242180370Y-76039462D01*
X241969025Y-75982833D01*
X241751050Y-75963763D01*
X241751046Y-75963763D01*
X241605730Y-75976476D01*
X241533071Y-75982833D01*
X241533068Y-75982833D01*
X241321725Y-76039462D01*
X241321716Y-76039466D01*
X241123409Y-76131938D01*
X241123405Y-76131940D01*
X240944169Y-76257442D01*
X240789450Y-76412161D01*
X240663948Y-76591397D01*
X240663946Y-76591401D01*
X240571474Y-76789708D01*
X240571470Y-76789717D01*
X240514841Y-77001060D01*
X240514841Y-77001064D01*
X240495771Y-77219037D01*
X185271448Y-77219037D01*
X185285368Y-77179255D01*
X185285561Y-77177543D01*
X185305565Y-77000003D01*
X185305565Y-76999996D01*
X185285369Y-76820750D01*
X185285368Y-76820745D01*
X185280056Y-76805565D01*
X185225789Y-76650478D01*
X185225188Y-76649522D01*
X185150369Y-76530448D01*
X185129816Y-76497738D01*
X185002262Y-76370184D01*
X184849523Y-76274211D01*
X184679254Y-76214631D01*
X184679249Y-76214630D01*
X184500004Y-76194435D01*
X184499996Y-76194435D01*
X184320750Y-76214630D01*
X184320745Y-76214631D01*
X184150476Y-76274211D01*
X183997737Y-76370184D01*
X183870184Y-76497737D01*
X183774211Y-76650476D01*
X183714631Y-76820745D01*
X183714630Y-76820750D01*
X183694435Y-76999996D01*
X162996811Y-76999996D01*
X163030595Y-76970066D01*
X163127671Y-76829427D01*
X163188270Y-76669643D01*
X163208868Y-76500000D01*
X163188270Y-76330357D01*
X163127671Y-76170573D01*
X163092806Y-76120063D01*
X163037174Y-76039466D01*
X163030595Y-76029934D01*
X163018862Y-76019539D01*
X163011085Y-76012649D01*
X163003149Y-75999996D01*
X165194435Y-75999996D01*
X165194435Y-76000003D01*
X165214630Y-76179249D01*
X165214631Y-76179254D01*
X165274211Y-76349523D01*
X165343670Y-76460065D01*
X165370184Y-76502262D01*
X165497738Y-76629816D01*
X165650478Y-76725789D01*
X165748339Y-76760032D01*
X165820745Y-76785368D01*
X165820750Y-76785369D01*
X165999996Y-76805565D01*
X166000000Y-76805565D01*
X166000004Y-76805565D01*
X166179249Y-76785369D01*
X166179252Y-76785368D01*
X166179255Y-76785368D01*
X166349522Y-76725789D01*
X166502262Y-76629816D01*
X166629816Y-76502262D01*
X166725789Y-76349522D01*
X166785368Y-76179255D01*
X166785369Y-76179249D01*
X166805565Y-76000003D01*
X166805565Y-75999996D01*
X198194435Y-75999996D01*
X198194435Y-76000003D01*
X198214630Y-76179249D01*
X198214631Y-76179254D01*
X198274211Y-76349523D01*
X198343670Y-76460065D01*
X198370184Y-76502262D01*
X198497738Y-76629816D01*
X198650478Y-76725789D01*
X198748339Y-76760032D01*
X198820745Y-76785368D01*
X198820750Y-76785369D01*
X198999996Y-76805565D01*
X199000000Y-76805565D01*
X199000004Y-76805565D01*
X199179249Y-76785369D01*
X199179252Y-76785368D01*
X199179255Y-76785368D01*
X199349522Y-76725789D01*
X199502262Y-76629816D01*
X199629816Y-76502262D01*
X199725789Y-76349522D01*
X199785368Y-76179255D01*
X199785369Y-76179249D01*
X199805565Y-76000003D01*
X199805565Y-75999996D01*
X210194435Y-75999996D01*
X210194435Y-76000003D01*
X210214630Y-76179249D01*
X210214631Y-76179254D01*
X210274211Y-76349523D01*
X210343670Y-76460065D01*
X210370184Y-76502262D01*
X210497738Y-76629816D01*
X210650478Y-76725789D01*
X210748339Y-76760032D01*
X210820745Y-76785368D01*
X210820750Y-76785369D01*
X210999996Y-76805565D01*
X211000000Y-76805565D01*
X211000004Y-76805565D01*
X211179249Y-76785369D01*
X211179252Y-76785368D01*
X211179255Y-76785368D01*
X211349522Y-76725789D01*
X211502262Y-76629816D01*
X211629816Y-76502262D01*
X211645007Y-76478084D01*
X211697339Y-76431796D01*
X211766393Y-76421146D01*
X211830242Y-76449521D01*
X211854990Y-76478082D01*
X211870184Y-76502262D01*
X211997738Y-76629816D01*
X212150478Y-76725789D01*
X212248339Y-76760032D01*
X212320745Y-76785368D01*
X212320750Y-76785369D01*
X212499996Y-76805565D01*
X212500000Y-76805565D01*
X212500004Y-76805565D01*
X212679249Y-76785369D01*
X212679252Y-76785368D01*
X212679255Y-76785368D01*
X212849522Y-76725789D01*
X213002262Y-76629816D01*
X213129816Y-76502262D01*
X213145007Y-76478084D01*
X213197339Y-76431796D01*
X213266393Y-76421146D01*
X213330242Y-76449521D01*
X213354990Y-76478082D01*
X213370184Y-76502262D01*
X213497738Y-76629816D01*
X213650478Y-76725789D01*
X213748339Y-76760032D01*
X213820745Y-76785368D01*
X213820750Y-76785369D01*
X213999996Y-76805565D01*
X214000000Y-76805565D01*
X214000004Y-76805565D01*
X214179249Y-76785369D01*
X214179252Y-76785368D01*
X214179255Y-76785368D01*
X214349522Y-76725789D01*
X214502262Y-76629816D01*
X214629816Y-76502262D01*
X214725789Y-76349522D01*
X214785368Y-76179255D01*
X214785369Y-76179249D01*
X214805565Y-76000003D01*
X214805565Y-75999996D01*
X234194435Y-75999996D01*
X234194435Y-76000003D01*
X234214630Y-76179249D01*
X234214631Y-76179254D01*
X234274211Y-76349523D01*
X234343670Y-76460065D01*
X234370184Y-76502262D01*
X234497738Y-76629816D01*
X234650478Y-76725789D01*
X234748339Y-76760032D01*
X234820745Y-76785368D01*
X234820750Y-76785369D01*
X234999996Y-76805565D01*
X235000000Y-76805565D01*
X235000004Y-76805565D01*
X235179249Y-76785369D01*
X235179252Y-76785368D01*
X235179255Y-76785368D01*
X235349522Y-76725789D01*
X235502262Y-76629816D01*
X235629816Y-76502262D01*
X235725789Y-76349522D01*
X235785368Y-76179255D01*
X235785369Y-76179249D01*
X235805565Y-76000003D01*
X235805565Y-75999996D01*
X235785369Y-75820750D01*
X235785368Y-75820745D01*
X235772989Y-75785368D01*
X235725789Y-75650478D01*
X235710736Y-75626522D01*
X235673283Y-75566916D01*
X235629816Y-75497738D01*
X235502262Y-75370184D01*
X235469379Y-75349522D01*
X235349523Y-75274211D01*
X235179254Y-75214631D01*
X235179249Y-75214630D01*
X235000004Y-75194435D01*
X234999996Y-75194435D01*
X234820750Y-75214630D01*
X234820745Y-75214631D01*
X234650476Y-75274211D01*
X234497737Y-75370184D01*
X234370184Y-75497737D01*
X234274211Y-75650476D01*
X234214631Y-75820745D01*
X234214630Y-75820750D01*
X234194435Y-75999996D01*
X214805565Y-75999996D01*
X214785369Y-75820750D01*
X214785368Y-75820745D01*
X214772989Y-75785368D01*
X214725789Y-75650478D01*
X214710736Y-75626522D01*
X214673283Y-75566916D01*
X214629816Y-75497738D01*
X214502262Y-75370184D01*
X214469379Y-75349522D01*
X214349523Y-75274211D01*
X214179254Y-75214631D01*
X214179249Y-75214630D01*
X214000004Y-75194435D01*
X213999996Y-75194435D01*
X213820750Y-75214630D01*
X213820745Y-75214631D01*
X213650476Y-75274211D01*
X213497737Y-75370184D01*
X213370184Y-75497737D01*
X213354994Y-75521913D01*
X213302659Y-75568204D01*
X213233605Y-75578852D01*
X213169757Y-75550477D01*
X213145006Y-75521913D01*
X213129816Y-75497738D01*
X213002262Y-75370184D01*
X212969379Y-75349522D01*
X212849523Y-75274211D01*
X212679254Y-75214631D01*
X212679249Y-75214630D01*
X212500004Y-75194435D01*
X212499996Y-75194435D01*
X212320750Y-75214630D01*
X212320745Y-75214631D01*
X212150476Y-75274211D01*
X211997737Y-75370184D01*
X211870184Y-75497737D01*
X211854994Y-75521913D01*
X211802659Y-75568204D01*
X211733605Y-75578852D01*
X211669757Y-75550477D01*
X211645006Y-75521913D01*
X211629816Y-75497738D01*
X211502262Y-75370184D01*
X211469379Y-75349522D01*
X211349523Y-75274211D01*
X211179254Y-75214631D01*
X211179249Y-75214630D01*
X211000004Y-75194435D01*
X210999996Y-75194435D01*
X210820750Y-75214630D01*
X210820745Y-75214631D01*
X210650476Y-75274211D01*
X210497737Y-75370184D01*
X210370184Y-75497737D01*
X210274211Y-75650476D01*
X210214631Y-75820745D01*
X210214630Y-75820750D01*
X210194435Y-75999996D01*
X199805565Y-75999996D01*
X199785369Y-75820750D01*
X199785368Y-75820745D01*
X199772989Y-75785368D01*
X199725789Y-75650478D01*
X199710736Y-75626522D01*
X199673283Y-75566916D01*
X199629816Y-75497738D01*
X199502262Y-75370184D01*
X199469379Y-75349522D01*
X199349523Y-75274211D01*
X199179254Y-75214631D01*
X199179249Y-75214630D01*
X199000004Y-75194435D01*
X198999996Y-75194435D01*
X198820750Y-75214630D01*
X198820745Y-75214631D01*
X198650476Y-75274211D01*
X198497737Y-75370184D01*
X198370184Y-75497737D01*
X198274211Y-75650476D01*
X198214631Y-75820745D01*
X198214630Y-75820750D01*
X198194435Y-75999996D01*
X166805565Y-75999996D01*
X166785369Y-75820750D01*
X166785368Y-75820745D01*
X166772989Y-75785368D01*
X166725789Y-75650478D01*
X166710736Y-75626522D01*
X166673283Y-75566916D01*
X166629816Y-75497738D01*
X166502262Y-75370184D01*
X166469379Y-75349522D01*
X166349523Y-75274211D01*
X166179254Y-75214631D01*
X166179249Y-75214630D01*
X166000004Y-75194435D01*
X165999996Y-75194435D01*
X165820750Y-75214630D01*
X165820745Y-75214631D01*
X165650476Y-75274211D01*
X165497737Y-75370184D01*
X165370184Y-75497737D01*
X165274211Y-75650476D01*
X165214631Y-75820745D01*
X165214630Y-75820750D01*
X165194435Y-75999996D01*
X163003149Y-75999996D01*
X162973960Y-75953458D01*
X162974729Y-75883593D01*
X163013148Y-75825234D01*
X163077019Y-75796910D01*
X163079406Y-75796618D01*
X163122540Y-75791758D01*
X163179249Y-75785369D01*
X163179252Y-75785368D01*
X163179255Y-75785368D01*
X163349522Y-75725789D01*
X163502262Y-75629816D01*
X163629816Y-75502262D01*
X163725789Y-75349522D01*
X163785368Y-75179255D01*
X163785369Y-75179249D01*
X163805565Y-75000003D01*
X163805565Y-74999996D01*
X163785369Y-74820750D01*
X163785368Y-74820745D01*
X163766711Y-74767427D01*
X163747721Y-74713158D01*
X163744161Y-74643380D01*
X163778890Y-74582752D01*
X163840883Y-74550525D01*
X163910458Y-74556930D01*
X163952445Y-74584523D01*
X163997738Y-74629816D01*
X164150478Y-74725789D01*
X164269473Y-74767427D01*
X164320745Y-74785368D01*
X164320750Y-74785369D01*
X164499996Y-74805565D01*
X164500000Y-74805565D01*
X164500004Y-74805565D01*
X164679249Y-74785369D01*
X164679252Y-74785368D01*
X164679255Y-74785368D01*
X164849522Y-74725789D01*
X165002262Y-74629816D01*
X165129816Y-74502262D01*
X165225789Y-74349522D01*
X165255308Y-74265161D01*
X170429270Y-74265161D01*
X170429270Y-74265168D01*
X170449465Y-74444414D01*
X170449466Y-74444419D01*
X170509046Y-74614688D01*
X170570920Y-74713159D01*
X170605019Y-74767427D01*
X170732573Y-74894981D01*
X170773576Y-74920745D01*
X170879333Y-74987197D01*
X170885313Y-74990954D01*
X171052691Y-75049522D01*
X171055580Y-75050533D01*
X171055585Y-75050534D01*
X171234831Y-75070730D01*
X171234835Y-75070730D01*
X171234839Y-75070730D01*
X171414084Y-75050534D01*
X171414087Y-75050533D01*
X171414090Y-75050533D01*
X171584357Y-74990954D01*
X171737097Y-74894981D01*
X171864651Y-74767427D01*
X171960624Y-74614687D01*
X172000756Y-74499996D01*
X183694435Y-74499996D01*
X183694435Y-74500003D01*
X183714630Y-74679249D01*
X183714631Y-74679254D01*
X183774211Y-74849523D01*
X183852356Y-74973889D01*
X183870184Y-75002262D01*
X183997738Y-75129816D01*
X184088080Y-75186582D01*
X184132721Y-75214632D01*
X184150478Y-75225789D01*
X184288860Y-75274211D01*
X184320745Y-75285368D01*
X184320750Y-75285369D01*
X184499996Y-75305565D01*
X184500000Y-75305565D01*
X184500004Y-75305565D01*
X184679249Y-75285369D01*
X184679252Y-75285368D01*
X184679255Y-75285368D01*
X184849522Y-75225789D01*
X185002262Y-75129816D01*
X185129816Y-75002262D01*
X185131240Y-74999996D01*
X226694435Y-74999996D01*
X226694435Y-75000003D01*
X226714630Y-75179249D01*
X226714631Y-75179254D01*
X226774211Y-75349523D01*
X226837045Y-75449522D01*
X226870184Y-75502262D01*
X226997738Y-75629816D01*
X227150478Y-75725789D01*
X227197661Y-75742299D01*
X227320745Y-75785368D01*
X227320750Y-75785369D01*
X227499996Y-75805565D01*
X227500000Y-75805565D01*
X227500004Y-75805565D01*
X227679249Y-75785369D01*
X227679252Y-75785368D01*
X227679255Y-75785368D01*
X227849522Y-75725789D01*
X228002262Y-75629816D01*
X228129816Y-75502262D01*
X228225789Y-75349522D01*
X228285368Y-75179255D01*
X228285369Y-75179249D01*
X228305565Y-75000003D01*
X228305565Y-74999996D01*
X228285369Y-74820750D01*
X228285368Y-74820745D01*
X228266711Y-74767427D01*
X228225789Y-74650478D01*
X228225188Y-74649522D01*
X228144272Y-74520745D01*
X228129816Y-74497738D01*
X228002262Y-74370184D01*
X227969379Y-74349522D01*
X227849523Y-74274211D01*
X227679254Y-74214631D01*
X227679249Y-74214630D01*
X227500004Y-74194435D01*
X227499996Y-74194435D01*
X227320750Y-74214630D01*
X227320745Y-74214631D01*
X227150476Y-74274211D01*
X226997737Y-74370184D01*
X226870184Y-74497737D01*
X226774211Y-74650476D01*
X226714631Y-74820745D01*
X226714630Y-74820750D01*
X226694435Y-74999996D01*
X185131240Y-74999996D01*
X185225789Y-74849522D01*
X185285368Y-74679255D01*
X185287942Y-74656411D01*
X185305565Y-74500003D01*
X185305565Y-74499996D01*
X185285369Y-74320750D01*
X185285368Y-74320745D01*
X185242326Y-74197738D01*
X185225789Y-74150478D01*
X185129816Y-73997738D01*
X185002262Y-73870184D01*
X184963121Y-73845590D01*
X184849523Y-73774211D01*
X184679254Y-73714631D01*
X184679249Y-73714630D01*
X184500004Y-73694435D01*
X184499996Y-73694435D01*
X184320750Y-73714630D01*
X184320745Y-73714631D01*
X184150476Y-73774211D01*
X183997737Y-73870184D01*
X183870184Y-73997737D01*
X183774211Y-74150476D01*
X183714631Y-74320745D01*
X183714630Y-74320750D01*
X183694435Y-74499996D01*
X172000756Y-74499996D01*
X172020203Y-74444420D01*
X172020204Y-74444414D01*
X172040400Y-74265168D01*
X172040400Y-74265162D01*
X172030720Y-74179254D01*
X172029518Y-74168585D01*
X172041572Y-74099764D01*
X172065057Y-74067020D01*
X172129816Y-74002262D01*
X172225789Y-73849522D01*
X172285368Y-73679255D01*
X172286929Y-73665401D01*
X172305565Y-73500003D01*
X172305565Y-73499996D01*
X172285369Y-73320750D01*
X172285368Y-73320745D01*
X172238139Y-73185772D01*
X172225789Y-73150478D01*
X172129816Y-72997738D01*
X172002262Y-72870184D01*
X171969379Y-72849522D01*
X171849523Y-72774211D01*
X171679254Y-72714631D01*
X171679249Y-72714630D01*
X171500004Y-72694435D01*
X171499996Y-72694435D01*
X171320750Y-72714630D01*
X171320745Y-72714631D01*
X171150476Y-72774211D01*
X170997737Y-72870184D01*
X170870184Y-72997737D01*
X170774211Y-73150476D01*
X170714631Y-73320745D01*
X170714630Y-73320750D01*
X170694435Y-73499996D01*
X170694435Y-73500003D01*
X170705316Y-73596579D01*
X170693261Y-73665401D01*
X170669778Y-73698143D01*
X170605019Y-73762902D01*
X170509046Y-73915641D01*
X170449466Y-74085910D01*
X170449465Y-74085915D01*
X170429270Y-74265161D01*
X165255308Y-74265161D01*
X165285368Y-74179255D01*
X165285369Y-74179249D01*
X165305565Y-74000003D01*
X165305565Y-73999996D01*
X165285369Y-73820750D01*
X165285368Y-73820745D01*
X165278248Y-73800396D01*
X165225789Y-73650478D01*
X165209747Y-73624948D01*
X165186582Y-73588080D01*
X165129816Y-73497738D01*
X165002262Y-73370184D01*
X164938878Y-73330357D01*
X164849524Y-73274212D01*
X164849523Y-73274211D01*
X164829084Y-73267059D01*
X164814224Y-73261859D01*
X164757450Y-73221138D01*
X164738139Y-73185772D01*
X164725790Y-73150479D01*
X164650045Y-73029933D01*
X164629816Y-72997738D01*
X164502262Y-72870184D01*
X164469379Y-72849522D01*
X164349523Y-72774211D01*
X164179254Y-72714631D01*
X164179249Y-72714630D01*
X164000004Y-72694435D01*
X163999996Y-72694435D01*
X163847136Y-72711657D01*
X163778314Y-72699602D01*
X163728259Y-72654409D01*
X163631237Y-72500000D01*
X163631234Y-72499996D01*
X172694435Y-72499996D01*
X172694435Y-72500003D01*
X172714630Y-72679249D01*
X172714633Y-72679262D01*
X172774209Y-72849520D01*
X172827309Y-72934029D01*
X172846309Y-73001266D01*
X172827309Y-73065971D01*
X172774209Y-73150479D01*
X172714633Y-73320737D01*
X172714630Y-73320750D01*
X172694435Y-73499996D01*
X172694435Y-73500003D01*
X172714630Y-73679249D01*
X172714631Y-73679254D01*
X172774211Y-73849523D01*
X172867341Y-73997737D01*
X172870184Y-74002262D01*
X172997738Y-74129816D01*
X173050238Y-74162804D01*
X173132721Y-74214632D01*
X173150478Y-74225789D01*
X173245158Y-74258919D01*
X173320745Y-74285368D01*
X173320750Y-74285369D01*
X173499996Y-74305565D01*
X173500000Y-74305565D01*
X173500004Y-74305565D01*
X173679249Y-74285369D01*
X173679252Y-74285368D01*
X173679255Y-74285368D01*
X173849522Y-74225789D01*
X174002262Y-74129816D01*
X174129816Y-74002262D01*
X174225789Y-73849522D01*
X174285368Y-73679255D01*
X174286929Y-73665401D01*
X174305565Y-73500003D01*
X174305565Y-73499996D01*
X197694435Y-73499996D01*
X197694435Y-73500003D01*
X197714630Y-73679249D01*
X197714631Y-73679254D01*
X197774211Y-73849523D01*
X197867341Y-73997737D01*
X197870184Y-74002262D01*
X197997738Y-74129816D01*
X198050238Y-74162804D01*
X198132721Y-74214632D01*
X198150478Y-74225789D01*
X198245158Y-74258919D01*
X198320745Y-74285368D01*
X198320750Y-74285369D01*
X198499996Y-74305565D01*
X198500000Y-74305565D01*
X198500004Y-74305565D01*
X198679249Y-74285369D01*
X198679252Y-74285368D01*
X198679255Y-74285368D01*
X198849522Y-74225789D01*
X199002262Y-74129816D01*
X199060903Y-74071175D01*
X243150548Y-74071175D01*
X243150548Y-75566910D01*
X243150549Y-75566916D01*
X243156956Y-75626523D01*
X243207250Y-75761368D01*
X243207254Y-75761375D01*
X243293500Y-75876584D01*
X243293503Y-75876587D01*
X243408712Y-75962833D01*
X243408719Y-75962837D01*
X243543565Y-76013131D01*
X243543564Y-76013131D01*
X243550492Y-76013875D01*
X243603175Y-76019540D01*
X245098920Y-76019539D01*
X245158531Y-76013131D01*
X245293379Y-75962836D01*
X245408594Y-75876586D01*
X245494844Y-75761371D01*
X245545139Y-75626523D01*
X245551548Y-75566913D01*
X245551547Y-74071168D01*
X245545139Y-74011557D01*
X245542691Y-74004994D01*
X245494845Y-73876711D01*
X245494841Y-73876704D01*
X245408595Y-73761495D01*
X245408592Y-73761492D01*
X245293383Y-73675246D01*
X245293376Y-73675242D01*
X245158530Y-73624948D01*
X245158531Y-73624948D01*
X245098931Y-73618541D01*
X245098929Y-73618540D01*
X245098921Y-73618540D01*
X245098912Y-73618540D01*
X243603177Y-73618540D01*
X243603171Y-73618541D01*
X243543564Y-73624948D01*
X243408719Y-73675242D01*
X243408712Y-73675246D01*
X243293503Y-73761492D01*
X243293500Y-73761495D01*
X243207254Y-73876704D01*
X243207250Y-73876711D01*
X243156956Y-74011557D01*
X243150549Y-74071156D01*
X243150549Y-74071163D01*
X243150548Y-74071175D01*
X199060903Y-74071175D01*
X199129816Y-74002262D01*
X199225789Y-73849522D01*
X199285368Y-73679255D01*
X199286929Y-73665401D01*
X199305565Y-73500003D01*
X199305565Y-73499996D01*
X199285369Y-73320750D01*
X199285368Y-73320745D01*
X199238139Y-73185772D01*
X199225789Y-73150478D01*
X199129816Y-72997738D01*
X199002262Y-72870184D01*
X198969379Y-72849522D01*
X198849523Y-72774211D01*
X198679254Y-72714631D01*
X198679249Y-72714630D01*
X198500004Y-72694435D01*
X198499996Y-72694435D01*
X198320750Y-72714630D01*
X198320745Y-72714631D01*
X198150476Y-72774211D01*
X197997737Y-72870184D01*
X197870184Y-72997737D01*
X197774211Y-73150476D01*
X197714631Y-73320745D01*
X197714630Y-73320750D01*
X197694435Y-73499996D01*
X174305565Y-73499996D01*
X174285369Y-73320750D01*
X174285368Y-73320745D01*
X174225788Y-73150475D01*
X174172691Y-73065973D01*
X174153690Y-72998736D01*
X174172691Y-72934027D01*
X174225788Y-72849524D01*
X174225789Y-72849522D01*
X174285368Y-72679255D01*
X174287978Y-72656094D01*
X174305565Y-72500003D01*
X174305565Y-72499996D01*
X183694435Y-72499996D01*
X183694435Y-72500003D01*
X183714630Y-72679249D01*
X183714631Y-72679254D01*
X183774211Y-72849523D01*
X183827309Y-72934027D01*
X183870184Y-73002262D01*
X183997738Y-73129816D01*
X184030623Y-73150479D01*
X184140532Y-73219540D01*
X184150478Y-73225789D01*
X184253563Y-73261860D01*
X184320745Y-73285368D01*
X184320750Y-73285369D01*
X184499996Y-73305565D01*
X184500000Y-73305565D01*
X184500004Y-73305565D01*
X184679249Y-73285369D01*
X184679252Y-73285368D01*
X184679255Y-73285368D01*
X184849522Y-73225789D01*
X185002262Y-73129816D01*
X185129816Y-73002262D01*
X185225789Y-72849522D01*
X185285368Y-72679255D01*
X185287978Y-72656094D01*
X185305565Y-72500003D01*
X185305565Y-72499996D01*
X185285369Y-72320750D01*
X185285368Y-72320745D01*
X185242326Y-72197738D01*
X185225789Y-72150478D01*
X185222388Y-72145066D01*
X185134188Y-72004696D01*
X185129816Y-71997738D01*
X185002262Y-71870184D01*
X184923307Y-71820573D01*
X184849523Y-71774211D01*
X184679254Y-71714631D01*
X184679249Y-71714630D01*
X184500004Y-71694435D01*
X184499996Y-71694435D01*
X184320750Y-71714630D01*
X184320745Y-71714631D01*
X184150476Y-71774211D01*
X183997737Y-71870184D01*
X183870184Y-71997737D01*
X183774211Y-72150476D01*
X183714631Y-72320745D01*
X183714630Y-72320750D01*
X183694435Y-72499996D01*
X174305565Y-72499996D01*
X174285369Y-72320750D01*
X174285368Y-72320745D01*
X174242326Y-72197738D01*
X174225789Y-72150478D01*
X174222388Y-72145066D01*
X174134188Y-72004696D01*
X174129816Y-71997738D01*
X174002262Y-71870184D01*
X173923307Y-71820573D01*
X173849523Y-71774211D01*
X173679254Y-71714631D01*
X173679249Y-71714630D01*
X173500004Y-71694435D01*
X173499996Y-71694435D01*
X173320750Y-71714630D01*
X173320745Y-71714631D01*
X173150476Y-71774211D01*
X172997737Y-71870184D01*
X172870184Y-71997737D01*
X172774211Y-72150476D01*
X172714631Y-72320745D01*
X172714630Y-72320750D01*
X172694435Y-72499996D01*
X163631234Y-72499996D01*
X163629816Y-72497738D01*
X163502262Y-72370184D01*
X163450728Y-72337803D01*
X163349523Y-72274211D01*
X163179254Y-72214631D01*
X163179249Y-72214630D01*
X163000004Y-72194435D01*
X162999996Y-72194435D01*
X162820750Y-72214630D01*
X162820745Y-72214631D01*
X162650474Y-72274212D01*
X162576796Y-72320507D01*
X162509560Y-72339507D01*
X162442725Y-72319139D01*
X162397511Y-72265871D01*
X162387729Y-72200567D01*
X162393869Y-72150000D01*
X162373271Y-71980357D01*
X162312672Y-71820573D01*
X162296747Y-71797502D01*
X162239546Y-71714632D01*
X162215596Y-71679934D01*
X162214837Y-71679262D01*
X162210026Y-71675000D01*
X164284332Y-71675000D01*
X164304929Y-71844642D01*
X164365529Y-72004428D01*
X164445812Y-72120737D01*
X164462605Y-72145066D01*
X164590517Y-72258387D01*
X164741832Y-72337803D01*
X164907755Y-72378700D01*
X164907756Y-72378700D01*
X165078644Y-72378700D01*
X165078645Y-72378700D01*
X165244568Y-72337803D01*
X165395883Y-72258387D01*
X165523795Y-72145066D01*
X165620871Y-72004427D01*
X165681470Y-71844643D01*
X165702068Y-71675000D01*
X165681470Y-71505357D01*
X165679437Y-71499996D01*
X207194435Y-71499996D01*
X207194435Y-71500003D01*
X207214630Y-71679249D01*
X207214631Y-71679254D01*
X207274211Y-71849523D01*
X207302616Y-71894729D01*
X207370184Y-72002262D01*
X207497738Y-72129816D01*
X207588080Y-72186582D01*
X207632721Y-72214632D01*
X207650478Y-72225789D01*
X207692737Y-72240576D01*
X207820745Y-72285368D01*
X207820750Y-72285369D01*
X207999996Y-72305565D01*
X208000000Y-72305565D01*
X208000004Y-72305565D01*
X208179249Y-72285369D01*
X208179252Y-72285368D01*
X208179255Y-72285368D01*
X208349522Y-72225789D01*
X208502262Y-72129816D01*
X208613039Y-72019039D01*
X243145405Y-72019039D01*
X243145405Y-72019040D01*
X243165932Y-72240575D01*
X243165933Y-72240577D01*
X243226817Y-72454563D01*
X243226823Y-72454578D01*
X243325986Y-72653723D01*
X243325991Y-72653731D01*
X243460068Y-72831278D01*
X243624485Y-72981163D01*
X243624487Y-72981165D01*
X243813643Y-73098285D01*
X243813644Y-73098285D01*
X243813647Y-73098287D01*
X244021108Y-73178658D01*
X244239805Y-73219540D01*
X244239807Y-73219540D01*
X244462289Y-73219540D01*
X244462291Y-73219540D01*
X244680988Y-73178658D01*
X244888449Y-73098287D01*
X245077610Y-72981164D01*
X245235537Y-72837194D01*
X245242027Y-72831278D01*
X245249982Y-72820745D01*
X245376106Y-72653729D01*
X245475277Y-72454568D01*
X245536163Y-72240576D01*
X245556691Y-72019040D01*
X245545660Y-71900000D01*
X245536163Y-71797504D01*
X245536162Y-71797502D01*
X245529535Y-71774211D01*
X245475277Y-71583512D01*
X245475272Y-71583501D01*
X245376109Y-71384356D01*
X245376104Y-71384348D01*
X245242027Y-71206801D01*
X245077610Y-71056916D01*
X245077608Y-71056914D01*
X244888452Y-70939794D01*
X244888446Y-70939792D01*
X244881616Y-70937146D01*
X244680988Y-70859422D01*
X244462291Y-70818540D01*
X244239805Y-70818540D01*
X244021108Y-70859422D01*
X243889912Y-70910247D01*
X243813649Y-70939792D01*
X243813643Y-70939794D01*
X243624487Y-71056914D01*
X243624485Y-71056916D01*
X243460068Y-71206801D01*
X243325991Y-71384348D01*
X243325986Y-71384356D01*
X243226823Y-71583501D01*
X243226817Y-71583516D01*
X243165933Y-71797502D01*
X243165932Y-71797504D01*
X243145405Y-72019039D01*
X208613039Y-72019039D01*
X208629816Y-72002262D01*
X208725789Y-71849522D01*
X208785368Y-71679255D01*
X208785369Y-71679249D01*
X208805565Y-71500003D01*
X208805565Y-71499996D01*
X208785369Y-71320750D01*
X208785368Y-71320745D01*
X208745497Y-71206801D01*
X208725789Y-71150478D01*
X208629816Y-70997738D01*
X208502262Y-70870184D01*
X208502259Y-70870182D01*
X208349523Y-70774211D01*
X208179254Y-70714631D01*
X208179249Y-70714630D01*
X208000004Y-70694435D01*
X207999996Y-70694435D01*
X207820750Y-70714630D01*
X207820745Y-70714631D01*
X207650476Y-70774211D01*
X207497737Y-70870184D01*
X207370184Y-70997737D01*
X207274211Y-71150476D01*
X207214631Y-71320745D01*
X207214630Y-71320750D01*
X207194435Y-71499996D01*
X165679437Y-71499996D01*
X165620871Y-71345573D01*
X165603733Y-71320745D01*
X165529563Y-71213291D01*
X165523795Y-71204934D01*
X165395883Y-71091613D01*
X165244568Y-71012197D01*
X165244567Y-71012196D01*
X165244566Y-71012196D01*
X165132918Y-70984677D01*
X165078645Y-70971300D01*
X164907755Y-70971300D01*
X164866859Y-70981380D01*
X164741833Y-71012196D01*
X164590518Y-71091612D01*
X164462605Y-71204933D01*
X164462603Y-71204936D01*
X164365529Y-71345571D01*
X164304929Y-71505357D01*
X164284332Y-71675000D01*
X162210026Y-71675000D01*
X162199125Y-71665342D01*
X162087684Y-71566613D01*
X161936369Y-71487197D01*
X161936368Y-71487196D01*
X161936367Y-71487196D01*
X161824719Y-71459677D01*
X161770446Y-71446300D01*
X161599556Y-71446300D01*
X161558660Y-71456380D01*
X161433634Y-71487196D01*
X161282319Y-71566612D01*
X161154406Y-71679933D01*
X161154404Y-71679936D01*
X161057330Y-71820571D01*
X160996730Y-71980357D01*
X160976133Y-72150000D01*
X160432078Y-72150000D01*
X160352262Y-72070184D01*
X160270867Y-72019040D01*
X160248039Y-72004696D01*
X160201748Y-71952361D01*
X160191100Y-71883307D01*
X160210522Y-71839603D01*
X160213106Y-71816660D01*
X159991803Y-71595357D01*
X159958318Y-71534034D01*
X159956953Y-71506965D01*
X159955565Y-71506965D01*
X159955565Y-71499997D01*
X159935369Y-71320750D01*
X159935368Y-71320745D01*
X159923257Y-71286134D01*
X159963291Y-71269552D01*
X160019552Y-71213291D01*
X160050000Y-71139782D01*
X160050000Y-71060218D01*
X160019552Y-70986709D01*
X159963291Y-70930448D01*
X159918160Y-70911754D01*
X159959639Y-70901691D01*
X160025666Y-70924542D01*
X160041423Y-70937870D01*
X160566660Y-71463106D01*
X160566661Y-71463106D01*
X160575334Y-71449306D01*
X160575334Y-71449305D01*
X160634877Y-71279141D01*
X160634878Y-71279138D01*
X160655062Y-71100002D01*
X160655062Y-71099998D01*
X160651185Y-71065593D01*
X160663239Y-70996771D01*
X160710587Y-70945391D01*
X160726935Y-70937155D01*
X160819969Y-70898620D01*
X160930606Y-70824695D01*
X161024695Y-70730606D01*
X161098620Y-70619969D01*
X161148314Y-70499996D01*
X173694435Y-70499996D01*
X173694435Y-70500003D01*
X173714630Y-70679249D01*
X173714631Y-70679254D01*
X173774211Y-70849523D01*
X173840689Y-70955321D01*
X173870184Y-71002262D01*
X173997738Y-71129816D01*
X174088080Y-71186582D01*
X174130587Y-71213291D01*
X174150478Y-71225789D01*
X174302941Y-71279138D01*
X174320745Y-71285368D01*
X174320750Y-71285369D01*
X174499996Y-71305565D01*
X174500000Y-71305565D01*
X174500004Y-71305565D01*
X174679249Y-71285369D01*
X174679252Y-71285368D01*
X174679255Y-71285368D01*
X174849522Y-71225789D01*
X175002262Y-71129816D01*
X175129816Y-71002262D01*
X175225789Y-70849522D01*
X175285368Y-70679255D01*
X175285369Y-70679249D01*
X175305565Y-70500003D01*
X175305565Y-70499996D01*
X175285369Y-70320750D01*
X175285368Y-70320745D01*
X175259451Y-70246678D01*
X175225789Y-70150478D01*
X175224618Y-70148615D01*
X175143947Y-70020228D01*
X175131235Y-69999996D01*
X176694435Y-69999996D01*
X176694435Y-70000003D01*
X176714630Y-70179249D01*
X176714631Y-70179254D01*
X176774211Y-70349523D01*
X176866900Y-70497036D01*
X176870184Y-70502262D01*
X176997738Y-70629816D01*
X177076410Y-70679249D01*
X177132721Y-70714632D01*
X177150478Y-70725789D01*
X177225668Y-70752099D01*
X177320745Y-70785368D01*
X177320750Y-70785369D01*
X177499996Y-70805565D01*
X177500000Y-70805565D01*
X177500004Y-70805565D01*
X177679249Y-70785369D01*
X177679252Y-70785368D01*
X177679255Y-70785368D01*
X177849522Y-70725789D01*
X178002262Y-70629816D01*
X178129816Y-70502262D01*
X178225789Y-70349522D01*
X178285368Y-70179255D01*
X178285745Y-70175908D01*
X178305565Y-70000003D01*
X178305565Y-69999996D01*
X178285369Y-69820750D01*
X178285368Y-69820745D01*
X178269682Y-69775917D01*
X178225789Y-69650478D01*
X178225778Y-69650461D01*
X178170879Y-69563089D01*
X178131235Y-69499996D01*
X181694435Y-69499996D01*
X181694435Y-69500003D01*
X181714630Y-69679249D01*
X181714631Y-69679254D01*
X181774211Y-69849523D01*
X181828235Y-69935501D01*
X181870184Y-70002262D01*
X181997738Y-70129816D01*
X182065973Y-70172691D01*
X182117785Y-70205247D01*
X182150478Y-70225789D01*
X182320745Y-70285368D01*
X182320750Y-70285369D01*
X182499996Y-70305565D01*
X182500000Y-70305565D01*
X182500004Y-70305565D01*
X182679249Y-70285369D01*
X182679252Y-70285368D01*
X182679255Y-70285368D01*
X182849522Y-70225789D01*
X182882215Y-70205247D01*
X182934027Y-70172691D01*
X183001264Y-70153690D01*
X183065973Y-70172691D01*
X183150475Y-70225788D01*
X183320745Y-70285368D01*
X183320750Y-70285369D01*
X183499996Y-70305565D01*
X183500000Y-70305565D01*
X183500004Y-70305565D01*
X183679249Y-70285369D01*
X183679252Y-70285368D01*
X183679255Y-70285368D01*
X183849522Y-70225789D01*
X184002262Y-70129816D01*
X184129816Y-70002262D01*
X184131240Y-69999996D01*
X211194435Y-69999996D01*
X211194435Y-70000003D01*
X211214630Y-70179249D01*
X211214631Y-70179254D01*
X211274211Y-70349523D01*
X211366900Y-70497036D01*
X211370184Y-70502262D01*
X211497738Y-70629816D01*
X211576410Y-70679249D01*
X211632721Y-70714632D01*
X211650478Y-70725789D01*
X211725668Y-70752099D01*
X211820745Y-70785368D01*
X211820750Y-70785369D01*
X211999996Y-70805565D01*
X212000000Y-70805565D01*
X212000004Y-70805565D01*
X212179249Y-70785369D01*
X212179252Y-70785368D01*
X212179255Y-70785368D01*
X212349522Y-70725789D01*
X212502262Y-70629816D01*
X212629816Y-70502262D01*
X212631240Y-70499996D01*
X214194435Y-70499996D01*
X214194435Y-70500003D01*
X214214630Y-70679249D01*
X214214631Y-70679254D01*
X214274211Y-70849523D01*
X214340689Y-70955321D01*
X214370184Y-71002262D01*
X214497738Y-71129816D01*
X214588080Y-71186582D01*
X214630587Y-71213291D01*
X214650478Y-71225789D01*
X214802941Y-71279138D01*
X214820745Y-71285368D01*
X214820750Y-71285369D01*
X214999996Y-71305565D01*
X215000000Y-71305565D01*
X215000004Y-71305565D01*
X215179249Y-71285369D01*
X215179252Y-71285368D01*
X215179255Y-71285368D01*
X215349522Y-71225789D01*
X215502262Y-71129816D01*
X215629816Y-71002262D01*
X215725789Y-70849522D01*
X215785368Y-70679255D01*
X215785369Y-70679249D01*
X215805565Y-70500003D01*
X215805565Y-70499996D01*
X215785369Y-70320750D01*
X215785368Y-70320745D01*
X215759451Y-70246678D01*
X215725789Y-70150478D01*
X215724618Y-70148615D01*
X215643947Y-70020228D01*
X215629816Y-69997738D01*
X215502262Y-69870184D01*
X215469379Y-69849522D01*
X215349523Y-69774211D01*
X215179254Y-69714631D01*
X215179249Y-69714630D01*
X215000004Y-69694435D01*
X214999996Y-69694435D01*
X214820750Y-69714630D01*
X214820745Y-69714631D01*
X214650476Y-69774211D01*
X214497737Y-69870184D01*
X214370184Y-69997737D01*
X214274211Y-70150476D01*
X214214631Y-70320745D01*
X214214630Y-70320750D01*
X214194435Y-70499996D01*
X212631240Y-70499996D01*
X212725789Y-70349522D01*
X212785368Y-70179255D01*
X212785745Y-70175908D01*
X212805565Y-70000003D01*
X212805565Y-69999996D01*
X212785369Y-69820750D01*
X212785368Y-69820745D01*
X212769682Y-69775917D01*
X212725789Y-69650478D01*
X212725778Y-69650461D01*
X212706035Y-69619040D01*
X240495771Y-69619040D01*
X240513417Y-69820745D01*
X240514841Y-69837015D01*
X240514841Y-69837019D01*
X240571470Y-70048362D01*
X240571472Y-70048366D01*
X240571473Y-70048370D01*
X240609452Y-70129816D01*
X240663945Y-70246678D01*
X240663946Y-70246679D01*
X240789450Y-70425917D01*
X240944171Y-70580638D01*
X241123409Y-70706142D01*
X241321718Y-70798615D01*
X241533071Y-70855247D01*
X241715248Y-70871185D01*
X241751046Y-70874317D01*
X241751048Y-70874317D01*
X241751050Y-70874317D01*
X241779302Y-70871845D01*
X241969025Y-70855247D01*
X242180378Y-70798615D01*
X242378687Y-70706142D01*
X242557925Y-70580638D01*
X242712646Y-70425917D01*
X242838150Y-70246679D01*
X242930623Y-70048370D01*
X242987255Y-69837017D01*
X243006325Y-69619040D01*
X242987255Y-69401063D01*
X242930623Y-69189710D01*
X242838150Y-68991402D01*
X242838148Y-68991399D01*
X242838147Y-68991397D01*
X242822490Y-68969037D01*
X250245771Y-68969037D01*
X250245771Y-68969042D01*
X250248480Y-69000003D01*
X250264161Y-69179249D01*
X250264841Y-69187015D01*
X250264841Y-69187019D01*
X250321470Y-69398362D01*
X250321472Y-69398366D01*
X250321473Y-69398370D01*
X250357849Y-69476379D01*
X250413945Y-69596678D01*
X250437148Y-69629815D01*
X250539450Y-69775917D01*
X250694171Y-69930638D01*
X250873409Y-70056142D01*
X251071718Y-70148615D01*
X251071724Y-70148616D01*
X251071725Y-70148617D01*
X251090658Y-70153690D01*
X251283071Y-70205247D01*
X251465974Y-70221248D01*
X251501046Y-70224317D01*
X251501048Y-70224317D01*
X251501050Y-70224317D01*
X251529302Y-70221845D01*
X251719025Y-70205247D01*
X251930378Y-70148615D01*
X252128687Y-70056142D01*
X252307925Y-69930638D01*
X252462646Y-69775917D01*
X252588150Y-69596679D01*
X252680623Y-69398370D01*
X252737255Y-69187017D01*
X252756325Y-68969040D01*
X252737255Y-68751063D01*
X252680623Y-68539710D01*
X252588150Y-68341402D01*
X252588148Y-68341399D01*
X252588147Y-68341397D01*
X252462647Y-68162164D01*
X252450959Y-68150476D01*
X252307925Y-68007442D01*
X252128687Y-67881938D01*
X252128688Y-67881938D01*
X252128686Y-67881937D01*
X252029532Y-67835701D01*
X251930378Y-67789465D01*
X251930374Y-67789464D01*
X251930370Y-67789462D01*
X251719025Y-67732833D01*
X251501050Y-67713763D01*
X251501046Y-67713763D01*
X251363598Y-67725788D01*
X251283071Y-67732833D01*
X251283068Y-67732833D01*
X251071725Y-67789462D01*
X251071716Y-67789466D01*
X250873409Y-67881938D01*
X250873405Y-67881940D01*
X250694169Y-68007442D01*
X250539450Y-68162161D01*
X250413948Y-68341397D01*
X250413946Y-68341401D01*
X250321474Y-68539708D01*
X250321470Y-68539717D01*
X250264841Y-68751060D01*
X250264841Y-68751064D01*
X250245771Y-68969037D01*
X242822490Y-68969037D01*
X242712647Y-68812164D01*
X242651543Y-68751060D01*
X242557925Y-68657442D01*
X242378687Y-68531938D01*
X242378688Y-68531938D01*
X242378686Y-68531937D01*
X242256186Y-68474815D01*
X242180378Y-68439465D01*
X242180374Y-68439464D01*
X242180370Y-68439462D01*
X241969025Y-68382833D01*
X241751050Y-68363763D01*
X241751046Y-68363763D01*
X241605730Y-68376476D01*
X241533071Y-68382833D01*
X241533068Y-68382833D01*
X241321725Y-68439462D01*
X241321716Y-68439466D01*
X241123409Y-68531938D01*
X241123405Y-68531940D01*
X240944169Y-68657442D01*
X240789450Y-68812161D01*
X240663948Y-68991397D01*
X240663946Y-68991401D01*
X240571474Y-69189708D01*
X240571470Y-69189717D01*
X240514841Y-69401060D01*
X240514841Y-69401064D01*
X240508252Y-69476383D01*
X240495771Y-69619040D01*
X212706035Y-69619040D01*
X212670879Y-69563089D01*
X212629816Y-69497738D01*
X212502262Y-69370184D01*
X212469379Y-69349522D01*
X212349523Y-69274211D01*
X212179254Y-69214631D01*
X212179249Y-69214630D01*
X212000004Y-69194435D01*
X211999996Y-69194435D01*
X211820750Y-69214630D01*
X211820745Y-69214631D01*
X211650476Y-69274211D01*
X211497737Y-69370184D01*
X211370184Y-69497737D01*
X211274211Y-69650476D01*
X211214631Y-69820745D01*
X211214630Y-69820750D01*
X211194435Y-69999996D01*
X184131240Y-69999996D01*
X184225789Y-69849522D01*
X184285368Y-69679255D01*
X184287130Y-69663616D01*
X184305565Y-69500003D01*
X184305565Y-69499996D01*
X184285369Y-69320750D01*
X184285368Y-69320745D01*
X184241170Y-69194435D01*
X184225789Y-69150478D01*
X184206494Y-69119771D01*
X184155977Y-69039373D01*
X184129816Y-68997738D01*
X184002262Y-68870184D01*
X183999999Y-68868762D01*
X183849523Y-68774211D01*
X183679254Y-68714631D01*
X183679249Y-68714630D01*
X183500004Y-68694435D01*
X183499996Y-68694435D01*
X183320750Y-68714630D01*
X183320737Y-68714633D01*
X183150479Y-68774209D01*
X183065971Y-68827309D01*
X182998734Y-68846309D01*
X182934029Y-68827309D01*
X182849520Y-68774209D01*
X182679262Y-68714633D01*
X182679249Y-68714630D01*
X182500004Y-68694435D01*
X182499996Y-68694435D01*
X182320750Y-68714630D01*
X182320745Y-68714631D01*
X182150476Y-68774211D01*
X181997737Y-68870184D01*
X181870184Y-68997737D01*
X181774211Y-69150476D01*
X181714631Y-69320745D01*
X181714630Y-69320750D01*
X181694435Y-69499996D01*
X178131235Y-69499996D01*
X178129816Y-69497738D01*
X178002262Y-69370184D01*
X177969379Y-69349522D01*
X177849523Y-69274211D01*
X177679254Y-69214631D01*
X177679249Y-69214630D01*
X177500004Y-69194435D01*
X177499996Y-69194435D01*
X177320750Y-69214630D01*
X177320745Y-69214631D01*
X177150476Y-69274211D01*
X176997737Y-69370184D01*
X176870184Y-69497737D01*
X176774211Y-69650476D01*
X176714631Y-69820745D01*
X176714630Y-69820750D01*
X176694435Y-69999996D01*
X175131235Y-69999996D01*
X175129816Y-69997738D01*
X175002262Y-69870184D01*
X174969379Y-69849522D01*
X174849523Y-69774211D01*
X174679254Y-69714631D01*
X174679249Y-69714630D01*
X174500004Y-69694435D01*
X174499996Y-69694435D01*
X174320750Y-69714630D01*
X174320745Y-69714631D01*
X174150476Y-69774211D01*
X173997737Y-69870184D01*
X173870184Y-69997737D01*
X173774211Y-70150476D01*
X173714631Y-70320745D01*
X173714630Y-70320750D01*
X173694435Y-70499996D01*
X161148314Y-70499996D01*
X161149540Y-70497036D01*
X161175500Y-70366531D01*
X161175500Y-70233469D01*
X161175500Y-70233466D01*
X161149541Y-70102969D01*
X161149540Y-70102968D01*
X161149540Y-70102964D01*
X161106890Y-69999996D01*
X161098623Y-69980038D01*
X161098622Y-69980037D01*
X161098620Y-69980031D01*
X161065613Y-69930633D01*
X161024698Y-69869398D01*
X161024692Y-69869390D01*
X160930609Y-69775307D01*
X160930601Y-69775301D01*
X160819979Y-69701386D01*
X160819972Y-69701382D01*
X160819969Y-69701380D01*
X160819965Y-69701378D01*
X160819961Y-69701376D01*
X160697040Y-69650461D01*
X160697030Y-69650458D01*
X160566533Y-69624500D01*
X160566531Y-69624500D01*
X160433469Y-69624500D01*
X160427377Y-69624500D01*
X160427377Y-69622429D01*
X160367994Y-69611160D01*
X160317290Y-69563089D01*
X160300500Y-69500783D01*
X160300500Y-69491155D01*
X160300499Y-69491153D01*
X160282043Y-69398370D01*
X160269737Y-69336503D01*
X160248557Y-69285369D01*
X160209397Y-69190827D01*
X160209390Y-69190814D01*
X160121789Y-69059711D01*
X160121786Y-69059707D01*
X160010292Y-68948213D01*
X160010288Y-68948210D01*
X159879185Y-68860609D01*
X159879172Y-68860602D01*
X159733501Y-68800264D01*
X159733489Y-68800261D01*
X159578845Y-68769500D01*
X159578842Y-68769500D01*
X159565892Y-68769500D01*
X159549779Y-68769500D01*
X159491326Y-68754858D01*
X159365502Y-68687604D01*
X159186333Y-68633253D01*
X159186331Y-68633252D01*
X159000000Y-68614901D01*
X158813668Y-68633252D01*
X158813666Y-68633253D01*
X158634497Y-68687604D01*
X158469376Y-68775862D01*
X158469373Y-68775864D01*
X158324642Y-68894642D01*
X158205864Y-69039373D01*
X158205862Y-69039376D01*
X158117604Y-69204497D01*
X158063253Y-69383666D01*
X158063252Y-69383668D01*
X158044901Y-69570000D01*
X155700500Y-69570000D01*
X155700500Y-69476384D01*
X155663973Y-69292749D01*
X155592322Y-69119769D01*
X155592321Y-69119768D01*
X155592318Y-69119762D01*
X155488302Y-68964092D01*
X155488299Y-68964088D01*
X155355911Y-68831700D01*
X155355907Y-68831697D01*
X155200237Y-68727681D01*
X155200228Y-68727676D01*
X155027251Y-68656027D01*
X155027243Y-68656025D01*
X154843620Y-68619500D01*
X154843616Y-68619500D01*
X154156384Y-68619500D01*
X154156379Y-68619500D01*
X153972756Y-68656025D01*
X153972748Y-68656027D01*
X153799771Y-68727676D01*
X153799762Y-68727681D01*
X153644092Y-68831697D01*
X153644088Y-68831700D01*
X153511700Y-68964088D01*
X153511697Y-68964092D01*
X153407681Y-69119762D01*
X153407676Y-69119771D01*
X153336027Y-69292748D01*
X153336025Y-69292756D01*
X153299500Y-69476379D01*
X153000500Y-69476379D01*
X153000500Y-67844996D01*
X185694435Y-67844996D01*
X185694435Y-67845003D01*
X185714630Y-68024249D01*
X185714631Y-68024254D01*
X185774211Y-68194523D01*
X185824283Y-68274211D01*
X185870184Y-68347262D01*
X185997738Y-68474816D01*
X186150478Y-68570789D01*
X186276543Y-68614901D01*
X186320745Y-68630368D01*
X186320750Y-68630369D01*
X186499996Y-68650565D01*
X186500000Y-68650565D01*
X186500004Y-68650565D01*
X186679249Y-68630369D01*
X186679252Y-68630368D01*
X186679255Y-68630368D01*
X186849522Y-68570789D01*
X186962188Y-68499996D01*
X188344434Y-68499996D01*
X188344434Y-68500003D01*
X188364629Y-68679249D01*
X188364630Y-68679254D01*
X188424210Y-68849523D01*
X188452561Y-68894643D01*
X188520183Y-69002262D01*
X188647737Y-69129816D01*
X188726409Y-69179249D01*
X188782720Y-69214632D01*
X188800477Y-69225789D01*
X188938859Y-69274211D01*
X188970744Y-69285368D01*
X188970749Y-69285369D01*
X189149995Y-69305565D01*
X189149999Y-69305565D01*
X189150003Y-69305565D01*
X189329248Y-69285369D01*
X189329251Y-69285368D01*
X189329254Y-69285368D01*
X189499521Y-69225789D01*
X189652261Y-69129816D01*
X189779815Y-69002262D01*
X189781239Y-68999996D01*
X194194435Y-68999996D01*
X194194435Y-69000003D01*
X194214630Y-69179249D01*
X194214631Y-69179254D01*
X194274211Y-69349523D01*
X194306596Y-69401063D01*
X194370184Y-69502262D01*
X194497738Y-69629816D01*
X194551532Y-69663617D01*
X194632721Y-69714632D01*
X194650478Y-69725789D01*
X194737762Y-69756331D01*
X194820745Y-69785368D01*
X194820750Y-69785369D01*
X194999996Y-69805565D01*
X195000000Y-69805565D01*
X195000004Y-69805565D01*
X195179249Y-69785369D01*
X195179252Y-69785368D01*
X195179255Y-69785368D01*
X195349522Y-69725789D01*
X195502262Y-69629816D01*
X195629816Y-69502262D01*
X195725789Y-69349522D01*
X195785368Y-69179255D01*
X195785369Y-69179249D01*
X195805565Y-69000003D01*
X195805565Y-68999996D01*
X207194435Y-68999996D01*
X207194435Y-69000003D01*
X207214630Y-69179249D01*
X207214631Y-69179254D01*
X207274211Y-69349523D01*
X207306596Y-69401063D01*
X207370184Y-69502262D01*
X207497738Y-69629816D01*
X207551532Y-69663617D01*
X207632721Y-69714632D01*
X207650478Y-69725789D01*
X207737762Y-69756331D01*
X207820745Y-69785368D01*
X207820750Y-69785369D01*
X207999996Y-69805565D01*
X208000000Y-69805565D01*
X208000004Y-69805565D01*
X208179249Y-69785369D01*
X208179252Y-69785368D01*
X208179255Y-69785368D01*
X208349522Y-69725789D01*
X208502262Y-69629816D01*
X208629816Y-69502262D01*
X208725789Y-69349522D01*
X208785368Y-69179255D01*
X208785369Y-69179249D01*
X208805565Y-69000003D01*
X208805565Y-68999996D01*
X208785369Y-68820750D01*
X208785368Y-68820745D01*
X208762313Y-68754858D01*
X208725789Y-68650478D01*
X208703434Y-68614901D01*
X208656189Y-68539710D01*
X208629816Y-68497738D01*
X208502262Y-68370184D01*
X208456448Y-68341397D01*
X208349523Y-68274211D01*
X208179254Y-68214631D01*
X208179249Y-68214630D01*
X208000004Y-68194435D01*
X207999996Y-68194435D01*
X207820750Y-68214630D01*
X207820745Y-68214631D01*
X207650476Y-68274211D01*
X207497737Y-68370184D01*
X207370184Y-68497737D01*
X207274211Y-68650476D01*
X207214631Y-68820745D01*
X207214630Y-68820750D01*
X207194435Y-68999996D01*
X195805565Y-68999996D01*
X195785369Y-68820750D01*
X195785368Y-68820745D01*
X195762313Y-68754858D01*
X195725789Y-68650478D01*
X195703434Y-68614901D01*
X195656189Y-68539710D01*
X195629816Y-68497738D01*
X195502262Y-68370184D01*
X195456448Y-68341397D01*
X195349523Y-68274211D01*
X195179254Y-68214631D01*
X195179249Y-68214630D01*
X195000004Y-68194435D01*
X194999996Y-68194435D01*
X194820750Y-68214630D01*
X194820745Y-68214631D01*
X194650476Y-68274211D01*
X194497737Y-68370184D01*
X194370184Y-68497737D01*
X194274211Y-68650476D01*
X194214631Y-68820745D01*
X194214630Y-68820750D01*
X194194435Y-68999996D01*
X189781239Y-68999996D01*
X189875788Y-68849522D01*
X189935367Y-68679255D01*
X189937984Y-68656027D01*
X189955564Y-68500003D01*
X189955564Y-68499996D01*
X189935368Y-68320750D01*
X189935367Y-68320745D01*
X189891200Y-68194523D01*
X189875788Y-68150478D01*
X189779815Y-67997738D01*
X189652261Y-67870184D01*
X189549421Y-67805565D01*
X189499522Y-67774211D01*
X189329253Y-67714631D01*
X189329248Y-67714630D01*
X189150003Y-67694435D01*
X189149995Y-67694435D01*
X188970749Y-67714630D01*
X188970744Y-67714631D01*
X188800475Y-67774211D01*
X188647736Y-67870184D01*
X188520183Y-67997737D01*
X188424210Y-68150476D01*
X188364630Y-68320745D01*
X188364629Y-68320750D01*
X188344434Y-68499996D01*
X186962188Y-68499996D01*
X187002262Y-68474816D01*
X187129816Y-68347262D01*
X187225789Y-68194522D01*
X187285368Y-68024255D01*
X187285369Y-68024249D01*
X187305565Y-67845003D01*
X187305565Y-67844996D01*
X187285369Y-67665750D01*
X187285368Y-67665745D01*
X187272796Y-67629816D01*
X187225789Y-67495478D01*
X187129816Y-67342738D01*
X187002262Y-67215184D01*
X186849523Y-67119211D01*
X186679254Y-67059631D01*
X186679249Y-67059630D01*
X186500004Y-67039435D01*
X186499996Y-67039435D01*
X186320750Y-67059630D01*
X186320745Y-67059631D01*
X186150476Y-67119211D01*
X185997737Y-67215184D01*
X185870184Y-67342737D01*
X185774211Y-67495476D01*
X185714631Y-67665745D01*
X185714630Y-67665750D01*
X185694435Y-67844996D01*
X153000500Y-67844996D01*
X153000500Y-66999996D01*
X183194435Y-66999996D01*
X183194435Y-67000003D01*
X183214630Y-67179249D01*
X183214631Y-67179254D01*
X183274211Y-67349523D01*
X183365920Y-67495476D01*
X183370184Y-67502262D01*
X183497738Y-67629816D01*
X183554919Y-67665745D01*
X183632721Y-67714632D01*
X183650478Y-67725789D01*
X183670609Y-67732833D01*
X183820745Y-67785368D01*
X183820750Y-67785369D01*
X183999996Y-67805565D01*
X184000000Y-67805565D01*
X184000004Y-67805565D01*
X184179249Y-67785369D01*
X184179252Y-67785368D01*
X184179255Y-67785368D01*
X184349522Y-67725789D01*
X184502262Y-67629816D01*
X184629816Y-67502262D01*
X184725789Y-67349522D01*
X184785368Y-67179255D01*
X184785369Y-67179249D01*
X184805565Y-67000003D01*
X184805565Y-66999996D01*
X214194435Y-66999996D01*
X214194435Y-67000003D01*
X214214630Y-67179249D01*
X214214631Y-67179254D01*
X214274211Y-67349523D01*
X214365920Y-67495476D01*
X214370184Y-67502262D01*
X214497738Y-67629816D01*
X214554919Y-67665745D01*
X214632721Y-67714632D01*
X214650478Y-67725789D01*
X214670609Y-67732833D01*
X214820745Y-67785368D01*
X214820750Y-67785369D01*
X214999996Y-67805565D01*
X215000000Y-67805565D01*
X215000004Y-67805565D01*
X215179249Y-67785369D01*
X215179252Y-67785368D01*
X215179255Y-67785368D01*
X215349522Y-67725789D01*
X215502262Y-67629816D01*
X215629816Y-67502262D01*
X215725789Y-67349522D01*
X215785368Y-67179255D01*
X215785369Y-67179249D01*
X215805565Y-67000003D01*
X215805565Y-66999996D01*
X215785369Y-66820750D01*
X215785368Y-66820745D01*
X215725788Y-66650476D01*
X215629815Y-66497737D01*
X215502262Y-66370184D01*
X215349523Y-66274211D01*
X215179254Y-66214631D01*
X215179249Y-66214630D01*
X215000004Y-66194435D01*
X214999996Y-66194435D01*
X214820750Y-66214630D01*
X214820745Y-66214631D01*
X214650476Y-66274211D01*
X214497737Y-66370184D01*
X214370184Y-66497737D01*
X214274211Y-66650476D01*
X214214631Y-66820745D01*
X214214630Y-66820750D01*
X214194435Y-66999996D01*
X184805565Y-66999996D01*
X184785369Y-66820750D01*
X184785368Y-66820745D01*
X184725788Y-66650476D01*
X184629815Y-66497737D01*
X184502262Y-66370184D01*
X184349523Y-66274211D01*
X184179254Y-66214631D01*
X184179249Y-66214630D01*
X184000004Y-66194435D01*
X183999996Y-66194435D01*
X183820750Y-66214630D01*
X183820745Y-66214631D01*
X183650476Y-66274211D01*
X183497737Y-66370184D01*
X183370184Y-66497737D01*
X183274211Y-66650476D01*
X183214631Y-66820745D01*
X183214630Y-66820750D01*
X183194435Y-66999996D01*
X153000500Y-66999996D01*
X153000500Y-64999999D01*
X167344722Y-64999999D01*
X167344722Y-65000000D01*
X167363762Y-65156818D01*
X167389920Y-65225789D01*
X167419780Y-65304523D01*
X167509517Y-65434530D01*
X167627760Y-65539283D01*
X167627762Y-65539284D01*
X167767634Y-65612696D01*
X167921014Y-65650500D01*
X167921015Y-65650500D01*
X168078985Y-65650500D01*
X168232365Y-65612696D01*
X168372240Y-65539283D01*
X168490483Y-65434530D01*
X168580220Y-65304523D01*
X168636237Y-65156818D01*
X168655278Y-65000000D01*
X168655278Y-64999996D01*
X181694435Y-64999996D01*
X181694435Y-65000003D01*
X181714630Y-65179249D01*
X181714631Y-65179254D01*
X181774211Y-65349523D01*
X181827624Y-65434528D01*
X181870184Y-65502262D01*
X181997738Y-65629816D01*
X182150478Y-65725789D01*
X182320745Y-65785368D01*
X182320750Y-65785369D01*
X182499996Y-65805565D01*
X182500000Y-65805565D01*
X182500004Y-65805565D01*
X182679249Y-65785369D01*
X182679252Y-65785368D01*
X182679255Y-65785368D01*
X182849522Y-65725789D01*
X183002262Y-65629816D01*
X183129816Y-65502262D01*
X183225789Y-65349522D01*
X183285368Y-65179255D01*
X183287896Y-65156818D01*
X183305565Y-65000003D01*
X183305565Y-64999996D01*
X183285369Y-64820750D01*
X183285368Y-64820745D01*
X183272989Y-64785368D01*
X183225789Y-64650478D01*
X183209622Y-64624749D01*
X183186582Y-64588080D01*
X183129816Y-64497738D01*
X183002262Y-64370184D01*
X182969344Y-64349500D01*
X182849523Y-64274211D01*
X182679254Y-64214631D01*
X182679249Y-64214630D01*
X182500004Y-64194435D01*
X182499996Y-64194435D01*
X182320750Y-64214630D01*
X182320745Y-64214631D01*
X182150476Y-64274211D01*
X181997737Y-64370184D01*
X181870184Y-64497737D01*
X181774211Y-64650476D01*
X181714631Y-64820745D01*
X181714630Y-64820750D01*
X181694435Y-64999996D01*
X168655278Y-64999996D01*
X168636530Y-64845590D01*
X168636237Y-64843181D01*
X168614311Y-64785368D01*
X168580220Y-64695477D01*
X168490483Y-64565470D01*
X168372240Y-64460717D01*
X168372238Y-64460716D01*
X168372237Y-64460715D01*
X168232365Y-64387303D01*
X168078986Y-64349500D01*
X168078985Y-64349500D01*
X167921015Y-64349500D01*
X167921014Y-64349500D01*
X167767634Y-64387303D01*
X167627762Y-64460715D01*
X167509516Y-64565471D01*
X167419781Y-64695475D01*
X167419780Y-64695476D01*
X167363762Y-64843181D01*
X167344722Y-64999999D01*
X153000500Y-64999999D01*
X153000500Y-63999996D01*
X186694435Y-63999996D01*
X186694435Y-64000003D01*
X186714630Y-64179249D01*
X186714631Y-64179254D01*
X186774211Y-64349523D01*
X186867341Y-64497737D01*
X186870184Y-64502262D01*
X186997738Y-64629816D01*
X187150478Y-64725789D01*
X187320745Y-64785368D01*
X187320750Y-64785369D01*
X187499996Y-64805565D01*
X187500000Y-64805565D01*
X187500004Y-64805565D01*
X187679249Y-64785369D01*
X187679252Y-64785368D01*
X187679255Y-64785368D01*
X187849522Y-64725789D01*
X188002262Y-64629816D01*
X188007331Y-64624746D01*
X188068649Y-64591261D01*
X188138341Y-64596242D01*
X188194276Y-64638111D01*
X188210573Y-64673297D01*
X188212332Y-64672682D01*
X188274211Y-64849523D01*
X188368760Y-64999996D01*
X188370184Y-65002262D01*
X188497738Y-65129816D01*
X188650478Y-65225789D01*
X188820745Y-65285368D01*
X188820750Y-65285369D01*
X188999996Y-65305565D01*
X189000000Y-65305565D01*
X189000004Y-65305565D01*
X189179249Y-65285369D01*
X189179252Y-65285368D01*
X189179255Y-65285368D01*
X189349522Y-65225789D01*
X189502262Y-65129816D01*
X189629816Y-65002262D01*
X189631240Y-64999996D01*
X204194435Y-64999996D01*
X204194435Y-65000003D01*
X204214630Y-65179249D01*
X204214631Y-65179254D01*
X204274211Y-65349523D01*
X204327624Y-65434528D01*
X204370184Y-65502262D01*
X204497738Y-65629816D01*
X204650478Y-65725789D01*
X204820745Y-65785368D01*
X204820750Y-65785369D01*
X204999996Y-65805565D01*
X205000000Y-65805565D01*
X205000004Y-65805565D01*
X205179249Y-65785369D01*
X205179252Y-65785368D01*
X205179255Y-65785368D01*
X205349522Y-65725789D01*
X205502262Y-65629816D01*
X205629816Y-65502262D01*
X205725789Y-65349522D01*
X205785368Y-65179255D01*
X205787896Y-65156818D01*
X205805565Y-65000003D01*
X205805565Y-64999996D01*
X205785369Y-64820750D01*
X205785368Y-64820745D01*
X205772989Y-64785368D01*
X205725789Y-64650478D01*
X205709622Y-64624749D01*
X205686582Y-64588080D01*
X205629816Y-64497738D01*
X205502262Y-64370184D01*
X205469344Y-64349500D01*
X205349523Y-64274211D01*
X205179254Y-64214631D01*
X205179249Y-64214630D01*
X205000004Y-64194435D01*
X204999996Y-64194435D01*
X204820750Y-64214630D01*
X204820745Y-64214631D01*
X204650476Y-64274211D01*
X204497737Y-64370184D01*
X204370184Y-64497737D01*
X204274211Y-64650476D01*
X204214631Y-64820745D01*
X204214630Y-64820750D01*
X204194435Y-64999996D01*
X189631240Y-64999996D01*
X189725789Y-64849522D01*
X189725789Y-64849519D01*
X189728259Y-64845590D01*
X189780594Y-64799299D01*
X189847136Y-64788342D01*
X189999996Y-64805565D01*
X190000000Y-64805565D01*
X190000004Y-64805565D01*
X190179249Y-64785369D01*
X190179252Y-64785368D01*
X190179255Y-64785368D01*
X190349522Y-64725789D01*
X190502262Y-64629816D01*
X190629816Y-64502262D01*
X190725789Y-64349522D01*
X190785368Y-64179255D01*
X190805565Y-64000000D01*
X190805310Y-63997738D01*
X190785369Y-63820750D01*
X190785368Y-63820745D01*
X190769085Y-63774211D01*
X190725789Y-63650478D01*
X190629816Y-63497738D01*
X190502262Y-63370184D01*
X190399422Y-63305565D01*
X190349523Y-63274211D01*
X190179254Y-63214631D01*
X190179249Y-63214630D01*
X190000004Y-63194435D01*
X189999996Y-63194435D01*
X189820750Y-63214630D01*
X189820745Y-63214631D01*
X189650476Y-63274211D01*
X189497737Y-63370184D01*
X189370182Y-63497739D01*
X189271739Y-63654410D01*
X189219405Y-63700700D01*
X189152863Y-63711657D01*
X189000004Y-63694435D01*
X188999996Y-63694435D01*
X188820750Y-63714630D01*
X188820745Y-63714631D01*
X188650476Y-63774211D01*
X188497738Y-63870183D01*
X188492663Y-63875259D01*
X188431338Y-63908741D01*
X188361647Y-63903753D01*
X188305715Y-63861878D01*
X188289435Y-63826699D01*
X188287668Y-63827318D01*
X188269085Y-63774211D01*
X188225789Y-63650478D01*
X188129816Y-63497738D01*
X188002262Y-63370184D01*
X187899422Y-63305565D01*
X187849523Y-63274211D01*
X187679254Y-63214631D01*
X187679249Y-63214630D01*
X187500004Y-63194435D01*
X187499996Y-63194435D01*
X187320750Y-63214630D01*
X187320745Y-63214631D01*
X187150476Y-63274211D01*
X186997737Y-63370184D01*
X186870184Y-63497737D01*
X186774211Y-63650476D01*
X186714631Y-63820745D01*
X186714630Y-63820750D01*
X186694435Y-63999996D01*
X153000500Y-63999996D01*
X153000500Y-62499996D01*
X166194435Y-62499996D01*
X166194435Y-62500003D01*
X166214630Y-62679249D01*
X166214631Y-62679254D01*
X166274211Y-62849523D01*
X166289952Y-62874574D01*
X166370184Y-63002262D01*
X166497738Y-63129816D01*
X166588080Y-63186582D01*
X166632721Y-63214632D01*
X166650478Y-63225789D01*
X166788860Y-63274211D01*
X166820745Y-63285368D01*
X166820750Y-63285369D01*
X166999996Y-63305565D01*
X167000000Y-63305565D01*
X167000004Y-63305565D01*
X167179249Y-63285369D01*
X167179252Y-63285368D01*
X167179255Y-63285368D01*
X167349522Y-63225789D01*
X167502262Y-63129816D01*
X167629816Y-63002262D01*
X167725789Y-62849522D01*
X167785368Y-62679255D01*
X167785369Y-62679249D01*
X167805565Y-62500003D01*
X167805565Y-62499996D01*
X167785369Y-62320750D01*
X167785368Y-62320745D01*
X167759664Y-62247287D01*
X167725789Y-62150478D01*
X167629816Y-61997738D01*
X167502262Y-61870184D01*
X167450809Y-61837854D01*
X167349523Y-61774211D01*
X167179254Y-61714631D01*
X167179249Y-61714630D01*
X167000004Y-61694435D01*
X166999996Y-61694435D01*
X166820750Y-61714630D01*
X166820745Y-61714631D01*
X166650476Y-61774211D01*
X166497737Y-61870184D01*
X166370184Y-61997737D01*
X166274211Y-62150476D01*
X166214631Y-62320745D01*
X166214630Y-62320750D01*
X166194435Y-62499996D01*
X153000500Y-62499996D01*
X153000500Y-56539999D01*
X168125426Y-56539999D01*
X168125426Y-56540000D01*
X168144485Y-56757849D01*
X168144487Y-56757859D01*
X168201083Y-56969082D01*
X168201085Y-56969086D01*
X168201086Y-56969090D01*
X168247296Y-57068188D01*
X168293506Y-57167286D01*
X168293507Y-57167287D01*
X168418941Y-57346425D01*
X168573575Y-57501059D01*
X168752712Y-57626492D01*
X168752713Y-57626493D01*
X168905241Y-57697618D01*
X168957680Y-57743790D01*
X168976832Y-57810984D01*
X168956616Y-57877865D01*
X168905241Y-57922382D01*
X168752713Y-57993506D01*
X168633201Y-58077190D01*
X168573575Y-58118941D01*
X168573573Y-58118942D01*
X168573570Y-58118945D01*
X168418945Y-58273570D01*
X168293506Y-58452713D01*
X168272511Y-58497738D01*
X168201288Y-58650478D01*
X168201087Y-58650908D01*
X168201083Y-58650917D01*
X168144487Y-58862140D01*
X168144485Y-58862150D01*
X168125426Y-59079999D01*
X168125426Y-59080000D01*
X168144485Y-59297849D01*
X168144487Y-59297859D01*
X168201083Y-59509082D01*
X168201085Y-59509086D01*
X168201086Y-59509090D01*
X168247296Y-59608188D01*
X168293506Y-59707286D01*
X168306462Y-59725789D01*
X168418941Y-59886425D01*
X168573575Y-60041059D01*
X168752712Y-60166492D01*
X168752713Y-60166493D01*
X168905241Y-60237618D01*
X168957680Y-60283790D01*
X168976832Y-60350984D01*
X168956616Y-60417865D01*
X168905241Y-60462382D01*
X168752713Y-60533506D01*
X168633201Y-60617190D01*
X168573575Y-60658941D01*
X168573573Y-60658942D01*
X168573570Y-60658945D01*
X168418945Y-60813570D01*
X168418942Y-60813573D01*
X168418941Y-60813575D01*
X168412457Y-60822835D01*
X168293506Y-60992713D01*
X168201087Y-61190908D01*
X168201083Y-61190917D01*
X168144487Y-61402140D01*
X168144485Y-61402150D01*
X168125426Y-61619999D01*
X168125426Y-61620000D01*
X168144485Y-61837849D01*
X168144487Y-61837859D01*
X168201083Y-62049082D01*
X168201085Y-62049086D01*
X168201086Y-62049090D01*
X168247296Y-62148188D01*
X168293506Y-62247286D01*
X168293507Y-62247287D01*
X168418941Y-62426425D01*
X168573575Y-62581059D01*
X168752713Y-62706493D01*
X168950910Y-62798914D01*
X169162146Y-62855514D01*
X169325411Y-62869798D01*
X169379999Y-62874574D01*
X169380000Y-62874574D01*
X169380001Y-62874574D01*
X169434566Y-62869800D01*
X169597854Y-62855514D01*
X169809090Y-62798914D01*
X170007287Y-62706493D01*
X170186425Y-62581059D01*
X170341059Y-62426425D01*
X170466493Y-62247287D01*
X170558914Y-62049090D01*
X170615514Y-61837854D01*
X170634574Y-61620000D01*
X170615514Y-61402146D01*
X170558914Y-61190910D01*
X170466493Y-60992713D01*
X170341059Y-60813575D01*
X170186425Y-60658941D01*
X170007287Y-60533507D01*
X169854756Y-60462380D01*
X169802319Y-60416210D01*
X169783167Y-60349016D01*
X169803383Y-60282135D01*
X169854756Y-60237619D01*
X170007287Y-60166493D01*
X170186425Y-60041059D01*
X170341059Y-59886425D01*
X170466493Y-59707287D01*
X170558914Y-59509090D01*
X170615514Y-59297854D01*
X170634574Y-59080000D01*
X170615514Y-58862146D01*
X170558914Y-58650910D01*
X170466493Y-58452713D01*
X170341059Y-58273575D01*
X170186425Y-58118941D01*
X170007287Y-57993507D01*
X169854756Y-57922380D01*
X169802319Y-57876210D01*
X169783167Y-57809016D01*
X169803383Y-57742135D01*
X169854756Y-57697619D01*
X170007287Y-57626493D01*
X170186425Y-57501059D01*
X170341059Y-57346425D01*
X170466493Y-57167287D01*
X170558914Y-56969090D01*
X170615514Y-56757854D01*
X170634574Y-56540000D01*
X170615514Y-56322146D01*
X170558914Y-56110910D01*
X170466493Y-55912713D01*
X170341059Y-55733575D01*
X170186425Y-55578941D01*
X170007287Y-55453507D01*
X170007288Y-55453507D01*
X170007286Y-55453506D01*
X169854166Y-55382105D01*
X169801727Y-55335932D01*
X169782575Y-55268739D01*
X169802791Y-55201858D01*
X169854167Y-55157340D01*
X170007040Y-55086055D01*
X170069068Y-55042622D01*
X170069068Y-55042621D01*
X169505572Y-54479125D01*
X169571179Y-54461546D01*
X169684121Y-54396339D01*
X169776339Y-54304121D01*
X169841546Y-54191179D01*
X169859125Y-54125572D01*
X170422621Y-54689068D01*
X170422622Y-54689068D01*
X170466056Y-54627039D01*
X170466058Y-54627035D01*
X170558440Y-54428919D01*
X170558444Y-54428910D01*
X170615018Y-54217771D01*
X170615020Y-54217761D01*
X170634072Y-54000001D01*
X170634072Y-53999999D01*
X175745426Y-53999999D01*
X175745426Y-54000000D01*
X175764485Y-54217849D01*
X175764487Y-54217859D01*
X175821083Y-54429082D01*
X175821085Y-54429086D01*
X175821086Y-54429090D01*
X175836221Y-54461546D01*
X175913506Y-54627286D01*
X175913507Y-54627287D01*
X176038941Y-54806425D01*
X176193575Y-54961059D01*
X176372087Y-55086055D01*
X176372713Y-55086493D01*
X176525241Y-55157618D01*
X176577680Y-55203790D01*
X176596832Y-55270984D01*
X176576616Y-55337865D01*
X176525241Y-55382382D01*
X176372713Y-55453506D01*
X176253201Y-55537190D01*
X176193575Y-55578941D01*
X176193573Y-55578942D01*
X176193570Y-55578945D01*
X176038945Y-55733570D01*
X175913506Y-55912713D01*
X175821087Y-56110908D01*
X175821083Y-56110917D01*
X175764487Y-56322140D01*
X175764485Y-56322150D01*
X175745426Y-56539999D01*
X175745426Y-56540000D01*
X175764485Y-56757849D01*
X175764487Y-56757859D01*
X175821083Y-56969082D01*
X175821085Y-56969086D01*
X175821086Y-56969090D01*
X175867296Y-57068188D01*
X175913506Y-57167286D01*
X175913507Y-57167287D01*
X176038941Y-57346425D01*
X176193575Y-57501059D01*
X176372712Y-57626492D01*
X176372713Y-57626493D01*
X176525241Y-57697618D01*
X176577680Y-57743790D01*
X176596832Y-57810984D01*
X176576616Y-57877865D01*
X176525241Y-57922382D01*
X176372713Y-57993506D01*
X176253201Y-58077190D01*
X176193575Y-58118941D01*
X176193573Y-58118942D01*
X176193570Y-58118945D01*
X176038945Y-58273570D01*
X175913506Y-58452713D01*
X175892511Y-58497738D01*
X175821288Y-58650478D01*
X175821087Y-58650908D01*
X175821083Y-58650917D01*
X175764487Y-58862140D01*
X175764485Y-58862150D01*
X175745426Y-59079999D01*
X175745426Y-59080000D01*
X175764485Y-59297849D01*
X175764487Y-59297859D01*
X175821083Y-59509082D01*
X175821085Y-59509086D01*
X175821086Y-59509090D01*
X175867296Y-59608188D01*
X175913506Y-59707286D01*
X175926462Y-59725789D01*
X176038941Y-59886425D01*
X176193575Y-60041059D01*
X176341486Y-60144627D01*
X176385108Y-60199202D01*
X176392301Y-60268701D01*
X176360779Y-60331055D01*
X176300549Y-60366469D01*
X176270362Y-60370200D01*
X176202830Y-60370200D01*
X176202823Y-60370201D01*
X176143216Y-60376608D01*
X176008371Y-60426902D01*
X176008364Y-60426906D01*
X175893155Y-60513152D01*
X175893152Y-60513155D01*
X175806906Y-60628364D01*
X175806902Y-60628371D01*
X175756608Y-60763217D01*
X175750201Y-60822816D01*
X175750201Y-60822823D01*
X175750200Y-60822835D01*
X175750200Y-62417170D01*
X175750201Y-62417176D01*
X175756608Y-62476783D01*
X175806902Y-62611628D01*
X175806906Y-62611635D01*
X175893152Y-62726844D01*
X175893155Y-62726847D01*
X176008364Y-62813093D01*
X176008371Y-62813097D01*
X176143217Y-62863391D01*
X176143216Y-62863391D01*
X176150144Y-62864135D01*
X176202827Y-62869800D01*
X177797172Y-62869799D01*
X177856783Y-62863391D01*
X177991631Y-62813096D01*
X178106846Y-62726846D01*
X178193096Y-62611631D01*
X178243391Y-62476783D01*
X178249800Y-62417173D01*
X178249800Y-61999996D01*
X191694435Y-61999996D01*
X191694435Y-62000003D01*
X191714630Y-62179249D01*
X191714631Y-62179254D01*
X191774211Y-62349523D01*
X191816713Y-62417164D01*
X191870184Y-62502262D01*
X191997738Y-62629816D01*
X192076410Y-62679249D01*
X192119768Y-62706493D01*
X192150478Y-62725789D01*
X192153502Y-62726847D01*
X192320745Y-62785368D01*
X192320750Y-62785369D01*
X192499996Y-62805565D01*
X192500000Y-62805565D01*
X192500004Y-62805565D01*
X192679249Y-62785369D01*
X192679252Y-62785368D01*
X192679255Y-62785368D01*
X192849522Y-62725789D01*
X193002262Y-62629816D01*
X193129816Y-62502262D01*
X193225789Y-62349522D01*
X193285368Y-62179255D01*
X193285369Y-62179249D01*
X193305565Y-62000003D01*
X193305565Y-61999996D01*
X193285369Y-61820750D01*
X193285368Y-61820745D01*
X193225788Y-61650476D01*
X193129815Y-61497737D01*
X193002262Y-61370184D01*
X192849523Y-61274211D01*
X192679254Y-61214631D01*
X192679249Y-61214630D01*
X192500004Y-61194435D01*
X192499996Y-61194435D01*
X192320750Y-61214630D01*
X192320745Y-61214631D01*
X192150476Y-61274211D01*
X191997737Y-61370184D01*
X191870184Y-61497737D01*
X191774211Y-61650476D01*
X191714631Y-61820745D01*
X191714630Y-61820750D01*
X191694435Y-61999996D01*
X178249800Y-61999996D01*
X178249799Y-60822828D01*
X178243391Y-60763217D01*
X178212075Y-60679255D01*
X178193097Y-60628371D01*
X178193093Y-60628364D01*
X178106847Y-60513155D01*
X178106844Y-60513152D01*
X178089270Y-60499996D01*
X182694435Y-60499996D01*
X182694435Y-60500003D01*
X182714630Y-60679249D01*
X182714631Y-60679254D01*
X182774211Y-60849523D01*
X182864184Y-60992713D01*
X182870184Y-61002262D01*
X182997738Y-61129816D01*
X183088080Y-61186582D01*
X183132721Y-61214632D01*
X183150478Y-61225789D01*
X183288860Y-61274211D01*
X183320745Y-61285368D01*
X183320750Y-61285369D01*
X183499996Y-61305565D01*
X183500000Y-61305565D01*
X183500004Y-61305565D01*
X183679249Y-61285369D01*
X183679252Y-61285368D01*
X183679255Y-61285368D01*
X183849522Y-61225789D01*
X184002262Y-61129816D01*
X184129816Y-61002262D01*
X184225789Y-60849522D01*
X184285368Y-60679255D01*
X184285369Y-60679249D01*
X184305565Y-60500003D01*
X184305565Y-60499996D01*
X231194435Y-60499996D01*
X231194435Y-60500003D01*
X231214630Y-60679249D01*
X231214631Y-60679254D01*
X231274211Y-60849523D01*
X231364184Y-60992713D01*
X231370184Y-61002262D01*
X231497738Y-61129816D01*
X231588080Y-61186582D01*
X231632721Y-61214632D01*
X231650478Y-61225789D01*
X231788860Y-61274211D01*
X231820745Y-61285368D01*
X231820750Y-61285369D01*
X231999996Y-61305565D01*
X232000000Y-61305565D01*
X232000004Y-61305565D01*
X232179249Y-61285369D01*
X232179252Y-61285368D01*
X232179255Y-61285368D01*
X232349522Y-61225789D01*
X232502262Y-61129816D01*
X232629816Y-61002262D01*
X232725789Y-60849522D01*
X232785368Y-60679255D01*
X232785369Y-60679249D01*
X232805565Y-60500003D01*
X232805565Y-60499996D01*
X232785369Y-60320750D01*
X232785368Y-60320745D01*
X232763732Y-60258914D01*
X232725789Y-60150478D01*
X232722111Y-60144625D01*
X232629815Y-59997737D01*
X232502262Y-59870184D01*
X232349523Y-59774211D01*
X232179254Y-59714631D01*
X232179249Y-59714630D01*
X232000004Y-59694435D01*
X231999996Y-59694435D01*
X231820750Y-59714630D01*
X231820745Y-59714631D01*
X231650476Y-59774211D01*
X231497737Y-59870184D01*
X231370184Y-59997737D01*
X231274211Y-60150476D01*
X231214631Y-60320745D01*
X231214630Y-60320750D01*
X231194435Y-60499996D01*
X184305565Y-60499996D01*
X184285369Y-60320750D01*
X184285368Y-60320745D01*
X184263732Y-60258914D01*
X184225789Y-60150478D01*
X184222111Y-60144625D01*
X184129815Y-59997737D01*
X184002262Y-59870184D01*
X183849523Y-59774211D01*
X183679254Y-59714631D01*
X183679249Y-59714630D01*
X183500004Y-59694435D01*
X183499996Y-59694435D01*
X183320750Y-59714630D01*
X183320745Y-59714631D01*
X183150476Y-59774211D01*
X182997737Y-59870184D01*
X182870184Y-59997737D01*
X182774211Y-60150476D01*
X182714631Y-60320745D01*
X182714630Y-60320750D01*
X182694435Y-60499996D01*
X178089270Y-60499996D01*
X177991635Y-60426906D01*
X177991628Y-60426902D01*
X177856782Y-60376608D01*
X177856783Y-60376608D01*
X177797183Y-60370201D01*
X177797181Y-60370200D01*
X177797173Y-60370200D01*
X177797165Y-60370200D01*
X177729640Y-60370200D01*
X177662601Y-60350515D01*
X177616846Y-60297711D01*
X177606902Y-60228553D01*
X177635927Y-60164997D01*
X177658510Y-60144630D01*
X177806425Y-60041059D01*
X177961059Y-59886425D01*
X178086493Y-59707287D01*
X178178914Y-59509090D01*
X178235514Y-59297854D01*
X178254574Y-59080000D01*
X178247574Y-58999996D01*
X178694435Y-58999996D01*
X178694435Y-59000003D01*
X178714630Y-59179249D01*
X178714631Y-59179254D01*
X178774211Y-59349523D01*
X178870184Y-59502262D01*
X178997738Y-59629816D01*
X179088080Y-59686582D01*
X179132721Y-59714632D01*
X179150478Y-59725789D01*
X179288860Y-59774211D01*
X179320745Y-59785368D01*
X179320750Y-59785369D01*
X179499996Y-59805565D01*
X179500000Y-59805565D01*
X179500004Y-59805565D01*
X179679249Y-59785369D01*
X179679252Y-59785368D01*
X179679255Y-59785368D01*
X179849522Y-59725789D01*
X180002262Y-59629816D01*
X180129816Y-59502262D01*
X180225789Y-59349522D01*
X180285368Y-59179255D01*
X180285369Y-59179249D01*
X180305565Y-59000003D01*
X180305565Y-58999996D01*
X180285369Y-58820750D01*
X180285368Y-58820745D01*
X180225789Y-58650478D01*
X180129816Y-58497738D01*
X180002262Y-58370184D01*
X179849523Y-58274211D01*
X179679254Y-58214631D01*
X179679249Y-58214630D01*
X179500004Y-58194435D01*
X179499996Y-58194435D01*
X179320750Y-58214630D01*
X179320745Y-58214631D01*
X179150476Y-58274211D01*
X178997737Y-58370184D01*
X178870184Y-58497737D01*
X178774211Y-58650476D01*
X178714631Y-58820745D01*
X178714630Y-58820750D01*
X178694435Y-58999996D01*
X178247574Y-58999996D01*
X178235514Y-58862146D01*
X178178914Y-58650910D01*
X178086493Y-58452713D01*
X177961059Y-58273575D01*
X177806425Y-58118941D01*
X177627287Y-57993507D01*
X177474756Y-57922380D01*
X177422319Y-57876210D01*
X177403167Y-57809016D01*
X177423383Y-57742135D01*
X177474756Y-57697619D01*
X177627287Y-57626493D01*
X177806425Y-57501059D01*
X177961059Y-57346425D01*
X178086493Y-57167287D01*
X178178914Y-56969090D01*
X178235514Y-56757854D01*
X178254574Y-56540000D01*
X178251074Y-56499996D01*
X185694435Y-56499996D01*
X185694435Y-56500003D01*
X185714630Y-56679249D01*
X185714631Y-56679254D01*
X185774211Y-56849523D01*
X185849341Y-56969091D01*
X185870184Y-57002262D01*
X185997738Y-57129816D01*
X186150478Y-57225789D01*
X186320745Y-57285368D01*
X186320750Y-57285369D01*
X186499996Y-57305565D01*
X186500000Y-57305565D01*
X186500004Y-57305565D01*
X186679249Y-57285369D01*
X186679252Y-57285368D01*
X186679255Y-57285368D01*
X186849522Y-57225789D01*
X187002262Y-57129816D01*
X187129816Y-57002262D01*
X187225789Y-56849522D01*
X187285368Y-56679255D01*
X187301058Y-56540000D01*
X187305565Y-56500003D01*
X187305565Y-56499996D01*
X187285369Y-56320750D01*
X187285368Y-56320745D01*
X187225788Y-56150476D01*
X187129815Y-55997737D01*
X187002262Y-55870184D01*
X186849523Y-55774211D01*
X186679254Y-55714631D01*
X186679249Y-55714630D01*
X186500004Y-55694435D01*
X186499996Y-55694435D01*
X186320750Y-55714630D01*
X186320745Y-55714631D01*
X186150476Y-55774211D01*
X185997737Y-55870184D01*
X185870184Y-55997737D01*
X185774211Y-56150476D01*
X185714631Y-56320745D01*
X185714630Y-56320750D01*
X185694435Y-56499996D01*
X178251074Y-56499996D01*
X178235514Y-56322146D01*
X178178914Y-56110910D01*
X178086493Y-55912713D01*
X177961059Y-55733575D01*
X177806425Y-55578941D01*
X177627287Y-55453507D01*
X177474756Y-55382380D01*
X177422319Y-55336210D01*
X177403167Y-55269016D01*
X177423383Y-55202135D01*
X177474756Y-55157619D01*
X177627287Y-55086493D01*
X177806425Y-54961059D01*
X177961059Y-54806425D01*
X178086493Y-54627287D01*
X178178914Y-54429090D01*
X178235514Y-54217854D01*
X178254574Y-54000000D01*
X178254574Y-53999996D01*
X180694435Y-53999996D01*
X180694435Y-54000003D01*
X180714630Y-54179249D01*
X180714631Y-54179254D01*
X180774211Y-54349523D01*
X180844600Y-54461546D01*
X180870184Y-54502262D01*
X180997738Y-54629816D01*
X181150478Y-54725789D01*
X181320745Y-54785368D01*
X181320750Y-54785369D01*
X181499996Y-54805565D01*
X181500000Y-54805565D01*
X181500004Y-54805565D01*
X181679249Y-54785369D01*
X181679252Y-54785368D01*
X181679255Y-54785368D01*
X181849522Y-54725789D01*
X182002262Y-54629816D01*
X182129816Y-54502262D01*
X182225789Y-54349522D01*
X182285368Y-54179255D01*
X182305565Y-54000000D01*
X182285368Y-53820745D01*
X182225789Y-53650478D01*
X182129816Y-53497738D01*
X182002262Y-53370184D01*
X181969379Y-53349522D01*
X181849523Y-53274211D01*
X181679254Y-53214631D01*
X181679249Y-53214630D01*
X181500004Y-53194435D01*
X181499996Y-53194435D01*
X181320750Y-53214630D01*
X181320745Y-53214631D01*
X181150476Y-53274211D01*
X180997737Y-53370184D01*
X180870184Y-53497737D01*
X180774211Y-53650476D01*
X180714631Y-53820745D01*
X180714630Y-53820750D01*
X180694435Y-53999996D01*
X178254574Y-53999996D01*
X178235514Y-53782146D01*
X178178914Y-53570910D01*
X178086493Y-53372713D01*
X177961059Y-53193575D01*
X177806425Y-53038941D01*
X177750806Y-52999996D01*
X206194435Y-52999996D01*
X206194435Y-53000003D01*
X206214630Y-53179249D01*
X206214631Y-53179254D01*
X206274211Y-53349523D01*
X206367341Y-53497737D01*
X206370184Y-53502262D01*
X206497738Y-53629816D01*
X206588080Y-53686582D01*
X206602876Y-53695879D01*
X206650478Y-53725789D01*
X206811771Y-53782228D01*
X206820745Y-53785368D01*
X206820750Y-53785369D01*
X206999996Y-53805565D01*
X207000000Y-53805565D01*
X207000004Y-53805565D01*
X207179249Y-53785369D01*
X207179252Y-53785368D01*
X207179255Y-53785368D01*
X207349522Y-53725789D01*
X207502262Y-53629816D01*
X207629816Y-53502262D01*
X207725789Y-53349522D01*
X207785368Y-53179255D01*
X207801177Y-53038945D01*
X207805565Y-53000003D01*
X207805565Y-52999996D01*
X207785369Y-52820750D01*
X207785368Y-52820745D01*
X207725788Y-52650476D01*
X207629815Y-52497737D01*
X207502262Y-52370184D01*
X207349523Y-52274211D01*
X207179254Y-52214631D01*
X207179249Y-52214630D01*
X207000004Y-52194435D01*
X206999996Y-52194435D01*
X206820750Y-52214630D01*
X206820745Y-52214631D01*
X206650476Y-52274211D01*
X206497737Y-52370184D01*
X206370184Y-52497737D01*
X206274211Y-52650476D01*
X206214631Y-52820745D01*
X206214630Y-52820750D01*
X206194435Y-52999996D01*
X177750806Y-52999996D01*
X177663114Y-52938593D01*
X177627286Y-52913506D01*
X177528188Y-52867296D01*
X177429090Y-52821086D01*
X177429086Y-52821085D01*
X177429082Y-52821083D01*
X177217859Y-52764487D01*
X177217849Y-52764485D01*
X177000001Y-52745426D01*
X176999999Y-52745426D01*
X176782150Y-52764485D01*
X176782140Y-52764487D01*
X176570917Y-52821083D01*
X176570908Y-52821087D01*
X176372713Y-52913506D01*
X176253201Y-52997190D01*
X176193575Y-53038941D01*
X176193573Y-53038942D01*
X176193570Y-53038945D01*
X176038945Y-53193570D01*
X176038942Y-53193573D01*
X176038941Y-53193575D01*
X176024197Y-53214632D01*
X175913506Y-53372713D01*
X175821087Y-53570908D01*
X175821083Y-53570917D01*
X175764487Y-53782140D01*
X175764485Y-53782150D01*
X175745426Y-53999999D01*
X170634072Y-53999999D01*
X170634072Y-53999998D01*
X170615020Y-53782238D01*
X170615018Y-53782228D01*
X170558444Y-53571089D01*
X170558440Y-53571080D01*
X170466057Y-53372964D01*
X170422621Y-53310930D01*
X169859124Y-53874426D01*
X169841546Y-53808821D01*
X169776339Y-53695879D01*
X169684121Y-53603661D01*
X169571179Y-53538454D01*
X169505572Y-53520874D01*
X170069068Y-52957378D01*
X170069067Y-52957377D01*
X170007036Y-52913942D01*
X170007034Y-52913941D01*
X169808919Y-52821559D01*
X169808910Y-52821555D01*
X169597771Y-52764981D01*
X169597761Y-52764979D01*
X169380002Y-52745928D01*
X169379998Y-52745928D01*
X169162238Y-52764979D01*
X169162228Y-52764981D01*
X168951089Y-52821555D01*
X168951080Y-52821559D01*
X168752960Y-52913944D01*
X168690931Y-52957376D01*
X168690930Y-52957377D01*
X169254428Y-53520874D01*
X169188821Y-53538454D01*
X169075879Y-53603661D01*
X168983661Y-53695879D01*
X168918454Y-53808821D01*
X168900874Y-53874427D01*
X168337377Y-53310930D01*
X168337376Y-53310931D01*
X168293944Y-53372960D01*
X168201559Y-53571080D01*
X168201555Y-53571089D01*
X168144981Y-53782228D01*
X168144979Y-53782238D01*
X168125928Y-53999998D01*
X168125928Y-54000001D01*
X168144979Y-54217761D01*
X168144981Y-54217771D01*
X168201555Y-54428910D01*
X168201559Y-54428919D01*
X168293941Y-54627034D01*
X168293942Y-54627036D01*
X168337377Y-54689067D01*
X168337378Y-54689068D01*
X168900874Y-54125571D01*
X168918454Y-54191179D01*
X168983661Y-54304121D01*
X169075879Y-54396339D01*
X169188821Y-54461546D01*
X169254427Y-54479125D01*
X168690930Y-55042621D01*
X168752965Y-55086058D01*
X168752967Y-55086059D01*
X168905832Y-55157341D01*
X168958272Y-55203513D01*
X168977424Y-55270706D01*
X168957209Y-55337588D01*
X168905833Y-55382105D01*
X168752713Y-55453506D01*
X168633201Y-55537190D01*
X168573575Y-55578941D01*
X168573573Y-55578942D01*
X168573570Y-55578945D01*
X168418945Y-55733570D01*
X168293506Y-55912713D01*
X168201087Y-56110908D01*
X168201083Y-56110917D01*
X168144487Y-56322140D01*
X168144485Y-56322150D01*
X168125426Y-56539999D01*
X153000500Y-56539999D01*
X153000500Y-51624500D01*
X153020185Y-51557461D01*
X153072989Y-51511706D01*
X153124500Y-51500500D01*
X253375500Y-51500500D01*
X253442539Y-51520185D01*
G37*
%TD.AperFunction*%
%TD*%
M02*
