M48
; DRILL file {KiCad 8.0.2} date 2025-01-31T23:59:16-0800
; FORMAT={-:-/ absolute / metric / decimal}
; #@! TF.CreationDate,2025-01-31T23:59:16-08:00
; #@! TF.GenerationSoftware,Kicad,Pcbnew,8.0.2
; #@! TF.FileFunction,Plated,1,4,PTH
FMAT,2
METRIC
; #@! TA.AperFunction,Plated,PTH,ViaDrill
T1C0.203
; #@! TA.AperFunction,Plated,PTH,ComponentDrill
T2C0.203
; #@! TA.AperFunction,Plated,PTH,ViaDrill
T3C0.300
; #@! TA.AperFunction,Plated,PTH,ComponentDrill
T4C0.400
; #@! TA.AperFunction,Plated,PTH,ComponentDrill
T5C0.600
; #@! TA.AperFunction,Plated,PTH,ComponentDrill
T6C0.800
; #@! TA.AperFunction,Plated,PTH,ComponentDrill
T7C0.900
; #@! TA.AperFunction,Plated,PTH,ComponentDrill
T8C0.991
; #@! TA.AperFunction,Plated,PTH,ComponentDrill
T9C1.000
%
G90
G05
T1
X160.5Y-73.5
X161.685Y-72.15
X162.0Y-75.65
X162.5Y-76.5
X164.993Y-71.675
X164.993Y-71.675
T2
X165.088Y-88.0
X165.088Y-88.8
T3
X155.0Y-85.0
X155.088Y-87.0
X161.5Y-82.0
X163.0Y-70.5
X163.0Y-73.0
X163.0Y-75.0
X163.0Y-78.5
X163.088Y-86.5
X163.088Y-90.5
X164.0Y-73.5
X164.5Y-74.0
X165.5Y-65.5
X165.5Y-86.5
X166.0Y-76.0
X167.0Y-54.0
X167.0Y-62.5
X168.0Y-65.0
X169.5Y-78.0
X171.235Y-74.265
X171.5Y-73.5
X173.5Y-72.5
X173.5Y-73.5
X174.5Y-70.5
X174.5Y-86.5
X176.5Y-79.5
X177.5Y-70.0
X179.5Y-59.0
X180.5Y-72.5
X181.5Y-54.0
X181.5Y-79.0
X182.0Y-80.0
X182.5Y-65.0
X182.5Y-69.5
X183.5Y-60.5
X183.5Y-69.5
X183.5Y-81.5
X183.5Y-85.5
X184.0Y-67.0
X184.0Y-93.5
X184.5Y-72.5
X184.5Y-74.5
X184.5Y-77.0
X185.0Y-85.0
X185.5Y-87.0
X186.0Y-83.0
X186.0Y-85.5
X186.0Y-88.5
X186.5Y-56.5
X186.5Y-64.345
X186.5Y-67.845
X187.0Y-85.5
X187.5Y-64.0
X188.0Y-73.5
X188.0Y-74.5
X188.0Y-75.5
X188.0Y-76.5
X188.0Y-77.5
X188.0Y-78.5
X188.0Y-83.5
X188.5Y-84.5
X189.0Y-64.5
X189.0Y-73.5
X189.0Y-74.5
X189.0Y-75.5
X189.0Y-76.5
X189.0Y-77.5
X189.0Y-78.5
X189.15Y-68.5
X189.424Y-84.62
X189.5Y-82.0
X190.0Y-64.0
X190.0Y-73.5
X190.0Y-74.5
X190.0Y-75.5
X190.0Y-76.5
X190.0Y-77.5
X190.0Y-78.5
X190.0Y-86.5
X190.0Y-88.0
X190.5Y-58.0
X190.5Y-92.0
X191.0Y-73.5
X191.0Y-74.5
X191.0Y-75.5
X191.0Y-76.5
X191.0Y-77.5
X191.0Y-78.5
X191.5Y-91.0
X192.0Y-73.5
X192.0Y-74.5
X192.0Y-75.5
X192.0Y-76.5
X192.0Y-77.5
X192.0Y-78.5
X192.5Y-62.0
X193.0Y-73.5
X193.0Y-74.5
X193.0Y-75.5
X193.0Y-76.5
X193.0Y-77.5
X193.0Y-78.5
X193.5Y-83.5
X193.5Y-86.0
X194.5Y-68.0
X195.0Y-69.0
X196.5Y-83.51
X197.5Y-82.0
X198.0Y-85.0
X198.5Y-57.0
X198.5Y-62.5
X198.5Y-73.5
X199.0Y-76.0
X200.007Y-80.507
X201.0Y-97.0
X201.5Y-73.5
X201.5Y-76.0
X202.0Y-89.0
X202.5Y-79.05
X203.0Y-96.5
X205.0Y-65.0
X205.0Y-96.0
X205.4Y-81.0
X206.0Y-82.5
X207.0Y-53.0
X208.0Y-69.0
X208.0Y-71.5
X210.5Y-58.5
X211.0Y-76.0
X211.0Y-80.5
X212.0Y-70.0
X212.5Y-76.0
X212.5Y-79.5
X214.0Y-76.0
X214.0Y-78.5
X214.0Y-89.0
X214.0Y-93.5
X215.0Y-67.0
X215.0Y-70.5
X215.0Y-80.5
X215.6Y-82.4
X216.288Y-56.208
X216.5Y-86.0
X217.5Y-84.1
X218.0Y-88.0
X218.5Y-74.5
X218.5Y-76.5
X219.5Y-80.5
X220.0Y-60.5
X220.0Y-92.0
X220.5Y-74.5
X220.5Y-76.5
X220.5Y-87.5
X221.674Y-84.174
X223.5Y-65.5
X226.0Y-87.5
X226.5Y-80.0
X226.5Y-89.0
X227.1Y-90.9
X227.5Y-75.0
X227.5Y-85.0
X232.0Y-60.5
X233.0Y-63.0
X233.0Y-68.5
X233.341Y-78.925
X235.0Y-67.5
X235.0Y-76.0
X243.5Y-96.0
X243.802Y-98.302
X245.329Y-86.0
X248.0Y-62.0
X251.5Y-92.0
X252.0Y-98.5
X252.387Y-87.387
T4
X159.15Y-71.5
X159.15Y-72.3
X159.15Y-73.1
X159.15Y-74.7
X159.15Y-75.5
X159.15Y-76.3
X159.85Y-71.1
X159.85Y-72.7
X159.85Y-73.5
X159.85Y-74.3
X159.85Y-75.1
X159.85Y-76.7
T5
X159.0Y-69.57
X159.0Y-78.23
T6
X201.0Y-99.0
X203.0Y-99.0
X205.0Y-99.0
X207.0Y-99.0
X209.0Y-99.0
X211.0Y-99.0
X213.0Y-99.0
X215.0Y-99.0
T7
X244.351Y-72.019
X244.351Y-74.819
T8
X169.38Y-54.0
X169.38Y-56.54
X169.38Y-59.08
X169.38Y-61.62
X177.0Y-54.0
X177.0Y-56.54
X177.0Y-59.08
X177.0Y-61.62
T9
X241.751Y-69.619
X241.751Y-77.219
X251.501Y-68.969
X251.501Y-77.869
T5
G00X154.75Y-69.57
M15
G01X154.25Y-69.57
M16
G05
G00X154.75Y-78.23
M15
G01X154.25Y-78.23
M16
G05
M30
