%TF.GenerationSoftware,KiCad,Pcbnew,8.0.2*%
%TF.CreationDate,2025-01-28T20:19:24-08:00*%
%TF.ProjectId,design_revb_2chip,64657369-676e-45f7-9265-76625f326368,rev?*%
%TF.SameCoordinates,Original*%
%TF.FileFunction,Paste,Top*%
%TF.FilePolarity,Positive*%
%FSLAX46Y46*%
G04 Gerber Fmt 4.6, Leading zero omitted, Abs format (unit mm)*
G04 Created by KiCad (PCBNEW 8.0.2) date 2025-01-28 20:19:24*
%MOMM*%
%LPD*%
G01*
G04 APERTURE LIST*
G04 Aperture macros list*
%AMRoundRect*
0 Rectangle with rounded corners*
0 $1 Rounding radius*
0 $2 $3 $4 $5 $6 $7 $8 $9 X,Y pos of 4 corners*
0 Add a 4 corners polygon primitive as box body*
4,1,4,$2,$3,$4,$5,$6,$7,$8,$9,$2,$3,0*
0 Add four circle primitives for the rounded corners*
1,1,$1+$1,$2,$3*
1,1,$1+$1,$4,$5*
1,1,$1+$1,$6,$7*
1,1,$1+$1,$8,$9*
0 Add four rect primitives between the rounded corners*
20,1,$1+$1,$2,$3,$4,$5,0*
20,1,$1+$1,$4,$5,$6,$7,0*
20,1,$1+$1,$6,$7,$8,$9,0*
20,1,$1+$1,$8,$9,$2,$3,0*%
G04 Aperture macros list end*
%ADD10C,0.000000*%
%ADD11RoundRect,0.079500X-0.100500X0.079500X-0.100500X-0.079500X0.100500X-0.079500X0.100500X0.079500X0*%
%ADD12RoundRect,0.250000X0.262500X0.450000X-0.262500X0.450000X-0.262500X-0.450000X0.262500X-0.450000X0*%
%ADD13RoundRect,0.218750X0.218750X0.256250X-0.218750X0.256250X-0.218750X-0.256250X0.218750X-0.256250X0*%
%ADD14R,0.499999X0.249999*%
%ADD15R,0.900001X1.599999*%
%ADD16R,1.050000X0.600000*%
%ADD17RoundRect,0.079500X0.100500X-0.079500X0.100500X0.079500X-0.100500X0.079500X-0.100500X-0.079500X0*%
%ADD18RoundRect,0.218750X-0.256250X0.218750X-0.256250X-0.218750X0.256250X-0.218750X0.256250X0.218750X0*%
%ADD19R,0.700000X0.320000*%
%ADD20RoundRect,0.079500X-0.079500X-0.100500X0.079500X-0.100500X0.079500X0.100500X-0.079500X0.100500X0*%
%ADD21RoundRect,0.135000X0.135000X0.185000X-0.135000X0.185000X-0.135000X-0.185000X0.135000X-0.185000X0*%
%ADD22RoundRect,0.250000X-0.850000X0.375000X-0.850000X-0.375000X0.850000X-0.375000X0.850000X0.375000X0*%
%ADD23RoundRect,0.250000X-0.262500X-0.450000X0.262500X-0.450000X0.262500X0.450000X-0.262500X0.450000X0*%
%ADD24RoundRect,0.250000X-0.450000X0.262500X-0.450000X-0.262500X0.450000X-0.262500X0.450000X0.262500X0*%
%ADD25R,1.000000X0.970000*%
%ADD26RoundRect,0.218750X0.256250X-0.218750X0.256250X0.218750X-0.256250X0.218750X-0.256250X-0.218750X0*%
%ADD27RoundRect,0.079500X0.079500X0.100500X-0.079500X0.100500X-0.079500X-0.100500X0.079500X-0.100500X0*%
%ADD28R,2.438400X1.117600*%
%ADD29RoundRect,0.218750X-0.218750X-0.256250X0.218750X-0.256250X0.218750X0.256250X-0.218750X0.256250X0*%
%ADD30RoundRect,0.250000X0.450000X-0.262500X0.450000X0.262500X-0.450000X0.262500X-0.450000X-0.262500X0*%
%ADD31R,1.041400X1.219200*%
%ADD32R,0.970000X1.000000*%
%ADD33R,0.254000X0.812800*%
%ADD34R,0.812800X0.254000*%
%ADD35R,3.708400X3.708400*%
%ADD36RoundRect,0.135000X0.185000X-0.135000X0.185000X0.135000X-0.185000X0.135000X-0.185000X-0.135000X0*%
%ADD37R,2.800000X0.850000*%
%ADD38R,0.931065X0.302473*%
%ADD39R,6.096000X6.096000*%
G04 APERTURE END LIST*
D10*
%TO.C,U2*%
G36*
X165514499Y-89132995D02*
G01*
X164660501Y-89132995D01*
X164660501Y-87666996D01*
X165514499Y-87666996D01*
X165514499Y-89132995D01*
G37*
%TO.C,U4*%
G36*
X219400000Y-75400000D02*
G01*
X217745800Y-75400000D01*
X217745800Y-73745800D01*
X219400000Y-73745800D01*
X219400000Y-75400000D01*
G37*
G36*
X219400000Y-77254200D02*
G01*
X217745800Y-77254200D01*
X217745800Y-75600000D01*
X219400000Y-75600000D01*
X219400000Y-77254200D01*
G37*
G36*
X221254200Y-75400000D02*
G01*
X219600000Y-75400000D01*
X219600000Y-73745800D01*
X221254200Y-73745800D01*
X221254200Y-75400000D01*
G37*
G36*
X221254200Y-77254200D02*
G01*
X219600000Y-77254200D01*
X219600000Y-75600000D01*
X221254200Y-75600000D01*
X221254200Y-77254200D01*
G37*
%TO.C,U5*%
G36*
X227499999Y-61700001D02*
G01*
X226500001Y-61700001D01*
X226500001Y-59950001D01*
X227499999Y-59950001D01*
X227499999Y-61700001D01*
G37*
%TO.C,U1*%
G36*
X188876000Y-74576000D02*
G01*
X187552000Y-74576000D01*
X187552000Y-73252000D01*
X188876000Y-73252000D01*
X188876000Y-74576000D01*
G37*
G36*
X188876000Y-76100000D02*
G01*
X187552000Y-76100000D01*
X187552000Y-74776000D01*
X188876000Y-74776000D01*
X188876000Y-76100000D01*
G37*
G36*
X188876000Y-77624000D02*
G01*
X187552000Y-77624000D01*
X187552000Y-76300000D01*
X188876000Y-76300000D01*
X188876000Y-77624000D01*
G37*
G36*
X188876000Y-79148000D02*
G01*
X187552000Y-79148000D01*
X187552000Y-77824000D01*
X188876000Y-77824000D01*
X188876000Y-79148000D01*
G37*
G36*
X190400000Y-74576000D02*
G01*
X189076000Y-74576000D01*
X189076000Y-73252000D01*
X190400000Y-73252000D01*
X190400000Y-74576000D01*
G37*
G36*
X190400000Y-76100000D02*
G01*
X189076000Y-76100000D01*
X189076000Y-74776000D01*
X190400000Y-74776000D01*
X190400000Y-76100000D01*
G37*
G36*
X190400000Y-77624000D02*
G01*
X189076000Y-77624000D01*
X189076000Y-76300000D01*
X190400000Y-76300000D01*
X190400000Y-77624000D01*
G37*
G36*
X190400000Y-79148000D02*
G01*
X189076000Y-79148000D01*
X189076000Y-77824000D01*
X190400000Y-77824000D01*
X190400000Y-79148000D01*
G37*
G36*
X191924000Y-74576000D02*
G01*
X190600000Y-74576000D01*
X190600000Y-73252000D01*
X191924000Y-73252000D01*
X191924000Y-74576000D01*
G37*
G36*
X191924000Y-76100000D02*
G01*
X190600000Y-76100000D01*
X190600000Y-74776000D01*
X191924000Y-74776000D01*
X191924000Y-76100000D01*
G37*
G36*
X191924000Y-77624000D02*
G01*
X190600000Y-77624000D01*
X190600000Y-76300000D01*
X191924000Y-76300000D01*
X191924000Y-77624000D01*
G37*
G36*
X191924000Y-79148000D02*
G01*
X190600000Y-79148000D01*
X190600000Y-77824000D01*
X191924000Y-77824000D01*
X191924000Y-79148000D01*
G37*
G36*
X193448000Y-74576000D02*
G01*
X192124000Y-74576000D01*
X192124000Y-73252000D01*
X193448000Y-73252000D01*
X193448000Y-74576000D01*
G37*
G36*
X193448000Y-76100000D02*
G01*
X192124000Y-76100000D01*
X192124000Y-74776000D01*
X193448000Y-74776000D01*
X193448000Y-76100000D01*
G37*
G36*
X193448000Y-77624000D02*
G01*
X192124000Y-77624000D01*
X192124000Y-76300000D01*
X193448000Y-76300000D01*
X193448000Y-77624000D01*
G37*
G36*
X193448000Y-79148000D02*
G01*
X192124000Y-79148000D01*
X192124000Y-77824000D01*
X193448000Y-77824000D01*
X193448000Y-79148000D01*
G37*
%TD*%
D11*
%TO.C,C46*%
X217500000Y-56655000D03*
X217500000Y-57345000D03*
%TD*%
D12*
%TO.C,R28*%
X245412500Y-90000000D03*
X243587500Y-90000000D03*
%TD*%
D11*
%TO.C,C41*%
X218500000Y-56310000D03*
X218500000Y-57000000D03*
%TD*%
D13*
%TO.C,D1*%
X175000000Y-65000000D03*
X173425000Y-65000000D03*
%TD*%
D14*
%TO.C,U2*%
X164137499Y-87649998D03*
X164137499Y-88149997D03*
X164137499Y-88649999D03*
X164137499Y-89149997D03*
X166037501Y-89149997D03*
X166037501Y-88649999D03*
X166037501Y-88149997D03*
X166037501Y-87649998D03*
D15*
X165087500Y-88399996D03*
%TD*%
D16*
%TO.C,FL1*%
X227950000Y-77946400D03*
X231000000Y-77946400D03*
X231000000Y-76946400D03*
X227950000Y-76946400D03*
%TD*%
D11*
%TO.C,C42*%
X218500000Y-58155000D03*
X218500000Y-58845000D03*
%TD*%
D12*
%TO.C,R29*%
X245412500Y-92500000D03*
X243587500Y-92500000D03*
%TD*%
D17*
%TO.C,C49*%
X224000000Y-61345000D03*
X224000000Y-60655000D03*
%TD*%
D18*
%TO.C,D5*%
X248500000Y-95712500D03*
X248500000Y-97287500D03*
%TD*%
D19*
%TO.C,J4*%
X161160000Y-71150000D03*
X161160000Y-71650000D03*
X161160000Y-72150000D03*
X161160000Y-72650000D03*
X161160000Y-73150000D03*
X161160000Y-73650000D03*
X161160000Y-74150000D03*
X161160000Y-74650000D03*
X161160000Y-75150000D03*
X161160000Y-75650000D03*
X161160000Y-76150000D03*
X161160000Y-76650000D03*
%TD*%
D20*
%TO.C,C27*%
X232500000Y-77946400D03*
X233190000Y-77946400D03*
%TD*%
D21*
%TO.C,R8*%
X198020000Y-80500000D03*
X197000000Y-80500000D03*
%TD*%
D12*
%TO.C,R3*%
X196825000Y-63500000D03*
X195000000Y-63500000D03*
%TD*%
D22*
%TO.C,L2*%
X171000000Y-89000000D03*
X171000000Y-91150000D03*
%TD*%
D23*
%TO.C,R14*%
X164175000Y-98000000D03*
X166000000Y-98000000D03*
%TD*%
D11*
%TO.C,C34*%
X230500000Y-58155000D03*
X230500000Y-58845000D03*
%TD*%
D24*
%TO.C,R16*%
X227500000Y-81500000D03*
X227500000Y-83325000D03*
%TD*%
D20*
%TO.C,C6*%
X194810000Y-82500000D03*
X195500000Y-82500000D03*
%TD*%
D11*
%TO.C,C5*%
X189500000Y-83000000D03*
X189500000Y-83690000D03*
%TD*%
D25*
%TO.C,FL3*%
X222235000Y-58000000D03*
X220765000Y-58000000D03*
%TD*%
D26*
%TO.C,D3*%
X250500000Y-97287500D03*
X250500000Y-95712500D03*
%TD*%
D20*
%TO.C,C13*%
X196655000Y-56500000D03*
X197345000Y-56500000D03*
%TD*%
D11*
%TO.C,C3*%
X198000000Y-83000000D03*
X198000000Y-83690000D03*
%TD*%
%TO.C,C14*%
X199845000Y-79155000D03*
X199845000Y-79845000D03*
%TD*%
D17*
%TO.C,C18*%
X191500000Y-60500000D03*
X191500000Y-59810000D03*
%TD*%
D20*
%TO.C,C26*%
X191155000Y-93500000D03*
X191845000Y-93500000D03*
%TD*%
D27*
%TO.C,C21*%
X166500000Y-96000000D03*
X165810000Y-96000000D03*
%TD*%
D28*
%TO.C,U6*%
X231194700Y-87420000D03*
X231194700Y-89960000D03*
X231194700Y-92500000D03*
X231194700Y-95040000D03*
X231194700Y-97580000D03*
X239805300Y-97580000D03*
X239805300Y-95040000D03*
X239805300Y-92500000D03*
X239805300Y-89960000D03*
X239805300Y-87420000D03*
%TD*%
D29*
%TO.C,D2*%
X168000000Y-98000000D03*
X169575000Y-98000000D03*
%TD*%
D17*
%TO.C,C8*%
X186000000Y-66345000D03*
X186000000Y-65655000D03*
%TD*%
D23*
%TO.C,R4*%
X169675000Y-65000000D03*
X171500000Y-65000000D03*
%TD*%
D27*
%TO.C,C17*%
X156777500Y-90000000D03*
X156087500Y-90000000D03*
%TD*%
D30*
%TO.C,R15*%
X158500000Y-84825000D03*
X158500000Y-83000000D03*
%TD*%
D20*
%TO.C,C2*%
X195155000Y-83500000D03*
X195845000Y-83500000D03*
%TD*%
D27*
%TO.C,C7*%
X187000000Y-87000000D03*
X186310000Y-87000000D03*
%TD*%
D31*
%TO.C,XTAL1*%
X187018800Y-91000000D03*
X187018800Y-93286000D03*
X189000000Y-93286000D03*
X189000000Y-91000000D03*
%TD*%
D27*
%TO.C,C24*%
X185345000Y-91000000D03*
X184655000Y-91000000D03*
%TD*%
D32*
%TO.C,FB2*%
X161087500Y-86500000D03*
X161087500Y-85030000D03*
%TD*%
D27*
%TO.C,C16*%
X158587500Y-88000000D03*
X157897500Y-88000000D03*
%TD*%
D23*
%TO.C,R12*%
X163000000Y-94000000D03*
X164825000Y-94000000D03*
%TD*%
D20*
%TO.C,C20*%
X197000000Y-79500000D03*
X197690000Y-79500000D03*
%TD*%
D23*
%TO.C,R13*%
X165175000Y-56500000D03*
X167000000Y-56500000D03*
%TD*%
D27*
%TO.C,C10*%
X188690000Y-67345000D03*
X188000000Y-67345000D03*
%TD*%
D33*
%TO.C,U4*%
X217499999Y-78446400D03*
X218000000Y-78446400D03*
X218499999Y-78446400D03*
X219000001Y-78446400D03*
X219500000Y-78446400D03*
X219999999Y-78446400D03*
X220500001Y-78446400D03*
X221000000Y-78446400D03*
X221500001Y-78446400D03*
D34*
X222446400Y-77500001D03*
X222446400Y-77000000D03*
X222446400Y-76500001D03*
X222446400Y-75999999D03*
X222446400Y-75500000D03*
X222446400Y-75000001D03*
X222446400Y-74499999D03*
X222446400Y-74000000D03*
X222446400Y-73499999D03*
D33*
X221500001Y-72553600D03*
X221000000Y-72553600D03*
X220500001Y-72553600D03*
X219999999Y-72553600D03*
X219500000Y-72553600D03*
X219000001Y-72553600D03*
X218499999Y-72553600D03*
X218000000Y-72553600D03*
X217499999Y-72553600D03*
D34*
X216553600Y-73499999D03*
X216553600Y-74000000D03*
X216553600Y-74499999D03*
X216553600Y-75000001D03*
X216553600Y-75500000D03*
X216553600Y-75999999D03*
X216553600Y-76500001D03*
X216553600Y-77000000D03*
X216553600Y-77500001D03*
D35*
X219500000Y-75500000D03*
%TD*%
D23*
%TO.C,R2*%
X158675000Y-90000000D03*
X160500000Y-90000000D03*
%TD*%
D18*
%TO.C,D4*%
X252500000Y-95712500D03*
X252500000Y-97287500D03*
%TD*%
D11*
%TO.C,C38*%
X219500000Y-58155000D03*
X219500000Y-58845000D03*
%TD*%
D36*
%TO.C,R6*%
X185000000Y-84020000D03*
X185000000Y-83000000D03*
%TD*%
D17*
%TO.C,C15*%
X194000000Y-70000000D03*
X194000000Y-69310000D03*
%TD*%
D23*
%TO.C,R26*%
X250587500Y-90000000D03*
X252412500Y-90000000D03*
%TD*%
D12*
%TO.C,R23*%
X246912500Y-99000000D03*
X245087500Y-99000000D03*
%TD*%
D11*
%TO.C,C22*%
X186000000Y-84000000D03*
X186000000Y-84690000D03*
%TD*%
D23*
%TO.C,R11*%
X167500000Y-94000000D03*
X169325000Y-94000000D03*
%TD*%
D11*
%TO.C,C1*%
X183500000Y-83810000D03*
X183500000Y-84500000D03*
%TD*%
D27*
%TO.C,C28*%
X233190000Y-76946400D03*
X232500000Y-76946400D03*
%TD*%
D11*
%TO.C,C23*%
X166000000Y-63655000D03*
X166000000Y-64345000D03*
%TD*%
D23*
%TO.C,R9*%
X170000000Y-86500000D03*
X171825000Y-86500000D03*
%TD*%
D37*
%TO.C,L1*%
X194500000Y-58000000D03*
X194500000Y-60350000D03*
%TD*%
D17*
%TO.C,C31*%
X224000000Y-58845000D03*
X224000000Y-58155000D03*
%TD*%
%TO.C,C19*%
X190500000Y-60500000D03*
X190500000Y-59810000D03*
%TD*%
D12*
%TO.C,R5*%
X184500000Y-63000000D03*
X182675000Y-63000000D03*
%TD*%
D11*
%TO.C,C25*%
X156000000Y-83500000D03*
X156000000Y-84190000D03*
%TD*%
%TO.C,C47*%
X217500000Y-58155000D03*
X217500000Y-58845000D03*
%TD*%
%TO.C,C37*%
X219500000Y-56335000D03*
X219500000Y-57025000D03*
%TD*%
D38*
%TO.C,U5*%
X225509467Y-59850002D03*
X225509467Y-60500000D03*
X225509467Y-61150002D03*
X225509467Y-61800000D03*
X228490533Y-61800000D03*
X228490533Y-61150002D03*
X228490533Y-60500000D03*
X228490533Y-59850002D03*
%TD*%
D11*
%TO.C,C33*%
X229500000Y-58155000D03*
X229500000Y-58845000D03*
%TD*%
D34*
%TO.C,U1*%
X194894200Y-79950000D03*
X194894200Y-79450001D03*
X194894200Y-78950000D03*
X194894200Y-78450001D03*
X194894200Y-77949999D03*
X194894200Y-77450000D03*
X194894200Y-76950001D03*
X194894200Y-76450000D03*
X194894200Y-75950000D03*
X194894200Y-75449999D03*
X194894200Y-74950000D03*
X194894200Y-74450001D03*
X194894200Y-73949999D03*
X194894200Y-73450000D03*
X194894200Y-72949999D03*
X194894200Y-72450000D03*
D33*
X194250000Y-71805800D03*
X193750001Y-71805800D03*
X193250000Y-71805800D03*
X192750001Y-71805800D03*
X192249999Y-71805800D03*
X191750000Y-71805800D03*
X191250001Y-71805800D03*
X190750000Y-71805800D03*
X190250000Y-71805800D03*
X189749999Y-71805800D03*
X189250000Y-71805800D03*
X188750001Y-71805800D03*
X188249999Y-71805800D03*
X187750000Y-71805800D03*
X187249999Y-71805800D03*
X186750000Y-71805800D03*
D34*
X186105800Y-72450000D03*
X186105800Y-72949999D03*
X186105800Y-73450000D03*
X186105800Y-73949999D03*
X186105800Y-74450001D03*
X186105800Y-74950000D03*
X186105800Y-75449999D03*
X186105800Y-75950000D03*
X186105800Y-76450000D03*
X186105800Y-76950001D03*
X186105800Y-77450000D03*
X186105800Y-77949999D03*
X186105800Y-78450001D03*
X186105800Y-78950000D03*
X186105800Y-79450001D03*
X186105800Y-79950000D03*
D33*
X186750000Y-80594200D03*
X187249999Y-80594200D03*
X187750000Y-80594200D03*
X188249999Y-80594200D03*
X188750001Y-80594200D03*
X189250000Y-80594200D03*
X189749999Y-80594200D03*
X190250000Y-80594200D03*
X190750000Y-80594200D03*
X191250001Y-80594200D03*
X191750000Y-80594200D03*
X192249999Y-80594200D03*
X192750001Y-80594200D03*
X193250000Y-80594200D03*
X193750001Y-80594200D03*
X194250000Y-80594200D03*
D39*
X190500000Y-76200000D03*
%TD*%
D12*
%TO.C,R25*%
X252412500Y-93500000D03*
X250587500Y-93500000D03*
%TD*%
%TO.C,R27*%
X245325000Y-87500000D03*
X243500000Y-87500000D03*
%TD*%
M02*
