%TF.GenerationSoftware,KiCad,Pcbnew,8.0.2*%
%TF.CreationDate,2025-01-31T23:59:09-08:00*%
%TF.ProjectId,design_revb_2chip,64657369-676e-45f7-9265-76625f326368,rev?*%
%TF.SameCoordinates,Original*%
%TF.FileFunction,Copper,L1,Top*%
%TF.FilePolarity,Positive*%
%FSLAX46Y46*%
G04 Gerber Fmt 4.6, Leading zero omitted, Abs format (unit mm)*
G04 Created by KiCad (PCBNEW 8.0.2) date 2025-01-31 23:59:09*
%MOMM*%
%LPD*%
G01*
G04 APERTURE LIST*
G04 Aperture macros list*
%AMRoundRect*
0 Rectangle with rounded corners*
0 $1 Rounding radius*
0 $2 $3 $4 $5 $6 $7 $8 $9 X,Y pos of 4 corners*
0 Add a 4 corners polygon primitive as box body*
4,1,4,$2,$3,$4,$5,$6,$7,$8,$9,$2,$3,0*
0 Add four circle primitives for the rounded corners*
1,1,$1+$1,$2,$3*
1,1,$1+$1,$4,$5*
1,1,$1+$1,$6,$7*
1,1,$1+$1,$8,$9*
0 Add four rect primitives between the rounded corners*
20,1,$1+$1,$2,$3,$4,$5,0*
20,1,$1+$1,$4,$5,$6,$7,0*
20,1,$1+$1,$6,$7,$8,$9,0*
20,1,$1+$1,$8,$9,$2,$3,0*%
G04 Aperture macros list end*
%TA.AperFunction,EtchedComponent*%
%ADD10C,0.010000*%
%TD*%
%TA.AperFunction,SMDPad,CuDef*%
%ADD11RoundRect,0.250000X0.475000X-0.250000X0.475000X0.250000X-0.475000X0.250000X-0.475000X-0.250000X0*%
%TD*%
%TA.AperFunction,SMDPad,CuDef*%
%ADD12RoundRect,0.250000X-0.475000X0.250000X-0.475000X-0.250000X0.475000X-0.250000X0.475000X0.250000X0*%
%TD*%
%TA.AperFunction,SMDPad,CuDef*%
%ADD13RoundRect,0.250000X0.250000X0.475000X-0.250000X0.475000X-0.250000X-0.475000X0.250000X-0.475000X0*%
%TD*%
%TA.AperFunction,SMDPad,CuDef*%
%ADD14RoundRect,0.140000X-0.170000X0.140000X-0.170000X-0.140000X0.170000X-0.140000X0.170000X0.140000X0*%
%TD*%
%TA.AperFunction,SMDPad,CuDef*%
%ADD15RoundRect,0.218750X-0.256250X0.218750X-0.256250X-0.218750X0.256250X-0.218750X0.256250X0.218750X0*%
%TD*%
%TA.AperFunction,SMDPad,CuDef*%
%ADD16RoundRect,0.250000X-0.250000X-0.475000X0.250000X-0.475000X0.250000X0.475000X-0.250000X0.475000X0*%
%TD*%
%TA.AperFunction,SMDPad,CuDef*%
%ADD17RoundRect,0.250000X0.262500X0.450000X-0.262500X0.450000X-0.262500X-0.450000X0.262500X-0.450000X0*%
%TD*%
%TA.AperFunction,SMDPad,CuDef*%
%ADD18RoundRect,0.218750X0.218750X0.256250X-0.218750X0.256250X-0.218750X-0.256250X0.218750X-0.256250X0*%
%TD*%
%TA.AperFunction,SMDPad,CuDef*%
%ADD19R,0.499999X0.249999*%
%TD*%
%TA.AperFunction,SMDPad,CuDef*%
%ADD20R,0.900001X1.599999*%
%TD*%
%TA.AperFunction,ComponentPad*%
%ADD21C,0.499999*%
%TD*%
%TA.AperFunction,SMDPad,CuDef*%
%ADD22R,1.050000X0.600000*%
%TD*%
%TA.AperFunction,SMDPad,CuDef*%
%ADD23R,0.700000X0.320000*%
%TD*%
%TA.AperFunction,ComponentPad*%
%ADD24C,0.600000*%
%TD*%
%TA.AperFunction,ComponentPad*%
%ADD25C,0.900000*%
%TD*%
%TA.AperFunction,ComponentPad*%
%ADD26O,1.400000X0.900000*%
%TD*%
%TA.AperFunction,SMDPad,CuDef*%
%ADD27RoundRect,0.140000X-0.140000X-0.170000X0.140000X-0.170000X0.140000X0.170000X-0.140000X0.170000X0*%
%TD*%
%TA.AperFunction,SMDPad,CuDef*%
%ADD28RoundRect,0.250000X0.450000X-0.262500X0.450000X0.262500X-0.450000X0.262500X-0.450000X-0.262500X0*%
%TD*%
%TA.AperFunction,SMDPad,CuDef*%
%ADD29RoundRect,0.135000X0.135000X0.185000X-0.135000X0.185000X-0.135000X-0.185000X0.135000X-0.185000X0*%
%TD*%
%TA.AperFunction,SMDPad,CuDef*%
%ADD30RoundRect,0.250000X-0.850000X0.375000X-0.850000X-0.375000X0.850000X-0.375000X0.850000X0.375000X0*%
%TD*%
%TA.AperFunction,SMDPad,CuDef*%
%ADD31RoundRect,0.250000X-0.262500X-0.450000X0.262500X-0.450000X0.262500X0.450000X-0.262500X0.450000X0*%
%TD*%
%TA.AperFunction,SMDPad,CuDef*%
%ADD32RoundRect,0.250000X-0.450000X0.262500X-0.450000X-0.262500X0.450000X-0.262500X0.450000X0.262500X0*%
%TD*%
%TA.AperFunction,SMDPad,CuDef*%
%ADD33R,1.000000X0.970000*%
%TD*%
%TA.AperFunction,SMDPad,CuDef*%
%ADD34RoundRect,0.218750X0.256250X-0.218750X0.256250X0.218750X-0.256250X0.218750X-0.256250X-0.218750X0*%
%TD*%
%TA.AperFunction,ComponentPad*%
%ADD35R,1.350000X1.350000*%
%TD*%
%TA.AperFunction,ComponentPad*%
%ADD36O,1.350000X1.350000*%
%TD*%
%TA.AperFunction,SMDPad,CuDef*%
%ADD37RoundRect,0.225000X0.250000X-0.225000X0.250000X0.225000X-0.250000X0.225000X-0.250000X-0.225000X0*%
%TD*%
%TA.AperFunction,SMDPad,CuDef*%
%ADD38R,2.438400X1.117600*%
%TD*%
%TA.AperFunction,SMDPad,CuDef*%
%ADD39RoundRect,0.218750X-0.218750X-0.256250X0.218750X-0.256250X0.218750X0.256250X-0.218750X0.256250X0*%
%TD*%
%TA.AperFunction,SMDPad,CuDef*%
%ADD40RoundRect,0.140000X0.170000X-0.140000X0.170000X0.140000X-0.170000X0.140000X-0.170000X-0.140000X0*%
%TD*%
%TA.AperFunction,SMDPad,CuDef*%
%ADD41RoundRect,0.140000X0.140000X0.170000X-0.140000X0.170000X-0.140000X-0.170000X0.140000X-0.170000X0*%
%TD*%
%TA.AperFunction,SMDPad,CuDef*%
%ADD42R,1.041400X1.219200*%
%TD*%
%TA.AperFunction,SMDPad,CuDef*%
%ADD43R,0.970000X1.000000*%
%TD*%
%TA.AperFunction,SMDPad,CuDef*%
%ADD44R,0.254000X0.812800*%
%TD*%
%TA.AperFunction,SMDPad,CuDef*%
%ADD45R,0.812800X0.254000*%
%TD*%
%TA.AperFunction,SMDPad,CuDef*%
%ADD46R,3.708400X3.708400*%
%TD*%
%TA.AperFunction,SMDPad,CuDef*%
%ADD47RoundRect,0.135000X0.185000X-0.135000X0.185000X0.135000X-0.185000X0.135000X-0.185000X-0.135000X0*%
%TD*%
%TA.AperFunction,ComponentPad*%
%ADD48R,1.498600X1.498600*%
%TD*%
%TA.AperFunction,ComponentPad*%
%ADD49C,1.498600*%
%TD*%
%TA.AperFunction,SMDPad,CuDef*%
%ADD50R,0.931065X0.302473*%
%TD*%
%TA.AperFunction,SMDPad,CuDef*%
%ADD51R,1.749999X2.500000*%
%TD*%
%TA.AperFunction,SMDPad,CuDef*%
%ADD52R,6.096000X6.096000*%
%TD*%
%TA.AperFunction,ComponentPad*%
%ADD53R,1.400000X1.400000*%
%TD*%
%TA.AperFunction,ComponentPad*%
%ADD54C,1.400000*%
%TD*%
%TA.AperFunction,ComponentPad*%
%ADD55C,1.500000*%
%TD*%
%TA.AperFunction,ViaPad*%
%ADD56C,0.600000*%
%TD*%
%TA.AperFunction,ViaPad*%
%ADD57C,0.406400*%
%TD*%
%TA.AperFunction,Conductor*%
%ADD58C,0.142700*%
%TD*%
%TA.AperFunction,Conductor*%
%ADD59C,0.113000*%
%TD*%
G04 APERTURE END LIST*
D10*
%TO.C,J4*%
X159524000Y-69121000D02*
X159547000Y-69122000D01*
X159570000Y-69126000D01*
X159594000Y-69130000D01*
X159616000Y-69135000D01*
X159639000Y-69142000D01*
X159661000Y-69150000D01*
X159683000Y-69159000D01*
X159704000Y-69169000D01*
X159725000Y-69180000D01*
X159745000Y-69193000D01*
X159765000Y-69206000D01*
X159783000Y-69220000D01*
X159801000Y-69236000D01*
X159818000Y-69252000D01*
X159834000Y-69269000D01*
X159850000Y-69287000D01*
X159864000Y-69305000D01*
X159877000Y-69325000D01*
X159890000Y-69345000D01*
X159901000Y-69366000D01*
X159911000Y-69387000D01*
X159920000Y-69409000D01*
X159928000Y-69431000D01*
X159935000Y-69454000D01*
X159940000Y-69476000D01*
X159944000Y-69500000D01*
X159948000Y-69523000D01*
X159949000Y-69546000D01*
X159950000Y-69570000D01*
X159950000Y-70220000D01*
X159948000Y-70267000D01*
X159940000Y-70314000D01*
X159928000Y-70359000D01*
X159911000Y-70403000D01*
X159890000Y-70445000D01*
X159864000Y-70485000D01*
X159834000Y-70521000D01*
X159801000Y-70554000D01*
X159765000Y-70584000D01*
X159725000Y-70610000D01*
X159683000Y-70631000D01*
X159639000Y-70648000D01*
X159594000Y-70660000D01*
X159547000Y-70668000D01*
X159500000Y-70670000D01*
X159453000Y-70668000D01*
X159406000Y-70660000D01*
X159361000Y-70648000D01*
X159317000Y-70631000D01*
X159275000Y-70610000D01*
X159235000Y-70584000D01*
X159199000Y-70554000D01*
X159166000Y-70521000D01*
X159136000Y-70485000D01*
X159110000Y-70445000D01*
X159089000Y-70403000D01*
X159072000Y-70359000D01*
X159060000Y-70314000D01*
X159052000Y-70267000D01*
X159050000Y-70220000D01*
X159050000Y-70020000D01*
X159000000Y-70020000D01*
X158953000Y-70018000D01*
X158906000Y-70010000D01*
X158861000Y-69998000D01*
X158817000Y-69981000D01*
X158775000Y-69960000D01*
X158735000Y-69934000D01*
X158699000Y-69904000D01*
X158666000Y-69871000D01*
X158636000Y-69835000D01*
X158610000Y-69795000D01*
X158589000Y-69753000D01*
X158572000Y-69709000D01*
X158560000Y-69664000D01*
X158552000Y-69617000D01*
X158550000Y-69570000D01*
X158552000Y-69523000D01*
X158560000Y-69476000D01*
X158572000Y-69431000D01*
X158589000Y-69387000D01*
X158610000Y-69345000D01*
X158636000Y-69305000D01*
X158666000Y-69269000D01*
X158699000Y-69236000D01*
X158735000Y-69206000D01*
X158775000Y-69180000D01*
X158817000Y-69159000D01*
X158861000Y-69142000D01*
X158906000Y-69130000D01*
X158953000Y-69122000D01*
X159000000Y-69120000D01*
X159500000Y-69120000D01*
X159524000Y-69121000D01*
%TA.AperFunction,EtchedComponent*%
G36*
X159524000Y-69121000D02*
G01*
X159547000Y-69122000D01*
X159570000Y-69126000D01*
X159594000Y-69130000D01*
X159616000Y-69135000D01*
X159639000Y-69142000D01*
X159661000Y-69150000D01*
X159683000Y-69159000D01*
X159704000Y-69169000D01*
X159725000Y-69180000D01*
X159745000Y-69193000D01*
X159765000Y-69206000D01*
X159783000Y-69220000D01*
X159801000Y-69236000D01*
X159818000Y-69252000D01*
X159834000Y-69269000D01*
X159850000Y-69287000D01*
X159864000Y-69305000D01*
X159877000Y-69325000D01*
X159890000Y-69345000D01*
X159901000Y-69366000D01*
X159911000Y-69387000D01*
X159920000Y-69409000D01*
X159928000Y-69431000D01*
X159935000Y-69454000D01*
X159940000Y-69476000D01*
X159944000Y-69500000D01*
X159948000Y-69523000D01*
X159949000Y-69546000D01*
X159950000Y-69570000D01*
X159950000Y-70220000D01*
X159948000Y-70267000D01*
X159940000Y-70314000D01*
X159928000Y-70359000D01*
X159911000Y-70403000D01*
X159890000Y-70445000D01*
X159864000Y-70485000D01*
X159834000Y-70521000D01*
X159801000Y-70554000D01*
X159765000Y-70584000D01*
X159725000Y-70610000D01*
X159683000Y-70631000D01*
X159639000Y-70648000D01*
X159594000Y-70660000D01*
X159547000Y-70668000D01*
X159500000Y-70670000D01*
X159453000Y-70668000D01*
X159406000Y-70660000D01*
X159361000Y-70648000D01*
X159317000Y-70631000D01*
X159275000Y-70610000D01*
X159235000Y-70584000D01*
X159199000Y-70554000D01*
X159166000Y-70521000D01*
X159136000Y-70485000D01*
X159110000Y-70445000D01*
X159089000Y-70403000D01*
X159072000Y-70359000D01*
X159060000Y-70314000D01*
X159052000Y-70267000D01*
X159050000Y-70220000D01*
X159050000Y-70020000D01*
X159000000Y-70020000D01*
X158953000Y-70018000D01*
X158906000Y-70010000D01*
X158861000Y-69998000D01*
X158817000Y-69981000D01*
X158775000Y-69960000D01*
X158735000Y-69934000D01*
X158699000Y-69904000D01*
X158666000Y-69871000D01*
X158636000Y-69835000D01*
X158610000Y-69795000D01*
X158589000Y-69753000D01*
X158572000Y-69709000D01*
X158560000Y-69664000D01*
X158552000Y-69617000D01*
X158550000Y-69570000D01*
X158552000Y-69523000D01*
X158560000Y-69476000D01*
X158572000Y-69431000D01*
X158589000Y-69387000D01*
X158610000Y-69345000D01*
X158636000Y-69305000D01*
X158666000Y-69269000D01*
X158699000Y-69236000D01*
X158735000Y-69206000D01*
X158775000Y-69180000D01*
X158817000Y-69159000D01*
X158861000Y-69142000D01*
X158906000Y-69130000D01*
X158953000Y-69122000D01*
X159000000Y-69120000D01*
X159500000Y-69120000D01*
X159524000Y-69121000D01*
G37*
%TD.AperFunction*%
X159524000Y-69121000D02*
X159547000Y-69122000D01*
X159570000Y-69126000D01*
X159594000Y-69130000D01*
X159616000Y-69135000D01*
X159639000Y-69142000D01*
X159661000Y-69150000D01*
X159683000Y-69159000D01*
X159704000Y-69169000D01*
X159725000Y-69180000D01*
X159745000Y-69193000D01*
X159765000Y-69206000D01*
X159783000Y-69220000D01*
X159801000Y-69236000D01*
X159818000Y-69252000D01*
X159834000Y-69269000D01*
X159850000Y-69287000D01*
X159864000Y-69305000D01*
X159877000Y-69325000D01*
X159890000Y-69345000D01*
X159901000Y-69366000D01*
X159911000Y-69387000D01*
X159920000Y-69409000D01*
X159928000Y-69431000D01*
X159935000Y-69454000D01*
X159940000Y-69476000D01*
X159944000Y-69500000D01*
X159948000Y-69523000D01*
X159949000Y-69546000D01*
X159950000Y-69570000D01*
X159950000Y-70220000D01*
X159948000Y-70267000D01*
X159940000Y-70314000D01*
X159928000Y-70359000D01*
X159911000Y-70403000D01*
X159890000Y-70445000D01*
X159864000Y-70485000D01*
X159834000Y-70521000D01*
X159801000Y-70554000D01*
X159765000Y-70584000D01*
X159725000Y-70610000D01*
X159683000Y-70631000D01*
X159639000Y-70648000D01*
X159594000Y-70660000D01*
X159547000Y-70668000D01*
X159500000Y-70670000D01*
X159453000Y-70668000D01*
X159406000Y-70660000D01*
X159361000Y-70648000D01*
X159317000Y-70631000D01*
X159275000Y-70610000D01*
X159235000Y-70584000D01*
X159199000Y-70554000D01*
X159166000Y-70521000D01*
X159136000Y-70485000D01*
X159110000Y-70445000D01*
X159089000Y-70403000D01*
X159072000Y-70359000D01*
X159060000Y-70314000D01*
X159052000Y-70267000D01*
X159050000Y-70220000D01*
X159050000Y-70020000D01*
X159000000Y-70020000D01*
X158953000Y-70018000D01*
X158906000Y-70010000D01*
X158861000Y-69998000D01*
X158817000Y-69981000D01*
X158775000Y-69960000D01*
X158735000Y-69934000D01*
X158699000Y-69904000D01*
X158666000Y-69871000D01*
X158636000Y-69835000D01*
X158610000Y-69795000D01*
X158589000Y-69753000D01*
X158572000Y-69709000D01*
X158560000Y-69664000D01*
X158552000Y-69617000D01*
X158550000Y-69570000D01*
X158552000Y-69523000D01*
X158560000Y-69476000D01*
X158572000Y-69431000D01*
X158589000Y-69387000D01*
X158610000Y-69345000D01*
X158636000Y-69305000D01*
X158666000Y-69269000D01*
X158699000Y-69236000D01*
X158735000Y-69206000D01*
X158775000Y-69180000D01*
X158817000Y-69159000D01*
X158861000Y-69142000D01*
X158906000Y-69130000D01*
X158953000Y-69122000D01*
X159000000Y-69120000D01*
X159500000Y-69120000D01*
X159524000Y-69121000D01*
%TA.AperFunction,EtchedComponent*%
G36*
X159524000Y-69121000D02*
G01*
X159547000Y-69122000D01*
X159570000Y-69126000D01*
X159594000Y-69130000D01*
X159616000Y-69135000D01*
X159639000Y-69142000D01*
X159661000Y-69150000D01*
X159683000Y-69159000D01*
X159704000Y-69169000D01*
X159725000Y-69180000D01*
X159745000Y-69193000D01*
X159765000Y-69206000D01*
X159783000Y-69220000D01*
X159801000Y-69236000D01*
X159818000Y-69252000D01*
X159834000Y-69269000D01*
X159850000Y-69287000D01*
X159864000Y-69305000D01*
X159877000Y-69325000D01*
X159890000Y-69345000D01*
X159901000Y-69366000D01*
X159911000Y-69387000D01*
X159920000Y-69409000D01*
X159928000Y-69431000D01*
X159935000Y-69454000D01*
X159940000Y-69476000D01*
X159944000Y-69500000D01*
X159948000Y-69523000D01*
X159949000Y-69546000D01*
X159950000Y-69570000D01*
X159950000Y-70220000D01*
X159948000Y-70267000D01*
X159940000Y-70314000D01*
X159928000Y-70359000D01*
X159911000Y-70403000D01*
X159890000Y-70445000D01*
X159864000Y-70485000D01*
X159834000Y-70521000D01*
X159801000Y-70554000D01*
X159765000Y-70584000D01*
X159725000Y-70610000D01*
X159683000Y-70631000D01*
X159639000Y-70648000D01*
X159594000Y-70660000D01*
X159547000Y-70668000D01*
X159500000Y-70670000D01*
X159453000Y-70668000D01*
X159406000Y-70660000D01*
X159361000Y-70648000D01*
X159317000Y-70631000D01*
X159275000Y-70610000D01*
X159235000Y-70584000D01*
X159199000Y-70554000D01*
X159166000Y-70521000D01*
X159136000Y-70485000D01*
X159110000Y-70445000D01*
X159089000Y-70403000D01*
X159072000Y-70359000D01*
X159060000Y-70314000D01*
X159052000Y-70267000D01*
X159050000Y-70220000D01*
X159050000Y-70020000D01*
X159000000Y-70020000D01*
X158953000Y-70018000D01*
X158906000Y-70010000D01*
X158861000Y-69998000D01*
X158817000Y-69981000D01*
X158775000Y-69960000D01*
X158735000Y-69934000D01*
X158699000Y-69904000D01*
X158666000Y-69871000D01*
X158636000Y-69835000D01*
X158610000Y-69795000D01*
X158589000Y-69753000D01*
X158572000Y-69709000D01*
X158560000Y-69664000D01*
X158552000Y-69617000D01*
X158550000Y-69570000D01*
X158552000Y-69523000D01*
X158560000Y-69476000D01*
X158572000Y-69431000D01*
X158589000Y-69387000D01*
X158610000Y-69345000D01*
X158636000Y-69305000D01*
X158666000Y-69269000D01*
X158699000Y-69236000D01*
X158735000Y-69206000D01*
X158775000Y-69180000D01*
X158817000Y-69159000D01*
X158861000Y-69142000D01*
X158906000Y-69130000D01*
X158953000Y-69122000D01*
X159000000Y-69120000D01*
X159500000Y-69120000D01*
X159524000Y-69121000D01*
G37*
%TD.AperFunction*%
X159547000Y-77132000D02*
X159594000Y-77140000D01*
X159639000Y-77152000D01*
X159683000Y-77169000D01*
X159725000Y-77190000D01*
X159765000Y-77216000D01*
X159801000Y-77246000D01*
X159834000Y-77279000D01*
X159864000Y-77315000D01*
X159890000Y-77355000D01*
X159911000Y-77397000D01*
X159928000Y-77441000D01*
X159940000Y-77486000D01*
X159948000Y-77533000D01*
X159950000Y-77580000D01*
X159950000Y-78230000D01*
X159949000Y-78254000D01*
X159948000Y-78277000D01*
X159944000Y-78300000D01*
X159940000Y-78324000D01*
X159935000Y-78346000D01*
X159928000Y-78369000D01*
X159920000Y-78391000D01*
X159911000Y-78413000D01*
X159901000Y-78434000D01*
X159890000Y-78455000D01*
X159877000Y-78475000D01*
X159864000Y-78495000D01*
X159850000Y-78513000D01*
X159834000Y-78531000D01*
X159818000Y-78548000D01*
X159801000Y-78564000D01*
X159783000Y-78580000D01*
X159765000Y-78594000D01*
X159745000Y-78607000D01*
X159725000Y-78620000D01*
X159704000Y-78631000D01*
X159683000Y-78641000D01*
X159661000Y-78650000D01*
X159639000Y-78658000D01*
X159616000Y-78665000D01*
X159594000Y-78670000D01*
X159570000Y-78674000D01*
X159547000Y-78678000D01*
X159524000Y-78679000D01*
X159500000Y-78680000D01*
X159000000Y-78680000D01*
X158953000Y-78678000D01*
X158906000Y-78670000D01*
X158861000Y-78658000D01*
X158817000Y-78641000D01*
X158775000Y-78620000D01*
X158735000Y-78594000D01*
X158699000Y-78564000D01*
X158666000Y-78531000D01*
X158636000Y-78495000D01*
X158610000Y-78455000D01*
X158589000Y-78413000D01*
X158572000Y-78369000D01*
X158560000Y-78324000D01*
X158552000Y-78277000D01*
X158550000Y-78230000D01*
X158552000Y-78183000D01*
X158560000Y-78136000D01*
X158572000Y-78091000D01*
X158589000Y-78047000D01*
X158610000Y-78005000D01*
X158636000Y-77965000D01*
X158666000Y-77929000D01*
X158699000Y-77896000D01*
X158735000Y-77866000D01*
X158775000Y-77840000D01*
X158817000Y-77819000D01*
X158861000Y-77802000D01*
X158906000Y-77790000D01*
X158953000Y-77782000D01*
X159000000Y-77780000D01*
X159050000Y-77780000D01*
X159050000Y-77580000D01*
X159052000Y-77533000D01*
X159060000Y-77486000D01*
X159072000Y-77441000D01*
X159089000Y-77397000D01*
X159110000Y-77355000D01*
X159136000Y-77315000D01*
X159166000Y-77279000D01*
X159199000Y-77246000D01*
X159235000Y-77216000D01*
X159275000Y-77190000D01*
X159317000Y-77169000D01*
X159361000Y-77152000D01*
X159406000Y-77140000D01*
X159453000Y-77132000D01*
X159500000Y-77130000D01*
X159547000Y-77132000D01*
%TA.AperFunction,EtchedComponent*%
G36*
X159547000Y-77132000D02*
G01*
X159594000Y-77140000D01*
X159639000Y-77152000D01*
X159683000Y-77169000D01*
X159725000Y-77190000D01*
X159765000Y-77216000D01*
X159801000Y-77246000D01*
X159834000Y-77279000D01*
X159864000Y-77315000D01*
X159890000Y-77355000D01*
X159911000Y-77397000D01*
X159928000Y-77441000D01*
X159940000Y-77486000D01*
X159948000Y-77533000D01*
X159950000Y-77580000D01*
X159950000Y-78230000D01*
X159949000Y-78254000D01*
X159948000Y-78277000D01*
X159944000Y-78300000D01*
X159940000Y-78324000D01*
X159935000Y-78346000D01*
X159928000Y-78369000D01*
X159920000Y-78391000D01*
X159911000Y-78413000D01*
X159901000Y-78434000D01*
X159890000Y-78455000D01*
X159877000Y-78475000D01*
X159864000Y-78495000D01*
X159850000Y-78513000D01*
X159834000Y-78531000D01*
X159818000Y-78548000D01*
X159801000Y-78564000D01*
X159783000Y-78580000D01*
X159765000Y-78594000D01*
X159745000Y-78607000D01*
X159725000Y-78620000D01*
X159704000Y-78631000D01*
X159683000Y-78641000D01*
X159661000Y-78650000D01*
X159639000Y-78658000D01*
X159616000Y-78665000D01*
X159594000Y-78670000D01*
X159570000Y-78674000D01*
X159547000Y-78678000D01*
X159524000Y-78679000D01*
X159500000Y-78680000D01*
X159000000Y-78680000D01*
X158953000Y-78678000D01*
X158906000Y-78670000D01*
X158861000Y-78658000D01*
X158817000Y-78641000D01*
X158775000Y-78620000D01*
X158735000Y-78594000D01*
X158699000Y-78564000D01*
X158666000Y-78531000D01*
X158636000Y-78495000D01*
X158610000Y-78455000D01*
X158589000Y-78413000D01*
X158572000Y-78369000D01*
X158560000Y-78324000D01*
X158552000Y-78277000D01*
X158550000Y-78230000D01*
X158552000Y-78183000D01*
X158560000Y-78136000D01*
X158572000Y-78091000D01*
X158589000Y-78047000D01*
X158610000Y-78005000D01*
X158636000Y-77965000D01*
X158666000Y-77929000D01*
X158699000Y-77896000D01*
X158735000Y-77866000D01*
X158775000Y-77840000D01*
X158817000Y-77819000D01*
X158861000Y-77802000D01*
X158906000Y-77790000D01*
X158953000Y-77782000D01*
X159000000Y-77780000D01*
X159050000Y-77780000D01*
X159050000Y-77580000D01*
X159052000Y-77533000D01*
X159060000Y-77486000D01*
X159072000Y-77441000D01*
X159089000Y-77397000D01*
X159110000Y-77355000D01*
X159136000Y-77315000D01*
X159166000Y-77279000D01*
X159199000Y-77246000D01*
X159235000Y-77216000D01*
X159275000Y-77190000D01*
X159317000Y-77169000D01*
X159361000Y-77152000D01*
X159406000Y-77140000D01*
X159453000Y-77132000D01*
X159500000Y-77130000D01*
X159547000Y-77132000D01*
G37*
%TD.AperFunction*%
X159547000Y-77132000D02*
X159594000Y-77140000D01*
X159639000Y-77152000D01*
X159683000Y-77169000D01*
X159725000Y-77190000D01*
X159765000Y-77216000D01*
X159801000Y-77246000D01*
X159834000Y-77279000D01*
X159864000Y-77315000D01*
X159890000Y-77355000D01*
X159911000Y-77397000D01*
X159928000Y-77441000D01*
X159940000Y-77486000D01*
X159948000Y-77533000D01*
X159950000Y-77580000D01*
X159950000Y-78230000D01*
X159949000Y-78254000D01*
X159948000Y-78277000D01*
X159944000Y-78300000D01*
X159940000Y-78324000D01*
X159935000Y-78346000D01*
X159928000Y-78369000D01*
X159920000Y-78391000D01*
X159911000Y-78413000D01*
X159901000Y-78434000D01*
X159890000Y-78455000D01*
X159877000Y-78475000D01*
X159864000Y-78495000D01*
X159850000Y-78513000D01*
X159834000Y-78531000D01*
X159818000Y-78548000D01*
X159801000Y-78564000D01*
X159783000Y-78580000D01*
X159765000Y-78594000D01*
X159745000Y-78607000D01*
X159725000Y-78620000D01*
X159704000Y-78631000D01*
X159683000Y-78641000D01*
X159661000Y-78650000D01*
X159639000Y-78658000D01*
X159616000Y-78665000D01*
X159594000Y-78670000D01*
X159570000Y-78674000D01*
X159547000Y-78678000D01*
X159524000Y-78679000D01*
X159500000Y-78680000D01*
X159000000Y-78680000D01*
X158953000Y-78678000D01*
X158906000Y-78670000D01*
X158861000Y-78658000D01*
X158817000Y-78641000D01*
X158775000Y-78620000D01*
X158735000Y-78594000D01*
X158699000Y-78564000D01*
X158666000Y-78531000D01*
X158636000Y-78495000D01*
X158610000Y-78455000D01*
X158589000Y-78413000D01*
X158572000Y-78369000D01*
X158560000Y-78324000D01*
X158552000Y-78277000D01*
X158550000Y-78230000D01*
X158552000Y-78183000D01*
X158560000Y-78136000D01*
X158572000Y-78091000D01*
X158589000Y-78047000D01*
X158610000Y-78005000D01*
X158636000Y-77965000D01*
X158666000Y-77929000D01*
X158699000Y-77896000D01*
X158735000Y-77866000D01*
X158775000Y-77840000D01*
X158817000Y-77819000D01*
X158861000Y-77802000D01*
X158906000Y-77790000D01*
X158953000Y-77782000D01*
X159000000Y-77780000D01*
X159050000Y-77780000D01*
X159050000Y-77580000D01*
X159052000Y-77533000D01*
X159060000Y-77486000D01*
X159072000Y-77441000D01*
X159089000Y-77397000D01*
X159110000Y-77355000D01*
X159136000Y-77315000D01*
X159166000Y-77279000D01*
X159199000Y-77246000D01*
X159235000Y-77216000D01*
X159275000Y-77190000D01*
X159317000Y-77169000D01*
X159361000Y-77152000D01*
X159406000Y-77140000D01*
X159453000Y-77132000D01*
X159500000Y-77130000D01*
X159547000Y-77132000D01*
%TA.AperFunction,EtchedComponent*%
G36*
X159547000Y-77132000D02*
G01*
X159594000Y-77140000D01*
X159639000Y-77152000D01*
X159683000Y-77169000D01*
X159725000Y-77190000D01*
X159765000Y-77216000D01*
X159801000Y-77246000D01*
X159834000Y-77279000D01*
X159864000Y-77315000D01*
X159890000Y-77355000D01*
X159911000Y-77397000D01*
X159928000Y-77441000D01*
X159940000Y-77486000D01*
X159948000Y-77533000D01*
X159950000Y-77580000D01*
X159950000Y-78230000D01*
X159949000Y-78254000D01*
X159948000Y-78277000D01*
X159944000Y-78300000D01*
X159940000Y-78324000D01*
X159935000Y-78346000D01*
X159928000Y-78369000D01*
X159920000Y-78391000D01*
X159911000Y-78413000D01*
X159901000Y-78434000D01*
X159890000Y-78455000D01*
X159877000Y-78475000D01*
X159864000Y-78495000D01*
X159850000Y-78513000D01*
X159834000Y-78531000D01*
X159818000Y-78548000D01*
X159801000Y-78564000D01*
X159783000Y-78580000D01*
X159765000Y-78594000D01*
X159745000Y-78607000D01*
X159725000Y-78620000D01*
X159704000Y-78631000D01*
X159683000Y-78641000D01*
X159661000Y-78650000D01*
X159639000Y-78658000D01*
X159616000Y-78665000D01*
X159594000Y-78670000D01*
X159570000Y-78674000D01*
X159547000Y-78678000D01*
X159524000Y-78679000D01*
X159500000Y-78680000D01*
X159000000Y-78680000D01*
X158953000Y-78678000D01*
X158906000Y-78670000D01*
X158861000Y-78658000D01*
X158817000Y-78641000D01*
X158775000Y-78620000D01*
X158735000Y-78594000D01*
X158699000Y-78564000D01*
X158666000Y-78531000D01*
X158636000Y-78495000D01*
X158610000Y-78455000D01*
X158589000Y-78413000D01*
X158572000Y-78369000D01*
X158560000Y-78324000D01*
X158552000Y-78277000D01*
X158550000Y-78230000D01*
X158552000Y-78183000D01*
X158560000Y-78136000D01*
X158572000Y-78091000D01*
X158589000Y-78047000D01*
X158610000Y-78005000D01*
X158636000Y-77965000D01*
X158666000Y-77929000D01*
X158699000Y-77896000D01*
X158735000Y-77866000D01*
X158775000Y-77840000D01*
X158817000Y-77819000D01*
X158861000Y-77802000D01*
X158906000Y-77790000D01*
X158953000Y-77782000D01*
X159000000Y-77780000D01*
X159050000Y-77780000D01*
X159050000Y-77580000D01*
X159052000Y-77533000D01*
X159060000Y-77486000D01*
X159072000Y-77441000D01*
X159089000Y-77397000D01*
X159110000Y-77355000D01*
X159136000Y-77315000D01*
X159166000Y-77279000D01*
X159199000Y-77246000D01*
X159235000Y-77216000D01*
X159275000Y-77190000D01*
X159317000Y-77169000D01*
X159361000Y-77152000D01*
X159406000Y-77140000D01*
X159453000Y-77132000D01*
X159500000Y-77130000D01*
X159547000Y-77132000D01*
G37*
%TD.AperFunction*%
%TD*%
D11*
%TO.P,C49,1*%
%TO.N,GND*%
X223000000Y-63500000D03*
%TO.P,C49,2*%
%TO.N,/ETH_SIDE/Vdd1.0*%
X223000000Y-61600000D03*
%TD*%
D12*
%TO.P,C33,1*%
%TO.N,GND*%
X229500000Y-55600000D03*
%TO.P,C33,2*%
%TO.N,VDD33A*%
X229500000Y-57500000D03*
%TD*%
D13*
%TO.P,C16,1*%
%TO.N,5V*%
X159192500Y-88000000D03*
%TO.P,C16,2*%
%TO.N,GND*%
X157292500Y-88000000D03*
%TD*%
D14*
%TO.P,C3,1*%
%TO.N,VDD33A*%
X199000000Y-82540000D03*
%TO.P,C3,2*%
%TO.N,GND*%
X199000000Y-83500000D03*
%TD*%
%TO.P,C34,1*%
%TO.N,GND*%
X232000000Y-56000000D03*
%TO.P,C34,2*%
%TO.N,VDD33A*%
X232000000Y-56960000D03*
%TD*%
D15*
%TO.P,L1,1,1*%
%TO.N,VDD12*%
X194500000Y-58387500D03*
%TO.P,L1,2,2*%
%TO.N,VDD12_SW_OUT*%
X194500000Y-59962500D03*
%TD*%
D13*
%TO.P,C21,1*%
%TO.N,VDD33A*%
X167726801Y-96198708D03*
%TO.P,C21,2*%
%TO.N,GND*%
X165826801Y-96198708D03*
%TD*%
D16*
%TO.P,C13,1*%
%TO.N,VDD12*%
X195100000Y-55500000D03*
%TO.P,C13,2*%
%TO.N,GND*%
X197000000Y-55500000D03*
%TD*%
D14*
%TO.P,C46,1*%
%TO.N,GND*%
X217500000Y-56162074D03*
%TO.P,C46,2*%
%TO.N,/ETH_SIDE/Vdd1p0A*%
X217500000Y-57122074D03*
%TD*%
D17*
%TO.P,R28,1*%
%TO.N,VDD33A*%
X245412500Y-90000000D03*
%TO.P,R28,2*%
%TO.N,/ETH_SIDE/RX_D1_STRP*%
X243587500Y-90000000D03*
%TD*%
D14*
%TO.P,C41,1*%
%TO.N,GND*%
X218500000Y-56175000D03*
%TO.P,C41,2*%
%TO.N,/ETH_SIDE/Vdd1p0A*%
X218500000Y-57135000D03*
%TD*%
D18*
%TO.P,D1,1,K*%
%TO.N,Net-(D1-K)*%
X175000000Y-65000000D03*
%TO.P,D1,2,A*%
%TO.N,Net-(D1-A)*%
X173425000Y-65000000D03*
%TD*%
D19*
%TO.P,U2,1,PGND*%
%TO.N,GND*%
X164137499Y-87649998D03*
%TO.P,U2,2,VIN*%
%TO.N,5V*%
X164137499Y-88149997D03*
%TO.P,U2,3,EN*%
%TO.N,Net-(U2-EN)*%
X164137499Y-88649999D03*
%TO.P,U2,4,AGND*%
%TO.N,GND*%
X164137499Y-89149997D03*
%TO.P,U2,5,FB*%
%TO.N,Net-(U2-FB)*%
X166037501Y-89149997D03*
%TO.P,U2,6,VOS*%
%TO.N,VDD33A*%
X166037501Y-88649999D03*
%TO.P,U2,7,SW*%
%TO.N,Net-(U2-SW)*%
X166037501Y-88149997D03*
%TO.P,U2,8,PG*%
%TO.N,Net-(U2-PG)*%
X166037501Y-87649998D03*
D20*
%TO.P,U2,9,PAD*%
%TO.N,GND*%
X165087500Y-88399996D03*
D21*
%TO.P,U2,V*%
%TO.N,N/C*%
X165087500Y-88000000D03*
X165087500Y-88799998D03*
%TD*%
D22*
%TO.P,FL1,1*%
%TO.N,/ETH_SIDE/TRD_P*%
X227950000Y-77946400D03*
%TO.P,FL1,2*%
%TO.N,/ETH_SIDE/BI_DA+*%
X231000000Y-77946400D03*
%TO.P,FL1,3*%
%TO.N,/ETH_SIDE/BI_DA-*%
X231000000Y-76946400D03*
%TO.P,FL1,4*%
%TO.N,/ETH_SIDE/TRD_N*%
X227950000Y-76946400D03*
%TD*%
D14*
%TO.P,C42,1*%
%TO.N,/ETH_SIDE/Vdd1p0A*%
X218500000Y-58520000D03*
%TO.P,C42,2*%
%TO.N,GND*%
X218500000Y-59480000D03*
%TD*%
D17*
%TO.P,R29,1*%
%TO.N,VDD33A*%
X245412500Y-92500000D03*
%TO.P,R29,2*%
%TO.N,/ETH_SIDE/RX_D2_STRP*%
X243587500Y-92500000D03*
%TD*%
D15*
%TO.P,D5,1,K*%
%TO.N,Net-(D5-K)*%
X248500000Y-95712500D03*
%TO.P,D5,2,A*%
%TO.N,/ETH_SIDE/LED_0_STRP_OFF*%
X248500000Y-97287500D03*
%TD*%
D23*
%TO.P,J4,A1,GND*%
%TO.N,GND*%
X161160000Y-71150000D03*
%TO.P,J4,A2,SSTXP1*%
%TO.N,/USB_SIDE/USB3_TXP*%
X161160000Y-71650000D03*
%TO.P,J4,A3,SSTXN1*%
%TO.N,/USB_SIDE/USB3_TXN*%
X161160000Y-72150000D03*
%TO.P,J4,A4,VBUS*%
%TO.N,VBUS*%
X161160000Y-72650000D03*
%TO.P,J4,A5,CC1*%
%TO.N,unconnected-(J4-CC1-PadA5)*%
X161160000Y-73150000D03*
%TO.P,J4,A6,DP1*%
%TO.N,/USB_SIDE/USB2_P*%
X161160000Y-73650000D03*
%TO.P,J4,A7,DN1*%
%TO.N,/USB_SIDE/USB2_N*%
X161160000Y-74150000D03*
%TO.P,J4,A8,SBU1*%
%TO.N,unconnected-(J4-SBU1-PadA8)*%
X161160000Y-74650000D03*
%TO.P,J4,A9,VBUS__1*%
%TO.N,VBUS*%
X161160000Y-75150000D03*
%TO.P,J4,A10,SSRXN2*%
%TO.N,/USB_SIDE/USB3_RXN*%
X161160000Y-75650000D03*
%TO.P,J4,A11,SSRXP2*%
%TO.N,/USB_SIDE/USB3_RXP*%
X161160000Y-76150000D03*
%TO.P,J4,A12,GND__1*%
%TO.N,GND*%
X161160000Y-76650000D03*
D24*
%TO.P,J4,B1,GND__2*%
X159850000Y-76700000D03*
%TO.P,J4,B2,SSTXP2*%
%TO.N,/USB_SIDE/USB3_TXP*%
X159150000Y-76300000D03*
%TO.P,J4,B3,SSTXN2*%
%TO.N,/USB_SIDE/USB3_TXN*%
X159150000Y-75500000D03*
%TO.P,J4,B4,VBUS__2*%
%TO.N,VBUS*%
X159850000Y-75100000D03*
%TO.P,J4,B5,CC2*%
%TO.N,unconnected-(J4-CC2-PadB5)*%
X159150000Y-74700000D03*
%TO.P,J4,B6,DP2*%
%TO.N,/USB_SIDE/USB2_P*%
X159850000Y-74300000D03*
%TO.P,J4,B7,DN2*%
%TO.N,/USB_SIDE/USB2_N*%
X159850000Y-73500000D03*
%TO.P,J4,B8,SBU2*%
%TO.N,unconnected-(J4-SBU2-PadB8)*%
X159150000Y-73100000D03*
%TO.P,J4,B9,VBUS__3*%
%TO.N,VBUS*%
X159850000Y-72700000D03*
%TO.P,J4,B10,SSRXN1*%
%TO.N,/USB_SIDE/USB3_RXN*%
X159150000Y-72300000D03*
%TO.P,J4,B11,SSRXP1*%
%TO.N,/USB_SIDE/USB3_RXP*%
X159150000Y-71500000D03*
%TO.P,J4,B12,GND__3*%
%TO.N,GND*%
X159850000Y-71100000D03*
D25*
%TO.P,J4,SH1,SHIELD*%
%TO.N,USB_SHIELD*%
X159000000Y-78230000D03*
%TO.P,J4,SH2,SHIELD__1*%
X159000000Y-69570000D03*
D26*
%TO.P,J4,SH3,SHIELD__2*%
X154500000Y-69570000D03*
%TO.P,J4,SH4,SHIELD__3*%
X154500000Y-78230000D03*
%TD*%
D27*
%TO.P,C27,1*%
%TO.N,/ETH_SIDE/BI_DA+*%
X232365000Y-77946400D03*
%TO.P,C27,2*%
X233325000Y-77946400D03*
%TD*%
D28*
%TO.P,R18,1*%
%TO.N,/ETH_SIDE/BI_DA-*%
X233000000Y-75412500D03*
%TO.P,R18,2*%
%TO.N,Net-(C29-Pad1)*%
X233000000Y-73587500D03*
%TD*%
D29*
%TO.P,R8,1*%
%TO.N,GND*%
X198020000Y-80500000D03*
%TO.P,R8,2*%
%TO.N,Net-(U1-REF_REXT)*%
X197000000Y-80500000D03*
%TD*%
D17*
%TO.P,R3,1*%
%TO.N,GND*%
X196825000Y-63500000D03*
%TO.P,R3,2*%
%TO.N,Net-(U1-CLK125)*%
X195000000Y-63500000D03*
%TD*%
D30*
%TO.P,L2,1,1*%
%TO.N,Net-(U2-SW)*%
X171000000Y-89000000D03*
%TO.P,L2,2,2*%
%TO.N,VDD33A*%
X171000000Y-91150000D03*
%TD*%
D31*
%TO.P,R14,1*%
%TO.N,GND*%
X164175000Y-98500000D03*
%TO.P,R14,2*%
%TO.N,Net-(D2-K)*%
X166000000Y-98500000D03*
%TD*%
D32*
%TO.P,R16,1*%
%TO.N,Net-(R16-Pad1)*%
X227500000Y-81500000D03*
%TO.P,R16,2*%
%TO.N,GND*%
X227500000Y-83325000D03*
%TD*%
D27*
%TO.P,C6,1*%
%TO.N,Net-(U1-VDD25_REG_OUT)*%
X194675000Y-82500000D03*
%TO.P,C6,2*%
%TO.N,GND*%
X195635000Y-82500000D03*
%TD*%
D14*
%TO.P,C5,1*%
%TO.N,VDD12A*%
X189424407Y-82859365D03*
%TO.P,C5,2*%
%TO.N,GND*%
X189424407Y-83819365D03*
%TD*%
D33*
%TO.P,FL3,1*%
%TO.N,/ETH_SIDE/Vdd1.0*%
X222235000Y-58000000D03*
%TO.P,FL3,2*%
%TO.N,/ETH_SIDE/Vdd1p0A*%
X220765000Y-58000000D03*
%TD*%
D34*
%TO.P,D3,1,K*%
%TO.N,/ETH_SIDE/LED_0_STRP_ON*%
X250500000Y-97287500D03*
%TO.P,D3,2,A*%
%TO.N,Net-(D3-A)*%
X250500000Y-95712500D03*
%TD*%
D14*
%TO.P,C14,1*%
%TO.N,VDD33A*%
X199000000Y-79520000D03*
%TO.P,C14,2*%
%TO.N,GND*%
X199000000Y-80480000D03*
%TD*%
D35*
%TO.P,J2,1,Pin_1*%
%TO.N,GPIO10*%
X215000000Y-99000000D03*
D36*
%TO.P,J2,2,Pin_2*%
%TO.N,GPIO9*%
X213000000Y-99000000D03*
%TO.P,J2,3,Pin_3*%
%TO.N,GPIO8*%
X211000000Y-99000000D03*
%TO.P,J2,4,Pin_4*%
%TO.N,GPIO7*%
X209000000Y-99000000D03*
%TO.P,J2,5,Pin_5*%
%TO.N,GPIO6*%
X207000000Y-99000000D03*
%TO.P,J2,6,Pin_6*%
%TO.N,GPIO5*%
X205000000Y-99000000D03*
%TO.P,J2,7,Pin_7*%
%TO.N,GPIO4*%
X203000000Y-99000000D03*
%TO.P,J2,8,Pin_8*%
%TO.N,GND*%
X201000000Y-99000000D03*
%TD*%
D37*
%TO.P,C18,1*%
%TO.N,VDD33A*%
X191768206Y-60257971D03*
%TO.P,C18,2*%
%TO.N,GND*%
X191768206Y-58707971D03*
%TD*%
D27*
%TO.P,C26,1*%
%TO.N,XO*%
X191020000Y-93500000D03*
%TO.P,C26,2*%
%TO.N,GND*%
X191980000Y-93500000D03*
%TD*%
D38*
%TO.P,U6,1,1*%
%TO.N,RXD0*%
X231194700Y-87420000D03*
%TO.P,U6,2,2*%
%TO.N,RXD1*%
X231194700Y-89960000D03*
%TO.P,U6,3,3*%
%TO.N,RXD2*%
X231194700Y-92500000D03*
%TO.P,U6,4,4*%
%TO.N,/ETH_SIDE/LED_0_DIP*%
X231194700Y-95040000D03*
%TO.P,U6,5,5*%
X231194700Y-97580000D03*
%TO.P,U6,6,6*%
%TO.N,/ETH_SIDE/LED_0_STRP_ON*%
X239805300Y-97580000D03*
%TO.P,U6,7,7*%
%TO.N,/ETH_SIDE/LED_0_STRP_OFF*%
X239805300Y-95040000D03*
%TO.P,U6,8,8*%
%TO.N,/ETH_SIDE/RX_D2_STRP*%
X239805300Y-92500000D03*
%TO.P,U6,9,9*%
%TO.N,/ETH_SIDE/RX_D1_STRP*%
X239805300Y-89960000D03*
%TO.P,U6,10,10*%
%TO.N,/ETH_SIDE/RX_D0_STRP*%
X239805300Y-87420000D03*
%TD*%
D39*
%TO.P,D2,1,K*%
%TO.N,Net-(D2-K)*%
X168000000Y-98500000D03*
%TO.P,D2,2,A*%
%TO.N,VDD33A*%
X169575000Y-98500000D03*
%TD*%
D40*
%TO.P,C8,1*%
%TO.N,VDD12A*%
X186000000Y-66480000D03*
%TO.P,C8,2*%
%TO.N,GND*%
X186000000Y-65520000D03*
%TD*%
D31*
%TO.P,R4,1*%
%TO.N,VDD33A*%
X169675000Y-65000000D03*
%TO.P,R4,2*%
%TO.N,Net-(D1-A)*%
X171500000Y-65000000D03*
%TD*%
D41*
%TO.P,C17,1*%
%TO.N,Net-(U2-EN)*%
X156912500Y-90000000D03*
%TO.P,C17,2*%
%TO.N,GND*%
X155952500Y-90000000D03*
%TD*%
D28*
%TO.P,R15,1*%
%TO.N,GND*%
X158500000Y-84825000D03*
%TO.P,R15,2*%
%TO.N,USB_SHIELD*%
X158500000Y-83000000D03*
%TD*%
D27*
%TO.P,C2,1*%
%TO.N,VDD12A*%
X194681226Y-83510416D03*
%TO.P,C2,2*%
%TO.N,GND*%
X195641226Y-83510416D03*
%TD*%
D41*
%TO.P,C7,1*%
%TO.N,VDD33A*%
X187135000Y-87000000D03*
%TO.P,C7,2*%
%TO.N,GND*%
X186175000Y-87000000D03*
%TD*%
D42*
%TO.P,XTAL1,1,In/Out*%
%TO.N,XI*%
X187018800Y-91000000D03*
%TO.P,XTAL1,2,GND*%
%TO.N,GND*%
X187018800Y-93286000D03*
%TO.P,XTAL1,3,Out/In*%
%TO.N,XO*%
X189000000Y-93286000D03*
%TO.P,XTAL1,4,GND*%
%TO.N,GND*%
X189000000Y-91000000D03*
%TD*%
D41*
%TO.P,C24,1*%
%TO.N,XI*%
X185480000Y-91000000D03*
%TO.P,C24,2*%
%TO.N,GND*%
X184520000Y-91000000D03*
%TD*%
D43*
%TO.P,FB2,1*%
%TO.N,5V*%
X161087500Y-86500000D03*
%TO.P,FB2,2*%
%TO.N,VBUS*%
X161087500Y-85030000D03*
%TD*%
D31*
%TO.P,R12,1*%
%TO.N,GND*%
X163000000Y-94000000D03*
%TO.P,R12,2*%
%TO.N,Net-(U2-FB)*%
X164825000Y-94000000D03*
%TD*%
D27*
%TO.P,C20,1*%
%TO.N,Net-(U1-REF_FILT)*%
X196865000Y-79500000D03*
%TO.P,C20,2*%
%TO.N,GND*%
X197825000Y-79500000D03*
%TD*%
D31*
%TO.P,R13,1*%
%TO.N,GND*%
X165175000Y-56500000D03*
%TO.P,R13,2*%
%TO.N,Net-(U3-ORG)*%
X167000000Y-56500000D03*
%TD*%
D41*
%TO.P,C10,1*%
%TO.N,VDD33A*%
X188825000Y-67345000D03*
%TO.P,C10,2*%
%TO.N,GND*%
X187865000Y-67345000D03*
%TD*%
D44*
%TO.P,U4,1,1*%
%TO.N,MDC*%
X217499999Y-78446400D03*
%TO.P,U4,2,2*%
%TO.N,PHY_INT_N*%
X218000000Y-78446400D03*
%TO.P,U4,3,3*%
%TO.N,PHY_RESET_N*%
X218499999Y-78446400D03*
%TO.P,U4,4,4*%
%TO.N,unconnected-(U4-Pad4)*%
X219000001Y-78446400D03*
%TO.P,U4,5,5*%
%TO.N,REF_25CLK*%
X219500000Y-78446400D03*
%TO.P,U4,6,6*%
%TO.N,/ETH_SIDE/LED_1*%
X219999999Y-78446400D03*
%TO.P,U4,7,7*%
%TO.N,/ETH_SIDE/Vdda3p3*%
X220500001Y-78446400D03*
%TO.P,U4,8,8*%
X221000000Y-78446400D03*
%TO.P,U4,9,9*%
%TO.N,/ETH_SIDE/Vdd1p0A*%
X221500001Y-78446400D03*
D45*
%TO.P,U4,10,10*%
%TO.N,Net-(R16-Pad1)*%
X222446400Y-77500001D03*
%TO.P,U4,11,11*%
%TO.N,/ETH_SIDE/Vdda3p3*%
X222446400Y-77000000D03*
%TO.P,U4,12,12*%
%TO.N,/ETH_SIDE/TRD_P*%
X222446400Y-76500001D03*
%TO.P,U4,13,13*%
%TO.N,/ETH_SIDE/TRD_N*%
X222446400Y-75999999D03*
%TO.P,U4,14,14*%
%TO.N,unconnected-(U4-Pad14)*%
X222446400Y-75500000D03*
%TO.P,U4,15,15*%
%TO.N,RX_CTL*%
X222446400Y-75000001D03*
%TO.P,U4,16,16*%
%TO.N,unconnected-(U4-Pad16)*%
X222446400Y-74499999D03*
%TO.P,U4,17,17*%
%TO.N,unconnected-(U4-Pad17)*%
X222446400Y-74000000D03*
%TO.P,U4,18,18*%
%TO.N,unconnected-(U4-Pad18)*%
X222446400Y-73499999D03*
D44*
%TO.P,U4,19,19*%
%TO.N,unconnected-(U4-Pad19)*%
X221500001Y-72553600D03*
%TO.P,U4,20,20*%
%TO.N,unconnected-(U4-Pad20)*%
X221000000Y-72553600D03*
%TO.P,U4,21,21*%
%TO.N,/ETH_SIDE/Vdd1p0A*%
X220500001Y-72553600D03*
%TO.P,U4,22,22*%
%TO.N,/ETH_SIDE/VddioA*%
X219999999Y-72553600D03*
%TO.P,U4,23,23*%
%TO.N,RXD3*%
X219500000Y-72553600D03*
%TO.P,U4,24,24*%
%TO.N,RXD2*%
X219000001Y-72553600D03*
%TO.P,U4,25,25*%
%TO.N,RXD1*%
X218499999Y-72553600D03*
%TO.P,U4,26,26*%
%TO.N,RXD0*%
X218000000Y-72553600D03*
%TO.P,U4,27,27*%
%TO.N,RXC*%
X217499999Y-72553600D03*
D45*
%TO.P,U4,28,28*%
%TO.N,TXC*%
X216553600Y-73499999D03*
%TO.P,U4,29,29*%
%TO.N,TX_CTL*%
X216553600Y-74000000D03*
%TO.P,U4,30,30*%
%TO.N,TXD3*%
X216553600Y-74499999D03*
%TO.P,U4,31,31*%
%TO.N,TXD2*%
X216553600Y-75000001D03*
%TO.P,U4,32,32*%
%TO.N,TXD1*%
X216553600Y-75500000D03*
%TO.P,U4,33,33*%
%TO.N,TXD0*%
X216553600Y-75999999D03*
%TO.P,U4,34,34*%
%TO.N,/ETH_SIDE/VddioA*%
X216553600Y-76500001D03*
%TO.P,U4,35,35*%
%TO.N,/ETH_SIDE/LED_0_DIP*%
X216553600Y-77000000D03*
%TO.P,U4,36,36*%
%TO.N,MDIO*%
X216553600Y-77500001D03*
D46*
%TO.P,U4,37,37*%
%TO.N,GND*%
X219500000Y-75500000D03*
%TD*%
D31*
%TO.P,R2,1*%
%TO.N,Net-(U2-EN)*%
X158675000Y-90000000D03*
%TO.P,R2,2*%
%TO.N,5V*%
X160500000Y-90000000D03*
%TD*%
D15*
%TO.P,D4,1,K*%
%TO.N,Net-(D4-K)*%
X252500000Y-95712500D03*
%TO.P,D4,2,A*%
%TO.N,/ETH_SIDE/LED_1*%
X252500000Y-97287500D03*
%TD*%
D14*
%TO.P,C38,1*%
%TO.N,/ETH_SIDE/Vdd1p0A*%
X219500000Y-58520000D03*
%TO.P,C38,2*%
%TO.N,GND*%
X219500000Y-59480000D03*
%TD*%
D47*
%TO.P,R6,1*%
%TO.N,GND*%
X185000000Y-84020000D03*
%TO.P,R6,2*%
%TO.N,USBRBIAS*%
X185000000Y-83000000D03*
%TD*%
D40*
%TO.P,C15,1*%
%TO.N,VDD33A*%
X194000000Y-70135000D03*
%TO.P,C15,2*%
%TO.N,GND*%
X194000000Y-69175000D03*
%TD*%
D31*
%TO.P,R26,1*%
%TO.N,/ETH_SIDE/LED_0_STRP_OFF*%
X250587500Y-90000000D03*
%TO.P,R26,2*%
%TO.N,GND*%
X252412500Y-90000000D03*
%TD*%
D17*
%TO.P,R23,1*%
%TO.N,Net-(D3-A)*%
X246912500Y-99000000D03*
%TO.P,R23,2*%
%TO.N,VDD33A*%
X245087500Y-99000000D03*
%TD*%
D14*
%TO.P,C22,1*%
%TO.N,VDD33A*%
X186000000Y-83865000D03*
%TO.P,C22,2*%
%TO.N,GND*%
X186000000Y-84825000D03*
%TD*%
D48*
%TO.P,U3,1,CS*%
%TO.N,Net-(U1-EECS{slash}GPIO0)*%
X177000000Y-61620000D03*
D49*
%TO.P,U3,2,CLK*%
%TO.N,Net-(U1-EECLK{slash}GPIO3)*%
X177000000Y-59080000D03*
%TO.P,U3,3,DI*%
%TO.N,Net-(U1-EEDI{slash}GPIO1)*%
X177000000Y-56540000D03*
%TO.P,U3,4,DO*%
%TO.N,Net-(U1-EEDO{slash}GPIO2)*%
X177000000Y-54000000D03*
%TO.P,U3,5,VSS*%
%TO.N,GND*%
X169380000Y-54000000D03*
%TO.P,U3,6,ORG*%
%TO.N,Net-(U3-ORG)*%
X169380000Y-56540000D03*
%TO.P,U3,7,NC*%
%TO.N,unconnected-(U3-NC-Pad7)*%
X169380000Y-59080000D03*
%TO.P,U3,8,VCC*%
%TO.N,VDD33A*%
X169380000Y-61620000D03*
%TD*%
D31*
%TO.P,R11,1*%
%TO.N,Net-(U2-FB)*%
X167500000Y-94000000D03*
%TO.P,R11,2*%
%TO.N,VDD33A*%
X169325000Y-94000000D03*
%TD*%
D14*
%TO.P,C1,1*%
%TO.N,VDD33A*%
X183500000Y-83675000D03*
%TO.P,C1,2*%
%TO.N,GND*%
X183500000Y-84635000D03*
%TD*%
D41*
%TO.P,C28,1*%
%TO.N,/ETH_SIDE/BI_DA-*%
X233325000Y-76946400D03*
%TO.P,C28,2*%
X232365000Y-76946400D03*
%TD*%
D14*
%TO.P,C23,1*%
%TO.N,VDD33A*%
X166000000Y-63520000D03*
%TO.P,C23,2*%
%TO.N,GND*%
X166000000Y-64480000D03*
%TD*%
D31*
%TO.P,R9,1*%
%TO.N,Net-(U2-PG)*%
X170000000Y-86500000D03*
%TO.P,R9,2*%
%TO.N,VDD33A*%
X171825000Y-86500000D03*
%TD*%
D40*
%TO.P,C31,1*%
%TO.N,/ETH_SIDE/Vdd1.0*%
X224000000Y-58980000D03*
%TO.P,C31,2*%
%TO.N,GND*%
X224000000Y-58020000D03*
%TD*%
%TO.P,C19,1*%
%TO.N,VDD33A*%
X190500000Y-60635000D03*
%TO.P,C19,2*%
%TO.N,GND*%
X190500000Y-59675000D03*
%TD*%
D17*
%TO.P,R5,1*%
%TO.N,GND*%
X184000000Y-63000000D03*
%TO.P,R5,2*%
%TO.N,Net-(U1-EECS{slash}GPIO0)*%
X182175000Y-63000000D03*
%TD*%
D14*
%TO.P,C25,1*%
%TO.N,USB_SHIELD*%
X156000000Y-83365000D03*
%TO.P,C25,2*%
%TO.N,GND*%
X156000000Y-84325000D03*
%TD*%
%TO.P,C47,1*%
%TO.N,/ETH_SIDE/Vdd1p0A*%
X217500000Y-58520000D03*
%TO.P,C47,2*%
%TO.N,GND*%
X217500000Y-59480000D03*
%TD*%
%TO.P,C37,1*%
%TO.N,GND*%
X219500000Y-56200000D03*
%TO.P,C37,2*%
%TO.N,/ETH_SIDE/Vdd1p0A*%
X219500000Y-57160000D03*
%TD*%
D50*
%TO.P,U5,1,OUT*%
%TO.N,/ETH_SIDE/Vdd1.0*%
X225509467Y-59850002D03*
%TO.P,U5,2,NC*%
%TO.N,unconnected-(U5-NC-Pad2)*%
X225509467Y-60500000D03*
%TO.P,U5,3,NC*%
%TO.N,unconnected-(U5-NC-Pad3)*%
X225509467Y-61150002D03*
%TO.P,U5,4,NC*%
%TO.N,unconnected-(U5-NC-Pad4)*%
X225509467Y-61800000D03*
%TO.P,U5,5,GND*%
%TO.N,GND*%
X228490533Y-61800000D03*
%TO.P,U5,6,EN*%
%TO.N,VDD33A*%
X228490533Y-61150002D03*
%TO.P,U5,7,NC*%
%TO.N,unconnected-(U5-NC-Pad7)*%
X228490533Y-60500000D03*
%TO.P,U5,8,IN*%
%TO.N,VDD33A*%
X228490533Y-59850002D03*
D51*
%TO.P,U5,9,Thermal_Pad*%
%TO.N,unconnected-(U5-Thermal_Pad-Pad9)*%
X227000000Y-60825001D03*
%TD*%
D37*
%TO.P,C29,1*%
%TO.N,Net-(C29-Pad1)*%
X235000000Y-70550000D03*
%TO.P,C29,2*%
%TO.N,GND*%
X235000000Y-69000000D03*
%TD*%
D45*
%TO.P,U1,1,REF_REXT*%
%TO.N,Net-(U1-REF_REXT)*%
X194894200Y-79950000D03*
%TO.P,U1,2,REF_FILT*%
%TO.N,Net-(U1-REF_FILT)*%
X194894200Y-79450001D03*
%TO.P,U1,3,VDDVARIO*%
%TO.N,VDD33A*%
X194894200Y-78950000D03*
%TO.P,U1,4,TXD3*%
%TO.N,TXD3*%
X194894200Y-78450001D03*
%TO.P,U1,5,TXD2*%
%TO.N,TXD2*%
X194894200Y-77949999D03*
%TO.P,U1,6,TXD1*%
%TO.N,TXD1*%
X194894200Y-77450000D03*
%TO.P,U1,7,VDDVARIO*%
%TO.N,VDD33A*%
X194894200Y-76950001D03*
%TO.P,U1,8,TXD0*%
%TO.N,TXD0*%
X194894200Y-76450000D03*
%TO.P,U1,9,TX_CTL*%
%TO.N,TX_CTL*%
X194894200Y-75950000D03*
%TO.P,U1,10,TXC*%
%TO.N,TXC*%
X194894200Y-75449999D03*
%TO.P,U1,11,VDDVARIO*%
%TO.N,VDD33A*%
X194894200Y-74950000D03*
%TO.P,U1,12,RXC*%
%TO.N,RXC*%
X194894200Y-74450001D03*
%TO.P,U1,13,RX_CTL*%
%TO.N,RX_CTL*%
X194894200Y-73949999D03*
%TO.P,U1,14,RXD0*%
%TO.N,RXD0*%
X194894200Y-73450000D03*
%TO.P,U1,15,RXD1*%
%TO.N,RXD1*%
X194894200Y-72949999D03*
%TO.P,U1,16,RXD2*%
%TO.N,RXD2*%
X194894200Y-72450000D03*
D44*
%TO.P,U1,17,RXD3*%
%TO.N,RXD3*%
X194250000Y-71805800D03*
%TO.P,U1,18,VDDVARIO*%
%TO.N,VDD33A*%
X193750001Y-71805800D03*
%TO.P,U1,19,CLK125*%
%TO.N,Net-(U1-CLK125)*%
X193250000Y-71805800D03*
%TO.P,U1,20,VDD12_SW_OUT*%
%TO.N,VDD12_SW_OUT*%
X192750001Y-71805800D03*
%TO.P,U1,21,VDD_SW_IN*%
%TO.N,VDD33A*%
X192249999Y-71805800D03*
%TO.P,U1,22,VDD12_SW_FB*%
%TO.N,VDD12*%
X191750000Y-71805800D03*
%TO.P,U1,23,EECS/GPIO0*%
%TO.N,Net-(U1-EECS{slash}GPIO0)*%
X191250001Y-71805800D03*
%TO.P,U1,24,EEDI/GPIO1*%
%TO.N,Net-(U1-EEDI{slash}GPIO1)*%
X190750000Y-71805800D03*
%TO.P,U1,25,EEDO/GPIO2*%
%TO.N,Net-(U1-EEDO{slash}GPIO2)*%
X190250000Y-71805800D03*
%TO.P,U1,26,EECLK/GPIO3*%
%TO.N,Net-(U1-EECLK{slash}GPIO3)*%
X189749999Y-71805800D03*
%TO.P,U1,27,VDDVARIO*%
%TO.N,VDD33A*%
X189250000Y-71805800D03*
%TO.P,U1,28,VDD12CORE*%
%TO.N,VDD12A*%
X188750001Y-71805800D03*
%TO.P,U1,29,VBUS_DET*%
%TO.N,RESET_N*%
X188249999Y-71805800D03*
%TO.P,U1,30,SUSPEND_N*%
%TO.N,Net-(D1-K)*%
X187750000Y-71805800D03*
%TO.P,U1,31,PHY_INT_N*%
%TO.N,PHY_INT_N*%
X187249999Y-71805800D03*
%TO.P,U1,32,PHY_RESET_N*%
%TO.N,PHY_RESET_N*%
X186750000Y-71805800D03*
D45*
%TO.P,U1,33,DUPLEX*%
%TO.N,VDD33A*%
X186105800Y-72450000D03*
%TO.P,U1,34,NC*%
%TO.N,unconnected-(U1-NC-Pad34)*%
X186105800Y-72949999D03*
%TO.P,U1,35,GPIO4*%
%TO.N,GPIO4*%
X186105800Y-73450000D03*
%TO.P,U1,36,PME_MODE/GPIO5*%
%TO.N,GPIO5*%
X186105800Y-73949999D03*
%TO.P,U1,37,VDD12A*%
%TO.N,VDD12A*%
X186105800Y-74450001D03*
%TO.P,U1,38,USB2_DP*%
%TO.N,/USB_SIDE/USB2_P*%
X186105800Y-74950000D03*
%TO.P,U1,39,USB2_DM*%
%TO.N,/USB_SIDE/USB2_N*%
X186105800Y-75449999D03*
%TO.P,U1,40,USB3_TXDP*%
%TO.N,/USB_SIDE/USB3_TXP*%
X186105800Y-75950000D03*
%TO.P,U1,41,USB3_TXDM*%
%TO.N,/USB_SIDE/USB3_TXN*%
X186105800Y-76450000D03*
%TO.P,U1,42,VDD12A*%
%TO.N,VDD12A*%
X186105800Y-76950001D03*
%TO.P,U1,43,USB3_RXDP*%
%TO.N,/USB_SIDE/USB3_RXP*%
X186105800Y-77450000D03*
%TO.P,U1,44,USB3_RXDM*%
%TO.N,/USB_SIDE/USB3_RXN*%
X186105800Y-77949999D03*
%TO.P,U1,45,PME_N/GPIO6*%
%TO.N,GPIO6*%
X186105800Y-78450001D03*
%TO.P,U1,46,TEST*%
%TO.N,TEST*%
X186105800Y-78950000D03*
%TO.P,U1,47,RESET_N/PME_CLEAR*%
%TO.N,RESET_N*%
X186105800Y-79450001D03*
%TO.P,U1,48,VDDVARIO*%
%TO.N,VDD33A*%
X186105800Y-79950000D03*
D44*
%TO.P,U1,49,USBRBIAS*%
%TO.N,USBRBIAS*%
X186750000Y-80594200D03*
%TO.P,U1,50,VDD33A*%
%TO.N,VDD33A*%
X187249999Y-80594200D03*
%TO.P,U1,51,VDDVARIO*%
X187750000Y-80594200D03*
%TO.P,U1,52,XI*%
%TO.N,XI*%
X188249999Y-80594200D03*
%TO.P,U1,53,XO*%
%TO.N,XO*%
X188750001Y-80594200D03*
%TO.P,U1,54,VDD12CORE*%
%TO.N,VDD12A*%
X189250000Y-80594200D03*
%TO.P,U1,55,MDIO*%
%TO.N,MDIO*%
X189749999Y-80594200D03*
%TO.P,U1,56,MDC*%
%TO.N,MDC*%
X190250000Y-80594200D03*
%TO.P,U1,57,TDI/GPIO7*%
%TO.N,GPIO7*%
X190750000Y-80594200D03*
%TO.P,U1,58,TCK/GPIO8*%
%TO.N,GPIO8*%
X191250001Y-80594200D03*
%TO.P,U1,59,TMS/GPIO9*%
%TO.N,GPIO9*%
X191750000Y-80594200D03*
%TO.P,U1,60,TDO/GPIO10*%
%TO.N,GPIO10*%
X192249999Y-80594200D03*
%TO.P,U1,61,REFCLK_25/GPIO11*%
%TO.N,REF_25CLK*%
X192750001Y-80594200D03*
%TO.P,U1,62,VDD12A*%
%TO.N,VDD12A*%
X193250000Y-80594200D03*
%TO.P,U1,63,VDD25_REG_OUT*%
%TO.N,Net-(U1-VDD25_REG_OUT)*%
X193750001Y-80594200D03*
%TO.P,U1,64,VDD33_REG_IN*%
%TO.N,VDD33A*%
X194250000Y-80594200D03*
D52*
%TO.P,U1,65,VSS*%
%TO.N,GND*%
X190500000Y-76200000D03*
%TD*%
D17*
%TO.P,R25,1*%
%TO.N,GND*%
X252412500Y-93500000D03*
%TO.P,R25,2*%
%TO.N,Net-(D5-K)*%
X250587500Y-93500000D03*
%TD*%
D28*
%TO.P,R17,1*%
%TO.N,/ETH_SIDE/BI_DA+*%
X235037195Y-74331688D03*
%TO.P,R17,2*%
%TO.N,Net-(C29-Pad1)*%
X235037195Y-72506688D03*
%TD*%
D17*
%TO.P,R27,1*%
%TO.N,VDD33A*%
X245325000Y-87500000D03*
%TO.P,R27,2*%
%TO.N,/ETH_SIDE/RX_D0_STRP*%
X243500000Y-87500000D03*
%TD*%
D28*
%TO.P,R19,1*%
%TO.N,Net-(C29-Pad1)*%
X233000000Y-71912500D03*
%TO.P,R19,2*%
%TO.N,GND*%
X233000000Y-70087500D03*
%TD*%
D53*
%TO.P,J3,1,BI_DA+*%
%TO.N,/ETH_SIDE/BI_DA+*%
X244351048Y-74819040D03*
D54*
%TO.P,J3,2,BI_DA-*%
%TO.N,/ETH_SIDE/BI_DA-*%
X244351048Y-72019040D03*
D55*
%TO.P,J3,3,GND_1*%
%TO.N,Net-(J3-GND_1)*%
X241751048Y-69619040D03*
%TO.P,J3,4,GND_2*%
X241751048Y-77219040D03*
%TO.P,J3,5,GND_3*%
X251501048Y-68969040D03*
%TO.P,J3,6,GND_4*%
X251501048Y-77869040D03*
%TD*%
D56*
%TO.N,GND*%
X223500000Y-65500000D03*
X192000000Y-76500000D03*
X192000000Y-74500000D03*
X233000000Y-63000000D03*
X189000000Y-76500000D03*
X220500000Y-76500000D03*
X189000000Y-75500000D03*
X188000000Y-74500000D03*
X180500000Y-72500000D03*
X189000000Y-73500000D03*
X214000000Y-89000000D03*
X191000000Y-76500000D03*
X218500000Y-76500000D03*
X193000000Y-73500000D03*
X189000000Y-78500000D03*
X193000000Y-75500000D03*
X163000000Y-78500000D03*
X220500000Y-74500000D03*
X194500000Y-68000000D03*
X189000000Y-77500000D03*
X193000000Y-78500000D03*
X183500000Y-85500000D03*
X200007231Y-80507232D03*
X210500000Y-58500000D03*
X191000000Y-73500000D03*
X185000000Y-85000000D03*
X189000000Y-74500000D03*
X155087500Y-87000000D03*
X167000000Y-54000000D03*
X189424407Y-84619715D03*
X188000000Y-76500000D03*
X190000000Y-78500000D03*
X190500000Y-58000000D03*
X191000000Y-77500000D03*
X192000000Y-73500000D03*
X193000000Y-74500000D03*
X188000000Y-78500000D03*
X191000000Y-74500000D03*
X216287863Y-56208422D03*
X188000000Y-73500000D03*
X233000000Y-68500000D03*
X190000000Y-74500000D03*
X163087500Y-86500000D03*
X186000000Y-85500000D03*
X185500000Y-87000000D03*
X252387335Y-87387335D03*
X163087500Y-90500000D03*
X191500000Y-91000000D03*
X190000000Y-77500000D03*
X198500000Y-57000000D03*
X192000000Y-77500000D03*
X191000000Y-75500000D03*
X184000000Y-93500000D03*
X248000000Y-62000000D03*
X188000000Y-75500000D03*
X201500000Y-73500000D03*
X165500000Y-86500000D03*
X193000000Y-77500000D03*
X192000000Y-78500000D03*
X190000000Y-73500000D03*
X193000000Y-76500000D03*
X186500000Y-64345000D03*
X201500000Y-76000000D03*
X235000000Y-67500000D03*
X190000000Y-75500000D03*
X155000000Y-85000000D03*
X165500000Y-65500000D03*
X192000000Y-75500000D03*
X227500000Y-85000000D03*
X191000000Y-78500000D03*
X163000000Y-70500000D03*
X201000000Y-97000000D03*
X198500000Y-62500000D03*
X188000000Y-77500000D03*
X198000000Y-85000000D03*
X190000000Y-76500000D03*
X220000000Y-60500000D03*
X196500000Y-83510416D03*
X176500000Y-79500000D03*
X218500000Y-74500000D03*
%TO.N,VDD33A*%
X189149999Y-68500000D03*
X183500000Y-81500000D03*
X195000000Y-69000000D03*
X187000000Y-85500000D03*
X243801827Y-98301827D03*
X174500000Y-86500000D03*
X198500000Y-73500000D03*
X199000000Y-76000000D03*
X202000000Y-89000000D03*
X182500000Y-65000000D03*
X207000000Y-53000000D03*
X192500000Y-62000000D03*
X184500000Y-72500000D03*
X186000000Y-83000000D03*
X220000000Y-92000000D03*
X167000000Y-62500000D03*
X168000000Y-65000000D03*
X245329331Y-86000000D03*
X202500000Y-79050001D03*
X232000000Y-60500000D03*
%TO.N,VDD12A*%
X189500000Y-82000000D03*
X186500000Y-67845000D03*
X184500000Y-74500000D03*
X193500000Y-83500000D03*
X184500000Y-77000000D03*
%TO.N,VDD12*%
X183500000Y-60500000D03*
%TO.N,XI*%
X186000000Y-88500000D03*
X188000000Y-83500000D03*
%TO.N,XO*%
X190500000Y-92000000D03*
X188500000Y-84500000D03*
%TO.N,/ETH_SIDE/VddioA*%
X205000000Y-65000000D03*
X215000000Y-80500000D03*
%TO.N,/ETH_SIDE/Vdd1p0A*%
X226500000Y-80000000D03*
X215000000Y-67000000D03*
%TO.N,/ETH_SIDE/Vdda3p3*%
X221674265Y-84174265D03*
X220500001Y-87500000D03*
%TO.N,Net-(D4-K)*%
X251500000Y-92000000D03*
%TO.N,/ETH_SIDE/LED_1*%
X252000000Y-98500000D03*
X218000000Y-88000000D03*
%TO.N,VBUS*%
X163000000Y-73000000D03*
X163000000Y-75000000D03*
X161500000Y-82000000D03*
%TO.N,/ETH_SIDE/LED_0_STRP_ON*%
X243500000Y-96000000D03*
%TO.N,GPIO4*%
X203000000Y-96500000D03*
X173500000Y-72500000D03*
%TO.N,GPIO5*%
X205000000Y-96000000D03*
X173500000Y-73500000D03*
%TO.N,RESET_N*%
X177500000Y-70000000D03*
X182000000Y-80000000D03*
X174500000Y-70500000D03*
X184000000Y-67000000D03*
%TO.N,TEST*%
X181500000Y-79000000D03*
%TO.N,Net-(U1-EECLK{slash}GPIO3)*%
X187500000Y-64000000D03*
X179500000Y-59000000D03*
%TO.N,RXD2*%
X208000000Y-69000000D03*
X227100000Y-90900000D03*
%TO.N,TXD3*%
X211000000Y-80500000D03*
X211000000Y-76000000D03*
%TO.N,RX_CTL*%
X227500000Y-75000000D03*
X208000000Y-71500000D03*
%TO.N,RXD1*%
X226500000Y-89000000D03*
X212000000Y-70000000D03*
%TO.N,TXD2*%
X212500000Y-79500000D03*
X212500000Y-76000000D03*
%TO.N,Net-(U1-EEDO{slash}GPIO2)*%
X189000000Y-64500000D03*
X181500000Y-54000000D03*
%TO.N,TXD1*%
X214000000Y-78500000D03*
X214000000Y-76000000D03*
%TO.N,Net-(U1-EEDI{slash}GPIO1)*%
X190000000Y-64000000D03*
X186500000Y-56500000D03*
%TO.N,RXD0*%
X226000000Y-87500000D03*
X215000000Y-70500000D03*
%TO.N,PHY_RESET_N*%
X182500000Y-69500000D03*
X206000000Y-82500000D03*
%TO.N,MDC*%
X190000000Y-86500000D03*
X217499999Y-84100000D03*
%TO.N,PHY_INT_N*%
X183500000Y-69500000D03*
X205400000Y-81000000D03*
%TO.N,REF_25CLK*%
X219500000Y-80500000D03*
X193500000Y-86000000D03*
%TO.N,/ETH_SIDE/BI_DA+*%
X235000000Y-76000000D03*
X233340910Y-78925117D03*
%TO.N,MDIO*%
X216500000Y-86000000D03*
X190000000Y-88000000D03*
D57*
%TO.N,/USB_SIDE/USB2_P*%
X160500000Y-73500000D03*
D56*
X171500000Y-73500000D03*
X164000000Y-73500000D03*
%TO.N,/USB_SIDE/USB2_N*%
X164500000Y-74000000D03*
X171234835Y-74265165D03*
%TO.N,/ETH_SIDE/LED_0_DIP*%
X214000000Y-93500000D03*
X215600000Y-82400000D03*
D57*
%TO.N,/USB_SIDE/USB3_TXN*%
X161685001Y-72150000D03*
%TO.N,/USB_SIDE/USB3_RXN*%
X162000000Y-75650000D03*
D56*
X169500000Y-78000000D03*
X166000000Y-76000000D03*
D57*
%TO.N,/USB_SIDE/USB3_RXP*%
X162500000Y-76500000D03*
%TO.N,/USB_SIDE/USB3_TXP*%
X164993200Y-71675000D03*
X164993200Y-71675000D03*
D56*
%TO.N,VDD33A*%
X197500000Y-82000000D03*
%TD*%
D58*
%TO.N,GND*%
X223000000Y-65000000D02*
X223500000Y-65500000D01*
X223000000Y-63500000D02*
X223000000Y-65000000D01*
%TO.N,/ETH_SIDE/Vdd1.0*%
X223000000Y-60350002D02*
X223000000Y-61600000D01*
X223500000Y-59850002D02*
X223000000Y-60350002D01*
%TO.N,VDD33A*%
X229500000Y-59350002D02*
X229500000Y-57500000D01*
X229000000Y-59850002D02*
X229500000Y-59350002D01*
X229000000Y-59850002D02*
X228490533Y-59850002D01*
X229500000Y-59850002D02*
X229000000Y-59850002D01*
%TO.N,GND*%
X224680000Y-58020000D02*
X224000000Y-58020000D01*
X227100000Y-55600000D02*
X224680000Y-58020000D01*
X229500000Y-55600000D02*
X227100000Y-55600000D01*
X231600000Y-55600000D02*
X232000000Y-56000000D01*
X229500000Y-55600000D02*
X231600000Y-55600000D01*
X157292500Y-88000000D02*
X155587500Y-88000000D01*
%TO.N,5V*%
X161587500Y-88000000D02*
X159192500Y-88000000D01*
X161737497Y-88149997D02*
X161587500Y-88000000D01*
%TO.N,/ETH_SIDE/Vdd1.0*%
X224000000Y-59850002D02*
X223500000Y-59850002D01*
X223500000Y-59850002D02*
X223085002Y-59850002D01*
%TO.N,GND*%
X199000000Y-84000000D02*
X198000000Y-85000000D01*
X199000000Y-83500000D02*
X199000000Y-84000000D01*
%TO.N,VDD33A*%
X198040000Y-82540000D02*
X199000000Y-82540000D01*
X197500000Y-82000000D02*
X198040000Y-82540000D01*
%TO.N,GND*%
X233000000Y-56500000D02*
X233000000Y-63000000D01*
X232000000Y-56000000D02*
X232500000Y-56000000D01*
X232500000Y-56000000D02*
X233000000Y-56500000D01*
%TO.N,VDD33A*%
X232000000Y-56960000D02*
X232000000Y-59200004D01*
%TO.N,GND*%
X163198708Y-96198708D02*
X163000000Y-96000000D01*
X165826801Y-96198708D02*
X163198708Y-96198708D01*
X163000000Y-96000000D02*
X163000000Y-98000000D01*
X163000000Y-95500000D02*
X163000000Y-96000000D01*
%TO.N,VDD33A*%
X169801292Y-96198708D02*
X171000000Y-95000000D01*
X167726801Y-96198708D02*
X169801292Y-96198708D01*
%TO.N,Net-(D2-K)*%
X166000000Y-98500000D02*
X168000000Y-98500000D01*
%TO.N,GND*%
X163500000Y-98500000D02*
X164175000Y-98500000D01*
X163000000Y-98000000D02*
X163500000Y-98500000D01*
%TO.N,VDD33A*%
X170000000Y-98500000D02*
X169575000Y-98500000D01*
X171000000Y-97500000D02*
X170000000Y-98500000D01*
%TO.N,GND*%
X197000000Y-55500000D02*
X198500000Y-57000000D01*
%TO.N,VDD12*%
X194100000Y-56500000D02*
X195100000Y-55500000D01*
X193500000Y-56500000D02*
X194100000Y-56500000D01*
%TO.N,Net-(U1-EECS{slash}GPIO0)*%
X181380000Y-63000000D02*
X182175000Y-63000000D01*
%TO.N,GND*%
X185155000Y-63000000D02*
X184000000Y-63000000D01*
X220000000Y-60000000D02*
X220000000Y-60500000D01*
X219500000Y-59500000D02*
X220000000Y-60000000D01*
X194000000Y-69335000D02*
X194000000Y-68500000D01*
X185155000Y-63000000D02*
X186500000Y-64345000D01*
X163000000Y-94000000D02*
X163000000Y-90587500D01*
X235000000Y-67500000D02*
X234996966Y-67503034D01*
X191207971Y-58707971D02*
X190500000Y-58000000D01*
X252412500Y-90000000D02*
X252412500Y-93500000D01*
X189424407Y-83819365D02*
X189424407Y-84619715D01*
X198500000Y-63000000D02*
X198500000Y-62500000D01*
X185000000Y-84020000D02*
X185000000Y-85000000D01*
X165365000Y-56540000D02*
X165325000Y-56500000D01*
X163737498Y-87649998D02*
X163087500Y-87000000D01*
X194000000Y-68500000D02*
X194500000Y-68000000D01*
X216287863Y-56208422D02*
X217453652Y-56208422D01*
X163500000Y-56000000D02*
X163500000Y-54500000D01*
X159850000Y-76700000D02*
X161110000Y-76700000D01*
X200007231Y-80507232D02*
X199999999Y-80500000D01*
X224000000Y-58020000D02*
X222180000Y-56200000D01*
X199999999Y-80500000D02*
X198020000Y-80500000D01*
X184680000Y-91000000D02*
X184500000Y-91000000D01*
X166000000Y-64320000D02*
X166000000Y-65000000D01*
X155587500Y-87500000D02*
X155087500Y-87000000D01*
X163437503Y-89149997D02*
X163087500Y-89500000D01*
X218525000Y-56360000D02*
X218500000Y-56335000D01*
X191500000Y-91000000D02*
X191820000Y-91320000D01*
X184000000Y-91500000D02*
X184000000Y-93500000D01*
X187018800Y-93286000D02*
X184214000Y-93286000D01*
X195635000Y-83504190D02*
X195641226Y-83510416D01*
X186000000Y-64845000D02*
X186500000Y-64345000D01*
X155587500Y-88000000D02*
X155587500Y-87500000D01*
X165175000Y-56500000D02*
X164000000Y-56500000D01*
X183500000Y-84475000D02*
X183500000Y-85500000D01*
X229800000Y-61800000D02*
X228490533Y-61800000D01*
X161110000Y-76700000D02*
X161160000Y-76650000D01*
X233000000Y-68500000D02*
X233000000Y-70087500D01*
X231000000Y-63000000D02*
X229800000Y-61800000D01*
X219500000Y-59480000D02*
X217500000Y-59480000D01*
X161650000Y-76650000D02*
X162500000Y-77500000D01*
X161110000Y-71100000D02*
X161160000Y-71150000D01*
X217512926Y-56175000D02*
X217500000Y-56162074D01*
X184500000Y-91000000D02*
X184000000Y-91500000D01*
X219500000Y-56200000D02*
X218525000Y-56200000D01*
X235000000Y-67500000D02*
X235000000Y-69000000D01*
X162500000Y-77500000D02*
X163000000Y-78000000D01*
X187500000Y-67345000D02*
X187000000Y-66845000D01*
X155087500Y-89500000D02*
X155087500Y-88500000D01*
X164137499Y-89149997D02*
X163437503Y-89149997D01*
X163087500Y-87000000D02*
X163087500Y-86500000D01*
X158000000Y-86000000D02*
X156500000Y-86000000D01*
X164000000Y-56500000D02*
X163500000Y-56000000D01*
X158500000Y-85500000D02*
X158000000Y-86000000D01*
X166000000Y-65000000D02*
X165500000Y-65500000D01*
X155500000Y-85000000D02*
X155000000Y-85000000D01*
X186335000Y-87000000D02*
X185500000Y-87000000D01*
X187000000Y-66845000D02*
X187000000Y-64845000D01*
X155087500Y-88500000D02*
X155587500Y-88000000D01*
X252387335Y-87387335D02*
X252412500Y-87412500D01*
X163000000Y-90587500D02*
X163087500Y-90500000D01*
X155587500Y-90000000D02*
X155087500Y-89500000D01*
X191820000Y-91320000D02*
X191820000Y-93500000D01*
X159850000Y-71100000D02*
X161110000Y-71100000D01*
X201000000Y-97000000D02*
X201000000Y-99000000D01*
X158500000Y-84825000D02*
X158500000Y-85500000D01*
X197665000Y-79500000D02*
X198020000Y-79855000D01*
X252412500Y-87412500D02*
X252412500Y-90000000D01*
X163000000Y-94000000D02*
X163000000Y-95500000D01*
X196500000Y-83510416D02*
X195641226Y-83510416D01*
X195635000Y-82500000D02*
X195635000Y-83504190D01*
X186000000Y-65680000D02*
X186000000Y-64845000D01*
X156500000Y-86000000D02*
X155500000Y-85000000D01*
X217453652Y-56208422D02*
X217500000Y-56162074D01*
X191768206Y-58707971D02*
X191207971Y-58707971D01*
X156000000Y-84500000D02*
X155500000Y-85000000D01*
X198020000Y-79855000D02*
X198020000Y-80500000D01*
X227500000Y-83325000D02*
X227500000Y-85000000D01*
X161160000Y-71150000D02*
X162350000Y-71150000D01*
X164000000Y-54000000D02*
X167000000Y-54000000D01*
X163500000Y-54500000D02*
X164000000Y-54000000D01*
X156000000Y-84165000D02*
X156000000Y-84500000D01*
X188025000Y-67345000D02*
X187500000Y-67345000D01*
X186000000Y-84665000D02*
X186000000Y-85500000D01*
X163000000Y-78000000D02*
X163000000Y-78500000D01*
X233000000Y-63000000D02*
X231000000Y-63000000D01*
X161160000Y-76650000D02*
X161650000Y-76650000D01*
X162350000Y-71150000D02*
X163000000Y-70500000D01*
X198000000Y-63500000D02*
X198500000Y-63000000D01*
X190500000Y-59000000D02*
X190500000Y-59835000D01*
X190500000Y-58000000D02*
X190500000Y-59000000D01*
X164137499Y-87649998D02*
X163737498Y-87649998D01*
X187000000Y-64845000D02*
X186500000Y-64345000D01*
X169380000Y-54000000D02*
X167000000Y-54000000D01*
X156112500Y-90000000D02*
X155587500Y-90000000D01*
X196825000Y-63500000D02*
X198000000Y-63500000D01*
X189500000Y-84544122D02*
X189424407Y-84619715D01*
X222180000Y-56200000D02*
X219500000Y-56200000D01*
X189000000Y-91000000D02*
X191500000Y-91000000D01*
X218500000Y-56175000D02*
X217512926Y-56175000D01*
X163087500Y-89500000D02*
X163087500Y-90500000D01*
X184214000Y-93286000D02*
X184000000Y-93500000D01*
X218525000Y-56200000D02*
X218500000Y-56175000D01*
%TO.N,VDD33A*%
X192249999Y-71805800D02*
X192249999Y-62404999D01*
X174000000Y-86500000D02*
X174500000Y-86500000D01*
X173500000Y-87000000D02*
X174000000Y-86500000D01*
X184550000Y-72450000D02*
X184500000Y-72500000D01*
X169675000Y-65000000D02*
X168000000Y-65000000D01*
X245325000Y-87825000D02*
X245412500Y-87912500D01*
X245412500Y-90000000D02*
X245412500Y-92500000D01*
X186975000Y-87000000D02*
X186975000Y-85525000D01*
X194000000Y-69975000D02*
X194199999Y-69975000D01*
X166512501Y-88649999D02*
X166862502Y-89000000D01*
X171825000Y-86500000D02*
X173000000Y-86500000D01*
X191768206Y-61268206D02*
X192500000Y-62000000D01*
X195545800Y-81890000D02*
X194250000Y-80594200D01*
X171000000Y-93500000D02*
X170500000Y-94000000D01*
X189250000Y-68600001D02*
X189250000Y-71805800D01*
X166862502Y-89000000D02*
X168500000Y-89000000D01*
X232000000Y-60500000D02*
X231350002Y-59850002D01*
X171000000Y-95000000D02*
X171000000Y-93500000D01*
X245329331Y-86000000D02*
X245329331Y-86170669D01*
X197390000Y-81890000D02*
X195545800Y-81890000D01*
X189149999Y-68500000D02*
X189149999Y-67829999D01*
X245412500Y-87912500D02*
X245412500Y-90000000D01*
X185050000Y-79950000D02*
X183500000Y-81500000D01*
X198049999Y-76950001D02*
X194894200Y-76950001D01*
X244500000Y-99000000D02*
X245087500Y-99000000D01*
X245325000Y-87500000D02*
X245325000Y-87825000D01*
X189149999Y-68500000D02*
X189250000Y-68600001D01*
X192249999Y-62404999D02*
X191500000Y-61655000D01*
X172850000Y-91150000D02*
X171000000Y-91150000D01*
X186105800Y-72450000D02*
X184550000Y-72450000D01*
X187249999Y-81750001D02*
X186000000Y-83000000D01*
X189149999Y-67829999D02*
X188665000Y-67345000D01*
X187750000Y-82750000D02*
X187000000Y-83500000D01*
X199000000Y-76000000D02*
X198049999Y-76950001D01*
X193750001Y-70224999D02*
X194000000Y-69975000D01*
X230000000Y-59850002D02*
X229500000Y-59850002D01*
X192500000Y-62154998D02*
X192500000Y-62000000D01*
X190500000Y-61000000D02*
X190500000Y-60475000D01*
X194954200Y-78890000D02*
X194894200Y-78950000D01*
X197050000Y-74950000D02*
X194894200Y-74950000D01*
X199000000Y-79520000D02*
X198370000Y-78890000D01*
X245329331Y-86170669D02*
X245325000Y-86175000D01*
X202500000Y-79050001D02*
X202469999Y-79020000D01*
X231349998Y-61150002D02*
X228490533Y-61150002D01*
X166000000Y-63680000D02*
X166000000Y-63500000D01*
X187249999Y-80594200D02*
X187249999Y-81750001D01*
X173500000Y-87000000D02*
X173500000Y-90500000D01*
X194199999Y-69975000D02*
X195000000Y-69174999D01*
X232000000Y-60500000D02*
X231349998Y-61150002D01*
X195000000Y-69174999D02*
X195000000Y-69000000D01*
X173000000Y-86500000D02*
X173500000Y-87000000D01*
X193750001Y-71805800D02*
X193750001Y-70224999D01*
X191768206Y-60257971D02*
X191768206Y-61268206D01*
X169000000Y-91000000D02*
X169150000Y-91150000D01*
X231350002Y-59850002D02*
X230500000Y-59850002D01*
X186000000Y-83000000D02*
X186000000Y-84025000D01*
X166000000Y-63500000D02*
X167000000Y-62500000D01*
X168500000Y-89000000D02*
X169000000Y-89500000D01*
X171000000Y-91150000D02*
X171000000Y-93500000D01*
X166037501Y-88649999D02*
X166512501Y-88649999D01*
X198370000Y-78890000D02*
X194954200Y-78890000D01*
X245325000Y-86175000D02*
X245325000Y-87500000D01*
X198500000Y-73500000D02*
X197050000Y-74950000D01*
X202030001Y-79520000D02*
X199000000Y-79520000D01*
X169000000Y-89500000D02*
X169000000Y-91000000D01*
X192249999Y-62404999D02*
X192500000Y-62154998D01*
X232000000Y-59200004D02*
X231350002Y-59850002D01*
X243801827Y-98301827D02*
X244500000Y-99000000D01*
X186975000Y-85525000D02*
X187000000Y-85500000D01*
X230500000Y-59850002D02*
X230000000Y-59850002D01*
X173500000Y-90500000D02*
X172850000Y-91150000D01*
X192249999Y-62404999D02*
X190845000Y-61000000D01*
X202500000Y-79050001D02*
X202030001Y-79520000D01*
X171000000Y-97500000D02*
X171000000Y-95000000D01*
X197500000Y-82000000D02*
X197390000Y-81890000D01*
X183500000Y-81500000D02*
X183500000Y-83835000D01*
X170500000Y-94000000D02*
X169325000Y-94000000D01*
X186105800Y-79950000D02*
X185050000Y-79950000D01*
X190845000Y-61000000D02*
X190500000Y-61000000D01*
X167000000Y-62500000D02*
X167880000Y-61620000D01*
X169150000Y-91150000D02*
X171000000Y-91150000D01*
X188665000Y-67345000D02*
X188665000Y-67510000D01*
X167880000Y-61620000D02*
X169380000Y-61620000D01*
X187000000Y-83500000D02*
X187000000Y-85500000D01*
X187750000Y-80594200D02*
X187750000Y-82750000D01*
%TO.N,VDD12A*%
X184549999Y-76950001D02*
X184500000Y-77000000D01*
X189500000Y-82783772D02*
X189424407Y-82859365D01*
X186500000Y-67845000D02*
X186500000Y-66820000D01*
X193500000Y-83500000D02*
X194670810Y-83500000D01*
X187345000Y-67845000D02*
X186500000Y-67845000D01*
X186500000Y-66820000D02*
X186000000Y-66320000D01*
X193250000Y-80594200D02*
X193250000Y-83250000D01*
X184549999Y-74450001D02*
X184500000Y-74500000D01*
X194670810Y-83500000D02*
X194681226Y-83510416D01*
X188750001Y-69250001D02*
X187345000Y-67845000D01*
X188750001Y-71805800D02*
X188750001Y-69250001D01*
X186105800Y-74450001D02*
X184549999Y-74450001D01*
X186105800Y-76950001D02*
X184549999Y-76950001D01*
X189500000Y-82000000D02*
X189500000Y-82783772D01*
X189250000Y-80594200D02*
X189250000Y-81750000D01*
X193250000Y-83250000D02*
X193500000Y-83500000D01*
X189250000Y-81750000D02*
X189500000Y-82000000D01*
%TO.N,Net-(U1-VDD25_REG_OUT)*%
X193750001Y-81930001D02*
X194320000Y-82500000D01*
X194320000Y-82500000D02*
X194835000Y-82500000D01*
X193750001Y-80594200D02*
X193750001Y-81930001D01*
%TO.N,VDD12*%
X191750000Y-71805800D02*
X191750000Y-63250000D01*
X188500000Y-56500000D02*
X184500000Y-60500000D01*
X191750000Y-63250000D02*
X189500000Y-61000000D01*
X190500000Y-56500000D02*
X193500000Y-56500000D01*
X190500000Y-56500000D02*
X188500000Y-56500000D01*
X184500000Y-60500000D02*
X183500000Y-60500000D01*
X194500000Y-58000000D02*
X194500000Y-57500000D01*
X194500000Y-57500000D02*
X193500000Y-56500000D01*
X189500000Y-57500000D02*
X190500000Y-56500000D01*
X189500000Y-61000000D02*
X189500000Y-57500000D01*
%TO.N,5V*%
X161737497Y-88149997D02*
X164137499Y-88149997D01*
X161087500Y-87500000D02*
X161737497Y-88149997D01*
X161737497Y-88149997D02*
X161737497Y-89850003D01*
X161587500Y-90000000D02*
X160500000Y-90000000D01*
X161087500Y-86500000D02*
X161087500Y-87500000D01*
X161737497Y-89850003D02*
X161587500Y-90000000D01*
%TO.N,Net-(U2-EN)*%
X161000000Y-91500000D02*
X158000000Y-91500000D01*
X157500000Y-91000000D02*
X157500000Y-90000000D01*
X163600002Y-88649999D02*
X163500000Y-88549997D01*
X158675000Y-90000000D02*
X157500000Y-90000000D01*
X157500000Y-90000000D02*
X156752500Y-90000000D01*
X164137499Y-88649999D02*
X163600002Y-88649999D01*
X158000000Y-91500000D02*
X157500000Y-91000000D01*
X162137497Y-90362503D02*
X161000000Y-91500000D01*
X162137497Y-89412500D02*
X162137497Y-90362503D01*
X163500000Y-88549997D02*
X163000000Y-88549997D01*
X163000000Y-88549997D02*
X162137497Y-89412500D01*
%TO.N,Net-(U1-REF_FILT)*%
X196975001Y-79450001D02*
X197025000Y-79500000D01*
X194894200Y-79450001D02*
X196975001Y-79450001D01*
%TO.N,XI*%
X185320000Y-91000000D02*
X186000000Y-91000000D01*
X188249999Y-80594200D02*
X188249999Y-83250001D01*
X188249999Y-83250001D02*
X188000000Y-83500000D01*
X186000000Y-91000000D02*
X187018800Y-91000000D01*
X186000000Y-91000000D02*
X186000000Y-88500000D01*
%TO.N,USB_SHIELD*%
X155230000Y-78230000D02*
X158500000Y-81500000D01*
X154500000Y-78230000D02*
X155230000Y-78230000D01*
X156500000Y-81500000D02*
X156000000Y-82000000D01*
X156500000Y-81500000D02*
X158500000Y-81500000D01*
X156000000Y-82000000D02*
X156000000Y-83525000D01*
X158500000Y-81500000D02*
X158500000Y-83000000D01*
%TO.N,XO*%
X188750001Y-80594200D02*
X188750001Y-84249999D01*
X190500000Y-92820000D02*
X191180000Y-93500000D01*
X188750001Y-84249999D02*
X188500000Y-84500000D01*
X190500000Y-92000000D02*
X190500000Y-92820000D01*
X190966000Y-93286000D02*
X191180000Y-93500000D01*
X189000000Y-93286000D02*
X190966000Y-93286000D01*
%TO.N,Net-(C29-Pad1)*%
X234996966Y-72466459D02*
X235037195Y-72506688D01*
X234996966Y-70980000D02*
X234996966Y-72466459D01*
X234080812Y-72506688D02*
X233000000Y-73587500D01*
X233000000Y-73587500D02*
X233000000Y-71912500D01*
X235037195Y-72506688D02*
X234080812Y-72506688D01*
%TO.N,/ETH_SIDE/Vdd1.0*%
X225509467Y-59850002D02*
X225030002Y-59850002D01*
X225509467Y-59850002D02*
X224829998Y-59850002D01*
X225509467Y-59850002D02*
X224000000Y-59850002D01*
X225030002Y-59850002D02*
X224000000Y-58820000D01*
X223085002Y-59850002D02*
X222235000Y-59000000D01*
X222235000Y-59000000D02*
X222235000Y-58000000D01*
%TO.N,/ETH_SIDE/VddioA*%
X215920199Y-76500001D02*
X215000000Y-77420200D01*
X219999999Y-71000001D02*
X219999999Y-72553600D01*
X216553600Y-76500001D02*
X215920199Y-76500001D01*
X208500000Y-65000000D02*
X211100000Y-67600000D01*
X211100000Y-67600000D02*
X217100000Y-67600000D01*
X217100000Y-67600000D02*
X220000000Y-70500000D01*
X205000000Y-65000000D02*
X208500000Y-65000000D01*
X220000000Y-70500000D02*
X220000000Y-71000000D01*
X215000000Y-78500000D02*
X215000000Y-80500000D01*
X215000000Y-77420200D02*
X215000000Y-78500000D01*
X220000000Y-71000000D02*
X219999999Y-71000001D01*
%TO.N,/ETH_SIDE/Vdd1p0A*%
X221000000Y-70348529D02*
X221000000Y-67500000D01*
X215000000Y-67000000D02*
X215000000Y-59000000D01*
X226500000Y-80000000D02*
X224946400Y-78446400D01*
X215000000Y-59000000D02*
X216877926Y-57122074D01*
X220245000Y-58520000D02*
X220765000Y-58000000D01*
X219500000Y-57160000D02*
X218525000Y-57160000D01*
X218525000Y-57160000D02*
X218500000Y-57135000D01*
X216960001Y-58520000D02*
X217500000Y-58520000D01*
X220765000Y-57765000D02*
X220160000Y-57160000D01*
X220160000Y-57160000D02*
X219500000Y-57160000D01*
X220500001Y-72553600D02*
X220500001Y-70848528D01*
X217512926Y-57135000D02*
X217500000Y-57122074D01*
X215500000Y-62000000D02*
X215500000Y-59980001D01*
X220765000Y-58000000D02*
X220765000Y-57765000D01*
X216877926Y-57122074D02*
X217500000Y-57122074D01*
X220500001Y-70848528D02*
X221000000Y-70348529D01*
X218500000Y-57135000D02*
X217512926Y-57135000D01*
X219500000Y-58520000D02*
X220245000Y-58520000D01*
X215500000Y-59980001D02*
X216960001Y-58520000D01*
X224946400Y-78446400D02*
X221500001Y-78446400D01*
X221000000Y-67500000D02*
X215500000Y-62000000D01*
X217500000Y-58520000D02*
X219500000Y-58520000D01*
%TO.N,/ETH_SIDE/Vdda3p3*%
X231000000Y-82500000D02*
X231000000Y-80500000D01*
X224400000Y-86900000D02*
X226600000Y-86900000D01*
X220500001Y-87500000D02*
X220500001Y-87500001D01*
X231000000Y-80500000D02*
X230000000Y-79500000D01*
X227565686Y-79500000D02*
X225065686Y-77000000D01*
X220500001Y-78446400D02*
X221000000Y-78446400D01*
X226600000Y-86900000D02*
X231000000Y-82500000D01*
X221674265Y-84174265D02*
X224400000Y-86900000D01*
X220500001Y-78446400D02*
X220500001Y-87500000D01*
X225065686Y-77000000D02*
X222446400Y-77000000D01*
X230000000Y-79500000D02*
X227565686Y-79500000D01*
%TO.N,Net-(D1-A)*%
X173425000Y-65000000D02*
X171500000Y-65000000D01*
%TO.N,Net-(D1-K)*%
X178000000Y-66500000D02*
X182000000Y-66500000D01*
X184500000Y-69000000D02*
X182000000Y-66500000D01*
X176500000Y-65000000D02*
X178000000Y-66500000D01*
X186500000Y-69000000D02*
X184500000Y-69000000D01*
X187750000Y-71805800D02*
X187750000Y-70250000D01*
X175000000Y-65000000D02*
X176500000Y-65000000D01*
X187750000Y-70250000D02*
X186500000Y-69000000D01*
%TO.N,Net-(D3-A)*%
X248500000Y-99000000D02*
X249275000Y-98225000D01*
X246912500Y-99000000D02*
X248500000Y-99000000D01*
X249275000Y-96937500D02*
X250500000Y-95712500D01*
X249275000Y-98225000D02*
X249275000Y-96937500D01*
%TO.N,Net-(D4-K)*%
X251500000Y-94712500D02*
X251500000Y-92000000D01*
X252500000Y-95712500D02*
X251500000Y-94712500D01*
%TO.N,/ETH_SIDE/LED_1*%
X219999999Y-80151470D02*
X219999999Y-78446400D01*
X252500000Y-97287500D02*
X252500000Y-98000000D01*
X218000000Y-88000000D02*
X220100000Y-85900000D01*
X220100000Y-80251471D02*
X219999999Y-80151470D01*
X220100000Y-85900000D02*
X220100000Y-80251471D01*
X252500000Y-98000000D02*
X252000000Y-98500000D01*
X252362499Y-97425001D02*
X252500000Y-97562502D01*
%TO.N,Net-(D5-K)*%
X250587500Y-93500000D02*
X250587500Y-93625000D01*
X250587500Y-93625000D02*
X248500000Y-95712500D01*
%TO.N,VBUS*%
X159850000Y-75100000D02*
X159900000Y-75150000D01*
X161087500Y-82412500D02*
X161500000Y-82000000D01*
X161160000Y-75150000D02*
X162850000Y-75150000D01*
X159900000Y-75150000D02*
X161160000Y-75150000D01*
X162650000Y-72650000D02*
X163000000Y-73000000D01*
X159850000Y-72700000D02*
X159900000Y-72650000D01*
X159900000Y-72650000D02*
X161160000Y-72650000D01*
X162850000Y-75150000D02*
X163000000Y-75000000D01*
X161160000Y-72650000D02*
X162650000Y-72650000D01*
X161087500Y-85030000D02*
X161087500Y-82412500D01*
%TO.N,/ETH_SIDE/LED_0_STRP_ON*%
X250500000Y-99000000D02*
X250500000Y-97287500D01*
X249500000Y-100000000D02*
X250500000Y-99000000D01*
X242225300Y-100000000D02*
X239805300Y-97580000D01*
X241920000Y-97580000D02*
X239805300Y-97580000D01*
X243500000Y-96000000D02*
X241920000Y-97580000D01*
X249500000Y-100000000D02*
X242225300Y-100000000D01*
%TO.N,/ETH_SIDE/LED_0_STRP_OFF*%
X249500000Y-93000000D02*
X249500000Y-91500000D01*
X245540000Y-95040000D02*
X246500000Y-96000000D01*
X246500000Y-96000000D02*
X249500000Y-93000000D01*
X249500000Y-91500000D02*
X250587500Y-90412500D01*
X247787500Y-97287500D02*
X248500000Y-97287500D01*
X239805300Y-95040000D02*
X245540000Y-95040000D01*
X250587500Y-90412500D02*
X250587500Y-90000000D01*
X246500000Y-96000000D02*
X247787500Y-97287500D01*
%TO.N,GPIO4*%
X174298529Y-73450000D02*
X173500000Y-72500000D01*
X173500000Y-72500000D02*
X173424264Y-72575736D01*
X203000000Y-97000000D02*
X203000000Y-96500000D01*
X203000000Y-99000000D02*
X203000000Y-97000000D01*
X186105800Y-73450000D02*
X174298529Y-73450000D01*
%TO.N,GPIO7*%
X209000000Y-94000000D02*
X209000000Y-99000000D01*
X190750000Y-80594200D02*
X190750000Y-81270099D01*
X191000000Y-89000000D02*
X195000000Y-93000000D01*
X191000000Y-81520099D02*
X191000000Y-89000000D01*
X195000000Y-93000000D02*
X208000000Y-93000000D01*
X190750000Y-81270099D02*
X191000000Y-81520099D01*
X208000000Y-93000000D02*
X209000000Y-94000000D01*
%TO.N,GPIO10*%
X215000000Y-97025000D02*
X215000000Y-99000000D01*
X209775000Y-91800000D02*
X215000000Y-97025000D01*
X192249999Y-80594200D02*
X192249999Y-88552941D01*
X195497058Y-91800000D02*
X209775000Y-91800000D01*
X192249999Y-88552941D02*
X195497058Y-91800000D01*
%TO.N,GPIO8*%
X208600000Y-92600000D02*
X211000000Y-95000000D01*
X191400000Y-88834314D02*
X195165686Y-92600000D01*
X191250001Y-80594200D02*
X191250001Y-81204414D01*
X211000000Y-95000000D02*
X211000000Y-99000000D01*
X191400000Y-81354413D02*
X191400000Y-88834314D01*
X195165686Y-92600000D02*
X208600000Y-92600000D01*
X191250001Y-81204414D02*
X191400000Y-81354413D01*
%TO.N,GPIO9*%
X208765686Y-92200000D02*
X213000000Y-96434314D01*
X191800000Y-80644200D02*
X191800000Y-88668628D01*
X191750000Y-80594200D02*
X191800000Y-80644200D01*
X195331372Y-92200000D02*
X208765686Y-92200000D01*
X213000000Y-96434314D02*
X213000000Y-99000000D01*
X191800000Y-88668628D02*
X195331372Y-92200000D01*
%TO.N,GPIO6*%
X183000000Y-95000000D02*
X206500000Y-95000000D01*
X186105800Y-78450001D02*
X181798530Y-78450001D01*
X178500000Y-90500000D02*
X183000000Y-95000000D01*
X207000000Y-95500000D02*
X207000000Y-99000000D01*
X180600000Y-78400000D02*
X178500000Y-80500000D01*
X181798530Y-78450001D02*
X181748529Y-78400000D01*
X178500000Y-80500000D02*
X178500000Y-90500000D01*
X206500000Y-95000000D02*
X207000000Y-95500000D01*
X181748529Y-78400000D02*
X180600000Y-78400000D01*
%TO.N,GPIO5*%
X205000000Y-96000000D02*
X205000000Y-99000000D01*
X174000000Y-73900000D02*
X173900000Y-73900000D01*
X186055801Y-73900000D02*
X174000000Y-73900000D01*
X186105800Y-73949999D02*
X186055801Y-73900000D01*
X173900000Y-73900000D02*
X173500000Y-73500000D01*
%TO.N,/ETH_SIDE/RX_D0_STRP*%
X243500000Y-87500000D02*
X239885300Y-87500000D01*
X239885300Y-87500000D02*
X239805300Y-87420000D01*
%TO.N,/ETH_SIDE/RX_D1_STRP*%
X239845300Y-90000000D02*
X239805300Y-89960000D01*
X243587500Y-90000000D02*
X239845300Y-90000000D01*
%TO.N,/ETH_SIDE/RX_D2_STRP*%
X243587500Y-92500000D02*
X239805300Y-92500000D01*
%TO.N,VDD12_SW_OUT*%
X192750001Y-63249999D02*
X194500000Y-61500000D01*
X192750001Y-71805800D02*
X192750001Y-63249999D01*
X194500000Y-61500000D02*
X194500000Y-60350000D01*
%TO.N,Net-(U2-SW)*%
X166037501Y-88149997D02*
X170149997Y-88149997D01*
X170149997Y-88149997D02*
X171000000Y-89000000D01*
%TO.N,Net-(U1-CLK125)*%
X193250000Y-64250000D02*
X194000000Y-63500000D01*
X193250000Y-71805800D02*
X193250000Y-64250000D01*
X194000000Y-63500000D02*
X195000000Y-63500000D01*
%TO.N,Net-(U1-EECS{slash}GPIO0)*%
X180000000Y-61620000D02*
X177000000Y-61620000D01*
X191250001Y-71805800D02*
X191250001Y-64250001D01*
X180000000Y-61620000D02*
X181380000Y-63000000D01*
X190000000Y-63000000D02*
X186000000Y-63000000D01*
X186000000Y-63000000D02*
X184620000Y-61620000D01*
X184620000Y-61620000D02*
X180000000Y-61620000D01*
X191250001Y-64250001D02*
X190000000Y-63000000D01*
%TO.N,USBRBIAS*%
X185500000Y-82000000D02*
X185000000Y-82500000D01*
X186750000Y-81250000D02*
X186000000Y-82000000D01*
X186750000Y-80594200D02*
X186750000Y-81250000D01*
X185000000Y-82500000D02*
X185000000Y-83000000D01*
X186000000Y-82000000D02*
X185500000Y-82000000D01*
%TO.N,RESET_N*%
X188249999Y-69749999D02*
X188249999Y-71805800D01*
X186105800Y-79450001D02*
X182549999Y-79450001D01*
X182549999Y-79450001D02*
X182000000Y-80000000D01*
X184000000Y-67000000D02*
X185500000Y-68500000D01*
X175000000Y-70000000D02*
X174500000Y-70500000D01*
X174500000Y-70500000D02*
X174600000Y-70400000D01*
X187000000Y-68500000D02*
X188249999Y-69749999D01*
X177500000Y-70000000D02*
X175000000Y-70000000D01*
X185500000Y-68500000D02*
X187000000Y-68500000D01*
%TO.N,Net-(U1-REF_REXT)*%
X195450000Y-79950000D02*
X196000000Y-80500000D01*
X194894200Y-79950000D02*
X195450000Y-79950000D01*
X196000000Y-80500000D02*
X197000000Y-80500000D01*
%TO.N,Net-(U2-PG)*%
X166850002Y-87649998D02*
X168000000Y-86500000D01*
X168000000Y-86500000D02*
X170000000Y-86500000D01*
X166037501Y-87649998D02*
X166850002Y-87649998D01*
%TO.N,TEST*%
X181550000Y-78950000D02*
X181500000Y-79000000D01*
X186105800Y-78950000D02*
X181550000Y-78950000D01*
%TO.N,Net-(U2-FB)*%
X166500000Y-93500000D02*
X166000000Y-94000000D01*
X166000000Y-94000000D02*
X167500000Y-94000000D01*
X166149997Y-89149997D02*
X166500000Y-89500000D01*
X166037501Y-89149997D02*
X166149997Y-89149997D01*
X166000000Y-94000000D02*
X164825000Y-94000000D01*
X166500000Y-89500000D02*
X166500000Y-93500000D01*
%TO.N,Net-(U3-ORG)*%
X169340000Y-56500000D02*
X169380000Y-56540000D01*
X167000000Y-56500000D02*
X169340000Y-56500000D01*
%TO.N,Net-(R16-Pad1)*%
X222446400Y-77500001D02*
X225000001Y-77500001D01*
X225000001Y-77500001D02*
X227500000Y-80000000D01*
X227500000Y-80000000D02*
X227500000Y-81500000D01*
%TO.N,Net-(U1-EECLK{slash}GPIO3)*%
X189749999Y-70249999D02*
X189749999Y-66249999D01*
X179500000Y-59000000D02*
X179420000Y-59080000D01*
X179420000Y-59080000D02*
X177000000Y-59080000D01*
X189749999Y-71805800D02*
X189749999Y-70249999D01*
X189749999Y-66249999D02*
X187500000Y-64000000D01*
%TO.N,RXD2*%
X199500000Y-69000000D02*
X208000000Y-69000000D01*
X212500000Y-68500000D02*
X216500000Y-68500000D01*
X219000001Y-71000001D02*
X219000001Y-72553600D01*
X227100000Y-90900000D02*
X228700000Y-92500000D01*
X228700000Y-92500000D02*
X231194700Y-92500000D01*
X212000000Y-69000000D02*
X212500000Y-68500000D01*
X196050000Y-72450000D02*
X199500000Y-69000000D01*
X194894200Y-72450000D02*
X196050000Y-72450000D01*
X208000000Y-69000000D02*
X212000000Y-69000000D01*
X216500000Y-68500000D02*
X219000001Y-71000001D01*
%TO.N,RXC*%
X198548528Y-72548528D02*
X201451472Y-72548528D01*
X201467158Y-72532842D02*
X204532842Y-72532842D01*
X194944201Y-74400000D02*
X196697056Y-74400000D01*
X204553600Y-72553600D02*
X204532842Y-72532842D01*
X196697056Y-74400000D02*
X198548528Y-72548528D01*
X201451472Y-72548528D02*
X201467158Y-72532842D01*
X194894200Y-74450001D02*
X194944201Y-74400000D01*
X217499999Y-72553600D02*
X204553600Y-72553600D01*
%TO.N,TXD3*%
X198701470Y-78450001D02*
X198751471Y-78400000D01*
X207000000Y-80000000D02*
X205450001Y-78450001D01*
X194894200Y-78450001D02*
X198701470Y-78450001D01*
X199298530Y-78450001D02*
X205450001Y-78450001D01*
X211000000Y-76000000D02*
X212500001Y-74499999D01*
X210500000Y-80000000D02*
X207000000Y-80000000D01*
X198751471Y-78400000D02*
X199248529Y-78400000D01*
X199248529Y-78400000D02*
X199298530Y-78450001D01*
X211000000Y-80500000D02*
X210500000Y-80000000D01*
X212500001Y-74499999D02*
X216553600Y-74499999D01*
%TO.N,RX_CTL*%
X207367158Y-72132842D02*
X208000000Y-71500000D01*
X196581371Y-73949999D02*
X198398528Y-72132842D01*
X227499999Y-75000001D02*
X222446400Y-75000001D01*
X227500000Y-75000000D02*
X227499999Y-75000001D01*
X198398528Y-72132842D02*
X207367158Y-72132842D01*
X194894200Y-73949999D02*
X196581371Y-73949999D01*
%TO.N,TXC*%
X205000000Y-74500000D02*
X206000001Y-73499999D01*
X194894200Y-75449999D02*
X197550001Y-75449999D01*
X198500000Y-74500000D02*
X205000000Y-74500000D01*
X206000001Y-73499999D02*
X216553600Y-73499999D01*
X197550001Y-75449999D02*
X198500000Y-74500000D01*
%TO.N,TXD0*%
X215420202Y-75999999D02*
X216553600Y-75999999D01*
X194944200Y-76400000D02*
X197731372Y-76400000D01*
X208300000Y-75300000D02*
X210000000Y-77000000D01*
X194894200Y-76450000D02*
X194944200Y-76400000D01*
X210000000Y-77000000D02*
X214420201Y-77000000D01*
X198831372Y-75300000D02*
X208300000Y-75300000D01*
X214420201Y-77000000D02*
X215420202Y-75999999D01*
X197731372Y-76400000D02*
X198831372Y-75300000D01*
%TO.N,RXD1*%
X212000000Y-70000000D02*
X213000000Y-69000000D01*
X199399998Y-70000000D02*
X196449999Y-72949999D01*
X226500000Y-89000000D02*
X227460000Y-89960000D01*
X216434314Y-69000000D02*
X218499999Y-71065685D01*
X196449999Y-72949999D02*
X194894200Y-72949999D01*
X212000000Y-70000000D02*
X199399998Y-70000000D01*
X227460000Y-89960000D02*
X231194700Y-89960000D01*
X213000000Y-69000000D02*
X216434314Y-69000000D01*
X218499999Y-71065685D02*
X218499999Y-72553600D01*
%TO.N,TXD2*%
X194894200Y-77949999D02*
X210449999Y-77949999D01*
X212500000Y-76000000D02*
X213499999Y-75000001D01*
X210449999Y-77949999D02*
X212000000Y-79500000D01*
X212000000Y-79500000D02*
X212500000Y-79500000D01*
X213499999Y-75000001D02*
X216553600Y-75000001D01*
%TO.N,Net-(U1-EEDO{slash}GPIO2)*%
X190250000Y-65750000D02*
X190250000Y-71805800D01*
X181500000Y-54000000D02*
X177000000Y-54000000D01*
X189000000Y-64500000D02*
X190250000Y-65750000D01*
%TO.N,TXD1*%
X213500000Y-78500000D02*
X212450000Y-77450000D01*
X216553600Y-75500000D02*
X214500000Y-75500000D01*
X212450000Y-77450000D02*
X194894200Y-77450000D01*
X214000000Y-78500000D02*
X213500000Y-78500000D01*
X214500000Y-75500000D02*
X214000000Y-76000000D01*
%TO.N,RXD3*%
X194250000Y-71750000D02*
X198000000Y-68000000D01*
X219500000Y-70934314D02*
X219500000Y-72553600D01*
X216565686Y-68000000D02*
X219500000Y-70934314D01*
X198000000Y-68000000D02*
X216565686Y-68000000D01*
X194250000Y-71805800D02*
X194250000Y-71750000D01*
%TO.N,TX_CTL*%
X197615686Y-75950000D02*
X198665686Y-74900000D01*
X194894200Y-75950000D02*
X197615686Y-75950000D01*
X206065686Y-74000000D02*
X216553600Y-74000000D01*
X205165686Y-74900000D02*
X206065686Y-74000000D01*
X198665686Y-74900000D02*
X205165686Y-74900000D01*
%TO.N,Net-(U1-EEDI{slash}GPIO1)*%
X190750000Y-64750000D02*
X190000000Y-64000000D01*
X186500000Y-56500000D02*
X186460000Y-56540000D01*
X190750000Y-71805800D02*
X190750000Y-64750000D01*
X186460000Y-56540000D02*
X177000000Y-56540000D01*
%TO.N,RXD0*%
X227080000Y-87420000D02*
X231194700Y-87420000D01*
X217368628Y-70500000D02*
X218000000Y-71131372D01*
X227000000Y-87500000D02*
X227080000Y-87420000D01*
X226000000Y-87500000D02*
X227000000Y-87500000D01*
X215000000Y-70500000D02*
X213848529Y-70500000D01*
X199065684Y-70900000D02*
X196515684Y-73450000D01*
X215000000Y-70500000D02*
X217368628Y-70500000D01*
X196515684Y-73450000D02*
X194894200Y-73450000D01*
X213848529Y-70500000D02*
X213448529Y-70900000D01*
X213448529Y-70900000D02*
X199065684Y-70900000D01*
X218000000Y-71131372D02*
X218000000Y-72553600D01*
%TO.N,PHY_RESET_N*%
X210500000Y-87000000D02*
X206000000Y-82500000D01*
X218499999Y-78446400D02*
X218499999Y-81499999D01*
X183000000Y-70000000D02*
X182500000Y-69500000D01*
X186750000Y-71805800D02*
X186750000Y-70750000D01*
X183500000Y-70500000D02*
X183000000Y-70000000D01*
X219500000Y-84565686D02*
X217065686Y-87000000D01*
X186500000Y-70500000D02*
X183500000Y-70500000D01*
X186750000Y-70750000D02*
X186500000Y-70500000D01*
X219500000Y-82500000D02*
X219500000Y-84565686D01*
X218499999Y-81499999D02*
X219500000Y-82500000D01*
X217065686Y-87000000D02*
X210500000Y-87000000D01*
%TO.N,MDC*%
X190500000Y-81585785D02*
X190600000Y-81685785D01*
X217499999Y-78446400D02*
X217000000Y-78946399D01*
X190600000Y-83500000D02*
X190600000Y-85900000D01*
X190250000Y-81335785D02*
X190500000Y-81585785D01*
X190600000Y-85900000D02*
X190000000Y-86500000D01*
X217000000Y-83600001D02*
X217499999Y-84100000D01*
X190600000Y-81685785D02*
X190600000Y-83500000D01*
X217000000Y-78946399D02*
X217000000Y-83600001D01*
X190250000Y-80594200D02*
X190250000Y-81335785D01*
%TO.N,PHY_INT_N*%
X218000000Y-83751472D02*
X218000000Y-78446400D01*
X218500000Y-84251472D02*
X218000000Y-83751472D01*
X187249999Y-70315685D02*
X186467157Y-69532843D01*
X187249999Y-71805800D02*
X187249999Y-70749999D01*
X205400000Y-81000000D02*
X205500000Y-81000000D01*
X216900000Y-86600000D02*
X218500000Y-85000000D01*
X205500000Y-81000000D02*
X211100000Y-86600000D01*
X186467157Y-69532843D02*
X186434314Y-69500000D01*
X211100000Y-86600000D02*
X216900000Y-86600000D01*
X186434314Y-69500000D02*
X183500000Y-69500000D01*
X218500000Y-85000000D02*
X218500000Y-84251472D01*
X187249999Y-70749999D02*
X187249999Y-70315685D01*
D59*
%TO.N,/ETH_SIDE/TRD_P*%
X223081002Y-76475000D02*
X223056001Y-76500001D01*
X226353200Y-77671400D02*
X225156800Y-76475000D01*
X226887499Y-77671400D02*
X226353200Y-77671400D01*
X225156800Y-76475000D02*
X223081002Y-76475000D01*
X223056001Y-76500001D02*
X222446400Y-76500001D01*
X227162499Y-77946400D02*
X226887499Y-77671400D01*
X227950000Y-77946400D02*
X227162499Y-77946400D01*
D58*
%TO.N,REF_25CLK*%
X219500000Y-78446400D02*
X219500000Y-80500000D01*
X192750001Y-80594200D02*
X192750001Y-85250001D01*
X192750001Y-85250001D02*
X193500000Y-86000000D01*
D59*
%TO.N,/ETH_SIDE/TRD_N*%
X223056001Y-75999999D02*
X222446400Y-75999999D01*
X226539600Y-77221400D02*
X225343200Y-76025000D01*
X227586397Y-76946400D02*
X227950000Y-76946400D01*
X226887499Y-77221400D02*
X226539600Y-77221400D01*
X225343200Y-76025000D02*
X223081002Y-76025000D01*
X227162499Y-76946400D02*
X226887499Y-77221400D01*
X227950000Y-76946400D02*
X227162499Y-76946400D01*
X223081002Y-76025000D02*
X223056001Y-75999999D01*
%TO.N,/ETH_SIDE/BI_DA+*%
X243301047Y-74819040D02*
X244351048Y-74819040D01*
X232179999Y-77946400D02*
X232525000Y-77946400D01*
X231904999Y-77671400D02*
X232179999Y-77946400D01*
X241174160Y-73644040D02*
X242126047Y-73644040D01*
X233790001Y-77946400D02*
X234065001Y-77671400D01*
X231225000Y-77946400D02*
X231500000Y-77671400D01*
X235037195Y-74331688D02*
X235037195Y-75962805D01*
X235037195Y-75962805D02*
X235000000Y-76000000D01*
X233325000Y-77946400D02*
X233325000Y-78909207D01*
X242126047Y-73644040D02*
X243301047Y-74819040D01*
X237146800Y-77671400D02*
X241174160Y-73644040D01*
X233325000Y-78909207D02*
X233340910Y-78925117D01*
X231000000Y-77946400D02*
X231225000Y-77946400D01*
X233165000Y-77946400D02*
X233510001Y-77946400D01*
X233325000Y-77946400D02*
X233790001Y-77946400D01*
X234065001Y-77671400D02*
X237146800Y-77671400D01*
X231500000Y-77671400D02*
X231904999Y-77671400D01*
%TO.N,/ETH_SIDE/BI_DA-*%
X233165000Y-76946400D02*
X233510001Y-76946400D01*
X242126047Y-73194040D02*
X243301047Y-72019040D01*
X233000000Y-76781400D02*
X233165000Y-76946400D01*
X234065001Y-77221400D02*
X236960400Y-77221400D01*
X233000000Y-75412500D02*
X233000000Y-76781400D01*
X233790001Y-76946400D02*
X234065001Y-77221400D01*
X232179999Y-76946400D02*
X232525000Y-76946400D01*
X243301047Y-72019040D02*
X244351048Y-72019040D01*
X231225000Y-76946400D02*
X231500000Y-77221400D01*
X236960400Y-77221400D02*
X240987760Y-73194040D01*
X231904999Y-77221400D02*
X232179999Y-76946400D01*
X233325000Y-76946400D02*
X233790001Y-76946400D01*
X231500000Y-77221400D02*
X231904999Y-77221400D01*
X240987760Y-73194040D02*
X242126047Y-73194040D01*
X231000000Y-76946400D02*
X231225000Y-76946400D01*
D58*
%TO.N,MDIO*%
X189500000Y-88000000D02*
X190000000Y-88000000D01*
X189749999Y-81401470D02*
X190100000Y-81751471D01*
X216553600Y-79946400D02*
X216553600Y-77500001D01*
X189749999Y-80594200D02*
X189749999Y-81401470D01*
X190100000Y-81751471D02*
X190100000Y-85551471D01*
X216500000Y-86000000D02*
X216500000Y-80000000D01*
X189000000Y-86651471D02*
X189000000Y-87500000D01*
X189000000Y-87500000D02*
X189500000Y-88000000D01*
X189400000Y-86251471D02*
X189000000Y-86651471D01*
X190100000Y-85551471D02*
X189400000Y-86251471D01*
X216500000Y-80000000D02*
X216553600Y-79946400D01*
D59*
%TO.N,/USB_SIDE/USB2_P*%
X160500000Y-73500000D02*
X160650000Y-73650000D01*
X163850000Y-73650000D02*
X161160000Y-73650000D01*
X183696491Y-74545020D02*
X172363220Y-74545020D01*
X185496199Y-74950000D02*
X185471199Y-74975000D01*
X184873529Y-74975000D02*
X184748529Y-75100000D01*
X184748529Y-75100000D02*
X184251471Y-75100000D01*
X164000000Y-73500000D02*
X163850000Y-73650000D01*
X172363220Y-74545020D02*
X171500000Y-73500000D01*
X160650000Y-73650000D02*
X161160000Y-73650000D01*
X184251471Y-75100000D02*
X183696491Y-74545020D01*
X186105800Y-74950000D02*
X185496199Y-74950000D01*
X185471199Y-74975000D02*
X184873529Y-74975000D01*
%TO.N,/USB_SIDE/USB2_N*%
X184065083Y-75549980D02*
X183510103Y-74995000D01*
X159850000Y-73500000D02*
X160500000Y-74150000D01*
X185396218Y-75549980D02*
X184065083Y-75549980D01*
X164350000Y-74150000D02*
X161160000Y-74150000D01*
X183510103Y-74995000D02*
X172176800Y-74995000D01*
X160500000Y-74150000D02*
X161160000Y-74150000D01*
X186105800Y-75449999D02*
X185496199Y-75449999D01*
X185496199Y-75449999D02*
X185396218Y-75549980D01*
X164500000Y-74000000D02*
X164350000Y-74150000D01*
X172176800Y-74995000D02*
X171340900Y-74159100D01*
D58*
%TO.N,/ETH_SIDE/LED_0_DIP*%
X231194700Y-95040000D02*
X229500000Y-95040000D01*
X216553600Y-77000000D02*
X216000000Y-77000000D01*
X216000000Y-77000000D02*
X215500000Y-77500000D01*
X229500000Y-96040000D02*
X231040000Y-97580000D01*
X214000000Y-93500000D02*
X215540000Y-95040000D01*
X215500000Y-77500000D02*
X215500000Y-78500000D01*
X215600000Y-78600000D02*
X215600000Y-82400000D01*
X229500000Y-95040000D02*
X229500000Y-96040000D01*
X215600000Y-82400000D02*
X215500000Y-82500000D01*
X215540000Y-95040000D02*
X229500000Y-95040000D01*
X231040000Y-97580000D02*
X231194700Y-97580000D01*
X215500000Y-78500000D02*
X215600000Y-78600000D01*
D59*
%TO.N,/USB_SIDE/USB3_TXN*%
X161685001Y-72150000D02*
X161160000Y-72150000D01*
X185496199Y-76450000D02*
X185446199Y-76400000D01*
X169106800Y-76425000D02*
X164806800Y-72125000D01*
X186105800Y-76450000D02*
X185496199Y-76450000D01*
X184226471Y-76425000D02*
X169106800Y-76425000D01*
X164806800Y-72125000D02*
X161710001Y-72125000D01*
X161710001Y-72125000D02*
X161685001Y-72150000D01*
X184251471Y-76400000D02*
X184226471Y-76425000D01*
X185446199Y-76400000D02*
X184251471Y-76400000D01*
%TO.N,/USB_SIDE/USB3_RXN*%
X177556798Y-77925000D02*
X171318474Y-77925000D01*
X185396218Y-78049980D02*
X184065083Y-78049980D01*
X183940102Y-77924999D02*
X177556799Y-77924999D01*
X171318474Y-77925000D02*
X171077300Y-77925000D01*
X161160000Y-75650000D02*
X165650000Y-75650000D01*
X186105800Y-77949999D02*
X185496199Y-77949999D01*
X185496199Y-77949999D02*
X185396218Y-78049980D01*
X171077300Y-77925000D02*
X171000000Y-77925000D01*
X171000000Y-77925000D02*
X169500000Y-78000000D01*
X169500000Y-78000000D02*
X169575000Y-77925000D01*
X165650000Y-75650000D02*
X166000000Y-76000000D01*
X184065083Y-78049980D02*
X183940102Y-77924999D01*
X177556799Y-77924999D02*
X177556798Y-77925000D01*
%TO.N,/USB_SIDE/USB3_RXP*%
X170475000Y-77475000D02*
X171142489Y-77475000D01*
X174022489Y-76725000D02*
X174142489Y-76725000D01*
X185471199Y-77475000D02*
X185496199Y-77450000D01*
X172582489Y-77235000D02*
X172582489Y-76965000D01*
X185496199Y-77450000D02*
X186105800Y-77450000D01*
X173182489Y-77235000D02*
X173422489Y-77475000D01*
X173182489Y-76965000D02*
X173182489Y-77235000D01*
X175000000Y-77475000D02*
X184126471Y-77475000D01*
X168000000Y-77000000D02*
X170000000Y-77000000D01*
X174142489Y-76725000D02*
X174382489Y-76965000D01*
X172942489Y-76725000D02*
X173182489Y-76965000D01*
X171382489Y-76965000D02*
X171622489Y-76725000D01*
X171622489Y-76725000D02*
X171742489Y-76725000D01*
X184748529Y-77600000D02*
X184873529Y-77475000D01*
X171382489Y-77235000D02*
X171382489Y-76965000D01*
X171142489Y-77475000D02*
X171382489Y-77235000D01*
X162150000Y-76150000D02*
X161160000Y-76150000D01*
X174382489Y-76965000D02*
X174382489Y-77235000D01*
X174622489Y-77475000D02*
X175000000Y-77475000D01*
X164337560Y-78000000D02*
X164009044Y-78000000D01*
X173422489Y-77475000D02*
X173542489Y-77475000D01*
X170000000Y-77000000D02*
X170475000Y-77475000D01*
X173782489Y-77235000D02*
X173782489Y-76965000D01*
X171982489Y-77235000D02*
X172222489Y-77475000D01*
X172582489Y-76965000D02*
X172822489Y-76725000D01*
X174382489Y-77235000D02*
X174622489Y-77475000D01*
X164009044Y-78000000D02*
X164000000Y-78000000D01*
X173782489Y-76965000D02*
X174022489Y-76725000D01*
X164000000Y-78000000D02*
X162150000Y-76150000D01*
X171982489Y-76965000D02*
X171982489Y-77235000D01*
X173542489Y-77475000D02*
X173782489Y-77235000D01*
X167000000Y-78000000D02*
X168000000Y-77000000D01*
X184126471Y-77475000D02*
X184251471Y-77600000D01*
X172822489Y-76725000D02*
X172942489Y-76725000D01*
X172342489Y-77475000D02*
X172582489Y-77235000D01*
X164337560Y-78000000D02*
X167000000Y-78000000D01*
X172222489Y-77475000D02*
X172342489Y-77475000D01*
X171742489Y-76725000D02*
X171982489Y-76965000D01*
X184251471Y-77600000D02*
X184748529Y-77600000D01*
X184873529Y-77475000D02*
X185471199Y-77475000D01*
%TO.N,/USB_SIDE/USB3_TXP*%
X185471199Y-75975000D02*
X185496199Y-75950000D01*
X169293200Y-75975000D02*
X185471199Y-75975000D01*
X161685001Y-71650000D02*
X161160000Y-71650000D01*
X164993200Y-71675000D02*
X161710001Y-71675000D01*
X161710001Y-71675000D02*
X161685001Y-71650000D01*
X185496199Y-75950000D02*
X186105800Y-75950000D01*
X164993200Y-71675000D02*
X169293200Y-75975000D01*
%TD*%
M02*
