%TF.GenerationSoftware,KiCad,Pcbnew,8.0.2*%
%TF.CreationDate,2025-01-28T20:19:24-08:00*%
%TF.ProjectId,design_revb_2chip,64657369-676e-45f7-9265-76625f326368,rev?*%
%TF.SameCoordinates,Original*%
%TF.FileFunction,Copper,L3,Inr*%
%TF.FilePolarity,Positive*%
%FSLAX46Y46*%
G04 Gerber Fmt 4.6, Leading zero omitted, Abs format (unit mm)*
G04 Created by KiCad (PCBNEW 8.0.2) date 2025-01-28 20:19:24*
%MOMM*%
%LPD*%
G01*
G04 APERTURE LIST*
%TA.AperFunction,ComponentPad*%
%ADD10C,0.499999*%
%TD*%
%TA.AperFunction,ComponentPad*%
%ADD11C,0.600000*%
%TD*%
%TA.AperFunction,ComponentPad*%
%ADD12C,0.900000*%
%TD*%
%TA.AperFunction,ComponentPad*%
%ADD13O,1.400000X0.900000*%
%TD*%
%TA.AperFunction,ComponentPad*%
%ADD14R,1.350000X1.350000*%
%TD*%
%TA.AperFunction,ComponentPad*%
%ADD15O,1.350000X1.350000*%
%TD*%
%TA.AperFunction,ComponentPad*%
%ADD16R,1.498600X1.498600*%
%TD*%
%TA.AperFunction,ComponentPad*%
%ADD17C,1.498600*%
%TD*%
%TA.AperFunction,ComponentPad*%
%ADD18R,1.400000X1.400000*%
%TD*%
%TA.AperFunction,ComponentPad*%
%ADD19C,1.400000*%
%TD*%
%TA.AperFunction,ComponentPad*%
%ADD20C,1.500000*%
%TD*%
%TA.AperFunction,ViaPad*%
%ADD21C,0.600000*%
%TD*%
%TA.AperFunction,ViaPad*%
%ADD22C,0.406400*%
%TD*%
%TA.AperFunction,Conductor*%
%ADD23C,0.200000*%
%TD*%
G04 APERTURE END LIST*
D10*
%TO.N,N/C*%
%TO.C,U2*%
X165087500Y-88000000D03*
X165087500Y-88799998D03*
%TD*%
D11*
%TO.N,GND*%
%TO.C,J4*%
X159850000Y-76700000D03*
%TO.N,/USB_SIDE/USB3_TXP*%
X159150000Y-76300000D03*
%TO.N,/USB_SIDE/USB3_TXN*%
X159150000Y-75500000D03*
%TO.N,VBUS*%
X159850000Y-75100000D03*
%TO.N,unconnected-(J4-CC2-PadB5)*%
X159150000Y-74700000D03*
%TO.N,/USB_SIDE/USB2_P*%
X159850000Y-74300000D03*
%TO.N,/USB_SIDE/USB2_N*%
X159850000Y-73500000D03*
%TO.N,unconnected-(J4-SBU2-PadB8)*%
X159150000Y-73100000D03*
%TO.N,VBUS*%
X159850000Y-72700000D03*
%TO.N,/USB_SIDE/USB3_RXN*%
X159150000Y-72300000D03*
%TO.N,/USB_SIDE/USB3_RXP*%
X159150000Y-71500000D03*
%TO.N,GND*%
X159850000Y-71100000D03*
D12*
%TO.N,USB_SHIELD*%
X159000000Y-78230000D03*
X159000000Y-69570000D03*
D13*
X154500000Y-69570000D03*
X154500000Y-78230000D03*
%TD*%
D14*
%TO.N,GPIO10*%
%TO.C,J2*%
X215000000Y-99000000D03*
D15*
%TO.N,GPIO9*%
X213000000Y-99000000D03*
%TO.N,GPIO8*%
X211000000Y-99000000D03*
%TO.N,GPIO7*%
X209000000Y-99000000D03*
%TO.N,GPIO6*%
X207000000Y-99000000D03*
%TO.N,GPIO5*%
X205000000Y-99000000D03*
%TO.N,GPIO4*%
X203000000Y-99000000D03*
%TO.N,GND*%
X201000000Y-99000000D03*
%TD*%
D16*
%TO.N,Net-(U1-EECS{slash}GPIO0)*%
%TO.C,U3*%
X177000000Y-61620000D03*
D17*
%TO.N,Net-(U1-EECLK{slash}GPIO3)*%
X177000000Y-59080000D03*
%TO.N,Net-(U1-EEDI{slash}GPIO1)*%
X177000000Y-56540000D03*
%TO.N,Net-(U1-EEDO{slash}GPIO2)*%
X177000000Y-54000000D03*
%TO.N,GND*%
X169380000Y-54000000D03*
%TO.N,Net-(U3-ORG)*%
X169380000Y-56540000D03*
%TO.N,unconnected-(U3-NC-Pad7)*%
X169380000Y-59080000D03*
%TO.N,VDD33A*%
X169380000Y-61620000D03*
%TD*%
D18*
%TO.N,/ETH_SIDE/BI_DA+*%
%TO.C,J3*%
X244350000Y-74850000D03*
D19*
%TO.N,/ETH_SIDE/BI_DA-*%
X244350000Y-72050000D03*
D20*
%TO.N,Net-(J3-GND_1)*%
X241750000Y-69650000D03*
X241750000Y-77250000D03*
X251500000Y-69000000D03*
X251500000Y-77900000D03*
%TD*%
D21*
%TO.N,GND*%
X192000000Y-76500000D03*
X192000000Y-74500000D03*
X233000000Y-65000000D03*
X189000000Y-76500000D03*
X220500000Y-76500000D03*
X189000000Y-75500000D03*
X188000000Y-74500000D03*
X180500000Y-72500000D03*
X189000000Y-73500000D03*
X214000000Y-89000000D03*
X191000000Y-76500000D03*
X218500000Y-76500000D03*
X193000000Y-73500000D03*
X189000000Y-78500000D03*
X193000000Y-75500000D03*
X163000000Y-78500000D03*
X220500000Y-74500000D03*
X194500000Y-68000000D03*
X189000000Y-77500000D03*
X193000000Y-78500000D03*
X183500000Y-85500000D03*
X200500000Y-81000000D03*
X210500000Y-58500000D03*
X191000000Y-73500000D03*
X185000000Y-85000000D03*
X189000000Y-74500000D03*
X155087500Y-87000000D03*
X167000000Y-54000000D03*
X189500000Y-84500000D03*
X188000000Y-76500000D03*
X190000000Y-78500000D03*
X190500000Y-58000000D03*
X191000000Y-77500000D03*
X192000000Y-73500000D03*
X193000000Y-74500000D03*
X188000000Y-78500000D03*
X191000000Y-74500000D03*
X217000000Y-55000000D03*
X188000000Y-73500000D03*
X190000000Y-74500000D03*
X163087500Y-86500000D03*
X186000000Y-85500000D03*
X185500000Y-87000000D03*
X252500000Y-86500000D03*
X163087500Y-90500000D03*
X191500000Y-91000000D03*
X190000000Y-77500000D03*
X198500000Y-57000000D03*
X192000000Y-77500000D03*
X191000000Y-75500000D03*
X184000000Y-93500000D03*
X248000000Y-60000000D03*
X188000000Y-75500000D03*
X201500000Y-73500000D03*
X193000000Y-77500000D03*
X192000000Y-78500000D03*
X190000000Y-73500000D03*
X193000000Y-76500000D03*
X186500000Y-64345000D03*
X201500000Y-76000000D03*
X190000000Y-75500000D03*
X155000000Y-85000000D03*
X165500000Y-65500000D03*
X192000000Y-75500000D03*
X227500000Y-85000000D03*
X191000000Y-78500000D03*
X163000000Y-70500000D03*
X201000000Y-97000000D03*
X198500000Y-62500000D03*
X188000000Y-77500000D03*
X198000000Y-85000000D03*
X190000000Y-76500000D03*
X220000000Y-60000000D03*
X196500000Y-84500000D03*
X176500000Y-79500000D03*
X218500000Y-74500000D03*
%TO.N,VDD33A*%
X189149999Y-68500000D03*
X183500000Y-81500000D03*
X195000000Y-69000000D03*
X187000000Y-85500000D03*
X243500000Y-98000000D03*
X174500000Y-86500000D03*
X198500000Y-73500000D03*
X199000000Y-76000000D03*
X202000000Y-89000000D03*
X182500000Y-65000000D03*
X207000000Y-53000000D03*
X192500000Y-62000000D03*
X198000000Y-82000000D03*
X184500000Y-72500000D03*
X186000000Y-83000000D03*
X220000000Y-92000000D03*
X167000000Y-62500000D03*
X168000000Y-65000000D03*
X246000000Y-85000000D03*
X199000000Y-79000000D03*
X232000000Y-60500000D03*
%TO.N,VDD12A*%
X189500000Y-82000000D03*
X186500000Y-67845000D03*
X184500000Y-74500000D03*
X184500000Y-77000000D03*
X194500000Y-83500000D03*
%TO.N,VDD12*%
X183500000Y-60500000D03*
%TO.N,XI*%
X186000000Y-88500000D03*
X188000000Y-83500000D03*
%TO.N,XO*%
X190500000Y-92000000D03*
X188500000Y-84500000D03*
%TO.N,/ETH_SIDE/VddioA*%
X205000000Y-65000000D03*
X215000000Y-80500000D03*
%TO.N,/ETH_SIDE/Vdd1p0A*%
X226500000Y-80000000D03*
X215000000Y-67000000D03*
%TO.N,/ETH_SIDE/Vdda3p3*%
X221674265Y-84174265D03*
X220500001Y-87500000D03*
%TO.N,Net-(D4-K)*%
X251500000Y-92000000D03*
%TO.N,/ETH_SIDE/LED_1*%
X252500000Y-100000000D03*
%TO.N,VBUS*%
X163000000Y-73000000D03*
X163000000Y-75000000D03*
X161500000Y-82000000D03*
%TO.N,/ETH_SIDE/LED_0_STRP_ON*%
X242500000Y-97500000D03*
%TO.N,GPIO4*%
X203000000Y-96500000D03*
X173500000Y-72500000D03*
%TO.N,GPIO5*%
X205000000Y-96000000D03*
X173500000Y-73500000D03*
%TO.N,RESET_N*%
X177500000Y-70000000D03*
X182000000Y-80000000D03*
X174500000Y-70500000D03*
X184000000Y-67000000D03*
%TO.N,TEST*%
X181500000Y-79000000D03*
%TO.N,Net-(U1-EECLK{slash}GPIO3)*%
X187500000Y-64000000D03*
X179500000Y-59000000D03*
%TO.N,RXD2*%
X208000000Y-69000000D03*
X227100000Y-90900000D03*
%TO.N,TXD3*%
X211000000Y-80500000D03*
X211000000Y-76000000D03*
%TO.N,RX_CTL*%
X227500000Y-75000000D03*
X208000000Y-71500000D03*
%TO.N,RXD1*%
X226500000Y-89000000D03*
X212000000Y-70000000D03*
%TO.N,TXD2*%
X212500000Y-79500000D03*
X212500000Y-76000000D03*
%TO.N,Net-(U1-EEDO{slash}GPIO2)*%
X189000000Y-64500000D03*
X181500000Y-54000000D03*
%TO.N,TXD1*%
X214000000Y-78500000D03*
X214000000Y-76000000D03*
%TO.N,Net-(U1-EEDI{slash}GPIO1)*%
X190000000Y-64000000D03*
X186500000Y-56500000D03*
%TO.N,RXD0*%
X226000000Y-87500000D03*
X215000000Y-70500000D03*
%TO.N,PHY_RESET_N*%
X182500000Y-69500000D03*
X206000000Y-82500000D03*
%TO.N,MDC*%
X190000000Y-86500000D03*
X217499999Y-84100000D03*
%TO.N,PHY_INT_N*%
X183500000Y-69500000D03*
X205400000Y-81000000D03*
%TO.N,REF_25CLK*%
X219500000Y-80500000D03*
X193500000Y-86000000D03*
%TO.N,/ETH_SIDE/BI_DA+*%
X236500000Y-78500000D03*
%TO.N,/ETH_SIDE/BI_DA-*%
X236000000Y-75500000D03*
%TO.N,MDIO*%
X216500000Y-86000000D03*
X190000000Y-88000000D03*
D22*
%TO.N,/USB_SIDE/USB2_P*%
X160500000Y-73500000D03*
D21*
X171500000Y-73500000D03*
X164000000Y-73500000D03*
%TO.N,/USB_SIDE/USB2_N*%
X164500000Y-74000000D03*
X171234835Y-74265165D03*
%TO.N,/ETH_SIDE/LED_0_DIP*%
X214000000Y-93500000D03*
X215600000Y-82400000D03*
D22*
%TO.N,/USB_SIDE/USB3_TXN*%
X161685001Y-72150000D03*
%TO.N,/USB_SIDE/USB3_RXN*%
X162000000Y-75650000D03*
D21*
X169500000Y-78000000D03*
X166000000Y-76000000D03*
D22*
%TO.N,/USB_SIDE/USB3_RXP*%
X162500000Y-76500000D03*
%TO.N,/USB_SIDE/USB3_TXP*%
X164993200Y-71675000D03*
X164993200Y-71675000D03*
%TD*%
D23*
%TO.N,VDD33A*%
X182500000Y-65000000D02*
X184000000Y-65000000D01*
X195100000Y-68900000D02*
X195000000Y-69000000D01*
X186000000Y-83000000D02*
X185000000Y-83000000D01*
X207000000Y-53000000D02*
X208000000Y-53000000D01*
X192500000Y-62000000D02*
X195100000Y-64600000D01*
X226424264Y-69272793D02*
X226424264Y-66924264D01*
X202000000Y-89000000D02*
X204000000Y-89000000D01*
X242151471Y-85000000D02*
X227075736Y-69924264D01*
X217575736Y-69924264D02*
X227075736Y-69924264D01*
X227075736Y-69924264D02*
X226424264Y-69272793D01*
X187649999Y-70000000D02*
X189149999Y-68500000D01*
X209000000Y-84400000D02*
X210600000Y-84400000D01*
X198000000Y-82000000D02*
X197100000Y-82900000D01*
X185000000Y-83000000D02*
X183500000Y-81500000D01*
X208600000Y-84400000D02*
X209000000Y-84400000D01*
X186100000Y-82900000D02*
X197100000Y-82900000D01*
X198500000Y-72500000D02*
X198500000Y-73500000D01*
X213100000Y-81900000D02*
X213100000Y-74400000D01*
X185000000Y-68500000D02*
X186500000Y-70000000D01*
X199000000Y-76000000D02*
X199000000Y-79000000D01*
X221924264Y-66924264D02*
X226424264Y-66924264D01*
X198500000Y-75500000D02*
X198500000Y-73500000D01*
X195100000Y-64600000D02*
X195100000Y-68900000D01*
X220000000Y-92000000D02*
X219500000Y-91500000D01*
X208000000Y-53000000D02*
X221924264Y-66924264D01*
X184500000Y-72500000D02*
X184500000Y-72000000D01*
X197751471Y-84400000D02*
X209000000Y-84400000D01*
X167000000Y-62500000D02*
X168000000Y-63500000D01*
X188402942Y-85248529D02*
X196902942Y-85248529D01*
X185151471Y-88500000D02*
X188402942Y-85248529D01*
X195000000Y-69000000D02*
X198500000Y-72500000D01*
X204000000Y-89000000D02*
X208600000Y-84400000D01*
X186000000Y-83000000D02*
X186100000Y-82900000D01*
X213100000Y-74400000D02*
X217575736Y-69924264D01*
X246000000Y-85000000D02*
X242151471Y-85000000D01*
X232000000Y-61348529D02*
X226424264Y-66924264D01*
X168000000Y-63500000D02*
X168000000Y-65000000D01*
X186500000Y-70000000D02*
X187649999Y-70000000D01*
X196902942Y-85248529D02*
X197751471Y-84400000D01*
X175500000Y-88500000D02*
X185151471Y-88500000D01*
X175500000Y-87500000D02*
X175500000Y-88500000D01*
X210600000Y-84400000D02*
X213100000Y-81900000D01*
X199000000Y-76000000D02*
X198500000Y-75500000D01*
X184500000Y-72000000D02*
X186500000Y-70000000D01*
X243500000Y-98000000D02*
X243500000Y-86348529D01*
X243500000Y-86348529D02*
X242151471Y-85000000D01*
X232000000Y-60500000D02*
X232000000Y-61348529D01*
X185000000Y-66000000D02*
X185000000Y-68500000D01*
X174500000Y-86500000D02*
X175500000Y-87500000D01*
X184000000Y-65000000D02*
X185000000Y-66000000D01*
%TD*%
%TA.AperFunction,Conductor*%
%TO.N,VDD33A*%
G36*
X253442539Y-51520185D02*
G01*
X253488294Y-51572989D01*
X253499500Y-51624500D01*
X253499500Y-86202885D01*
X253479815Y-86269924D01*
X253427011Y-86315679D01*
X253357853Y-86325623D01*
X253294297Y-86296598D01*
X253258459Y-86243840D01*
X253225790Y-86150480D01*
X253225789Y-86150478D01*
X253129816Y-85997738D01*
X253002262Y-85870184D01*
X252963121Y-85845590D01*
X252849523Y-85774211D01*
X252679254Y-85714631D01*
X252679249Y-85714630D01*
X252500004Y-85694435D01*
X252499996Y-85694435D01*
X252320750Y-85714630D01*
X252320745Y-85714631D01*
X252150476Y-85774211D01*
X251997737Y-85870184D01*
X251870184Y-85997737D01*
X251774211Y-86150476D01*
X251714631Y-86320745D01*
X251714630Y-86320750D01*
X251694435Y-86499996D01*
X251694435Y-86500003D01*
X251714630Y-86679249D01*
X251714631Y-86679254D01*
X251774211Y-86849523D01*
X251867341Y-86997737D01*
X251870184Y-87002262D01*
X251997738Y-87129816D01*
X252150478Y-87225789D01*
X252288860Y-87274211D01*
X252320745Y-87285368D01*
X252320750Y-87285369D01*
X252499996Y-87305565D01*
X252500000Y-87305565D01*
X252500004Y-87305565D01*
X252679249Y-87285369D01*
X252679252Y-87285368D01*
X252679255Y-87285368D01*
X252849522Y-87225789D01*
X253002262Y-87129816D01*
X253129816Y-87002262D01*
X253225789Y-86849522D01*
X253248237Y-86785368D01*
X253258458Y-86756160D01*
X253299180Y-86699383D01*
X253364133Y-86673636D01*
X253432694Y-86687092D01*
X253483097Y-86735479D01*
X253499500Y-86797114D01*
X253499500Y-99702885D01*
X253479815Y-99769924D01*
X253427011Y-99815679D01*
X253357853Y-99825623D01*
X253294297Y-99796598D01*
X253258459Y-99743840D01*
X253225790Y-99650480D01*
X253225789Y-99650478D01*
X253129816Y-99497738D01*
X253002262Y-99370184D01*
X252849523Y-99274211D01*
X252679254Y-99214631D01*
X252679249Y-99214630D01*
X252500004Y-99194435D01*
X252499996Y-99194435D01*
X252320750Y-99214630D01*
X252320745Y-99214631D01*
X252150476Y-99274211D01*
X251997737Y-99370184D01*
X251870184Y-99497737D01*
X251774211Y-99650476D01*
X251714631Y-99820745D01*
X251714630Y-99820750D01*
X251694435Y-99999996D01*
X251694435Y-100000003D01*
X251714630Y-100179249D01*
X251714631Y-100179254D01*
X251774211Y-100349523D01*
X251870184Y-100502262D01*
X251997738Y-100629816D01*
X252150478Y-100725789D01*
X252243840Y-100758458D01*
X252300617Y-100799180D01*
X252326364Y-100864133D01*
X252312908Y-100932694D01*
X252264521Y-100983097D01*
X252202886Y-100999500D01*
X153124500Y-100999500D01*
X153057461Y-100979815D01*
X153011706Y-100927011D01*
X153000500Y-100875500D01*
X153000500Y-98999999D01*
X199819464Y-98999999D01*
X199819464Y-99000000D01*
X199839564Y-99216918D01*
X199839564Y-99216920D01*
X199839565Y-99216923D01*
X199899183Y-99426459D01*
X199899184Y-99426462D01*
X199996288Y-99621472D01*
X200127573Y-99795322D01*
X200288568Y-99942088D01*
X200288575Y-99942092D01*
X200288576Y-99942093D01*
X200473786Y-100056770D01*
X200473792Y-100056773D01*
X200496664Y-100065633D01*
X200676931Y-100135470D01*
X200891074Y-100175500D01*
X200891076Y-100175500D01*
X201108924Y-100175500D01*
X201108926Y-100175500D01*
X201323069Y-100135470D01*
X201526210Y-100056772D01*
X201711432Y-99942088D01*
X201872427Y-99795322D01*
X201901047Y-99757422D01*
X201957153Y-99715787D01*
X202026865Y-99711094D01*
X202088048Y-99744836D01*
X202098946Y-99757414D01*
X202127573Y-99795322D01*
X202127576Y-99795325D01*
X202127578Y-99795327D01*
X202242569Y-99900154D01*
X202288568Y-99942088D01*
X202288575Y-99942092D01*
X202288576Y-99942093D01*
X202473786Y-100056770D01*
X202473792Y-100056773D01*
X202496664Y-100065633D01*
X202676931Y-100135470D01*
X202891074Y-100175500D01*
X202891076Y-100175500D01*
X203108924Y-100175500D01*
X203108926Y-100175500D01*
X203323069Y-100135470D01*
X203526210Y-100056772D01*
X203711432Y-99942088D01*
X203872427Y-99795322D01*
X203901047Y-99757422D01*
X203957153Y-99715787D01*
X204026865Y-99711094D01*
X204088048Y-99744836D01*
X204098946Y-99757414D01*
X204127573Y-99795322D01*
X204127576Y-99795325D01*
X204127578Y-99795327D01*
X204242569Y-99900154D01*
X204288568Y-99942088D01*
X204288575Y-99942092D01*
X204288576Y-99942093D01*
X204473786Y-100056770D01*
X204473792Y-100056773D01*
X204496664Y-100065633D01*
X204676931Y-100135470D01*
X204891074Y-100175500D01*
X204891076Y-100175500D01*
X205108924Y-100175500D01*
X205108926Y-100175500D01*
X205323069Y-100135470D01*
X205526210Y-100056772D01*
X205711432Y-99942088D01*
X205872427Y-99795322D01*
X205901047Y-99757422D01*
X205957153Y-99715787D01*
X206026865Y-99711094D01*
X206088048Y-99744836D01*
X206098946Y-99757414D01*
X206127573Y-99795322D01*
X206127576Y-99795325D01*
X206127578Y-99795327D01*
X206242569Y-99900154D01*
X206288568Y-99942088D01*
X206288575Y-99942092D01*
X206288576Y-99942093D01*
X206473786Y-100056770D01*
X206473792Y-100056773D01*
X206496664Y-100065633D01*
X206676931Y-100135470D01*
X206891074Y-100175500D01*
X206891076Y-100175500D01*
X207108924Y-100175500D01*
X207108926Y-100175500D01*
X207323069Y-100135470D01*
X207526210Y-100056772D01*
X207711432Y-99942088D01*
X207872427Y-99795322D01*
X207901047Y-99757422D01*
X207957153Y-99715787D01*
X208026865Y-99711094D01*
X208088048Y-99744836D01*
X208098946Y-99757414D01*
X208127573Y-99795322D01*
X208127576Y-99795325D01*
X208127578Y-99795327D01*
X208242569Y-99900154D01*
X208288568Y-99942088D01*
X208288575Y-99942092D01*
X208288576Y-99942093D01*
X208473786Y-100056770D01*
X208473792Y-100056773D01*
X208496664Y-100065633D01*
X208676931Y-100135470D01*
X208891074Y-100175500D01*
X208891076Y-100175500D01*
X209108924Y-100175500D01*
X209108926Y-100175500D01*
X209323069Y-100135470D01*
X209526210Y-100056772D01*
X209711432Y-99942088D01*
X209872427Y-99795322D01*
X209901047Y-99757422D01*
X209957153Y-99715787D01*
X210026865Y-99711094D01*
X210088048Y-99744836D01*
X210098946Y-99757414D01*
X210127573Y-99795322D01*
X210127576Y-99795325D01*
X210127578Y-99795327D01*
X210242569Y-99900154D01*
X210288568Y-99942088D01*
X210288575Y-99942092D01*
X210288576Y-99942093D01*
X210473786Y-100056770D01*
X210473792Y-100056773D01*
X210496664Y-100065633D01*
X210676931Y-100135470D01*
X210891074Y-100175500D01*
X210891076Y-100175500D01*
X211108924Y-100175500D01*
X211108926Y-100175500D01*
X211323069Y-100135470D01*
X211526210Y-100056772D01*
X211711432Y-99942088D01*
X211872427Y-99795322D01*
X211901047Y-99757422D01*
X211957153Y-99715787D01*
X212026865Y-99711094D01*
X212088048Y-99744836D01*
X212098946Y-99757414D01*
X212127573Y-99795322D01*
X212127576Y-99795325D01*
X212127578Y-99795327D01*
X212242569Y-99900154D01*
X212288568Y-99942088D01*
X212288575Y-99942092D01*
X212288576Y-99942093D01*
X212473786Y-100056770D01*
X212473792Y-100056773D01*
X212496664Y-100065633D01*
X212676931Y-100135470D01*
X212891074Y-100175500D01*
X212891076Y-100175500D01*
X213108924Y-100175500D01*
X213108926Y-100175500D01*
X213323069Y-100135470D01*
X213526210Y-100056772D01*
X213711432Y-99942088D01*
X213722407Y-99932082D01*
X213785207Y-99901463D01*
X213854594Y-99909657D01*
X213905214Y-99949405D01*
X213967452Y-100032544D01*
X213967455Y-100032547D01*
X214082664Y-100118793D01*
X214082671Y-100118797D01*
X214217517Y-100169091D01*
X214217516Y-100169091D01*
X214224444Y-100169835D01*
X214277127Y-100175500D01*
X215722872Y-100175499D01*
X215782483Y-100169091D01*
X215917331Y-100118796D01*
X216032546Y-100032546D01*
X216118796Y-99917331D01*
X216169091Y-99782483D01*
X216175500Y-99722873D01*
X216175499Y-98277128D01*
X216169091Y-98217517D01*
X216164302Y-98204678D01*
X216118797Y-98082671D01*
X216118793Y-98082664D01*
X216032547Y-97967455D01*
X216032544Y-97967452D01*
X215917335Y-97881206D01*
X215917328Y-97881202D01*
X215782482Y-97830908D01*
X215782483Y-97830908D01*
X215722883Y-97824501D01*
X215722881Y-97824500D01*
X215722873Y-97824500D01*
X215722864Y-97824500D01*
X214277129Y-97824500D01*
X214277123Y-97824501D01*
X214217516Y-97830908D01*
X214082671Y-97881202D01*
X214082664Y-97881206D01*
X213967455Y-97967452D01*
X213905214Y-98050594D01*
X213849279Y-98092465D01*
X213779588Y-98097448D01*
X213722411Y-98067920D01*
X213711434Y-98057913D01*
X213711429Y-98057910D01*
X213526213Y-97943229D01*
X213526207Y-97943226D01*
X213433145Y-97907174D01*
X213323069Y-97864530D01*
X213108926Y-97824500D01*
X212891074Y-97824500D01*
X212676931Y-97864530D01*
X212633896Y-97881202D01*
X212473792Y-97943226D01*
X212473786Y-97943229D01*
X212288576Y-98057906D01*
X212288566Y-98057913D01*
X212127573Y-98204676D01*
X212098953Y-98242576D01*
X212042844Y-98284211D01*
X211973132Y-98288902D01*
X211911950Y-98255159D01*
X211901047Y-98242576D01*
X211872426Y-98204676D01*
X211711433Y-98057913D01*
X211711423Y-98057906D01*
X211526213Y-97943229D01*
X211526207Y-97943226D01*
X211433145Y-97907174D01*
X211323069Y-97864530D01*
X211108926Y-97824500D01*
X210891074Y-97824500D01*
X210676931Y-97864530D01*
X210633896Y-97881202D01*
X210473792Y-97943226D01*
X210473786Y-97943229D01*
X210288576Y-98057906D01*
X210288566Y-98057913D01*
X210127573Y-98204676D01*
X210098953Y-98242576D01*
X210042844Y-98284211D01*
X209973132Y-98288902D01*
X209911950Y-98255159D01*
X209901047Y-98242576D01*
X209872426Y-98204676D01*
X209711433Y-98057913D01*
X209711423Y-98057906D01*
X209526213Y-97943229D01*
X209526207Y-97943226D01*
X209433145Y-97907174D01*
X209323069Y-97864530D01*
X209108926Y-97824500D01*
X208891074Y-97824500D01*
X208676931Y-97864530D01*
X208633896Y-97881202D01*
X208473792Y-97943226D01*
X208473786Y-97943229D01*
X208288576Y-98057906D01*
X208288566Y-98057913D01*
X208127573Y-98204676D01*
X208098953Y-98242576D01*
X208042844Y-98284211D01*
X207973132Y-98288902D01*
X207911950Y-98255159D01*
X207901047Y-98242576D01*
X207872426Y-98204676D01*
X207711433Y-98057913D01*
X207711423Y-98057906D01*
X207526213Y-97943229D01*
X207526207Y-97943226D01*
X207433145Y-97907174D01*
X207323069Y-97864530D01*
X207108926Y-97824500D01*
X206891074Y-97824500D01*
X206676931Y-97864530D01*
X206633896Y-97881202D01*
X206473792Y-97943226D01*
X206473786Y-97943229D01*
X206288576Y-98057906D01*
X206288566Y-98057913D01*
X206127573Y-98204676D01*
X206098953Y-98242576D01*
X206042844Y-98284211D01*
X205973132Y-98288902D01*
X205911950Y-98255159D01*
X205901047Y-98242576D01*
X205872426Y-98204676D01*
X205711433Y-98057913D01*
X205711423Y-98057906D01*
X205526213Y-97943229D01*
X205526207Y-97943226D01*
X205433145Y-97907174D01*
X205323069Y-97864530D01*
X205108926Y-97824500D01*
X204891074Y-97824500D01*
X204676931Y-97864530D01*
X204633896Y-97881202D01*
X204473792Y-97943226D01*
X204473786Y-97943229D01*
X204288576Y-98057906D01*
X204288566Y-98057913D01*
X204127573Y-98204676D01*
X204098953Y-98242576D01*
X204042844Y-98284211D01*
X203973132Y-98288902D01*
X203911950Y-98255159D01*
X203901047Y-98242576D01*
X203872426Y-98204676D01*
X203711433Y-98057913D01*
X203711423Y-98057906D01*
X203526213Y-97943229D01*
X203526207Y-97943226D01*
X203433145Y-97907174D01*
X203323069Y-97864530D01*
X203108926Y-97824500D01*
X202891074Y-97824500D01*
X202676931Y-97864530D01*
X202633896Y-97881202D01*
X202473792Y-97943226D01*
X202473786Y-97943229D01*
X202288576Y-98057906D01*
X202288566Y-98057913D01*
X202127573Y-98204676D01*
X202098953Y-98242576D01*
X202042844Y-98284211D01*
X201973132Y-98288902D01*
X201911950Y-98255159D01*
X201901047Y-98242576D01*
X201872426Y-98204676D01*
X201711433Y-98057913D01*
X201711423Y-98057906D01*
X201526213Y-97943229D01*
X201526207Y-97943227D01*
X201433141Y-97907172D01*
X201377742Y-97864601D01*
X201354151Y-97798834D01*
X201369862Y-97730754D01*
X201411963Y-97686554D01*
X201502262Y-97629816D01*
X201629816Y-97502262D01*
X201631240Y-97499996D01*
X241694435Y-97499996D01*
X241694435Y-97500003D01*
X241714630Y-97679249D01*
X241714631Y-97679254D01*
X241774211Y-97849523D01*
X241794118Y-97881204D01*
X241870184Y-98002262D01*
X241997738Y-98129816D01*
X242077112Y-98179690D01*
X242137311Y-98217516D01*
X242150478Y-98225789D01*
X242320745Y-98285368D01*
X242320750Y-98285369D01*
X242499996Y-98305565D01*
X242500000Y-98305565D01*
X242500004Y-98305565D01*
X242679249Y-98285369D01*
X242679252Y-98285368D01*
X242679255Y-98285368D01*
X242849522Y-98225789D01*
X243002262Y-98129816D01*
X243129816Y-98002262D01*
X243225789Y-97849522D01*
X243285368Y-97679255D01*
X243285369Y-97679249D01*
X243305565Y-97500003D01*
X243305565Y-97499996D01*
X243285369Y-97320750D01*
X243285368Y-97320745D01*
X243252141Y-97225788D01*
X243225789Y-97150478D01*
X243129816Y-96997738D01*
X243002262Y-96870184D01*
X242969379Y-96849522D01*
X242849523Y-96774211D01*
X242679254Y-96714631D01*
X242679249Y-96714630D01*
X242500004Y-96694435D01*
X242499996Y-96694435D01*
X242320750Y-96714630D01*
X242320745Y-96714631D01*
X242150476Y-96774211D01*
X241997737Y-96870184D01*
X241870184Y-96997737D01*
X241774211Y-97150476D01*
X241714631Y-97320745D01*
X241714630Y-97320750D01*
X241694435Y-97499996D01*
X201631240Y-97499996D01*
X201725789Y-97349522D01*
X201785368Y-97179255D01*
X201785369Y-97179249D01*
X201805565Y-97000003D01*
X201805565Y-96999996D01*
X201785369Y-96820750D01*
X201785368Y-96820745D01*
X201741170Y-96694435D01*
X201725789Y-96650478D01*
X201631235Y-96499996D01*
X202194435Y-96499996D01*
X202194435Y-96500003D01*
X202214630Y-96679249D01*
X202214631Y-96679254D01*
X202274211Y-96849523D01*
X202367341Y-96997737D01*
X202370184Y-97002262D01*
X202497738Y-97129816D01*
X202650478Y-97225789D01*
X202820745Y-97285368D01*
X202820750Y-97285369D01*
X202999996Y-97305565D01*
X203000000Y-97305565D01*
X203000004Y-97305565D01*
X203179249Y-97285369D01*
X203179252Y-97285368D01*
X203179255Y-97285368D01*
X203349522Y-97225789D01*
X203502262Y-97129816D01*
X203629816Y-97002262D01*
X203725789Y-96849522D01*
X203785368Y-96679255D01*
X203785369Y-96679249D01*
X203805565Y-96500003D01*
X203805565Y-96499996D01*
X203785369Y-96320750D01*
X203785368Y-96320745D01*
X203741170Y-96194435D01*
X203725789Y-96150478D01*
X203631235Y-95999996D01*
X204194435Y-95999996D01*
X204194435Y-96000003D01*
X204214630Y-96179249D01*
X204214631Y-96179254D01*
X204274211Y-96349523D01*
X204367341Y-96497737D01*
X204370184Y-96502262D01*
X204497738Y-96629816D01*
X204576410Y-96679249D01*
X204632721Y-96714632D01*
X204650478Y-96725789D01*
X204788860Y-96774211D01*
X204820745Y-96785368D01*
X204820750Y-96785369D01*
X204999996Y-96805565D01*
X205000000Y-96805565D01*
X205000004Y-96805565D01*
X205179249Y-96785369D01*
X205179252Y-96785368D01*
X205179255Y-96785368D01*
X205349522Y-96725789D01*
X205502262Y-96629816D01*
X205629816Y-96502262D01*
X205725789Y-96349522D01*
X205785368Y-96179255D01*
X205785369Y-96179249D01*
X205805565Y-96000003D01*
X205805565Y-95999996D01*
X205785369Y-95820750D01*
X205785368Y-95820745D01*
X205725788Y-95650476D01*
X205629815Y-95497737D01*
X205502262Y-95370184D01*
X205349523Y-95274211D01*
X205179254Y-95214631D01*
X205179249Y-95214630D01*
X205000004Y-95194435D01*
X204999996Y-95194435D01*
X204820750Y-95214630D01*
X204820745Y-95214631D01*
X204650476Y-95274211D01*
X204497737Y-95370184D01*
X204370184Y-95497737D01*
X204274211Y-95650476D01*
X204214631Y-95820745D01*
X204214630Y-95820750D01*
X204194435Y-95999996D01*
X203631235Y-95999996D01*
X203629816Y-95997738D01*
X203502262Y-95870184D01*
X203349523Y-95774211D01*
X203179254Y-95714631D01*
X203179249Y-95714630D01*
X203000004Y-95694435D01*
X202999996Y-95694435D01*
X202820750Y-95714630D01*
X202820745Y-95714631D01*
X202650476Y-95774211D01*
X202497737Y-95870184D01*
X202370184Y-95997737D01*
X202274211Y-96150476D01*
X202214631Y-96320745D01*
X202214630Y-96320750D01*
X202194435Y-96499996D01*
X201631235Y-96499996D01*
X201629816Y-96497738D01*
X201502262Y-96370184D01*
X201469379Y-96349522D01*
X201349523Y-96274211D01*
X201179254Y-96214631D01*
X201179249Y-96214630D01*
X201000004Y-96194435D01*
X200999996Y-96194435D01*
X200820750Y-96214630D01*
X200820745Y-96214631D01*
X200650476Y-96274211D01*
X200497737Y-96370184D01*
X200370184Y-96497737D01*
X200274211Y-96650476D01*
X200214631Y-96820745D01*
X200214630Y-96820750D01*
X200194435Y-96999996D01*
X200194435Y-97000003D01*
X200214630Y-97179249D01*
X200214631Y-97179254D01*
X200274211Y-97349523D01*
X200368760Y-97499996D01*
X200370184Y-97502262D01*
X200497738Y-97629816D01*
X200555893Y-97666357D01*
X200588034Y-97686553D01*
X200634325Y-97738888D01*
X200644973Y-97807942D01*
X200616598Y-97871790D01*
X200566856Y-97907173D01*
X200548187Y-97914405D01*
X200473792Y-97943226D01*
X200473786Y-97943229D01*
X200288576Y-98057906D01*
X200288566Y-98057913D01*
X200127574Y-98204676D01*
X199996288Y-98378527D01*
X199899184Y-98573537D01*
X199839564Y-98783081D01*
X199819464Y-98999999D01*
X153000500Y-98999999D01*
X153000500Y-93499996D01*
X183194435Y-93499996D01*
X183194435Y-93500003D01*
X183214630Y-93679249D01*
X183214631Y-93679254D01*
X183274211Y-93849523D01*
X183370184Y-94002262D01*
X183497738Y-94129816D01*
X183650478Y-94225789D01*
X183820745Y-94285368D01*
X183820750Y-94285369D01*
X183999996Y-94305565D01*
X184000000Y-94305565D01*
X184000004Y-94305565D01*
X184179249Y-94285369D01*
X184179252Y-94285368D01*
X184179255Y-94285368D01*
X184349522Y-94225789D01*
X184502262Y-94129816D01*
X184629816Y-94002262D01*
X184725789Y-93849522D01*
X184785368Y-93679255D01*
X184805565Y-93500000D01*
X184805565Y-93499996D01*
X213194435Y-93499996D01*
X213194435Y-93500003D01*
X213214630Y-93679249D01*
X213214631Y-93679254D01*
X213274211Y-93849523D01*
X213370184Y-94002262D01*
X213497738Y-94129816D01*
X213650478Y-94225789D01*
X213820745Y-94285368D01*
X213820750Y-94285369D01*
X213999996Y-94305565D01*
X214000000Y-94305565D01*
X214000004Y-94305565D01*
X214179249Y-94285369D01*
X214179252Y-94285368D01*
X214179255Y-94285368D01*
X214349522Y-94225789D01*
X214502262Y-94129816D01*
X214629816Y-94002262D01*
X214725789Y-93849522D01*
X214785368Y-93679255D01*
X214805565Y-93500000D01*
X214785368Y-93320745D01*
X214725789Y-93150478D01*
X214629816Y-92997738D01*
X214502262Y-92870184D01*
X214399422Y-92805565D01*
X214349523Y-92774211D01*
X214179254Y-92714631D01*
X214179249Y-92714630D01*
X214000004Y-92694435D01*
X213999996Y-92694435D01*
X213820750Y-92714630D01*
X213820745Y-92714631D01*
X213650476Y-92774211D01*
X213497737Y-92870184D01*
X213370184Y-92997737D01*
X213274211Y-93150476D01*
X213214631Y-93320745D01*
X213214630Y-93320750D01*
X213194435Y-93499996D01*
X184805565Y-93499996D01*
X184785368Y-93320745D01*
X184725789Y-93150478D01*
X184629816Y-92997738D01*
X184502262Y-92870184D01*
X184399422Y-92805565D01*
X184349523Y-92774211D01*
X184179254Y-92714631D01*
X184179249Y-92714630D01*
X184000004Y-92694435D01*
X183999996Y-92694435D01*
X183820750Y-92714630D01*
X183820745Y-92714631D01*
X183650476Y-92774211D01*
X183497737Y-92870184D01*
X183370184Y-92997737D01*
X183274211Y-93150476D01*
X183214631Y-93320745D01*
X183214630Y-93320750D01*
X183194435Y-93499996D01*
X153000500Y-93499996D01*
X153000500Y-91999996D01*
X189694435Y-91999996D01*
X189694435Y-92000003D01*
X189714630Y-92179249D01*
X189714631Y-92179254D01*
X189774211Y-92349523D01*
X189870184Y-92502262D01*
X189997738Y-92629816D01*
X190088080Y-92686582D01*
X190132721Y-92714632D01*
X190150478Y-92725789D01*
X190288860Y-92774211D01*
X190320745Y-92785368D01*
X190320750Y-92785369D01*
X190499996Y-92805565D01*
X190500000Y-92805565D01*
X190500004Y-92805565D01*
X190679249Y-92785369D01*
X190679252Y-92785368D01*
X190679255Y-92785368D01*
X190849522Y-92725789D01*
X191002262Y-92629816D01*
X191129816Y-92502262D01*
X191225789Y-92349522D01*
X191285368Y-92179255D01*
X191305565Y-92000000D01*
X191305565Y-91999996D01*
X250694435Y-91999996D01*
X250694435Y-92000003D01*
X250714630Y-92179249D01*
X250714631Y-92179254D01*
X250774211Y-92349523D01*
X250870184Y-92502262D01*
X250997738Y-92629816D01*
X251088080Y-92686582D01*
X251132721Y-92714632D01*
X251150478Y-92725789D01*
X251288860Y-92774211D01*
X251320745Y-92785368D01*
X251320750Y-92785369D01*
X251499996Y-92805565D01*
X251500000Y-92805565D01*
X251500004Y-92805565D01*
X251679249Y-92785369D01*
X251679252Y-92785368D01*
X251679255Y-92785368D01*
X251849522Y-92725789D01*
X252002262Y-92629816D01*
X252129816Y-92502262D01*
X252225789Y-92349522D01*
X252285368Y-92179255D01*
X252305565Y-92000000D01*
X252298285Y-91935389D01*
X252285369Y-91820750D01*
X252285368Y-91820745D01*
X252237998Y-91685369D01*
X252225789Y-91650478D01*
X252129816Y-91497738D01*
X252002262Y-91370184D01*
X251899422Y-91305565D01*
X251849523Y-91274211D01*
X251679254Y-91214631D01*
X251679249Y-91214630D01*
X251500004Y-91194435D01*
X251499996Y-91194435D01*
X251320750Y-91214630D01*
X251320745Y-91214631D01*
X251150476Y-91274211D01*
X250997737Y-91370184D01*
X250870184Y-91497737D01*
X250774211Y-91650476D01*
X250714631Y-91820745D01*
X250714630Y-91820750D01*
X250694435Y-91999996D01*
X191305565Y-91999996D01*
X191298285Y-91935388D01*
X191310339Y-91866567D01*
X191357688Y-91815188D01*
X191425298Y-91797563D01*
X191435385Y-91798284D01*
X191461857Y-91801267D01*
X191499998Y-91805565D01*
X191500000Y-91805565D01*
X191500004Y-91805565D01*
X191679249Y-91785369D01*
X191679252Y-91785368D01*
X191679255Y-91785368D01*
X191849522Y-91725789D01*
X192002262Y-91629816D01*
X192129816Y-91502262D01*
X192225789Y-91349522D01*
X192285368Y-91179255D01*
X192290531Y-91133433D01*
X192305565Y-91000003D01*
X192305565Y-90999996D01*
X192294298Y-90899996D01*
X226294435Y-90899996D01*
X226294435Y-90900003D01*
X226314630Y-91079249D01*
X226314631Y-91079254D01*
X226374211Y-91249523D01*
X226396735Y-91285369D01*
X226470184Y-91402262D01*
X226597738Y-91529816D01*
X226750478Y-91625789D01*
X226920745Y-91685368D01*
X226920750Y-91685369D01*
X227099996Y-91705565D01*
X227100000Y-91705565D01*
X227100004Y-91705565D01*
X227279249Y-91685369D01*
X227279252Y-91685368D01*
X227279255Y-91685368D01*
X227449522Y-91625789D01*
X227602262Y-91529816D01*
X227729816Y-91402262D01*
X227825789Y-91249522D01*
X227885368Y-91079255D01*
X227894043Y-91002262D01*
X227905565Y-90900003D01*
X227905565Y-90899996D01*
X227885369Y-90720750D01*
X227885368Y-90720745D01*
X227870848Y-90679249D01*
X227825789Y-90550478D01*
X227729816Y-90397738D01*
X227602262Y-90270184D01*
X227513852Y-90214632D01*
X227449523Y-90174211D01*
X227279254Y-90114631D01*
X227279249Y-90114630D01*
X227100004Y-90094435D01*
X227099996Y-90094435D01*
X226920750Y-90114630D01*
X226920745Y-90114631D01*
X226750476Y-90174211D01*
X226597737Y-90270184D01*
X226470184Y-90397737D01*
X226374211Y-90550476D01*
X226314631Y-90720745D01*
X226314630Y-90720750D01*
X226294435Y-90899996D01*
X192294298Y-90899996D01*
X192285369Y-90820750D01*
X192285368Y-90820745D01*
X192250376Y-90720745D01*
X192225789Y-90650478D01*
X192129816Y-90497738D01*
X192002262Y-90370184D01*
X191849523Y-90274211D01*
X191679254Y-90214631D01*
X191679249Y-90214630D01*
X191500004Y-90194435D01*
X191499996Y-90194435D01*
X191320750Y-90214630D01*
X191320745Y-90214631D01*
X191150476Y-90274211D01*
X190997737Y-90370184D01*
X190870184Y-90497737D01*
X190774211Y-90650476D01*
X190714631Y-90820745D01*
X190714630Y-90820750D01*
X190694435Y-90999996D01*
X190694435Y-91000004D01*
X190701714Y-91064611D01*
X190689659Y-91133433D01*
X190642310Y-91184812D01*
X190574699Y-91202436D01*
X190564611Y-91201714D01*
X190500004Y-91194435D01*
X190499996Y-91194435D01*
X190320750Y-91214630D01*
X190320745Y-91214631D01*
X190150476Y-91274211D01*
X189997737Y-91370184D01*
X189870184Y-91497737D01*
X189774211Y-91650476D01*
X189714631Y-91820745D01*
X189714630Y-91820750D01*
X189694435Y-91999996D01*
X153000500Y-91999996D01*
X153000500Y-90499996D01*
X162281935Y-90499996D01*
X162281935Y-90500003D01*
X162302130Y-90679249D01*
X162302131Y-90679254D01*
X162361711Y-90849523D01*
X162393426Y-90899996D01*
X162457684Y-91002262D01*
X162585238Y-91129816D01*
X162663910Y-91179249D01*
X162720221Y-91214632D01*
X162737978Y-91225789D01*
X162805806Y-91249523D01*
X162908245Y-91285368D01*
X162908250Y-91285369D01*
X163087496Y-91305565D01*
X163087500Y-91305565D01*
X163087504Y-91305565D01*
X163266749Y-91285369D01*
X163266752Y-91285368D01*
X163266755Y-91285368D01*
X163437022Y-91225789D01*
X163589762Y-91129816D01*
X163717316Y-91002262D01*
X163813289Y-90849522D01*
X163872868Y-90679255D01*
X163872869Y-90679249D01*
X163893065Y-90500003D01*
X163893065Y-90499996D01*
X163872869Y-90320750D01*
X163872868Y-90320745D01*
X163828670Y-90194435D01*
X163813289Y-90150478D01*
X163790765Y-90114632D01*
X163717315Y-89997737D01*
X163589762Y-89870184D01*
X163437023Y-89774211D01*
X163266754Y-89714631D01*
X163266749Y-89714630D01*
X163087504Y-89694435D01*
X163087496Y-89694435D01*
X162908250Y-89714630D01*
X162908245Y-89714631D01*
X162737976Y-89774211D01*
X162585237Y-89870184D01*
X162457684Y-89997737D01*
X162361711Y-90150476D01*
X162302131Y-90320745D01*
X162302130Y-90320750D01*
X162281935Y-90499996D01*
X153000500Y-90499996D01*
X153000500Y-87999997D01*
X164332252Y-87999997D01*
X164332252Y-88000002D01*
X164351186Y-88168053D01*
X164351187Y-88168056D01*
X164407045Y-88327691D01*
X164411027Y-88334028D01*
X164430027Y-88401265D01*
X164411027Y-88465970D01*
X164407045Y-88472306D01*
X164351187Y-88631941D01*
X164351186Y-88631944D01*
X164332252Y-88799995D01*
X164332252Y-88800000D01*
X164351186Y-88968051D01*
X164351187Y-88968054D01*
X164407045Y-89127689D01*
X164468685Y-89225788D01*
X164497023Y-89270887D01*
X164616611Y-89390475D01*
X164759810Y-89480453D01*
X164919442Y-89536310D01*
X164919443Y-89536310D01*
X164919446Y-89536311D01*
X165087497Y-89555246D01*
X165087500Y-89555246D01*
X165087503Y-89555246D01*
X165255553Y-89536311D01*
X165255554Y-89536310D01*
X165255558Y-89536310D01*
X165415190Y-89480453D01*
X165558389Y-89390475D01*
X165677977Y-89270887D01*
X165767955Y-89127688D01*
X165823812Y-88968056D01*
X165840411Y-88820745D01*
X165842748Y-88800000D01*
X165842748Y-88799995D01*
X165823813Y-88631944D01*
X165823812Y-88631941D01*
X165823812Y-88631940D01*
X165767955Y-88472308D01*
X165763974Y-88465973D01*
X165744973Y-88398738D01*
X165763975Y-88334024D01*
X165767955Y-88327690D01*
X165823812Y-88168058D01*
X165829219Y-88120077D01*
X165842748Y-88000002D01*
X165842748Y-87999997D01*
X165823813Y-87831946D01*
X165823812Y-87831943D01*
X165819895Y-87820750D01*
X165767955Y-87672310D01*
X165677977Y-87529111D01*
X165558389Y-87409523D01*
X165495785Y-87370186D01*
X165415191Y-87319545D01*
X165255556Y-87263687D01*
X165255553Y-87263686D01*
X165087503Y-87244752D01*
X165087497Y-87244752D01*
X164919446Y-87263686D01*
X164919443Y-87263687D01*
X164759808Y-87319545D01*
X164616610Y-87409523D01*
X164497023Y-87529110D01*
X164407045Y-87672308D01*
X164351187Y-87831943D01*
X164351186Y-87831946D01*
X164332252Y-87999997D01*
X153000500Y-87999997D01*
X153000500Y-86999996D01*
X154281935Y-86999996D01*
X154281935Y-87000003D01*
X154302130Y-87179249D01*
X154302131Y-87179254D01*
X154361711Y-87349523D01*
X154374695Y-87370186D01*
X154457684Y-87502262D01*
X154585238Y-87629816D01*
X154652864Y-87672308D01*
X154720221Y-87714632D01*
X154737978Y-87725789D01*
X154876360Y-87774211D01*
X154908245Y-87785368D01*
X154908250Y-87785369D01*
X155087496Y-87805565D01*
X155087500Y-87805565D01*
X155087504Y-87805565D01*
X155266749Y-87785369D01*
X155266752Y-87785368D01*
X155266755Y-87785368D01*
X155437022Y-87725789D01*
X155589762Y-87629816D01*
X155717316Y-87502262D01*
X155813289Y-87349522D01*
X155872868Y-87179255D01*
X155873938Y-87169758D01*
X155893065Y-87000003D01*
X155893065Y-86999996D01*
X155872869Y-86820750D01*
X155872868Y-86820745D01*
X155835737Y-86714630D01*
X155813289Y-86650478D01*
X155718735Y-86499996D01*
X162281935Y-86499996D01*
X162281935Y-86500003D01*
X162302130Y-86679249D01*
X162302131Y-86679254D01*
X162361711Y-86849523D01*
X162454841Y-86997737D01*
X162457684Y-87002262D01*
X162585238Y-87129816D01*
X162737978Y-87225789D01*
X162876360Y-87274211D01*
X162908245Y-87285368D01*
X162908250Y-87285369D01*
X163087496Y-87305565D01*
X163087500Y-87305565D01*
X163087504Y-87305565D01*
X163266749Y-87285369D01*
X163266752Y-87285368D01*
X163266755Y-87285368D01*
X163437022Y-87225789D01*
X163589762Y-87129816D01*
X163717316Y-87002262D01*
X163813289Y-86849522D01*
X163872868Y-86679255D01*
X163873501Y-86673636D01*
X163893065Y-86500003D01*
X163893065Y-86499996D01*
X163872869Y-86320750D01*
X163872868Y-86320745D01*
X163835737Y-86214630D01*
X163813289Y-86150478D01*
X163717316Y-85997738D01*
X163589762Y-85870184D01*
X163550621Y-85845590D01*
X163437023Y-85774211D01*
X163266754Y-85714631D01*
X163266749Y-85714630D01*
X163087504Y-85694435D01*
X163087496Y-85694435D01*
X162908250Y-85714630D01*
X162908245Y-85714631D01*
X162737976Y-85774211D01*
X162585237Y-85870184D01*
X162457684Y-85997737D01*
X162361711Y-86150476D01*
X162302131Y-86320745D01*
X162302130Y-86320750D01*
X162281935Y-86499996D01*
X155718735Y-86499996D01*
X155717316Y-86497738D01*
X155589762Y-86370184D01*
X155437023Y-86274211D01*
X155266754Y-86214631D01*
X155266749Y-86214630D01*
X155087504Y-86194435D01*
X155087496Y-86194435D01*
X154908250Y-86214630D01*
X154908245Y-86214631D01*
X154737976Y-86274211D01*
X154585237Y-86370184D01*
X154457684Y-86497737D01*
X154361711Y-86650476D01*
X154302131Y-86820745D01*
X154302130Y-86820750D01*
X154281935Y-86999996D01*
X153000500Y-86999996D01*
X153000500Y-84999996D01*
X154194435Y-84999996D01*
X154194435Y-85000003D01*
X154214630Y-85179249D01*
X154214631Y-85179254D01*
X154274211Y-85349523D01*
X154291756Y-85377445D01*
X154370184Y-85502262D01*
X154497738Y-85629816D01*
X154565959Y-85672682D01*
X154632721Y-85714632D01*
X154650478Y-85725789D01*
X154788860Y-85774211D01*
X154820745Y-85785368D01*
X154820750Y-85785369D01*
X154999996Y-85805565D01*
X155000000Y-85805565D01*
X155000004Y-85805565D01*
X155179249Y-85785369D01*
X155179252Y-85785368D01*
X155179255Y-85785368D01*
X155349522Y-85725789D01*
X155502262Y-85629816D01*
X155629816Y-85502262D01*
X155631240Y-85499996D01*
X182694435Y-85499996D01*
X182694435Y-85500003D01*
X182714630Y-85679249D01*
X182714631Y-85679254D01*
X182774211Y-85849523D01*
X182867341Y-85997737D01*
X182870184Y-86002262D01*
X182997738Y-86129816D01*
X183030625Y-86150480D01*
X183132721Y-86214632D01*
X183150478Y-86225789D01*
X183202065Y-86243840D01*
X183320745Y-86285368D01*
X183320750Y-86285369D01*
X183499996Y-86305565D01*
X183500000Y-86305565D01*
X183500004Y-86305565D01*
X183679249Y-86285369D01*
X183679252Y-86285368D01*
X183679255Y-86285368D01*
X183849522Y-86225789D01*
X184002262Y-86129816D01*
X184129816Y-86002262D01*
X184225789Y-85849522D01*
X184285368Y-85679255D01*
X184285368Y-85679254D01*
X184287668Y-85672682D01*
X184290370Y-85673627D01*
X184318176Y-85623882D01*
X184379827Y-85591005D01*
X184449466Y-85596678D01*
X184492667Y-85624745D01*
X184497738Y-85629816D01*
X184565959Y-85672682D01*
X184632721Y-85714632D01*
X184650478Y-85725789D01*
X184788860Y-85774211D01*
X184820745Y-85785368D01*
X184820750Y-85785369D01*
X184999996Y-85805565D01*
X185000000Y-85805565D01*
X185000003Y-85805565D01*
X185152862Y-85788342D01*
X185221684Y-85800396D01*
X185271740Y-85845590D01*
X185370184Y-86002262D01*
X185375254Y-86007332D01*
X185408739Y-86068655D01*
X185403755Y-86138347D01*
X185361883Y-86194280D01*
X185326703Y-86210577D01*
X185327318Y-86212332D01*
X185150476Y-86274211D01*
X184997737Y-86370184D01*
X184870184Y-86497737D01*
X184774211Y-86650476D01*
X184714631Y-86820745D01*
X184714630Y-86820750D01*
X184694435Y-86999996D01*
X184694435Y-87000003D01*
X184714630Y-87179249D01*
X184714631Y-87179254D01*
X184774211Y-87349523D01*
X184787195Y-87370186D01*
X184870184Y-87502262D01*
X184997738Y-87629816D01*
X185065364Y-87672308D01*
X185132721Y-87714632D01*
X185150478Y-87725789D01*
X185288860Y-87774211D01*
X185327318Y-87787668D01*
X185326373Y-87790367D01*
X185376132Y-87818192D01*
X185408998Y-87879848D01*
X185403313Y-87949486D01*
X185375259Y-87992663D01*
X185370183Y-87997738D01*
X185274211Y-88150476D01*
X185214631Y-88320745D01*
X185214630Y-88320750D01*
X185194435Y-88499996D01*
X185194435Y-88500003D01*
X185214630Y-88679249D01*
X185214631Y-88679254D01*
X185274211Y-88849523D01*
X185348688Y-88968051D01*
X185370184Y-89002262D01*
X185497738Y-89129816D01*
X185650478Y-89225789D01*
X185779361Y-89270887D01*
X185820745Y-89285368D01*
X185820750Y-89285369D01*
X185999996Y-89305565D01*
X186000000Y-89305565D01*
X186000004Y-89305565D01*
X186179249Y-89285369D01*
X186179252Y-89285368D01*
X186179255Y-89285368D01*
X186349522Y-89225789D01*
X186502262Y-89129816D01*
X186629816Y-89002262D01*
X186631240Y-88999996D01*
X213194435Y-88999996D01*
X213194435Y-89000003D01*
X213214630Y-89179249D01*
X213214631Y-89179254D01*
X213274211Y-89349523D01*
X213356480Y-89480452D01*
X213370184Y-89502262D01*
X213497738Y-89629816D01*
X213588080Y-89686582D01*
X213632721Y-89714632D01*
X213650478Y-89725789D01*
X213788860Y-89774211D01*
X213820745Y-89785368D01*
X213820750Y-89785369D01*
X213999996Y-89805565D01*
X214000000Y-89805565D01*
X214000004Y-89805565D01*
X214179249Y-89785369D01*
X214179252Y-89785368D01*
X214179255Y-89785368D01*
X214349522Y-89725789D01*
X214502262Y-89629816D01*
X214629816Y-89502262D01*
X214725789Y-89349522D01*
X214785368Y-89179255D01*
X214785369Y-89179249D01*
X214805565Y-89000003D01*
X214805565Y-88999996D01*
X214785369Y-88820750D01*
X214785368Y-88820745D01*
X214752141Y-88725788D01*
X214725789Y-88650478D01*
X214714141Y-88631941D01*
X214686582Y-88588080D01*
X214629816Y-88497738D01*
X214502262Y-88370184D01*
X214434635Y-88327691D01*
X214349523Y-88274211D01*
X214179254Y-88214631D01*
X214179249Y-88214630D01*
X214000004Y-88194435D01*
X213999996Y-88194435D01*
X213820750Y-88214630D01*
X213820745Y-88214631D01*
X213650476Y-88274211D01*
X213497737Y-88370184D01*
X213370184Y-88497737D01*
X213274211Y-88650476D01*
X213214631Y-88820745D01*
X213214630Y-88820750D01*
X213194435Y-88999996D01*
X186631240Y-88999996D01*
X186725789Y-88849522D01*
X186785368Y-88679255D01*
X186785369Y-88679249D01*
X186805565Y-88500003D01*
X186805565Y-88499996D01*
X186785369Y-88320750D01*
X186785368Y-88320745D01*
X186748237Y-88214630D01*
X186725789Y-88150478D01*
X186629816Y-87997738D01*
X186502262Y-87870184D01*
X186441402Y-87831943D01*
X186349523Y-87774211D01*
X186172682Y-87712332D01*
X186173622Y-87709644D01*
X186123814Y-87681754D01*
X186090985Y-87620077D01*
X186096713Y-87550442D01*
X186124745Y-87507332D01*
X186129816Y-87502262D01*
X186225789Y-87349522D01*
X186285368Y-87179255D01*
X186286438Y-87169758D01*
X186305565Y-87000003D01*
X186305565Y-86999996D01*
X186285369Y-86820750D01*
X186285368Y-86820745D01*
X186248237Y-86714630D01*
X186225789Y-86650478D01*
X186131235Y-86499996D01*
X189194435Y-86499996D01*
X189194435Y-86500003D01*
X189214630Y-86679249D01*
X189214631Y-86679254D01*
X189274211Y-86849523D01*
X189367341Y-86997737D01*
X189370184Y-87002262D01*
X189497738Y-87129816D01*
X189521911Y-87145005D01*
X189521913Y-87145006D01*
X189568204Y-87197341D01*
X189578852Y-87266395D01*
X189550477Y-87330243D01*
X189521913Y-87354994D01*
X189497737Y-87370184D01*
X189370184Y-87497737D01*
X189274211Y-87650476D01*
X189214631Y-87820745D01*
X189214630Y-87820750D01*
X189194435Y-87999996D01*
X189194435Y-88000003D01*
X189214630Y-88179249D01*
X189214631Y-88179254D01*
X189274211Y-88349523D01*
X189347380Y-88465970D01*
X189370184Y-88502262D01*
X189497738Y-88629816D01*
X189650478Y-88725789D01*
X189820745Y-88785368D01*
X189820750Y-88785369D01*
X189999996Y-88805565D01*
X190000000Y-88805565D01*
X190000004Y-88805565D01*
X190179249Y-88785369D01*
X190179252Y-88785368D01*
X190179255Y-88785368D01*
X190349522Y-88725789D01*
X190502262Y-88629816D01*
X190629816Y-88502262D01*
X190725789Y-88349522D01*
X190785368Y-88179255D01*
X190786630Y-88168053D01*
X190805565Y-88000003D01*
X190805565Y-87999996D01*
X190785369Y-87820750D01*
X190785368Y-87820745D01*
X190748237Y-87714632D01*
X190725789Y-87650478D01*
X190631235Y-87499996D01*
X219694436Y-87499996D01*
X219694436Y-87500003D01*
X219714631Y-87679249D01*
X219714632Y-87679254D01*
X219774212Y-87849523D01*
X219864154Y-87992663D01*
X219870185Y-88002262D01*
X219997739Y-88129816D01*
X220058593Y-88168053D01*
X220132722Y-88214632D01*
X220150479Y-88225789D01*
X220288861Y-88274211D01*
X220320746Y-88285368D01*
X220320751Y-88285369D01*
X220499997Y-88305565D01*
X220500001Y-88305565D01*
X220500005Y-88305565D01*
X220679250Y-88285369D01*
X220679253Y-88285368D01*
X220679256Y-88285368D01*
X220849523Y-88225789D01*
X221002263Y-88129816D01*
X221129817Y-88002262D01*
X221225790Y-87849522D01*
X221285369Y-87679255D01*
X221286152Y-87672308D01*
X221305566Y-87500003D01*
X221305566Y-87499996D01*
X225194435Y-87499996D01*
X225194435Y-87500003D01*
X225214630Y-87679249D01*
X225214631Y-87679254D01*
X225274211Y-87849523D01*
X225364153Y-87992663D01*
X225370184Y-88002262D01*
X225497738Y-88129816D01*
X225558592Y-88168053D01*
X225632721Y-88214632D01*
X225650478Y-88225789D01*
X225788860Y-88274211D01*
X225827318Y-88287668D01*
X225826373Y-88290367D01*
X225876132Y-88318192D01*
X225908998Y-88379848D01*
X225903313Y-88449486D01*
X225875259Y-88492663D01*
X225870183Y-88497738D01*
X225774211Y-88650476D01*
X225714631Y-88820745D01*
X225714630Y-88820750D01*
X225694435Y-88999996D01*
X225694435Y-89000003D01*
X225714630Y-89179249D01*
X225714631Y-89179254D01*
X225774211Y-89349523D01*
X225856480Y-89480452D01*
X225870184Y-89502262D01*
X225997738Y-89629816D01*
X226088080Y-89686582D01*
X226132721Y-89714632D01*
X226150478Y-89725789D01*
X226288860Y-89774211D01*
X226320745Y-89785368D01*
X226320750Y-89785369D01*
X226499996Y-89805565D01*
X226500000Y-89805565D01*
X226500004Y-89805565D01*
X226679249Y-89785369D01*
X226679252Y-89785368D01*
X226679255Y-89785368D01*
X226849522Y-89725789D01*
X227002262Y-89629816D01*
X227129816Y-89502262D01*
X227225789Y-89349522D01*
X227285368Y-89179255D01*
X227285369Y-89179249D01*
X227305565Y-89000003D01*
X227305565Y-88999996D01*
X227285369Y-88820750D01*
X227285368Y-88820745D01*
X227252141Y-88725788D01*
X227225789Y-88650478D01*
X227214141Y-88631941D01*
X227186582Y-88588080D01*
X227129816Y-88497738D01*
X227002262Y-88370184D01*
X226934635Y-88327691D01*
X226849523Y-88274211D01*
X226672682Y-88212332D01*
X226673622Y-88209644D01*
X226623814Y-88181754D01*
X226590985Y-88120077D01*
X226596713Y-88050442D01*
X226624745Y-88007332D01*
X226629816Y-88002262D01*
X226725789Y-87849522D01*
X226785368Y-87679255D01*
X226786151Y-87672308D01*
X226805565Y-87500003D01*
X226805565Y-87499996D01*
X226785369Y-87320750D01*
X226785368Y-87320745D01*
X226765403Y-87263688D01*
X226725789Y-87150478D01*
X226629816Y-86997738D01*
X226502262Y-86870184D01*
X226469377Y-86849521D01*
X226349523Y-86774211D01*
X226179254Y-86714631D01*
X226179249Y-86714630D01*
X226000004Y-86694435D01*
X225999996Y-86694435D01*
X225820750Y-86714630D01*
X225820745Y-86714631D01*
X225650476Y-86774211D01*
X225497737Y-86870184D01*
X225370184Y-86997737D01*
X225274211Y-87150476D01*
X225214631Y-87320745D01*
X225214630Y-87320750D01*
X225194435Y-87499996D01*
X221305566Y-87499996D01*
X221285370Y-87320750D01*
X221285369Y-87320745D01*
X221265404Y-87263688D01*
X221225790Y-87150478D01*
X221129817Y-86997738D01*
X221002263Y-86870184D01*
X220969378Y-86849521D01*
X220849524Y-86774211D01*
X220679255Y-86714631D01*
X220679250Y-86714630D01*
X220500005Y-86694435D01*
X220499997Y-86694435D01*
X220320751Y-86714630D01*
X220320746Y-86714631D01*
X220150477Y-86774211D01*
X219997738Y-86870184D01*
X219870185Y-86997737D01*
X219774212Y-87150476D01*
X219714632Y-87320745D01*
X219714631Y-87320750D01*
X219694436Y-87499996D01*
X190631235Y-87499996D01*
X190629816Y-87497738D01*
X190502262Y-87370184D01*
X190478084Y-87354992D01*
X190431796Y-87302661D01*
X190421146Y-87233607D01*
X190449521Y-87169758D01*
X190478082Y-87145009D01*
X190502262Y-87129816D01*
X190629816Y-87002262D01*
X190725789Y-86849522D01*
X190785368Y-86679255D01*
X190786001Y-86673636D01*
X190805565Y-86500003D01*
X190805565Y-86499996D01*
X190785369Y-86320750D01*
X190785368Y-86320745D01*
X190748237Y-86214630D01*
X190725789Y-86150478D01*
X190631235Y-85999996D01*
X192694435Y-85999996D01*
X192694435Y-86000003D01*
X192714630Y-86179249D01*
X192714631Y-86179254D01*
X192774211Y-86349523D01*
X192825623Y-86431344D01*
X192870184Y-86502262D01*
X192997738Y-86629816D01*
X193067477Y-86673636D01*
X193132721Y-86714632D01*
X193150478Y-86725789D01*
X193288860Y-86774211D01*
X193320745Y-86785368D01*
X193320750Y-86785369D01*
X193499996Y-86805565D01*
X193500000Y-86805565D01*
X193500004Y-86805565D01*
X193679249Y-86785369D01*
X193679252Y-86785368D01*
X193679255Y-86785368D01*
X193849522Y-86725789D01*
X194002262Y-86629816D01*
X194129816Y-86502262D01*
X194225789Y-86349522D01*
X194285368Y-86179255D01*
X194288610Y-86150480D01*
X194305565Y-86000003D01*
X194305565Y-85999996D01*
X215694435Y-85999996D01*
X215694435Y-86000003D01*
X215714630Y-86179249D01*
X215714631Y-86179254D01*
X215774211Y-86349523D01*
X215825623Y-86431344D01*
X215870184Y-86502262D01*
X215997738Y-86629816D01*
X216067477Y-86673636D01*
X216132721Y-86714632D01*
X216150478Y-86725789D01*
X216288860Y-86774211D01*
X216320745Y-86785368D01*
X216320750Y-86785369D01*
X216499996Y-86805565D01*
X216500000Y-86805565D01*
X216500004Y-86805565D01*
X216679249Y-86785369D01*
X216679252Y-86785368D01*
X216679255Y-86785368D01*
X216849522Y-86725789D01*
X217002262Y-86629816D01*
X217129816Y-86502262D01*
X217225789Y-86349522D01*
X217285368Y-86179255D01*
X217288610Y-86150480D01*
X217305565Y-86000003D01*
X217305565Y-85999996D01*
X217285369Y-85820750D01*
X217285368Y-85820745D01*
X217269085Y-85774211D01*
X217225789Y-85650478D01*
X217129816Y-85497738D01*
X217002262Y-85370184D01*
X216969379Y-85349522D01*
X216849523Y-85274211D01*
X216679254Y-85214631D01*
X216679249Y-85214630D01*
X216500004Y-85194435D01*
X216499996Y-85194435D01*
X216320750Y-85214630D01*
X216320745Y-85214631D01*
X216150476Y-85274211D01*
X215997737Y-85370184D01*
X215870184Y-85497737D01*
X215774211Y-85650476D01*
X215714631Y-85820745D01*
X215714630Y-85820750D01*
X215694435Y-85999996D01*
X194305565Y-85999996D01*
X194285369Y-85820750D01*
X194285368Y-85820745D01*
X194269085Y-85774211D01*
X194225789Y-85650478D01*
X194129816Y-85497738D01*
X194002262Y-85370184D01*
X193969379Y-85349522D01*
X193849523Y-85274211D01*
X193679254Y-85214631D01*
X193679249Y-85214630D01*
X193500004Y-85194435D01*
X193499996Y-85194435D01*
X193320750Y-85214630D01*
X193320745Y-85214631D01*
X193150476Y-85274211D01*
X192997737Y-85370184D01*
X192870184Y-85497737D01*
X192774211Y-85650476D01*
X192714631Y-85820745D01*
X192714630Y-85820750D01*
X192694435Y-85999996D01*
X190631235Y-85999996D01*
X190629816Y-85997738D01*
X190502262Y-85870184D01*
X190463121Y-85845590D01*
X190349523Y-85774211D01*
X190179254Y-85714631D01*
X190179249Y-85714630D01*
X190000004Y-85694435D01*
X189999996Y-85694435D01*
X189820750Y-85714630D01*
X189820745Y-85714631D01*
X189650476Y-85774211D01*
X189497737Y-85870184D01*
X189370184Y-85997737D01*
X189274211Y-86150476D01*
X189214631Y-86320745D01*
X189214630Y-86320750D01*
X189194435Y-86499996D01*
X186131235Y-86499996D01*
X186129816Y-86497738D01*
X186124745Y-86492667D01*
X186091260Y-86431344D01*
X186096244Y-86361652D01*
X186138116Y-86305719D01*
X186173301Y-86289439D01*
X186172682Y-86287668D01*
X186179255Y-86285368D01*
X186349522Y-86225789D01*
X186502262Y-86129816D01*
X186629816Y-86002262D01*
X186725789Y-85849522D01*
X186785368Y-85679255D01*
X186786109Y-85672682D01*
X186805565Y-85500003D01*
X186805565Y-85499996D01*
X186785369Y-85320750D01*
X186785368Y-85320745D01*
X186741170Y-85194435D01*
X186725789Y-85150478D01*
X186709622Y-85124749D01*
X186686582Y-85088080D01*
X186629816Y-84997738D01*
X186502262Y-84870184D01*
X186469379Y-84849522D01*
X186349523Y-84774211D01*
X186179254Y-84714631D01*
X186179249Y-84714630D01*
X186000004Y-84694435D01*
X185999996Y-84694435D01*
X185847136Y-84711657D01*
X185778314Y-84699602D01*
X185728259Y-84654409D01*
X185646184Y-84523788D01*
X185629816Y-84497738D01*
X185502262Y-84370184D01*
X185489043Y-84361878D01*
X185349523Y-84274211D01*
X185179254Y-84214631D01*
X185179249Y-84214630D01*
X185000004Y-84194435D01*
X184999996Y-84194435D01*
X184820750Y-84214630D01*
X184820745Y-84214631D01*
X184650476Y-84274211D01*
X184497737Y-84370184D01*
X184370184Y-84497737D01*
X184274211Y-84650476D01*
X184212332Y-84827318D01*
X184209648Y-84826378D01*
X184181738Y-84876200D01*
X184120055Y-84909018D01*
X184050422Y-84903278D01*
X184007332Y-84875254D01*
X184002262Y-84870184D01*
X183849523Y-84774211D01*
X183679254Y-84714631D01*
X183679249Y-84714630D01*
X183500004Y-84694435D01*
X183499996Y-84694435D01*
X183320750Y-84714630D01*
X183320745Y-84714631D01*
X183150476Y-84774211D01*
X182997737Y-84870184D01*
X182870184Y-84997737D01*
X182774211Y-85150476D01*
X182714631Y-85320745D01*
X182714630Y-85320750D01*
X182694435Y-85499996D01*
X155631240Y-85499996D01*
X155725789Y-85349522D01*
X155785368Y-85179255D01*
X155785369Y-85179249D01*
X155805565Y-85000003D01*
X155805565Y-84999996D01*
X155785369Y-84820750D01*
X155785368Y-84820745D01*
X155769085Y-84774211D01*
X155725789Y-84650478D01*
X155629816Y-84497738D01*
X155502262Y-84370184D01*
X155489043Y-84361878D01*
X155349523Y-84274211D01*
X155179254Y-84214631D01*
X155179249Y-84214630D01*
X155000004Y-84194435D01*
X154999996Y-84194435D01*
X154820750Y-84214630D01*
X154820745Y-84214631D01*
X154650476Y-84274211D01*
X154497737Y-84370184D01*
X154370184Y-84497737D01*
X154274211Y-84650476D01*
X154214631Y-84820745D01*
X154214630Y-84820750D01*
X154194435Y-84999996D01*
X153000500Y-84999996D01*
X153000500Y-83499996D01*
X187194435Y-83499996D01*
X187194435Y-83500003D01*
X187214630Y-83679249D01*
X187214631Y-83679254D01*
X187274211Y-83849523D01*
X187365627Y-83995010D01*
X187370184Y-84002262D01*
X187497738Y-84129816D01*
X187632719Y-84214630D01*
X187654409Y-84228259D01*
X187700700Y-84280594D01*
X187711657Y-84347136D01*
X187694435Y-84499995D01*
X187694435Y-84500003D01*
X187714630Y-84679249D01*
X187714631Y-84679254D01*
X187774211Y-84849523D01*
X187843398Y-84959633D01*
X187870184Y-85002262D01*
X187997738Y-85129816D01*
X188065959Y-85172682D01*
X188132721Y-85214632D01*
X188150478Y-85225789D01*
X188288860Y-85274211D01*
X188320745Y-85285368D01*
X188320750Y-85285369D01*
X188499996Y-85305565D01*
X188500000Y-85305565D01*
X188500004Y-85305565D01*
X188679249Y-85285369D01*
X188679252Y-85285368D01*
X188679255Y-85285368D01*
X188849522Y-85225789D01*
X188867279Y-85214632D01*
X188934027Y-85172691D01*
X189001264Y-85153690D01*
X189065973Y-85172691D01*
X189150475Y-85225788D01*
X189320745Y-85285368D01*
X189320750Y-85285369D01*
X189499996Y-85305565D01*
X189500000Y-85305565D01*
X189500004Y-85305565D01*
X189679249Y-85285369D01*
X189679252Y-85285368D01*
X189679255Y-85285368D01*
X189849522Y-85225789D01*
X190002262Y-85129816D01*
X190129816Y-85002262D01*
X190225789Y-84849522D01*
X190285368Y-84679255D01*
X190285369Y-84679249D01*
X190305565Y-84500003D01*
X190305565Y-84499996D01*
X195694435Y-84499996D01*
X195694435Y-84500003D01*
X195714630Y-84679249D01*
X195714631Y-84679254D01*
X195774211Y-84849523D01*
X195843398Y-84959633D01*
X195870184Y-85002262D01*
X195997738Y-85129816D01*
X196065959Y-85172682D01*
X196132721Y-85214632D01*
X196150478Y-85225789D01*
X196288860Y-85274211D01*
X196320745Y-85285368D01*
X196320750Y-85285369D01*
X196499996Y-85305565D01*
X196500000Y-85305565D01*
X196500004Y-85305565D01*
X196679249Y-85285369D01*
X196679252Y-85285368D01*
X196679255Y-85285368D01*
X196849522Y-85225789D01*
X197002262Y-85129816D01*
X197007331Y-85124746D01*
X197068649Y-85091261D01*
X197138341Y-85096242D01*
X197194276Y-85138111D01*
X197210573Y-85173297D01*
X197212332Y-85172682D01*
X197274211Y-85349523D01*
X197291756Y-85377445D01*
X197370184Y-85502262D01*
X197497738Y-85629816D01*
X197565959Y-85672682D01*
X197632721Y-85714632D01*
X197650478Y-85725789D01*
X197788860Y-85774211D01*
X197820745Y-85785368D01*
X197820750Y-85785369D01*
X197999996Y-85805565D01*
X198000000Y-85805565D01*
X198000004Y-85805565D01*
X198179249Y-85785369D01*
X198179252Y-85785368D01*
X198179255Y-85785368D01*
X198349522Y-85725789D01*
X198502262Y-85629816D01*
X198629816Y-85502262D01*
X198725789Y-85349522D01*
X198785368Y-85179255D01*
X198785369Y-85179249D01*
X198805565Y-85000003D01*
X198805565Y-84999996D01*
X226694435Y-84999996D01*
X226694435Y-85000003D01*
X226714630Y-85179249D01*
X226714631Y-85179254D01*
X226774211Y-85349523D01*
X226791756Y-85377445D01*
X226870184Y-85502262D01*
X226997738Y-85629816D01*
X227065959Y-85672682D01*
X227132721Y-85714632D01*
X227150478Y-85725789D01*
X227288860Y-85774211D01*
X227320745Y-85785368D01*
X227320750Y-85785369D01*
X227499996Y-85805565D01*
X227500000Y-85805565D01*
X227500004Y-85805565D01*
X227679249Y-85785369D01*
X227679252Y-85785368D01*
X227679255Y-85785368D01*
X227849522Y-85725789D01*
X228002262Y-85629816D01*
X228129816Y-85502262D01*
X228225789Y-85349522D01*
X228285368Y-85179255D01*
X228285369Y-85179249D01*
X228305565Y-85000003D01*
X228305565Y-84999996D01*
X228285369Y-84820750D01*
X228285368Y-84820745D01*
X228269085Y-84774211D01*
X228225789Y-84650478D01*
X228129816Y-84497738D01*
X228002262Y-84370184D01*
X227989043Y-84361878D01*
X227849523Y-84274211D01*
X227679254Y-84214631D01*
X227679249Y-84214630D01*
X227500004Y-84194435D01*
X227499996Y-84194435D01*
X227320750Y-84214630D01*
X227320745Y-84214631D01*
X227150476Y-84274211D01*
X226997737Y-84370184D01*
X226870184Y-84497737D01*
X226774211Y-84650476D01*
X226714631Y-84820745D01*
X226714630Y-84820750D01*
X226694435Y-84999996D01*
X198805565Y-84999996D01*
X198785369Y-84820750D01*
X198785368Y-84820745D01*
X198769085Y-84774211D01*
X198725789Y-84650478D01*
X198629816Y-84497738D01*
X198502262Y-84370184D01*
X198489043Y-84361878D01*
X198349523Y-84274211D01*
X198179254Y-84214631D01*
X198179249Y-84214630D01*
X198000004Y-84194435D01*
X197999996Y-84194435D01*
X197820750Y-84214630D01*
X197820745Y-84214631D01*
X197650476Y-84274211D01*
X197497738Y-84370183D01*
X197492663Y-84375259D01*
X197431338Y-84408741D01*
X197361647Y-84403753D01*
X197305715Y-84361878D01*
X197289435Y-84326699D01*
X197287668Y-84327318D01*
X197272989Y-84285368D01*
X197225789Y-84150478D01*
X197194069Y-84099996D01*
X216694434Y-84099996D01*
X216694434Y-84100003D01*
X216714629Y-84279249D01*
X216714630Y-84279254D01*
X216774210Y-84449523D01*
X216804506Y-84497738D01*
X216870183Y-84602262D01*
X216997737Y-84729816D01*
X217068391Y-84774211D01*
X217142449Y-84820745D01*
X217150477Y-84825789D01*
X217218305Y-84849523D01*
X217320744Y-84885368D01*
X217320749Y-84885369D01*
X217499995Y-84905565D01*
X217499999Y-84905565D01*
X217500003Y-84905565D01*
X217679248Y-84885369D01*
X217679251Y-84885368D01*
X217679254Y-84885368D01*
X217849521Y-84825789D01*
X218002261Y-84729816D01*
X218129815Y-84602262D01*
X218225788Y-84449522D01*
X218285367Y-84279255D01*
X218285368Y-84279249D01*
X218297197Y-84174261D01*
X220868700Y-84174261D01*
X220868700Y-84174268D01*
X220888895Y-84353514D01*
X220888896Y-84353519D01*
X220948476Y-84523788D01*
X220997785Y-84602262D01*
X221044449Y-84676527D01*
X221172003Y-84804081D01*
X221262345Y-84860847D01*
X221286779Y-84876200D01*
X221324743Y-84900054D01*
X221333957Y-84903278D01*
X221495010Y-84959633D01*
X221495015Y-84959634D01*
X221674261Y-84979830D01*
X221674265Y-84979830D01*
X221674269Y-84979830D01*
X221853514Y-84959634D01*
X221853517Y-84959633D01*
X221853520Y-84959633D01*
X222023787Y-84900054D01*
X222176527Y-84804081D01*
X222304081Y-84676527D01*
X222400054Y-84523787D01*
X222459633Y-84353520D01*
X222459634Y-84353514D01*
X222479830Y-84174268D01*
X222479830Y-84174261D01*
X222459634Y-83995015D01*
X222459633Y-83995010D01*
X222433648Y-83920750D01*
X222400054Y-83824743D01*
X222304081Y-83672003D01*
X222176527Y-83544449D01*
X222105792Y-83500003D01*
X222023788Y-83448476D01*
X221853519Y-83388896D01*
X221853514Y-83388895D01*
X221674269Y-83368700D01*
X221674261Y-83368700D01*
X221495015Y-83388895D01*
X221495010Y-83388896D01*
X221324741Y-83448476D01*
X221172002Y-83544449D01*
X221044449Y-83672002D01*
X220948476Y-83824741D01*
X220888896Y-83995010D01*
X220888895Y-83995015D01*
X220868700Y-84174261D01*
X218297197Y-84174261D01*
X218305564Y-84100003D01*
X218305564Y-84099996D01*
X218285368Y-83920750D01*
X218285367Y-83920745D01*
X218251774Y-83824741D01*
X218225788Y-83750478D01*
X218203264Y-83714632D01*
X218129814Y-83597737D01*
X218002261Y-83470184D01*
X217849522Y-83374211D01*
X217679253Y-83314631D01*
X217679248Y-83314630D01*
X217500003Y-83294435D01*
X217499995Y-83294435D01*
X217320749Y-83314630D01*
X217320744Y-83314631D01*
X217150475Y-83374211D01*
X216997736Y-83470184D01*
X216870183Y-83597737D01*
X216774210Y-83750476D01*
X216714630Y-83920745D01*
X216714629Y-83920750D01*
X216694434Y-84099996D01*
X197194069Y-84099996D01*
X197129816Y-83997738D01*
X197002262Y-83870184D01*
X196934027Y-83827309D01*
X196849523Y-83774211D01*
X196679254Y-83714631D01*
X196679249Y-83714630D01*
X196500004Y-83694435D01*
X196499996Y-83694435D01*
X196320750Y-83714630D01*
X196320745Y-83714631D01*
X196150476Y-83774211D01*
X195997737Y-83870184D01*
X195870184Y-83997737D01*
X195774211Y-84150476D01*
X195714631Y-84320745D01*
X195714630Y-84320750D01*
X195694435Y-84499996D01*
X190305565Y-84499996D01*
X190285369Y-84320750D01*
X190285368Y-84320745D01*
X190272989Y-84285368D01*
X190225789Y-84150478D01*
X190129816Y-83997738D01*
X190002262Y-83870184D01*
X189934027Y-83827309D01*
X189849523Y-83774211D01*
X189679254Y-83714631D01*
X189679249Y-83714630D01*
X189500004Y-83694435D01*
X189499996Y-83694435D01*
X189320750Y-83714630D01*
X189320737Y-83714633D01*
X189150479Y-83774209D01*
X189065971Y-83827309D01*
X188998734Y-83846309D01*
X188934028Y-83827309D01*
X188845590Y-83771740D01*
X188799299Y-83719406D01*
X188788342Y-83652862D01*
X188805565Y-83500002D01*
X188805565Y-83499996D01*
X193694435Y-83499996D01*
X193694435Y-83500003D01*
X193714630Y-83679249D01*
X193714631Y-83679254D01*
X193774211Y-83849523D01*
X193865627Y-83995010D01*
X193870184Y-84002262D01*
X193997738Y-84129816D01*
X194068472Y-84174261D01*
X194132721Y-84214632D01*
X194150478Y-84225789D01*
X194288860Y-84274211D01*
X194320745Y-84285368D01*
X194320750Y-84285369D01*
X194499996Y-84305565D01*
X194500000Y-84305565D01*
X194500004Y-84305565D01*
X194679249Y-84285369D01*
X194679252Y-84285368D01*
X194679255Y-84285368D01*
X194849522Y-84225789D01*
X195002262Y-84129816D01*
X195129816Y-84002262D01*
X195225789Y-83849522D01*
X195285368Y-83679255D01*
X195286185Y-83672003D01*
X195305565Y-83500003D01*
X195305565Y-83499996D01*
X195285369Y-83320750D01*
X195285368Y-83320745D01*
X195237998Y-83185369D01*
X195225789Y-83150478D01*
X195129816Y-82997738D01*
X195002262Y-82870184D01*
X194899422Y-82805565D01*
X194849523Y-82774211D01*
X194679254Y-82714631D01*
X194679249Y-82714630D01*
X194500004Y-82694435D01*
X194499996Y-82694435D01*
X194320750Y-82714630D01*
X194320745Y-82714631D01*
X194150476Y-82774211D01*
X193997737Y-82870184D01*
X193870184Y-82997737D01*
X193774211Y-83150476D01*
X193714631Y-83320745D01*
X193714630Y-83320750D01*
X193694435Y-83499996D01*
X188805565Y-83499996D01*
X188785369Y-83320750D01*
X188785368Y-83320745D01*
X188737998Y-83185369D01*
X188725789Y-83150478D01*
X188629816Y-82997738D01*
X188502262Y-82870184D01*
X188399422Y-82805565D01*
X188349523Y-82774211D01*
X188179254Y-82714631D01*
X188179249Y-82714630D01*
X188000004Y-82694435D01*
X187999996Y-82694435D01*
X187820750Y-82714630D01*
X187820745Y-82714631D01*
X187650476Y-82774211D01*
X187497737Y-82870184D01*
X187370184Y-82997737D01*
X187274211Y-83150476D01*
X187214631Y-83320745D01*
X187214630Y-83320750D01*
X187194435Y-83499996D01*
X153000500Y-83499996D01*
X153000500Y-81999996D01*
X160694435Y-81999996D01*
X160694435Y-82000003D01*
X160714630Y-82179249D01*
X160714631Y-82179254D01*
X160774211Y-82349523D01*
X160805926Y-82399996D01*
X160870184Y-82502262D01*
X160997738Y-82629816D01*
X161076410Y-82679249D01*
X161132721Y-82714632D01*
X161150478Y-82725789D01*
X161218306Y-82749523D01*
X161320745Y-82785368D01*
X161320750Y-82785369D01*
X161499996Y-82805565D01*
X161500000Y-82805565D01*
X161500004Y-82805565D01*
X161679249Y-82785369D01*
X161679252Y-82785368D01*
X161679255Y-82785368D01*
X161849522Y-82725789D01*
X162002262Y-82629816D01*
X162129816Y-82502262D01*
X162225789Y-82349522D01*
X162285368Y-82179255D01*
X162285369Y-82179249D01*
X162305565Y-82000003D01*
X162305565Y-81999996D01*
X188694435Y-81999996D01*
X188694435Y-82000003D01*
X188714630Y-82179249D01*
X188714631Y-82179254D01*
X188774211Y-82349523D01*
X188805926Y-82399996D01*
X188870184Y-82502262D01*
X188997738Y-82629816D01*
X189076410Y-82679249D01*
X189132721Y-82714632D01*
X189150478Y-82725789D01*
X189218306Y-82749523D01*
X189320745Y-82785368D01*
X189320750Y-82785369D01*
X189499996Y-82805565D01*
X189500000Y-82805565D01*
X189500004Y-82805565D01*
X189679249Y-82785369D01*
X189679252Y-82785368D01*
X189679255Y-82785368D01*
X189849522Y-82725789D01*
X190002262Y-82629816D01*
X190129816Y-82502262D01*
X190225789Y-82349522D01*
X190285368Y-82179255D01*
X190285369Y-82179249D01*
X190305565Y-82000003D01*
X190305565Y-81999996D01*
X190285369Y-81820750D01*
X190285368Y-81820745D01*
X190236023Y-81679726D01*
X190225789Y-81650478D01*
X190207977Y-81622131D01*
X190135165Y-81506251D01*
X190129816Y-81497738D01*
X190002262Y-81370184D01*
X189899422Y-81305565D01*
X189849523Y-81274211D01*
X189679254Y-81214631D01*
X189679249Y-81214630D01*
X189500004Y-81194435D01*
X189499996Y-81194435D01*
X189320750Y-81214630D01*
X189320745Y-81214631D01*
X189150476Y-81274211D01*
X188997737Y-81370184D01*
X188870184Y-81497737D01*
X188774211Y-81650476D01*
X188714631Y-81820745D01*
X188714630Y-81820750D01*
X188694435Y-81999996D01*
X162305565Y-81999996D01*
X162285369Y-81820750D01*
X162285368Y-81820745D01*
X162236023Y-81679726D01*
X162225789Y-81650478D01*
X162207977Y-81622131D01*
X162135165Y-81506251D01*
X162129816Y-81497738D01*
X162002262Y-81370184D01*
X161899422Y-81305565D01*
X161849523Y-81274211D01*
X161679254Y-81214631D01*
X161679249Y-81214630D01*
X161500004Y-81194435D01*
X161499996Y-81194435D01*
X161320750Y-81214630D01*
X161320745Y-81214631D01*
X161150476Y-81274211D01*
X160997737Y-81370184D01*
X160870184Y-81497737D01*
X160774211Y-81650476D01*
X160714631Y-81820745D01*
X160714630Y-81820750D01*
X160694435Y-81999996D01*
X153000500Y-81999996D01*
X153000500Y-80999996D01*
X199694435Y-80999996D01*
X199694435Y-81000003D01*
X199714630Y-81179249D01*
X199714631Y-81179254D01*
X199774211Y-81349523D01*
X199867341Y-81497737D01*
X199870184Y-81502262D01*
X199997738Y-81629816D01*
X200068392Y-81674211D01*
X200132721Y-81714632D01*
X200150478Y-81725789D01*
X200277352Y-81770184D01*
X200320745Y-81785368D01*
X200320750Y-81785369D01*
X200499996Y-81805565D01*
X200500000Y-81805565D01*
X200500004Y-81805565D01*
X200679249Y-81785369D01*
X200679252Y-81785368D01*
X200679255Y-81785368D01*
X200849522Y-81725789D01*
X201002262Y-81629816D01*
X201129816Y-81502262D01*
X201225789Y-81349522D01*
X201285368Y-81179255D01*
X201285369Y-81179249D01*
X201305565Y-81000003D01*
X201305565Y-80999996D01*
X204594435Y-80999996D01*
X204594435Y-81000003D01*
X204614630Y-81179249D01*
X204614631Y-81179254D01*
X204674211Y-81349523D01*
X204767341Y-81497737D01*
X204770184Y-81502262D01*
X204897738Y-81629816D01*
X204968392Y-81674211D01*
X205032721Y-81714632D01*
X205050478Y-81725789D01*
X205177352Y-81770184D01*
X205220745Y-81785368D01*
X205220749Y-81785369D01*
X205290309Y-81793206D01*
X205354723Y-81820272D01*
X205394278Y-81877866D01*
X205396417Y-81947703D01*
X205373375Y-81993737D01*
X205370183Y-81997739D01*
X205274211Y-82150476D01*
X205214631Y-82320745D01*
X205214630Y-82320750D01*
X205194435Y-82499996D01*
X205194435Y-82500003D01*
X205214630Y-82679249D01*
X205214631Y-82679254D01*
X205274211Y-82849523D01*
X205367341Y-82997737D01*
X205370184Y-83002262D01*
X205497738Y-83129816D01*
X205650478Y-83225789D01*
X205820745Y-83285368D01*
X205820750Y-83285369D01*
X205999996Y-83305565D01*
X206000000Y-83305565D01*
X206000004Y-83305565D01*
X206179249Y-83285369D01*
X206179252Y-83285368D01*
X206179255Y-83285368D01*
X206349522Y-83225789D01*
X206502262Y-83129816D01*
X206629816Y-83002262D01*
X206725789Y-82849522D01*
X206785368Y-82679255D01*
X206785369Y-82679249D01*
X206805565Y-82500003D01*
X206805565Y-82499996D01*
X206794298Y-82399996D01*
X214794435Y-82399996D01*
X214794435Y-82400003D01*
X214814630Y-82579249D01*
X214814631Y-82579254D01*
X214874211Y-82749523D01*
X214896735Y-82785369D01*
X214970184Y-82902262D01*
X215097738Y-83029816D01*
X215250478Y-83125789D01*
X215420745Y-83185368D01*
X215420750Y-83185369D01*
X215599996Y-83205565D01*
X215600000Y-83205565D01*
X215600004Y-83205565D01*
X215779249Y-83185369D01*
X215779252Y-83185368D01*
X215779255Y-83185368D01*
X215949522Y-83125789D01*
X216102262Y-83029816D01*
X216229816Y-82902262D01*
X216325789Y-82749522D01*
X216385368Y-82579255D01*
X216394043Y-82502262D01*
X216405565Y-82400003D01*
X216405565Y-82399996D01*
X216385369Y-82220750D01*
X216385368Y-82220745D01*
X216370848Y-82179249D01*
X216325789Y-82050478D01*
X216229816Y-81897738D01*
X216102262Y-81770184D01*
X216031608Y-81725789D01*
X215949523Y-81674211D01*
X215779254Y-81614631D01*
X215779249Y-81614630D01*
X215600004Y-81594435D01*
X215599996Y-81594435D01*
X215420750Y-81614630D01*
X215420745Y-81614631D01*
X215250476Y-81674211D01*
X215097737Y-81770184D01*
X214970184Y-81897737D01*
X214874211Y-82050476D01*
X214814631Y-82220745D01*
X214814630Y-82220750D01*
X214794435Y-82399996D01*
X206794298Y-82399996D01*
X206785369Y-82320750D01*
X206785368Y-82320745D01*
X206750376Y-82220745D01*
X206725789Y-82150478D01*
X206629816Y-81997738D01*
X206502262Y-81870184D01*
X206349523Y-81774211D01*
X206179254Y-81714631D01*
X206179250Y-81714630D01*
X206109689Y-81706793D01*
X206045275Y-81679726D01*
X206005720Y-81622131D01*
X206003583Y-81552294D01*
X206026633Y-81506251D01*
X206029807Y-81502270D01*
X206029816Y-81502262D01*
X206125789Y-81349522D01*
X206185368Y-81179255D01*
X206185369Y-81179249D01*
X206205565Y-81000003D01*
X206205565Y-80999996D01*
X206185369Y-80820750D01*
X206185368Y-80820745D01*
X206152141Y-80725788D01*
X206125789Y-80650478D01*
X206031235Y-80499996D01*
X210194435Y-80499996D01*
X210194435Y-80500003D01*
X210214630Y-80679249D01*
X210214631Y-80679254D01*
X210274211Y-80849523D01*
X210368760Y-80999996D01*
X210370184Y-81002262D01*
X210497738Y-81129816D01*
X210576410Y-81179249D01*
X210632721Y-81214632D01*
X210650478Y-81225789D01*
X210788860Y-81274211D01*
X210820745Y-81285368D01*
X210820750Y-81285369D01*
X210999996Y-81305565D01*
X211000000Y-81305565D01*
X211000004Y-81305565D01*
X211179249Y-81285369D01*
X211179252Y-81285368D01*
X211179255Y-81285368D01*
X211349522Y-81225789D01*
X211502262Y-81129816D01*
X211629816Y-81002262D01*
X211725789Y-80849522D01*
X211785368Y-80679255D01*
X211785369Y-80679249D01*
X211805565Y-80500003D01*
X211805565Y-80499996D01*
X214194435Y-80499996D01*
X214194435Y-80500003D01*
X214214630Y-80679249D01*
X214214631Y-80679254D01*
X214274211Y-80849523D01*
X214368760Y-80999996D01*
X214370184Y-81002262D01*
X214497738Y-81129816D01*
X214576410Y-81179249D01*
X214632721Y-81214632D01*
X214650478Y-81225789D01*
X214788860Y-81274211D01*
X214820745Y-81285368D01*
X214820750Y-81285369D01*
X214999996Y-81305565D01*
X215000000Y-81305565D01*
X215000004Y-81305565D01*
X215179249Y-81285369D01*
X215179252Y-81285368D01*
X215179255Y-81285368D01*
X215349522Y-81225789D01*
X215502262Y-81129816D01*
X215629816Y-81002262D01*
X215725789Y-80849522D01*
X215785368Y-80679255D01*
X215785369Y-80679249D01*
X215805565Y-80500003D01*
X215805565Y-80499996D01*
X218694435Y-80499996D01*
X218694435Y-80500003D01*
X218714630Y-80679249D01*
X218714631Y-80679254D01*
X218774211Y-80849523D01*
X218868760Y-80999996D01*
X218870184Y-81002262D01*
X218997738Y-81129816D01*
X219076410Y-81179249D01*
X219132721Y-81214632D01*
X219150478Y-81225789D01*
X219288860Y-81274211D01*
X219320745Y-81285368D01*
X219320750Y-81285369D01*
X219499996Y-81305565D01*
X219500000Y-81305565D01*
X219500004Y-81305565D01*
X219679249Y-81285369D01*
X219679252Y-81285368D01*
X219679255Y-81285368D01*
X219849522Y-81225789D01*
X220002262Y-81129816D01*
X220129816Y-81002262D01*
X220225789Y-80849522D01*
X220285368Y-80679255D01*
X220285369Y-80679249D01*
X220305565Y-80500003D01*
X220305565Y-80499996D01*
X220285369Y-80320750D01*
X220285368Y-80320745D01*
X220241170Y-80194435D01*
X220225789Y-80150478D01*
X220131235Y-79999996D01*
X225694435Y-79999996D01*
X225694435Y-80000003D01*
X225714630Y-80179249D01*
X225714631Y-80179254D01*
X225774211Y-80349523D01*
X225867341Y-80497737D01*
X225870184Y-80502262D01*
X225997738Y-80629816D01*
X226150478Y-80725789D01*
X226320745Y-80785368D01*
X226320750Y-80785369D01*
X226499996Y-80805565D01*
X226500000Y-80805565D01*
X226500004Y-80805565D01*
X226679249Y-80785369D01*
X226679252Y-80785368D01*
X226679255Y-80785368D01*
X226849522Y-80725789D01*
X227002262Y-80629816D01*
X227129816Y-80502262D01*
X227225789Y-80349522D01*
X227285368Y-80179255D01*
X227285369Y-80179249D01*
X227305565Y-80000003D01*
X227305565Y-79999996D01*
X227285369Y-79820750D01*
X227285368Y-79820745D01*
X227273504Y-79786841D01*
X227225789Y-79650478D01*
X227129816Y-79497738D01*
X227002262Y-79370184D01*
X226969379Y-79349522D01*
X226849523Y-79274211D01*
X226679254Y-79214631D01*
X226679249Y-79214630D01*
X226500004Y-79194435D01*
X226499996Y-79194435D01*
X226320750Y-79214630D01*
X226320745Y-79214631D01*
X226150476Y-79274211D01*
X225997737Y-79370184D01*
X225870184Y-79497737D01*
X225774211Y-79650476D01*
X225714631Y-79820745D01*
X225714630Y-79820750D01*
X225694435Y-79999996D01*
X220131235Y-79999996D01*
X220129816Y-79997738D01*
X220002262Y-79870184D01*
X219969379Y-79849522D01*
X219849523Y-79774211D01*
X219679254Y-79714631D01*
X219679249Y-79714630D01*
X219500004Y-79694435D01*
X219499996Y-79694435D01*
X219320750Y-79714630D01*
X219320745Y-79714631D01*
X219150476Y-79774211D01*
X218997737Y-79870184D01*
X218870184Y-79997737D01*
X218774211Y-80150476D01*
X218714631Y-80320745D01*
X218714630Y-80320750D01*
X218694435Y-80499996D01*
X215805565Y-80499996D01*
X215785369Y-80320750D01*
X215785368Y-80320745D01*
X215741170Y-80194435D01*
X215725789Y-80150478D01*
X215629816Y-79997738D01*
X215502262Y-79870184D01*
X215469379Y-79849522D01*
X215349523Y-79774211D01*
X215179254Y-79714631D01*
X215179249Y-79714630D01*
X215000004Y-79694435D01*
X214999996Y-79694435D01*
X214820750Y-79714630D01*
X214820745Y-79714631D01*
X214650476Y-79774211D01*
X214497737Y-79870184D01*
X214370184Y-79997737D01*
X214274211Y-80150476D01*
X214214631Y-80320745D01*
X214214630Y-80320750D01*
X214194435Y-80499996D01*
X211805565Y-80499996D01*
X211785369Y-80320750D01*
X211785368Y-80320745D01*
X211747722Y-80213159D01*
X211744161Y-80143380D01*
X211778890Y-80082752D01*
X211840883Y-80050525D01*
X211910458Y-80056930D01*
X211952445Y-80084523D01*
X211997738Y-80129816D01*
X212076410Y-80179249D01*
X212132721Y-80214632D01*
X212150478Y-80225789D01*
X212288860Y-80274211D01*
X212320745Y-80285368D01*
X212320750Y-80285369D01*
X212499996Y-80305565D01*
X212500000Y-80305565D01*
X212500004Y-80305565D01*
X212679249Y-80285369D01*
X212679252Y-80285368D01*
X212679255Y-80285368D01*
X212849522Y-80225789D01*
X213002262Y-80129816D01*
X213129816Y-80002262D01*
X213225789Y-79849522D01*
X213285368Y-79679255D01*
X213285369Y-79679249D01*
X213305565Y-79500003D01*
X213305565Y-79499996D01*
X213285369Y-79320750D01*
X213285368Y-79320745D01*
X213247722Y-79213159D01*
X213244161Y-79143380D01*
X213278890Y-79082752D01*
X213340883Y-79050525D01*
X213410458Y-79056930D01*
X213452445Y-79084523D01*
X213497738Y-79129816D01*
X213578401Y-79180500D01*
X213632721Y-79214632D01*
X213650478Y-79225789D01*
X213788860Y-79274211D01*
X213820745Y-79285368D01*
X213820750Y-79285369D01*
X213999996Y-79305565D01*
X214000000Y-79305565D01*
X214000004Y-79305565D01*
X214179249Y-79285369D01*
X214179252Y-79285368D01*
X214179255Y-79285368D01*
X214349522Y-79225789D01*
X214502262Y-79129816D01*
X214629816Y-79002262D01*
X214725789Y-78849522D01*
X214785368Y-78679255D01*
X214785369Y-78679249D01*
X214805565Y-78500003D01*
X214805565Y-78499996D01*
X235694435Y-78499996D01*
X235694435Y-78500003D01*
X235714630Y-78679249D01*
X235714631Y-78679254D01*
X235774211Y-78849523D01*
X235848845Y-78968302D01*
X235870184Y-79002262D01*
X235997738Y-79129816D01*
X236078401Y-79180500D01*
X236132721Y-79214632D01*
X236150478Y-79225789D01*
X236288860Y-79274211D01*
X236320745Y-79285368D01*
X236320750Y-79285369D01*
X236499996Y-79305565D01*
X236500000Y-79305565D01*
X236500004Y-79305565D01*
X236679249Y-79285369D01*
X236679252Y-79285368D01*
X236679255Y-79285368D01*
X236849522Y-79225789D01*
X237002262Y-79129816D01*
X237129816Y-79002262D01*
X237225789Y-78849522D01*
X237285368Y-78679255D01*
X237285369Y-78679249D01*
X237305565Y-78500003D01*
X237305565Y-78499996D01*
X237285369Y-78320750D01*
X237285368Y-78320745D01*
X237257104Y-78239972D01*
X237225789Y-78150478D01*
X237129816Y-77997738D01*
X237002262Y-77870184D01*
X236969379Y-77849522D01*
X236849523Y-77774211D01*
X236679254Y-77714631D01*
X236679249Y-77714630D01*
X236500004Y-77694435D01*
X236499996Y-77694435D01*
X236320750Y-77714630D01*
X236320745Y-77714631D01*
X236150476Y-77774211D01*
X235997737Y-77870184D01*
X235870184Y-77997737D01*
X235774211Y-78150476D01*
X235714631Y-78320745D01*
X235714630Y-78320750D01*
X235694435Y-78499996D01*
X214805565Y-78499996D01*
X214785369Y-78320750D01*
X214785368Y-78320745D01*
X214757104Y-78239972D01*
X214725789Y-78150478D01*
X214629816Y-77997738D01*
X214502262Y-77870184D01*
X214469379Y-77849522D01*
X214349523Y-77774211D01*
X214179254Y-77714631D01*
X214179249Y-77714630D01*
X214000004Y-77694435D01*
X213999996Y-77694435D01*
X213820750Y-77714630D01*
X213820745Y-77714631D01*
X213650476Y-77774211D01*
X213497737Y-77870184D01*
X213370184Y-77997737D01*
X213274211Y-78150476D01*
X213214631Y-78320745D01*
X213214630Y-78320750D01*
X213194435Y-78499996D01*
X213194435Y-78500003D01*
X213214630Y-78679249D01*
X213214632Y-78679257D01*
X213252277Y-78786841D01*
X213255838Y-78856620D01*
X213221109Y-78917247D01*
X213159115Y-78949474D01*
X213089540Y-78943068D01*
X213047554Y-78915476D01*
X213002262Y-78870184D01*
X212849523Y-78774211D01*
X212679254Y-78714631D01*
X212679249Y-78714630D01*
X212500004Y-78694435D01*
X212499996Y-78694435D01*
X212320750Y-78714630D01*
X212320745Y-78714631D01*
X212150476Y-78774211D01*
X211997737Y-78870184D01*
X211870184Y-78997737D01*
X211774211Y-79150476D01*
X211714631Y-79320745D01*
X211714630Y-79320750D01*
X211694435Y-79499996D01*
X211694435Y-79500003D01*
X211714630Y-79679249D01*
X211714632Y-79679257D01*
X211752277Y-79786841D01*
X211755838Y-79856620D01*
X211721109Y-79917247D01*
X211659115Y-79949474D01*
X211589540Y-79943068D01*
X211547554Y-79915476D01*
X211502262Y-79870184D01*
X211349523Y-79774211D01*
X211179254Y-79714631D01*
X211179249Y-79714630D01*
X211000004Y-79694435D01*
X210999996Y-79694435D01*
X210820750Y-79714630D01*
X210820745Y-79714631D01*
X210650476Y-79774211D01*
X210497737Y-79870184D01*
X210370184Y-79997737D01*
X210274211Y-80150476D01*
X210214631Y-80320745D01*
X210214630Y-80320750D01*
X210194435Y-80499996D01*
X206031235Y-80499996D01*
X206029816Y-80497738D01*
X205902262Y-80370184D01*
X205869379Y-80349522D01*
X205749523Y-80274211D01*
X205579254Y-80214631D01*
X205579249Y-80214630D01*
X205400004Y-80194435D01*
X205399996Y-80194435D01*
X205220750Y-80214630D01*
X205220745Y-80214631D01*
X205050476Y-80274211D01*
X204897737Y-80370184D01*
X204770184Y-80497737D01*
X204674211Y-80650476D01*
X204614631Y-80820745D01*
X204614630Y-80820750D01*
X204594435Y-80999996D01*
X201305565Y-80999996D01*
X201285369Y-80820750D01*
X201285368Y-80820745D01*
X201252141Y-80725788D01*
X201225789Y-80650478D01*
X201129816Y-80497738D01*
X201002262Y-80370184D01*
X200969379Y-80349522D01*
X200849523Y-80274211D01*
X200679254Y-80214631D01*
X200679249Y-80214630D01*
X200500004Y-80194435D01*
X200499996Y-80194435D01*
X200320750Y-80214630D01*
X200320745Y-80214631D01*
X200150476Y-80274211D01*
X199997737Y-80370184D01*
X199870184Y-80497737D01*
X199774211Y-80650476D01*
X199714631Y-80820745D01*
X199714630Y-80820750D01*
X199694435Y-80999996D01*
X153000500Y-80999996D01*
X153000500Y-79499996D01*
X175694435Y-79499996D01*
X175694435Y-79500003D01*
X175714630Y-79679249D01*
X175714631Y-79679254D01*
X175774211Y-79849523D01*
X175816765Y-79917247D01*
X175870184Y-80002262D01*
X175997738Y-80129816D01*
X176076410Y-80179249D01*
X176132721Y-80214632D01*
X176150478Y-80225789D01*
X176288860Y-80274211D01*
X176320745Y-80285368D01*
X176320750Y-80285369D01*
X176499996Y-80305565D01*
X176500000Y-80305565D01*
X176500004Y-80305565D01*
X176679249Y-80285369D01*
X176679252Y-80285368D01*
X176679255Y-80285368D01*
X176849522Y-80225789D01*
X177002262Y-80129816D01*
X177129816Y-80002262D01*
X177225789Y-79849522D01*
X177285368Y-79679255D01*
X177285369Y-79679249D01*
X177305565Y-79500003D01*
X177305565Y-79499996D01*
X177285369Y-79320750D01*
X177285368Y-79320745D01*
X177252141Y-79225788D01*
X177225789Y-79150478D01*
X177201860Y-79112396D01*
X177150401Y-79030499D01*
X177131235Y-78999996D01*
X180694435Y-78999996D01*
X180694435Y-79000003D01*
X180714630Y-79179249D01*
X180714631Y-79179254D01*
X180774211Y-79349523D01*
X180867341Y-79497737D01*
X180870184Y-79502262D01*
X180997738Y-79629816D01*
X181132719Y-79714630D01*
X181154409Y-79728259D01*
X181200700Y-79780594D01*
X181211657Y-79847136D01*
X181194435Y-79999995D01*
X181194435Y-80000003D01*
X181214630Y-80179249D01*
X181214631Y-80179254D01*
X181274211Y-80349523D01*
X181367341Y-80497737D01*
X181370184Y-80502262D01*
X181497738Y-80629816D01*
X181650478Y-80725789D01*
X181820745Y-80785368D01*
X181820750Y-80785369D01*
X181999996Y-80805565D01*
X182000000Y-80805565D01*
X182000004Y-80805565D01*
X182179249Y-80785369D01*
X182179252Y-80785368D01*
X182179255Y-80785368D01*
X182349522Y-80725789D01*
X182502262Y-80629816D01*
X182629816Y-80502262D01*
X182725789Y-80349522D01*
X182785368Y-80179255D01*
X182785369Y-80179249D01*
X182805565Y-80000003D01*
X182805565Y-79999996D01*
X182785369Y-79820750D01*
X182785368Y-79820745D01*
X182773504Y-79786841D01*
X182725789Y-79650478D01*
X182629816Y-79497738D01*
X182502262Y-79370184D01*
X182469379Y-79349522D01*
X182345590Y-79271740D01*
X182299299Y-79219405D01*
X182288342Y-79152862D01*
X182305565Y-79000002D01*
X182305565Y-78999996D01*
X182285369Y-78820750D01*
X182285368Y-78820745D01*
X182235859Y-78679257D01*
X182225789Y-78650478D01*
X182129816Y-78497738D01*
X182002262Y-78370184D01*
X181969379Y-78349522D01*
X181849523Y-78274211D01*
X181679254Y-78214631D01*
X181679249Y-78214630D01*
X181500004Y-78194435D01*
X181499996Y-78194435D01*
X181320750Y-78214630D01*
X181320745Y-78214631D01*
X181150476Y-78274211D01*
X180997737Y-78370184D01*
X180870184Y-78497737D01*
X180774211Y-78650476D01*
X180714631Y-78820745D01*
X180714630Y-78820750D01*
X180694435Y-78999996D01*
X177131235Y-78999996D01*
X177129816Y-78997738D01*
X177002262Y-78870184D01*
X176849523Y-78774211D01*
X176679254Y-78714631D01*
X176679249Y-78714630D01*
X176500004Y-78694435D01*
X176499996Y-78694435D01*
X176320750Y-78714630D01*
X176320745Y-78714631D01*
X176150476Y-78774211D01*
X175997737Y-78870184D01*
X175870184Y-78997737D01*
X175774211Y-79150476D01*
X175714631Y-79320745D01*
X175714630Y-79320750D01*
X175694435Y-79499996D01*
X153000500Y-79499996D01*
X153000500Y-78136379D01*
X153299500Y-78136379D01*
X153299500Y-78323620D01*
X153336025Y-78507243D01*
X153336027Y-78507251D01*
X153407676Y-78680228D01*
X153407681Y-78680237D01*
X153511697Y-78835907D01*
X153511700Y-78835911D01*
X153644088Y-78968299D01*
X153644092Y-78968302D01*
X153799762Y-79072318D01*
X153799768Y-79072321D01*
X153799769Y-79072322D01*
X153972749Y-79143973D01*
X154150095Y-79179249D01*
X154156379Y-79180499D01*
X154156383Y-79180500D01*
X154156384Y-79180500D01*
X154843617Y-79180500D01*
X154843618Y-79180499D01*
X155027251Y-79143973D01*
X155200231Y-79072322D01*
X155355908Y-78968302D01*
X155488302Y-78835908D01*
X155592322Y-78680231D01*
X155663973Y-78507251D01*
X155700500Y-78323616D01*
X155700500Y-78136384D01*
X155663973Y-77952749D01*
X155592322Y-77779769D01*
X155592321Y-77779768D01*
X155592318Y-77779762D01*
X155488302Y-77624092D01*
X155488299Y-77624088D01*
X155355911Y-77491700D01*
X155355907Y-77491697D01*
X155200237Y-77387681D01*
X155200228Y-77387676D01*
X155027251Y-77316027D01*
X155027243Y-77316025D01*
X154843620Y-77279500D01*
X154843616Y-77279500D01*
X154156384Y-77279500D01*
X154156379Y-77279500D01*
X153972756Y-77316025D01*
X153972748Y-77316027D01*
X153799771Y-77387676D01*
X153799762Y-77387681D01*
X153644092Y-77491697D01*
X153644088Y-77491700D01*
X153511700Y-77624088D01*
X153511697Y-77624092D01*
X153407681Y-77779762D01*
X153407676Y-77779771D01*
X153336027Y-77952748D01*
X153336025Y-77952756D01*
X153299500Y-78136379D01*
X153000500Y-78136379D01*
X153000500Y-69476379D01*
X153299500Y-69476379D01*
X153299500Y-69663620D01*
X153336025Y-69847243D01*
X153336027Y-69847251D01*
X153407676Y-70020228D01*
X153407681Y-70020237D01*
X153511697Y-70175907D01*
X153511700Y-70175911D01*
X153644088Y-70308299D01*
X153644092Y-70308302D01*
X153799762Y-70412318D01*
X153799768Y-70412321D01*
X153799769Y-70412322D01*
X153972749Y-70483973D01*
X154156379Y-70520499D01*
X154156383Y-70520500D01*
X154156384Y-70520500D01*
X154843617Y-70520500D01*
X154843618Y-70520499D01*
X155027251Y-70483973D01*
X155200231Y-70412322D01*
X155355908Y-70308302D01*
X155488302Y-70175908D01*
X155592322Y-70020231D01*
X155663973Y-69847251D01*
X155700500Y-69663616D01*
X155700500Y-69570000D01*
X158044901Y-69570000D01*
X158063252Y-69756331D01*
X158063253Y-69756333D01*
X158117604Y-69935502D01*
X158205862Y-70100623D01*
X158205864Y-70100626D01*
X158324642Y-70245357D01*
X158469373Y-70364135D01*
X158469376Y-70364137D01*
X158634492Y-70452393D01*
X158634495Y-70452393D01*
X158634499Y-70452396D01*
X158687458Y-70468461D01*
X158745895Y-70506758D01*
X158764740Y-70536685D01*
X158802927Y-70622454D01*
X158806180Y-70628088D01*
X158803862Y-70629426D01*
X158823371Y-70684039D01*
X158807571Y-70752099D01*
X158765549Y-70796157D01*
X158647739Y-70870182D01*
X158520184Y-70997737D01*
X158424211Y-71150476D01*
X158364631Y-71320745D01*
X158364630Y-71320750D01*
X158344435Y-71499996D01*
X158344435Y-71500003D01*
X158364630Y-71679249D01*
X158364633Y-71679262D01*
X158426510Y-71856094D01*
X158424364Y-71856844D01*
X158433962Y-71915144D01*
X158425609Y-71943590D01*
X158426510Y-71943906D01*
X158364633Y-72120737D01*
X158364630Y-72120750D01*
X158344435Y-72299996D01*
X158344435Y-72300003D01*
X158364630Y-72479249D01*
X158364633Y-72479262D01*
X158426510Y-72656094D01*
X158424364Y-72656844D01*
X158433962Y-72715144D01*
X158425609Y-72743590D01*
X158426510Y-72743906D01*
X158364633Y-72920737D01*
X158364630Y-72920750D01*
X158344435Y-73099996D01*
X158344435Y-73100003D01*
X158364630Y-73279249D01*
X158364631Y-73279254D01*
X158424211Y-73449523D01*
X158516613Y-73596579D01*
X158520184Y-73602262D01*
X158647738Y-73729816D01*
X158700394Y-73762902D01*
X158751487Y-73795006D01*
X158797778Y-73847341D01*
X158808426Y-73916395D01*
X158780051Y-73980243D01*
X158751487Y-74004994D01*
X158647737Y-74070184D01*
X158520184Y-74197737D01*
X158424211Y-74350476D01*
X158364631Y-74520745D01*
X158364630Y-74520750D01*
X158344435Y-74699996D01*
X158344435Y-74700003D01*
X158364630Y-74879249D01*
X158364633Y-74879262D01*
X158426510Y-75056094D01*
X158424364Y-75056844D01*
X158433962Y-75115144D01*
X158425609Y-75143590D01*
X158426510Y-75143906D01*
X158364633Y-75320737D01*
X158364630Y-75320750D01*
X158344435Y-75499996D01*
X158344435Y-75500003D01*
X158364630Y-75679249D01*
X158364633Y-75679262D01*
X158426510Y-75856094D01*
X158424364Y-75856844D01*
X158433962Y-75915144D01*
X158425609Y-75943590D01*
X158426510Y-75943906D01*
X158364633Y-76120737D01*
X158364630Y-76120750D01*
X158344435Y-76299996D01*
X158344435Y-76300003D01*
X158364630Y-76479249D01*
X158364631Y-76479254D01*
X158424211Y-76649523D01*
X158493649Y-76760032D01*
X158520184Y-76802262D01*
X158647738Y-76929816D01*
X158757423Y-76998736D01*
X158765548Y-77003841D01*
X158811839Y-77056176D01*
X158822487Y-77125229D01*
X158804270Y-77170810D01*
X158806180Y-77171913D01*
X158802929Y-77177543D01*
X158764740Y-77263315D01*
X158719489Y-77316552D01*
X158687458Y-77331538D01*
X158634496Y-77347604D01*
X158469376Y-77435862D01*
X158469373Y-77435864D01*
X158324642Y-77554642D01*
X158205864Y-77699373D01*
X158205862Y-77699376D01*
X158117604Y-77864497D01*
X158063253Y-78043666D01*
X158063252Y-78043668D01*
X158044901Y-78230000D01*
X158063252Y-78416331D01*
X158063253Y-78416333D01*
X158117604Y-78595502D01*
X158205862Y-78760623D01*
X158205864Y-78760626D01*
X158324642Y-78905357D01*
X158469373Y-79024135D01*
X158469376Y-79024137D01*
X158582352Y-79084523D01*
X158634499Y-79112396D01*
X158775858Y-79155277D01*
X158813666Y-79166746D01*
X158813668Y-79166747D01*
X158830374Y-79168392D01*
X159000000Y-79185099D01*
X159186331Y-79166747D01*
X159365501Y-79112396D01*
X159491326Y-79045142D01*
X159549779Y-79030500D01*
X159578844Y-79030500D01*
X159578845Y-79030499D01*
X159733497Y-78999737D01*
X159879179Y-78939394D01*
X160010289Y-78851789D01*
X160121789Y-78740289D01*
X160206626Y-78613320D01*
X160260236Y-78568517D01*
X160329561Y-78559810D01*
X160333919Y-78560596D01*
X160408843Y-78575500D01*
X160408846Y-78575500D01*
X160591156Y-78575500D01*
X160711445Y-78551572D01*
X160769958Y-78539933D01*
X160866375Y-78499996D01*
X162194435Y-78499996D01*
X162194435Y-78500003D01*
X162214630Y-78679249D01*
X162214631Y-78679254D01*
X162274211Y-78849523D01*
X162348845Y-78968302D01*
X162370184Y-79002262D01*
X162497738Y-79129816D01*
X162578401Y-79180500D01*
X162632721Y-79214632D01*
X162650478Y-79225789D01*
X162788860Y-79274211D01*
X162820745Y-79285368D01*
X162820750Y-79285369D01*
X162999996Y-79305565D01*
X163000000Y-79305565D01*
X163000004Y-79305565D01*
X163179249Y-79285369D01*
X163179252Y-79285368D01*
X163179255Y-79285368D01*
X163349522Y-79225789D01*
X163502262Y-79129816D01*
X163629816Y-79002262D01*
X163725789Y-78849522D01*
X163785368Y-78679255D01*
X163785369Y-78679249D01*
X163805565Y-78500003D01*
X163805565Y-78499996D01*
X163785369Y-78320750D01*
X163785368Y-78320745D01*
X163757104Y-78239972D01*
X163725789Y-78150478D01*
X163631235Y-77999996D01*
X168694435Y-77999996D01*
X168694435Y-78000003D01*
X168714630Y-78179249D01*
X168714631Y-78179254D01*
X168774211Y-78349523D01*
X168824513Y-78429577D01*
X168870184Y-78502262D01*
X168997738Y-78629816D01*
X169088080Y-78686582D01*
X169132721Y-78714632D01*
X169150478Y-78725789D01*
X169288860Y-78774211D01*
X169320745Y-78785368D01*
X169320750Y-78785369D01*
X169499996Y-78805565D01*
X169500000Y-78805565D01*
X169500004Y-78805565D01*
X169679249Y-78785369D01*
X169679252Y-78785368D01*
X169679255Y-78785368D01*
X169849522Y-78725789D01*
X170002262Y-78629816D01*
X170129816Y-78502262D01*
X170225789Y-78349522D01*
X170285368Y-78179255D01*
X170285369Y-78179249D01*
X170305565Y-78000003D01*
X170305565Y-77999996D01*
X170285369Y-77820750D01*
X170285368Y-77820745D01*
X170269085Y-77774211D01*
X170225789Y-77650478D01*
X170129816Y-77497738D01*
X170002262Y-77370184D01*
X169966326Y-77347604D01*
X169849523Y-77274211D01*
X169679254Y-77214631D01*
X169679249Y-77214630D01*
X169500004Y-77194435D01*
X169499996Y-77194435D01*
X169320750Y-77214630D01*
X169320745Y-77214631D01*
X169150476Y-77274211D01*
X168997737Y-77370184D01*
X168870184Y-77497737D01*
X168774211Y-77650476D01*
X168714631Y-77820745D01*
X168714630Y-77820750D01*
X168694435Y-77999996D01*
X163631235Y-77999996D01*
X163629816Y-77997738D01*
X163502262Y-77870184D01*
X163469379Y-77849522D01*
X163349523Y-77774211D01*
X163179254Y-77714631D01*
X163179249Y-77714630D01*
X163000004Y-77694435D01*
X162999996Y-77694435D01*
X162820750Y-77714630D01*
X162820745Y-77714631D01*
X162650476Y-77774211D01*
X162497737Y-77870184D01*
X162370184Y-77997737D01*
X162274211Y-78150476D01*
X162214631Y-78320745D01*
X162214630Y-78320750D01*
X162194435Y-78499996D01*
X160866375Y-78499996D01*
X160938389Y-78470167D01*
X160938391Y-78470166D01*
X161018961Y-78416331D01*
X161089972Y-78368883D01*
X161218883Y-78239972D01*
X161300397Y-78117977D01*
X161320166Y-78088391D01*
X161320168Y-78088387D01*
X161357716Y-77997737D01*
X161389933Y-77919958D01*
X161416705Y-77785368D01*
X161425500Y-77741156D01*
X161425500Y-77258843D01*
X161389934Y-77080047D01*
X161389933Y-77080046D01*
X161389933Y-77080042D01*
X161389931Y-77080037D01*
X161320168Y-76911612D01*
X161320166Y-76911608D01*
X161218886Y-76760032D01*
X161218880Y-76760024D01*
X161089975Y-76631119D01*
X161089967Y-76631113D01*
X160938391Y-76529833D01*
X160938387Y-76529831D01*
X160769962Y-76460068D01*
X160769952Y-76460065D01*
X160671937Y-76440568D01*
X160610026Y-76408182D01*
X160579086Y-76359901D01*
X160575789Y-76350478D01*
X160575788Y-76350477D01*
X160575789Y-76350477D01*
X160502216Y-76233387D01*
X160479816Y-76197738D01*
X160352262Y-76070184D01*
X160248510Y-76004992D01*
X160202221Y-75952659D01*
X160191573Y-75883606D01*
X160219948Y-75819757D01*
X160248509Y-75795007D01*
X160352262Y-75729816D01*
X160479816Y-75602262D01*
X160575789Y-75449522D01*
X160635368Y-75279255D01*
X160635369Y-75279249D01*
X160655565Y-75100003D01*
X160655565Y-75099996D01*
X160635369Y-74920750D01*
X160635366Y-74920737D01*
X160573489Y-74743905D01*
X160575637Y-74743153D01*
X160566035Y-74684872D01*
X160574392Y-74656411D01*
X160573489Y-74656095D01*
X160635366Y-74479262D01*
X160635369Y-74479249D01*
X160655565Y-74300003D01*
X160655565Y-74300000D01*
X160655307Y-74297712D01*
X160655565Y-74296238D01*
X160655565Y-74293036D01*
X160656126Y-74293036D01*
X160667357Y-74228889D01*
X160714703Y-74177506D01*
X160748854Y-74163423D01*
X160751364Y-74162804D01*
X160751364Y-74162803D01*
X160751368Y-74162803D01*
X160902683Y-74083387D01*
X161030595Y-73970066D01*
X161127671Y-73829427D01*
X161188270Y-73669643D01*
X161208868Y-73500000D01*
X161188270Y-73330357D01*
X161127671Y-73170573D01*
X161113800Y-73150478D01*
X161055471Y-73065973D01*
X161030595Y-73029934D01*
X160902683Y-72916613D01*
X160751368Y-72837197D01*
X160751367Y-72837196D01*
X160751364Y-72837195D01*
X160751361Y-72837194D01*
X160748845Y-72836574D01*
X160747199Y-72835615D01*
X160744350Y-72834535D01*
X160744529Y-72834061D01*
X160688466Y-72801415D01*
X160656681Y-72739194D01*
X160655307Y-72702286D01*
X160655565Y-72699997D01*
X160655565Y-72699996D01*
X160635369Y-72520750D01*
X160635368Y-72520745D01*
X160628108Y-72499996D01*
X160575789Y-72350478D01*
X160568895Y-72339507D01*
X160517924Y-72258387D01*
X160479816Y-72197738D01*
X160432078Y-72150000D01*
X160976133Y-72150000D01*
X160996730Y-72319642D01*
X161057330Y-72479428D01*
X161085853Y-72520750D01*
X161154406Y-72620066D01*
X161282318Y-72733387D01*
X161433633Y-72812803D01*
X161599556Y-72853700D01*
X161599557Y-72853700D01*
X161770445Y-72853700D01*
X161770446Y-72853700D01*
X161936369Y-72812803D01*
X162026050Y-72765734D01*
X162094557Y-72752010D01*
X162159610Y-72777503D01*
X162200554Y-72834119D01*
X162206894Y-72889415D01*
X162194435Y-72999996D01*
X162194435Y-73000003D01*
X162214630Y-73179249D01*
X162214631Y-73179254D01*
X162274211Y-73349523D01*
X162337045Y-73449522D01*
X162370184Y-73502262D01*
X162497738Y-73629816D01*
X162539263Y-73655908D01*
X162632721Y-73714632D01*
X162650478Y-73725789D01*
X162756541Y-73762902D01*
X162820745Y-73785368D01*
X162820750Y-73785369D01*
X162999996Y-73805565D01*
X163000000Y-73805565D01*
X163000003Y-73805565D01*
X163152862Y-73788342D01*
X163221684Y-73800396D01*
X163271740Y-73845590D01*
X163370184Y-74002262D01*
X163415476Y-74047554D01*
X163448961Y-74108877D01*
X163443977Y-74178569D01*
X163402105Y-74234502D01*
X163336641Y-74258919D01*
X163286841Y-74252277D01*
X163179257Y-74214632D01*
X163179249Y-74214630D01*
X163000004Y-74194435D01*
X162999996Y-74194435D01*
X162820750Y-74214630D01*
X162820745Y-74214631D01*
X162650476Y-74274211D01*
X162497737Y-74370184D01*
X162370184Y-74497737D01*
X162274210Y-74650478D01*
X162214630Y-74820751D01*
X162212892Y-74836182D01*
X162185826Y-74900596D01*
X162128232Y-74940152D01*
X162089672Y-74946300D01*
X162085445Y-74946300D01*
X161914555Y-74946300D01*
X161873659Y-74956380D01*
X161748633Y-74987196D01*
X161597318Y-75066612D01*
X161469405Y-75179933D01*
X161469403Y-75179936D01*
X161372329Y-75320571D01*
X161311729Y-75480357D01*
X161291132Y-75650000D01*
X161311729Y-75819642D01*
X161372329Y-75979428D01*
X161421386Y-76050499D01*
X161469405Y-76120066D01*
X161597317Y-76233387D01*
X161724238Y-76300000D01*
X161734165Y-76305210D01*
X161784378Y-76353795D01*
X161800353Y-76421814D01*
X161799636Y-76429951D01*
X161791132Y-76499997D01*
X161791132Y-76499999D01*
X161811729Y-76669642D01*
X161872329Y-76829428D01*
X161929054Y-76911608D01*
X161969405Y-76970066D01*
X162097317Y-77083387D01*
X162248632Y-77162803D01*
X162414555Y-77203700D01*
X162414556Y-77203700D01*
X162585444Y-77203700D01*
X162585445Y-77203700D01*
X162751368Y-77162803D01*
X162902683Y-77083387D01*
X162996811Y-76999996D01*
X183694435Y-76999996D01*
X183694435Y-77000003D01*
X183714630Y-77179249D01*
X183714631Y-77179254D01*
X183774211Y-77349523D01*
X183850332Y-77470668D01*
X183870184Y-77502262D01*
X183997738Y-77629816D01*
X184088080Y-77686582D01*
X184132721Y-77714632D01*
X184150478Y-77725789D01*
X184288860Y-77774211D01*
X184320745Y-77785368D01*
X184320750Y-77785369D01*
X184499996Y-77805565D01*
X184500000Y-77805565D01*
X184500004Y-77805565D01*
X184679249Y-77785369D01*
X184679252Y-77785368D01*
X184679255Y-77785368D01*
X184849522Y-77725789D01*
X185002262Y-77629816D01*
X185129816Y-77502262D01*
X185225789Y-77349522D01*
X185285368Y-77179255D01*
X185285561Y-77177543D01*
X185305565Y-77000003D01*
X185305565Y-76999996D01*
X185285369Y-76820750D01*
X185285368Y-76820745D01*
X185280056Y-76805565D01*
X185225789Y-76650478D01*
X185225188Y-76649522D01*
X185186582Y-76588080D01*
X185129816Y-76497738D01*
X185002262Y-76370184D01*
X184935964Y-76328526D01*
X184849523Y-76274211D01*
X184679254Y-76214631D01*
X184679249Y-76214630D01*
X184500004Y-76194435D01*
X184499996Y-76194435D01*
X184320750Y-76214630D01*
X184320745Y-76214631D01*
X184150476Y-76274211D01*
X183997737Y-76370184D01*
X183870184Y-76497737D01*
X183774211Y-76650476D01*
X183714631Y-76820745D01*
X183714630Y-76820750D01*
X183694435Y-76999996D01*
X162996811Y-76999996D01*
X163030595Y-76970066D01*
X163127671Y-76829427D01*
X163188270Y-76669643D01*
X163208868Y-76500000D01*
X163188270Y-76330357D01*
X163127671Y-76170573D01*
X163122373Y-76162898D01*
X163079133Y-76100253D01*
X163030595Y-76029934D01*
X163012376Y-76013793D01*
X163011085Y-76012649D01*
X163003149Y-75999996D01*
X165194435Y-75999996D01*
X165194435Y-76000003D01*
X165214630Y-76179249D01*
X165214631Y-76179254D01*
X165274211Y-76349523D01*
X165343670Y-76460065D01*
X165370184Y-76502262D01*
X165497738Y-76629816D01*
X165551812Y-76663793D01*
X165641942Y-76720426D01*
X165650478Y-76725789D01*
X165748339Y-76760032D01*
X165820745Y-76785368D01*
X165820750Y-76785369D01*
X165999996Y-76805565D01*
X166000000Y-76805565D01*
X166000004Y-76805565D01*
X166179249Y-76785369D01*
X166179252Y-76785368D01*
X166179255Y-76785368D01*
X166349522Y-76725789D01*
X166502262Y-76629816D01*
X166629816Y-76502262D01*
X166725789Y-76349522D01*
X166785368Y-76179255D01*
X166785369Y-76179249D01*
X166805565Y-76000003D01*
X166805565Y-75999996D01*
X166785369Y-75820750D01*
X166785368Y-75820745D01*
X166776925Y-75796615D01*
X166725789Y-75650478D01*
X166629816Y-75497738D01*
X166502262Y-75370184D01*
X166469379Y-75349522D01*
X166349523Y-75274211D01*
X166179254Y-75214631D01*
X166179249Y-75214630D01*
X166000004Y-75194435D01*
X165999996Y-75194435D01*
X165820750Y-75214630D01*
X165820745Y-75214631D01*
X165650476Y-75274211D01*
X165497737Y-75370184D01*
X165370184Y-75497737D01*
X165274211Y-75650476D01*
X165214631Y-75820745D01*
X165214630Y-75820750D01*
X165194435Y-75999996D01*
X163003149Y-75999996D01*
X162973960Y-75953458D01*
X162974729Y-75883593D01*
X163013148Y-75825234D01*
X163077019Y-75796910D01*
X163079406Y-75796618D01*
X163122540Y-75791758D01*
X163179249Y-75785369D01*
X163179252Y-75785368D01*
X163179255Y-75785368D01*
X163349522Y-75725789D01*
X163502262Y-75629816D01*
X163629816Y-75502262D01*
X163725789Y-75349522D01*
X163785368Y-75179255D01*
X163785369Y-75179249D01*
X163805565Y-75000003D01*
X163805565Y-74999996D01*
X163785369Y-74820750D01*
X163785368Y-74820745D01*
X163766711Y-74767427D01*
X163747721Y-74713158D01*
X163744161Y-74643380D01*
X163778890Y-74582752D01*
X163840883Y-74550525D01*
X163910458Y-74556930D01*
X163952445Y-74584523D01*
X163997738Y-74629816D01*
X164039561Y-74656095D01*
X164132721Y-74714632D01*
X164150478Y-74725789D01*
X164269473Y-74767427D01*
X164320745Y-74785368D01*
X164320750Y-74785369D01*
X164499996Y-74805565D01*
X164500000Y-74805565D01*
X164500004Y-74805565D01*
X164679249Y-74785369D01*
X164679252Y-74785368D01*
X164679255Y-74785368D01*
X164849522Y-74725789D01*
X165002262Y-74629816D01*
X165129816Y-74502262D01*
X165225789Y-74349522D01*
X165255308Y-74265161D01*
X170429270Y-74265161D01*
X170429270Y-74265168D01*
X170449465Y-74444414D01*
X170449466Y-74444419D01*
X170509046Y-74614688D01*
X170578855Y-74725788D01*
X170605019Y-74767427D01*
X170732573Y-74894981D01*
X170804462Y-74940152D01*
X170879333Y-74987197D01*
X170885313Y-74990954D01*
X171052691Y-75049522D01*
X171055580Y-75050533D01*
X171055585Y-75050534D01*
X171234831Y-75070730D01*
X171234835Y-75070730D01*
X171234839Y-75070730D01*
X171414084Y-75050534D01*
X171414087Y-75050533D01*
X171414090Y-75050533D01*
X171584357Y-74990954D01*
X171737097Y-74894981D01*
X171864651Y-74767427D01*
X171960624Y-74614687D01*
X172000756Y-74499996D01*
X183694435Y-74499996D01*
X183694435Y-74500003D01*
X183714630Y-74679249D01*
X183714631Y-74679254D01*
X183774211Y-74849523D01*
X183852356Y-74973889D01*
X183870184Y-75002262D01*
X183997738Y-75129816D01*
X184088080Y-75186582D01*
X184132721Y-75214632D01*
X184150478Y-75225789D01*
X184288860Y-75274211D01*
X184320745Y-75285368D01*
X184320750Y-75285369D01*
X184499996Y-75305565D01*
X184500000Y-75305565D01*
X184500004Y-75305565D01*
X184679249Y-75285369D01*
X184679252Y-75285368D01*
X184679255Y-75285368D01*
X184849522Y-75225789D01*
X185002262Y-75129816D01*
X185129816Y-75002262D01*
X185225789Y-74849522D01*
X185285368Y-74679255D01*
X185287942Y-74656411D01*
X185305565Y-74500003D01*
X185305565Y-74499996D01*
X185285369Y-74320750D01*
X185285368Y-74320745D01*
X185242326Y-74197738D01*
X185225789Y-74150478D01*
X185129816Y-73997738D01*
X185002262Y-73870184D01*
X184969379Y-73849522D01*
X184849523Y-73774211D01*
X184679254Y-73714631D01*
X184679249Y-73714630D01*
X184500004Y-73694435D01*
X184499996Y-73694435D01*
X184320750Y-73714630D01*
X184320745Y-73714631D01*
X184150476Y-73774211D01*
X183997737Y-73870184D01*
X183870184Y-73997737D01*
X183774211Y-74150476D01*
X183714631Y-74320745D01*
X183714630Y-74320750D01*
X183694435Y-74499996D01*
X172000756Y-74499996D01*
X172020203Y-74444420D01*
X172020204Y-74444414D01*
X172040400Y-74265168D01*
X172040400Y-74265162D01*
X172030720Y-74179254D01*
X172029518Y-74168585D01*
X172041572Y-74099764D01*
X172065057Y-74067020D01*
X172066106Y-74065971D01*
X172129816Y-74002262D01*
X172225789Y-73849522D01*
X172285368Y-73679255D01*
X172286929Y-73665401D01*
X172305565Y-73500003D01*
X172305565Y-73499996D01*
X172285369Y-73320750D01*
X172285368Y-73320745D01*
X172246483Y-73209618D01*
X172225789Y-73150478D01*
X172212447Y-73129245D01*
X172138855Y-73012124D01*
X172129816Y-72997738D01*
X172002262Y-72870184D01*
X171969379Y-72849522D01*
X171849523Y-72774211D01*
X171679254Y-72714631D01*
X171679249Y-72714630D01*
X171500004Y-72694435D01*
X171499996Y-72694435D01*
X171320750Y-72714630D01*
X171320745Y-72714631D01*
X171150476Y-72774211D01*
X170997737Y-72870184D01*
X170870184Y-72997737D01*
X170774211Y-73150476D01*
X170714631Y-73320745D01*
X170714630Y-73320750D01*
X170694435Y-73499996D01*
X170694435Y-73500003D01*
X170705316Y-73596579D01*
X170693261Y-73665401D01*
X170669778Y-73698143D01*
X170605019Y-73762902D01*
X170509046Y-73915641D01*
X170449466Y-74085910D01*
X170449465Y-74085915D01*
X170429270Y-74265161D01*
X165255308Y-74265161D01*
X165285368Y-74179255D01*
X165285369Y-74179249D01*
X165305565Y-74000003D01*
X165305565Y-73999996D01*
X165285369Y-73820750D01*
X165285368Y-73820745D01*
X165278248Y-73800396D01*
X165225789Y-73650478D01*
X165225174Y-73649500D01*
X165186582Y-73588080D01*
X165129816Y-73497738D01*
X165002262Y-73370184D01*
X164938878Y-73330357D01*
X164849524Y-73274212D01*
X164849523Y-73274211D01*
X164829084Y-73267059D01*
X164814224Y-73261859D01*
X164757450Y-73221138D01*
X164738139Y-73185772D01*
X164725790Y-73150479D01*
X164638855Y-73012124D01*
X164629816Y-72997738D01*
X164502262Y-72870184D01*
X164469379Y-72849522D01*
X164349523Y-72774211D01*
X164179254Y-72714631D01*
X164179249Y-72714630D01*
X164000004Y-72694435D01*
X163999996Y-72694435D01*
X163847136Y-72711657D01*
X163778314Y-72699602D01*
X163728259Y-72654409D01*
X163631237Y-72500000D01*
X163631234Y-72499996D01*
X172694435Y-72499996D01*
X172694435Y-72500003D01*
X172714630Y-72679249D01*
X172714633Y-72679262D01*
X172774209Y-72849520D01*
X172827309Y-72934029D01*
X172846309Y-73001266D01*
X172827309Y-73065971D01*
X172774209Y-73150479D01*
X172714633Y-73320737D01*
X172714630Y-73320750D01*
X172694435Y-73499996D01*
X172694435Y-73500003D01*
X172714630Y-73679249D01*
X172714631Y-73679254D01*
X172774211Y-73849523D01*
X172867341Y-73997737D01*
X172870184Y-74002262D01*
X172997738Y-74129816D01*
X173050238Y-74162804D01*
X173132721Y-74214632D01*
X173150478Y-74225789D01*
X173245158Y-74258919D01*
X173320745Y-74285368D01*
X173320750Y-74285369D01*
X173499996Y-74305565D01*
X173500000Y-74305565D01*
X173500004Y-74305565D01*
X173679249Y-74285369D01*
X173679252Y-74285368D01*
X173679255Y-74285368D01*
X173849522Y-74225789D01*
X174002262Y-74129816D01*
X174129816Y-74002262D01*
X174225789Y-73849522D01*
X174285368Y-73679255D01*
X174286929Y-73665401D01*
X174305565Y-73500003D01*
X174305565Y-73499996D01*
X187194435Y-73499996D01*
X187194435Y-73500003D01*
X187214630Y-73679249D01*
X187214633Y-73679262D01*
X187274209Y-73849520D01*
X187327309Y-73934029D01*
X187346309Y-74001266D01*
X187327309Y-74065971D01*
X187274209Y-74150479D01*
X187214633Y-74320737D01*
X187214630Y-74320750D01*
X187194435Y-74499996D01*
X187194435Y-74500003D01*
X187214630Y-74679249D01*
X187214633Y-74679262D01*
X187274209Y-74849520D01*
X187327309Y-74934029D01*
X187346309Y-75001266D01*
X187327309Y-75065971D01*
X187274209Y-75150479D01*
X187214633Y-75320737D01*
X187214630Y-75320750D01*
X187194435Y-75499996D01*
X187194435Y-75500003D01*
X187214630Y-75679249D01*
X187214633Y-75679262D01*
X187274209Y-75849520D01*
X187327309Y-75934029D01*
X187346309Y-76001266D01*
X187327309Y-76065971D01*
X187274209Y-76150479D01*
X187214633Y-76320737D01*
X187214630Y-76320750D01*
X187194435Y-76499996D01*
X187194435Y-76500003D01*
X187214630Y-76679249D01*
X187214633Y-76679262D01*
X187274209Y-76849520D01*
X187327309Y-76934029D01*
X187346309Y-77001266D01*
X187327309Y-77065971D01*
X187274209Y-77150479D01*
X187214633Y-77320737D01*
X187214630Y-77320750D01*
X187194435Y-77499996D01*
X187194435Y-77500003D01*
X187214630Y-77679249D01*
X187214633Y-77679262D01*
X187274209Y-77849520D01*
X187327309Y-77934029D01*
X187346309Y-78001266D01*
X187327309Y-78065971D01*
X187274209Y-78150479D01*
X187214633Y-78320737D01*
X187214630Y-78320750D01*
X187194435Y-78499996D01*
X187194435Y-78500003D01*
X187214630Y-78679249D01*
X187214631Y-78679254D01*
X187274211Y-78849523D01*
X187348845Y-78968302D01*
X187370184Y-79002262D01*
X187497738Y-79129816D01*
X187578401Y-79180500D01*
X187632721Y-79214632D01*
X187650478Y-79225789D01*
X187788860Y-79274211D01*
X187820745Y-79285368D01*
X187820750Y-79285369D01*
X187999996Y-79305565D01*
X188000000Y-79305565D01*
X188000004Y-79305565D01*
X188179249Y-79285369D01*
X188179252Y-79285368D01*
X188179255Y-79285368D01*
X188349522Y-79225789D01*
X188367279Y-79214632D01*
X188434027Y-79172691D01*
X188501264Y-79153690D01*
X188565973Y-79172691D01*
X188650475Y-79225788D01*
X188820745Y-79285368D01*
X188820750Y-79285369D01*
X188999996Y-79305565D01*
X189000000Y-79305565D01*
X189000004Y-79305565D01*
X189179249Y-79285369D01*
X189179252Y-79285368D01*
X189179255Y-79285368D01*
X189349522Y-79225789D01*
X189367279Y-79214632D01*
X189434027Y-79172691D01*
X189501264Y-79153690D01*
X189565973Y-79172691D01*
X189650475Y-79225788D01*
X189820745Y-79285368D01*
X189820750Y-79285369D01*
X189999996Y-79305565D01*
X190000000Y-79305565D01*
X190000004Y-79305565D01*
X190179249Y-79285369D01*
X190179252Y-79285368D01*
X190179255Y-79285368D01*
X190349522Y-79225789D01*
X190367279Y-79214632D01*
X190434027Y-79172691D01*
X190501264Y-79153690D01*
X190565973Y-79172691D01*
X190650475Y-79225788D01*
X190820745Y-79285368D01*
X190820750Y-79285369D01*
X190999996Y-79305565D01*
X191000000Y-79305565D01*
X191000004Y-79305565D01*
X191179249Y-79285369D01*
X191179252Y-79285368D01*
X191179255Y-79285368D01*
X191349522Y-79225789D01*
X191367279Y-79214632D01*
X191434027Y-79172691D01*
X191501264Y-79153690D01*
X191565973Y-79172691D01*
X191650475Y-79225788D01*
X191820745Y-79285368D01*
X191820750Y-79285369D01*
X191999996Y-79305565D01*
X192000000Y-79305565D01*
X192000004Y-79305565D01*
X192179249Y-79285369D01*
X192179252Y-79285368D01*
X192179255Y-79285368D01*
X192349522Y-79225789D01*
X192367279Y-79214632D01*
X192434027Y-79172691D01*
X192501264Y-79153690D01*
X192565973Y-79172691D01*
X192650475Y-79225788D01*
X192820745Y-79285368D01*
X192820750Y-79285369D01*
X192999996Y-79305565D01*
X193000000Y-79305565D01*
X193000004Y-79305565D01*
X193179249Y-79285369D01*
X193179252Y-79285368D01*
X193179255Y-79285368D01*
X193349522Y-79225789D01*
X193502262Y-79129816D01*
X193629816Y-79002262D01*
X193725789Y-78849522D01*
X193785368Y-78679255D01*
X193785369Y-78679249D01*
X193805565Y-78500003D01*
X193805565Y-78499996D01*
X193785369Y-78320750D01*
X193785368Y-78320745D01*
X193725788Y-78150475D01*
X193672691Y-78065973D01*
X193653690Y-77998736D01*
X193672691Y-77934027D01*
X193725788Y-77849524D01*
X193725789Y-77849522D01*
X193785368Y-77679255D01*
X193785369Y-77679249D01*
X193805565Y-77500003D01*
X193805565Y-77499996D01*
X193785369Y-77320750D01*
X193785368Y-77320745D01*
X193725788Y-77150475D01*
X193672691Y-77065973D01*
X193653690Y-76998736D01*
X193672691Y-76934027D01*
X193725788Y-76849524D01*
X193725789Y-76849522D01*
X193785368Y-76679255D01*
X193787110Y-76663793D01*
X193805565Y-76500003D01*
X193805565Y-76499996D01*
X193785369Y-76320750D01*
X193785368Y-76320745D01*
X193725788Y-76150475D01*
X193672691Y-76065973D01*
X193654046Y-75999996D01*
X200694435Y-75999996D01*
X200694435Y-76000003D01*
X200714630Y-76179249D01*
X200714631Y-76179254D01*
X200774211Y-76349523D01*
X200843670Y-76460065D01*
X200870184Y-76502262D01*
X200997738Y-76629816D01*
X201051812Y-76663793D01*
X201141942Y-76720426D01*
X201150478Y-76725789D01*
X201248339Y-76760032D01*
X201320745Y-76785368D01*
X201320750Y-76785369D01*
X201499996Y-76805565D01*
X201500000Y-76805565D01*
X201500004Y-76805565D01*
X201679249Y-76785369D01*
X201679252Y-76785368D01*
X201679255Y-76785368D01*
X201849522Y-76725789D01*
X202002262Y-76629816D01*
X202129816Y-76502262D01*
X202225789Y-76349522D01*
X202285368Y-76179255D01*
X202285369Y-76179249D01*
X202305565Y-76000003D01*
X202305565Y-75999996D01*
X210194435Y-75999996D01*
X210194435Y-76000003D01*
X210214630Y-76179249D01*
X210214631Y-76179254D01*
X210274211Y-76349523D01*
X210343670Y-76460065D01*
X210370184Y-76502262D01*
X210497738Y-76629816D01*
X210551812Y-76663793D01*
X210641942Y-76720426D01*
X210650478Y-76725789D01*
X210748339Y-76760032D01*
X210820745Y-76785368D01*
X210820750Y-76785369D01*
X210999996Y-76805565D01*
X211000000Y-76805565D01*
X211000004Y-76805565D01*
X211179249Y-76785369D01*
X211179252Y-76785368D01*
X211179255Y-76785368D01*
X211349522Y-76725789D01*
X211502262Y-76629816D01*
X211629816Y-76502262D01*
X211645007Y-76478084D01*
X211697339Y-76431796D01*
X211766393Y-76421146D01*
X211830242Y-76449521D01*
X211854990Y-76478082D01*
X211870184Y-76502262D01*
X211997738Y-76629816D01*
X212051812Y-76663793D01*
X212141942Y-76720426D01*
X212150478Y-76725789D01*
X212248339Y-76760032D01*
X212320745Y-76785368D01*
X212320750Y-76785369D01*
X212499996Y-76805565D01*
X212500000Y-76805565D01*
X212500004Y-76805565D01*
X212679249Y-76785369D01*
X212679252Y-76785368D01*
X212679255Y-76785368D01*
X212849522Y-76725789D01*
X213002262Y-76629816D01*
X213129816Y-76502262D01*
X213145007Y-76478084D01*
X213197339Y-76431796D01*
X213266393Y-76421146D01*
X213330242Y-76449521D01*
X213354990Y-76478082D01*
X213370184Y-76502262D01*
X213497738Y-76629816D01*
X213551812Y-76663793D01*
X213641942Y-76720426D01*
X213650478Y-76725789D01*
X213748339Y-76760032D01*
X213820745Y-76785368D01*
X213820750Y-76785369D01*
X213999996Y-76805565D01*
X214000000Y-76805565D01*
X214000004Y-76805565D01*
X214179249Y-76785369D01*
X214179252Y-76785368D01*
X214179255Y-76785368D01*
X214349522Y-76725789D01*
X214502262Y-76629816D01*
X214629816Y-76502262D01*
X214631240Y-76499996D01*
X217694435Y-76499996D01*
X217694435Y-76500003D01*
X217714630Y-76679249D01*
X217714631Y-76679254D01*
X217774211Y-76849523D01*
X217849952Y-76970063D01*
X217870184Y-77002262D01*
X217997738Y-77129816D01*
X218062980Y-77170810D01*
X218132721Y-77214632D01*
X218150478Y-77225789D01*
X218257721Y-77263315D01*
X218320745Y-77285368D01*
X218320750Y-77285369D01*
X218499996Y-77305565D01*
X218500000Y-77305565D01*
X218500004Y-77305565D01*
X218679249Y-77285369D01*
X218679252Y-77285368D01*
X218679255Y-77285368D01*
X218849522Y-77225789D01*
X219002262Y-77129816D01*
X219129816Y-77002262D01*
X219225789Y-76849522D01*
X219285368Y-76679255D01*
X219287110Y-76663793D01*
X219305565Y-76500003D01*
X219305565Y-76499996D01*
X219694435Y-76499996D01*
X219694435Y-76500003D01*
X219714630Y-76679249D01*
X219714631Y-76679254D01*
X219774211Y-76849523D01*
X219849952Y-76970063D01*
X219870184Y-77002262D01*
X219997738Y-77129816D01*
X220062980Y-77170810D01*
X220132721Y-77214632D01*
X220150478Y-77225789D01*
X220257721Y-77263315D01*
X220320745Y-77285368D01*
X220320750Y-77285369D01*
X220499996Y-77305565D01*
X220500000Y-77305565D01*
X220500004Y-77305565D01*
X220679249Y-77285369D01*
X220679252Y-77285368D01*
X220679255Y-77285368D01*
X220780340Y-77249997D01*
X240494723Y-77249997D01*
X240494723Y-77250002D01*
X240500912Y-77320745D01*
X240510983Y-77435862D01*
X240513793Y-77467975D01*
X240513793Y-77467979D01*
X240570422Y-77679322D01*
X240570424Y-77679326D01*
X240570425Y-77679330D01*
X240579773Y-77699376D01*
X240662897Y-77877638D01*
X240662898Y-77877639D01*
X240788402Y-78056877D01*
X240943123Y-78211598D01*
X241122361Y-78337102D01*
X241320670Y-78429575D01*
X241532023Y-78486207D01*
X241714926Y-78502208D01*
X241749998Y-78505277D01*
X241750000Y-78505277D01*
X241750002Y-78505277D01*
X241778254Y-78502805D01*
X241967977Y-78486207D01*
X242179330Y-78429575D01*
X242377639Y-78337102D01*
X242556877Y-78211598D01*
X242711598Y-78056877D01*
X242821447Y-77899997D01*
X250244723Y-77899997D01*
X250244723Y-77900002D01*
X250246469Y-77919958D01*
X250261204Y-78088389D01*
X250263793Y-78117975D01*
X250263793Y-78117979D01*
X250320422Y-78329322D01*
X250320424Y-78329326D01*
X250320425Y-78329330D01*
X250339476Y-78370184D01*
X250412897Y-78527638D01*
X250412898Y-78527639D01*
X250538402Y-78706877D01*
X250693123Y-78861598D01*
X250872361Y-78987102D01*
X251070670Y-79079575D01*
X251070676Y-79079576D01*
X251070677Y-79079577D01*
X251089136Y-79084523D01*
X251282023Y-79136207D01*
X251464926Y-79152208D01*
X251499998Y-79155277D01*
X251500000Y-79155277D01*
X251500002Y-79155277D01*
X251528254Y-79152805D01*
X251717977Y-79136207D01*
X251929330Y-79079575D01*
X252127639Y-78987102D01*
X252306877Y-78861598D01*
X252461598Y-78706877D01*
X252587102Y-78527639D01*
X252679575Y-78329330D01*
X252736207Y-78117977D01*
X252753531Y-77919958D01*
X252755277Y-77900002D01*
X252755277Y-77899997D01*
X252750861Y-77849520D01*
X252736207Y-77682023D01*
X252685210Y-77491700D01*
X252679577Y-77470677D01*
X252679576Y-77470676D01*
X252679575Y-77470670D01*
X252587102Y-77272362D01*
X252587100Y-77272359D01*
X252587099Y-77272357D01*
X252461599Y-77093124D01*
X252394264Y-77025789D01*
X252306877Y-76938402D01*
X252127639Y-76812898D01*
X252127640Y-76812898D01*
X252127638Y-76812897D01*
X252014250Y-76760024D01*
X251929330Y-76720425D01*
X251929326Y-76720424D01*
X251929322Y-76720422D01*
X251717977Y-76663793D01*
X251500002Y-76644723D01*
X251499998Y-76644723D01*
X251354682Y-76657436D01*
X251282023Y-76663793D01*
X251282020Y-76663793D01*
X251070677Y-76720422D01*
X251070668Y-76720426D01*
X250872361Y-76812898D01*
X250872357Y-76812900D01*
X250693121Y-76938402D01*
X250538402Y-77093121D01*
X250412900Y-77272357D01*
X250412898Y-77272361D01*
X250320426Y-77470668D01*
X250320422Y-77470677D01*
X250263793Y-77682020D01*
X250263793Y-77682024D01*
X250244723Y-77899997D01*
X242821447Y-77899997D01*
X242837102Y-77877639D01*
X242929575Y-77679330D01*
X242986207Y-77467977D01*
X243005277Y-77250000D01*
X242986207Y-77032023D01*
X242951548Y-76902675D01*
X242929577Y-76820677D01*
X242929576Y-76820676D01*
X242929575Y-76820670D01*
X242837102Y-76622362D01*
X242837100Y-76622359D01*
X242837099Y-76622357D01*
X242711599Y-76443124D01*
X242638659Y-76370184D01*
X242556877Y-76288402D01*
X242377639Y-76162898D01*
X242377640Y-76162898D01*
X242377638Y-76162897D01*
X242278484Y-76116661D01*
X242179330Y-76070425D01*
X242179326Y-76070424D01*
X242179322Y-76070422D01*
X241967977Y-76013793D01*
X241750002Y-75994723D01*
X241749998Y-75994723D01*
X241604682Y-76007436D01*
X241532023Y-76013793D01*
X241532020Y-76013793D01*
X241320677Y-76070422D01*
X241320668Y-76070426D01*
X241122361Y-76162898D01*
X241122357Y-76162900D01*
X240943121Y-76288402D01*
X240788402Y-76443121D01*
X240662900Y-76622357D01*
X240662898Y-76622361D01*
X240570426Y-76820668D01*
X240570422Y-76820677D01*
X240513793Y-77032020D01*
X240513793Y-77032023D01*
X240510823Y-77065971D01*
X240494723Y-77249997D01*
X220780340Y-77249997D01*
X220849522Y-77225789D01*
X221002262Y-77129816D01*
X221129816Y-77002262D01*
X221225789Y-76849522D01*
X221285368Y-76679255D01*
X221287110Y-76663793D01*
X221305565Y-76500003D01*
X221305565Y-76499996D01*
X221285369Y-76320750D01*
X221285368Y-76320745D01*
X221242326Y-76197738D01*
X221225789Y-76150478D01*
X221207106Y-76120745D01*
X221172690Y-76065971D01*
X221129816Y-75997738D01*
X221002262Y-75870184D01*
X220969379Y-75849522D01*
X220849523Y-75774211D01*
X220679254Y-75714631D01*
X220679249Y-75714630D01*
X220500004Y-75694435D01*
X220499996Y-75694435D01*
X220320750Y-75714630D01*
X220320745Y-75714631D01*
X220150476Y-75774211D01*
X219997737Y-75870184D01*
X219870184Y-75997737D01*
X219774211Y-76150476D01*
X219714631Y-76320745D01*
X219714630Y-76320750D01*
X219694435Y-76499996D01*
X219305565Y-76499996D01*
X219285369Y-76320750D01*
X219285368Y-76320745D01*
X219242326Y-76197738D01*
X219225789Y-76150478D01*
X219207106Y-76120745D01*
X219172690Y-76065971D01*
X219129816Y-75997738D01*
X219002262Y-75870184D01*
X218969379Y-75849522D01*
X218849523Y-75774211D01*
X218679254Y-75714631D01*
X218679249Y-75714630D01*
X218500004Y-75694435D01*
X218499996Y-75694435D01*
X218320750Y-75714630D01*
X218320745Y-75714631D01*
X218150476Y-75774211D01*
X217997737Y-75870184D01*
X217870184Y-75997737D01*
X217774211Y-76150476D01*
X217714631Y-76320745D01*
X217714630Y-76320750D01*
X217694435Y-76499996D01*
X214631240Y-76499996D01*
X214725789Y-76349522D01*
X214785368Y-76179255D01*
X214785369Y-76179249D01*
X214805565Y-76000003D01*
X214805565Y-75999996D01*
X214785369Y-75820750D01*
X214785368Y-75820745D01*
X214776925Y-75796615D01*
X214725789Y-75650478D01*
X214629816Y-75497738D01*
X214502262Y-75370184D01*
X214469379Y-75349522D01*
X214349523Y-75274211D01*
X214179254Y-75214631D01*
X214179249Y-75214630D01*
X214000004Y-75194435D01*
X213999996Y-75194435D01*
X213820750Y-75214630D01*
X213820745Y-75214631D01*
X213650476Y-75274211D01*
X213497737Y-75370184D01*
X213370184Y-75497737D01*
X213354994Y-75521913D01*
X213302659Y-75568204D01*
X213233605Y-75578852D01*
X213169757Y-75550477D01*
X213145006Y-75521913D01*
X213129816Y-75497738D01*
X213002262Y-75370184D01*
X212969379Y-75349522D01*
X212849523Y-75274211D01*
X212679254Y-75214631D01*
X212679249Y-75214630D01*
X212500004Y-75194435D01*
X212499996Y-75194435D01*
X212320750Y-75214630D01*
X212320745Y-75214631D01*
X212150476Y-75274211D01*
X211997737Y-75370184D01*
X211870184Y-75497737D01*
X211854994Y-75521913D01*
X211802659Y-75568204D01*
X211733605Y-75578852D01*
X211669757Y-75550477D01*
X211645006Y-75521913D01*
X211629816Y-75497738D01*
X211502262Y-75370184D01*
X211469379Y-75349522D01*
X211349523Y-75274211D01*
X211179254Y-75214631D01*
X211179249Y-75214630D01*
X211000004Y-75194435D01*
X210999996Y-75194435D01*
X210820750Y-75214630D01*
X210820745Y-75214631D01*
X210650476Y-75274211D01*
X210497737Y-75370184D01*
X210370184Y-75497737D01*
X210274211Y-75650476D01*
X210214631Y-75820745D01*
X210214630Y-75820750D01*
X210194435Y-75999996D01*
X202305565Y-75999996D01*
X202285369Y-75820750D01*
X202285368Y-75820745D01*
X202276925Y-75796615D01*
X202225789Y-75650478D01*
X202129816Y-75497738D01*
X202002262Y-75370184D01*
X201969379Y-75349522D01*
X201849523Y-75274211D01*
X201679254Y-75214631D01*
X201679249Y-75214630D01*
X201500004Y-75194435D01*
X201499996Y-75194435D01*
X201320750Y-75214630D01*
X201320745Y-75214631D01*
X201150476Y-75274211D01*
X200997737Y-75370184D01*
X200870184Y-75497737D01*
X200774211Y-75650476D01*
X200714631Y-75820745D01*
X200714630Y-75820750D01*
X200694435Y-75999996D01*
X193654046Y-75999996D01*
X193653690Y-75998736D01*
X193672691Y-75934027D01*
X193725788Y-75849524D01*
X193725789Y-75849522D01*
X193785368Y-75679255D01*
X193787821Y-75657483D01*
X193805565Y-75500003D01*
X193805565Y-75499996D01*
X193785369Y-75320750D01*
X193785368Y-75320745D01*
X193725788Y-75150475D01*
X193672691Y-75065973D01*
X193653690Y-74998736D01*
X193672691Y-74934027D01*
X193725788Y-74849524D01*
X193725789Y-74849522D01*
X193785368Y-74679255D01*
X193787942Y-74656411D01*
X193805565Y-74500003D01*
X193805565Y-74499996D01*
X217694435Y-74499996D01*
X217694435Y-74500003D01*
X217714630Y-74679249D01*
X217714631Y-74679254D01*
X217774211Y-74849523D01*
X217852356Y-74973889D01*
X217870184Y-75002262D01*
X217997738Y-75129816D01*
X218088080Y-75186582D01*
X218132721Y-75214632D01*
X218150478Y-75225789D01*
X218288860Y-75274211D01*
X218320745Y-75285368D01*
X218320750Y-75285369D01*
X218499996Y-75305565D01*
X218500000Y-75305565D01*
X218500004Y-75305565D01*
X218679249Y-75285369D01*
X218679252Y-75285368D01*
X218679255Y-75285368D01*
X218849522Y-75225789D01*
X219002262Y-75129816D01*
X219129816Y-75002262D01*
X219225789Y-74849522D01*
X219285368Y-74679255D01*
X219287942Y-74656411D01*
X219305565Y-74500003D01*
X219305565Y-74499996D01*
X219694435Y-74499996D01*
X219694435Y-74500003D01*
X219714630Y-74679249D01*
X219714631Y-74679254D01*
X219774211Y-74849523D01*
X219852356Y-74973889D01*
X219870184Y-75002262D01*
X219997738Y-75129816D01*
X220088080Y-75186582D01*
X220132721Y-75214632D01*
X220150478Y-75225789D01*
X220288860Y-75274211D01*
X220320745Y-75285368D01*
X220320750Y-75285369D01*
X220499996Y-75305565D01*
X220500000Y-75305565D01*
X220500004Y-75305565D01*
X220679249Y-75285369D01*
X220679252Y-75285368D01*
X220679255Y-75285368D01*
X220849522Y-75225789D01*
X221002262Y-75129816D01*
X221129816Y-75002262D01*
X221131240Y-74999996D01*
X226694435Y-74999996D01*
X226694435Y-75000003D01*
X226714630Y-75179249D01*
X226714631Y-75179254D01*
X226774211Y-75349523D01*
X226837045Y-75449522D01*
X226870184Y-75502262D01*
X226997738Y-75629816D01*
X227041768Y-75657482D01*
X227132721Y-75714632D01*
X227150478Y-75725789D01*
X227161984Y-75729815D01*
X227320745Y-75785368D01*
X227320750Y-75785369D01*
X227499996Y-75805565D01*
X227500000Y-75805565D01*
X227500004Y-75805565D01*
X227679249Y-75785369D01*
X227679252Y-75785368D01*
X227679255Y-75785368D01*
X227849522Y-75725789D01*
X228002262Y-75629816D01*
X228129816Y-75502262D01*
X228131240Y-75499996D01*
X235194435Y-75499996D01*
X235194435Y-75500003D01*
X235214630Y-75679249D01*
X235214631Y-75679254D01*
X235274211Y-75849523D01*
X235315122Y-75914632D01*
X235370184Y-76002262D01*
X235497738Y-76129816D01*
X235530623Y-76150479D01*
X235632721Y-76214632D01*
X235650478Y-76225789D01*
X235788860Y-76274211D01*
X235820745Y-76285368D01*
X235820750Y-76285369D01*
X235999996Y-76305565D01*
X236000000Y-76305565D01*
X236000004Y-76305565D01*
X236179249Y-76285369D01*
X236179252Y-76285368D01*
X236179255Y-76285368D01*
X236349522Y-76225789D01*
X236502262Y-76129816D01*
X236629816Y-76002262D01*
X236725789Y-75849522D01*
X236785368Y-75679255D01*
X236787821Y-75657483D01*
X236805565Y-75500003D01*
X236805565Y-75499996D01*
X236785369Y-75320750D01*
X236785368Y-75320745D01*
X236736096Y-75179933D01*
X236725789Y-75150478D01*
X236629816Y-74997738D01*
X236502262Y-74870184D01*
X236469379Y-74849522D01*
X236349523Y-74774211D01*
X236179254Y-74714631D01*
X236179249Y-74714630D01*
X236000004Y-74694435D01*
X235999996Y-74694435D01*
X235820750Y-74714630D01*
X235820745Y-74714631D01*
X235650476Y-74774211D01*
X235497737Y-74870184D01*
X235370184Y-74997737D01*
X235274211Y-75150476D01*
X235214631Y-75320745D01*
X235214630Y-75320750D01*
X235194435Y-75499996D01*
X228131240Y-75499996D01*
X228225789Y-75349522D01*
X228285368Y-75179255D01*
X228285369Y-75179249D01*
X228305565Y-75000003D01*
X228305565Y-74999996D01*
X228285369Y-74820750D01*
X228285368Y-74820745D01*
X228266711Y-74767427D01*
X228225789Y-74650478D01*
X228225188Y-74649522D01*
X228144272Y-74520745D01*
X228129816Y-74497738D01*
X228002262Y-74370184D01*
X227969379Y-74349522D01*
X227849523Y-74274211D01*
X227679254Y-74214631D01*
X227679249Y-74214630D01*
X227500004Y-74194435D01*
X227499996Y-74194435D01*
X227320750Y-74214630D01*
X227320745Y-74214631D01*
X227150476Y-74274211D01*
X226997737Y-74370184D01*
X226870184Y-74497737D01*
X226774211Y-74650476D01*
X226714631Y-74820745D01*
X226714630Y-74820750D01*
X226694435Y-74999996D01*
X221131240Y-74999996D01*
X221225789Y-74849522D01*
X221285368Y-74679255D01*
X221287942Y-74656411D01*
X221305565Y-74500003D01*
X221305565Y-74499996D01*
X221285369Y-74320750D01*
X221285368Y-74320745D01*
X221242326Y-74197738D01*
X221225789Y-74150478D01*
X221195413Y-74102135D01*
X243149500Y-74102135D01*
X243149500Y-75597870D01*
X243149501Y-75597876D01*
X243155908Y-75657483D01*
X243206202Y-75792328D01*
X243206206Y-75792335D01*
X243292452Y-75907544D01*
X243292455Y-75907547D01*
X243407664Y-75993793D01*
X243407671Y-75993797D01*
X243542517Y-76044091D01*
X243542516Y-76044091D01*
X243549444Y-76044835D01*
X243602127Y-76050500D01*
X245097872Y-76050499D01*
X245157483Y-76044091D01*
X245292331Y-75993796D01*
X245407546Y-75907546D01*
X245493796Y-75792331D01*
X245544091Y-75657483D01*
X245550500Y-75597873D01*
X245550499Y-74102128D01*
X245545299Y-74053757D01*
X245544091Y-74042516D01*
X245493797Y-73907671D01*
X245493793Y-73907664D01*
X245407547Y-73792455D01*
X245407544Y-73792452D01*
X245292335Y-73706206D01*
X245292328Y-73706202D01*
X245157482Y-73655908D01*
X245157483Y-73655908D01*
X245097883Y-73649501D01*
X245097881Y-73649500D01*
X245097873Y-73649500D01*
X245097864Y-73649500D01*
X243602129Y-73649500D01*
X243602123Y-73649501D01*
X243542516Y-73655908D01*
X243407671Y-73706202D01*
X243407664Y-73706206D01*
X243292455Y-73792452D01*
X243292452Y-73792455D01*
X243206206Y-73907664D01*
X243206202Y-73907671D01*
X243155908Y-74042517D01*
X243151243Y-74085915D01*
X243149501Y-74102123D01*
X243149500Y-74102135D01*
X221195413Y-74102135D01*
X221129816Y-73997738D01*
X221002262Y-73870184D01*
X220969379Y-73849522D01*
X220849523Y-73774211D01*
X220679254Y-73714631D01*
X220679249Y-73714630D01*
X220500004Y-73694435D01*
X220499996Y-73694435D01*
X220320750Y-73714630D01*
X220320745Y-73714631D01*
X220150476Y-73774211D01*
X219997737Y-73870184D01*
X219870184Y-73997737D01*
X219774211Y-74150476D01*
X219714631Y-74320745D01*
X219714630Y-74320750D01*
X219694435Y-74499996D01*
X219305565Y-74499996D01*
X219285369Y-74320750D01*
X219285368Y-74320745D01*
X219242326Y-74197738D01*
X219225789Y-74150478D01*
X219129816Y-73997738D01*
X219002262Y-73870184D01*
X218969379Y-73849522D01*
X218849523Y-73774211D01*
X218679254Y-73714631D01*
X218679249Y-73714630D01*
X218500004Y-73694435D01*
X218499996Y-73694435D01*
X218320750Y-73714630D01*
X218320745Y-73714631D01*
X218150476Y-73774211D01*
X217997737Y-73870184D01*
X217870184Y-73997737D01*
X217774211Y-74150476D01*
X217714631Y-74320745D01*
X217714630Y-74320750D01*
X217694435Y-74499996D01*
X193805565Y-74499996D01*
X193785369Y-74320750D01*
X193785368Y-74320745D01*
X193725788Y-74150475D01*
X193672691Y-74065973D01*
X193653690Y-73998736D01*
X193672691Y-73934027D01*
X193725788Y-73849524D01*
X193725789Y-73849522D01*
X193785368Y-73679255D01*
X193786929Y-73665401D01*
X193805565Y-73500003D01*
X193805565Y-73499996D01*
X200694435Y-73499996D01*
X200694435Y-73500003D01*
X200714630Y-73679249D01*
X200714631Y-73679254D01*
X200774211Y-73849523D01*
X200867341Y-73997737D01*
X200870184Y-74002262D01*
X200997738Y-74129816D01*
X201050238Y-74162804D01*
X201132721Y-74214632D01*
X201150478Y-74225789D01*
X201245158Y-74258919D01*
X201320745Y-74285368D01*
X201320750Y-74285369D01*
X201499996Y-74305565D01*
X201500000Y-74305565D01*
X201500004Y-74305565D01*
X201679249Y-74285369D01*
X201679252Y-74285368D01*
X201679255Y-74285368D01*
X201849522Y-74225789D01*
X202002262Y-74129816D01*
X202129816Y-74002262D01*
X202225789Y-73849522D01*
X202285368Y-73679255D01*
X202286929Y-73665401D01*
X202305565Y-73500003D01*
X202305565Y-73499996D01*
X202285369Y-73320750D01*
X202285368Y-73320745D01*
X202246483Y-73209618D01*
X202225789Y-73150478D01*
X202212447Y-73129245D01*
X202138855Y-73012124D01*
X202129816Y-72997738D01*
X202002262Y-72870184D01*
X201969379Y-72849522D01*
X201849523Y-72774211D01*
X201679254Y-72714631D01*
X201679249Y-72714630D01*
X201500004Y-72694435D01*
X201499996Y-72694435D01*
X201320750Y-72714630D01*
X201320745Y-72714631D01*
X201150476Y-72774211D01*
X200997737Y-72870184D01*
X200870184Y-72997737D01*
X200774211Y-73150476D01*
X200714631Y-73320745D01*
X200714630Y-73320750D01*
X200694435Y-73499996D01*
X193805565Y-73499996D01*
X193785369Y-73320750D01*
X193785368Y-73320745D01*
X193746483Y-73209618D01*
X193725789Y-73150478D01*
X193712447Y-73129245D01*
X193638855Y-73012124D01*
X193629816Y-72997738D01*
X193502262Y-72870184D01*
X193469379Y-72849522D01*
X193349523Y-72774211D01*
X193179254Y-72714631D01*
X193179249Y-72714630D01*
X193000004Y-72694435D01*
X192999996Y-72694435D01*
X192820750Y-72714630D01*
X192820737Y-72714633D01*
X192650479Y-72774209D01*
X192565971Y-72827309D01*
X192498734Y-72846309D01*
X192434029Y-72827309D01*
X192349520Y-72774209D01*
X192179262Y-72714633D01*
X192179249Y-72714630D01*
X192000004Y-72694435D01*
X191999996Y-72694435D01*
X191820750Y-72714630D01*
X191820737Y-72714633D01*
X191650479Y-72774209D01*
X191565971Y-72827309D01*
X191498734Y-72846309D01*
X191434029Y-72827309D01*
X191349520Y-72774209D01*
X191179262Y-72714633D01*
X191179249Y-72714630D01*
X191000004Y-72694435D01*
X190999996Y-72694435D01*
X190820750Y-72714630D01*
X190820737Y-72714633D01*
X190650479Y-72774209D01*
X190565971Y-72827309D01*
X190498734Y-72846309D01*
X190434029Y-72827309D01*
X190349520Y-72774209D01*
X190179262Y-72714633D01*
X190179249Y-72714630D01*
X190000004Y-72694435D01*
X189999996Y-72694435D01*
X189820750Y-72714630D01*
X189820737Y-72714633D01*
X189650479Y-72774209D01*
X189565971Y-72827309D01*
X189498734Y-72846309D01*
X189434029Y-72827309D01*
X189349520Y-72774209D01*
X189179262Y-72714633D01*
X189179249Y-72714630D01*
X189000004Y-72694435D01*
X188999996Y-72694435D01*
X188820750Y-72714630D01*
X188820737Y-72714633D01*
X188650479Y-72774209D01*
X188565971Y-72827309D01*
X188498734Y-72846309D01*
X188434029Y-72827309D01*
X188349520Y-72774209D01*
X188179262Y-72714633D01*
X188179249Y-72714630D01*
X188000004Y-72694435D01*
X187999996Y-72694435D01*
X187820750Y-72714630D01*
X187820745Y-72714631D01*
X187650476Y-72774211D01*
X187497737Y-72870184D01*
X187370184Y-72997737D01*
X187274211Y-73150476D01*
X187214631Y-73320745D01*
X187214630Y-73320750D01*
X187194435Y-73499996D01*
X174305565Y-73499996D01*
X174285369Y-73320750D01*
X174285368Y-73320745D01*
X174225788Y-73150475D01*
X174172691Y-73065973D01*
X174153690Y-72998736D01*
X174172691Y-72934027D01*
X174225788Y-72849524D01*
X174225789Y-72849522D01*
X174285368Y-72679255D01*
X174287978Y-72656094D01*
X174305565Y-72500003D01*
X174305565Y-72499996D01*
X179694435Y-72499996D01*
X179694435Y-72500003D01*
X179714630Y-72679249D01*
X179714631Y-72679254D01*
X179774211Y-72849523D01*
X179827309Y-72934027D01*
X179870184Y-73002262D01*
X179997738Y-73129816D01*
X180150478Y-73225789D01*
X180221098Y-73250500D01*
X180320745Y-73285368D01*
X180320750Y-73285369D01*
X180499996Y-73305565D01*
X180500000Y-73305565D01*
X180500004Y-73305565D01*
X180679249Y-73285369D01*
X180679252Y-73285368D01*
X180679255Y-73285368D01*
X180849522Y-73225789D01*
X181002262Y-73129816D01*
X181129816Y-73002262D01*
X181225789Y-72849522D01*
X181285368Y-72679255D01*
X181287978Y-72656094D01*
X181305565Y-72500003D01*
X181305565Y-72499996D01*
X181285369Y-72320750D01*
X181285368Y-72320745D01*
X181242326Y-72197738D01*
X181225789Y-72150478D01*
X181222388Y-72145066D01*
X181134375Y-72004994D01*
X181129816Y-71997738D01*
X181002262Y-71870184D01*
X180961612Y-71844642D01*
X180849523Y-71774211D01*
X180679254Y-71714631D01*
X180679249Y-71714630D01*
X180500004Y-71694435D01*
X180499996Y-71694435D01*
X180320750Y-71714630D01*
X180320745Y-71714631D01*
X180150476Y-71774211D01*
X179997737Y-71870184D01*
X179870184Y-71997737D01*
X179774211Y-72150476D01*
X179714631Y-72320745D01*
X179714630Y-72320750D01*
X179694435Y-72499996D01*
X174305565Y-72499996D01*
X174285369Y-72320750D01*
X174285368Y-72320745D01*
X174242326Y-72197738D01*
X174225789Y-72150478D01*
X174222388Y-72145066D01*
X174134375Y-72004994D01*
X174129816Y-71997738D01*
X174002262Y-71870184D01*
X173961612Y-71844642D01*
X173849523Y-71774211D01*
X173679254Y-71714631D01*
X173679249Y-71714630D01*
X173500004Y-71694435D01*
X173499996Y-71694435D01*
X173320750Y-71714630D01*
X173320745Y-71714631D01*
X173150476Y-71774211D01*
X172997737Y-71870184D01*
X172870184Y-71997737D01*
X172774211Y-72150476D01*
X172714631Y-72320745D01*
X172714630Y-72320750D01*
X172694435Y-72499996D01*
X163631234Y-72499996D01*
X163629816Y-72497738D01*
X163502262Y-72370184D01*
X163450728Y-72337803D01*
X163349523Y-72274211D01*
X163179254Y-72214631D01*
X163179249Y-72214630D01*
X163000004Y-72194435D01*
X162999996Y-72194435D01*
X162820750Y-72214630D01*
X162820745Y-72214631D01*
X162650474Y-72274212D01*
X162576796Y-72320507D01*
X162509560Y-72339507D01*
X162442725Y-72319139D01*
X162397511Y-72265871D01*
X162387729Y-72200567D01*
X162393869Y-72150000D01*
X162373271Y-71980357D01*
X162312672Y-71820573D01*
X162295024Y-71795006D01*
X162239546Y-71714632D01*
X162215596Y-71679934D01*
X162214837Y-71679262D01*
X162210026Y-71675000D01*
X164284332Y-71675000D01*
X164304929Y-71844642D01*
X164365529Y-72004428D01*
X164445812Y-72120737D01*
X164462605Y-72145066D01*
X164590517Y-72258387D01*
X164741832Y-72337803D01*
X164907755Y-72378700D01*
X164907756Y-72378700D01*
X165078644Y-72378700D01*
X165078645Y-72378700D01*
X165244568Y-72337803D01*
X165395883Y-72258387D01*
X165523795Y-72145066D01*
X165620871Y-72004427D01*
X165681470Y-71844643D01*
X165702068Y-71675000D01*
X165681470Y-71505357D01*
X165679437Y-71499996D01*
X207194435Y-71499996D01*
X207194435Y-71500003D01*
X207214630Y-71679249D01*
X207214631Y-71679254D01*
X207274211Y-71849523D01*
X207305928Y-71900000D01*
X207370184Y-72002262D01*
X207497738Y-72129816D01*
X207588080Y-72186582D01*
X207632721Y-72214632D01*
X207650478Y-72225789D01*
X207781218Y-72271537D01*
X207820745Y-72285368D01*
X207820750Y-72285369D01*
X207999996Y-72305565D01*
X208000000Y-72305565D01*
X208000004Y-72305565D01*
X208179249Y-72285369D01*
X208179252Y-72285368D01*
X208179255Y-72285368D01*
X208349522Y-72225789D01*
X208502262Y-72129816D01*
X208582079Y-72049999D01*
X243144357Y-72049999D01*
X243144357Y-72050000D01*
X243164884Y-72271535D01*
X243164885Y-72271537D01*
X243225769Y-72485523D01*
X243225775Y-72485538D01*
X243324938Y-72684683D01*
X243324943Y-72684691D01*
X243459020Y-72862238D01*
X243623437Y-73012123D01*
X243623439Y-73012125D01*
X243812595Y-73129245D01*
X243812596Y-73129245D01*
X243812599Y-73129247D01*
X244020060Y-73209618D01*
X244238757Y-73250500D01*
X244238759Y-73250500D01*
X244461241Y-73250500D01*
X244461243Y-73250500D01*
X244679940Y-73209618D01*
X244887401Y-73129247D01*
X245076562Y-73012124D01*
X245216282Y-72884751D01*
X245240979Y-72862238D01*
X245250581Y-72849524D01*
X245375058Y-72684689D01*
X245474229Y-72485528D01*
X245535115Y-72271536D01*
X245555643Y-72050000D01*
X245551219Y-72002262D01*
X245535115Y-71828464D01*
X245535114Y-71828462D01*
X245534353Y-71825789D01*
X245474229Y-71614472D01*
X245474224Y-71614461D01*
X245375061Y-71415316D01*
X245375056Y-71415308D01*
X245240979Y-71237761D01*
X245076562Y-71087876D01*
X245076560Y-71087874D01*
X244887404Y-70970754D01*
X244887398Y-70970752D01*
X244679940Y-70890382D01*
X244461243Y-70849500D01*
X244238757Y-70849500D01*
X244020060Y-70890382D01*
X243981612Y-70905277D01*
X243812601Y-70970752D01*
X243812595Y-70970754D01*
X243623439Y-71087874D01*
X243623437Y-71087876D01*
X243459020Y-71237761D01*
X243324943Y-71415308D01*
X243324938Y-71415316D01*
X243225775Y-71614461D01*
X243225769Y-71614476D01*
X243164885Y-71828462D01*
X243164884Y-71828464D01*
X243144357Y-72049999D01*
X208582079Y-72049999D01*
X208629816Y-72002262D01*
X208725789Y-71849522D01*
X208785368Y-71679255D01*
X208785369Y-71679249D01*
X208805565Y-71500003D01*
X208805565Y-71499996D01*
X208785369Y-71320750D01*
X208785368Y-71320745D01*
X208756332Y-71237764D01*
X208725789Y-71150478D01*
X208629816Y-70997738D01*
X208502262Y-70870184D01*
X208469344Y-70849500D01*
X208349523Y-70774211D01*
X208179254Y-70714631D01*
X208179249Y-70714630D01*
X208000004Y-70694435D01*
X207999996Y-70694435D01*
X207820750Y-70714630D01*
X207820745Y-70714631D01*
X207650476Y-70774211D01*
X207497737Y-70870184D01*
X207370184Y-70997737D01*
X207274211Y-71150476D01*
X207214631Y-71320745D01*
X207214630Y-71320750D01*
X207194435Y-71499996D01*
X165679437Y-71499996D01*
X165620871Y-71345573D01*
X165603733Y-71320745D01*
X165523796Y-71204936D01*
X165523794Y-71204933D01*
X165462325Y-71150476D01*
X165395883Y-71091613D01*
X165244568Y-71012197D01*
X165244567Y-71012196D01*
X165244566Y-71012196D01*
X165132918Y-70984677D01*
X165078645Y-70971300D01*
X164907755Y-70971300D01*
X164866859Y-70981380D01*
X164741833Y-71012196D01*
X164590518Y-71091612D01*
X164462605Y-71204933D01*
X164462603Y-71204936D01*
X164365529Y-71345571D01*
X164304929Y-71505357D01*
X164284332Y-71675000D01*
X162210026Y-71675000D01*
X162199125Y-71665342D01*
X162087684Y-71566613D01*
X161936369Y-71487197D01*
X161936368Y-71487196D01*
X161936367Y-71487196D01*
X161824719Y-71459677D01*
X161770446Y-71446300D01*
X161599556Y-71446300D01*
X161558660Y-71456380D01*
X161433634Y-71487196D01*
X161282319Y-71566612D01*
X161154406Y-71679933D01*
X161154404Y-71679936D01*
X161057330Y-71820571D01*
X160996730Y-71980357D01*
X160976133Y-72150000D01*
X160432078Y-72150000D01*
X160352262Y-72070184D01*
X160248510Y-72004992D01*
X160202221Y-71952659D01*
X160191573Y-71883606D01*
X160219948Y-71819757D01*
X160248509Y-71795007D01*
X160352262Y-71729816D01*
X160479816Y-71602262D01*
X160575789Y-71449522D01*
X160635368Y-71279255D01*
X160640043Y-71237764D01*
X160655565Y-71100003D01*
X160655565Y-71099997D01*
X160651666Y-71065393D01*
X160663720Y-70996571D01*
X160711069Y-70945191D01*
X160727418Y-70936955D01*
X160819969Y-70898620D01*
X160930606Y-70824695D01*
X161024695Y-70730606D01*
X161098620Y-70619969D01*
X161148314Y-70499996D01*
X162194435Y-70499996D01*
X162194435Y-70500003D01*
X162214630Y-70679249D01*
X162214631Y-70679254D01*
X162274211Y-70849523D01*
X162350386Y-70970754D01*
X162370184Y-71002262D01*
X162497738Y-71129816D01*
X162588080Y-71186582D01*
X162617290Y-71204936D01*
X162650478Y-71225789D01*
X162684701Y-71237764D01*
X162820745Y-71285368D01*
X162820750Y-71285369D01*
X162999996Y-71305565D01*
X163000000Y-71305565D01*
X163000004Y-71305565D01*
X163179249Y-71285369D01*
X163179252Y-71285368D01*
X163179255Y-71285368D01*
X163349522Y-71225789D01*
X163502262Y-71129816D01*
X163629816Y-71002262D01*
X163725789Y-70849522D01*
X163785368Y-70679255D01*
X163785369Y-70679249D01*
X163805565Y-70500003D01*
X163805565Y-70499996D01*
X173694435Y-70499996D01*
X173694435Y-70500003D01*
X173714630Y-70679249D01*
X173714631Y-70679254D01*
X173774211Y-70849523D01*
X173850386Y-70970754D01*
X173870184Y-71002262D01*
X173997738Y-71129816D01*
X174088080Y-71186582D01*
X174117290Y-71204936D01*
X174150478Y-71225789D01*
X174184701Y-71237764D01*
X174320745Y-71285368D01*
X174320750Y-71285369D01*
X174499996Y-71305565D01*
X174500000Y-71305565D01*
X174500004Y-71305565D01*
X174679249Y-71285369D01*
X174679252Y-71285368D01*
X174679255Y-71285368D01*
X174849522Y-71225789D01*
X175002262Y-71129816D01*
X175129816Y-71002262D01*
X175225789Y-70849522D01*
X175285368Y-70679255D01*
X175285369Y-70679249D01*
X175305565Y-70500003D01*
X175305565Y-70499996D01*
X175285369Y-70320750D01*
X175285368Y-70320745D01*
X175272989Y-70285368D01*
X175225789Y-70150478D01*
X175131235Y-69999996D01*
X176694435Y-69999996D01*
X176694435Y-70000003D01*
X176714630Y-70179249D01*
X176714631Y-70179254D01*
X176774211Y-70349523D01*
X176866900Y-70497036D01*
X176870184Y-70502262D01*
X176997738Y-70629816D01*
X177076410Y-70679249D01*
X177132721Y-70714632D01*
X177150478Y-70725789D01*
X177225668Y-70752099D01*
X177320745Y-70785368D01*
X177320750Y-70785369D01*
X177499996Y-70805565D01*
X177500000Y-70805565D01*
X177500004Y-70805565D01*
X177679249Y-70785369D01*
X177679252Y-70785368D01*
X177679255Y-70785368D01*
X177849522Y-70725789D01*
X178002262Y-70629816D01*
X178129816Y-70502262D01*
X178225789Y-70349522D01*
X178285368Y-70179255D01*
X178285745Y-70175908D01*
X178305565Y-70000003D01*
X178305565Y-69999996D01*
X178285369Y-69820750D01*
X178285368Y-69820745D01*
X178272989Y-69785368D01*
X178225789Y-69650478D01*
X178225778Y-69650461D01*
X178170879Y-69563089D01*
X178131235Y-69499996D01*
X181694435Y-69499996D01*
X181694435Y-69500003D01*
X181714630Y-69679249D01*
X181714631Y-69679254D01*
X181774211Y-69849523D01*
X181828235Y-69935501D01*
X181870184Y-70002262D01*
X181997738Y-70129816D01*
X182150478Y-70225789D01*
X182234750Y-70255277D01*
X182320745Y-70285368D01*
X182320750Y-70285369D01*
X182499996Y-70305565D01*
X182500000Y-70305565D01*
X182500004Y-70305565D01*
X182679249Y-70285369D01*
X182679252Y-70285368D01*
X182679255Y-70285368D01*
X182849522Y-70225789D01*
X182923581Y-70179255D01*
X182934027Y-70172691D01*
X183001264Y-70153690D01*
X183065973Y-70172691D01*
X183150475Y-70225788D01*
X183320745Y-70285368D01*
X183320750Y-70285369D01*
X183499996Y-70305565D01*
X183500000Y-70305565D01*
X183500004Y-70305565D01*
X183679249Y-70285369D01*
X183679252Y-70285368D01*
X183679255Y-70285368D01*
X183849522Y-70225789D01*
X184002262Y-70129816D01*
X184129816Y-70002262D01*
X184131240Y-69999996D01*
X211194435Y-69999996D01*
X211194435Y-70000003D01*
X211214630Y-70179249D01*
X211214631Y-70179254D01*
X211274211Y-70349523D01*
X211366900Y-70497036D01*
X211370184Y-70502262D01*
X211497738Y-70629816D01*
X211576410Y-70679249D01*
X211632721Y-70714632D01*
X211650478Y-70725789D01*
X211725668Y-70752099D01*
X211820745Y-70785368D01*
X211820750Y-70785369D01*
X211999996Y-70805565D01*
X212000000Y-70805565D01*
X212000004Y-70805565D01*
X212179249Y-70785369D01*
X212179252Y-70785368D01*
X212179255Y-70785368D01*
X212349522Y-70725789D01*
X212502262Y-70629816D01*
X212629816Y-70502262D01*
X212631240Y-70499996D01*
X214194435Y-70499996D01*
X214194435Y-70500003D01*
X214214630Y-70679249D01*
X214214631Y-70679254D01*
X214274211Y-70849523D01*
X214350386Y-70970754D01*
X214370184Y-71002262D01*
X214497738Y-71129816D01*
X214588080Y-71186582D01*
X214617290Y-71204936D01*
X214650478Y-71225789D01*
X214684701Y-71237764D01*
X214820745Y-71285368D01*
X214820750Y-71285369D01*
X214999996Y-71305565D01*
X215000000Y-71305565D01*
X215000004Y-71305565D01*
X215179249Y-71285369D01*
X215179252Y-71285368D01*
X215179255Y-71285368D01*
X215349522Y-71225789D01*
X215502262Y-71129816D01*
X215629816Y-71002262D01*
X215725789Y-70849522D01*
X215785368Y-70679255D01*
X215785369Y-70679249D01*
X215805565Y-70500003D01*
X215805565Y-70499996D01*
X215785369Y-70320750D01*
X215785368Y-70320745D01*
X215772989Y-70285368D01*
X215725789Y-70150478D01*
X215629816Y-69997738D01*
X215502262Y-69870184D01*
X215469379Y-69849522D01*
X215349523Y-69774211D01*
X215179254Y-69714631D01*
X215179249Y-69714630D01*
X215000004Y-69694435D01*
X214999996Y-69694435D01*
X214820750Y-69714630D01*
X214820745Y-69714631D01*
X214650476Y-69774211D01*
X214497737Y-69870184D01*
X214370184Y-69997737D01*
X214274211Y-70150476D01*
X214214631Y-70320745D01*
X214214630Y-70320750D01*
X214194435Y-70499996D01*
X212631240Y-70499996D01*
X212725789Y-70349522D01*
X212785368Y-70179255D01*
X212785745Y-70175908D01*
X212805565Y-70000003D01*
X212805565Y-69999996D01*
X212785369Y-69820750D01*
X212785368Y-69820745D01*
X212772989Y-69785368D01*
X212725789Y-69650478D01*
X212725778Y-69650461D01*
X212725486Y-69649997D01*
X240494723Y-69649997D01*
X240494723Y-69650002D01*
X240500377Y-69714630D01*
X240512178Y-69849522D01*
X240513793Y-69867975D01*
X240513793Y-69867979D01*
X240570422Y-70079322D01*
X240570424Y-70079326D01*
X240570425Y-70079330D01*
X240581446Y-70102964D01*
X240662897Y-70277638D01*
X240682452Y-70305565D01*
X240788402Y-70456877D01*
X240943123Y-70611598D01*
X241122361Y-70737102D01*
X241320670Y-70829575D01*
X241532023Y-70886207D01*
X241714926Y-70902208D01*
X241749998Y-70905277D01*
X241750000Y-70905277D01*
X241750002Y-70905277D01*
X241778254Y-70902805D01*
X241967977Y-70886207D01*
X242179330Y-70829575D01*
X242377639Y-70737102D01*
X242556877Y-70611598D01*
X242711598Y-70456877D01*
X242837102Y-70277639D01*
X242929575Y-70079330D01*
X242986207Y-69867977D01*
X243002805Y-69678254D01*
X243005277Y-69650002D01*
X243005277Y-69649997D01*
X242992513Y-69504108D01*
X242986207Y-69432023D01*
X242929575Y-69220670D01*
X242837102Y-69022362D01*
X242837100Y-69022359D01*
X242837099Y-69022357D01*
X242821442Y-68999997D01*
X250244723Y-68999997D01*
X250244723Y-69000002D01*
X250249947Y-69059711D01*
X250263500Y-69214632D01*
X250263793Y-69217975D01*
X250263793Y-69217979D01*
X250320422Y-69429322D01*
X250320424Y-69429326D01*
X250320425Y-69429330D01*
X250353744Y-69500783D01*
X250412897Y-69627638D01*
X250414422Y-69629816D01*
X250538402Y-69806877D01*
X250693123Y-69961598D01*
X250872361Y-70087102D01*
X251070670Y-70179575D01*
X251282023Y-70236207D01*
X251464926Y-70252208D01*
X251499998Y-70255277D01*
X251500000Y-70255277D01*
X251500002Y-70255277D01*
X251528254Y-70252805D01*
X251717977Y-70236207D01*
X251929330Y-70179575D01*
X252127639Y-70087102D01*
X252306877Y-69961598D01*
X252461598Y-69806877D01*
X252587102Y-69627639D01*
X252679575Y-69429330D01*
X252736207Y-69217977D01*
X252755277Y-69000000D01*
X252736207Y-68782023D01*
X252679575Y-68570670D01*
X252587102Y-68372362D01*
X252587100Y-68372359D01*
X252587099Y-68372357D01*
X252461599Y-68193124D01*
X252447724Y-68179249D01*
X252306877Y-68038402D01*
X252127639Y-67912898D01*
X252127640Y-67912898D01*
X252127638Y-67912897D01*
X252028484Y-67866661D01*
X251929330Y-67820425D01*
X251929326Y-67820424D01*
X251929322Y-67820422D01*
X251717977Y-67763793D01*
X251500002Y-67744723D01*
X251499998Y-67744723D01*
X251354682Y-67757436D01*
X251282023Y-67763793D01*
X251282020Y-67763793D01*
X251070677Y-67820422D01*
X251070668Y-67820426D01*
X250872361Y-67912898D01*
X250872357Y-67912900D01*
X250693121Y-68038402D01*
X250538402Y-68193121D01*
X250412900Y-68372357D01*
X250412898Y-68372361D01*
X250320426Y-68570668D01*
X250320422Y-68570677D01*
X250263793Y-68782020D01*
X250263793Y-68782024D01*
X250244723Y-68999997D01*
X242821442Y-68999997D01*
X242711599Y-68843124D01*
X242637975Y-68769500D01*
X242556877Y-68688402D01*
X242418978Y-68591844D01*
X242377638Y-68562897D01*
X242278484Y-68516661D01*
X242179330Y-68470425D01*
X242179326Y-68470424D01*
X242179322Y-68470422D01*
X241967977Y-68413793D01*
X241750002Y-68394723D01*
X241749998Y-68394723D01*
X241604682Y-68407436D01*
X241532023Y-68413793D01*
X241532020Y-68413793D01*
X241320677Y-68470422D01*
X241320668Y-68470426D01*
X241122361Y-68562898D01*
X241122357Y-68562900D01*
X240943121Y-68688402D01*
X240788402Y-68843121D01*
X240662900Y-69022357D01*
X240662898Y-69022361D01*
X240570426Y-69220668D01*
X240570422Y-69220677D01*
X240513793Y-69432020D01*
X240513793Y-69432024D01*
X240494723Y-69649997D01*
X212725486Y-69649997D01*
X212670879Y-69563089D01*
X212629816Y-69497738D01*
X212502262Y-69370184D01*
X212469379Y-69349522D01*
X212349523Y-69274211D01*
X212179254Y-69214631D01*
X212179249Y-69214630D01*
X212000004Y-69194435D01*
X211999996Y-69194435D01*
X211820750Y-69214630D01*
X211820745Y-69214631D01*
X211650476Y-69274211D01*
X211497737Y-69370184D01*
X211370184Y-69497737D01*
X211274211Y-69650476D01*
X211214631Y-69820745D01*
X211214630Y-69820750D01*
X211194435Y-69999996D01*
X184131240Y-69999996D01*
X184225789Y-69849522D01*
X184285368Y-69679255D01*
X184287130Y-69663616D01*
X184305565Y-69500003D01*
X184305565Y-69499996D01*
X184285369Y-69320750D01*
X184285368Y-69320745D01*
X184250350Y-69220670D01*
X184225789Y-69150478D01*
X184206494Y-69119771D01*
X184145288Y-69022362D01*
X184131235Y-68999996D01*
X207194435Y-68999996D01*
X207194435Y-69000003D01*
X207214630Y-69179249D01*
X207214631Y-69179254D01*
X207274211Y-69349523D01*
X207324358Y-69429331D01*
X207370184Y-69502262D01*
X207497738Y-69629816D01*
X207551532Y-69663617D01*
X207632721Y-69714632D01*
X207650478Y-69725789D01*
X207737762Y-69756331D01*
X207820745Y-69785368D01*
X207820750Y-69785369D01*
X207999996Y-69805565D01*
X208000000Y-69805565D01*
X208000004Y-69805565D01*
X208179249Y-69785369D01*
X208179252Y-69785368D01*
X208179255Y-69785368D01*
X208349522Y-69725789D01*
X208502262Y-69629816D01*
X208629816Y-69502262D01*
X208725789Y-69349522D01*
X208785368Y-69179255D01*
X208785369Y-69179249D01*
X208805565Y-69000003D01*
X208805565Y-68999996D01*
X208785369Y-68820750D01*
X208785368Y-68820745D01*
X208771819Y-68782023D01*
X208725789Y-68650478D01*
X208703434Y-68614901D01*
X208670758Y-68562897D01*
X208629816Y-68497738D01*
X208502262Y-68370184D01*
X208465782Y-68347262D01*
X208349523Y-68274211D01*
X208179254Y-68214631D01*
X208179249Y-68214630D01*
X208000004Y-68194435D01*
X207999996Y-68194435D01*
X207820750Y-68214630D01*
X207820745Y-68214631D01*
X207650476Y-68274211D01*
X207497737Y-68370184D01*
X207370184Y-68497737D01*
X207274211Y-68650476D01*
X207214631Y-68820745D01*
X207214630Y-68820750D01*
X207194435Y-68999996D01*
X184131235Y-68999996D01*
X184129816Y-68997738D01*
X184002262Y-68870184D01*
X183999999Y-68868762D01*
X183849523Y-68774211D01*
X183679254Y-68714631D01*
X183679249Y-68714630D01*
X183500004Y-68694435D01*
X183499996Y-68694435D01*
X183320750Y-68714630D01*
X183320737Y-68714633D01*
X183150479Y-68774209D01*
X183065971Y-68827309D01*
X182998734Y-68846309D01*
X182934029Y-68827309D01*
X182849520Y-68774209D01*
X182679262Y-68714633D01*
X182679249Y-68714630D01*
X182500004Y-68694435D01*
X182499996Y-68694435D01*
X182320750Y-68714630D01*
X182320745Y-68714631D01*
X182150476Y-68774211D01*
X181997737Y-68870184D01*
X181870184Y-68997737D01*
X181774211Y-69150476D01*
X181714631Y-69320745D01*
X181714630Y-69320750D01*
X181694435Y-69499996D01*
X178131235Y-69499996D01*
X178129816Y-69497738D01*
X178002262Y-69370184D01*
X177969379Y-69349522D01*
X177849523Y-69274211D01*
X177679254Y-69214631D01*
X177679249Y-69214630D01*
X177500004Y-69194435D01*
X177499996Y-69194435D01*
X177320750Y-69214630D01*
X177320745Y-69214631D01*
X177150476Y-69274211D01*
X176997737Y-69370184D01*
X176870184Y-69497737D01*
X176774211Y-69650476D01*
X176714631Y-69820745D01*
X176714630Y-69820750D01*
X176694435Y-69999996D01*
X175131235Y-69999996D01*
X175129816Y-69997738D01*
X175002262Y-69870184D01*
X174969379Y-69849522D01*
X174849523Y-69774211D01*
X174679254Y-69714631D01*
X174679249Y-69714630D01*
X174500004Y-69694435D01*
X174499996Y-69694435D01*
X174320750Y-69714630D01*
X174320745Y-69714631D01*
X174150476Y-69774211D01*
X173997737Y-69870184D01*
X173870184Y-69997737D01*
X173774211Y-70150476D01*
X173714631Y-70320745D01*
X173714630Y-70320750D01*
X173694435Y-70499996D01*
X163805565Y-70499996D01*
X163785369Y-70320750D01*
X163785368Y-70320745D01*
X163772989Y-70285368D01*
X163725789Y-70150478D01*
X163629816Y-69997738D01*
X163502262Y-69870184D01*
X163469379Y-69849522D01*
X163349523Y-69774211D01*
X163179254Y-69714631D01*
X163179249Y-69714630D01*
X163000004Y-69694435D01*
X162999996Y-69694435D01*
X162820750Y-69714630D01*
X162820745Y-69714631D01*
X162650476Y-69774211D01*
X162497737Y-69870184D01*
X162370184Y-69997737D01*
X162274211Y-70150476D01*
X162214631Y-70320745D01*
X162214630Y-70320750D01*
X162194435Y-70499996D01*
X161148314Y-70499996D01*
X161149540Y-70497036D01*
X161175500Y-70366531D01*
X161175500Y-70233469D01*
X161175500Y-70233466D01*
X161149541Y-70102969D01*
X161149540Y-70102968D01*
X161149540Y-70102964D01*
X161106890Y-69999996D01*
X161098623Y-69980038D01*
X161098622Y-69980037D01*
X161098620Y-69980031D01*
X161086300Y-69961593D01*
X161024698Y-69869398D01*
X161024692Y-69869390D01*
X160930609Y-69775307D01*
X160930601Y-69775301D01*
X160819979Y-69701386D01*
X160819972Y-69701382D01*
X160819969Y-69701380D01*
X160819965Y-69701378D01*
X160819961Y-69701376D01*
X160697040Y-69650461D01*
X160697030Y-69650458D01*
X160566533Y-69624500D01*
X160566531Y-69624500D01*
X160433469Y-69624500D01*
X160427377Y-69624500D01*
X160427377Y-69622429D01*
X160367994Y-69611160D01*
X160317290Y-69563089D01*
X160300500Y-69500783D01*
X160300500Y-69491155D01*
X160300499Y-69491153D01*
X160288737Y-69432023D01*
X160269737Y-69336503D01*
X160221757Y-69220668D01*
X160209397Y-69190827D01*
X160209390Y-69190814D01*
X160121789Y-69059711D01*
X160121786Y-69059707D01*
X160010292Y-68948213D01*
X160010288Y-68948210D01*
X159879185Y-68860609D01*
X159879172Y-68860602D01*
X159733501Y-68800264D01*
X159733489Y-68800261D01*
X159578845Y-68769500D01*
X159578842Y-68769500D01*
X159565892Y-68769500D01*
X159549779Y-68769500D01*
X159491326Y-68754858D01*
X159365502Y-68687604D01*
X159186333Y-68633253D01*
X159186331Y-68633252D01*
X159000000Y-68614901D01*
X158813668Y-68633252D01*
X158813666Y-68633253D01*
X158634497Y-68687604D01*
X158469376Y-68775862D01*
X158469373Y-68775864D01*
X158324642Y-68894642D01*
X158205864Y-69039373D01*
X158205862Y-69039376D01*
X158117604Y-69204497D01*
X158063253Y-69383666D01*
X158063252Y-69383668D01*
X158044901Y-69570000D01*
X155700500Y-69570000D01*
X155700500Y-69476384D01*
X155663973Y-69292749D01*
X155592322Y-69119769D01*
X155592321Y-69119768D01*
X155592318Y-69119762D01*
X155488302Y-68964092D01*
X155488299Y-68964088D01*
X155355911Y-68831700D01*
X155355907Y-68831697D01*
X155200237Y-68727681D01*
X155200228Y-68727676D01*
X155027251Y-68656027D01*
X155027243Y-68656025D01*
X154843620Y-68619500D01*
X154843616Y-68619500D01*
X154156384Y-68619500D01*
X154156379Y-68619500D01*
X153972756Y-68656025D01*
X153972748Y-68656027D01*
X153799771Y-68727676D01*
X153799762Y-68727681D01*
X153644092Y-68831697D01*
X153644088Y-68831700D01*
X153511700Y-68964088D01*
X153511697Y-68964092D01*
X153407681Y-69119762D01*
X153407676Y-69119771D01*
X153336027Y-69292748D01*
X153336025Y-69292756D01*
X153299500Y-69476379D01*
X153000500Y-69476379D01*
X153000500Y-67844996D01*
X185694435Y-67844996D01*
X185694435Y-67845003D01*
X185714630Y-68024249D01*
X185714631Y-68024254D01*
X185774211Y-68194523D01*
X185824283Y-68274211D01*
X185870184Y-68347262D01*
X185997738Y-68474816D01*
X186034217Y-68497737D01*
X186150299Y-68570677D01*
X186150478Y-68570789D01*
X186276543Y-68614901D01*
X186320745Y-68630368D01*
X186320750Y-68630369D01*
X186499996Y-68650565D01*
X186500000Y-68650565D01*
X186500004Y-68650565D01*
X186679249Y-68630369D01*
X186679252Y-68630368D01*
X186679255Y-68630368D01*
X186849522Y-68570789D01*
X187002262Y-68474816D01*
X187129816Y-68347262D01*
X187225789Y-68194522D01*
X187285368Y-68024255D01*
X187288101Y-68000000D01*
X187288101Y-67999996D01*
X193694435Y-67999996D01*
X193694435Y-68000003D01*
X193714630Y-68179249D01*
X193714631Y-68179254D01*
X193774211Y-68349523D01*
X193867341Y-68497737D01*
X193870184Y-68502262D01*
X193997738Y-68629816D01*
X194039453Y-68656027D01*
X194132721Y-68714632D01*
X194150478Y-68725789D01*
X194293584Y-68775864D01*
X194320745Y-68785368D01*
X194320750Y-68785369D01*
X194499996Y-68805565D01*
X194500000Y-68805565D01*
X194500004Y-68805565D01*
X194679249Y-68785369D01*
X194679252Y-68785368D01*
X194679255Y-68785368D01*
X194849522Y-68725789D01*
X195002262Y-68629816D01*
X195129816Y-68502262D01*
X195225789Y-68349522D01*
X195285368Y-68179255D01*
X195301238Y-68038403D01*
X195305565Y-68000003D01*
X195305565Y-67999996D01*
X195285369Y-67820750D01*
X195285368Y-67820745D01*
X195225788Y-67650476D01*
X195186582Y-67588080D01*
X195129816Y-67497738D01*
X195002262Y-67370184D01*
X194958582Y-67342738D01*
X194849523Y-67274211D01*
X194679254Y-67214631D01*
X194679249Y-67214630D01*
X194500004Y-67194435D01*
X194499996Y-67194435D01*
X194320750Y-67214630D01*
X194320745Y-67214631D01*
X194150476Y-67274211D01*
X193997737Y-67370184D01*
X193870184Y-67497737D01*
X193774211Y-67650476D01*
X193714631Y-67820745D01*
X193714630Y-67820750D01*
X193694435Y-67999996D01*
X187288101Y-67999996D01*
X187305565Y-67845003D01*
X187305565Y-67844996D01*
X187285369Y-67665750D01*
X187285368Y-67665745D01*
X187272796Y-67629816D01*
X187225789Y-67495478D01*
X187129816Y-67342738D01*
X187002262Y-67215184D01*
X186849523Y-67119211D01*
X186679254Y-67059631D01*
X186679249Y-67059630D01*
X186500004Y-67039435D01*
X186499996Y-67039435D01*
X186320750Y-67059630D01*
X186320745Y-67059631D01*
X186150476Y-67119211D01*
X185997737Y-67215184D01*
X185870184Y-67342737D01*
X185774211Y-67495476D01*
X185714631Y-67665745D01*
X185714630Y-67665750D01*
X185694435Y-67844996D01*
X153000500Y-67844996D01*
X153000500Y-66999996D01*
X183194435Y-66999996D01*
X183194435Y-67000003D01*
X183214630Y-67179249D01*
X183214631Y-67179254D01*
X183274211Y-67349523D01*
X183365920Y-67495476D01*
X183370184Y-67502262D01*
X183497738Y-67629816D01*
X183650478Y-67725789D01*
X183820745Y-67785368D01*
X183820750Y-67785369D01*
X183999996Y-67805565D01*
X184000000Y-67805565D01*
X184000004Y-67805565D01*
X184179249Y-67785369D01*
X184179252Y-67785368D01*
X184179255Y-67785368D01*
X184349522Y-67725789D01*
X184502262Y-67629816D01*
X184629816Y-67502262D01*
X184725789Y-67349522D01*
X184785368Y-67179255D01*
X184785369Y-67179249D01*
X184805565Y-67000003D01*
X184805565Y-66999996D01*
X214194435Y-66999996D01*
X214194435Y-67000003D01*
X214214630Y-67179249D01*
X214214631Y-67179254D01*
X214274211Y-67349523D01*
X214365920Y-67495476D01*
X214370184Y-67502262D01*
X214497738Y-67629816D01*
X214650478Y-67725789D01*
X214820745Y-67785368D01*
X214820750Y-67785369D01*
X214999996Y-67805565D01*
X215000000Y-67805565D01*
X215000004Y-67805565D01*
X215179249Y-67785369D01*
X215179252Y-67785368D01*
X215179255Y-67785368D01*
X215349522Y-67725789D01*
X215502262Y-67629816D01*
X215629816Y-67502262D01*
X215725789Y-67349522D01*
X215785368Y-67179255D01*
X215785369Y-67179249D01*
X215805565Y-67000003D01*
X215805565Y-66999996D01*
X215785369Y-66820750D01*
X215785368Y-66820745D01*
X215725788Y-66650476D01*
X215629815Y-66497737D01*
X215502262Y-66370184D01*
X215349523Y-66274211D01*
X215179254Y-66214631D01*
X215179249Y-66214630D01*
X215000004Y-66194435D01*
X214999996Y-66194435D01*
X214820750Y-66214630D01*
X214820745Y-66214631D01*
X214650476Y-66274211D01*
X214497737Y-66370184D01*
X214370184Y-66497737D01*
X214274211Y-66650476D01*
X214214631Y-66820745D01*
X214214630Y-66820750D01*
X214194435Y-66999996D01*
X184805565Y-66999996D01*
X184785369Y-66820750D01*
X184785368Y-66820745D01*
X184725788Y-66650476D01*
X184629815Y-66497737D01*
X184502262Y-66370184D01*
X184349523Y-66274211D01*
X184179254Y-66214631D01*
X184179249Y-66214630D01*
X184000004Y-66194435D01*
X183999996Y-66194435D01*
X183820750Y-66214630D01*
X183820745Y-66214631D01*
X183650476Y-66274211D01*
X183497737Y-66370184D01*
X183370184Y-66497737D01*
X183274211Y-66650476D01*
X183214631Y-66820745D01*
X183214630Y-66820750D01*
X183194435Y-66999996D01*
X153000500Y-66999996D01*
X153000500Y-65499996D01*
X164694435Y-65499996D01*
X164694435Y-65500003D01*
X164714630Y-65679249D01*
X164714631Y-65679254D01*
X164774211Y-65849523D01*
X164870184Y-66002262D01*
X164997738Y-66129816D01*
X165088080Y-66186582D01*
X165132721Y-66214632D01*
X165150478Y-66225789D01*
X165288860Y-66274211D01*
X165320745Y-66285368D01*
X165320750Y-66285369D01*
X165499996Y-66305565D01*
X165500000Y-66305565D01*
X165500004Y-66305565D01*
X165679249Y-66285369D01*
X165679252Y-66285368D01*
X165679255Y-66285368D01*
X165849522Y-66225789D01*
X166002262Y-66129816D01*
X166129816Y-66002262D01*
X166225789Y-65849522D01*
X166285368Y-65679255D01*
X166285369Y-65679249D01*
X166305565Y-65500003D01*
X166305565Y-65499996D01*
X166285369Y-65320750D01*
X166285368Y-65320745D01*
X166252141Y-65225788D01*
X166225789Y-65150478D01*
X166129816Y-64997738D01*
X166002262Y-64870184D01*
X165965782Y-64847262D01*
X165849523Y-64774211D01*
X165679254Y-64714631D01*
X165679249Y-64714630D01*
X165500004Y-64694435D01*
X165499996Y-64694435D01*
X165320750Y-64714630D01*
X165320745Y-64714631D01*
X165150476Y-64774211D01*
X164997737Y-64870184D01*
X164870184Y-64997737D01*
X164774211Y-65150476D01*
X164714631Y-65320745D01*
X164714630Y-65320750D01*
X164694435Y-65499996D01*
X153000500Y-65499996D01*
X153000500Y-64344996D01*
X185694435Y-64344996D01*
X185694435Y-64345003D01*
X185714630Y-64524249D01*
X185714631Y-64524254D01*
X185774211Y-64694523D01*
X185827416Y-64779197D01*
X185870184Y-64847262D01*
X185997738Y-64974816D01*
X186150478Y-65070789D01*
X186319165Y-65129815D01*
X186320745Y-65130368D01*
X186320750Y-65130369D01*
X186499996Y-65150565D01*
X186500000Y-65150565D01*
X186500004Y-65150565D01*
X186679249Y-65130369D01*
X186679252Y-65130368D01*
X186679255Y-65130368D01*
X186849522Y-65070789D01*
X187002262Y-64974816D01*
X187129816Y-64847262D01*
X187143497Y-64825487D01*
X187195827Y-64779197D01*
X187264881Y-64768546D01*
X187289446Y-64774416D01*
X187320745Y-64785368D01*
X187320750Y-64785369D01*
X187499996Y-64805565D01*
X187500000Y-64805565D01*
X187500004Y-64805565D01*
X187679249Y-64785369D01*
X187679252Y-64785368D01*
X187679255Y-64785368D01*
X187849522Y-64725789D01*
X188002262Y-64629816D01*
X188007331Y-64624746D01*
X188068649Y-64591261D01*
X188138341Y-64596242D01*
X188194276Y-64638111D01*
X188210573Y-64673297D01*
X188212332Y-64672682D01*
X188274211Y-64849523D01*
X188367341Y-64997737D01*
X188370184Y-65002262D01*
X188497738Y-65129816D01*
X188650478Y-65225789D01*
X188820745Y-65285368D01*
X188820750Y-65285369D01*
X188999996Y-65305565D01*
X189000000Y-65305565D01*
X189000004Y-65305565D01*
X189179249Y-65285369D01*
X189179252Y-65285368D01*
X189179255Y-65285368D01*
X189349522Y-65225789D01*
X189502262Y-65129816D01*
X189629816Y-65002262D01*
X189631240Y-64999996D01*
X204194435Y-64999996D01*
X204194435Y-65000003D01*
X204214630Y-65179249D01*
X204214631Y-65179254D01*
X204274211Y-65349523D01*
X204368760Y-65499996D01*
X204370184Y-65502262D01*
X204497738Y-65629816D01*
X204650478Y-65725789D01*
X204820745Y-65785368D01*
X204820750Y-65785369D01*
X204999996Y-65805565D01*
X205000000Y-65805565D01*
X205000004Y-65805565D01*
X205179249Y-65785369D01*
X205179252Y-65785368D01*
X205179255Y-65785368D01*
X205349522Y-65725789D01*
X205502262Y-65629816D01*
X205629816Y-65502262D01*
X205725789Y-65349522D01*
X205785368Y-65179255D01*
X205788601Y-65150565D01*
X205805565Y-65000003D01*
X205805565Y-64999996D01*
X232194435Y-64999996D01*
X232194435Y-65000003D01*
X232214630Y-65179249D01*
X232214631Y-65179254D01*
X232274211Y-65349523D01*
X232368760Y-65499996D01*
X232370184Y-65502262D01*
X232497738Y-65629816D01*
X232650478Y-65725789D01*
X232820745Y-65785368D01*
X232820750Y-65785369D01*
X232999996Y-65805565D01*
X233000000Y-65805565D01*
X233000004Y-65805565D01*
X233179249Y-65785369D01*
X233179252Y-65785368D01*
X233179255Y-65785368D01*
X233349522Y-65725789D01*
X233502262Y-65629816D01*
X233629816Y-65502262D01*
X233725789Y-65349522D01*
X233785368Y-65179255D01*
X233788601Y-65150565D01*
X233805565Y-65000003D01*
X233805565Y-64999996D01*
X233785369Y-64820750D01*
X233785368Y-64820745D01*
X233767103Y-64768546D01*
X233725789Y-64650478D01*
X233709622Y-64624749D01*
X233686582Y-64588080D01*
X233629816Y-64497738D01*
X233502262Y-64370184D01*
X233462176Y-64344996D01*
X233349523Y-64274211D01*
X233179254Y-64214631D01*
X233179249Y-64214630D01*
X233000004Y-64194435D01*
X232999996Y-64194435D01*
X232820750Y-64214630D01*
X232820745Y-64214631D01*
X232650476Y-64274211D01*
X232497737Y-64370184D01*
X232370184Y-64497737D01*
X232274211Y-64650476D01*
X232214631Y-64820745D01*
X232214630Y-64820750D01*
X232194435Y-64999996D01*
X205805565Y-64999996D01*
X205785369Y-64820750D01*
X205785368Y-64820745D01*
X205767103Y-64768546D01*
X205725789Y-64650478D01*
X205709622Y-64624749D01*
X205686582Y-64588080D01*
X205629816Y-64497738D01*
X205502262Y-64370184D01*
X205462176Y-64344996D01*
X205349523Y-64274211D01*
X205179254Y-64214631D01*
X205179249Y-64214630D01*
X205000004Y-64194435D01*
X204999996Y-64194435D01*
X204820750Y-64214630D01*
X204820745Y-64214631D01*
X204650476Y-64274211D01*
X204497737Y-64370184D01*
X204370184Y-64497737D01*
X204274211Y-64650476D01*
X204214631Y-64820745D01*
X204214630Y-64820750D01*
X204194435Y-64999996D01*
X189631240Y-64999996D01*
X189725789Y-64849522D01*
X189725789Y-64849519D01*
X189728259Y-64845590D01*
X189780594Y-64799299D01*
X189847136Y-64788342D01*
X189999996Y-64805565D01*
X190000000Y-64805565D01*
X190000004Y-64805565D01*
X190179249Y-64785369D01*
X190179252Y-64785368D01*
X190179255Y-64785368D01*
X190349522Y-64725789D01*
X190502262Y-64629816D01*
X190629816Y-64502262D01*
X190725789Y-64349522D01*
X190785368Y-64179255D01*
X190786890Y-64165750D01*
X190805565Y-64000003D01*
X190805565Y-63999996D01*
X190785369Y-63820750D01*
X190785368Y-63820745D01*
X190769085Y-63774211D01*
X190725789Y-63650478D01*
X190629816Y-63497738D01*
X190502262Y-63370184D01*
X190399422Y-63305565D01*
X190349523Y-63274211D01*
X190179254Y-63214631D01*
X190179249Y-63214630D01*
X190000004Y-63194435D01*
X189999996Y-63194435D01*
X189820750Y-63214630D01*
X189820745Y-63214631D01*
X189650476Y-63274211D01*
X189497737Y-63370184D01*
X189370182Y-63497739D01*
X189271739Y-63654410D01*
X189219405Y-63700700D01*
X189152863Y-63711657D01*
X189000004Y-63694435D01*
X188999996Y-63694435D01*
X188820750Y-63714630D01*
X188820745Y-63714631D01*
X188650476Y-63774211D01*
X188497738Y-63870183D01*
X188492663Y-63875259D01*
X188431338Y-63908741D01*
X188361647Y-63903753D01*
X188305715Y-63861878D01*
X188289435Y-63826699D01*
X188287668Y-63827318D01*
X188269085Y-63774211D01*
X188225789Y-63650478D01*
X188129816Y-63497738D01*
X188002262Y-63370184D01*
X187899422Y-63305565D01*
X187849523Y-63274211D01*
X187679254Y-63214631D01*
X187679249Y-63214630D01*
X187500004Y-63194435D01*
X187499996Y-63194435D01*
X187320750Y-63214630D01*
X187320745Y-63214631D01*
X187150476Y-63274211D01*
X186997737Y-63370184D01*
X186870180Y-63497741D01*
X186856500Y-63519514D01*
X186804165Y-63565805D01*
X186735111Y-63576452D01*
X186710554Y-63570583D01*
X186679254Y-63559631D01*
X186500004Y-63539435D01*
X186499996Y-63539435D01*
X186320750Y-63559630D01*
X186320745Y-63559631D01*
X186150476Y-63619211D01*
X185997737Y-63715184D01*
X185870184Y-63842737D01*
X185774211Y-63995476D01*
X185714631Y-64165745D01*
X185714630Y-64165750D01*
X185694435Y-64344996D01*
X153000500Y-64344996D01*
X153000500Y-53999996D01*
X166194435Y-53999996D01*
X166194435Y-54000003D01*
X166214630Y-54179249D01*
X166214631Y-54179254D01*
X166274211Y-54349523D01*
X166367341Y-54497737D01*
X166370184Y-54502262D01*
X166497738Y-54629816D01*
X166650478Y-54725789D01*
X166820745Y-54785368D01*
X166820750Y-54785369D01*
X166999996Y-54805565D01*
X167000000Y-54805565D01*
X167000004Y-54805565D01*
X167179249Y-54785369D01*
X167179252Y-54785368D01*
X167179255Y-54785368D01*
X167349522Y-54725789D01*
X167502262Y-54629816D01*
X167629816Y-54502262D01*
X167725789Y-54349522D01*
X167785368Y-54179255D01*
X167805565Y-54000000D01*
X167805565Y-53999999D01*
X168125426Y-53999999D01*
X168125426Y-54000000D01*
X168144485Y-54217849D01*
X168144487Y-54217859D01*
X168201083Y-54429082D01*
X168201085Y-54429086D01*
X168201086Y-54429090D01*
X168233097Y-54497737D01*
X168293506Y-54627286D01*
X168318593Y-54663114D01*
X168418941Y-54806425D01*
X168573575Y-54961059D01*
X168752712Y-55086492D01*
X168752713Y-55086493D01*
X168905241Y-55157618D01*
X168957680Y-55203790D01*
X168976832Y-55270984D01*
X168956616Y-55337865D01*
X168905241Y-55382382D01*
X168752713Y-55453506D01*
X168633201Y-55537190D01*
X168573575Y-55578941D01*
X168573573Y-55578942D01*
X168573570Y-55578945D01*
X168418945Y-55733570D01*
X168293506Y-55912713D01*
X168201087Y-56110908D01*
X168201083Y-56110917D01*
X168144487Y-56322140D01*
X168144485Y-56322150D01*
X168125426Y-56539999D01*
X168125426Y-56540000D01*
X168144485Y-56757849D01*
X168144487Y-56757859D01*
X168201083Y-56969082D01*
X168201085Y-56969086D01*
X168201086Y-56969090D01*
X168247296Y-57068188D01*
X168293506Y-57167286D01*
X168293507Y-57167287D01*
X168418941Y-57346425D01*
X168573575Y-57501059D01*
X168752712Y-57626492D01*
X168752713Y-57626493D01*
X168905241Y-57697618D01*
X168957680Y-57743790D01*
X168976832Y-57810984D01*
X168956616Y-57877865D01*
X168905241Y-57922382D01*
X168752713Y-57993506D01*
X168633201Y-58077190D01*
X168573575Y-58118941D01*
X168573573Y-58118942D01*
X168573570Y-58118945D01*
X168418945Y-58273570D01*
X168293506Y-58452713D01*
X168210923Y-58629815D01*
X168201288Y-58650478D01*
X168201087Y-58650908D01*
X168201083Y-58650917D01*
X168144487Y-58862140D01*
X168144485Y-58862150D01*
X168125426Y-59079999D01*
X168125426Y-59080000D01*
X168144485Y-59297849D01*
X168144487Y-59297859D01*
X168201083Y-59509082D01*
X168201085Y-59509086D01*
X168201086Y-59509090D01*
X168247296Y-59608188D01*
X168293506Y-59707286D01*
X168306462Y-59725789D01*
X168418941Y-59886425D01*
X168573575Y-60041059D01*
X168752712Y-60166492D01*
X168752713Y-60166493D01*
X168905833Y-60237894D01*
X168958272Y-60284066D01*
X168977424Y-60351260D01*
X168957208Y-60418141D01*
X168905833Y-60462658D01*
X168752960Y-60533944D01*
X168690931Y-60577376D01*
X168690930Y-60577377D01*
X169254428Y-61140874D01*
X169188821Y-61158454D01*
X169075879Y-61223661D01*
X168983661Y-61315879D01*
X168918454Y-61428821D01*
X168900874Y-61494427D01*
X168337377Y-60930930D01*
X168337376Y-60930931D01*
X168293944Y-60992960D01*
X168201559Y-61191080D01*
X168201555Y-61191089D01*
X168144981Y-61402228D01*
X168144979Y-61402238D01*
X168125928Y-61619998D01*
X168125928Y-61620001D01*
X168144979Y-61837761D01*
X168144981Y-61837771D01*
X168201555Y-62048910D01*
X168201559Y-62048919D01*
X168293941Y-62247034D01*
X168293942Y-62247036D01*
X168337377Y-62309067D01*
X168337378Y-62309068D01*
X168900874Y-61745571D01*
X168918454Y-61811179D01*
X168983661Y-61924121D01*
X169075879Y-62016339D01*
X169188821Y-62081546D01*
X169254427Y-62099125D01*
X168690930Y-62662621D01*
X168752964Y-62706057D01*
X168951080Y-62798440D01*
X168951089Y-62798444D01*
X169162228Y-62855018D01*
X169162238Y-62855020D01*
X169379998Y-62874072D01*
X169380002Y-62874072D01*
X169597761Y-62855020D01*
X169597771Y-62855018D01*
X169808910Y-62798444D01*
X169808919Y-62798440D01*
X170007035Y-62706058D01*
X170007039Y-62706056D01*
X170069068Y-62662622D01*
X170069068Y-62662621D01*
X169505572Y-62099125D01*
X169571179Y-62081546D01*
X169684121Y-62016339D01*
X169776339Y-61924121D01*
X169841546Y-61811179D01*
X169859125Y-61745572D01*
X170422621Y-62309068D01*
X170422622Y-62309068D01*
X170466056Y-62247039D01*
X170466058Y-62247035D01*
X170558440Y-62048919D01*
X170558444Y-62048910D01*
X170615018Y-61837771D01*
X170615020Y-61837761D01*
X170634072Y-61620001D01*
X170634072Y-61619998D01*
X170615020Y-61402238D01*
X170615018Y-61402228D01*
X170558444Y-61191089D01*
X170558440Y-61191080D01*
X170466057Y-60992964D01*
X170422621Y-60930930D01*
X169859124Y-61494426D01*
X169841546Y-61428821D01*
X169776339Y-61315879D01*
X169684121Y-61223661D01*
X169571179Y-61158454D01*
X169505572Y-61140874D01*
X170069068Y-60577378D01*
X170069067Y-60577377D01*
X170007036Y-60533942D01*
X170007034Y-60533941D01*
X169854166Y-60462658D01*
X169801727Y-60416486D01*
X169782575Y-60349292D01*
X169802791Y-60282411D01*
X169854164Y-60237895D01*
X170007287Y-60166493D01*
X170186425Y-60041059D01*
X170341059Y-59886425D01*
X170466493Y-59707287D01*
X170558914Y-59509090D01*
X170615514Y-59297854D01*
X170634574Y-59080000D01*
X170615514Y-58862146D01*
X170558914Y-58650910D01*
X170466493Y-58452713D01*
X170341059Y-58273575D01*
X170186425Y-58118941D01*
X170007287Y-57993507D01*
X169854756Y-57922380D01*
X169802319Y-57876210D01*
X169783167Y-57809016D01*
X169803383Y-57742135D01*
X169854756Y-57697619D01*
X170007287Y-57626493D01*
X170186425Y-57501059D01*
X170341059Y-57346425D01*
X170466493Y-57167287D01*
X170558914Y-56969090D01*
X170615514Y-56757854D01*
X170634574Y-56540000D01*
X170615514Y-56322146D01*
X170558914Y-56110910D01*
X170466493Y-55912713D01*
X170341059Y-55733575D01*
X170186425Y-55578941D01*
X170007287Y-55453507D01*
X169854756Y-55382380D01*
X169802319Y-55336210D01*
X169783167Y-55269016D01*
X169803383Y-55202135D01*
X169854756Y-55157619D01*
X170007287Y-55086493D01*
X170186425Y-54961059D01*
X170341059Y-54806425D01*
X170466493Y-54627287D01*
X170558914Y-54429090D01*
X170615514Y-54217854D01*
X170634574Y-54000000D01*
X170634574Y-53999999D01*
X175745426Y-53999999D01*
X175745426Y-54000000D01*
X175764485Y-54217849D01*
X175764487Y-54217859D01*
X175821083Y-54429082D01*
X175821085Y-54429086D01*
X175821086Y-54429090D01*
X175853097Y-54497737D01*
X175913506Y-54627286D01*
X175938593Y-54663114D01*
X176038941Y-54806425D01*
X176193575Y-54961059D01*
X176372712Y-55086492D01*
X176372713Y-55086493D01*
X176525241Y-55157618D01*
X176577680Y-55203790D01*
X176596832Y-55270984D01*
X176576616Y-55337865D01*
X176525241Y-55382382D01*
X176372713Y-55453506D01*
X176253201Y-55537190D01*
X176193575Y-55578941D01*
X176193573Y-55578942D01*
X176193570Y-55578945D01*
X176038945Y-55733570D01*
X175913506Y-55912713D01*
X175821087Y-56110908D01*
X175821083Y-56110917D01*
X175764487Y-56322140D01*
X175764485Y-56322150D01*
X175745426Y-56539999D01*
X175745426Y-56540000D01*
X175764485Y-56757849D01*
X175764487Y-56757859D01*
X175821083Y-56969082D01*
X175821085Y-56969086D01*
X175821086Y-56969090D01*
X175867296Y-57068188D01*
X175913506Y-57167286D01*
X175913507Y-57167287D01*
X176038941Y-57346425D01*
X176193575Y-57501059D01*
X176372712Y-57626492D01*
X176372713Y-57626493D01*
X176525241Y-57697618D01*
X176577680Y-57743790D01*
X176596832Y-57810984D01*
X176576616Y-57877865D01*
X176525241Y-57922382D01*
X176372713Y-57993506D01*
X176253201Y-58077190D01*
X176193575Y-58118941D01*
X176193573Y-58118942D01*
X176193570Y-58118945D01*
X176038945Y-58273570D01*
X175913506Y-58452713D01*
X175830923Y-58629815D01*
X175821288Y-58650478D01*
X175821087Y-58650908D01*
X175821083Y-58650917D01*
X175764487Y-58862140D01*
X175764485Y-58862150D01*
X175745426Y-59079999D01*
X175745426Y-59080000D01*
X175764485Y-59297849D01*
X175764487Y-59297859D01*
X175821083Y-59509082D01*
X175821085Y-59509086D01*
X175821086Y-59509090D01*
X175867296Y-59608188D01*
X175913506Y-59707286D01*
X175926462Y-59725789D01*
X176038941Y-59886425D01*
X176193575Y-60041059D01*
X176341486Y-60144627D01*
X176385108Y-60199202D01*
X176392301Y-60268701D01*
X176360779Y-60331055D01*
X176300549Y-60366469D01*
X176270362Y-60370200D01*
X176202830Y-60370200D01*
X176202823Y-60370201D01*
X176143216Y-60376608D01*
X176008371Y-60426902D01*
X176008364Y-60426906D01*
X175893155Y-60513152D01*
X175893152Y-60513155D01*
X175806906Y-60628364D01*
X175806902Y-60628371D01*
X175756608Y-60763217D01*
X175754227Y-60785368D01*
X175750201Y-60822823D01*
X175750200Y-60822835D01*
X175750200Y-62417170D01*
X175750201Y-62417176D01*
X175756608Y-62476783D01*
X175806902Y-62611628D01*
X175806906Y-62611635D01*
X175893152Y-62726844D01*
X175893155Y-62726847D01*
X176008364Y-62813093D01*
X176008371Y-62813097D01*
X176143217Y-62863391D01*
X176143216Y-62863391D01*
X176150144Y-62864135D01*
X176202827Y-62869800D01*
X177797172Y-62869799D01*
X177856783Y-62863391D01*
X177991631Y-62813096D01*
X178106846Y-62726846D01*
X178193096Y-62611631D01*
X178234733Y-62499996D01*
X197694435Y-62499996D01*
X197694435Y-62500003D01*
X197714630Y-62679249D01*
X197714631Y-62679254D01*
X197774211Y-62849523D01*
X197870184Y-63002262D01*
X197997738Y-63129816D01*
X198088080Y-63186582D01*
X198132721Y-63214632D01*
X198150478Y-63225789D01*
X198288860Y-63274211D01*
X198320745Y-63285368D01*
X198320750Y-63285369D01*
X198499996Y-63305565D01*
X198500000Y-63305565D01*
X198500004Y-63305565D01*
X198679249Y-63285369D01*
X198679252Y-63285368D01*
X198679255Y-63285368D01*
X198849522Y-63225789D01*
X199002262Y-63129816D01*
X199129816Y-63002262D01*
X199225789Y-62849522D01*
X199285368Y-62679255D01*
X199287242Y-62662622D01*
X199305565Y-62500003D01*
X199305565Y-62499996D01*
X199285369Y-62320750D01*
X199285368Y-62320745D01*
X199225788Y-62150476D01*
X199161975Y-62048919D01*
X199129816Y-61997738D01*
X199002262Y-61870184D01*
X198950661Y-61837761D01*
X198849523Y-61774211D01*
X198679254Y-61714631D01*
X198679249Y-61714630D01*
X198500004Y-61694435D01*
X198499996Y-61694435D01*
X198320750Y-61714630D01*
X198320745Y-61714631D01*
X198150476Y-61774211D01*
X197997737Y-61870184D01*
X197870184Y-61997737D01*
X197774211Y-62150476D01*
X197714631Y-62320745D01*
X197714630Y-62320750D01*
X197694435Y-62499996D01*
X178234733Y-62499996D01*
X178243391Y-62476783D01*
X178249800Y-62417173D01*
X178249799Y-60822828D01*
X178243391Y-60763217D01*
X178229431Y-60725789D01*
X178193097Y-60628371D01*
X178193093Y-60628364D01*
X178106847Y-60513155D01*
X178106844Y-60513152D01*
X178089270Y-60499996D01*
X182694435Y-60499996D01*
X182694435Y-60500003D01*
X182714630Y-60679249D01*
X182714631Y-60679254D01*
X182774211Y-60849523D01*
X182864339Y-60992960D01*
X182870184Y-61002262D01*
X182997738Y-61129816D01*
X183150478Y-61225789D01*
X183266669Y-61266446D01*
X183320745Y-61285368D01*
X183320750Y-61285369D01*
X183499996Y-61305565D01*
X183500000Y-61305565D01*
X183500004Y-61305565D01*
X183679249Y-61285369D01*
X183679252Y-61285368D01*
X183679255Y-61285368D01*
X183849522Y-61225789D01*
X184002262Y-61129816D01*
X184129816Y-61002262D01*
X184225789Y-60849522D01*
X184285368Y-60679255D01*
X184285369Y-60679249D01*
X184305565Y-60500003D01*
X184305565Y-60499996D01*
X184285369Y-60320750D01*
X184285368Y-60320745D01*
X184256377Y-60237894D01*
X184225789Y-60150478D01*
X184222111Y-60144625D01*
X184131237Y-60000000D01*
X184131234Y-59999996D01*
X219194435Y-59999996D01*
X219194435Y-60000003D01*
X219214630Y-60179249D01*
X219214631Y-60179254D01*
X219274211Y-60349523D01*
X219345299Y-60462658D01*
X219370184Y-60502262D01*
X219497738Y-60629816D01*
X219650478Y-60725789D01*
X219757441Y-60763217D01*
X219820745Y-60785368D01*
X219820750Y-60785369D01*
X219999996Y-60805565D01*
X220000000Y-60805565D01*
X220000004Y-60805565D01*
X220179249Y-60785369D01*
X220179252Y-60785368D01*
X220179255Y-60785368D01*
X220349522Y-60725789D01*
X220502262Y-60629816D01*
X220629816Y-60502262D01*
X220725789Y-60349522D01*
X220785368Y-60179255D01*
X220786806Y-60166492D01*
X220805565Y-60000003D01*
X220805565Y-59999996D01*
X247194435Y-59999996D01*
X247194435Y-60000003D01*
X247214630Y-60179249D01*
X247214631Y-60179254D01*
X247274211Y-60349523D01*
X247345299Y-60462658D01*
X247370184Y-60502262D01*
X247497738Y-60629816D01*
X247650478Y-60725789D01*
X247757441Y-60763217D01*
X247820745Y-60785368D01*
X247820750Y-60785369D01*
X247999996Y-60805565D01*
X248000000Y-60805565D01*
X248000004Y-60805565D01*
X248179249Y-60785369D01*
X248179252Y-60785368D01*
X248179255Y-60785368D01*
X248349522Y-60725789D01*
X248502262Y-60629816D01*
X248629816Y-60502262D01*
X248725789Y-60349522D01*
X248785368Y-60179255D01*
X248786806Y-60166492D01*
X248805565Y-60000003D01*
X248805565Y-59999996D01*
X248785369Y-59820750D01*
X248785368Y-59820745D01*
X248725788Y-59650476D01*
X248686582Y-59588080D01*
X248629816Y-59497738D01*
X248502262Y-59370184D01*
X248387142Y-59297849D01*
X248349523Y-59274211D01*
X248179254Y-59214631D01*
X248179249Y-59214630D01*
X248000004Y-59194435D01*
X247999996Y-59194435D01*
X247820750Y-59214630D01*
X247820745Y-59214631D01*
X247650476Y-59274211D01*
X247497737Y-59370184D01*
X247370184Y-59497737D01*
X247274211Y-59650476D01*
X247214631Y-59820745D01*
X247214630Y-59820750D01*
X247194435Y-59999996D01*
X220805565Y-59999996D01*
X220785369Y-59820750D01*
X220785368Y-59820745D01*
X220725788Y-59650476D01*
X220686582Y-59588080D01*
X220629816Y-59497738D01*
X220502262Y-59370184D01*
X220387142Y-59297849D01*
X220349523Y-59274211D01*
X220179254Y-59214631D01*
X220179249Y-59214630D01*
X220000004Y-59194435D01*
X219999996Y-59194435D01*
X219820750Y-59214630D01*
X219820745Y-59214631D01*
X219650476Y-59274211D01*
X219497737Y-59370184D01*
X219370184Y-59497737D01*
X219274211Y-59650476D01*
X219214631Y-59820745D01*
X219214630Y-59820750D01*
X219194435Y-59999996D01*
X184131234Y-59999996D01*
X184129816Y-59997738D01*
X184002262Y-59870184D01*
X183849523Y-59774211D01*
X183679254Y-59714631D01*
X183679249Y-59714630D01*
X183500004Y-59694435D01*
X183499996Y-59694435D01*
X183320750Y-59714630D01*
X183320745Y-59714631D01*
X183150476Y-59774211D01*
X182997737Y-59870184D01*
X182870184Y-59997737D01*
X182774211Y-60150476D01*
X182714631Y-60320745D01*
X182714630Y-60320750D01*
X182694435Y-60499996D01*
X178089270Y-60499996D01*
X177991635Y-60426906D01*
X177991628Y-60426902D01*
X177856782Y-60376608D01*
X177856783Y-60376608D01*
X177797183Y-60370201D01*
X177797181Y-60370200D01*
X177797173Y-60370200D01*
X177797165Y-60370200D01*
X177729640Y-60370200D01*
X177662601Y-60350515D01*
X177616846Y-60297711D01*
X177606902Y-60228553D01*
X177635927Y-60164997D01*
X177658510Y-60144630D01*
X177806425Y-60041059D01*
X177961059Y-59886425D01*
X178086493Y-59707287D01*
X178178914Y-59509090D01*
X178235514Y-59297854D01*
X178254574Y-59080000D01*
X178247574Y-58999996D01*
X178694435Y-58999996D01*
X178694435Y-59000003D01*
X178714630Y-59179249D01*
X178714631Y-59179254D01*
X178774211Y-59349523D01*
X178867341Y-59497737D01*
X178870184Y-59502262D01*
X178997738Y-59629816D01*
X179088080Y-59686582D01*
X179132721Y-59714632D01*
X179150478Y-59725789D01*
X179288860Y-59774211D01*
X179320745Y-59785368D01*
X179320750Y-59785369D01*
X179499996Y-59805565D01*
X179500000Y-59805565D01*
X179500004Y-59805565D01*
X179679249Y-59785369D01*
X179679252Y-59785368D01*
X179679255Y-59785368D01*
X179849522Y-59725789D01*
X180002262Y-59629816D01*
X180129816Y-59502262D01*
X180225789Y-59349522D01*
X180285368Y-59179255D01*
X180285369Y-59179249D01*
X180305565Y-59000003D01*
X180305565Y-58999996D01*
X180285369Y-58820750D01*
X180285368Y-58820745D01*
X180252141Y-58725788D01*
X180225789Y-58650478D01*
X180129816Y-58497738D01*
X180002262Y-58370184D01*
X179969379Y-58349522D01*
X179849523Y-58274211D01*
X179679254Y-58214631D01*
X179679249Y-58214630D01*
X179500004Y-58194435D01*
X179499996Y-58194435D01*
X179320750Y-58214630D01*
X179320745Y-58214631D01*
X179150476Y-58274211D01*
X178997737Y-58370184D01*
X178870184Y-58497737D01*
X178774211Y-58650476D01*
X178714631Y-58820745D01*
X178714630Y-58820750D01*
X178694435Y-58999996D01*
X178247574Y-58999996D01*
X178235514Y-58862146D01*
X178178914Y-58650910D01*
X178086493Y-58452713D01*
X177961059Y-58273575D01*
X177806425Y-58118941D01*
X177636554Y-57999996D01*
X189694435Y-57999996D01*
X189694435Y-58000003D01*
X189714630Y-58179249D01*
X189714631Y-58179254D01*
X189774211Y-58349523D01*
X189839050Y-58452713D01*
X189870184Y-58502262D01*
X189997738Y-58629816D01*
X190150478Y-58725789D01*
X190320745Y-58785368D01*
X190320750Y-58785369D01*
X190499996Y-58805565D01*
X190500000Y-58805565D01*
X190500004Y-58805565D01*
X190679249Y-58785369D01*
X190679252Y-58785368D01*
X190679255Y-58785368D01*
X190849522Y-58725789D01*
X191002262Y-58629816D01*
X191129816Y-58502262D01*
X191131240Y-58499996D01*
X209694435Y-58499996D01*
X209694435Y-58500003D01*
X209714630Y-58679249D01*
X209714631Y-58679254D01*
X209774211Y-58849523D01*
X209868760Y-58999996D01*
X209870184Y-59002262D01*
X209997738Y-59129816D01*
X210076410Y-59179249D01*
X210132721Y-59214632D01*
X210150478Y-59225789D01*
X210288860Y-59274211D01*
X210320745Y-59285368D01*
X210320750Y-59285369D01*
X210499996Y-59305565D01*
X210500000Y-59305565D01*
X210500004Y-59305565D01*
X210679249Y-59285369D01*
X210679252Y-59285368D01*
X210679255Y-59285368D01*
X210849522Y-59225789D01*
X211002262Y-59129816D01*
X211129816Y-59002262D01*
X211225789Y-58849522D01*
X211285368Y-58679255D01*
X211288562Y-58650908D01*
X211305565Y-58500003D01*
X211305565Y-58499996D01*
X211285369Y-58320750D01*
X211285368Y-58320745D01*
X211269085Y-58274211D01*
X211225789Y-58150478D01*
X211205975Y-58118945D01*
X211131237Y-58000000D01*
X211129816Y-57997738D01*
X211002262Y-57870184D01*
X210961364Y-57844486D01*
X210849523Y-57774211D01*
X210679254Y-57714631D01*
X210679249Y-57714630D01*
X210500004Y-57694435D01*
X210499996Y-57694435D01*
X210320750Y-57714630D01*
X210320745Y-57714631D01*
X210150476Y-57774211D01*
X209997737Y-57870184D01*
X209870184Y-57997737D01*
X209774211Y-58150476D01*
X209714631Y-58320745D01*
X209714630Y-58320750D01*
X209694435Y-58499996D01*
X191131240Y-58499996D01*
X191225789Y-58349522D01*
X191285368Y-58179255D01*
X191285369Y-58179249D01*
X191305565Y-58000003D01*
X191305565Y-57999996D01*
X191285369Y-57820750D01*
X191285368Y-57820745D01*
X191225788Y-57650476D01*
X191186582Y-57588080D01*
X191129816Y-57497738D01*
X191002262Y-57370184D01*
X190899422Y-57305565D01*
X190849523Y-57274211D01*
X190679254Y-57214631D01*
X190679249Y-57214630D01*
X190500004Y-57194435D01*
X190499996Y-57194435D01*
X190320750Y-57214630D01*
X190320745Y-57214631D01*
X190150476Y-57274211D01*
X189997737Y-57370184D01*
X189870184Y-57497737D01*
X189774211Y-57650476D01*
X189714631Y-57820745D01*
X189714630Y-57820750D01*
X189694435Y-57999996D01*
X177636554Y-57999996D01*
X177627287Y-57993507D01*
X177474756Y-57922380D01*
X177422319Y-57876210D01*
X177403167Y-57809016D01*
X177423383Y-57742135D01*
X177474756Y-57697619D01*
X177627287Y-57626493D01*
X177806425Y-57501059D01*
X177961059Y-57346425D01*
X178086493Y-57167287D01*
X178178914Y-56969090D01*
X178235514Y-56757854D01*
X178254574Y-56540000D01*
X178251074Y-56499996D01*
X185694435Y-56499996D01*
X185694435Y-56500003D01*
X185714630Y-56679249D01*
X185714631Y-56679254D01*
X185774211Y-56849523D01*
X185849341Y-56969091D01*
X185870184Y-57002262D01*
X185997738Y-57129816D01*
X186057371Y-57167286D01*
X186132721Y-57214632D01*
X186150478Y-57225789D01*
X186288860Y-57274211D01*
X186320745Y-57285368D01*
X186320750Y-57285369D01*
X186499996Y-57305565D01*
X186500000Y-57305565D01*
X186500004Y-57305565D01*
X186679249Y-57285369D01*
X186679252Y-57285368D01*
X186679255Y-57285368D01*
X186849522Y-57225789D01*
X187002262Y-57129816D01*
X187129816Y-57002262D01*
X187131240Y-56999996D01*
X197694435Y-56999996D01*
X197694435Y-57000003D01*
X197714630Y-57179249D01*
X197714631Y-57179254D01*
X197774211Y-57349523D01*
X197867341Y-57497737D01*
X197870184Y-57502262D01*
X197997738Y-57629816D01*
X198088080Y-57686582D01*
X198139536Y-57718914D01*
X198150478Y-57725789D01*
X198288860Y-57774211D01*
X198320745Y-57785368D01*
X198320750Y-57785369D01*
X198499996Y-57805565D01*
X198500000Y-57805565D01*
X198500004Y-57805565D01*
X198679249Y-57785369D01*
X198679252Y-57785368D01*
X198679255Y-57785368D01*
X198849522Y-57725789D01*
X199002262Y-57629816D01*
X199129816Y-57502262D01*
X199225789Y-57349522D01*
X199285368Y-57179255D01*
X199285369Y-57179249D01*
X199305565Y-57000003D01*
X199305565Y-56999996D01*
X199285369Y-56820750D01*
X199285368Y-56820745D01*
X199263360Y-56757849D01*
X199225789Y-56650478D01*
X199129816Y-56497738D01*
X199002262Y-56370184D01*
X198849523Y-56274211D01*
X198679254Y-56214631D01*
X198679249Y-56214630D01*
X198500004Y-56194435D01*
X198499996Y-56194435D01*
X198320750Y-56214630D01*
X198320745Y-56214631D01*
X198150476Y-56274211D01*
X197997737Y-56370184D01*
X197870184Y-56497737D01*
X197774211Y-56650476D01*
X197714631Y-56820745D01*
X197714630Y-56820750D01*
X197694435Y-56999996D01*
X187131240Y-56999996D01*
X187225789Y-56849522D01*
X187285368Y-56679255D01*
X187285369Y-56679249D01*
X187305565Y-56500003D01*
X187305565Y-56499996D01*
X187285369Y-56320750D01*
X187285368Y-56320745D01*
X187225788Y-56150476D01*
X187129815Y-55997737D01*
X187002262Y-55870184D01*
X186849523Y-55774211D01*
X186679254Y-55714631D01*
X186679249Y-55714630D01*
X186500004Y-55694435D01*
X186499996Y-55694435D01*
X186320750Y-55714630D01*
X186320745Y-55714631D01*
X186150476Y-55774211D01*
X185997737Y-55870184D01*
X185870184Y-55997737D01*
X185774211Y-56150476D01*
X185714631Y-56320745D01*
X185714630Y-56320750D01*
X185694435Y-56499996D01*
X178251074Y-56499996D01*
X178235514Y-56322146D01*
X178178914Y-56110910D01*
X178086493Y-55912713D01*
X177961059Y-55733575D01*
X177806425Y-55578941D01*
X177627287Y-55453507D01*
X177474756Y-55382380D01*
X177422319Y-55336210D01*
X177403167Y-55269016D01*
X177423383Y-55202135D01*
X177474756Y-55157619D01*
X177627287Y-55086493D01*
X177750817Y-54999996D01*
X216194435Y-54999996D01*
X216194435Y-55000003D01*
X216214630Y-55179249D01*
X216214631Y-55179254D01*
X216274211Y-55349523D01*
X216339549Y-55453507D01*
X216370184Y-55502262D01*
X216497738Y-55629816D01*
X216588080Y-55686582D01*
X216632721Y-55714632D01*
X216650478Y-55725789D01*
X216788860Y-55774211D01*
X216820745Y-55785368D01*
X216820750Y-55785369D01*
X216999996Y-55805565D01*
X217000000Y-55805565D01*
X217000004Y-55805565D01*
X217179249Y-55785369D01*
X217179252Y-55785368D01*
X217179255Y-55785368D01*
X217349522Y-55725789D01*
X217502262Y-55629816D01*
X217629816Y-55502262D01*
X217725789Y-55349522D01*
X217785368Y-55179255D01*
X217785369Y-55179249D01*
X217805565Y-55000003D01*
X217805565Y-54999996D01*
X217785369Y-54820750D01*
X217785368Y-54820745D01*
X217725788Y-54650476D01*
X217686582Y-54588080D01*
X217629816Y-54497738D01*
X217502262Y-54370184D01*
X217469379Y-54349522D01*
X217349523Y-54274211D01*
X217179254Y-54214631D01*
X217179249Y-54214630D01*
X217000004Y-54194435D01*
X216999996Y-54194435D01*
X216820750Y-54214630D01*
X216820745Y-54214631D01*
X216650476Y-54274211D01*
X216497737Y-54370184D01*
X216370184Y-54497737D01*
X216274211Y-54650476D01*
X216214631Y-54820745D01*
X216214630Y-54820750D01*
X216194435Y-54999996D01*
X177750817Y-54999996D01*
X177806425Y-54961059D01*
X177961059Y-54806425D01*
X178086493Y-54627287D01*
X178178914Y-54429090D01*
X178235514Y-54217854D01*
X178254574Y-54000000D01*
X178254574Y-53999996D01*
X180694435Y-53999996D01*
X180694435Y-54000003D01*
X180714630Y-54179249D01*
X180714631Y-54179254D01*
X180774211Y-54349523D01*
X180867341Y-54497737D01*
X180870184Y-54502262D01*
X180997738Y-54629816D01*
X181150478Y-54725789D01*
X181320745Y-54785368D01*
X181320750Y-54785369D01*
X181499996Y-54805565D01*
X181500000Y-54805565D01*
X181500004Y-54805565D01*
X181679249Y-54785369D01*
X181679252Y-54785368D01*
X181679255Y-54785368D01*
X181849522Y-54725789D01*
X182002262Y-54629816D01*
X182129816Y-54502262D01*
X182225789Y-54349522D01*
X182285368Y-54179255D01*
X182305565Y-54000000D01*
X182285368Y-53820745D01*
X182225789Y-53650478D01*
X182129816Y-53497738D01*
X182002262Y-53370184D01*
X181849523Y-53274211D01*
X181679254Y-53214631D01*
X181679249Y-53214630D01*
X181500004Y-53194435D01*
X181499996Y-53194435D01*
X181320750Y-53214630D01*
X181320745Y-53214631D01*
X181150476Y-53274211D01*
X180997737Y-53370184D01*
X180870184Y-53497737D01*
X180774211Y-53650476D01*
X180714631Y-53820745D01*
X180714630Y-53820750D01*
X180694435Y-53999996D01*
X178254574Y-53999996D01*
X178235514Y-53782146D01*
X178178914Y-53570910D01*
X178086493Y-53372713D01*
X177961059Y-53193575D01*
X177806425Y-53038941D01*
X177627287Y-52913507D01*
X177627288Y-52913507D01*
X177627286Y-52913506D01*
X177528188Y-52867296D01*
X177429090Y-52821086D01*
X177429086Y-52821085D01*
X177429082Y-52821083D01*
X177217859Y-52764487D01*
X177217849Y-52764485D01*
X177000001Y-52745426D01*
X176999999Y-52745426D01*
X176782150Y-52764485D01*
X176782140Y-52764487D01*
X176570917Y-52821083D01*
X176570908Y-52821087D01*
X176372713Y-52913506D01*
X176253201Y-52997190D01*
X176193575Y-53038941D01*
X176193573Y-53038942D01*
X176193570Y-53038945D01*
X176038945Y-53193570D01*
X176038942Y-53193573D01*
X176038941Y-53193575D01*
X176024197Y-53214632D01*
X175913506Y-53372713D01*
X175821087Y-53570908D01*
X175821083Y-53570917D01*
X175764487Y-53782140D01*
X175764485Y-53782150D01*
X175745426Y-53999999D01*
X170634574Y-53999999D01*
X170615514Y-53782146D01*
X170558914Y-53570910D01*
X170466493Y-53372713D01*
X170341059Y-53193575D01*
X170186425Y-53038941D01*
X170007287Y-52913507D01*
X170007288Y-52913507D01*
X170007286Y-52913506D01*
X169908188Y-52867296D01*
X169809090Y-52821086D01*
X169809086Y-52821085D01*
X169809082Y-52821083D01*
X169597859Y-52764487D01*
X169597849Y-52764485D01*
X169380001Y-52745426D01*
X169379999Y-52745426D01*
X169162150Y-52764485D01*
X169162140Y-52764487D01*
X168950917Y-52821083D01*
X168950908Y-52821087D01*
X168752713Y-52913506D01*
X168633201Y-52997190D01*
X168573575Y-53038941D01*
X168573573Y-53038942D01*
X168573570Y-53038945D01*
X168418945Y-53193570D01*
X168418942Y-53193573D01*
X168418941Y-53193575D01*
X168404197Y-53214632D01*
X168293506Y-53372713D01*
X168201087Y-53570908D01*
X168201083Y-53570917D01*
X168144487Y-53782140D01*
X168144485Y-53782150D01*
X168125426Y-53999999D01*
X167805565Y-53999999D01*
X167785368Y-53820745D01*
X167725789Y-53650478D01*
X167629816Y-53497738D01*
X167502262Y-53370184D01*
X167349523Y-53274211D01*
X167179254Y-53214631D01*
X167179249Y-53214630D01*
X167000004Y-53194435D01*
X166999996Y-53194435D01*
X166820750Y-53214630D01*
X166820745Y-53214631D01*
X166650476Y-53274211D01*
X166497737Y-53370184D01*
X166370184Y-53497737D01*
X166274211Y-53650476D01*
X166214631Y-53820745D01*
X166214630Y-53820750D01*
X166194435Y-53999996D01*
X153000500Y-53999996D01*
X153000500Y-51624500D01*
X153020185Y-51557461D01*
X153072989Y-51511706D01*
X153124500Y-51500500D01*
X253375500Y-51500500D01*
X253442539Y-51520185D01*
G37*
%TD.AperFunction*%
%TD*%
M02*
