%TF.GenerationSoftware,KiCad,Pcbnew,8.0.2*%
%TF.CreationDate,2025-01-28T20:19:24-08:00*%
%TF.ProjectId,design_revb_2chip,64657369-676e-45f7-9265-76625f326368,rev?*%
%TF.SameCoordinates,Original*%
%TF.FileFunction,Copper,L4,Bot*%
%TF.FilePolarity,Positive*%
%FSLAX46Y46*%
G04 Gerber Fmt 4.6, Leading zero omitted, Abs format (unit mm)*
G04 Created by KiCad (PCBNEW 8.0.2) date 2025-01-28 20:19:24*
%MOMM*%
%LPD*%
G01*
G04 APERTURE LIST*
G04 Aperture macros list*
%AMRoundRect*
0 Rectangle with rounded corners*
0 $1 Rounding radius*
0 $2 $3 $4 $5 $6 $7 $8 $9 X,Y pos of 4 corners*
0 Add a 4 corners polygon primitive as box body*
4,1,4,$2,$3,$4,$5,$6,$7,$8,$9,$2,$3,0*
0 Add four circle primitives for the rounded corners*
1,1,$1+$1,$2,$3*
1,1,$1+$1,$4,$5*
1,1,$1+$1,$6,$7*
1,1,$1+$1,$8,$9*
0 Add four rect primitives between the rounded corners*
20,1,$1+$1,$2,$3,$4,$5,0*
20,1,$1+$1,$4,$5,$6,$7,0*
20,1,$1+$1,$6,$7,$8,$9,0*
20,1,$1+$1,$8,$9,$2,$3,0*%
G04 Aperture macros list end*
%TA.AperFunction,EtchedComponent*%
%ADD10C,0.010000*%
%TD*%
%TA.AperFunction,ComponentPad*%
%ADD11C,0.499999*%
%TD*%
%TA.AperFunction,ComponentPad*%
%ADD12C,0.600000*%
%TD*%
%TA.AperFunction,ComponentPad*%
%ADD13C,0.900000*%
%TD*%
%TA.AperFunction,ComponentPad*%
%ADD14O,1.400000X0.900000*%
%TD*%
%TA.AperFunction,ComponentPad*%
%ADD15R,1.350000X1.350000*%
%TD*%
%TA.AperFunction,ComponentPad*%
%ADD16O,1.350000X1.350000*%
%TD*%
%TA.AperFunction,ComponentPad*%
%ADD17R,1.498600X1.498600*%
%TD*%
%TA.AperFunction,ComponentPad*%
%ADD18C,1.498600*%
%TD*%
%TA.AperFunction,SMDPad,CuDef*%
%ADD19R,1.000000X0.970000*%
%TD*%
%TA.AperFunction,SMDPad,CuDef*%
%ADD20RoundRect,0.250000X-0.262500X-0.450000X0.262500X-0.450000X0.262500X0.450000X-0.262500X0.450000X0*%
%TD*%
%TA.AperFunction,SMDPad,CuDef*%
%ADD21RoundRect,0.250000X-0.450000X0.262500X-0.450000X-0.262500X0.450000X-0.262500X0.450000X0.262500X0*%
%TD*%
%TA.AperFunction,SMDPad,CuDef*%
%ADD22RoundRect,0.250000X0.450000X-0.262500X0.450000X0.262500X-0.450000X0.262500X-0.450000X-0.262500X0*%
%TD*%
%TA.AperFunction,SMDPad,CuDef*%
%ADD23RoundRect,0.100000X-0.130000X-0.100000X0.130000X-0.100000X0.130000X0.100000X-0.130000X0.100000X0*%
%TD*%
%TA.AperFunction,SMDPad,CuDef*%
%ADD24RoundRect,0.100000X0.130000X0.100000X-0.130000X0.100000X-0.130000X-0.100000X0.130000X-0.100000X0*%
%TD*%
%TA.AperFunction,SMDPad,CuDef*%
%ADD25RoundRect,0.100000X0.100000X-0.130000X0.100000X0.130000X-0.100000X0.130000X-0.100000X-0.130000X0*%
%TD*%
%TA.AperFunction,SMDPad,CuDef*%
%ADD26R,0.970000X1.000000*%
%TD*%
%TA.AperFunction,SMDPad,CuDef*%
%ADD27RoundRect,0.250000X0.262500X0.450000X-0.262500X0.450000X-0.262500X-0.450000X0.262500X-0.450000X0*%
%TD*%
%TA.AperFunction,ComponentPad*%
%ADD28R,1.400000X1.400000*%
%TD*%
%TA.AperFunction,ComponentPad*%
%ADD29C,1.400000*%
%TD*%
%TA.AperFunction,ComponentPad*%
%ADD30C,1.500000*%
%TD*%
%TA.AperFunction,ViaPad*%
%ADD31C,0.600000*%
%TD*%
%TA.AperFunction,ViaPad*%
%ADD32C,0.406400*%
%TD*%
%TA.AperFunction,Conductor*%
%ADD33C,0.200000*%
%TD*%
G04 APERTURE END LIST*
D10*
%TO.C,J4*%
X159524000Y-69121000D02*
X159547000Y-69122000D01*
X159570000Y-69126000D01*
X159594000Y-69130000D01*
X159616000Y-69135000D01*
X159639000Y-69142000D01*
X159661000Y-69150000D01*
X159683000Y-69159000D01*
X159704000Y-69169000D01*
X159725000Y-69180000D01*
X159745000Y-69193000D01*
X159765000Y-69206000D01*
X159783000Y-69220000D01*
X159801000Y-69236000D01*
X159818000Y-69252000D01*
X159834000Y-69269000D01*
X159850000Y-69287000D01*
X159864000Y-69305000D01*
X159877000Y-69325000D01*
X159890000Y-69345000D01*
X159901000Y-69366000D01*
X159911000Y-69387000D01*
X159920000Y-69409000D01*
X159928000Y-69431000D01*
X159935000Y-69454000D01*
X159940000Y-69476000D01*
X159944000Y-69500000D01*
X159948000Y-69523000D01*
X159949000Y-69546000D01*
X159950000Y-69570000D01*
X159950000Y-70220000D01*
X159948000Y-70267000D01*
X159940000Y-70314000D01*
X159928000Y-70359000D01*
X159911000Y-70403000D01*
X159890000Y-70445000D01*
X159864000Y-70485000D01*
X159834000Y-70521000D01*
X159801000Y-70554000D01*
X159765000Y-70584000D01*
X159725000Y-70610000D01*
X159683000Y-70631000D01*
X159639000Y-70648000D01*
X159594000Y-70660000D01*
X159547000Y-70668000D01*
X159500000Y-70670000D01*
X159453000Y-70668000D01*
X159406000Y-70660000D01*
X159361000Y-70648000D01*
X159317000Y-70631000D01*
X159275000Y-70610000D01*
X159235000Y-70584000D01*
X159199000Y-70554000D01*
X159166000Y-70521000D01*
X159136000Y-70485000D01*
X159110000Y-70445000D01*
X159089000Y-70403000D01*
X159072000Y-70359000D01*
X159060000Y-70314000D01*
X159052000Y-70267000D01*
X159050000Y-70220000D01*
X159050000Y-70020000D01*
X159000000Y-70020000D01*
X158953000Y-70018000D01*
X158906000Y-70010000D01*
X158861000Y-69998000D01*
X158817000Y-69981000D01*
X158775000Y-69960000D01*
X158735000Y-69934000D01*
X158699000Y-69904000D01*
X158666000Y-69871000D01*
X158636000Y-69835000D01*
X158610000Y-69795000D01*
X158589000Y-69753000D01*
X158572000Y-69709000D01*
X158560000Y-69664000D01*
X158552000Y-69617000D01*
X158550000Y-69570000D01*
X158552000Y-69523000D01*
X158560000Y-69476000D01*
X158572000Y-69431000D01*
X158589000Y-69387000D01*
X158610000Y-69345000D01*
X158636000Y-69305000D01*
X158666000Y-69269000D01*
X158699000Y-69236000D01*
X158735000Y-69206000D01*
X158775000Y-69180000D01*
X158817000Y-69159000D01*
X158861000Y-69142000D01*
X158906000Y-69130000D01*
X158953000Y-69122000D01*
X159000000Y-69120000D01*
X159500000Y-69120000D01*
X159524000Y-69121000D01*
%TA.AperFunction,EtchedComponent*%
G36*
X159524000Y-69121000D02*
G01*
X159547000Y-69122000D01*
X159570000Y-69126000D01*
X159594000Y-69130000D01*
X159616000Y-69135000D01*
X159639000Y-69142000D01*
X159661000Y-69150000D01*
X159683000Y-69159000D01*
X159704000Y-69169000D01*
X159725000Y-69180000D01*
X159745000Y-69193000D01*
X159765000Y-69206000D01*
X159783000Y-69220000D01*
X159801000Y-69236000D01*
X159818000Y-69252000D01*
X159834000Y-69269000D01*
X159850000Y-69287000D01*
X159864000Y-69305000D01*
X159877000Y-69325000D01*
X159890000Y-69345000D01*
X159901000Y-69366000D01*
X159911000Y-69387000D01*
X159920000Y-69409000D01*
X159928000Y-69431000D01*
X159935000Y-69454000D01*
X159940000Y-69476000D01*
X159944000Y-69500000D01*
X159948000Y-69523000D01*
X159949000Y-69546000D01*
X159950000Y-69570000D01*
X159950000Y-70220000D01*
X159948000Y-70267000D01*
X159940000Y-70314000D01*
X159928000Y-70359000D01*
X159911000Y-70403000D01*
X159890000Y-70445000D01*
X159864000Y-70485000D01*
X159834000Y-70521000D01*
X159801000Y-70554000D01*
X159765000Y-70584000D01*
X159725000Y-70610000D01*
X159683000Y-70631000D01*
X159639000Y-70648000D01*
X159594000Y-70660000D01*
X159547000Y-70668000D01*
X159500000Y-70670000D01*
X159453000Y-70668000D01*
X159406000Y-70660000D01*
X159361000Y-70648000D01*
X159317000Y-70631000D01*
X159275000Y-70610000D01*
X159235000Y-70584000D01*
X159199000Y-70554000D01*
X159166000Y-70521000D01*
X159136000Y-70485000D01*
X159110000Y-70445000D01*
X159089000Y-70403000D01*
X159072000Y-70359000D01*
X159060000Y-70314000D01*
X159052000Y-70267000D01*
X159050000Y-70220000D01*
X159050000Y-70020000D01*
X159000000Y-70020000D01*
X158953000Y-70018000D01*
X158906000Y-70010000D01*
X158861000Y-69998000D01*
X158817000Y-69981000D01*
X158775000Y-69960000D01*
X158735000Y-69934000D01*
X158699000Y-69904000D01*
X158666000Y-69871000D01*
X158636000Y-69835000D01*
X158610000Y-69795000D01*
X158589000Y-69753000D01*
X158572000Y-69709000D01*
X158560000Y-69664000D01*
X158552000Y-69617000D01*
X158550000Y-69570000D01*
X158552000Y-69523000D01*
X158560000Y-69476000D01*
X158572000Y-69431000D01*
X158589000Y-69387000D01*
X158610000Y-69345000D01*
X158636000Y-69305000D01*
X158666000Y-69269000D01*
X158699000Y-69236000D01*
X158735000Y-69206000D01*
X158775000Y-69180000D01*
X158817000Y-69159000D01*
X158861000Y-69142000D01*
X158906000Y-69130000D01*
X158953000Y-69122000D01*
X159000000Y-69120000D01*
X159500000Y-69120000D01*
X159524000Y-69121000D01*
G37*
%TD.AperFunction*%
X159524000Y-69121000D02*
X159547000Y-69122000D01*
X159570000Y-69126000D01*
X159594000Y-69130000D01*
X159616000Y-69135000D01*
X159639000Y-69142000D01*
X159661000Y-69150000D01*
X159683000Y-69159000D01*
X159704000Y-69169000D01*
X159725000Y-69180000D01*
X159745000Y-69193000D01*
X159765000Y-69206000D01*
X159783000Y-69220000D01*
X159801000Y-69236000D01*
X159818000Y-69252000D01*
X159834000Y-69269000D01*
X159850000Y-69287000D01*
X159864000Y-69305000D01*
X159877000Y-69325000D01*
X159890000Y-69345000D01*
X159901000Y-69366000D01*
X159911000Y-69387000D01*
X159920000Y-69409000D01*
X159928000Y-69431000D01*
X159935000Y-69454000D01*
X159940000Y-69476000D01*
X159944000Y-69500000D01*
X159948000Y-69523000D01*
X159949000Y-69546000D01*
X159950000Y-69570000D01*
X159950000Y-70220000D01*
X159948000Y-70267000D01*
X159940000Y-70314000D01*
X159928000Y-70359000D01*
X159911000Y-70403000D01*
X159890000Y-70445000D01*
X159864000Y-70485000D01*
X159834000Y-70521000D01*
X159801000Y-70554000D01*
X159765000Y-70584000D01*
X159725000Y-70610000D01*
X159683000Y-70631000D01*
X159639000Y-70648000D01*
X159594000Y-70660000D01*
X159547000Y-70668000D01*
X159500000Y-70670000D01*
X159453000Y-70668000D01*
X159406000Y-70660000D01*
X159361000Y-70648000D01*
X159317000Y-70631000D01*
X159275000Y-70610000D01*
X159235000Y-70584000D01*
X159199000Y-70554000D01*
X159166000Y-70521000D01*
X159136000Y-70485000D01*
X159110000Y-70445000D01*
X159089000Y-70403000D01*
X159072000Y-70359000D01*
X159060000Y-70314000D01*
X159052000Y-70267000D01*
X159050000Y-70220000D01*
X159050000Y-70020000D01*
X159000000Y-70020000D01*
X158953000Y-70018000D01*
X158906000Y-70010000D01*
X158861000Y-69998000D01*
X158817000Y-69981000D01*
X158775000Y-69960000D01*
X158735000Y-69934000D01*
X158699000Y-69904000D01*
X158666000Y-69871000D01*
X158636000Y-69835000D01*
X158610000Y-69795000D01*
X158589000Y-69753000D01*
X158572000Y-69709000D01*
X158560000Y-69664000D01*
X158552000Y-69617000D01*
X158550000Y-69570000D01*
X158552000Y-69523000D01*
X158560000Y-69476000D01*
X158572000Y-69431000D01*
X158589000Y-69387000D01*
X158610000Y-69345000D01*
X158636000Y-69305000D01*
X158666000Y-69269000D01*
X158699000Y-69236000D01*
X158735000Y-69206000D01*
X158775000Y-69180000D01*
X158817000Y-69159000D01*
X158861000Y-69142000D01*
X158906000Y-69130000D01*
X158953000Y-69122000D01*
X159000000Y-69120000D01*
X159500000Y-69120000D01*
X159524000Y-69121000D01*
%TA.AperFunction,EtchedComponent*%
G36*
X159524000Y-69121000D02*
G01*
X159547000Y-69122000D01*
X159570000Y-69126000D01*
X159594000Y-69130000D01*
X159616000Y-69135000D01*
X159639000Y-69142000D01*
X159661000Y-69150000D01*
X159683000Y-69159000D01*
X159704000Y-69169000D01*
X159725000Y-69180000D01*
X159745000Y-69193000D01*
X159765000Y-69206000D01*
X159783000Y-69220000D01*
X159801000Y-69236000D01*
X159818000Y-69252000D01*
X159834000Y-69269000D01*
X159850000Y-69287000D01*
X159864000Y-69305000D01*
X159877000Y-69325000D01*
X159890000Y-69345000D01*
X159901000Y-69366000D01*
X159911000Y-69387000D01*
X159920000Y-69409000D01*
X159928000Y-69431000D01*
X159935000Y-69454000D01*
X159940000Y-69476000D01*
X159944000Y-69500000D01*
X159948000Y-69523000D01*
X159949000Y-69546000D01*
X159950000Y-69570000D01*
X159950000Y-70220000D01*
X159948000Y-70267000D01*
X159940000Y-70314000D01*
X159928000Y-70359000D01*
X159911000Y-70403000D01*
X159890000Y-70445000D01*
X159864000Y-70485000D01*
X159834000Y-70521000D01*
X159801000Y-70554000D01*
X159765000Y-70584000D01*
X159725000Y-70610000D01*
X159683000Y-70631000D01*
X159639000Y-70648000D01*
X159594000Y-70660000D01*
X159547000Y-70668000D01*
X159500000Y-70670000D01*
X159453000Y-70668000D01*
X159406000Y-70660000D01*
X159361000Y-70648000D01*
X159317000Y-70631000D01*
X159275000Y-70610000D01*
X159235000Y-70584000D01*
X159199000Y-70554000D01*
X159166000Y-70521000D01*
X159136000Y-70485000D01*
X159110000Y-70445000D01*
X159089000Y-70403000D01*
X159072000Y-70359000D01*
X159060000Y-70314000D01*
X159052000Y-70267000D01*
X159050000Y-70220000D01*
X159050000Y-70020000D01*
X159000000Y-70020000D01*
X158953000Y-70018000D01*
X158906000Y-70010000D01*
X158861000Y-69998000D01*
X158817000Y-69981000D01*
X158775000Y-69960000D01*
X158735000Y-69934000D01*
X158699000Y-69904000D01*
X158666000Y-69871000D01*
X158636000Y-69835000D01*
X158610000Y-69795000D01*
X158589000Y-69753000D01*
X158572000Y-69709000D01*
X158560000Y-69664000D01*
X158552000Y-69617000D01*
X158550000Y-69570000D01*
X158552000Y-69523000D01*
X158560000Y-69476000D01*
X158572000Y-69431000D01*
X158589000Y-69387000D01*
X158610000Y-69345000D01*
X158636000Y-69305000D01*
X158666000Y-69269000D01*
X158699000Y-69236000D01*
X158735000Y-69206000D01*
X158775000Y-69180000D01*
X158817000Y-69159000D01*
X158861000Y-69142000D01*
X158906000Y-69130000D01*
X158953000Y-69122000D01*
X159000000Y-69120000D01*
X159500000Y-69120000D01*
X159524000Y-69121000D01*
G37*
%TD.AperFunction*%
X159547000Y-77132000D02*
X159594000Y-77140000D01*
X159639000Y-77152000D01*
X159683000Y-77169000D01*
X159725000Y-77190000D01*
X159765000Y-77216000D01*
X159801000Y-77246000D01*
X159834000Y-77279000D01*
X159864000Y-77315000D01*
X159890000Y-77355000D01*
X159911000Y-77397000D01*
X159928000Y-77441000D01*
X159940000Y-77486000D01*
X159948000Y-77533000D01*
X159950000Y-77580000D01*
X159950000Y-78230000D01*
X159949000Y-78254000D01*
X159948000Y-78277000D01*
X159944000Y-78300000D01*
X159940000Y-78324000D01*
X159935000Y-78346000D01*
X159928000Y-78369000D01*
X159920000Y-78391000D01*
X159911000Y-78413000D01*
X159901000Y-78434000D01*
X159890000Y-78455000D01*
X159877000Y-78475000D01*
X159864000Y-78495000D01*
X159850000Y-78513000D01*
X159834000Y-78531000D01*
X159818000Y-78548000D01*
X159801000Y-78564000D01*
X159783000Y-78580000D01*
X159765000Y-78594000D01*
X159745000Y-78607000D01*
X159725000Y-78620000D01*
X159704000Y-78631000D01*
X159683000Y-78641000D01*
X159661000Y-78650000D01*
X159639000Y-78658000D01*
X159616000Y-78665000D01*
X159594000Y-78670000D01*
X159570000Y-78674000D01*
X159547000Y-78678000D01*
X159524000Y-78679000D01*
X159500000Y-78680000D01*
X159000000Y-78680000D01*
X158953000Y-78678000D01*
X158906000Y-78670000D01*
X158861000Y-78658000D01*
X158817000Y-78641000D01*
X158775000Y-78620000D01*
X158735000Y-78594000D01*
X158699000Y-78564000D01*
X158666000Y-78531000D01*
X158636000Y-78495000D01*
X158610000Y-78455000D01*
X158589000Y-78413000D01*
X158572000Y-78369000D01*
X158560000Y-78324000D01*
X158552000Y-78277000D01*
X158550000Y-78230000D01*
X158552000Y-78183000D01*
X158560000Y-78136000D01*
X158572000Y-78091000D01*
X158589000Y-78047000D01*
X158610000Y-78005000D01*
X158636000Y-77965000D01*
X158666000Y-77929000D01*
X158699000Y-77896000D01*
X158735000Y-77866000D01*
X158775000Y-77840000D01*
X158817000Y-77819000D01*
X158861000Y-77802000D01*
X158906000Y-77790000D01*
X158953000Y-77782000D01*
X159000000Y-77780000D01*
X159050000Y-77780000D01*
X159050000Y-77580000D01*
X159052000Y-77533000D01*
X159060000Y-77486000D01*
X159072000Y-77441000D01*
X159089000Y-77397000D01*
X159110000Y-77355000D01*
X159136000Y-77315000D01*
X159166000Y-77279000D01*
X159199000Y-77246000D01*
X159235000Y-77216000D01*
X159275000Y-77190000D01*
X159317000Y-77169000D01*
X159361000Y-77152000D01*
X159406000Y-77140000D01*
X159453000Y-77132000D01*
X159500000Y-77130000D01*
X159547000Y-77132000D01*
%TA.AperFunction,EtchedComponent*%
G36*
X159547000Y-77132000D02*
G01*
X159594000Y-77140000D01*
X159639000Y-77152000D01*
X159683000Y-77169000D01*
X159725000Y-77190000D01*
X159765000Y-77216000D01*
X159801000Y-77246000D01*
X159834000Y-77279000D01*
X159864000Y-77315000D01*
X159890000Y-77355000D01*
X159911000Y-77397000D01*
X159928000Y-77441000D01*
X159940000Y-77486000D01*
X159948000Y-77533000D01*
X159950000Y-77580000D01*
X159950000Y-78230000D01*
X159949000Y-78254000D01*
X159948000Y-78277000D01*
X159944000Y-78300000D01*
X159940000Y-78324000D01*
X159935000Y-78346000D01*
X159928000Y-78369000D01*
X159920000Y-78391000D01*
X159911000Y-78413000D01*
X159901000Y-78434000D01*
X159890000Y-78455000D01*
X159877000Y-78475000D01*
X159864000Y-78495000D01*
X159850000Y-78513000D01*
X159834000Y-78531000D01*
X159818000Y-78548000D01*
X159801000Y-78564000D01*
X159783000Y-78580000D01*
X159765000Y-78594000D01*
X159745000Y-78607000D01*
X159725000Y-78620000D01*
X159704000Y-78631000D01*
X159683000Y-78641000D01*
X159661000Y-78650000D01*
X159639000Y-78658000D01*
X159616000Y-78665000D01*
X159594000Y-78670000D01*
X159570000Y-78674000D01*
X159547000Y-78678000D01*
X159524000Y-78679000D01*
X159500000Y-78680000D01*
X159000000Y-78680000D01*
X158953000Y-78678000D01*
X158906000Y-78670000D01*
X158861000Y-78658000D01*
X158817000Y-78641000D01*
X158775000Y-78620000D01*
X158735000Y-78594000D01*
X158699000Y-78564000D01*
X158666000Y-78531000D01*
X158636000Y-78495000D01*
X158610000Y-78455000D01*
X158589000Y-78413000D01*
X158572000Y-78369000D01*
X158560000Y-78324000D01*
X158552000Y-78277000D01*
X158550000Y-78230000D01*
X158552000Y-78183000D01*
X158560000Y-78136000D01*
X158572000Y-78091000D01*
X158589000Y-78047000D01*
X158610000Y-78005000D01*
X158636000Y-77965000D01*
X158666000Y-77929000D01*
X158699000Y-77896000D01*
X158735000Y-77866000D01*
X158775000Y-77840000D01*
X158817000Y-77819000D01*
X158861000Y-77802000D01*
X158906000Y-77790000D01*
X158953000Y-77782000D01*
X159000000Y-77780000D01*
X159050000Y-77780000D01*
X159050000Y-77580000D01*
X159052000Y-77533000D01*
X159060000Y-77486000D01*
X159072000Y-77441000D01*
X159089000Y-77397000D01*
X159110000Y-77355000D01*
X159136000Y-77315000D01*
X159166000Y-77279000D01*
X159199000Y-77246000D01*
X159235000Y-77216000D01*
X159275000Y-77190000D01*
X159317000Y-77169000D01*
X159361000Y-77152000D01*
X159406000Y-77140000D01*
X159453000Y-77132000D01*
X159500000Y-77130000D01*
X159547000Y-77132000D01*
G37*
%TD.AperFunction*%
X159547000Y-77132000D02*
X159594000Y-77140000D01*
X159639000Y-77152000D01*
X159683000Y-77169000D01*
X159725000Y-77190000D01*
X159765000Y-77216000D01*
X159801000Y-77246000D01*
X159834000Y-77279000D01*
X159864000Y-77315000D01*
X159890000Y-77355000D01*
X159911000Y-77397000D01*
X159928000Y-77441000D01*
X159940000Y-77486000D01*
X159948000Y-77533000D01*
X159950000Y-77580000D01*
X159950000Y-78230000D01*
X159949000Y-78254000D01*
X159948000Y-78277000D01*
X159944000Y-78300000D01*
X159940000Y-78324000D01*
X159935000Y-78346000D01*
X159928000Y-78369000D01*
X159920000Y-78391000D01*
X159911000Y-78413000D01*
X159901000Y-78434000D01*
X159890000Y-78455000D01*
X159877000Y-78475000D01*
X159864000Y-78495000D01*
X159850000Y-78513000D01*
X159834000Y-78531000D01*
X159818000Y-78548000D01*
X159801000Y-78564000D01*
X159783000Y-78580000D01*
X159765000Y-78594000D01*
X159745000Y-78607000D01*
X159725000Y-78620000D01*
X159704000Y-78631000D01*
X159683000Y-78641000D01*
X159661000Y-78650000D01*
X159639000Y-78658000D01*
X159616000Y-78665000D01*
X159594000Y-78670000D01*
X159570000Y-78674000D01*
X159547000Y-78678000D01*
X159524000Y-78679000D01*
X159500000Y-78680000D01*
X159000000Y-78680000D01*
X158953000Y-78678000D01*
X158906000Y-78670000D01*
X158861000Y-78658000D01*
X158817000Y-78641000D01*
X158775000Y-78620000D01*
X158735000Y-78594000D01*
X158699000Y-78564000D01*
X158666000Y-78531000D01*
X158636000Y-78495000D01*
X158610000Y-78455000D01*
X158589000Y-78413000D01*
X158572000Y-78369000D01*
X158560000Y-78324000D01*
X158552000Y-78277000D01*
X158550000Y-78230000D01*
X158552000Y-78183000D01*
X158560000Y-78136000D01*
X158572000Y-78091000D01*
X158589000Y-78047000D01*
X158610000Y-78005000D01*
X158636000Y-77965000D01*
X158666000Y-77929000D01*
X158699000Y-77896000D01*
X158735000Y-77866000D01*
X158775000Y-77840000D01*
X158817000Y-77819000D01*
X158861000Y-77802000D01*
X158906000Y-77790000D01*
X158953000Y-77782000D01*
X159000000Y-77780000D01*
X159050000Y-77780000D01*
X159050000Y-77580000D01*
X159052000Y-77533000D01*
X159060000Y-77486000D01*
X159072000Y-77441000D01*
X159089000Y-77397000D01*
X159110000Y-77355000D01*
X159136000Y-77315000D01*
X159166000Y-77279000D01*
X159199000Y-77246000D01*
X159235000Y-77216000D01*
X159275000Y-77190000D01*
X159317000Y-77169000D01*
X159361000Y-77152000D01*
X159406000Y-77140000D01*
X159453000Y-77132000D01*
X159500000Y-77130000D01*
X159547000Y-77132000D01*
%TA.AperFunction,EtchedComponent*%
G36*
X159547000Y-77132000D02*
G01*
X159594000Y-77140000D01*
X159639000Y-77152000D01*
X159683000Y-77169000D01*
X159725000Y-77190000D01*
X159765000Y-77216000D01*
X159801000Y-77246000D01*
X159834000Y-77279000D01*
X159864000Y-77315000D01*
X159890000Y-77355000D01*
X159911000Y-77397000D01*
X159928000Y-77441000D01*
X159940000Y-77486000D01*
X159948000Y-77533000D01*
X159950000Y-77580000D01*
X159950000Y-78230000D01*
X159949000Y-78254000D01*
X159948000Y-78277000D01*
X159944000Y-78300000D01*
X159940000Y-78324000D01*
X159935000Y-78346000D01*
X159928000Y-78369000D01*
X159920000Y-78391000D01*
X159911000Y-78413000D01*
X159901000Y-78434000D01*
X159890000Y-78455000D01*
X159877000Y-78475000D01*
X159864000Y-78495000D01*
X159850000Y-78513000D01*
X159834000Y-78531000D01*
X159818000Y-78548000D01*
X159801000Y-78564000D01*
X159783000Y-78580000D01*
X159765000Y-78594000D01*
X159745000Y-78607000D01*
X159725000Y-78620000D01*
X159704000Y-78631000D01*
X159683000Y-78641000D01*
X159661000Y-78650000D01*
X159639000Y-78658000D01*
X159616000Y-78665000D01*
X159594000Y-78670000D01*
X159570000Y-78674000D01*
X159547000Y-78678000D01*
X159524000Y-78679000D01*
X159500000Y-78680000D01*
X159000000Y-78680000D01*
X158953000Y-78678000D01*
X158906000Y-78670000D01*
X158861000Y-78658000D01*
X158817000Y-78641000D01*
X158775000Y-78620000D01*
X158735000Y-78594000D01*
X158699000Y-78564000D01*
X158666000Y-78531000D01*
X158636000Y-78495000D01*
X158610000Y-78455000D01*
X158589000Y-78413000D01*
X158572000Y-78369000D01*
X158560000Y-78324000D01*
X158552000Y-78277000D01*
X158550000Y-78230000D01*
X158552000Y-78183000D01*
X158560000Y-78136000D01*
X158572000Y-78091000D01*
X158589000Y-78047000D01*
X158610000Y-78005000D01*
X158636000Y-77965000D01*
X158666000Y-77929000D01*
X158699000Y-77896000D01*
X158735000Y-77866000D01*
X158775000Y-77840000D01*
X158817000Y-77819000D01*
X158861000Y-77802000D01*
X158906000Y-77790000D01*
X158953000Y-77782000D01*
X159000000Y-77780000D01*
X159050000Y-77780000D01*
X159050000Y-77580000D01*
X159052000Y-77533000D01*
X159060000Y-77486000D01*
X159072000Y-77441000D01*
X159089000Y-77397000D01*
X159110000Y-77355000D01*
X159136000Y-77315000D01*
X159166000Y-77279000D01*
X159199000Y-77246000D01*
X159235000Y-77216000D01*
X159275000Y-77190000D01*
X159317000Y-77169000D01*
X159361000Y-77152000D01*
X159406000Y-77140000D01*
X159453000Y-77132000D01*
X159500000Y-77130000D01*
X159547000Y-77132000D01*
G37*
%TD.AperFunction*%
%TD*%
D11*
%TO.P,U2,V*%
%TO.N,N/C*%
X165087500Y-88000000D03*
X165087500Y-88799998D03*
%TD*%
D12*
%TO.P,J4,B1,GND__2*%
%TO.N,GND*%
X159850000Y-76700000D03*
%TO.P,J4,B2,SSTXP2*%
%TO.N,/USB_SIDE/USB3_TXP*%
X159150000Y-76300000D03*
%TO.P,J4,B3,SSTXN2*%
%TO.N,/USB_SIDE/USB3_TXN*%
X159150000Y-75500000D03*
%TO.P,J4,B4,VBUS__2*%
%TO.N,VBUS*%
X159850000Y-75100000D03*
%TO.P,J4,B5,CC2*%
%TO.N,unconnected-(J4-CC2-PadB5)*%
X159150000Y-74700000D03*
%TO.P,J4,B6,DP2*%
%TO.N,/USB_SIDE/USB2_P*%
X159850000Y-74300000D03*
%TO.P,J4,B7,DN2*%
%TO.N,/USB_SIDE/USB2_N*%
X159850000Y-73500000D03*
%TO.P,J4,B8,SBU2*%
%TO.N,unconnected-(J4-SBU2-PadB8)*%
X159150000Y-73100000D03*
%TO.P,J4,B9,VBUS__3*%
%TO.N,VBUS*%
X159850000Y-72700000D03*
%TO.P,J4,B10,SSRXN1*%
%TO.N,/USB_SIDE/USB3_RXN*%
X159150000Y-72300000D03*
%TO.P,J4,B11,SSRXP1*%
%TO.N,/USB_SIDE/USB3_RXP*%
X159150000Y-71500000D03*
%TO.P,J4,B12,GND__3*%
%TO.N,GND*%
X159850000Y-71100000D03*
D13*
%TO.P,J4,SH1,SHIELD*%
%TO.N,USB_SHIELD*%
X159000000Y-78230000D03*
%TO.P,J4,SH2,SHIELD__1*%
X159000000Y-69570000D03*
D14*
%TO.P,J4,SH3,SHIELD__2*%
X154500000Y-69570000D03*
%TO.P,J4,SH4,SHIELD__3*%
X154500000Y-78230000D03*
%TD*%
D15*
%TO.P,J2,1,Pin_1*%
%TO.N,GPIO10*%
X215000000Y-99000000D03*
D16*
%TO.P,J2,2,Pin_2*%
%TO.N,GPIO9*%
X213000000Y-99000000D03*
%TO.P,J2,3,Pin_3*%
%TO.N,GPIO8*%
X211000000Y-99000000D03*
%TO.P,J2,4,Pin_4*%
%TO.N,GPIO7*%
X209000000Y-99000000D03*
%TO.P,J2,5,Pin_5*%
%TO.N,GPIO6*%
X207000000Y-99000000D03*
%TO.P,J2,6,Pin_6*%
%TO.N,GPIO5*%
X205000000Y-99000000D03*
%TO.P,J2,7,Pin_7*%
%TO.N,GPIO4*%
X203000000Y-99000000D03*
%TO.P,J2,8,Pin_8*%
%TO.N,GND*%
X201000000Y-99000000D03*
%TD*%
D17*
%TO.P,U3,1,CS*%
%TO.N,Net-(U1-EECS{slash}GPIO0)*%
X177000000Y-61620000D03*
D18*
%TO.P,U3,2,CLK*%
%TO.N,Net-(U1-EECLK{slash}GPIO3)*%
X177000000Y-59080000D03*
%TO.P,U3,3,DI*%
%TO.N,Net-(U1-EEDI{slash}GPIO1)*%
X177000000Y-56540000D03*
%TO.P,U3,4,DO*%
%TO.N,Net-(U1-EEDO{slash}GPIO2)*%
X177000000Y-54000000D03*
%TO.P,U3,5,VSS*%
%TO.N,GND*%
X169380000Y-54000000D03*
%TO.P,U3,6,ORG*%
%TO.N,Net-(U3-ORG)*%
X169380000Y-56540000D03*
%TO.P,U3,7,NC*%
%TO.N,unconnected-(U3-NC-Pad7)*%
X169380000Y-59080000D03*
%TO.P,U3,8,VCC*%
%TO.N,VDD33A*%
X169380000Y-61620000D03*
%TD*%
D19*
%TO.P,FB1,1*%
%TO.N,VDD12A*%
X181500000Y-77000000D03*
%TO.P,FB1,2*%
%TO.N,VDD12*%
X180030000Y-77000000D03*
%TD*%
%TO.P,FL2,1*%
%TO.N,VDD33A*%
X206235000Y-57000000D03*
%TO.P,FL2,2*%
%TO.N,/ETH_SIDE/VddioA*%
X204765000Y-57000000D03*
%TD*%
D20*
%TO.P,R22,1*%
%TO.N,GND*%
X249087500Y-95500000D03*
%TO.P,R22,2*%
%TO.N,Net-(D4-K)*%
X250912500Y-95500000D03*
%TD*%
%TO.P,R1,1*%
%TO.N,MDIO*%
X198000000Y-89000000D03*
%TO.P,R1,2*%
%TO.N,VDD33A*%
X199825000Y-89000000D03*
%TD*%
D21*
%TO.P,R21,1*%
%TO.N,/ETH_SIDE/LED_0_STRP_ON*%
X245500000Y-95175000D03*
%TO.P,R21,2*%
%TO.N,VDD33A*%
X245500000Y-97000000D03*
%TD*%
D22*
%TO.P,R7,1*%
%TO.N,RESET_N*%
X179500000Y-68000000D03*
%TO.P,R7,2*%
%TO.N,VDD33A*%
X179500000Y-66175000D03*
%TD*%
D20*
%TO.P,R10,1*%
%TO.N,GND*%
X178175000Y-79000000D03*
%TO.P,R10,2*%
%TO.N,TEST*%
X180000000Y-79000000D03*
%TD*%
D22*
%TO.P,R18,1*%
%TO.N,/ETH_SIDE/BI_DA-*%
X235000000Y-72858900D03*
%TO.P,R18,2*%
%TO.N,Net-(C29-Pad1)*%
X235000000Y-71033900D03*
%TD*%
D23*
%TO.P,C35,1*%
%TO.N,GND*%
X204180000Y-59500000D03*
%TO.P,C35,2*%
%TO.N,/ETH_SIDE/VddioA*%
X204820000Y-59500000D03*
%TD*%
D24*
%TO.P,C30,1*%
%TO.N,VDD33A*%
X205000000Y-53000000D03*
%TO.P,C30,2*%
%TO.N,GND*%
X204360000Y-53000000D03*
%TD*%
D21*
%TO.P,R30,1*%
%TO.N,GND*%
X247000000Y-61587500D03*
%TO.P,R30,2*%
%TO.N,Net-(J3-GND_1)*%
X247000000Y-63412500D03*
%TD*%
D25*
%TO.P,C50,1*%
%TO.N,Net-(J3-GND_1)*%
X249000000Y-62975000D03*
%TO.P,C50,2*%
%TO.N,GND*%
X249000000Y-62335000D03*
%TD*%
D23*
%TO.P,C12,1*%
%TO.N,VDD33A*%
X200025000Y-76000000D03*
%TO.P,C12,2*%
%TO.N,GND*%
X200665000Y-76000000D03*
%TD*%
D24*
%TO.P,C11,1*%
%TO.N,VDD12A*%
X181640000Y-75500000D03*
%TO.P,C11,2*%
%TO.N,GND*%
X181000000Y-75500000D03*
%TD*%
D23*
%TO.P,C4,1*%
%TO.N,VDD33A*%
X199525000Y-73500000D03*
%TO.P,C4,2*%
%TO.N,GND*%
X200165000Y-73500000D03*
%TD*%
D26*
%TO.P,FL4,1*%
%TO.N,VDD33A*%
X222000000Y-90500000D03*
%TO.P,FL4,2*%
%TO.N,/ETH_SIDE/Vdda3p3*%
X222000000Y-89030000D03*
%TD*%
D23*
%TO.P,C45,1*%
%TO.N,GND*%
X204180000Y-61500000D03*
%TO.P,C45,2*%
%TO.N,/ETH_SIDE/VddioA*%
X204820000Y-61500000D03*
%TD*%
%TO.P,C40,1*%
%TO.N,GND*%
X204180000Y-60500000D03*
%TO.P,C40,2*%
%TO.N,/ETH_SIDE/VddioA*%
X204820000Y-60500000D03*
%TD*%
D24*
%TO.P,C48,1*%
%TO.N,GND*%
X222320000Y-85000000D03*
%TO.P,C48,2*%
%TO.N,/ETH_SIDE/Vdda3p3*%
X221680000Y-85000000D03*
%TD*%
D23*
%TO.P,C32,1*%
%TO.N,VDD33A*%
X221500000Y-92000000D03*
%TO.P,C32,2*%
%TO.N,GND*%
X222140000Y-92000000D03*
%TD*%
D24*
%TO.P,C43,1*%
%TO.N,GND*%
X222500000Y-86000000D03*
%TO.P,C43,2*%
%TO.N,/ETH_SIDE/Vdda3p3*%
X221860000Y-86000000D03*
%TD*%
D23*
%TO.P,C36,1*%
%TO.N,/ETH_SIDE/VddioA*%
X206000000Y-59500000D03*
%TO.P,C36,2*%
%TO.N,GND*%
X206640000Y-59500000D03*
%TD*%
%TO.P,C44,1*%
%TO.N,/ETH_SIDE/VddioA*%
X206000000Y-60500000D03*
%TO.P,C44,2*%
%TO.N,GND*%
X206640000Y-60500000D03*
%TD*%
D27*
%TO.P,R24,1*%
%TO.N,/ETH_SIDE/LED_1*%
X250912500Y-98500000D03*
%TO.P,R24,2*%
%TO.N,GND*%
X249087500Y-98500000D03*
%TD*%
D28*
%TO.P,J3,1,BI_DA+*%
%TO.N,/ETH_SIDE/BI_DA+*%
X244350000Y-74850000D03*
D29*
%TO.P,J3,2,BI_DA-*%
%TO.N,/ETH_SIDE/BI_DA-*%
X244350000Y-72050000D03*
D30*
%TO.P,J3,3,GND_1*%
%TO.N,Net-(J3-GND_1)*%
X241750000Y-69650000D03*
%TO.P,J3,4,GND_2*%
X241750000Y-77250000D03*
%TO.P,J3,5,GND_3*%
X251500000Y-69000000D03*
%TO.P,J3,6,GND_4*%
X251500000Y-77900000D03*
%TD*%
D24*
%TO.P,C9,1*%
%TO.N,VDD12A*%
X182000000Y-74500000D03*
%TO.P,C9,2*%
%TO.N,GND*%
X181360000Y-74500000D03*
%TD*%
D25*
%TO.P,C29,1*%
%TO.N,Net-(C29-Pad1)*%
X232000000Y-68820000D03*
%TO.P,C29,2*%
%TO.N,GND*%
X232000000Y-68180000D03*
%TD*%
D27*
%TO.P,R20,1*%
%TO.N,GND*%
X212412500Y-89000000D03*
%TO.P,R20,2*%
%TO.N,MDIO*%
X210587500Y-89000000D03*
%TD*%
D24*
%TO.P,C39,1*%
%TO.N,GND*%
X222320000Y-87000000D03*
%TO.P,C39,2*%
%TO.N,/ETH_SIDE/Vdda3p3*%
X221680000Y-87000000D03*
%TD*%
D22*
%TO.P,R17,1*%
%TO.N,/ETH_SIDE/BI_DA+*%
X232000000Y-72858900D03*
%TO.P,R17,2*%
%TO.N,Net-(C29-Pad1)*%
X232000000Y-71033900D03*
%TD*%
%TO.P,R19,1*%
%TO.N,Net-(C29-Pad1)*%
X235000000Y-68825000D03*
%TO.P,R19,2*%
%TO.N,GND*%
X235000000Y-67000000D03*
%TD*%
D31*
%TO.N,GND*%
X192000000Y-76500000D03*
X192000000Y-74500000D03*
X233000000Y-65000000D03*
X189000000Y-76500000D03*
X220500000Y-76500000D03*
X189000000Y-75500000D03*
X188000000Y-74500000D03*
X180500000Y-72500000D03*
X189000000Y-73500000D03*
X214000000Y-89000000D03*
X191000000Y-76500000D03*
X218500000Y-76500000D03*
X193000000Y-73500000D03*
X189000000Y-78500000D03*
X193000000Y-75500000D03*
X163000000Y-78500000D03*
X220500000Y-74500000D03*
X194500000Y-68000000D03*
X189000000Y-77500000D03*
X193000000Y-78500000D03*
X183500000Y-85500000D03*
X200500000Y-81000000D03*
X210500000Y-58500000D03*
X191000000Y-73500000D03*
X185000000Y-85000000D03*
X189000000Y-74500000D03*
X155087500Y-87000000D03*
X167000000Y-54000000D03*
X189500000Y-84500000D03*
X188000000Y-76500000D03*
X190000000Y-78500000D03*
X190500000Y-58000000D03*
X191000000Y-77500000D03*
X192000000Y-73500000D03*
X193000000Y-74500000D03*
X188000000Y-78500000D03*
X191000000Y-74500000D03*
X217000000Y-55000000D03*
X188000000Y-73500000D03*
X190000000Y-74500000D03*
X163087500Y-86500000D03*
X186000000Y-85500000D03*
X185500000Y-87000000D03*
X252500000Y-86500000D03*
X163087500Y-90500000D03*
X191500000Y-91000000D03*
X190000000Y-77500000D03*
X198500000Y-57000000D03*
X192000000Y-77500000D03*
X191000000Y-75500000D03*
X184000000Y-93500000D03*
X248000000Y-60000000D03*
X188000000Y-75500000D03*
X201500000Y-73500000D03*
X193000000Y-77500000D03*
X192000000Y-78500000D03*
X190000000Y-73500000D03*
X193000000Y-76500000D03*
X186500000Y-64345000D03*
X201500000Y-76000000D03*
X190000000Y-75500000D03*
X155000000Y-85000000D03*
X165500000Y-65500000D03*
X192000000Y-75500000D03*
X227500000Y-85000000D03*
X191000000Y-78500000D03*
X163000000Y-70500000D03*
X201000000Y-97000000D03*
X198500000Y-62500000D03*
X188000000Y-77500000D03*
X198000000Y-85000000D03*
X190000000Y-76500000D03*
X220000000Y-60000000D03*
X196500000Y-84500000D03*
X176500000Y-79500000D03*
X218500000Y-74500000D03*
%TO.N,VDD33A*%
X189149999Y-68500000D03*
X183500000Y-81500000D03*
X195000000Y-69000000D03*
X187000000Y-85500000D03*
X243500000Y-98000000D03*
X174500000Y-86500000D03*
X198500000Y-73500000D03*
X199000000Y-76000000D03*
X202000000Y-89000000D03*
X182500000Y-65000000D03*
X207000000Y-53000000D03*
X192500000Y-62000000D03*
X198000000Y-82000000D03*
X184500000Y-72500000D03*
X186000000Y-83000000D03*
X220000000Y-92000000D03*
X167000000Y-62500000D03*
X168000000Y-65000000D03*
X246000000Y-85000000D03*
X199000000Y-79000000D03*
X232000000Y-60500000D03*
%TO.N,VDD12A*%
X189500000Y-82000000D03*
X186500000Y-67845000D03*
X184500000Y-74500000D03*
X184500000Y-77000000D03*
X194500000Y-83500000D03*
%TO.N,VDD12*%
X183500000Y-60500000D03*
%TO.N,XI*%
X186000000Y-88500000D03*
X188000000Y-83500000D03*
%TO.N,XO*%
X190500000Y-92000000D03*
X188500000Y-84500000D03*
%TO.N,/ETH_SIDE/VddioA*%
X205000000Y-65000000D03*
X215000000Y-80500000D03*
%TO.N,/ETH_SIDE/Vdd1p0A*%
X226500000Y-80000000D03*
X215000000Y-67000000D03*
%TO.N,/ETH_SIDE/Vdda3p3*%
X221674265Y-84174265D03*
X220500001Y-87500000D03*
%TO.N,Net-(D4-K)*%
X251500000Y-92000000D03*
%TO.N,/ETH_SIDE/LED_1*%
X252500000Y-100000000D03*
%TO.N,VBUS*%
X163000000Y-73000000D03*
X163000000Y-75000000D03*
X161500000Y-82000000D03*
%TO.N,/ETH_SIDE/LED_0_STRP_ON*%
X242500000Y-97500000D03*
%TO.N,GPIO4*%
X203000000Y-96500000D03*
X173500000Y-72500000D03*
%TO.N,GPIO5*%
X205000000Y-96000000D03*
X173500000Y-73500000D03*
%TO.N,RESET_N*%
X177500000Y-70000000D03*
X182000000Y-80000000D03*
X174500000Y-70500000D03*
X184000000Y-67000000D03*
%TO.N,TEST*%
X181500000Y-79000000D03*
%TO.N,Net-(U1-EECLK{slash}GPIO3)*%
X187500000Y-64000000D03*
X179500000Y-59000000D03*
%TO.N,RXD2*%
X208000000Y-69000000D03*
X227100000Y-90900000D03*
%TO.N,TXD3*%
X211000000Y-80500000D03*
X211000000Y-76000000D03*
%TO.N,RX_CTL*%
X227500000Y-75000000D03*
X208000000Y-71500000D03*
%TO.N,RXD1*%
X226500000Y-89000000D03*
X212000000Y-70000000D03*
%TO.N,TXD2*%
X212500000Y-79500000D03*
X212500000Y-76000000D03*
%TO.N,Net-(U1-EEDO{slash}GPIO2)*%
X189000000Y-64500000D03*
X181500000Y-54000000D03*
%TO.N,TXD1*%
X214000000Y-78500000D03*
X214000000Y-76000000D03*
%TO.N,Net-(U1-EEDI{slash}GPIO1)*%
X190000000Y-64000000D03*
X186500000Y-56500000D03*
%TO.N,RXD0*%
X226000000Y-87500000D03*
X215000000Y-70500000D03*
%TO.N,PHY_RESET_N*%
X182500000Y-69500000D03*
X206000000Y-82500000D03*
%TO.N,MDC*%
X190000000Y-86500000D03*
X217499999Y-84100000D03*
%TO.N,PHY_INT_N*%
X183500000Y-69500000D03*
X205400000Y-81000000D03*
%TO.N,REF_25CLK*%
X219500000Y-80500000D03*
X193500000Y-86000000D03*
%TO.N,/ETH_SIDE/BI_DA+*%
X236500000Y-78500000D03*
%TO.N,/ETH_SIDE/BI_DA-*%
X236000000Y-75500000D03*
%TO.N,MDIO*%
X216500000Y-86000000D03*
X190000000Y-88000000D03*
D32*
%TO.N,/USB_SIDE/USB2_P*%
X160500000Y-73500000D03*
D31*
X171500000Y-73500000D03*
X164000000Y-73500000D03*
%TO.N,/USB_SIDE/USB2_N*%
X164500000Y-74000000D03*
X171234835Y-74265165D03*
%TO.N,/ETH_SIDE/LED_0_DIP*%
X214000000Y-93500000D03*
X215600000Y-82400000D03*
D32*
%TO.N,/USB_SIDE/USB3_TXN*%
X161685001Y-72150000D03*
%TO.N,/USB_SIDE/USB3_RXN*%
X162000000Y-75650000D03*
D31*
X169500000Y-78000000D03*
X166000000Y-76000000D03*
D32*
%TO.N,/USB_SIDE/USB3_RXP*%
X162500000Y-76500000D03*
%TO.N,/USB_SIDE/USB3_TXP*%
X164993200Y-71675000D03*
X164993200Y-71675000D03*
%TD*%
D33*
%TO.N,GND*%
X176500000Y-79500000D02*
X177000000Y-79000000D01*
X249000000Y-62335000D02*
X249000000Y-61000000D01*
X247000000Y-61000000D02*
X248000000Y-60000000D01*
X223500000Y-88180000D02*
X223500000Y-92000000D01*
X222140000Y-92000000D02*
X223500000Y-92000000D01*
X226848529Y-92000000D02*
X227700000Y-91148529D01*
X200165000Y-73500000D02*
X201500000Y-73500000D01*
X222320000Y-87000000D02*
X223500000Y-88180000D01*
X248000000Y-91000000D02*
X252500000Y-86500000D01*
X206640000Y-59500000D02*
X206640000Y-60500000D01*
X247000000Y-61587500D02*
X247000000Y-61000000D01*
X209500000Y-59500000D02*
X210500000Y-58500000D01*
X235000000Y-67000000D02*
X233000000Y-65000000D01*
X180000000Y-74000000D02*
X180000000Y-73000000D01*
X204180000Y-59500000D02*
X204180000Y-60500000D01*
X249000000Y-61000000D02*
X248000000Y-60000000D01*
X248000000Y-94412500D02*
X248000000Y-91000000D01*
X201000000Y-59500000D02*
X198500000Y-57000000D01*
X180000000Y-73000000D02*
X180500000Y-72500000D01*
X181000000Y-75500000D02*
X180500000Y-75500000D01*
X227700000Y-85200000D02*
X227500000Y-85000000D01*
X204360000Y-53000000D02*
X202500000Y-53000000D01*
X222500000Y-85180000D02*
X222500000Y-86000000D01*
X181360000Y-74500000D02*
X180500000Y-74500000D01*
X232000000Y-66000000D02*
X233000000Y-65000000D01*
X204180000Y-60500000D02*
X204180000Y-61500000D01*
X204180000Y-59500000D02*
X201000000Y-59500000D01*
X180000000Y-75000000D02*
X180000000Y-74000000D01*
X222500000Y-86000000D02*
X222500000Y-86820000D01*
X200665000Y-76000000D02*
X201500000Y-76000000D01*
X223500000Y-92000000D02*
X226848529Y-92000000D01*
X206640000Y-59500000D02*
X206640000Y-59360000D01*
X249087500Y-95500000D02*
X248000000Y-94412500D01*
X177000000Y-79000000D02*
X178175000Y-79000000D01*
X212412500Y-89000000D02*
X214000000Y-89000000D01*
X249087500Y-98500000D02*
X249087500Y-95500000D01*
X222320000Y-85000000D02*
X222500000Y-85180000D01*
X180500000Y-75500000D02*
X180000000Y-75000000D01*
X232000000Y-68180000D02*
X232000000Y-66000000D01*
X180500000Y-74500000D02*
X180000000Y-74000000D01*
X202500000Y-53000000D02*
X198500000Y-57000000D01*
X227700000Y-91148529D02*
X227700000Y-85200000D01*
X222500000Y-86820000D02*
X222320000Y-87000000D01*
X206640000Y-59500000D02*
X209500000Y-59500000D01*
%TO.N,VDD33A*%
X207000000Y-53000000D02*
X206500000Y-53000000D01*
X200025000Y-76000000D02*
X199000000Y-76000000D01*
X244500000Y-97000000D02*
X245500000Y-97000000D01*
X206500000Y-53000000D02*
X206000000Y-53500000D01*
X199825000Y-89000000D02*
X202000000Y-89000000D01*
X206500000Y-53000000D02*
X205000000Y-53000000D01*
X206000000Y-53500000D02*
X206000000Y-56765000D01*
X221500000Y-92000000D02*
X221500000Y-91000000D01*
X182500000Y-65000000D02*
X180000000Y-65000000D01*
X221500000Y-91000000D02*
X222000000Y-90500000D01*
X179500000Y-65500000D02*
X179500000Y-66175000D01*
X243500000Y-98000000D02*
X244500000Y-97000000D01*
X206000000Y-56765000D02*
X206235000Y-57000000D01*
X198500000Y-73500000D02*
X199525000Y-73500000D01*
X221500000Y-92000000D02*
X220000000Y-92000000D01*
X180000000Y-65000000D02*
X179500000Y-65500000D01*
%TO.N,VDD12A*%
X182500000Y-73000000D02*
X182500000Y-74500000D01*
X185000000Y-69000000D02*
X185000000Y-70500000D01*
X182500000Y-75500000D02*
X181640000Y-75500000D01*
X185000000Y-70500000D02*
X182500000Y-73000000D01*
X185500000Y-82000000D02*
X182500000Y-79000000D01*
X182500000Y-75500000D02*
X182500000Y-77000000D01*
X189500000Y-82000000D02*
X185500000Y-82000000D01*
X184500000Y-77000000D02*
X182500000Y-77000000D01*
X182500000Y-74500000D02*
X182000000Y-74500000D01*
X182500000Y-79000000D02*
X182500000Y-77000000D01*
X182500000Y-74500000D02*
X182500000Y-75500000D01*
X182500000Y-77000000D02*
X181500000Y-77000000D01*
X184500000Y-74500000D02*
X182500000Y-74500000D01*
X189500000Y-82000000D02*
X193000000Y-82000000D01*
X193000000Y-82000000D02*
X194500000Y-83500000D01*
X186155000Y-67845000D02*
X186500000Y-67845000D01*
X185000000Y-69000000D02*
X186155000Y-67845000D01*
%TO.N,VDD12*%
X176000000Y-65500000D02*
X181000000Y-60500000D01*
X177000000Y-77000000D02*
X176000000Y-76000000D01*
X181000000Y-60500000D02*
X183500000Y-60500000D01*
X176000000Y-76000000D02*
X176000000Y-65500000D01*
X180030000Y-77000000D02*
X177000000Y-77000000D01*
%TO.N,XI*%
X187900000Y-87600000D02*
X187000000Y-88500000D01*
X188000000Y-83500000D02*
X187900000Y-83600000D01*
X187900000Y-83600000D02*
X187900000Y-87600000D01*
X187000000Y-88500000D02*
X186000000Y-88500000D01*
%TO.N,USB_SHIELD*%
X154500000Y-69570000D02*
X154500000Y-78230000D01*
%TO.N,XO*%
X190500000Y-90000000D02*
X190500000Y-92000000D01*
X188500000Y-84500000D02*
X188500000Y-89000000D01*
X188500000Y-89000000D02*
X189000000Y-89500000D01*
X190000000Y-89500000D02*
X190500000Y-90000000D01*
X189000000Y-89500000D02*
X190000000Y-89500000D01*
%TO.N,Net-(C29-Pad1)*%
X232000000Y-71087500D02*
X235000000Y-71087500D01*
X232000000Y-71087500D02*
X232000000Y-68820000D01*
X235000000Y-71087500D02*
X235000000Y-68825000D01*
%TO.N,Net-(J3-GND_1)*%
X248562500Y-63412500D02*
X249000000Y-62975000D01*
X246000000Y-68000000D02*
X247000000Y-69000000D01*
X247000000Y-63412500D02*
X246000000Y-64412500D01*
X242350000Y-69650000D02*
X243000000Y-69000000D01*
X250850000Y-77250000D02*
X251500000Y-77900000D01*
X246000000Y-64412500D02*
X246000000Y-68000000D01*
X247000000Y-63412500D02*
X248562500Y-63412500D01*
X241750000Y-77250000D02*
X250850000Y-77250000D01*
X243000000Y-69000000D02*
X247000000Y-69000000D01*
X251500000Y-69000000D02*
X251500000Y-77900000D01*
X247000000Y-69000000D02*
X251500000Y-69000000D01*
X241750000Y-69650000D02*
X242350000Y-69650000D01*
X241750000Y-77250000D02*
X241750000Y-69650000D01*
%TO.N,/ETH_SIDE/VddioA*%
X204820000Y-59500000D02*
X204820000Y-60500000D01*
X215000000Y-80500000D02*
X214400000Y-81100000D01*
X204765000Y-57000000D02*
X204765000Y-59445000D01*
X206341544Y-61000000D02*
X206000000Y-60658456D01*
X205530000Y-59500000D02*
X204765000Y-58735000D01*
X210751471Y-81100000D02*
X207000000Y-77348529D01*
X207000000Y-77348529D02*
X207000000Y-61500000D01*
X206000000Y-59500000D02*
X205530000Y-59500000D01*
X214400000Y-81100000D02*
X210751471Y-81100000D01*
X204820000Y-64820000D02*
X205000000Y-65000000D01*
X204765000Y-59445000D02*
X204820000Y-59500000D01*
X206000000Y-59500000D02*
X206000000Y-60500000D01*
X204820000Y-61500000D02*
X204820000Y-64820000D01*
X204820000Y-60500000D02*
X204820000Y-61500000D01*
X206500000Y-61000000D02*
X206341544Y-61000000D01*
X206000000Y-60658456D02*
X206000000Y-60500000D01*
X207000000Y-61500000D02*
X206500000Y-61000000D01*
%TO.N,/ETH_SIDE/Vdd1p0A*%
X215500000Y-67500000D02*
X215000000Y-67000000D01*
X226500000Y-80000000D02*
X226500000Y-71934314D01*
X222065686Y-67500000D02*
X222000000Y-67500000D01*
X222000000Y-67500000D02*
X215500000Y-67500000D01*
X226500000Y-71934314D02*
X222065686Y-67500000D01*
%TO.N,/ETH_SIDE/Vdda3p3*%
X222000000Y-89030000D02*
X222000000Y-87478456D01*
X221680000Y-86180000D02*
X221860000Y-86000000D01*
X222000000Y-87478456D02*
X221680000Y-87158456D01*
X221674265Y-84174265D02*
X221674265Y-84994265D01*
X222000000Y-88999999D02*
X220500001Y-87500000D01*
X222000000Y-89030000D02*
X222000000Y-88999999D01*
X221674265Y-84994265D02*
X221680000Y-85000000D01*
X221680000Y-87158456D02*
X221680000Y-87000000D01*
X221680000Y-85000000D02*
X221680000Y-85820000D01*
X221680000Y-85820000D02*
X221860000Y-86000000D01*
X221680000Y-87000000D02*
X221680000Y-86180000D01*
%TO.N,Net-(D4-K)*%
X251500000Y-92000000D02*
X250000000Y-92000000D01*
X248603125Y-93396875D02*
X250706250Y-95500000D01*
X250000000Y-92000000D02*
X248603125Y-93396875D01*
X250706250Y-95500000D02*
X250912500Y-95500000D01*
%TO.N,/ETH_SIDE/LED_1*%
X252500000Y-100000000D02*
X251000000Y-98500000D01*
X251000000Y-98500000D02*
X250912500Y-98500000D01*
%TO.N,VBUS*%
X163000000Y-73000000D02*
X163000000Y-75000000D01*
X165000000Y-79500000D02*
X162500000Y-82000000D01*
X165000000Y-77000000D02*
X165000000Y-79500000D01*
X163000000Y-75000000D02*
X165000000Y-77000000D01*
X162500000Y-82000000D02*
X161500000Y-82000000D01*
%TO.N,/ETH_SIDE/LED_0_STRP_ON*%
X242500000Y-97500000D02*
X244825000Y-95175000D01*
X244825000Y-95175000D02*
X245500000Y-95175000D01*
%TO.N,GPIO4*%
X177500000Y-90565686D02*
X177500000Y-84500000D01*
X177500000Y-84500000D02*
X177434314Y-84500000D01*
X203000000Y-96500000D02*
X202500000Y-96000000D01*
X202500000Y-96000000D02*
X182934314Y-96000000D01*
X182934314Y-96000000D02*
X177500000Y-90565686D01*
X172900000Y-79965686D02*
X172900000Y-73100000D01*
X172900000Y-73100000D02*
X173500000Y-72500000D01*
X177434314Y-84500000D02*
X172900000Y-79965686D01*
%TO.N,GPIO5*%
X178000000Y-84434315D02*
X178000000Y-90500000D01*
X178000000Y-90500000D02*
X183000000Y-95500000D01*
X204500000Y-95500000D02*
X205000000Y-96000000D01*
X175065685Y-81500000D02*
X178000000Y-84434315D01*
X173500000Y-73500000D02*
X173500000Y-80000000D01*
X183000000Y-95500000D02*
X204500000Y-95500000D01*
X175000000Y-81500000D02*
X175065685Y-81500000D01*
X173500000Y-80000000D02*
X175000000Y-81500000D01*
%TO.N,RESET_N*%
X180000000Y-70000000D02*
X183000000Y-67000000D01*
X178500000Y-70000000D02*
X179500000Y-69000000D01*
X178500000Y-70000000D02*
X180000000Y-70000000D01*
X179500000Y-69000000D02*
X179500000Y-68000000D01*
X174500000Y-79000000D02*
X174500000Y-70500000D01*
X176000000Y-80500000D02*
X174500000Y-79000000D01*
X181500000Y-80500000D02*
X176000000Y-80500000D01*
X177500000Y-70000000D02*
X178500000Y-70000000D01*
X182000000Y-80000000D02*
X181500000Y-80500000D01*
X183000000Y-67000000D02*
X184000000Y-67000000D01*
%TO.N,TEST*%
X181500000Y-79000000D02*
X180000000Y-79000000D01*
%TO.N,Net-(U1-EECLK{slash}GPIO3)*%
X187500000Y-60000000D02*
X186500000Y-59000000D01*
X186500000Y-59000000D02*
X179500000Y-59000000D01*
X187500000Y-64000000D02*
X187500000Y-60000000D01*
%TO.N,RXD2*%
X225500000Y-85000000D02*
X225500000Y-71500000D01*
X225500000Y-71500000D02*
X222600000Y-68600000D01*
X208400000Y-68600000D02*
X208000000Y-69000000D01*
X227100000Y-90900000D02*
X227100000Y-86600000D01*
X227100000Y-86600000D02*
X225500000Y-85000000D01*
X222600000Y-68600000D02*
X208400000Y-68600000D01*
%TO.N,TXD3*%
X211000000Y-76000000D02*
X211000000Y-80500000D01*
%TO.N,RX_CTL*%
X208000000Y-71500000D02*
X207400000Y-70900000D01*
X207400000Y-70900000D02*
X207400000Y-68751471D01*
X227500000Y-72368628D02*
X227500000Y-75000000D01*
X209751471Y-66400000D02*
X221531372Y-66400000D01*
X221531372Y-66400000D02*
X227500000Y-72368628D01*
X207400000Y-68751471D02*
X209751471Y-66400000D01*
%TO.N,RXD1*%
X226500000Y-89000000D02*
X226600000Y-88900000D01*
X226600000Y-87100000D02*
X225000000Y-85500000D01*
X222000000Y-69000000D02*
X213000000Y-69000000D01*
X225000000Y-72000000D02*
X222000000Y-69000000D01*
X226600000Y-88900000D02*
X226600000Y-87100000D01*
X225000000Y-85500000D02*
X225000000Y-72000000D01*
X213000000Y-69000000D02*
X212000000Y-70000000D01*
%TO.N,TXD2*%
X212500000Y-76000000D02*
X212500000Y-79500000D01*
%TO.N,Net-(U1-EEDO{slash}GPIO2)*%
X189000000Y-64500000D02*
X188000000Y-63500000D01*
X188000000Y-59000000D02*
X183000000Y-54000000D01*
X188000000Y-63500000D02*
X188000000Y-59000000D01*
X183000000Y-54000000D02*
X181500000Y-54000000D01*
%TO.N,TXD1*%
X214000000Y-76000000D02*
X214000000Y-78500000D01*
%TO.N,Net-(U1-EEDI{slash}GPIO1)*%
X190000000Y-64000000D02*
X189000000Y-63000000D01*
X189000000Y-58000000D02*
X187500000Y-56500000D01*
X187500000Y-56500000D02*
X186500000Y-56500000D01*
X189000000Y-63000000D02*
X189000000Y-58000000D01*
%TO.N,RXD0*%
X224500000Y-72500000D02*
X221900000Y-69900000D01*
X215600000Y-69900000D02*
X215000000Y-70500000D01*
X221900000Y-69900000D02*
X215600000Y-69900000D01*
X224500000Y-84000000D02*
X224500000Y-72500000D01*
X226000000Y-87500000D02*
X224500000Y-86000000D01*
X224500000Y-86000000D02*
X224500000Y-84000000D01*
%TO.N,PHY_RESET_N*%
X206000000Y-67500000D02*
X205000000Y-66500000D01*
X205000000Y-66500000D02*
X185500000Y-66500000D01*
X206000000Y-82500000D02*
X206000000Y-67500000D01*
X185500000Y-66500000D02*
X182500000Y-69500000D01*
%TO.N,MDC*%
X190500000Y-87000000D02*
X190000000Y-86500000D01*
X214599999Y-87000000D02*
X190500000Y-87000000D01*
X217499999Y-84100000D02*
X214599999Y-87000000D01*
%TO.N,PHY_INT_N*%
X205400000Y-81000000D02*
X205400000Y-67900000D01*
X185755000Y-67245000D02*
X183500000Y-69500000D01*
X205400000Y-67900000D02*
X204745000Y-67245000D01*
X204745000Y-67245000D02*
X185755000Y-67245000D01*
%TO.N,REF_25CLK*%
X198000000Y-86500000D02*
X201000000Y-83500000D01*
X201000000Y-83500000D02*
X217500000Y-83500000D01*
X194000000Y-86500000D02*
X198000000Y-86500000D01*
X217500000Y-83500000D02*
X219500000Y-81500000D01*
X219500000Y-81500000D02*
X219500000Y-80500000D01*
X193500000Y-86000000D02*
X194000000Y-86500000D01*
%TO.N,/ETH_SIDE/BI_DA+*%
X234500000Y-79000000D02*
X232000000Y-76500000D01*
X232000000Y-76500000D02*
X232000000Y-72858900D01*
X236000000Y-79000000D02*
X234500000Y-79000000D01*
X236500000Y-78500000D02*
X236000000Y-79000000D01*
%TO.N,/ETH_SIDE/BI_DA-*%
X236000000Y-75500000D02*
X235000000Y-74500000D01*
X235000000Y-74500000D02*
X235000000Y-72858900D01*
%TO.N,MDIO*%
X196000000Y-87500000D02*
X190500000Y-87500000D01*
X210000000Y-89000000D02*
X208500000Y-87500000D01*
X196000000Y-87500000D02*
X197500000Y-89000000D01*
X190500000Y-87500000D02*
X190000000Y-88000000D01*
X210587500Y-89000000D02*
X210000000Y-89000000D01*
X215000000Y-87500000D02*
X208500000Y-87500000D01*
X208500000Y-87500000D02*
X196000000Y-87500000D01*
X216500000Y-86000000D02*
X215000000Y-87500000D01*
X197500000Y-89000000D02*
X198000000Y-89000000D01*
%TO.N,/USB_SIDE/USB2_P*%
X160500000Y-73650000D02*
X160500000Y-73500000D01*
X159850000Y-74300000D02*
X160500000Y-73650000D01*
X164000000Y-73500000D02*
X171500000Y-73500000D01*
%TO.N,/USB_SIDE/USB2_N*%
X170869670Y-73900000D02*
X164500000Y-74000000D01*
X171234835Y-74265165D02*
X170919671Y-73950001D01*
X164500000Y-74000000D02*
X164600000Y-73900000D01*
X170919671Y-73950001D02*
X170869670Y-73900000D01*
%TO.N,/ETH_SIDE/LED_0_DIP*%
X221500000Y-83500000D02*
X221500000Y-80000000D01*
X214000000Y-93500000D02*
X214000000Y-91000000D01*
X214000000Y-91000000D02*
X221500000Y-83500000D01*
X219131372Y-79500000D02*
X216231372Y-82400000D01*
X221500000Y-80000000D02*
X221000000Y-79500000D01*
X221000000Y-79500000D02*
X219131372Y-79500000D01*
X216231372Y-82400000D02*
X215600000Y-82400000D01*
%TO.N,/USB_SIDE/USB3_TXN*%
X157225000Y-71080000D02*
X157225000Y-71200000D01*
X158225000Y-72880000D02*
X158225000Y-73000000D01*
X161840900Y-68659100D02*
X160406800Y-67225000D01*
X157225000Y-73600000D02*
X157225000Y-74592746D01*
X157225000Y-74906800D02*
X157993200Y-75675000D01*
X157985000Y-73240000D02*
X157465000Y-73240000D01*
X161685001Y-72150000D02*
X161840900Y-71994101D01*
X157993200Y-75675000D02*
X158975000Y-75675000D01*
X157225000Y-74592746D02*
X157225000Y-74906800D01*
X157225000Y-73480000D02*
X157225000Y-73600000D01*
X157465000Y-70240000D02*
X157985000Y-70240000D01*
X157985000Y-70840000D02*
X157465000Y-70840000D01*
X161840900Y-71994101D02*
X161840900Y-68659100D01*
X158975000Y-75675000D02*
X159150000Y-75500000D01*
X158093200Y-67225000D02*
X157225000Y-68093200D01*
X158225000Y-71680000D02*
X158225000Y-71800000D01*
X157985000Y-72040000D02*
X157465000Y-72040000D01*
X157465000Y-71440000D02*
X157985000Y-71440000D01*
X157465000Y-72640000D02*
X157985000Y-72640000D01*
X157225000Y-72280000D02*
X157225000Y-72400000D01*
X158225000Y-70480000D02*
X158225000Y-70600000D01*
X157225000Y-68093200D02*
X157225000Y-70000000D01*
X160406800Y-67225000D02*
X158093200Y-67225000D01*
X157985000Y-71440000D02*
G75*
G02*
X158225000Y-71680000I0J-240000D01*
G01*
X157985000Y-72640000D02*
G75*
G02*
X158225000Y-72880000I0J-240000D01*
G01*
X157465000Y-70840000D02*
G75*
G03*
X157225000Y-71080000I0J-240000D01*
G01*
X157225000Y-72400000D02*
G75*
G03*
X157465000Y-72640000I240000J0D01*
G01*
X158225000Y-73000000D02*
G75*
G02*
X157985000Y-73240000I-240000J0D01*
G01*
X158225000Y-70600000D02*
G75*
G02*
X157985000Y-70840000I-240000J0D01*
G01*
X157225000Y-70000000D02*
G75*
G03*
X157465000Y-70240000I240000J0D01*
G01*
X157465000Y-73240000D02*
G75*
G03*
X157225000Y-73480000I0J-240000D01*
G01*
X158225000Y-71800000D02*
G75*
G02*
X157985000Y-72040000I-240000J0D01*
G01*
X157465000Y-72040000D02*
G75*
G03*
X157225000Y-72280000I0J-240000D01*
G01*
X157985000Y-70240000D02*
G75*
G02*
X158225000Y-70480000I0J-240000D01*
G01*
X157225000Y-71200000D02*
G75*
G03*
X157465000Y-71440000I240000J0D01*
G01*
%TO.N,/USB_SIDE/USB3_RXN*%
X160500000Y-72000000D02*
X162000000Y-73500000D01*
X159450000Y-72000000D02*
X160500000Y-72000000D01*
X168000000Y-78000000D02*
X169500000Y-78000000D01*
X159150000Y-72300000D02*
X159450000Y-72000000D01*
X162000000Y-73500000D02*
X162000000Y-75650000D01*
X166000000Y-76000000D02*
X168000000Y-78000000D01*
%TO.N,/USB_SIDE/USB3_RXP*%
X162500000Y-73609394D02*
X162500000Y-76500000D01*
X160590606Y-71700000D02*
X162500000Y-73609394D01*
X159150000Y-71500000D02*
X159350000Y-71700000D01*
X159350000Y-71700000D02*
X160590606Y-71700000D01*
%TO.N,/USB_SIDE/USB3_TXP*%
X160593200Y-66775000D02*
X164993200Y-71175000D01*
X164993200Y-71175000D02*
X164993200Y-71675000D01*
X158975000Y-76125000D02*
X157806800Y-76125000D01*
X159150000Y-76300000D02*
X158975000Y-76125000D01*
X156775000Y-75093200D02*
X156775000Y-67906800D01*
X156775000Y-67906800D02*
X157906800Y-66775000D01*
X157806800Y-76125000D02*
X156775000Y-75093200D01*
X157906800Y-66775000D02*
X160593200Y-66775000D01*
%TD*%
M02*
